<svg width="215" height="127" viewBox="0 0 215 127" fill="none" xmlns="http://www.w3.org/2000/svg">
<path d="M2.71875 48.5625C2.71875 40.875 4.51042 34.7396 8.09375 30.1562C11.3021 26.0104 15.1875 23.9375 19.75 23.9375C24.3125 23.9375 28.1979 26.0104 31.4062 30.1562C34.9896 34.7396 36.7812 40.9792 36.7812 48.875C36.7812 56.75 34.9896 62.9792 31.4062 67.5625C28.1979 71.7083 24.3229 73.7812 19.7812 73.7812C15.2396 73.7812 11.3438 71.7083 8.09375 67.5625C4.51042 62.9792 2.71875 56.6458 2.71875 48.5625ZM9.875 48.5938C9.875 53.9479 10.8021 58.3958 12.6562 61.9375C14.5104 65.4167 16.875 67.1562 19.75 67.1562C22.6042 67.1562 24.9688 65.4167 26.8438 61.9375C28.7188 58.4792 29.6562 54.1146 29.6562 48.8438C29.6562 43.5729 28.7188 39.1979 26.8438 35.7188C24.9688 32.2604 22.6042 30.5312 19.75 30.5312C16.9167 30.5312 14.5625 32.2604 12.6875 35.7188C10.8125 39.1562 9.875 43.4479 9.875 48.5938ZM58.3063 31.5625H49.9625L53.9625 24.75H65.5875V73H58.3063V31.5625Z" fill="#282828"/>
<path d="M0.8 104.42V102.86H5.64V104.42H0.8ZM20.8253 101.72C20.8253 103.32 20.5253 104.66 19.9253 105.74C19.3386 106.82 18.492 107.633 17.3853 108.18C16.2786 108.727 14.9386 109 13.3653 109H9.38531V94.72H13.7853C15.2253 94.72 16.472 94.9867 17.5253 95.52C18.5786 96.0533 19.392 96.84 19.9653 97.88C20.5386 98.9067 20.8253 100.187 20.8253 101.72ZM18.9253 101.78C18.9253 100.513 18.712 99.4733 18.2853 98.66C17.872 97.8467 17.2586 97.2467 16.4453 96.86C15.6453 96.46 14.672 96.26 13.5253 96.26H11.1853V107.46H13.1253C15.0586 107.46 16.5053 106.987 17.4653 106.04C18.4386 105.08 18.9253 103.66 18.9253 101.78ZM28.9347 94.72C30.1214 94.72 31.0947 94.8733 31.8547 95.18C32.628 95.4733 33.2014 95.92 33.5747 96.52C33.948 97.12 34.1347 97.8733 34.1347 98.78C34.1347 99.54 33.9947 100.173 33.7147 100.68C33.4347 101.187 33.0747 101.593 32.6347 101.9C32.208 102.193 31.7547 102.427 31.2747 102.6L35.1947 109H33.0947L29.6347 103.1H26.7947V109H24.9947V94.72H28.9347ZM28.8347 96.28H26.7947V101.58H28.9347C29.708 101.58 30.3414 101.48 30.8347 101.28C31.328 101.067 31.688 100.76 31.9147 100.36C32.1547 99.96 32.2747 99.46 32.2747 98.86C32.2747 98.2333 32.148 97.7333 31.8947 97.36C31.6547 96.9867 31.2814 96.7133 30.7747 96.54C30.268 96.3667 29.6214 96.28 28.8347 96.28ZM42.4561 109H37.2961V107.96L38.9761 107.58V96.16L37.2961 95.76V94.72H42.4561V95.76L40.7761 96.16V107.58L42.4561 107.96V109ZM56.2734 94.72L51.1734 109H49.3734L44.2734 94.72H46.1534L49.3734 103.88C49.5201 104.267 49.6468 104.64 49.7534 105C49.8601 105.36 49.9534 105.707 50.0334 106.04C50.1268 106.36 50.2068 106.68 50.2734 107C50.3401 106.68 50.4134 106.353 50.4934 106.02C50.5868 105.687 50.6868 105.34 50.7934 104.98C50.9134 104.62 51.0401 104.24 51.1734 103.84L54.3734 94.72H56.2734ZM67.1856 109H59.2056V94.72H67.1856V96.3H61.0056V100.76H66.8256V102.32H61.0056V107.42H67.1856V109Z" fill="#282828"/>
</svg>
