<svg width="215" height="127" viewBox="0 0 215 127" fill="none" xmlns="http://www.w3.org/2000/svg">
<path d="M2.71875 48.5625C2.71875 40.875 4.51042 34.7396 8.09375 30.1562C11.3021 26.0104 15.1875 23.9375 19.75 23.9375C24.3125 23.9375 28.1979 26.0104 31.4062 30.1562C34.9896 34.7396 36.7812 40.9792 36.7812 48.875C36.7812 56.75 34.9896 62.9792 31.4062 67.5625C28.1979 71.7083 24.3229 73.7812 19.7812 73.7812C15.2396 73.7812 11.3438 71.7083 8.09375 67.5625C4.51042 62.9792 2.71875 56.6458 2.71875 48.5625ZM9.875 48.5938C9.875 53.9479 10.8021 58.3958 12.6562 61.9375C14.5104 65.4167 16.875 67.1562 19.75 67.1562C22.6042 67.1562 24.9688 65.4167 26.8438 61.9375C28.7188 58.4792 29.6562 54.1146 29.6562 48.8438C29.6562 43.5729 28.7188 39.1979 26.8438 35.7188C24.9688 32.2604 22.6042 30.5312 19.75 30.5312C16.9167 30.5312 14.5625 32.2604 12.6875 35.7188C10.8125 39.1562 9.875 43.4479 9.875 48.5938ZM61.9313 66.1562H79.9V73H47.4938L64.2438 52.7188C65.8896 50.6979 67.2646 48.9479 68.3688 47.4688C69.4938 45.9896 70.3479 44.75 70.9313 43.75C72.1188 41.7917 72.7125 40.0312 72.7125 38.4688C72.7125 36.2188 71.9208 34.3333 70.3375 32.8125C68.7542 31.2917 66.7958 30.5312 64.4625 30.5312C59.5875 30.5312 56.7958 33.4167 56.0875 39.1875H48.8375C50.0042 29.0208 55.1396 23.9375 64.2438 23.9375C68.6396 23.9375 72.3271 25.3333 75.3063 28.125C78.3063 30.9167 79.8063 34.375 79.8063 38.5C79.8063 41.125 79.1083 43.6979 77.7125 46.2188C77.0042 47.5312 75.9625 49.0938 74.5875 50.9062C73.2333 52.6979 71.5146 54.8229 69.4313 57.2812L61.9313 66.1562Z" fill="#282828"/>
<path d="M0.8 104.42V102.86H5.64V104.42H0.8ZM25.7853 94.72L21.9853 109H20.1653L17.3853 99.64C17.3053 99.36 17.2253 99.0733 17.1453 98.78C17.0653 98.4867 16.992 98.2067 16.9253 97.94C16.8586 97.6733 16.7986 97.4467 16.7453 97.26C16.7053 97.06 16.6786 96.9133 16.6653 96.82C16.652 96.9133 16.6253 97.06 16.5853 97.26C16.5586 97.4467 16.512 97.6733 16.4453 97.94C16.3786 98.2067 16.3053 98.4933 16.2253 98.8C16.1586 99.0933 16.0786 99.3933 15.9853 99.7L13.2853 109H11.4653L7.68531 94.72H9.56531L11.7853 103.44C11.8653 103.747 11.9386 104.053 12.0053 104.36C12.072 104.653 12.132 104.947 12.1853 105.24C12.252 105.52 12.3053 105.793 12.3453 106.06C12.3853 106.327 12.4253 106.587 12.4653 106.84C12.5053 106.573 12.5453 106.3 12.5853 106.02C12.6386 105.74 12.6986 105.453 12.7653 105.16C12.832 104.853 12.9053 104.547 12.9853 104.24C13.0653 103.933 13.1453 103.633 13.2253 103.34L15.7453 94.72H17.6053L20.2253 103.4C20.3186 103.707 20.4053 104.02 20.4853 104.34C20.5653 104.647 20.6386 104.947 20.7053 105.24C20.772 105.533 20.8253 105.82 20.8653 106.1C20.9186 106.367 20.9653 106.613 21.0053 106.84C21.0453 106.507 21.0986 106.16 21.1653 105.8C21.232 105.427 21.312 105.04 21.4053 104.64C21.4986 104.24 21.5986 103.833 21.7053 103.42L23.9053 94.72H25.7853ZM36.9591 109H28.9791V94.72H36.9591V96.3H30.7791V100.76H36.5991V102.32H30.7791V107.42H36.9591V109ZM50.0523 109L48.3323 104.58H42.6723L40.9723 109H39.1523L44.7323 94.66H46.3523L51.9123 109H50.0523ZM46.1923 98.66C46.1523 98.5533 46.0857 98.36 45.9923 98.08C45.899 97.8 45.8057 97.5133 45.7123 97.22C45.6323 96.9133 45.5657 96.68 45.5123 96.52C45.4457 96.7867 45.3723 97.06 45.2923 97.34C45.2257 97.6067 45.1523 97.8533 45.0723 98.08C45.0057 98.3067 44.9457 98.5 44.8923 98.66L43.2723 102.98H47.7923L46.1923 98.66ZM57.9795 109H56.1795V96.3H51.7195V94.72H62.4195V96.3H57.9795V109ZM76.4928 109H74.6928V102.34H67.3728V109H65.5728V94.72H67.3728V100.76H74.6928V94.72H76.4928V109ZM89.377 109H81.397V94.72H89.377V96.3H83.197V100.76H89.017V102.32H83.197V107.42H89.377V109ZM97.4503 94.72C98.637 94.72 99.6103 94.8733 100.37 95.18C101.144 95.4733 101.717 95.92 102.09 96.52C102.464 97.12 102.65 97.8733 102.65 98.78C102.65 99.54 102.51 100.173 102.23 100.68C101.95 101.187 101.59 101.593 101.15 101.9C100.724 102.193 100.27 102.427 99.7903 102.6L103.71 109H101.61L98.1503 103.1H95.3103V109H93.5103V94.72H97.4503ZM97.3503 96.28H95.3103V101.58H97.4503C98.2236 101.58 98.857 101.48 99.3503 101.28C99.8436 101.067 100.204 100.76 100.43 100.36C100.67 99.96 100.79 99.46 100.79 98.86C100.79 98.2333 100.664 97.7333 100.41 97.36C100.17 96.9867 99.797 96.7133 99.2903 96.54C98.7836 96.3667 98.137 96.28 97.3503 96.28Z" fill="black"/>
</svg>
