<svg width="150" height="271" viewBox="0 0 150 271" fill="none" xmlns="http://www.w3.org/2000/svg">
<path d="M31.272 29.368H17.32V31.352H30.312C30.12 33.304 29.8 36.888 29.32 38.584C28.648 41.048 27.24 41.144 26.088 41.208C25.256 41.24 24.168 41.272 23.336 41.24L22.344 38.744C23.304 38.84 24.264 38.936 25.352 38.936C26.728 38.936 27.016 38.584 27.4 37.112C27.624 36.28 27.784 35.032 27.976 33.336H15.176V15.16H18.664C19.368 14.168 19.848 13.336 20.488 11.992L22.568 12.664C22.824 12.76 23.112 12.824 23.112 13.08C23.112 13.368 22.76 13.432 22.216 13.56C21.896 14.232 21.64 14.648 21.256 15.16H29.096V25.432H17.32V27.448H31.272V29.368ZM26.92 19.384V17.08H17.32V19.384H26.92ZM26.92 23.512V21.208H17.32V23.512H26.92ZM12.136 32.888H5.896V36.408H3.656V15.352H12.136V32.888ZM9.992 30.808V17.432H5.896V30.808H9.992ZM26.184 37.272L24.264 38.04C23.784 36.696 23.368 35.864 22.408 34.488L24.072 33.72C24.712 34.488 25.48 35.48 26.184 37.272ZM22.216 38.904L20.328 39.576C19.848 38.008 19.336 36.728 18.472 34.968L20.232 34.328C21.416 36.184 21.896 37.688 22.216 38.904ZM18.184 39.928L16.04 40.504C15.688 38.424 15.272 36.824 14.6 35.512L16.616 35.096C17.448 37.016 17.768 38.136 18.184 39.928ZM13.8 35.864C13.032 37.944 12.264 39.352 11.016 40.984L8.936 39.64C9.96 38.616 11.048 37.304 11.88 34.776L13.8 35.864ZM52.2 23.96C53.736 23.96 55.08 25.208 55.08 26.84C55.08 28.44 53.768 29.72 52.2 29.72C50.6 29.72 49.352 28.408 49.352 26.84C49.352 25.24 50.632 23.96 52.2 23.96ZM96.808 39H94.088V18.424L86.632 39H84.04L76.584 18.424V39H73.864V15.64H78.12L85.32 35.512L92.52 15.64H96.808V39ZM123.244 39H104.94V15.64H122.86V18.04H107.852V25.848H121.676V28.184H107.852V36.6H123.244V39ZM133.182 39H130.206V15.64H133.182V39Z" fill="white"/>
<path d="M8.528 164.688C7.312 164.688 6.08 164.656 5.136 164.576C3.712 164.448 3.344 163.616 3.36 162.752L3.408 158.192C3.408 157.68 3.408 156.944 3.36 156.256C2.912 156.688 2.432 157.088 1.952 157.424C1.888 157.472 1.808 157.52 1.744 157.456C1.52 157.216 1.168 157.088 0.976 157.008C0.864 156.96 0.832 156.928 0.944 156.864C3.376 155.36 5.52 152.72 6.16 151.168C6.192 151.088 6.208 151.056 6.304 151.072C6.56 151.152 6.928 151.312 7.28 151.536C7.36 151.584 7.408 151.648 7.408 151.696C7.408 151.776 7.296 151.856 7.152 151.92C6.976 151.984 6.912 152.032 6.688 152.352L6.256 152.96C7.344 152.96 8.816 152.944 9.184 152.928C9.312 152.928 9.408 152.736 9.52 152.768C9.696 152.832 10.144 153.152 10.224 153.232C10.272 153.28 10.304 153.328 10.304 153.376C10.304 153.424 10.256 153.488 10.128 153.552C10 153.616 9.888 153.744 9.792 153.872C9.552 154.176 8.896 155.056 8.4 155.648C9.664 155.648 11.312 155.632 12.448 155.568C12.608 155.568 12.64 155.616 12.624 155.744C12.544 156.64 12.56 157.2 12.56 157.664C12.56 158.256 12.576 159.552 12.64 160.56V160.64C12.64 160.72 12.608 160.752 12.464 160.768C12.272 160.8 11.968 160.8 11.744 160.784C11.648 160.784 11.552 160.768 11.552 160.64C11.568 160.464 11.568 160.288 11.568 160.096C10.912 160.096 8.704 160.064 7.904 160.064C7.088 160.064 5.024 160.096 4.368 160.096V162.64C4.368 163.2 4.608 163.536 5.312 163.6C6.112 163.664 7.312 163.712 8.544 163.712C9.904 163.712 11.296 163.664 12.32 163.536C13.2 163.424 13.52 162.592 13.536 161.344C13.536 161.248 13.6 161.232 13.68 161.328C13.968 161.664 14.176 161.904 14.56 162.096C14.656 162.128 14.704 162.192 14.672 162.32C14.464 163.68 13.92 164.368 12.512 164.528C11.536 164.64 10.032 164.688 8.528 164.688ZM4.032 155.6C5.024 155.648 6.16 155.648 7.312 155.648C7.776 155.104 8.48 154.16 8.704 153.76C8.208 153.76 6.384 153.776 5.616 153.792C5.168 154.352 4.624 154.992 4.032 155.6ZM4.368 159.248C4.928 159.248 6.48 159.28 7.424 159.28C7.44 158.816 7.44 158.208 7.44 157.696C7.44 156.96 7.424 156.688 7.408 156.432C6.272 156.432 4.992 156.448 4.384 156.448C4.384 156.448 4.384 157.808 4.368 159.248ZM8.368 157.696C8.368 158.208 8.368 158.816 8.384 159.28C9.376 159.28 11.056 159.248 11.584 159.248C11.6 158.64 11.6 158.08 11.6 157.776C11.6 157.344 11.584 156.624 11.584 156.448C11.584 156.448 9.872 156.432 8.656 156.432V156.448C8.656 156.496 8.608 156.56 8.496 156.608C8.416 156.656 8.384 156.704 8.384 156.848C8.384 157.296 8.368 157.216 8.368 157.696ZM20.88 164.88C20.736 164.88 20.608 164.88 20.528 164.864C20.448 164.864 20.416 164.832 20.416 164.752C20.496 163.312 20.528 161.328 20.56 160.048C19.808 161.264 18.8 162.384 17.632 163.28C17.568 163.328 17.52 163.376 17.408 163.296C17.216 163.12 16.736 162.944 16.528 162.88C16.448 162.848 16.4 162.816 16.512 162.752C18.448 161.728 19.888 159.76 20.496 158.752C19.712 158.768 18.768 158.8 17.536 158.864C17.488 158.864 17.424 158.864 17.424 158.784C17.408 158.64 17.408 158.128 17.424 157.984C17.424 157.888 17.472 157.888 17.536 157.888C18.832 157.968 19.776 157.984 20.56 157.984C20.528 157.456 20.496 156.944 20.432 156.448C20.416 156.384 20.432 156.352 20.496 156.352C20.64 156.352 21.296 156.432 21.584 156.56C21.664 156.592 21.696 156.624 21.696 156.656C21.696 156.752 21.568 156.88 21.504 157.088C21.456 157.28 21.424 157.52 21.392 157.984C22.112 157.984 22.992 157.968 24.256 157.888C24.32 157.888 24.368 157.92 24.368 157.984C24.368 158.128 24.384 158.624 24.368 158.784C24.368 158.848 24.304 158.864 24.24 158.864C22.992 158.784 22.128 158.752 21.376 158.752V158.848C21.632 159.248 23.024 160.72 24.624 161.568C24.768 161.648 24.784 161.712 24.672 161.76C24.464 161.872 24.112 162.032 23.92 162.208C23.84 162.288 23.808 162.352 23.696 162.256C22.768 161.552 21.872 160.56 21.376 159.888C21.392 161.296 21.456 163.648 21.504 164.768C21.504 164.832 21.472 164.864 21.392 164.864C21.28 164.88 21.072 164.88 20.88 164.88ZM17.056 152.56C16.96 152.448 17.008 152.448 17.088 152.448C19.744 152.4 22.64 151.68 23.264 151.312C23.36 151.264 23.376 151.232 23.472 151.312C23.6 151.44 23.952 151.76 24.096 151.968C24.144 152.032 24.176 152.096 24.176 152.144C24.176 152.256 24 152.304 23.728 152.288C23.648 152.272 23.424 152.272 23.152 152.368C22.24 152.688 19.68 153.216 17.712 153.376C17.632 153.376 17.552 153.376 17.52 153.28C17.44 153.024 17.216 152.752 17.056 152.56ZM17.488 154.416C17.44 154.352 17.424 154.32 17.504 154.272C17.648 154.192 17.936 154.032 18.08 153.984C18.144 153.968 18.16 153.968 18.224 154.016C18.448 154.256 19.28 155.344 19.536 155.904C19.568 155.968 19.584 156 19.504 156.08C19.392 156.176 19.056 156.384 18.864 156.48C18.816 156.512 18.752 156.496 18.736 156.432C18.48 155.776 17.712 154.672 17.488 154.416ZM19.888 153.872C19.84 153.808 19.824 153.776 19.92 153.728C20.08 153.664 20.384 153.568 20.512 153.536C20.576 153.52 20.592 153.536 20.656 153.6C20.848 153.856 21.456 154.912 21.648 155.488C21.664 155.568 21.68 155.6 21.6 155.664C21.472 155.76 21.104 155.904 20.912 155.968C20.864 155.984 20.8 155.968 20.784 155.904C20.624 155.216 20.064 154.16 19.888 153.872ZM21.952 156.272C22.624 155.312 23.296 153.952 23.52 153.248C23.536 153.168 23.552 153.12 23.584 153.12C23.648 153.12 24.24 153.376 24.56 153.6C24.624 153.648 24.656 153.696 24.656 153.728C24.656 153.792 24.576 153.856 24.464 153.92C24.304 154.016 24.24 154.096 24.16 154.24C23.872 154.72 23.2 155.888 22.8 156.464C22.752 156.528 22.672 156.576 22.576 156.528C22.432 156.448 22.208 156.432 22 156.384C21.936 156.368 21.904 156.336 21.952 156.272ZM23.296 164.128C23.248 164.096 23.184 164.016 23.312 164C27.008 163.424 29.2 161.136 29.92 159.968C29.952 159.888 29.984 159.856 30.032 159.856C30.064 159.856 30.096 159.872 30.16 159.904C30.368 160.032 30.768 160.272 30.992 160.464C31.072 160.528 31.088 160.576 31.088 160.624C31.088 160.704 30.976 160.768 30.816 160.816C30.608 160.88 30.496 161.024 30.336 161.184C29.264 162.368 27.36 164.112 24.528 164.832C24.464 164.848 24.4 164.88 24.352 164.88C24.304 164.88 24.256 164.864 24.224 164.816C24.112 164.624 23.536 164.272 23.296 164.128ZM24.256 155.504C26.4 154.544 28.288 152.608 28.864 151.44C28.928 151.296 28.928 151.28 29.088 151.344C29.328 151.44 29.728 151.632 30 151.84C30.064 151.904 30.096 151.952 30.096 151.984C30.096 152.064 29.984 152.128 29.824 152.192C29.648 152.272 29.6 152.336 29.44 152.512C28.672 153.424 27.312 154.96 25.488 156.032C25.392 156.096 25.296 156.144 25.216 156.064C25.056 155.904 24.528 155.728 24.272 155.648C24.192 155.632 24.128 155.568 24.256 155.504ZM24.416 159.296C26.8 158.576 28.64 156.608 29.184 155.552C29.232 155.456 29.248 155.408 29.296 155.408C29.328 155.408 29.36 155.424 29.424 155.456C29.664 155.584 30.048 155.808 30.304 156C30.368 156.048 30.4 156.096 30.4 156.128C30.4 156.208 30.288 156.256 30.144 156.32C29.936 156.416 29.92 156.432 29.728 156.64C28.96 157.552 27.424 159.12 25.6 159.984C25.552 160 25.488 160.016 25.424 160.016C25.376 160.016 25.328 160 25.296 159.952C25.152 159.776 24.688 159.552 24.432 159.44C24.368 159.408 24.288 159.344 24.416 159.296ZM40.704 164.48C40.352 164.48 40.016 164.448 39.728 164.4C38.128 164.096 37.088 163.136 37.088 161.984C37.088 160.864 38.064 159.536 40.448 158.448C40.448 158.352 40.432 158.256 40.432 158.176C40.352 157.296 39.872 156.928 39.264 156.928C38.528 156.928 37.584 157.472 36.928 158.272C36.464 158.832 36.048 159.504 35.712 160.032C35.664 160.112 35.6 160.144 35.504 160.144C35.312 160.144 34.816 159.984 34.608 159.92C34.496 159.888 34.464 159.792 34.528 159.712C35.744 158.256 37.04 156.688 38.08 154.784C37.616 154.816 37.168 154.832 36.752 154.832C36.288 154.832 35.872 154.816 35.504 154.768C35.44 154.752 35.392 154.688 35.36 154.624C35.328 154.496 35.296 153.936 35.312 153.776C35.312 153.696 35.328 153.68 35.44 153.712C35.872 153.824 36.464 153.888 37.152 153.888C37.568 153.888 38 153.872 38.464 153.824C38.704 153.264 38.896 152.752 39.04 152.16C39.072 152.064 39.072 152.032 39.136 152.032C39.296 152.032 39.952 152.08 40.224 152.176C40.336 152.208 40.384 152.256 40.384 152.304C40.384 152.448 40.08 152.608 39.968 152.832C39.824 153.152 39.696 153.424 39.552 153.712C40.432 153.584 41.312 153.408 42.048 153.2C42.08 153.184 42.096 153.184 42.128 153.184C42.176 153.184 42.208 153.216 42.224 153.28C42.24 153.376 42.272 153.856 42.304 154.064C42.304 154.112 42.304 154.208 42.192 154.224C41.248 154.416 40.176 154.576 39.152 154.688C38.656 155.568 38.352 156.016 37.936 156.576C37.84 156.704 37.888 156.672 38 156.624C38.592 156.336 39.136 156.192 39.616 156.192C40.56 156.192 41.232 156.784 41.376 158.032V158.064C42.512 157.616 44.512 156.88 45.024 156.56C45.072 156.528 45.152 156.528 45.2 156.576C45.328 156.752 45.696 157.248 45.744 157.456C45.808 157.712 45.504 157.632 45.168 157.728C44.144 158.048 42.464 158.656 41.424 159.056H41.408C41.392 159.84 41.328 160.816 41.232 161.552C41.216 161.712 41.184 161.744 41.024 161.76C40.768 161.792 40.608 161.792 40.336 161.792H40.288C40.176 161.792 40.16 161.728 40.176 161.648C40.304 160.976 40.384 160.192 40.432 159.504C38.768 160.336 38.096 161.2 38.096 161.92C38.096 162.688 38.848 163.264 39.952 163.424C40.144 163.456 40.368 163.472 40.592 163.472C41.552 163.472 42.736 163.216 43.44 162.864C43.472 162.848 43.504 162.848 43.52 162.848C43.552 162.848 43.584 162.864 43.584 162.944C43.584 163.12 43.52 163.632 43.536 163.824V163.856C43.536 163.952 43.488 164 43.376 164.048C42.8 164.288 41.696 164.48 40.704 164.48ZM53.712 157.088C53.504 156.896 53.168 156.784 52.928 156.72C52.848 156.704 52.8 156.672 52.8 156.64C52.8 156.608 52.848 156.576 52.912 156.544C54.928 155.424 56.512 153.056 57.152 151.792C57.296 151.52 57.44 151.216 57.488 150.944C57.504 150.896 57.52 150.832 57.584 150.832C57.68 150.832 58.272 151.088 58.56 151.264C58.64 151.312 58.672 151.376 58.672 151.424C58.672 151.52 58.56 151.616 58.416 151.664C58.384 151.68 58.352 151.696 58.32 151.728C59.408 153.392 61.792 155.296 63.584 155.984C63.632 156 63.648 156.016 63.648 156.032C63.648 156.08 63.6 156.128 63.552 156.16C63.264 156.304 62.864 156.48 62.688 156.72C62.64 156.8 62.544 156.8 62.48 156.768C60.608 155.712 58.72 153.776 57.84 152.432C57.232 153.44 55.856 155.552 53.92 157.056C53.856 157.104 53.776 157.152 53.712 157.088ZM48.832 159.056C48.832 158.992 48.896 158.992 48.96 158.976C49.504 158.88 50.352 158.592 51.296 158.208V155.392C50.656 155.408 49.92 155.424 49.344 155.456C49.28 155.456 49.216 155.44 49.2 155.36C49.184 155.184 49.184 154.704 49.2 154.56C49.216 154.464 49.264 154.416 49.344 154.432C49.92 154.464 50.64 154.512 51.28 154.528C51.28 153.2 51.232 151.824 51.152 151.184V151.152C51.152 151.104 51.184 151.072 51.232 151.072C51.472 151.072 52 151.136 52.4 151.264C52.48 151.28 52.512 151.328 52.512 151.392C52.512 151.488 52.416 151.664 52.352 151.904C52.256 152.144 52.24 153.28 52.224 154.528C52.672 154.512 53.072 154.48 53.632 154.432H53.664C53.728 154.432 53.776 154.464 53.776 154.544C53.792 154.64 53.792 154.832 53.792 155.008C53.792 155.152 53.792 155.28 53.776 155.36C53.776 155.44 53.696 155.456 53.632 155.456C53.072 155.44 52.672 155.408 52.224 155.392V157.888C52.912 157.584 53.408 157.36 53.712 157.2C53.808 157.168 53.808 157.168 53.808 157.28V157.552C53.808 157.696 53.808 157.856 53.84 157.968V158C53.84 158.064 53.808 158.112 53.712 158.16C53.296 158.384 52.816 158.592 52.224 158.864C52.224 160.144 52.256 161.792 52.256 163.056C52.256 163.872 51.968 164.624 50.256 164.672H50.224C50.144 164.672 50.064 164.624 50.048 164.576C49.968 164.256 49.76 163.92 49.568 163.664C49.504 163.584 49.52 163.536 49.616 163.536C49.92 163.584 50.176 163.6 50.384 163.6C51.072 163.6 51.248 163.36 51.264 162.784C51.28 161.808 51.296 160.416 51.296 159.232C50.736 159.472 50.288 159.664 49.888 159.824C49.744 159.888 49.632 160.064 49.52 160.064C49.472 160.064 49.424 160.032 49.376 159.968C49.216 159.776 48.944 159.296 48.848 159.12C48.832 159.088 48.832 159.072 48.832 159.056ZM53.712 159.136C53.696 158.976 53.696 158.608 53.712 158.416C53.728 158.288 53.76 158.272 53.856 158.272C55.44 158.384 56.48 158.4 57.456 158.4V156.912C56.88 156.912 56.208 156.928 55.264 157.008C55.2 157.008 55.136 156.992 55.12 156.896C55.104 156.704 55.104 156.384 55.12 156.224C55.136 156.096 55.184 156.08 55.264 156.08C56.224 156.16 56.88 156.192 57.456 156.192C57.44 155.392 57.424 155.04 57.344 154.4C57.328 154.304 57.328 154.256 57.408 154.256C57.616 154.256 58.208 154.368 58.592 154.496C58.672 154.528 58.704 154.56 58.704 154.608C58.704 154.704 58.624 154.8 58.544 154.944C58.432 155.152 58.384 155.296 58.368 156.192C59.008 156.192 59.744 156.176 60.752 156.08C60.8 156.08 60.864 156.128 60.864 156.192C60.864 156.368 60.88 156.704 60.864 156.896C60.848 156.976 60.832 157.008 60.752 157.008C59.76 156.928 59.024 156.912 58.368 156.912V158.4C59.44 158.4 60.64 158.368 62.256 158.272C62.336 158.272 62.384 158.32 62.384 158.4C62.4 158.56 62.4 158.96 62.384 159.136C62.384 159.216 62.32 159.248 62.256 159.232C60.448 159.136 59.104 159.136 57.968 159.136C56.864 159.136 55.68 159.136 53.856 159.232H53.824C53.76 159.232 53.712 159.2 53.712 159.136ZM54.928 164.736C55.008 163.872 55.024 162.784 55.024 162.464C55.024 162 55.008 161.12 54.96 160.544V160.496C54.96 160.4 54.976 160.384 55.12 160.4C55.808 160.448 57.296 160.464 57.952 160.464C58.592 160.464 59.872 160.448 60.8 160.4C60.928 160.4 60.96 160.432 60.96 160.544C60.88 161.472 60.896 162.048 60.896 162.4C60.896 162.704 60.912 163.568 60.976 164.608V164.656C60.976 164.768 60.96 164.784 60.8 164.8C60.64 164.832 60.288 164.832 60.112 164.816C60.016 164.8 59.936 164.816 59.936 164.688C59.936 164.464 59.952 164.256 59.952 164.032L57.936 164.016L55.952 164.032C55.952 164.256 55.968 164.512 55.968 164.752C55.968 164.896 55.952 164.912 55.792 164.928C55.584 164.944 55.296 164.944 55.12 164.928C54.96 164.912 54.912 164.896 54.928 164.736ZM55.952 163.184C56.432 163.2 57.632 163.216 57.936 163.216C58.224 163.216 59.456 163.2 59.968 163.184V162.304L59.952 161.248L57.936 161.232L55.968 161.248C55.968 161.328 55.952 162.08 55.952 162.448V163.184ZM75.536 163.84C72.24 163.296 70.272 161.008 70.272 158.544C70.272 157.248 70.8 155.92 71.952 154.752C72 154.704 72.016 154.672 72.016 154.656C72.016 154.64 71.984 154.64 71.888 154.656C69.84 154.976 68.272 155.232 66.592 155.44H66.544C66.48 155.44 66.416 155.424 66.384 155.36C66.32 155.216 66.16 154.576 66.144 154.464V154.432C66.144 154.336 66.208 154.304 66.288 154.304C66.688 154.304 67.376 154.272 68.016 154.192C70.32 153.904 75.36 153.184 77.184 153.072C77.264 153.072 77.264 153.104 77.28 153.168C77.312 153.344 77.328 153.936 77.328 154.08C77.328 154.144 77.296 154.176 77.232 154.176C76.016 154.16 73.84 154.24 72.976 155.04C71.84 156.08 71.296 157.28 71.296 158.448C71.296 160.544 73.104 162.464 76.336 162.768C76.48 162.768 76.464 162.832 76.384 162.928C76.224 163.152 75.888 163.488 75.76 163.744C75.712 163.824 75.648 163.856 75.536 163.84Z" fill="white"/>
<path d="M1.504 186.68C1.408 186.68 1.36 186.664 1.36 186.568C1.344 186.392 1.344 185.96 1.36 185.784C1.376 185.672 1.376 185.656 1.504 185.672C3.552 185.768 5.008 185.784 6.24 185.784C5.808 184.856 5.136 183.976 4.784 183.592C4.72 183.528 4.688 183.496 4.784 183.432C4.928 183.336 5.28 183.144 5.456 183.096C5.472 183.096 5.488 183.08 5.504 183.08C5.536 183.08 5.568 183.096 5.632 183.16C6.016 183.544 6.736 184.44 7.184 185.304C7.2 185.352 7.216 185.368 7.216 185.4C7.216 185.432 7.184 185.464 7.12 185.512C7.024 185.592 6.88 185.688 6.72 185.784H8.544C9.28 184.696 9.76 183.448 9.856 183.08C9.888 183 9.904 182.984 10.048 183.016C10.176 183.048 10.736 183.208 10.976 183.368C11.088 183.432 11.136 183.496 11.136 183.544C11.136 183.656 10.88 183.736 10.752 183.896C10.496 184.264 10.064 185.064 9.584 185.784C10.96 185.784 12.512 185.752 14.528 185.672H14.56C14.624 185.672 14.64 185.72 14.64 185.784C14.656 185.992 14.656 186.392 14.64 186.584C14.64 186.648 14.608 186.68 14.512 186.68C11.664 186.568 9.584 186.568 7.824 186.568H6.72C5.264 186.568 3.792 186.584 1.504 186.68ZM2.48 182.664C2.464 182.504 2.464 182.072 2.48 181.88C2.48 181.768 2.528 181.736 2.608 181.736C4.96 181.864 6.448 181.864 7.488 181.864C7.488 180.984 7.472 180.488 7.376 179.928V179.88C7.376 179.832 7.392 179.816 7.44 179.816C7.584 179.816 8.384 179.864 8.752 179.976C8.848 180.008 8.88 180.056 8.88 180.104C8.88 180.2 8.784 180.328 8.688 180.472C8.56 180.68 8.544 180.92 8.512 181.864C9.6 181.864 11.024 181.848 13.344 181.736C13.408 181.736 13.456 181.784 13.456 181.864C13.472 181.96 13.472 182.152 13.472 182.344C13.472 182.472 13.472 182.6 13.456 182.68C13.456 182.744 13.408 182.776 13.344 182.776C10.72 182.68 9.088 182.68 7.984 182.664C6.928 182.664 5.28 182.68 2.608 182.776C2.544 182.776 2.48 182.76 2.48 182.664ZM4.24 193.752C4.336 192.632 4.336 190.648 4.336 190.136C4.336 189.528 4.336 188.872 4.256 187.944V187.88C4.256 187.784 4.304 187.768 4.48 187.784C5.376 187.832 7.12 187.832 7.904 187.832C8.704 187.832 10.432 187.832 11.536 187.784H11.584C11.696 187.784 11.712 187.832 11.712 187.96C11.632 189.08 11.648 189.688 11.648 190.184C11.648 190.648 11.664 192.504 11.728 193.656V193.736C11.728 193.832 11.696 193.864 11.552 193.88C11.36 193.912 11.008 193.912 10.848 193.896C10.736 193.88 10.656 193.896 10.656 193.736C10.672 193.576 10.672 193.4 10.672 193.224C10.08 193.208 8.4 193.192 7.872 193.192C7.36 193.192 5.904 193.208 5.312 193.224V193.816C5.312 193.896 5.28 193.912 5.136 193.928C4.928 193.944 4.608 193.944 4.432 193.928C4.272 193.912 4.224 193.912 4.24 193.752ZM5.296 192.424L7.872 192.44C8.368 192.44 10.096 192.424 10.688 192.408C10.704 191.848 10.704 191.272 10.704 190.856C10.128 190.84 8.4 190.84 7.872 190.84C7.344 190.84 5.872 190.84 5.296 190.856V192.424ZM5.296 190.072L7.872 190.088L10.704 190.072C10.704 189.528 10.688 188.648 10.688 188.648C10.688 188.648 8.512 188.616 7.888 188.616C7.264 188.616 5.312 188.648 5.312 188.648C5.312 188.648 5.296 189.48 5.296 190.072ZM24.384 193.912C24.272 193.912 24.192 193.864 24.16 193.72C24.112 193.48 23.92 193.208 23.792 193.032C23.728 192.904 23.744 192.904 23.872 192.936C24.16 193 24.416 193.032 24.624 193.032C25.36 193.032 25.76 192.696 25.968 192.072C26.112 191.64 26.176 191.208 26.176 190.76C26.176 190.504 26.16 190.248 26.112 189.992C25.104 191.288 23.52 192.648 21.264 193.368C21.184 193.4 21.12 193.4 21.088 193.32C20.976 193.144 20.672 192.872 20.48 192.744C20.368 192.68 20.368 192.632 20.496 192.6C22.784 192.136 24.72 190.632 25.872 189.048C25.776 188.808 25.664 188.552 25.552 188.328C24.4 189.544 22.832 190.68 21.168 191.24C21.152 191.256 21.12 191.256 21.104 191.256C21.056 191.256 21.024 191.24 20.992 191.192C20.896 191.016 20.56 190.76 20.4 190.664C20.32 190.616 20.304 190.552 20.416 190.52C22.288 190.088 24.096 188.888 25.168 187.688C25.024 187.496 24.864 187.304 24.704 187.128C23.808 187.864 22.592 188.648 21.264 189.096H21.216C21.168 189.096 21.12 189.08 21.088 189.032C20.976 188.824 20.672 188.68 20.512 188.568C20.416 188.488 20.4 188.456 20.512 188.424C22.4 187.912 24.176 186.792 24.8 185.96C24.144 185.976 23.472 185.992 23.056 185.992C23.072 186.12 23.072 186.248 23.072 186.36V186.408C23.072 186.456 23.04 186.472 22.96 186.472C22.784 186.488 22.384 186.488 22.24 186.472C22.144 186.472 22.096 186.424 22.112 186.36C22.176 185.72 22.192 185 22.208 184.488V184.168C21.904 184.472 21.6 184.76 21.248 185.032C21.184 185.08 21.136 185.096 21.072 185.064C20.816 184.872 20.496 184.824 20.304 184.776C20.192 184.744 20.176 184.712 20.272 184.648C22.208 183.288 23.504 181.288 23.952 179.992C23.968 179.928 23.984 179.896 24.064 179.928C24.288 179.992 24.656 180.12 24.944 180.328C25.024 180.376 25.056 180.424 25.056 180.472C25.056 180.552 24.976 180.616 24.848 180.664C24.704 180.712 24.624 180.776 24.464 181.032L24.384 181.16C25.232 181.16 26.224 181.144 26.528 181.144C26.608 181.144 26.736 181.016 26.816 181.016C26.928 181.016 27.408 181.336 27.488 181.4C27.552 181.464 27.584 181.512 27.584 181.544C27.584 181.608 27.52 181.672 27.408 181.736C27.296 181.784 27.216 181.88 27.12 181.992C26.928 182.28 26.656 182.712 26.368 183.112C27.456 183.096 28.736 183.064 29.584 183.016C29.68 183.016 29.712 183.064 29.696 183.128C29.664 183.48 29.648 184.12 29.648 184.504C29.648 184.984 29.68 185.608 29.728 186.184V186.216C29.728 186.28 29.68 186.328 29.616 186.328C29.424 186.344 29.04 186.344 28.88 186.328C28.8 186.328 28.752 186.296 28.752 186.216V185.992C28.464 185.992 27.968 185.976 27.44 185.976C27.552 186.728 27.744 187.528 28.032 188.296C28.88 187.768 29.68 187.064 29.92 186.808C29.968 186.76 30 186.76 30.064 186.808C30.128 186.856 30.464 187.176 30.64 187.464C30.656 187.512 30.672 187.544 30.672 187.576C30.672 187.688 30.528 187.72 30.352 187.736C30.224 187.752 30.144 187.816 30.032 187.896C29.648 188.168 28.96 188.584 28.32 188.952C28.96 190.312 29.92 191.544 31.248 192.344C31.328 192.392 31.36 192.424 31.36 192.456C31.36 192.488 31.296 192.536 31.2 192.568C30.976 192.664 30.544 192.808 30.352 192.984C30.288 193.048 30.208 193.048 30.16 193C28.16 191.272 26.992 188.616 26.608 185.96H25.904C25.952 186.008 25.968 186.104 25.872 186.152C25.728 186.232 25.664 186.216 25.536 186.36L25.264 186.632C26.352 187.72 27.024 189.32 27.024 190.92C27.024 191.4 26.976 191.864 26.848 192.328C26.56 193.352 25.632 194.008 24.384 193.912ZM16.352 187.128C18.672 185.048 20.224 181.464 20.4 180.312C20.4 180.248 20.416 180.184 20.464 180.184C20.592 180.184 21.232 180.488 21.536 180.68C21.632 180.744 21.696 180.808 21.696 180.872C21.696 180.952 21.616 181.016 21.472 181.096C21.296 181.176 21.216 181.224 21.152 181.4C20.912 181.96 20.48 182.872 19.936 183.864L20.16 183.944C20.24 183.976 20.288 184.04 20.288 184.104C20.288 184.168 20.24 184.248 20.16 184.328C20.016 184.504 20.016 184.568 20.016 185C19.968 186.824 19.856 190.088 19.856 192.312C19.856 192.84 19.856 193.304 19.872 193.688C19.872 193.784 19.84 193.816 19.744 193.816C19.648 193.832 19.472 193.832 19.296 193.832C19.12 193.832 18.944 193.832 18.848 193.816C18.752 193.816 18.72 193.768 18.72 193.688C18.912 191.672 19.008 187.816 19.088 185.304C18.592 186.072 18.064 186.824 17.504 187.416C17.44 187.48 17.36 187.512 17.28 187.464C17.072 187.352 16.672 187.288 16.416 187.256C16.304 187.24 16.256 187.224 16.352 187.128ZM23.04 184.488C23.04 184.696 23.04 184.968 23.056 185.272C23.568 185.272 24.528 185.288 25.328 185.288C25.344 184.808 25.36 184.248 25.344 183.8C24.368 183.8 23.296 183.816 23.04 183.816V184.488ZM23.12 183.08C23.888 183.096 24.736 183.112 25.456 183.112C25.728 182.712 26 182.248 26.192 181.88C25.792 181.896 24.624 181.912 23.936 181.912C23.696 182.28 23.424 182.664 23.12 183.08ZM26.192 185.288C27.072 185.288 28.256 185.272 28.784 185.272C28.8 185 28.8 184.744 28.8 184.536C28.8 184.232 28.784 183.864 28.784 183.816C28.544 183.8 27.328 183.8 26.352 183.8C26.352 183.848 26.304 183.88 26.256 183.928C26.208 183.976 26.192 184.04 26.192 184.12C26.176 184.44 26.192 184.92 26.192 185.288ZM35.536 192.84C35.312 192.84 34.688 192.712 34.528 192.632C34.448 192.6 34.368 192.552 34.432 192.456C35.312 190.952 36.368 187.96 37.024 185.192C36.592 185.256 36.176 185.288 35.776 185.288C35.328 185.288 34.912 185.24 34.528 185.128C34.464 185.112 34.416 185.064 34.384 185C34.352 184.872 34.32 184.296 34.336 184.12C34.336 184.024 34.368 183.976 34.48 184.024C34.896 184.216 35.44 184.28 36.032 184.28C36.416 184.28 36.832 184.264 37.264 184.2C37.456 183.224 37.616 182.296 37.68 181.512C37.696 181.4 37.696 181.368 37.76 181.368C37.92 181.368 38.56 181.48 38.848 181.592C39.024 181.672 39.104 181.736 39.104 181.8C39.104 181.96 38.768 182.104 38.72 182.312L38.304 184.024C38.816 183.912 39.328 183.784 39.84 183.624C39.856 183.624 39.872 183.608 39.888 183.608C39.952 183.608 39.984 183.656 39.984 183.72C40 183.88 40.016 184.232 40 184.424C39.984 184.504 39.952 184.6 39.84 184.632C39.2 184.776 38.608 184.92 38.048 185.032C37.312 187.832 36.464 190.808 35.712 192.744C35.664 192.824 35.616 192.856 35.536 192.84ZM38.336 190.952C38.352 190.808 38.48 190.328 38.544 190.152C38.576 190.056 38.64 190.056 38.704 190.12C39.6 191.048 41.584 191.496 43.52 191.496C44.112 191.496 44.704 191.448 45.264 191.368C45.296 191.368 45.312 191.352 45.328 191.352C45.392 191.352 45.392 191.4 45.408 191.48C45.408 191.608 45.344 192.264 45.312 192.472C45.296 192.536 45.264 192.568 45.184 192.584C44.752 192.632 44.304 192.648 43.856 192.648C41.776 192.648 39.504 192.184 38.384 191.128C38.336 191.08 38.336 191.016 38.336 190.952ZM40.752 185.432C40.752 185.272 40.8 184.824 40.848 184.664C40.864 184.584 40.88 184.552 40.928 184.536C42.64 184.504 44.432 184.744 45.2 184.952C45.296 184.968 45.296 185 45.296 185.112C45.28 185.24 45.184 185.816 45.136 185.944C45.104 186.024 45.072 186.056 44.992 186.04C44.352 185.816 42.88 185.528 41.44 185.528C41.248 185.528 41.056 185.528 40.864 185.544H40.832C40.784 185.544 40.752 185.496 40.752 185.432ZM43.344 182.184C43.392 182.104 43.6 181.848 43.664 181.784C43.728 181.736 43.76 181.704 43.84 181.736C44.352 181.976 45.392 182.568 45.872 183.032C45.936 183.08 45.936 183.128 45.888 183.24C45.84 183.368 45.648 183.608 45.568 183.688C45.488 183.752 45.44 183.752 45.36 183.704C44.848 183.224 43.84 182.584 43.376 182.344C43.296 182.312 43.312 182.232 43.344 182.184ZM44.576 181.064C44.624 180.984 44.832 180.728 44.896 180.664C44.96 180.6 44.992 180.584 45.072 180.616C45.584 180.84 46.624 181.432 47.12 181.88C47.184 181.944 47.184 181.992 47.136 182.104C47.088 182.216 46.896 182.472 46.816 182.552C46.736 182.616 46.688 182.616 46.624 182.552C46.096 182.088 45.072 181.448 44.608 181.224C44.528 181.192 44.544 181.112 44.576 181.064ZM55.0996 193.528C55.0516 193.528 55.0036 193.512 54.9396 193.448C54.7316 193.24 54.4756 193.128 54.2676 193.016C54.1556 192.968 54.1556 192.936 54.2676 192.872C57.3716 191.384 57.9796 189.24 57.9796 186.936C57.9796 186.744 57.9636 186.536 57.9636 186.344L57.9156 185.208C57.3236 185.288 56.7156 185.336 56.0916 185.336C55.5316 185.336 54.9716 185.304 54.4276 185.208C54.3476 185.192 54.3316 185.16 54.3156 185.08C54.2836 184.936 54.2676 184.44 54.2676 184.28C54.2676 184.152 54.2836 184.136 54.4116 184.168C55.0516 184.312 55.6916 184.376 56.3156 184.376C56.8436 184.376 57.3716 184.328 57.8836 184.248C57.8836 184.216 57.8676 184.184 57.8676 184.152C57.8196 183.048 57.8196 182.04 57.6916 181.416C57.6756 181.384 57.6756 181.352 57.6756 181.32C57.6756 181.288 57.6916 181.272 57.7556 181.272C57.9476 181.272 58.6516 181.32 58.9716 181.384C59.1156 181.416 59.1636 181.464 59.1636 181.544C59.1636 181.688 58.9236 181.88 58.9076 182.072C58.8756 182.456 58.8756 182.744 58.8756 183.016C58.8756 183.336 58.8756 183.64 58.8916 184.04C59.5796 183.864 60.1716 183.64 60.6516 183.416C60.7476 183.368 60.7796 183.4 60.7956 183.496C60.8116 183.672 60.8756 184.216 60.8756 184.392C60.8756 184.472 60.8756 184.504 60.7636 184.552C60.2516 184.712 59.6276 184.888 58.9236 185.032L58.9716 186.328C58.9716 186.584 58.9876 186.84 58.9876 187.08C58.9876 189.416 58.5236 191.72 55.2916 193.464C55.2116 193.512 55.1636 193.528 55.0996 193.528ZM50.5396 187.464C50.5396 185.8 50.8596 184.088 51.0836 182.712C51.1636 182.264 51.1796 181.96 51.1956 181.592V181.544C51.1956 181.432 51.2436 181.432 51.3716 181.464C51.5956 181.496 52.1236 181.64 52.3636 181.752C52.4916 181.816 52.5556 181.88 52.5556 181.944C52.5556 182.072 52.2836 182.232 52.2196 182.456C51.8036 184.04 51.4676 185.8 51.4676 187.32C51.4676 188.04 51.5476 188.696 51.7236 189.272C51.7556 189.4 51.7876 189.448 51.8196 189.448C51.8676 189.448 51.8996 189.384 51.9316 189.288C52.0756 188.808 52.5396 187.736 52.6356 187.512C52.6676 187.432 52.6996 187.432 52.7636 187.48C52.7636 187.512 52.8916 187.784 53.1316 187.96C53.1956 188.008 53.1796 188.056 53.1476 188.136C53.0036 188.488 52.6356 189.368 52.4596 190.152C52.4116 190.344 52.3956 190.536 52.3956 190.712C52.3956 190.968 52.4436 191.208 52.5396 191.496V191.528C52.5396 191.592 52.5076 191.624 52.4596 191.656C52.2836 191.72 52.1076 191.768 51.9156 191.832C51.8196 191.848 51.8036 191.848 51.7396 191.784C50.8276 190.616 50.5396 189.064 50.5396 187.464ZM72.2196 193.48C71.8676 193.48 71.5316 193.448 71.2436 193.4C69.6436 193.096 68.6036 192.136 68.6036 190.984C68.6036 189.864 69.5796 188.536 71.9636 187.448C71.9636 187.352 71.9476 187.256 71.9476 187.176C71.8676 186.296 71.3876 185.928 70.7796 185.928C70.0436 185.928 69.0996 186.472 68.4436 187.272C67.9796 187.832 67.5636 188.504 67.2276 189.032C67.1796 189.112 67.1156 189.144 67.0196 189.144C66.8276 189.144 66.3316 188.984 66.1236 188.92C66.0116 188.888 65.9796 188.792 66.0436 188.712C67.2596 187.256 68.5556 185.688 69.5956 183.784C69.1316 183.816 68.6836 183.832 68.2676 183.832C67.8036 183.832 67.3876 183.816 67.0196 183.768C66.9556 183.752 66.9076 183.688 66.8756 183.624C66.8436 183.496 66.8116 182.936 66.8276 182.776C66.8276 182.696 66.8436 182.68 66.9556 182.712C67.3876 182.824 67.9796 182.888 68.6676 182.888C69.0836 182.888 69.5156 182.872 69.9796 182.824C70.2196 182.264 70.4116 181.752 70.5556 181.16C70.5876 181.064 70.5876 181.032 70.6516 181.032C70.8116 181.032 71.4676 181.08 71.7396 181.176C71.8516 181.208 71.8996 181.256 71.8996 181.304C71.8996 181.448 71.5956 181.608 71.4836 181.832C71.3396 182.152 71.2116 182.424 71.0676 182.712C71.9476 182.584 72.8276 182.408 73.5636 182.2C73.5956 182.184 73.6116 182.184 73.6436 182.184C73.6916 182.184 73.7236 182.216 73.7396 182.28C73.7556 182.376 73.7876 182.856 73.8196 183.064C73.8196 183.112 73.8196 183.208 73.7076 183.224C72.7636 183.416 71.6916 183.576 70.6676 183.688C70.1716 184.568 69.8676 185.016 69.4516 185.576C69.3556 185.704 69.4036 185.672 69.5156 185.624C70.1076 185.336 70.6516 185.192 71.1316 185.192C72.0756 185.192 72.7476 185.784 72.8916 187.032V187.064C74.0276 186.616 76.0276 185.88 76.5396 185.56C76.5876 185.528 76.6676 185.528 76.7156 185.576C76.8436 185.752 77.2116 186.248 77.2596 186.456C77.3236 186.712 77.0196 186.632 76.6836 186.728C75.6596 187.048 73.9796 187.656 72.9396 188.056H72.9236C72.9076 188.84 72.8436 189.816 72.7476 190.552C72.7316 190.712 72.6996 190.744 72.5396 190.76C72.2836 190.792 72.1236 190.792 71.8516 190.792H71.8036C71.6916 190.792 71.6756 190.728 71.6916 190.648C71.8196 189.976 71.8996 189.192 71.9476 188.504C70.2836 189.336 69.6116 190.2 69.6116 190.92C69.6116 191.688 70.3636 192.264 71.4676 192.424C71.6596 192.456 71.8836 192.472 72.1076 192.472C73.0676 192.472 74.2516 192.216 74.9556 191.864C74.9876 191.848 75.0196 191.848 75.0356 191.848C75.0676 191.848 75.0996 191.864 75.0996 191.944C75.0996 192.12 75.0356 192.632 75.0516 192.824V192.856C75.0516 192.952 75.0036 193 74.8916 193.048C74.3156 193.288 73.2116 193.48 72.2196 193.48ZM83.1956 193.816C83.0036 193.816 82.8116 193.816 82.7156 193.8C82.6196 193.784 82.5876 193.768 82.6036 193.672C82.7316 191.4 82.7636 188.312 82.7636 186.392C82.3156 187.32 81.6756 188.392 80.8276 189.272C80.7636 189.336 80.6676 189.368 80.5876 189.304C80.3956 189.144 80.0276 189 79.8196 188.936C79.7236 188.904 79.6756 188.872 79.7716 188.808C81.2116 187.752 82.2356 186.04 82.7636 184.856C82.7636 184.744 82.7636 184.632 82.7796 184.504C82.2836 184.52 81.5636 184.536 80.7956 184.6C80.7476 184.6 80.6676 184.584 80.6676 184.504C80.6516 184.424 80.6516 184.296 80.6516 184.152C80.6516 183.976 80.6516 183.784 80.6676 183.688C80.6836 183.56 80.7316 183.576 80.7956 183.576C81.5636 183.64 82.2836 183.672 82.7796 183.688C82.7796 182.44 82.7476 181.08 82.6356 180.168C82.6196 180.072 82.6356 180.072 82.7316 180.072C82.9556 180.088 83.4996 180.152 83.8516 180.264C83.9316 180.296 83.9636 180.328 83.9636 180.392C83.9636 180.504 83.8836 180.664 83.8036 180.904C83.6756 181.272 83.6436 182.376 83.6436 183.672C84.0756 183.672 84.6516 183.64 85.3076 183.576C85.3556 183.576 85.4356 183.592 85.4356 183.672C85.4516 183.832 85.4516 184.312 85.4356 184.504C85.4356 184.568 85.3396 184.6 85.3076 184.6C84.6676 184.552 84.0756 184.52 83.6436 184.504V185.096C83.9316 185.48 84.7796 186.424 85.6916 186.92C85.8036 186.984 85.8196 187.032 85.7396 187.096C85.6436 187.176 85.3396 187.4 85.2116 187.56C85.1636 187.624 85.1156 187.672 85.0196 187.592C84.5236 187.16 84.0116 186.568 83.6436 186.072C83.6436 188.056 83.7076 191.88 83.8036 193.688C83.8036 193.768 83.7716 193.8 83.6916 193.8C83.5796 193.816 83.3876 193.816 83.1956 193.816ZM84.3796 193.016C84.3156 193 84.2996 192.936 84.3796 192.904C86.0116 192.232 87.0676 191.08 87.4196 190.392C87.4836 190.28 87.4356 190.28 87.5476 190.328C87.6916 190.376 88.1236 190.568 88.3316 190.728C88.3796 190.776 88.4116 190.808 88.4116 190.84C88.4116 190.904 88.2996 190.936 88.1876 190.984C88.0596 191.048 88.0276 191.08 87.9156 191.192C87.4996 191.752 86.6516 192.744 85.2916 193.48C85.2436 193.512 85.1476 193.544 85.0996 193.48C84.9236 193.24 84.5556 193.112 84.3796 193.016ZM85.3716 189.736C85.3556 189.576 85.3556 189.224 85.3716 189.064C85.3716 188.952 85.3716 188.936 85.4996 188.936C87.4356 189.048 88.2836 189.048 89.7556 189.048C91.1476 189.048 92.0916 189.048 94.0596 188.936C94.1716 188.936 94.1876 188.968 94.1876 189.048C94.2036 189.128 94.2196 189.272 94.2196 189.4C94.2196 189.528 94.2036 189.656 94.1876 189.736C94.1876 189.816 94.1556 189.848 94.0756 189.832C92.4276 189.768 91.4356 189.752 90.3956 189.752V189.784C90.3956 189.832 90.3316 189.896 90.2676 189.944C90.1876 190.008 90.2036 190.104 90.1876 190.328C90.1716 190.76 90.2036 192.008 90.2356 192.488C90.2676 193.24 89.8676 193.832 88.4116 193.832H88.3796C88.2836 193.832 88.2676 193.784 88.2356 193.704C88.1236 193.4 87.8356 193.112 87.6596 192.92C87.5796 192.824 87.6116 192.792 87.7076 192.808C88.0596 192.872 88.3316 192.904 88.5556 192.904C89.1316 192.904 89.3076 192.68 89.3236 192.248C89.3396 192.12 89.3396 191.688 89.3396 191.192C89.3396 190.68 89.3396 190.12 89.3236 189.752C88.1396 189.752 87.1956 189.768 85.4836 189.832C85.4036 189.848 85.3716 189.816 85.3716 189.736ZM85.3876 181.688C85.3716 181.528 85.3716 181.176 85.3876 180.984C85.4036 180.856 85.4356 180.856 85.5316 180.856C87.4196 180.968 88.6036 180.968 89.6116 180.968C90.6676 180.968 92.2036 180.968 94.1236 180.856C94.2036 180.856 94.2516 180.888 94.2676 180.984C94.2836 181.128 94.2836 181.528 94.2676 181.704C94.2516 181.784 94.1876 181.816 94.1236 181.816C93.0516 181.768 92.0756 181.736 91.2596 181.72V181.752C91.2596 181.784 91.2276 181.848 91.1476 181.912C91.0676 181.944 91.0676 182.024 91.0516 182.168V182.968C91.8196 182.968 92.6676 182.936 93.2436 182.904C93.3556 182.904 93.3876 182.952 93.3876 183.016C93.3396 183.528 93.3236 183.976 93.3236 184.296C93.3236 184.728 93.3396 185.624 93.4036 186.408V186.424C93.4036 186.504 93.3396 186.552 93.2596 186.552C93.0516 186.552 92.7636 186.568 92.6036 186.552C92.5236 186.536 92.4596 186.536 92.4596 186.456C92.4596 186.344 92.4756 186.248 92.4756 186.12L89.6116 186.104L86.9396 186.12C86.9396 186.248 86.9556 186.36 86.9556 186.456C86.9556 186.584 86.9076 186.584 86.8116 186.6C86.6356 186.616 86.2836 186.616 86.1396 186.6C86.0116 186.584 85.9956 186.536 85.9956 186.472C86.0756 185.816 86.0916 184.872 86.0916 184.376C86.0916 183.768 86.0756 183.512 86.0116 183.032C86.0116 182.952 86.0436 182.92 86.1396 182.92C86.6516 182.952 87.4676 182.968 88.2036 182.968C88.2036 182.456 88.2036 181.992 88.1876 181.72C87.4516 181.72 86.5716 181.752 85.5316 181.816C85.4676 181.816 85.4036 181.784 85.3876 181.688ZM86.3636 187.88C86.3476 187.736 86.3476 187.368 86.3636 187.224C86.3796 187.112 86.3636 187.08 86.4756 187.096C87.8036 187.176 88.5076 187.192 89.7556 187.192C90.9396 187.192 91.4516 187.192 92.9396 187.096C93.0356 187.08 93.0516 187.112 93.0516 187.192C93.0676 187.368 93.0676 187.736 93.0516 187.896C93.0516 187.96 93.0196 187.992 92.9396 187.992C91.7716 187.912 91.1956 187.912 90.5076 187.912H89.7556C88.5556 187.912 87.7876 187.928 86.4756 187.992C86.3956 187.992 86.3636 187.976 86.3636 187.88ZM86.9076 184.376C86.9076 184.616 86.9076 185.016 86.9236 185.432C87.2436 185.432 87.7076 185.432 88.2036 185.448V183.672H86.9236C86.9076 183.832 86.9076 183.992 86.9076 184.376ZM88.9716 183.672C88.9716 184.328 88.9716 185.048 88.9876 185.448H90.2676C90.2836 185.032 90.2836 184.344 90.2836 183.672H88.9716ZM88.9716 182.984H90.2676C90.2676 182.456 90.2676 181.992 90.2516 181.704H89.1636C89.1796 181.72 89.1796 181.736 89.1796 181.752C89.1796 181.8 89.1476 181.848 89.0676 181.912C89.0036 181.944 88.9876 182.024 88.9716 182.168V182.984ZM91.0516 183.672C91.0516 184.328 91.0516 185.032 91.0676 185.448C91.6116 185.432 92.1556 185.432 92.4916 185.416V184.072C92.4916 183.88 92.4916 183.736 92.4756 183.672C92.2356 183.656 91.6436 183.672 91.0516 183.672ZM91.0676 190.664C91.0356 190.584 91.0356 190.568 91.0996 190.536C91.1956 190.504 91.5476 190.344 91.6596 190.312C91.7396 190.296 91.7396 190.296 91.8036 190.376C92.0916 190.824 93.0676 191.88 94.6196 192.552C94.6836 192.584 94.7156 192.632 94.5876 192.696C94.3316 192.824 94.0276 192.952 93.8036 193.176C93.7556 193.224 93.7236 193.224 93.6436 193.176C92.4116 192.456 91.3716 191.256 91.0676 190.664ZM103.644 193.016C103.18 193.016 102.732 192.984 102.38 192.936C100.38 192.648 99.1316 191.432 99.1316 190.056C99.1316 188.888 100.028 187.624 102.14 186.728C101.836 185.992 101.788 184.744 101.788 183.624C101.788 183 101.804 182.424 101.804 181.976C101.804 181.688 101.804 181.464 101.772 181.336C101.756 181.304 101.756 181.272 101.756 181.24C101.756 181.176 101.788 181.16 101.9 181.16C102.14 181.16 102.652 181.224 102.94 181.304C103.164 181.352 103.228 181.432 103.228 181.496C103.228 181.656 102.972 181.848 102.956 182.104C102.924 182.888 102.86 183.688 102.86 184.408C102.86 185.192 102.924 185.896 103.148 186.36C103.436 186.264 103.724 186.152 104.06 186.056C105.132 185.704 106.38 185.208 106.828 185.016C106.924 184.968 106.956 184.984 106.988 185.064C107.052 185.208 107.148 185.656 107.18 185.912V185.992C107.18 186.104 107.148 186.168 106.988 186.216C106.572 186.376 105.42 186.728 104.508 187C103.98 187.144 103.484 187.304 103.036 187.448C101.004 188.168 100.204 189.128 100.204 189.976C100.204 190.904 101.164 191.704 102.476 191.912C102.732 191.944 103.036 191.96 103.34 191.96C104.62 191.96 106.204 191.688 107.196 191.336C107.228 191.32 107.276 191.32 107.292 191.32C107.356 191.32 107.388 191.352 107.388 191.48C107.388 191.704 107.404 192.152 107.436 192.344V192.376C107.436 192.472 107.372 192.52 107.228 192.568C106.332 192.84 104.876 193.016 103.644 193.016ZM116.908 193.576C116.844 193.576 116.796 193.544 116.748 193.496C116.54 193.208 116.316 193.096 116.156 192.968C116.06 192.904 116.044 192.856 116.172 192.824C118.3 192.216 120.044 190.824 120.268 189.368C120.092 189.672 119.612 190.024 118.988 190.024C117.676 190.024 116.86 189.176 116.86 187.976C116.86 186.808 117.708 185.768 118.94 185.768C119.5 185.768 119.82 186.008 119.964 186.04C119.964 185.88 119.964 185.048 119.948 184.12C117.58 184.2 115.276 184.424 113.708 184.632H113.644C113.58 184.632 113.548 184.616 113.532 184.552C113.5 184.408 113.372 183.784 113.356 183.624V183.56C113.356 183.512 113.372 183.496 113.436 183.496C113.66 183.496 113.916 183.512 114.204 183.512C114.62 183.512 115.036 183.496 115.34 183.48C116.844 183.384 118.396 183.288 119.932 183.224C119.916 182.84 119.916 182.488 119.9 182.168C119.884 181.688 119.852 181.272 119.82 181.016C119.82 180.984 119.804 180.952 119.804 180.92C119.804 180.888 119.82 180.872 119.884 180.872C120.092 180.872 120.716 180.904 121.052 180.968C121.196 181 121.26 181.048 121.26 181.112C121.26 181.24 120.988 181.432 120.972 181.656C120.94 182.056 120.924 182.6 120.924 183.176C122.492 183.128 124.06 183.096 125.58 183.096C125.676 183.096 125.676 183.128 125.692 183.24C125.708 183.432 125.724 183.944 125.708 184.104C125.692 184.184 125.66 184.216 125.596 184.2C124.604 184.104 123.5 184.072 122.348 184.072C121.868 184.072 121.388 184.072 120.908 184.088C120.924 184.904 120.94 185.672 120.956 186.104C120.956 186.344 120.972 186.52 120.988 186.68C121.26 187.224 121.436 187.896 121.436 188.616C121.436 190.344 120.396 192.344 117.02 193.544C116.972 193.56 116.94 193.576 116.908 193.576ZM117.82 187.992C117.836 188.664 118.348 189.16 118.988 189.16C119.788 189.144 120.204 188.504 120.204 187.864C120.204 187.24 119.82 186.632 119.02 186.632C118.364 186.632 117.82 187.192 117.82 187.992ZM134.179 193.032C133.427 193.032 132.691 192.888 132.147 192.584C131.411 192.184 131.091 191.592 131.091 191.048C131.091 190.28 131.763 189.56 132.883 189.56C134.179 189.56 135.267 190.536 135.107 192.072C135.699 191.96 136.259 191.752 136.691 191.432C137.571 190.792 138.067 189.896 138.067 189.048C138.067 188.312 137.699 187.608 136.851 187.16C136.403 186.92 135.795 186.792 135.171 186.792C134.083 186.792 132.899 187.128 132.115 187.768C131.363 188.376 130.755 188.968 130.259 189.448C130.211 189.496 130.163 189.496 130.099 189.448C129.955 189.368 129.491 188.984 129.379 188.856C129.331 188.792 129.363 188.728 129.395 188.696C131.139 187.352 135.043 183.608 135.459 183.064C135.555 182.952 135.523 182.952 135.395 182.984C134.211 183.336 132.403 183.576 131.331 183.672H131.251C131.171 183.672 131.139 183.656 131.091 183.56C131.011 183.416 130.851 182.888 130.835 182.744V182.68C130.835 182.6 130.867 182.552 130.995 182.584C131.139 182.6 131.315 182.6 131.507 182.6C132.915 182.6 135.491 182.232 136.131 181.944C136.179 181.912 136.211 181.912 136.243 181.912C136.307 181.912 136.355 181.928 136.419 181.976C136.562 182.056 136.979 182.328 137.171 182.52C137.219 182.568 137.235 182.616 137.235 182.648C137.235 182.792 136.995 182.888 136.915 182.968C136.595 183.272 134.323 185.496 133.619 186.168C133.507 186.264 133.507 186.344 133.667 186.28C134.163 186.088 134.851 185.976 135.539 185.976C136.163 185.976 136.787 186.072 137.283 186.312C138.499 186.872 139.139 187.912 139.139 189.048C139.139 190.12 138.547 191.272 137.347 192.136C136.515 192.712 135.315 193.032 134.179 193.032ZM132.051 191.064C132.051 191.336 132.243 191.656 132.627 191.848C133.027 192.056 133.571 192.168 134.147 192.168C134.163 192.04 134.179 191.912 134.179 191.8C134.179 190.872 133.555 190.376 132.931 190.376C132.355 190.376 132.051 190.696 132.051 191.064Z" fill="white"/>
<path d="M7.512 250.28C7.464 250.28 7.392 250.256 7.32 250.16C7.152 249.944 6.864 249.56 6.672 249.08C6.648 249.032 6.648 249.008 6.648 248.984C6.648 248.936 6.672 248.936 6.72 248.936C7.392 248.936 8.256 248.768 9.168 248.624C9.192 247.472 9.192 245.024 9.192 244.4C9.192 243.512 9.192 242.528 9.096 241.16C9.096 240.992 9.096 240.944 9.336 240.968C10.344 241.04 11.328 241.088 12.12 241.088C12.888 241.088 13.56 241.064 14.808 240.968C14.976 240.968 15.024 241.016 15.024 241.16C14.904 242.48 14.928 243.176 14.928 243.68C14.928 244.112 14.952 245.192 15.048 246.272V246.32C15.048 246.44 15.024 246.464 14.808 246.488C14.616 246.512 14.16 246.536 13.968 246.512C13.8 246.488 13.776 246.488 13.776 246.344C13.776 246.248 13.8 246.176 13.8 246.08C13.272 246.056 12.384 246.056 12.024 246.056C11.688 246.056 10.848 246.056 10.344 246.08V248.408C11.376 248.216 12.408 248 13.224 247.808C12.888 247.496 12.576 247.256 12.384 247.088C12.312 247.04 12.288 246.992 12.384 246.92L13.056 246.488C13.152 246.44 13.176 246.44 13.272 246.488C13.872 246.872 15.36 248.192 15.96 249.104C16.008 249.176 16.008 249.224 15.912 249.32C15.768 249.44 15.384 249.704 15.144 249.872C15.072 249.896 15 249.92 14.952 249.848C14.712 249.416 14.4 249.008 14.088 248.648C12.984 248.912 9.432 249.728 8.016 250.016C7.776 250.064 7.656 250.28 7.512 250.28ZM1.152 246.752C1.152 246.704 1.224 246.704 1.344 246.68C1.968 246.632 2.712 246.56 3.504 246.44C3.816 246.056 4.152 245.672 4.488 245.24C3.672 244.616 2.52 243.968 1.8 243.632C1.704 243.584 1.68 243.56 1.728 243.464C1.824 243.32 2.112 242.96 2.256 242.864C2.328 242.816 2.352 242.816 2.448 242.84C2.664 242.936 2.952 243.08 3.264 243.248C3.864 242.288 4.32 241.232 4.512 240.512C4.512 240.44 4.512 240.368 4.608 240.368C4.848 240.368 5.472 240.608 5.808 240.776C5.976 240.848 6.048 240.92 6.048 240.992C6.048 241.088 5.904 241.16 5.736 241.28C5.592 241.376 5.472 241.52 5.424 241.64C5.088 242.216 4.608 243.008 4.128 243.752C4.488 243.968 4.848 244.184 5.136 244.4C5.856 243.416 6.432 242.528 6.624 242C6.672 241.928 6.672 241.856 6.792 241.904C7.056 241.952 7.584 242.24 7.872 242.432C8.016 242.528 8.088 242.6 8.088 242.648C8.088 242.744 7.92 242.816 7.752 242.888C7.56 242.984 7.512 243.056 7.392 243.2C6.792 243.968 5.856 245.144 4.944 246.2C5.736 246.08 6.456 245.936 7.008 245.816C7.176 245.504 7.32 245.192 7.392 244.904C7.416 244.784 7.44 244.76 7.584 244.808C7.776 244.88 8.256 245.12 8.568 245.36C8.688 245.456 8.76 245.528 8.76 245.6C8.76 245.72 8.616 245.792 8.448 245.84C8.28 245.864 8.16 245.984 8.016 246.248C7.392 247.52 5.496 250.112 2.712 251.048C2.616 251.096 2.52 251.12 2.448 251.024C2.208 250.688 1.752 250.52 1.464 250.376C1.224 250.256 1.32 250.232 1.488 250.184C3.552 249.656 5.28 248.24 6.36 246.848C5.064 247.112 3.048 247.568 2.424 247.712C2.232 247.784 2.088 247.952 1.944 247.952C1.896 247.952 1.824 247.928 1.752 247.832C1.608 247.664 1.296 247.184 1.176 246.824C1.176 246.8 1.152 246.776 1.152 246.752ZM2.088 255.008C2.064 254.768 2.064 254.288 2.088 254.072C2.112 253.904 2.112 253.904 2.304 253.904C5.136 254 7.224 254.048 9.048 254.048C8.544 253.496 8.016 253.04 7.776 252.872C7.704 252.8 7.656 252.752 7.776 252.656C7.92 252.584 8.448 252.344 8.592 252.296C8.64 252.272 8.688 252.224 8.832 252.344C9.264 252.68 10.128 253.352 10.632 254.048H13.224C13.728 253.448 14.136 252.704 14.28 252.272C14.304 252.176 14.328 252.176 14.496 252.224C14.664 252.272 15.576 252.512 15.84 252.704C15.936 252.752 15.96 252.824 15.96 252.848C15.96 252.944 15.84 253.016 15.648 253.088C15.408 253.208 15.288 253.28 15.12 253.472C14.976 253.664 14.808 253.856 14.64 254.048C16.608 254.048 18.84 254 21.72 253.904C21.888 253.904 21.912 253.952 21.912 254.072C21.936 254.192 21.96 254.384 21.96 254.552C21.96 254.744 21.936 254.912 21.912 255.032C21.912 255.128 21.864 255.176 21.744 255.152C17.496 255.032 14.472 255.008 11.976 255.008C9.36 255.008 6.552 255.008 2.304 255.152H2.232C2.136 255.152 2.088 255.104 2.088 255.008ZM4.152 252.128C4.128 251.912 4.128 251.384 4.152 251.192C4.176 251.048 4.176 251.048 4.344 251.048C8.04 251.192 9.432 251.192 11.208 251.192C11.232 250.712 11.208 250.136 11.064 249.728V249.68C11.064 249.608 11.112 249.56 11.208 249.56C11.52 249.56 12.24 249.68 12.792 249.8C12.96 249.824 13.008 249.872 13.008 249.944C13.008 250.04 12.816 250.208 12.72 250.4C12.648 250.568 12.6 250.88 12.576 251.192C14.376 251.192 15.768 251.168 19.416 251.048C19.56 251.048 19.584 251.072 19.584 251.192C19.608 251.408 19.608 251.936 19.584 252.152C19.584 252.248 19.584 252.272 19.464 252.272C15.576 252.152 13.944 252.152 11.928 252.152C9.768 252.152 8.352 252.152 4.344 252.272C4.2 252.272 4.176 252.248 4.152 252.128ZM6.456 261.392C6.6 260.168 6.6 259.4 6.624 258.728C6.624 257.768 6.6 257.144 6.528 256.232C6.528 256.184 6.504 256.136 6.504 256.112C6.504 256.016 6.552 255.992 6.792 256.016C8.28 256.112 10.536 256.112 11.928 256.112C13.368 256.112 15.48 256.088 17.088 256.016H17.16C17.304 256.016 17.352 256.088 17.352 256.208C17.256 257.36 17.256 258.104 17.256 258.752C17.256 259.352 17.256 259.976 17.376 261.296C17.376 261.488 17.376 261.512 17.088 261.56C16.848 261.584 16.368 261.584 16.152 261.56C15.96 261.56 15.816 261.56 15.816 261.368C15.84 261.224 15.84 261.08 15.84 260.96C14.976 260.936 12.84 260.912 11.88 260.912C10.872 260.912 8.808 260.936 7.968 260.96C7.968 261.104 7.992 261.248 7.992 261.392C7.992 261.584 7.944 261.608 7.728 261.608C7.392 261.632 7.008 261.632 6.72 261.608C6.504 261.608 6.432 261.584 6.456 261.392ZM7.944 260L11.856 260.024L15.888 260C15.912 259.568 15.912 259.208 15.912 258.944C15.096 258.92 12.864 258.896 11.88 258.896C10.848 258.896 8.76 258.92 7.944 258.944V260ZM7.944 258.032C8.784 258.056 10.896 258.056 11.856 258.056L15.912 258.032C15.912 257.504 15.888 257.024 15.888 257.024L11.88 257C10.704 257 7.968 257.024 7.968 257.024C7.968 257.024 7.968 257.504 7.944 258.032ZM10.344 245.192C10.872 245.216 11.736 245.216 12.024 245.216C12.36 245.216 13.296 245.216 13.824 245.192V243.968C13.32 243.944 12.432 243.944 12.072 243.944C11.736 243.944 10.848 243.944 10.344 243.968V245.192ZM10.344 243.104C10.872 243.104 11.76 243.128 12.072 243.128L13.824 243.104C13.824 242.552 13.8 241.904 13.8 241.904C13.8 241.904 12.624 241.88 12.096 241.88C11.544 241.904 10.368 241.904 10.368 241.904C10.368 241.904 10.344 242.456 10.344 243.104ZM16.248 250.28C16.416 248.528 16.464 246.488 16.464 245.456V243.896C16.464 242.96 16.44 241.856 16.32 241.088C16.296 240.992 16.32 240.92 16.464 240.944C17.28 241.016 18.312 241.064 19.056 241.064C19.824 241.064 20.496 241.04 20.88 241.016C21.024 241.016 21.168 240.824 21.288 240.872C21.432 240.944 22.032 241.328 22.152 241.472C22.2 241.52 22.248 241.568 22.248 241.64C22.248 241.688 22.2 241.76 22.08 241.832C21.984 241.856 21.888 241.904 21.84 241.976C21.456 242.648 20.808 243.872 20.424 244.544C20.4 244.592 20.376 244.64 20.376 244.688C20.376 244.736 20.424 244.808 20.52 244.88C21.84 245.84 22.344 246.8 22.344 247.64C22.344 248.984 21.024 249.992 19.512 249.992C19.272 249.992 19.032 249.968 18.792 249.92C18.72 249.92 18.648 249.896 18.624 249.824C18.576 249.512 18.192 249.056 18.048 248.816C18 248.744 17.976 248.672 18.096 248.696C18.48 248.816 18.84 248.864 19.176 248.864C20.256 248.864 21.072 248.336 21.072 247.544C21.072 246.944 20.616 246.224 19.536 245.456C19.32 245.288 19.224 245.12 19.224 244.952C19.224 244.856 19.272 244.736 19.32 244.592C19.632 244.016 20.232 242.672 20.496 242.024H17.76C17.688 242.504 17.688 244.112 17.688 245.456C17.688 246.8 17.76 248.504 17.832 250.304C17.832 250.376 17.784 250.496 17.688 250.496C17.4 250.52 16.632 250.52 16.392 250.496C16.272 250.472 16.224 250.352 16.248 250.28ZM37.416 260.48C36.384 260.48 35.208 260.36 34.056 260C31.848 259.352 30.624 257.864 30.624 256.496C30.624 255.344 31.464 254.24 33.36 253.76C34.656 253.424 36.072 253.328 37.32 253.328C38.664 253.328 39.84 253.424 40.536 253.496C40.08 252.752 39.504 251.672 38.928 250.472C37.104 250.856 35.184 251.072 33.408 251.072C32.424 251.072 31.464 251 30.624 250.856C30.528 250.832 30.456 250.736 30.408 250.616C30.336 250.4 30.312 249.68 30.336 249.44C30.336 249.296 30.384 249.272 30.576 249.32C31.512 249.56 32.568 249.656 33.672 249.656C35.184 249.656 36.768 249.464 38.304 249.152C37.968 248.408 37.632 247.64 37.32 246.872C36.216 247.088 35.088 247.208 33.96 247.208C33.024 247.208 32.088 247.112 31.2 246.92C31.08 246.896 31.008 246.8 30.984 246.704C30.936 246.488 30.936 245.768 30.96 245.528C30.96 245.408 31.008 245.384 31.176 245.432C32.16 245.72 33.168 245.84 34.2 245.84C35.088 245.84 35.976 245.744 36.816 245.576C36.408 244.472 36.072 243.416 35.88 242.456C35.832 242.288 35.784 242.24 35.952 242.192C36.336 242.096 36.816 242.072 37.296 242.072C37.632 242.072 37.728 242.144 37.728 242.288C37.728 242.456 37.584 242.72 37.608 243.032C37.704 243.704 37.896 244.472 38.136 245.264C39.048 245 39.912 244.664 40.704 244.28C40.728 244.256 40.752 244.256 40.8 244.256C40.872 244.256 40.92 244.304 40.968 244.4C41.088 244.568 41.448 245 41.544 245.312V245.384C41.544 245.432 41.52 245.528 41.424 245.552C40.584 245.936 39.624 246.296 38.592 246.56C38.88 247.328 39.192 248.096 39.552 248.864C40.872 248.504 42.072 248.072 43.056 247.568C43.104 247.544 43.152 247.544 43.176 247.544C43.248 247.544 43.296 247.592 43.368 247.664C43.512 247.856 43.896 248.312 43.992 248.624C44.016 248.648 44.016 248.672 44.016 248.696C44.016 248.744 43.968 248.84 43.872 248.888C42.816 249.368 41.544 249.8 40.2 250.16C41.184 252.08 42.288 253.832 43.176 254.96C43.248 255.032 43.248 255.104 43.152 255.176C42.864 255.344 42.36 255.56 42.024 255.632C42 255.632 41.976 255.656 41.952 255.656C41.856 255.656 41.784 255.584 41.712 255.536C41.424 255.32 41.208 255.128 40.128 254.912C39.36 254.768 38.28 254.648 37.128 254.648C36.096 254.648 35.016 254.744 34.08 254.984C32.832 255.296 32.256 255.92 32.256 256.592C32.256 257.384 33.072 258.248 34.464 258.608C35.352 258.848 36.288 258.944 37.224 258.944C38.448 258.944 39.672 258.776 40.752 258.512C40.8 258.488 40.848 258.488 40.872 258.488C40.968 258.488 40.968 258.536 40.92 258.68C40.8 259.016 40.68 259.448 40.584 259.832C40.536 260.048 40.464 260.12 40.152 260.216C39.576 260.336 38.592 260.48 37.416 260.48ZM62.016 259.568C61.824 259.568 61.632 259.52 61.488 259.304C61.272 258.944 60.96 258.704 60.696 258.464C60.6 258.368 60.552 258.32 60.552 258.272C60.552 258.2 60.648 258.176 60.792 258.176C66.096 258.272 69.384 255.296 69.384 252.104C69.384 250.928 68.952 249.728 68.016 248.648C67.08 247.544 65.616 246.824 64.032 246.56C64.008 246.56 64.008 246.56 64.008 246.584H63.912C63.768 246.584 63.672 246.632 63.6 246.824C63.048 248.336 60.384 254.384 58.08 257.696C57.768 258.152 57.408 258.32 57.024 258.32C56.76 258.32 56.496 258.248 56.232 258.104C54.552 257.24 53.616 255.392 53.616 253.304C53.616 251.072 54.72 248.576 57.168 246.824C58.704 245.744 60.72 245.192 62.736 245.192C65.184 245.192 67.632 246.008 69.216 247.688C70.416 248.984 70.992 250.544 70.992 252.128C70.992 255.656 68.016 259.208 62.136 259.568H62.016ZM55.128 253.184C55.128 254.504 55.632 255.656 56.496 256.304C56.616 256.376 56.712 256.424 56.808 256.424C56.928 256.424 57.048 256.352 57.144 256.232C58.992 253.664 61.392 248.24 61.968 246.488C60.576 246.608 59.208 247.088 58.008 247.952C55.992 249.44 55.128 251.456 55.128 253.184ZM81.24 261.104C81.096 261.08 81.048 261.032 81.048 260.888C81.288 256.808 81.288 253.04 81.288 249.8V248.912C80.16 248.936 78.912 248.984 77.376 249.032C77.232 249.032 77.136 249.008 77.136 248.864C77.112 248.6 77.112 247.904 77.136 247.64C77.136 247.472 77.184 247.448 77.376 247.448C78.936 247.52 80.184 247.544 81.288 247.568V246.44C81.288 245 81.264 243.56 81.12 242.504V242.432C81.12 242.336 81.168 242.312 81.288 242.312C81.648 242.36 82.512 242.432 83.04 242.6C83.184 242.648 83.232 242.72 83.232 242.816C83.232 242.984 83.112 243.176 83.016 243.392C82.92 243.56 82.8 243.776 82.776 244.496C82.752 245.216 82.752 246.44 82.728 247.616H86.616V247.496C86.616 246.656 86.64 245.84 86.64 245.024C86.64 243.8 86.592 242.624 86.424 241.472V241.424C86.424 241.304 86.496 241.304 86.616 241.328C86.904 241.352 87.768 241.448 88.296 241.616C88.44 241.664 88.488 241.736 88.488 241.808C88.488 241.952 88.392 242.144 88.296 242.336C88.152 242.648 88.08 242.864 88.056 243.608C88.032 244.496 88.008 246.296 87.984 247.496V247.616H91.8V247.496C91.8 246.608 91.824 245.768 91.824 244.952C91.824 243.824 91.776 242.72 91.632 241.616V241.568C91.632 241.496 91.656 241.448 91.728 241.448C92.04 241.448 92.856 241.568 93.432 241.76C93.6 241.808 93.672 241.88 93.672 242C93.672 242.12 93.552 242.288 93.456 242.528C93.36 242.744 93.264 243.032 93.24 243.728C93.216 244.664 93.168 246.296 93.168 247.496V247.592C94.56 247.568 96.072 247.52 97.92 247.448C98.088 247.448 98.112 247.496 98.112 247.64C98.136 247.928 98.136 248.6 98.112 248.888C98.112 248.984 98.04 249.032 97.92 249.032C96.12 248.96 94.584 248.936 93.168 248.912C93.192 251.36 93.264 253.472 93.336 255.824C93.336 255.944 93.288 255.992 93.168 255.992C93 256.016 92.76 256.016 92.52 256.016C92.304 256.016 92.064 256.016 91.92 255.992C91.776 255.992 91.704 255.944 91.728 255.824C91.728 255.488 91.752 255.2 91.752 254.888C91.2 254.888 90.528 254.864 90.024 254.864L88.08 254.888C88.08 255.248 88.104 255.608 88.104 255.968C88.104 256.088 88.056 256.136 87.936 256.136C87.768 256.16 87.528 256.16 87.288 256.16C87.048 256.16 86.808 256.16 86.664 256.136C86.52 256.136 86.472 256.088 86.472 255.968C86.592 252.824 86.616 251.144 86.616 248.864C85.176 248.864 83.976 248.864 82.728 248.888V252.032C82.728 254.168 82.752 256.616 82.776 258.704C84.24 258.752 85.056 258.776 86.688 258.776C90.024 258.776 91.968 258.776 96.336 258.584C96.504 258.584 96.528 258.656 96.528 258.8C96.552 259.088 96.552 259.808 96.528 260.072C96.528 260.192 96.456 260.24 96.336 260.24C92.04 260.072 89.928 260.072 86.688 260.072C84.792 260.072 84.168 260.096 82.824 260.12C82.824 260.408 82.848 260.672 82.848 260.912C82.848 261.032 82.8 261.08 82.68 261.104C82.344 261.128 81.528 261.128 81.24 261.104ZM87.984 248.864L88.056 253.712C88.632 253.736 89.448 253.736 90.024 253.736C90.528 253.736 91.224 253.736 91.776 253.712C91.8 252.776 91.8 251.984 91.8 251.216V248.888C90.528 248.864 89.304 248.864 87.984 248.864ZM104.256 261.584C104.136 261.632 104.064 261.608 103.992 261.512C103.656 260.96 103.056 260.624 102.744 260.384C102.624 260.264 102.672 260.216 102.792 260.192C107.592 259.64 109.272 257 109.32 254.384C109.32 253.928 109.32 253.352 109.248 252.8C107.472 253.928 105.36 255.032 103.464 255.632C103.32 255.68 103.176 255.752 103.104 255.632C102.816 255.224 102.12 254.816 101.832 254.624C101.664 254.528 101.64 254.432 101.856 254.384C105.864 253.472 109.488 251.432 111.336 249.656L111.744 249.248C110.184 249.248 108.216 249.272 107.232 249.272C107.232 249.536 107.232 249.776 107.256 250.04C107.256 250.184 107.208 250.208 107.04 250.208C106.704 250.232 106.152 250.232 105.864 250.208C105.72 250.208 105.648 250.136 105.648 250.04C105.816 248.384 105.84 247.064 105.84 245.648C105.84 244.16 105.816 243.2 105.72 241.496V241.472C105.72 241.376 105.792 241.304 105.936 241.328C107.808 241.4 110.808 241.424 112.68 241.424C114.744 241.424 117.36 241.4 119.256 241.304H119.304C119.472 241.304 119.52 241.424 119.52 241.496C119.424 243.128 119.4 244.328 119.4 245.624C119.4 246.848 119.472 248.096 119.592 249.8V249.824C119.592 249.92 119.496 250.016 119.376 250.016C119.016 250.04 118.512 250.04 118.224 250.016C118.08 249.992 117.984 249.944 117.984 249.8C118.008 249.632 118.008 249.464 118.008 249.296C117.168 249.272 115.32 249.248 113.76 249.248C113.856 249.32 113.88 249.392 113.88 249.44C113.88 249.512 113.784 249.56 113.616 249.584C116.184 251.384 119.112 252.968 123.696 253.784C123.864 253.832 123.912 253.904 123.744 254.048C123.432 254.312 122.976 254.672 122.664 255.128C122.568 255.248 122.472 255.272 122.352 255.224C118.656 254.216 115.296 252.248 112.608 250.256L112.536 250.328C111.912 250.952 110.904 251.696 109.752 252.464C110.112 252.512 110.592 252.584 111 252.68C111.12 252.728 111.168 252.776 111.168 252.848C111.168 252.968 111.072 253.136 110.976 253.304C110.808 253.616 110.76 253.736 110.736 254.48C110.688 257.696 108.816 260.552 104.256 261.584ZM107.136 245.912C107.16 246.416 107.184 247.208 107.208 248.12C108.216 248.144 110.28 248.168 111.864 248.168C111.888 247.568 111.888 246.632 111.888 245.864C110.256 245.888 108.12 245.888 107.136 245.912ZM107.136 244.736C108.144 244.76 110.28 244.784 111.888 244.784C111.888 243.944 111.864 243.056 111.864 242.552C109.92 242.552 107.184 242.576 107.184 242.576L107.136 244.736ZM113.232 245.864C113.232 246.632 113.256 247.544 113.256 248.168C114.936 248.168 117.168 248.12 118.056 248.12C118.08 247.256 118.104 246.416 118.104 245.912C117.216 245.888 114.936 245.888 113.232 245.864ZM113.232 244.784C114.912 244.784 117.216 244.76 118.104 244.736L118.056 242.576C118.056 242.576 115.488 242.552 113.568 242.552C113.568 242.6 113.52 242.696 113.4 242.768C113.28 242.888 113.256 243.008 113.256 243.176C113.232 243.608 113.232 244.208 113.232 244.784ZM114.504 252.608V252.512C114.504 252.44 114.528 252.44 114.672 252.44C115.032 252.488 115.752 252.56 116.304 252.728C116.472 252.776 116.544 252.824 116.544 252.896C116.544 252.992 116.448 253.112 116.328 253.256C116.16 253.472 116.136 254.24 116.136 255.176V256.328C116.136 257.864 116.208 259.328 116.304 261.128C116.304 261.248 116.232 261.272 116.136 261.296C115.776 261.32 115.104 261.32 114.816 261.296C114.648 261.272 114.6 261.248 114.624 261.128C114.696 259.808 114.696 258.776 114.696 257.792V256.328C114.696 255.128 114.72 253.568 114.504 252.608ZM147.216 257.408C147.144 257.408 147.096 257.408 147 257.36C143.352 255.872 137.328 250.928 135.936 250.04C135.552 249.8 135.216 249.632 134.856 249.632C134.544 249.632 134.232 249.776 133.896 250.064C133.08 250.808 131.232 252.728 130.8 253.256C130.512 253.616 130.464 254.024 130.152 254.024C130.08 254.024 129.96 253.976 129.792 253.88C129.408 253.64 128.88 253.232 128.64 252.968C128.52 252.848 128.544 252.776 128.664 252.704C130.464 251.456 131.664 250.016 133.056 248.768C133.608 248.264 134.208 248.048 134.784 248.048C135.456 248.048 136.128 248.336 136.752 248.744C138.384 249.848 144.144 254.408 148.104 255.824C148.248 255.872 148.32 255.92 148.32 255.992C148.32 256.064 148.272 256.136 148.2 256.256C148.008 256.544 147.648 257.024 147.408 257.312C147.336 257.384 147.288 257.408 147.216 257.408Z" fill="white"/>
</svg>
