<svg width="390" height="301" viewBox="0 0 390 301" fill="none" xmlns="http://www.w3.org/2000/svg">
<path d="M51.272 49.368H37.32V51.352H50.312C50.12 53.304 49.8 56.888 49.32 58.584C48.648 61.048 47.24 61.144 46.088 61.208C45.256 61.24 44.168 61.272 43.336 61.24L42.344 58.744C43.304 58.84 44.264 58.936 45.352 58.936C46.728 58.936 47.016 58.584 47.4 57.112C47.624 56.28 47.784 55.032 47.976 53.336H35.176V35.16H38.664C39.368 34.168 39.848 33.336 40.488 31.992L42.568 32.664C42.824 32.76 43.112 32.824 43.112 33.08C43.112 33.368 42.76 33.432 42.216 33.56C41.896 34.232 41.64 34.648 41.256 35.16H49.096V45.432H37.32V47.448H51.272V49.368ZM46.92 39.384V37.08H37.32V39.384H46.92ZM46.92 43.512V41.208H37.32V43.512H46.92ZM32.136 52.888H25.896V56.408H23.656V35.352H32.136V52.888ZM29.992 50.808V37.432H25.896V50.808H29.992ZM46.184 57.272L44.264 58.04C43.784 56.696 43.368 55.864 42.408 54.488L44.072 53.72C44.712 54.488 45.48 55.48 46.184 57.272ZM42.216 58.904L40.328 59.576C39.848 58.008 39.336 56.728 38.472 54.968L40.232 54.328C41.416 56.184 41.896 57.688 42.216 58.904ZM38.184 59.928L36.04 60.504C35.688 58.424 35.272 56.824 34.6 55.512L36.616 55.096C37.448 57.016 37.768 58.136 38.184 59.928ZM33.8 55.864C33.032 57.944 32.264 59.352 31.016 60.984L28.936 59.64C29.96 58.616 31.048 57.304 31.88 54.776L33.8 55.864ZM72.2 43.96C73.736 43.96 75.08 45.208 75.08 46.84C75.08 48.44 73.768 49.72 72.2 49.72C70.6 49.72 69.352 48.408 69.352 46.84C69.352 45.24 70.632 43.96 72.2 43.96ZM116.808 59H114.088V38.424L106.632 59H104.04L96.584 38.424V59H93.864V35.64H98.12L105.32 55.512L112.52 35.64H116.808V59ZM143.244 59H124.94V35.64H142.86V38.04H127.852V45.848H141.676V48.184H127.852V56.6H143.244V59ZM153.182 59H150.206V35.64H153.182V59Z" fill="white"/>
<path d="M28.528 184.688C27.312 184.688 26.08 184.656 25.136 184.576C23.712 184.448 23.344 183.616 23.36 182.752L23.408 178.192C23.408 177.68 23.408 176.944 23.36 176.256C22.912 176.688 22.432 177.088 21.952 177.424C21.888 177.472 21.808 177.52 21.744 177.456C21.52 177.216 21.168 177.088 20.976 177.008C20.864 176.96 20.832 176.928 20.944 176.864C23.376 175.36 25.52 172.72 26.16 171.168C26.192 171.088 26.208 171.056 26.304 171.072C26.56 171.152 26.928 171.312 27.28 171.536C27.36 171.584 27.408 171.648 27.408 171.696C27.408 171.776 27.296 171.856 27.152 171.92C26.976 171.984 26.912 172.032 26.688 172.352L26.256 172.96C27.344 172.96 28.816 172.944 29.184 172.928C29.312 172.928 29.408 172.736 29.52 172.768C29.696 172.832 30.144 173.152 30.224 173.232C30.272 173.28 30.304 173.328 30.304 173.376C30.304 173.424 30.256 173.488 30.128 173.552C30 173.616 29.888 173.744 29.792 173.872C29.552 174.176 28.896 175.056 28.4 175.648C29.664 175.648 31.312 175.632 32.448 175.568C32.608 175.568 32.64 175.616 32.624 175.744C32.544 176.64 32.56 177.2 32.56 177.664C32.56 178.256 32.576 179.552 32.64 180.56V180.64C32.64 180.72 32.608 180.752 32.464 180.768C32.272 180.8 31.968 180.8 31.744 180.784C31.648 180.784 31.552 180.768 31.552 180.64C31.568 180.464 31.568 180.288 31.568 180.096C30.912 180.096 28.704 180.064 27.904 180.064C27.088 180.064 25.024 180.096 24.368 180.096V182.64C24.368 183.2 24.608 183.536 25.312 183.6C26.112 183.664 27.312 183.712 28.544 183.712C29.904 183.712 31.296 183.664 32.32 183.536C33.2 183.424 33.52 182.592 33.536 181.344C33.536 181.248 33.6 181.232 33.68 181.328C33.968 181.664 34.176 181.904 34.56 182.096C34.656 182.128 34.704 182.192 34.672 182.32C34.464 183.68 33.92 184.368 32.512 184.528C31.536 184.64 30.032 184.688 28.528 184.688ZM24.032 175.6C25.024 175.648 26.16 175.648 27.312 175.648C27.776 175.104 28.48 174.16 28.704 173.76C28.208 173.76 26.384 173.776 25.616 173.792C25.168 174.352 24.624 174.992 24.032 175.6ZM24.368 179.248C24.928 179.248 26.48 179.28 27.424 179.28C27.44 178.816 27.44 178.208 27.44 177.696C27.44 176.96 27.424 176.688 27.408 176.432C26.272 176.432 24.992 176.448 24.384 176.448C24.384 176.448 24.384 177.808 24.368 179.248ZM28.368 177.696C28.368 178.208 28.368 178.816 28.384 179.28C29.376 179.28 31.056 179.248 31.584 179.248C31.6 178.64 31.6 178.08 31.6 177.776C31.6 177.344 31.584 176.624 31.584 176.448C31.584 176.448 29.872 176.432 28.656 176.432V176.448C28.656 176.496 28.608 176.56 28.496 176.608C28.416 176.656 28.384 176.704 28.384 176.848C28.384 177.296 28.368 177.216 28.368 177.696ZM40.88 184.88C40.736 184.88 40.608 184.88 40.528 184.864C40.448 184.864 40.416 184.832 40.416 184.752C40.496 183.312 40.528 181.328 40.56 180.048C39.808 181.264 38.8 182.384 37.632 183.28C37.568 183.328 37.52 183.376 37.408 183.296C37.216 183.12 36.736 182.944 36.528 182.88C36.448 182.848 36.4 182.816 36.512 182.752C38.448 181.728 39.888 179.76 40.496 178.752C39.712 178.768 38.768 178.8 37.536 178.864C37.488 178.864 37.424 178.864 37.424 178.784C37.408 178.64 37.408 178.128 37.424 177.984C37.424 177.888 37.472 177.888 37.536 177.888C38.832 177.968 39.776 177.984 40.56 177.984C40.528 177.456 40.496 176.944 40.432 176.448C40.416 176.384 40.432 176.352 40.496 176.352C40.64 176.352 41.296 176.432 41.584 176.56C41.664 176.592 41.696 176.624 41.696 176.656C41.696 176.752 41.568 176.88 41.504 177.088C41.456 177.28 41.424 177.52 41.392 177.984C42.112 177.984 42.992 177.968 44.256 177.888C44.32 177.888 44.368 177.92 44.368 177.984C44.368 178.128 44.384 178.624 44.368 178.784C44.368 178.848 44.304 178.864 44.24 178.864C42.992 178.784 42.128 178.752 41.376 178.752V178.848C41.632 179.248 43.024 180.72 44.624 181.568C44.768 181.648 44.784 181.712 44.672 181.76C44.464 181.872 44.112 182.032 43.92 182.208C43.84 182.288 43.808 182.352 43.696 182.256C42.768 181.552 41.872 180.56 41.376 179.888C41.392 181.296 41.456 183.648 41.504 184.768C41.504 184.832 41.472 184.864 41.392 184.864C41.28 184.88 41.072 184.88 40.88 184.88ZM37.056 172.56C36.96 172.448 37.008 172.448 37.088 172.448C39.744 172.4 42.64 171.68 43.264 171.312C43.36 171.264 43.376 171.232 43.472 171.312C43.6 171.44 43.952 171.76 44.096 171.968C44.144 172.032 44.176 172.096 44.176 172.144C44.176 172.256 44 172.304 43.728 172.288C43.648 172.272 43.424 172.272 43.152 172.368C42.24 172.688 39.68 173.216 37.712 173.376C37.632 173.376 37.552 173.376 37.52 173.28C37.44 173.024 37.216 172.752 37.056 172.56ZM37.488 174.416C37.44 174.352 37.424 174.32 37.504 174.272C37.648 174.192 37.936 174.032 38.08 173.984C38.144 173.968 38.16 173.968 38.224 174.016C38.448 174.256 39.28 175.344 39.536 175.904C39.568 175.968 39.584 176 39.504 176.08C39.392 176.176 39.056 176.384 38.864 176.48C38.816 176.512 38.752 176.496 38.736 176.432C38.48 175.776 37.712 174.672 37.488 174.416ZM39.888 173.872C39.84 173.808 39.824 173.776 39.92 173.728C40.08 173.664 40.384 173.568 40.512 173.536C40.576 173.52 40.592 173.536 40.656 173.6C40.848 173.856 41.456 174.912 41.648 175.488C41.664 175.568 41.68 175.6 41.6 175.664C41.472 175.76 41.104 175.904 40.912 175.968C40.864 175.984 40.8 175.968 40.784 175.904C40.624 175.216 40.064 174.16 39.888 173.872ZM41.952 176.272C42.624 175.312 43.296 173.952 43.52 173.248C43.536 173.168 43.552 173.12 43.584 173.12C43.648 173.12 44.24 173.376 44.56 173.6C44.624 173.648 44.656 173.696 44.656 173.728C44.656 173.792 44.576 173.856 44.464 173.92C44.304 174.016 44.24 174.096 44.16 174.24C43.872 174.72 43.2 175.888 42.8 176.464C42.752 176.528 42.672 176.576 42.576 176.528C42.432 176.448 42.208 176.432 42 176.384C41.936 176.368 41.904 176.336 41.952 176.272ZM43.296 184.128C43.248 184.096 43.184 184.016 43.312 184C47.008 183.424 49.2 181.136 49.92 179.968C49.952 179.888 49.984 179.856 50.032 179.856C50.064 179.856 50.096 179.872 50.16 179.904C50.368 180.032 50.768 180.272 50.992 180.464C51.072 180.528 51.088 180.576 51.088 180.624C51.088 180.704 50.976 180.768 50.816 180.816C50.608 180.88 50.496 181.024 50.336 181.184C49.264 182.368 47.36 184.112 44.528 184.832C44.464 184.848 44.4 184.88 44.352 184.88C44.304 184.88 44.256 184.864 44.224 184.816C44.112 184.624 43.536 184.272 43.296 184.128ZM44.256 175.504C46.4 174.544 48.288 172.608 48.864 171.44C48.928 171.296 48.928 171.28 49.088 171.344C49.328 171.44 49.728 171.632 50 171.84C50.064 171.904 50.096 171.952 50.096 171.984C50.096 172.064 49.984 172.128 49.824 172.192C49.648 172.272 49.6 172.336 49.44 172.512C48.672 173.424 47.312 174.96 45.488 176.032C45.392 176.096 45.296 176.144 45.216 176.064C45.056 175.904 44.528 175.728 44.272 175.648C44.192 175.632 44.128 175.568 44.256 175.504ZM44.416 179.296C46.8 178.576 48.64 176.608 49.184 175.552C49.232 175.456 49.248 175.408 49.296 175.408C49.328 175.408 49.36 175.424 49.424 175.456C49.664 175.584 50.048 175.808 50.304 176C50.368 176.048 50.4 176.096 50.4 176.128C50.4 176.208 50.288 176.256 50.144 176.32C49.936 176.416 49.92 176.432 49.728 176.64C48.96 177.552 47.424 179.12 45.6 179.984C45.552 180 45.488 180.016 45.424 180.016C45.376 180.016 45.328 180 45.296 179.952C45.152 179.776 44.688 179.552 44.432 179.44C44.368 179.408 44.288 179.344 44.416 179.296ZM60.704 184.48C60.352 184.48 60.016 184.448 59.728 184.4C58.128 184.096 57.088 183.136 57.088 181.984C57.088 180.864 58.064 179.536 60.448 178.448C60.448 178.352 60.432 178.256 60.432 178.176C60.352 177.296 59.872 176.928 59.264 176.928C58.528 176.928 57.584 177.472 56.928 178.272C56.464 178.832 56.048 179.504 55.712 180.032C55.664 180.112 55.6 180.144 55.504 180.144C55.312 180.144 54.816 179.984 54.608 179.92C54.496 179.888 54.464 179.792 54.528 179.712C55.744 178.256 57.04 176.688 58.08 174.784C57.616 174.816 57.168 174.832 56.752 174.832C56.288 174.832 55.872 174.816 55.504 174.768C55.44 174.752 55.392 174.688 55.36 174.624C55.328 174.496 55.296 173.936 55.312 173.776C55.312 173.696 55.328 173.68 55.44 173.712C55.872 173.824 56.464 173.888 57.152 173.888C57.568 173.888 58 173.872 58.464 173.824C58.704 173.264 58.896 172.752 59.04 172.16C59.072 172.064 59.072 172.032 59.136 172.032C59.296 172.032 59.952 172.08 60.224 172.176C60.336 172.208 60.384 172.256 60.384 172.304C60.384 172.448 60.08 172.608 59.968 172.832C59.824 173.152 59.696 173.424 59.552 173.712C60.432 173.584 61.312 173.408 62.048 173.2C62.08 173.184 62.096 173.184 62.128 173.184C62.176 173.184 62.208 173.216 62.224 173.28C62.24 173.376 62.272 173.856 62.304 174.064C62.304 174.112 62.304 174.208 62.192 174.224C61.248 174.416 60.176 174.576 59.152 174.688C58.656 175.568 58.352 176.016 57.936 176.576C57.84 176.704 57.888 176.672 58 176.624C58.592 176.336 59.136 176.192 59.616 176.192C60.56 176.192 61.232 176.784 61.376 178.032V178.064C62.512 177.616 64.512 176.88 65.024 176.56C65.072 176.528 65.152 176.528 65.2 176.576C65.328 176.752 65.696 177.248 65.744 177.456C65.808 177.712 65.504 177.632 65.168 177.728C64.144 178.048 62.464 178.656 61.424 179.056H61.408C61.392 179.84 61.328 180.816 61.232 181.552C61.216 181.712 61.184 181.744 61.024 181.76C60.768 181.792 60.608 181.792 60.336 181.792H60.288C60.176 181.792 60.16 181.728 60.176 181.648C60.304 180.976 60.384 180.192 60.432 179.504C58.768 180.336 58.096 181.2 58.096 181.92C58.096 182.688 58.848 183.264 59.952 183.424C60.144 183.456 60.368 183.472 60.592 183.472C61.552 183.472 62.736 183.216 63.44 182.864C63.472 182.848 63.504 182.848 63.52 182.848C63.552 182.848 63.584 182.864 63.584 182.944C63.584 183.12 63.52 183.632 63.536 183.824V183.856C63.536 183.952 63.488 184 63.376 184.048C62.8 184.288 61.696 184.48 60.704 184.48ZM73.712 177.088C73.504 176.896 73.168 176.784 72.928 176.72C72.848 176.704 72.8 176.672 72.8 176.64C72.8 176.608 72.848 176.576 72.912 176.544C74.928 175.424 76.512 173.056 77.152 171.792C77.296 171.52 77.44 171.216 77.488 170.944C77.504 170.896 77.52 170.832 77.584 170.832C77.68 170.832 78.272 171.088 78.56 171.264C78.64 171.312 78.672 171.376 78.672 171.424C78.672 171.52 78.56 171.616 78.416 171.664C78.384 171.68 78.352 171.696 78.32 171.728C79.408 173.392 81.792 175.296 83.584 175.984C83.632 176 83.648 176.016 83.648 176.032C83.648 176.08 83.6 176.128 83.552 176.16C83.264 176.304 82.864 176.48 82.688 176.72C82.64 176.8 82.544 176.8 82.48 176.768C80.608 175.712 78.72 173.776 77.84 172.432C77.232 173.44 75.856 175.552 73.92 177.056C73.856 177.104 73.776 177.152 73.712 177.088ZM68.832 179.056C68.832 178.992 68.896 178.992 68.96 178.976C69.504 178.88 70.352 178.592 71.296 178.208V175.392C70.656 175.408 69.92 175.424 69.344 175.456C69.28 175.456 69.216 175.44 69.2 175.36C69.184 175.184 69.184 174.704 69.2 174.56C69.216 174.464 69.264 174.416 69.344 174.432C69.92 174.464 70.64 174.512 71.28 174.528C71.28 173.2 71.232 171.824 71.152 171.184V171.152C71.152 171.104 71.184 171.072 71.232 171.072C71.472 171.072 72 171.136 72.4 171.264C72.48 171.28 72.512 171.328 72.512 171.392C72.512 171.488 72.416 171.664 72.352 171.904C72.256 172.144 72.24 173.28 72.224 174.528C72.672 174.512 73.072 174.48 73.632 174.432H73.664C73.728 174.432 73.776 174.464 73.776 174.544C73.792 174.64 73.792 174.832 73.792 175.008C73.792 175.152 73.792 175.28 73.776 175.36C73.776 175.44 73.696 175.456 73.632 175.456C73.072 175.44 72.672 175.408 72.224 175.392V177.888C72.912 177.584 73.408 177.36 73.712 177.2C73.808 177.168 73.808 177.168 73.808 177.28V177.552C73.808 177.696 73.808 177.856 73.84 177.968V178C73.84 178.064 73.808 178.112 73.712 178.16C73.296 178.384 72.816 178.592 72.224 178.864C72.224 180.144 72.256 181.792 72.256 183.056C72.256 183.872 71.968 184.624 70.256 184.672H70.224C70.144 184.672 70.064 184.624 70.048 184.576C69.968 184.256 69.76 183.92 69.568 183.664C69.504 183.584 69.52 183.536 69.616 183.536C69.92 183.584 70.176 183.6 70.384 183.6C71.072 183.6 71.248 183.36 71.264 182.784C71.28 181.808 71.296 180.416 71.296 179.232C70.736 179.472 70.288 179.664 69.888 179.824C69.744 179.888 69.632 180.064 69.52 180.064C69.472 180.064 69.424 180.032 69.376 179.968C69.216 179.776 68.944 179.296 68.848 179.12C68.832 179.088 68.832 179.072 68.832 179.056ZM73.712 179.136C73.696 178.976 73.696 178.608 73.712 178.416C73.728 178.288 73.76 178.272 73.856 178.272C75.44 178.384 76.48 178.4 77.456 178.4V176.912C76.88 176.912 76.208 176.928 75.264 177.008C75.2 177.008 75.136 176.992 75.12 176.896C75.104 176.704 75.104 176.384 75.12 176.224C75.136 176.096 75.184 176.08 75.264 176.08C76.224 176.16 76.88 176.192 77.456 176.192C77.44 175.392 77.424 175.04 77.344 174.4C77.328 174.304 77.328 174.256 77.408 174.256C77.616 174.256 78.208 174.368 78.592 174.496C78.672 174.528 78.704 174.56 78.704 174.608C78.704 174.704 78.624 174.8 78.544 174.944C78.432 175.152 78.384 175.296 78.368 176.192C79.008 176.192 79.744 176.176 80.752 176.08C80.8 176.08 80.864 176.128 80.864 176.192C80.864 176.368 80.88 176.704 80.864 176.896C80.848 176.976 80.832 177.008 80.752 177.008C79.76 176.928 79.024 176.912 78.368 176.912V178.4C79.44 178.4 80.64 178.368 82.256 178.272C82.336 178.272 82.384 178.32 82.384 178.4C82.4 178.56 82.4 178.96 82.384 179.136C82.384 179.216 82.32 179.248 82.256 179.232C80.448 179.136 79.104 179.136 77.968 179.136C76.864 179.136 75.68 179.136 73.856 179.232H73.824C73.76 179.232 73.712 179.2 73.712 179.136ZM74.928 184.736C75.008 183.872 75.024 182.784 75.024 182.464C75.024 182 75.008 181.12 74.96 180.544V180.496C74.96 180.4 74.976 180.384 75.12 180.4C75.808 180.448 77.296 180.464 77.952 180.464C78.592 180.464 79.872 180.448 80.8 180.4C80.928 180.4 80.96 180.432 80.96 180.544C80.88 181.472 80.896 182.048 80.896 182.4C80.896 182.704 80.912 183.568 80.976 184.608V184.656C80.976 184.768 80.96 184.784 80.8 184.8C80.64 184.832 80.288 184.832 80.112 184.816C80.016 184.8 79.936 184.816 79.936 184.688C79.936 184.464 79.952 184.256 79.952 184.032L77.936 184.016L75.952 184.032C75.952 184.256 75.968 184.512 75.968 184.752C75.968 184.896 75.952 184.912 75.792 184.928C75.584 184.944 75.296 184.944 75.12 184.928C74.96 184.912 74.912 184.896 74.928 184.736ZM75.952 183.184C76.432 183.2 77.632 183.216 77.936 183.216C78.224 183.216 79.456 183.2 79.968 183.184V182.304L79.952 181.248L77.936 181.232L75.968 181.248C75.968 181.328 75.952 182.08 75.952 182.448V183.184ZM95.536 183.84C92.24 183.296 90.272 181.008 90.272 178.544C90.272 177.248 90.8 175.92 91.952 174.752C92 174.704 92.016 174.672 92.016 174.656C92.016 174.64 91.984 174.64 91.888 174.656C89.84 174.976 88.272 175.232 86.592 175.44H86.544C86.48 175.44 86.416 175.424 86.384 175.36C86.32 175.216 86.16 174.576 86.144 174.464V174.432C86.144 174.336 86.208 174.304 86.288 174.304C86.688 174.304 87.376 174.272 88.016 174.192C90.32 173.904 95.36 173.184 97.184 173.072C97.264 173.072 97.264 173.104 97.28 173.168C97.312 173.344 97.328 173.936 97.328 174.08C97.328 174.144 97.296 174.176 97.232 174.176C96.016 174.16 93.84 174.24 92.976 175.04C91.84 176.08 91.296 177.28 91.296 178.448C91.296 180.544 93.104 182.464 96.336 182.768C96.48 182.768 96.464 182.832 96.384 182.928C96.224 183.152 95.888 183.488 95.76 183.744C95.712 183.824 95.648 183.856 95.536 183.84Z" fill="white"/>
<path d="M21.504 206.68C21.408 206.68 21.36 206.664 21.36 206.568C21.344 206.392 21.344 205.96 21.36 205.784C21.376 205.672 21.376 205.656 21.504 205.672C23.552 205.768 25.008 205.784 26.24 205.784C25.808 204.856 25.136 203.976 24.784 203.592C24.72 203.528 24.688 203.496 24.784 203.432C24.928 203.336 25.28 203.144 25.456 203.096C25.472 203.096 25.488 203.08 25.504 203.08C25.536 203.08 25.568 203.096 25.632 203.16C26.016 203.544 26.736 204.44 27.184 205.304C27.2 205.352 27.216 205.368 27.216 205.4C27.216 205.432 27.184 205.464 27.12 205.512C27.024 205.592 26.88 205.688 26.72 205.784H28.544C29.28 204.696 29.76 203.448 29.856 203.08C29.888 203 29.904 202.984 30.048 203.016C30.176 203.048 30.736 203.208 30.976 203.368C31.088 203.432 31.136 203.496 31.136 203.544C31.136 203.656 30.88 203.736 30.752 203.896C30.496 204.264 30.064 205.064 29.584 205.784C30.96 205.784 32.512 205.752 34.528 205.672H34.56C34.624 205.672 34.64 205.72 34.64 205.784C34.656 205.992 34.656 206.392 34.64 206.584C34.64 206.648 34.608 206.68 34.512 206.68C31.664 206.568 29.584 206.568 27.824 206.568H26.72C25.264 206.568 23.792 206.584 21.504 206.68ZM22.48 202.664C22.464 202.504 22.464 202.072 22.48 201.88C22.48 201.768 22.528 201.736 22.608 201.736C24.96 201.864 26.448 201.864 27.488 201.864C27.488 200.984 27.472 200.488 27.376 199.928V199.88C27.376 199.832 27.392 199.816 27.44 199.816C27.584 199.816 28.384 199.864 28.752 199.976C28.848 200.008 28.88 200.056 28.88 200.104C28.88 200.2 28.784 200.328 28.688 200.472C28.56 200.68 28.544 200.92 28.512 201.864C29.6 201.864 31.024 201.848 33.344 201.736C33.408 201.736 33.456 201.784 33.456 201.864C33.472 201.96 33.472 202.152 33.472 202.344C33.472 202.472 33.472 202.6 33.456 202.68C33.456 202.744 33.408 202.776 33.344 202.776C30.72 202.68 29.088 202.68 27.984 202.664C26.928 202.664 25.28 202.68 22.608 202.776C22.544 202.776 22.48 202.76 22.48 202.664ZM24.24 213.752C24.336 212.632 24.336 210.648 24.336 210.136C24.336 209.528 24.336 208.872 24.256 207.944V207.88C24.256 207.784 24.304 207.768 24.48 207.784C25.376 207.832 27.12 207.832 27.904 207.832C28.704 207.832 30.432 207.832 31.536 207.784H31.584C31.696 207.784 31.712 207.832 31.712 207.96C31.632 209.08 31.648 209.688 31.648 210.184C31.648 210.648 31.664 212.504 31.728 213.656V213.736C31.728 213.832 31.696 213.864 31.552 213.88C31.36 213.912 31.008 213.912 30.848 213.896C30.736 213.88 30.656 213.896 30.656 213.736C30.672 213.576 30.672 213.4 30.672 213.224C30.08 213.208 28.4 213.192 27.872 213.192C27.36 213.192 25.904 213.208 25.312 213.224V213.816C25.312 213.896 25.28 213.912 25.136 213.928C24.928 213.944 24.608 213.944 24.432 213.928C24.272 213.912 24.224 213.912 24.24 213.752ZM25.296 212.424L27.872 212.44C28.368 212.44 30.096 212.424 30.688 212.408C30.704 211.848 30.704 211.272 30.704 210.856C30.128 210.84 28.4 210.84 27.872 210.84C27.344 210.84 25.872 210.84 25.296 210.856V212.424ZM25.296 210.072L27.872 210.088L30.704 210.072C30.704 209.528 30.688 208.648 30.688 208.648C30.688 208.648 28.512 208.616 27.888 208.616C27.264 208.616 25.312 208.648 25.312 208.648C25.312 208.648 25.296 209.48 25.296 210.072ZM44.384 213.912C44.272 213.912 44.192 213.864 44.16 213.72C44.112 213.48 43.92 213.208 43.792 213.032C43.728 212.904 43.744 212.904 43.872 212.936C44.16 213 44.416 213.032 44.624 213.032C45.36 213.032 45.76 212.696 45.968 212.072C46.112 211.64 46.176 211.208 46.176 210.76C46.176 210.504 46.16 210.248 46.112 209.992C45.104 211.288 43.52 212.648 41.264 213.368C41.184 213.4 41.12 213.4 41.088 213.32C40.976 213.144 40.672 212.872 40.48 212.744C40.368 212.68 40.368 212.632 40.496 212.6C42.784 212.136 44.72 210.632 45.872 209.048C45.776 208.808 45.664 208.552 45.552 208.328C44.4 209.544 42.832 210.68 41.168 211.24C41.152 211.256 41.12 211.256 41.104 211.256C41.056 211.256 41.024 211.24 40.992 211.192C40.896 211.016 40.56 210.76 40.4 210.664C40.32 210.616 40.304 210.552 40.416 210.52C42.288 210.088 44.096 208.888 45.168 207.688C45.024 207.496 44.864 207.304 44.704 207.128C43.808 207.864 42.592 208.648 41.264 209.096H41.216C41.168 209.096 41.12 209.08 41.088 209.032C40.976 208.824 40.672 208.68 40.512 208.568C40.416 208.488 40.4 208.456 40.512 208.424C42.4 207.912 44.176 206.792 44.8 205.96C44.144 205.976 43.472 205.992 43.056 205.992C43.072 206.12 43.072 206.248 43.072 206.36V206.408C43.072 206.456 43.04 206.472 42.96 206.472C42.784 206.488 42.384 206.488 42.24 206.472C42.144 206.472 42.096 206.424 42.112 206.36C42.176 205.72 42.192 205 42.208 204.488V204.168C41.904 204.472 41.6 204.76 41.248 205.032C41.184 205.08 41.136 205.096 41.072 205.064C40.816 204.872 40.496 204.824 40.304 204.776C40.192 204.744 40.176 204.712 40.272 204.648C42.208 203.288 43.504 201.288 43.952 199.992C43.968 199.928 43.984 199.896 44.064 199.928C44.288 199.992 44.656 200.12 44.944 200.328C45.024 200.376 45.056 200.424 45.056 200.472C45.056 200.552 44.976 200.616 44.848 200.664C44.704 200.712 44.624 200.776 44.464 201.032L44.384 201.16C45.232 201.16 46.224 201.144 46.528 201.144C46.608 201.144 46.736 201.016 46.816 201.016C46.928 201.016 47.408 201.336 47.488 201.4C47.552 201.464 47.584 201.512 47.584 201.544C47.584 201.608 47.52 201.672 47.408 201.736C47.296 201.784 47.216 201.88 47.12 201.992C46.928 202.28 46.656 202.712 46.368 203.112C47.456 203.096 48.736 203.064 49.584 203.016C49.68 203.016 49.712 203.064 49.696 203.128C49.664 203.48 49.648 204.12 49.648 204.504C49.648 204.984 49.68 205.608 49.728 206.184V206.216C49.728 206.28 49.68 206.328 49.616 206.328C49.424 206.344 49.04 206.344 48.88 206.328C48.8 206.328 48.752 206.296 48.752 206.216V205.992C48.464 205.992 47.968 205.976 47.44 205.976C47.552 206.728 47.744 207.528 48.032 208.296C48.88 207.768 49.68 207.064 49.92 206.808C49.968 206.76 50 206.76 50.064 206.808C50.128 206.856 50.464 207.176 50.64 207.464C50.656 207.512 50.672 207.544 50.672 207.576C50.672 207.688 50.528 207.72 50.352 207.736C50.224 207.752 50.144 207.816 50.032 207.896C49.648 208.168 48.96 208.584 48.32 208.952C48.96 210.312 49.92 211.544 51.248 212.344C51.328 212.392 51.36 212.424 51.36 212.456C51.36 212.488 51.296 212.536 51.2 212.568C50.976 212.664 50.544 212.808 50.352 212.984C50.288 213.048 50.208 213.048 50.16 213C48.16 211.272 46.992 208.616 46.608 205.96H45.904C45.952 206.008 45.968 206.104 45.872 206.152C45.728 206.232 45.664 206.216 45.536 206.36L45.264 206.632C46.352 207.72 47.024 209.32 47.024 210.92C47.024 211.4 46.976 211.864 46.848 212.328C46.56 213.352 45.632 214.008 44.384 213.912ZM36.352 207.128C38.672 205.048 40.224 201.464 40.4 200.312C40.4 200.248 40.416 200.184 40.464 200.184C40.592 200.184 41.232 200.488 41.536 200.68C41.632 200.744 41.696 200.808 41.696 200.872C41.696 200.952 41.616 201.016 41.472 201.096C41.296 201.176 41.216 201.224 41.152 201.4C40.912 201.96 40.48 202.872 39.936 203.864L40.16 203.944C40.24 203.976 40.288 204.04 40.288 204.104C40.288 204.168 40.24 204.248 40.16 204.328C40.016 204.504 40.016 204.568 40.016 205C39.968 206.824 39.856 210.088 39.856 212.312C39.856 212.84 39.856 213.304 39.872 213.688C39.872 213.784 39.84 213.816 39.744 213.816C39.648 213.832 39.472 213.832 39.296 213.832C39.12 213.832 38.944 213.832 38.848 213.816C38.752 213.816 38.72 213.768 38.72 213.688C38.912 211.672 39.008 207.816 39.088 205.304C38.592 206.072 38.064 206.824 37.504 207.416C37.44 207.48 37.36 207.512 37.28 207.464C37.072 207.352 36.672 207.288 36.416 207.256C36.304 207.24 36.256 207.224 36.352 207.128ZM43.04 204.488C43.04 204.696 43.04 204.968 43.056 205.272C43.568 205.272 44.528 205.288 45.328 205.288C45.344 204.808 45.36 204.248 45.344 203.8C44.368 203.8 43.296 203.816 43.04 203.816V204.488ZM43.12 203.08C43.888 203.096 44.736 203.112 45.456 203.112C45.728 202.712 46 202.248 46.192 201.88C45.792 201.896 44.624 201.912 43.936 201.912C43.696 202.28 43.424 202.664 43.12 203.08ZM46.192 205.288C47.072 205.288 48.256 205.272 48.784 205.272C48.8 205 48.8 204.744 48.8 204.536C48.8 204.232 48.784 203.864 48.784 203.816C48.544 203.8 47.328 203.8 46.352 203.8C46.352 203.848 46.304 203.88 46.256 203.928C46.208 203.976 46.192 204.04 46.192 204.12C46.176 204.44 46.192 204.92 46.192 205.288ZM55.536 212.84C55.312 212.84 54.688 212.712 54.528 212.632C54.448 212.6 54.368 212.552 54.432 212.456C55.312 210.952 56.368 207.96 57.024 205.192C56.592 205.256 56.176 205.288 55.776 205.288C55.328 205.288 54.912 205.24 54.528 205.128C54.464 205.112 54.416 205.064 54.384 205C54.352 204.872 54.32 204.296 54.336 204.12C54.336 204.024 54.368 203.976 54.48 204.024C54.896 204.216 55.44 204.28 56.032 204.28C56.416 204.28 56.832 204.264 57.264 204.2C57.456 203.224 57.616 202.296 57.68 201.512C57.696 201.4 57.696 201.368 57.76 201.368C57.92 201.368 58.56 201.48 58.848 201.592C59.024 201.672 59.104 201.736 59.104 201.8C59.104 201.96 58.768 202.104 58.72 202.312L58.304 204.024C58.816 203.912 59.328 203.784 59.84 203.624C59.856 203.624 59.872 203.608 59.888 203.608C59.952 203.608 59.984 203.656 59.984 203.72C60 203.88 60.016 204.232 60 204.424C59.984 204.504 59.952 204.6 59.84 204.632C59.2 204.776 58.608 204.92 58.048 205.032C57.312 207.832 56.464 210.808 55.712 212.744C55.664 212.824 55.616 212.856 55.536 212.84ZM58.336 210.952C58.352 210.808 58.48 210.328 58.544 210.152C58.576 210.056 58.64 210.056 58.704 210.12C59.6 211.048 61.584 211.496 63.52 211.496C64.112 211.496 64.704 211.448 65.264 211.368C65.296 211.368 65.312 211.352 65.328 211.352C65.392 211.352 65.392 211.4 65.408 211.48C65.408 211.608 65.344 212.264 65.312 212.472C65.296 212.536 65.264 212.568 65.184 212.584C64.752 212.632 64.304 212.648 63.856 212.648C61.776 212.648 59.504 212.184 58.384 211.128C58.336 211.08 58.336 211.016 58.336 210.952ZM60.752 205.432C60.752 205.272 60.8 204.824 60.848 204.664C60.864 204.584 60.88 204.552 60.928 204.536C62.64 204.504 64.432 204.744 65.2 204.952C65.296 204.968 65.296 205 65.296 205.112C65.28 205.24 65.184 205.816 65.136 205.944C65.104 206.024 65.072 206.056 64.992 206.04C64.352 205.816 62.88 205.528 61.44 205.528C61.248 205.528 61.056 205.528 60.864 205.544H60.832C60.784 205.544 60.752 205.496 60.752 205.432ZM63.344 202.184C63.392 202.104 63.6 201.848 63.664 201.784C63.728 201.736 63.76 201.704 63.84 201.736C64.352 201.976 65.392 202.568 65.872 203.032C65.936 203.08 65.936 203.128 65.888 203.24C65.84 203.368 65.648 203.608 65.568 203.688C65.488 203.752 65.44 203.752 65.36 203.704C64.848 203.224 63.84 202.584 63.376 202.344C63.296 202.312 63.312 202.232 63.344 202.184ZM64.576 201.064C64.624 200.984 64.832 200.728 64.896 200.664C64.96 200.6 64.992 200.584 65.072 200.616C65.584 200.84 66.624 201.432 67.12 201.88C67.184 201.944 67.184 201.992 67.136 202.104C67.088 202.216 66.896 202.472 66.816 202.552C66.736 202.616 66.688 202.616 66.624 202.552C66.096 202.088 65.072 201.448 64.608 201.224C64.528 201.192 64.544 201.112 64.576 201.064ZM75.0996 213.528C75.0516 213.528 75.0036 213.512 74.9396 213.448C74.7316 213.24 74.4756 213.128 74.2676 213.016C74.1556 212.968 74.1556 212.936 74.2676 212.872C77.3716 211.384 77.9796 209.24 77.9796 206.936C77.9796 206.744 77.9636 206.536 77.9636 206.344L77.9156 205.208C77.3236 205.288 76.7156 205.336 76.0916 205.336C75.5316 205.336 74.9716 205.304 74.4276 205.208C74.3476 205.192 74.3316 205.16 74.3156 205.08C74.2836 204.936 74.2676 204.44 74.2676 204.28C74.2676 204.152 74.2836 204.136 74.4116 204.168C75.0516 204.312 75.6916 204.376 76.3156 204.376C76.8436 204.376 77.3716 204.328 77.8836 204.248C77.8836 204.216 77.8676 204.184 77.8676 204.152C77.8196 203.048 77.8196 202.04 77.6916 201.416C77.6756 201.384 77.6756 201.352 77.6756 201.32C77.6756 201.288 77.6916 201.272 77.7556 201.272C77.9476 201.272 78.6516 201.32 78.9716 201.384C79.1156 201.416 79.1636 201.464 79.1636 201.544C79.1636 201.688 78.9236 201.88 78.9076 202.072C78.8756 202.456 78.8756 202.744 78.8756 203.016C78.8756 203.336 78.8756 203.64 78.8916 204.04C79.5796 203.864 80.1716 203.64 80.6516 203.416C80.7476 203.368 80.7796 203.4 80.7956 203.496C80.8116 203.672 80.8756 204.216 80.8756 204.392C80.8756 204.472 80.8756 204.504 80.7636 204.552C80.2516 204.712 79.6276 204.888 78.9236 205.032L78.9716 206.328C78.9716 206.584 78.9876 206.84 78.9876 207.08C78.9876 209.416 78.5236 211.72 75.2916 213.464C75.2116 213.512 75.1636 213.528 75.0996 213.528ZM70.5396 207.464C70.5396 205.8 70.8596 204.088 71.0836 202.712C71.1636 202.264 71.1796 201.96 71.1956 201.592V201.544C71.1956 201.432 71.2436 201.432 71.3716 201.464C71.5956 201.496 72.1236 201.64 72.3636 201.752C72.4916 201.816 72.5556 201.88 72.5556 201.944C72.5556 202.072 72.2836 202.232 72.2196 202.456C71.8036 204.04 71.4676 205.8 71.4676 207.32C71.4676 208.04 71.5476 208.696 71.7236 209.272C71.7556 209.4 71.7876 209.448 71.8196 209.448C71.8676 209.448 71.8996 209.384 71.9316 209.288C72.0756 208.808 72.5396 207.736 72.6356 207.512C72.6676 207.432 72.6996 207.432 72.7636 207.48C72.7636 207.512 72.8916 207.784 73.1316 207.96C73.1956 208.008 73.1796 208.056 73.1476 208.136C73.0036 208.488 72.6356 209.368 72.4596 210.152C72.4116 210.344 72.3956 210.536 72.3956 210.712C72.3956 210.968 72.4436 211.208 72.5396 211.496V211.528C72.5396 211.592 72.5076 211.624 72.4596 211.656C72.2836 211.72 72.1076 211.768 71.9156 211.832C71.8196 211.848 71.8036 211.848 71.7396 211.784C70.8276 210.616 70.5396 209.064 70.5396 207.464ZM92.2196 213.48C91.8676 213.48 91.5316 213.448 91.2436 213.4C89.6436 213.096 88.6036 212.136 88.6036 210.984C88.6036 209.864 89.5796 208.536 91.9636 207.448C91.9636 207.352 91.9476 207.256 91.9476 207.176C91.8676 206.296 91.3876 205.928 90.7796 205.928C90.0436 205.928 89.0996 206.472 88.4436 207.272C87.9796 207.832 87.5636 208.504 87.2276 209.032C87.1796 209.112 87.1156 209.144 87.0196 209.144C86.8276 209.144 86.3316 208.984 86.1236 208.92C86.0116 208.888 85.9796 208.792 86.0436 208.712C87.2596 207.256 88.5556 205.688 89.5956 203.784C89.1316 203.816 88.6836 203.832 88.2676 203.832C87.8036 203.832 87.3876 203.816 87.0196 203.768C86.9556 203.752 86.9076 203.688 86.8756 203.624C86.8436 203.496 86.8116 202.936 86.8276 202.776C86.8276 202.696 86.8436 202.68 86.9556 202.712C87.3876 202.824 87.9796 202.888 88.6676 202.888C89.0836 202.888 89.5156 202.872 89.9796 202.824C90.2196 202.264 90.4116 201.752 90.5556 201.16C90.5876 201.064 90.5876 201.032 90.6516 201.032C90.8116 201.032 91.4676 201.08 91.7396 201.176C91.8516 201.208 91.8996 201.256 91.8996 201.304C91.8996 201.448 91.5956 201.608 91.4836 201.832C91.3396 202.152 91.2116 202.424 91.0676 202.712C91.9476 202.584 92.8276 202.408 93.5636 202.2C93.5956 202.184 93.6116 202.184 93.6436 202.184C93.6916 202.184 93.7236 202.216 93.7396 202.28C93.7556 202.376 93.7876 202.856 93.8196 203.064C93.8196 203.112 93.8196 203.208 93.7076 203.224C92.7636 203.416 91.6916 203.576 90.6676 203.688C90.1716 204.568 89.8676 205.016 89.4516 205.576C89.3556 205.704 89.4036 205.672 89.5156 205.624C90.1076 205.336 90.6516 205.192 91.1316 205.192C92.0756 205.192 92.7476 205.784 92.8916 207.032V207.064C94.0276 206.616 96.0276 205.88 96.5396 205.56C96.5876 205.528 96.6676 205.528 96.7156 205.576C96.8436 205.752 97.2116 206.248 97.2596 206.456C97.3236 206.712 97.0196 206.632 96.6836 206.728C95.6596 207.048 93.9796 207.656 92.9396 208.056H92.9236C92.9076 208.84 92.8436 209.816 92.7476 210.552C92.7316 210.712 92.6996 210.744 92.5396 210.76C92.2836 210.792 92.1236 210.792 91.8516 210.792H91.8036C91.6916 210.792 91.6756 210.728 91.6916 210.648C91.8196 209.976 91.8996 209.192 91.9476 208.504C90.2836 209.336 89.6116 210.2 89.6116 210.92C89.6116 211.688 90.3636 212.264 91.4676 212.424C91.6596 212.456 91.8836 212.472 92.1076 212.472C93.0676 212.472 94.2516 212.216 94.9556 211.864C94.9876 211.848 95.0196 211.848 95.0356 211.848C95.0676 211.848 95.0996 211.864 95.0996 211.944C95.0996 212.12 95.0356 212.632 95.0516 212.824V212.856C95.0516 212.952 95.0036 213 94.8916 213.048C94.3156 213.288 93.2116 213.48 92.2196 213.48ZM103.196 213.816C103.004 213.816 102.812 213.816 102.716 213.8C102.62 213.784 102.588 213.768 102.604 213.672C102.732 211.4 102.764 208.312 102.764 206.392C102.316 207.32 101.676 208.392 100.828 209.272C100.764 209.336 100.668 209.368 100.588 209.304C100.396 209.144 100.028 209 99.8196 208.936C99.7236 208.904 99.6756 208.872 99.7716 208.808C101.212 207.752 102.236 206.04 102.764 204.856C102.764 204.744 102.764 204.632 102.78 204.504C102.284 204.52 101.564 204.536 100.796 204.6C100.748 204.6 100.668 204.584 100.668 204.504C100.652 204.424 100.652 204.296 100.652 204.152C100.652 203.976 100.652 203.784 100.668 203.688C100.684 203.56 100.732 203.576 100.796 203.576C101.564 203.64 102.284 203.672 102.78 203.688C102.78 202.44 102.748 201.08 102.636 200.168C102.62 200.072 102.636 200.072 102.732 200.072C102.956 200.088 103.5 200.152 103.852 200.264C103.932 200.296 103.964 200.328 103.964 200.392C103.964 200.504 103.884 200.664 103.804 200.904C103.676 201.272 103.644 202.376 103.644 203.672C104.076 203.672 104.652 203.64 105.308 203.576C105.356 203.576 105.436 203.592 105.436 203.672C105.452 203.832 105.452 204.312 105.436 204.504C105.436 204.568 105.34 204.6 105.308 204.6C104.668 204.552 104.076 204.52 103.644 204.504V205.096C103.932 205.48 104.78 206.424 105.692 206.92C105.804 206.984 105.82 207.032 105.74 207.096C105.644 207.176 105.34 207.4 105.212 207.56C105.164 207.624 105.116 207.672 105.02 207.592C104.524 207.16 104.012 206.568 103.644 206.072C103.644 208.056 103.708 211.88 103.804 213.688C103.804 213.768 103.772 213.8 103.692 213.8C103.58 213.816 103.388 213.816 103.196 213.816ZM104.38 213.016C104.316 213 104.3 212.936 104.38 212.904C106.012 212.232 107.068 211.08 107.42 210.392C107.484 210.28 107.436 210.28 107.548 210.328C107.692 210.376 108.124 210.568 108.332 210.728C108.38 210.776 108.412 210.808 108.412 210.84C108.412 210.904 108.3 210.936 108.188 210.984C108.06 211.048 108.028 211.08 107.916 211.192C107.5 211.752 106.652 212.744 105.292 213.48C105.244 213.512 105.148 213.544 105.1 213.48C104.924 213.24 104.556 213.112 104.38 213.016ZM105.372 209.736C105.356 209.576 105.356 209.224 105.372 209.064C105.372 208.952 105.372 208.936 105.5 208.936C107.436 209.048 108.284 209.048 109.756 209.048C111.148 209.048 112.092 209.048 114.06 208.936C114.172 208.936 114.188 208.968 114.188 209.048C114.204 209.128 114.22 209.272 114.22 209.4C114.22 209.528 114.204 209.656 114.188 209.736C114.188 209.816 114.156 209.848 114.076 209.832C112.428 209.768 111.436 209.752 110.396 209.752V209.784C110.396 209.832 110.332 209.896 110.268 209.944C110.188 210.008 110.204 210.104 110.188 210.328C110.172 210.76 110.204 212.008 110.236 212.488C110.268 213.24 109.868 213.832 108.412 213.832H108.38C108.284 213.832 108.268 213.784 108.236 213.704C108.124 213.4 107.836 213.112 107.66 212.92C107.58 212.824 107.612 212.792 107.708 212.808C108.06 212.872 108.332 212.904 108.556 212.904C109.132 212.904 109.308 212.68 109.324 212.248C109.34 212.12 109.34 211.688 109.34 211.192C109.34 210.68 109.34 210.12 109.324 209.752C108.14 209.752 107.196 209.768 105.484 209.832C105.404 209.848 105.372 209.816 105.372 209.736ZM105.388 201.688C105.372 201.528 105.372 201.176 105.388 200.984C105.404 200.856 105.436 200.856 105.532 200.856C107.42 200.968 108.604 200.968 109.612 200.968C110.668 200.968 112.204 200.968 114.124 200.856C114.204 200.856 114.252 200.888 114.268 200.984C114.284 201.128 114.284 201.528 114.268 201.704C114.252 201.784 114.188 201.816 114.124 201.816C113.052 201.768 112.076 201.736 111.26 201.72V201.752C111.26 201.784 111.228 201.848 111.148 201.912C111.068 201.944 111.068 202.024 111.052 202.168V202.968C111.82 202.968 112.668 202.936 113.244 202.904C113.356 202.904 113.388 202.952 113.388 203.016C113.34 203.528 113.324 203.976 113.324 204.296C113.324 204.728 113.34 205.624 113.404 206.408V206.424C113.404 206.504 113.34 206.552 113.26 206.552C113.052 206.552 112.764 206.568 112.604 206.552C112.524 206.536 112.46 206.536 112.46 206.456C112.46 206.344 112.476 206.248 112.476 206.12L109.612 206.104L106.94 206.12C106.94 206.248 106.956 206.36 106.956 206.456C106.956 206.584 106.908 206.584 106.812 206.6C106.636 206.616 106.284 206.616 106.14 206.6C106.012 206.584 105.996 206.536 105.996 206.472C106.076 205.816 106.092 204.872 106.092 204.376C106.092 203.768 106.076 203.512 106.012 203.032C106.012 202.952 106.044 202.92 106.14 202.92C106.652 202.952 107.468 202.968 108.204 202.968C108.204 202.456 108.204 201.992 108.188 201.72C107.452 201.72 106.572 201.752 105.532 201.816C105.468 201.816 105.404 201.784 105.388 201.688ZM106.364 207.88C106.348 207.736 106.348 207.368 106.364 207.224C106.38 207.112 106.364 207.08 106.476 207.096C107.804 207.176 108.508 207.192 109.756 207.192C110.94 207.192 111.452 207.192 112.94 207.096C113.036 207.08 113.052 207.112 113.052 207.192C113.068 207.368 113.068 207.736 113.052 207.896C113.052 207.96 113.02 207.992 112.94 207.992C111.772 207.912 111.196 207.912 110.508 207.912H109.756C108.556 207.912 107.788 207.928 106.476 207.992C106.396 207.992 106.364 207.976 106.364 207.88ZM106.908 204.376C106.908 204.616 106.908 205.016 106.924 205.432C107.244 205.432 107.708 205.432 108.204 205.448V203.672H106.924C106.908 203.832 106.908 203.992 106.908 204.376ZM108.972 203.672C108.972 204.328 108.972 205.048 108.988 205.448H110.268C110.284 205.032 110.284 204.344 110.284 203.672H108.972ZM108.972 202.984H110.268C110.268 202.456 110.268 201.992 110.252 201.704H109.164C109.18 201.72 109.18 201.736 109.18 201.752C109.18 201.8 109.148 201.848 109.068 201.912C109.004 201.944 108.988 202.024 108.972 202.168V202.984ZM111.052 203.672C111.052 204.328 111.052 205.032 111.068 205.448C111.612 205.432 112.156 205.432 112.492 205.416V204.072C112.492 203.88 112.492 203.736 112.476 203.672C112.236 203.656 111.644 203.672 111.052 203.672ZM111.068 210.664C111.036 210.584 111.036 210.568 111.1 210.536C111.196 210.504 111.548 210.344 111.66 210.312C111.74 210.296 111.74 210.296 111.804 210.376C112.092 210.824 113.068 211.88 114.62 212.552C114.684 212.584 114.716 212.632 114.588 212.696C114.332 212.824 114.028 212.952 113.804 213.176C113.756 213.224 113.724 213.224 113.644 213.176C112.412 212.456 111.372 211.256 111.068 210.664ZM123.644 213.016C123.18 213.016 122.732 212.984 122.38 212.936C120.38 212.648 119.132 211.432 119.132 210.056C119.132 208.888 120.028 207.624 122.14 206.728C121.836 205.992 121.788 204.744 121.788 203.624C121.788 203 121.804 202.424 121.804 201.976C121.804 201.688 121.804 201.464 121.772 201.336C121.756 201.304 121.756 201.272 121.756 201.24C121.756 201.176 121.788 201.16 121.9 201.16C122.14 201.16 122.652 201.224 122.94 201.304C123.164 201.352 123.228 201.432 123.228 201.496C123.228 201.656 122.972 201.848 122.956 202.104C122.924 202.888 122.86 203.688 122.86 204.408C122.86 205.192 122.924 205.896 123.148 206.36C123.436 206.264 123.724 206.152 124.06 206.056C125.132 205.704 126.38 205.208 126.828 205.016C126.924 204.968 126.956 204.984 126.988 205.064C127.052 205.208 127.148 205.656 127.18 205.912V205.992C127.18 206.104 127.148 206.168 126.988 206.216C126.572 206.376 125.42 206.728 124.508 207C123.98 207.144 123.484 207.304 123.036 207.448C121.004 208.168 120.204 209.128 120.204 209.976C120.204 210.904 121.164 211.704 122.476 211.912C122.732 211.944 123.036 211.96 123.34 211.96C124.62 211.96 126.204 211.688 127.196 211.336C127.228 211.32 127.276 211.32 127.292 211.32C127.356 211.32 127.388 211.352 127.388 211.48C127.388 211.704 127.404 212.152 127.436 212.344V212.376C127.436 212.472 127.372 212.52 127.228 212.568C126.332 212.84 124.876 213.016 123.644 213.016ZM136.908 213.576C136.844 213.576 136.796 213.544 136.748 213.496C136.54 213.208 136.316 213.096 136.156 212.968C136.06 212.904 136.044 212.856 136.172 212.824C138.3 212.216 140.044 210.824 140.268 209.368C140.092 209.672 139.612 210.024 138.988 210.024C137.676 210.024 136.86 209.176 136.86 207.976C136.86 206.808 137.708 205.768 138.94 205.768C139.5 205.768 139.82 206.008 139.964 206.04C139.964 205.88 139.964 205.048 139.948 204.12C137.58 204.2 135.276 204.424 133.708 204.632H133.644C133.58 204.632 133.548 204.616 133.532 204.552C133.5 204.408 133.372 203.784 133.356 203.624V203.56C133.356 203.512 133.372 203.496 133.436 203.496C133.66 203.496 133.916 203.512 134.204 203.512C134.62 203.512 135.036 203.496 135.34 203.48C136.844 203.384 138.396 203.288 139.932 203.224C139.916 202.84 139.916 202.488 139.9 202.168C139.884 201.688 139.852 201.272 139.82 201.016C139.82 200.984 139.804 200.952 139.804 200.92C139.804 200.888 139.82 200.872 139.884 200.872C140.092 200.872 140.716 200.904 141.052 200.968C141.196 201 141.26 201.048 141.26 201.112C141.26 201.24 140.988 201.432 140.972 201.656C140.94 202.056 140.924 202.6 140.924 203.176C142.492 203.128 144.06 203.096 145.58 203.096C145.676 203.096 145.676 203.128 145.692 203.24C145.708 203.432 145.724 203.944 145.708 204.104C145.692 204.184 145.66 204.216 145.596 204.2C144.604 204.104 143.5 204.072 142.348 204.072C141.868 204.072 141.388 204.072 140.908 204.088C140.924 204.904 140.94 205.672 140.956 206.104C140.956 206.344 140.972 206.52 140.988 206.68C141.26 207.224 141.436 207.896 141.436 208.616C141.436 210.344 140.396 212.344 137.02 213.544C136.972 213.56 136.94 213.576 136.908 213.576ZM137.82 207.992C137.836 208.664 138.348 209.16 138.988 209.16C139.788 209.144 140.204 208.504 140.204 207.864C140.204 207.24 139.82 206.632 139.02 206.632C138.364 206.632 137.82 207.192 137.82 207.992ZM154.179 213.032C153.427 213.032 152.691 212.888 152.147 212.584C151.411 212.184 151.091 211.592 151.091 211.048C151.091 210.28 151.763 209.56 152.883 209.56C154.179 209.56 155.267 210.536 155.107 212.072C155.699 211.96 156.259 211.752 156.691 211.432C157.571 210.792 158.067 209.896 158.067 209.048C158.067 208.312 157.699 207.608 156.851 207.16C156.403 206.92 155.795 206.792 155.171 206.792C154.083 206.792 152.899 207.128 152.115 207.768C151.363 208.376 150.755 208.968 150.259 209.448C150.211 209.496 150.163 209.496 150.099 209.448C149.955 209.368 149.491 208.984 149.379 208.856C149.331 208.792 149.363 208.728 149.395 208.696C151.139 207.352 155.043 203.608 155.459 203.064C155.555 202.952 155.523 202.952 155.395 202.984C154.211 203.336 152.403 203.576 151.331 203.672H151.251C151.171 203.672 151.139 203.656 151.091 203.56C151.011 203.416 150.851 202.888 150.835 202.744V202.68C150.835 202.6 150.867 202.552 150.995 202.584C151.139 202.6 151.315 202.6 151.507 202.6C152.915 202.6 155.491 202.232 156.131 201.944C156.179 201.912 156.211 201.912 156.243 201.912C156.307 201.912 156.355 201.928 156.419 201.976C156.562 202.056 156.979 202.328 157.171 202.52C157.219 202.568 157.235 202.616 157.235 202.648C157.235 202.792 156.995 202.888 156.915 202.968C156.595 203.272 154.323 205.496 153.619 206.168C153.507 206.264 153.507 206.344 153.667 206.28C154.163 206.088 154.851 205.976 155.539 205.976C156.163 205.976 156.787 206.072 157.283 206.312C158.499 206.872 159.139 207.912 159.139 209.048C159.139 210.12 158.547 211.272 157.347 212.136C156.515 212.712 155.315 213.032 154.179 213.032ZM152.051 211.064C152.051 211.336 152.243 211.656 152.627 211.848C153.027 212.056 153.571 212.168 154.147 212.168C154.163 212.04 154.179 211.912 154.179 211.8C154.179 210.872 153.555 210.376 152.931 210.376C152.355 210.376 152.051 210.696 152.051 211.064Z" fill="white"/>
<path d="M27.512 270.28C27.464 270.28 27.392 270.256 27.32 270.16C27.152 269.944 26.864 269.56 26.672 269.08C26.648 269.032 26.648 269.008 26.648 268.984C26.648 268.936 26.672 268.936 26.72 268.936C27.392 268.936 28.256 268.768 29.168 268.624C29.192 267.472 29.192 265.024 29.192 264.4C29.192 263.512 29.192 262.528 29.096 261.16C29.096 260.992 29.096 260.944 29.336 260.968C30.344 261.04 31.328 261.088 32.12 261.088C32.888 261.088 33.56 261.064 34.808 260.968C34.976 260.968 35.024 261.016 35.024 261.16C34.904 262.48 34.928 263.176 34.928 263.68C34.928 264.112 34.952 265.192 35.048 266.272V266.32C35.048 266.44 35.024 266.464 34.808 266.488C34.616 266.512 34.16 266.536 33.968 266.512C33.8 266.488 33.776 266.488 33.776 266.344C33.776 266.248 33.8 266.176 33.8 266.08C33.272 266.056 32.384 266.056 32.024 266.056C31.688 266.056 30.848 266.056 30.344 266.08V268.408C31.376 268.216 32.408 268 33.224 267.808C32.888 267.496 32.576 267.256 32.384 267.088C32.312 267.04 32.288 266.992 32.384 266.92L33.056 266.488C33.152 266.44 33.176 266.44 33.272 266.488C33.872 266.872 35.36 268.192 35.96 269.104C36.008 269.176 36.008 269.224 35.912 269.32C35.768 269.44 35.384 269.704 35.144 269.872C35.072 269.896 35 269.92 34.952 269.848C34.712 269.416 34.4 269.008 34.088 268.648C32.984 268.912 29.432 269.728 28.016 270.016C27.776 270.064 27.656 270.28 27.512 270.28ZM21.152 266.752C21.152 266.704 21.224 266.704 21.344 266.68C21.968 266.632 22.712 266.56 23.504 266.44C23.816 266.056 24.152 265.672 24.488 265.24C23.672 264.616 22.52 263.968 21.8 263.632C21.704 263.584 21.68 263.56 21.728 263.464C21.824 263.32 22.112 262.96 22.256 262.864C22.328 262.816 22.352 262.816 22.448 262.84C22.664 262.936 22.952 263.08 23.264 263.248C23.864 262.288 24.32 261.232 24.512 260.512C24.512 260.44 24.512 260.368 24.608 260.368C24.848 260.368 25.472 260.608 25.808 260.776C25.976 260.848 26.048 260.92 26.048 260.992C26.048 261.088 25.904 261.16 25.736 261.28C25.592 261.376 25.472 261.52 25.424 261.64C25.088 262.216 24.608 263.008 24.128 263.752C24.488 263.968 24.848 264.184 25.136 264.4C25.856 263.416 26.432 262.528 26.624 262C26.672 261.928 26.672 261.856 26.792 261.904C27.056 261.952 27.584 262.24 27.872 262.432C28.016 262.528 28.088 262.6 28.088 262.648C28.088 262.744 27.92 262.816 27.752 262.888C27.56 262.984 27.512 263.056 27.392 263.2C26.792 263.968 25.856 265.144 24.944 266.2C25.736 266.08 26.456 265.936 27.008 265.816C27.176 265.504 27.32 265.192 27.392 264.904C27.416 264.784 27.44 264.76 27.584 264.808C27.776 264.88 28.256 265.12 28.568 265.36C28.688 265.456 28.76 265.528 28.76 265.6C28.76 265.72 28.616 265.792 28.448 265.84C28.28 265.864 28.16 265.984 28.016 266.248C27.392 267.52 25.496 270.112 22.712 271.048C22.616 271.096 22.52 271.12 22.448 271.024C22.208 270.688 21.752 270.52 21.464 270.376C21.224 270.256 21.32 270.232 21.488 270.184C23.552 269.656 25.28 268.24 26.36 266.848C25.064 267.112 23.048 267.568 22.424 267.712C22.232 267.784 22.088 267.952 21.944 267.952C21.896 267.952 21.824 267.928 21.752 267.832C21.608 267.664 21.296 267.184 21.176 266.824C21.176 266.8 21.152 266.776 21.152 266.752ZM22.088 275.008C22.064 274.768 22.064 274.288 22.088 274.072C22.112 273.904 22.112 273.904 22.304 273.904C25.136 274 27.224 274.048 29.048 274.048C28.544 273.496 28.016 273.04 27.776 272.872C27.704 272.8 27.656 272.752 27.776 272.656C27.92 272.584 28.448 272.344 28.592 272.296C28.64 272.272 28.688 272.224 28.832 272.344C29.264 272.68 30.128 273.352 30.632 274.048H33.224C33.728 273.448 34.136 272.704 34.28 272.272C34.304 272.176 34.328 272.176 34.496 272.224C34.664 272.272 35.576 272.512 35.84 272.704C35.936 272.752 35.96 272.824 35.96 272.848C35.96 272.944 35.84 273.016 35.648 273.088C35.408 273.208 35.288 273.28 35.12 273.472C34.976 273.664 34.808 273.856 34.64 274.048C36.608 274.048 38.84 274 41.72 273.904C41.888 273.904 41.912 273.952 41.912 274.072C41.936 274.192 41.96 274.384 41.96 274.552C41.96 274.744 41.936 274.912 41.912 275.032C41.912 275.128 41.864 275.176 41.744 275.152C37.496 275.032 34.472 275.008 31.976 275.008C29.36 275.008 26.552 275.008 22.304 275.152H22.232C22.136 275.152 22.088 275.104 22.088 275.008ZM24.152 272.128C24.128 271.912 24.128 271.384 24.152 271.192C24.176 271.048 24.176 271.048 24.344 271.048C28.04 271.192 29.432 271.192 31.208 271.192C31.232 270.712 31.208 270.136 31.064 269.728V269.68C31.064 269.608 31.112 269.56 31.208 269.56C31.52 269.56 32.24 269.68 32.792 269.8C32.96 269.824 33.008 269.872 33.008 269.944C33.008 270.04 32.816 270.208 32.72 270.4C32.648 270.568 32.6 270.88 32.576 271.192C34.376 271.192 35.768 271.168 39.416 271.048C39.56 271.048 39.584 271.072 39.584 271.192C39.608 271.408 39.608 271.936 39.584 272.152C39.584 272.248 39.584 272.272 39.464 272.272C35.576 272.152 33.944 272.152 31.928 272.152C29.768 272.152 28.352 272.152 24.344 272.272C24.2 272.272 24.176 272.248 24.152 272.128ZM26.456 281.392C26.6 280.168 26.6 279.4 26.624 278.728C26.624 277.768 26.6 277.144 26.528 276.232C26.528 276.184 26.504 276.136 26.504 276.112C26.504 276.016 26.552 275.992 26.792 276.016C28.28 276.112 30.536 276.112 31.928 276.112C33.368 276.112 35.48 276.088 37.088 276.016H37.16C37.304 276.016 37.352 276.088 37.352 276.208C37.256 277.36 37.256 278.104 37.256 278.752C37.256 279.352 37.256 279.976 37.376 281.296C37.376 281.488 37.376 281.512 37.088 281.56C36.848 281.584 36.368 281.584 36.152 281.56C35.96 281.56 35.816 281.56 35.816 281.368C35.84 281.224 35.84 281.08 35.84 280.96C34.976 280.936 32.84 280.912 31.88 280.912C30.872 280.912 28.808 280.936 27.968 280.96C27.968 281.104 27.992 281.248 27.992 281.392C27.992 281.584 27.944 281.608 27.728 281.608C27.392 281.632 27.008 281.632 26.72 281.608C26.504 281.608 26.432 281.584 26.456 281.392ZM27.944 280L31.856 280.024L35.888 280C35.912 279.568 35.912 279.208 35.912 278.944C35.096 278.92 32.864 278.896 31.88 278.896C30.848 278.896 28.76 278.92 27.944 278.944V280ZM27.944 278.032C28.784 278.056 30.896 278.056 31.856 278.056L35.912 278.032C35.912 277.504 35.888 277.024 35.888 277.024L31.88 277C30.704 277 27.968 277.024 27.968 277.024C27.968 277.024 27.968 277.504 27.944 278.032ZM30.344 265.192C30.872 265.216 31.736 265.216 32.024 265.216C32.36 265.216 33.296 265.216 33.824 265.192V263.968C33.32 263.944 32.432 263.944 32.072 263.944C31.736 263.944 30.848 263.944 30.344 263.968V265.192ZM30.344 263.104C30.872 263.104 31.76 263.128 32.072 263.128L33.824 263.104C33.824 262.552 33.8 261.904 33.8 261.904C33.8 261.904 32.624 261.88 32.096 261.88C31.544 261.904 30.368 261.904 30.368 261.904C30.368 261.904 30.344 262.456 30.344 263.104ZM36.248 270.28C36.416 268.528 36.464 266.488 36.464 265.456V263.896C36.464 262.96 36.44 261.856 36.32 261.088C36.296 260.992 36.32 260.92 36.464 260.944C37.28 261.016 38.312 261.064 39.056 261.064C39.824 261.064 40.496 261.04 40.88 261.016C41.024 261.016 41.168 260.824 41.288 260.872C41.432 260.944 42.032 261.328 42.152 261.472C42.2 261.52 42.248 261.568 42.248 261.64C42.248 261.688 42.2 261.76 42.08 261.832C41.984 261.856 41.888 261.904 41.84 261.976C41.456 262.648 40.808 263.872 40.424 264.544C40.4 264.592 40.376 264.64 40.376 264.688C40.376 264.736 40.424 264.808 40.52 264.88C41.84 265.84 42.344 266.8 42.344 267.64C42.344 268.984 41.024 269.992 39.512 269.992C39.272 269.992 39.032 269.968 38.792 269.92C38.72 269.92 38.648 269.896 38.624 269.824C38.576 269.512 38.192 269.056 38.048 268.816C38 268.744 37.976 268.672 38.096 268.696C38.48 268.816 38.84 268.864 39.176 268.864C40.256 268.864 41.072 268.336 41.072 267.544C41.072 266.944 40.616 266.224 39.536 265.456C39.32 265.288 39.224 265.12 39.224 264.952C39.224 264.856 39.272 264.736 39.32 264.592C39.632 264.016 40.232 262.672 40.496 262.024H37.76C37.688 262.504 37.688 264.112 37.688 265.456C37.688 266.8 37.76 268.504 37.832 270.304C37.832 270.376 37.784 270.496 37.688 270.496C37.4 270.52 36.632 270.52 36.392 270.496C36.272 270.472 36.224 270.352 36.248 270.28ZM57.416 280.48C56.384 280.48 55.208 280.36 54.056 280C51.848 279.352 50.624 277.864 50.624 276.496C50.624 275.344 51.464 274.24 53.36 273.76C54.656 273.424 56.072 273.328 57.32 273.328C58.664 273.328 59.84 273.424 60.536 273.496C60.08 272.752 59.504 271.672 58.928 270.472C57.104 270.856 55.184 271.072 53.408 271.072C52.424 271.072 51.464 271 50.624 270.856C50.528 270.832 50.456 270.736 50.408 270.616C50.336 270.4 50.312 269.68 50.336 269.44C50.336 269.296 50.384 269.272 50.576 269.32C51.512 269.56 52.568 269.656 53.672 269.656C55.184 269.656 56.768 269.464 58.304 269.152C57.968 268.408 57.632 267.64 57.32 266.872C56.216 267.088 55.088 267.208 53.96 267.208C53.024 267.208 52.088 267.112 51.2 266.92C51.08 266.896 51.008 266.8 50.984 266.704C50.936 266.488 50.936 265.768 50.96 265.528C50.96 265.408 51.008 265.384 51.176 265.432C52.16 265.72 53.168 265.84 54.2 265.84C55.088 265.84 55.976 265.744 56.816 265.576C56.408 264.472 56.072 263.416 55.88 262.456C55.832 262.288 55.784 262.24 55.952 262.192C56.336 262.096 56.816 262.072 57.296 262.072C57.632 262.072 57.728 262.144 57.728 262.288C57.728 262.456 57.584 262.72 57.608 263.032C57.704 263.704 57.896 264.472 58.136 265.264C59.048 265 59.912 264.664 60.704 264.28C60.728 264.256 60.752 264.256 60.8 264.256C60.872 264.256 60.92 264.304 60.968 264.4C61.088 264.568 61.448 265 61.544 265.312V265.384C61.544 265.432 61.52 265.528 61.424 265.552C60.584 265.936 59.624 266.296 58.592 266.56C58.88 267.328 59.192 268.096 59.552 268.864C60.872 268.504 62.072 268.072 63.056 267.568C63.104 267.544 63.152 267.544 63.176 267.544C63.248 267.544 63.296 267.592 63.368 267.664C63.512 267.856 63.896 268.312 63.992 268.624C64.016 268.648 64.016 268.672 64.016 268.696C64.016 268.744 63.968 268.84 63.872 268.888C62.816 269.368 61.544 269.8 60.2 270.16C61.184 272.08 62.288 273.832 63.176 274.96C63.248 275.032 63.248 275.104 63.152 275.176C62.864 275.344 62.36 275.56 62.024 275.632C62 275.632 61.976 275.656 61.952 275.656C61.856 275.656 61.784 275.584 61.712 275.536C61.424 275.32 61.208 275.128 60.128 274.912C59.36 274.768 58.28 274.648 57.128 274.648C56.096 274.648 55.016 274.744 54.08 274.984C52.832 275.296 52.256 275.92 52.256 276.592C52.256 277.384 53.072 278.248 54.464 278.608C55.352 278.848 56.288 278.944 57.224 278.944C58.448 278.944 59.672 278.776 60.752 278.512C60.8 278.488 60.848 278.488 60.872 278.488C60.968 278.488 60.968 278.536 60.92 278.68C60.8 279.016 60.68 279.448 60.584 279.832C60.536 280.048 60.464 280.12 60.152 280.216C59.576 280.336 58.592 280.48 57.416 280.48ZM82.016 279.568C81.824 279.568 81.632 279.52 81.488 279.304C81.272 278.944 80.96 278.704 80.696 278.464C80.6 278.368 80.552 278.32 80.552 278.272C80.552 278.2 80.648 278.176 80.792 278.176C86.096 278.272 89.384 275.296 89.384 272.104C89.384 270.928 88.952 269.728 88.016 268.648C87.08 267.544 85.616 266.824 84.032 266.56C84.008 266.56 84.008 266.56 84.008 266.584H83.912C83.768 266.584 83.672 266.632 83.6 266.824C83.048 268.336 80.384 274.384 78.08 277.696C77.768 278.152 77.408 278.32 77.024 278.32C76.76 278.32 76.496 278.248 76.232 278.104C74.552 277.24 73.616 275.392 73.616 273.304C73.616 271.072 74.72 268.576 77.168 266.824C78.704 265.744 80.72 265.192 82.736 265.192C85.184 265.192 87.632 266.008 89.216 267.688C90.416 268.984 90.992 270.544 90.992 272.128C90.992 275.656 88.016 279.208 82.136 279.568H82.016ZM75.128 273.184C75.128 274.504 75.632 275.656 76.496 276.304C76.616 276.376 76.712 276.424 76.808 276.424C76.928 276.424 77.048 276.352 77.144 276.232C78.992 273.664 81.392 268.24 81.968 266.488C80.576 266.608 79.208 267.088 78.008 267.952C75.992 269.44 75.128 271.456 75.128 273.184ZM101.24 281.104C101.096 281.08 101.048 281.032 101.048 280.888C101.288 276.808 101.288 273.04 101.288 269.8V268.912C100.16 268.936 98.912 268.984 97.376 269.032C97.232 269.032 97.136 269.008 97.136 268.864C97.112 268.6 97.112 267.904 97.136 267.64C97.136 267.472 97.184 267.448 97.376 267.448C98.936 267.52 100.184 267.544 101.288 267.568V266.44C101.288 265 101.264 263.56 101.12 262.504V262.432C101.12 262.336 101.168 262.312 101.288 262.312C101.648 262.36 102.512 262.432 103.04 262.6C103.184 262.648 103.232 262.72 103.232 262.816C103.232 262.984 103.112 263.176 103.016 263.392C102.92 263.56 102.8 263.776 102.776 264.496C102.752 265.216 102.752 266.44 102.728 267.616H106.616V267.496C106.616 266.656 106.64 265.84 106.64 265.024C106.64 263.8 106.592 262.624 106.424 261.472V261.424C106.424 261.304 106.496 261.304 106.616 261.328C106.904 261.352 107.768 261.448 108.296 261.616C108.44 261.664 108.488 261.736 108.488 261.808C108.488 261.952 108.392 262.144 108.296 262.336C108.152 262.648 108.08 262.864 108.056 263.608C108.032 264.496 108.008 266.296 107.984 267.496V267.616H111.8V267.496C111.8 266.608 111.824 265.768 111.824 264.952C111.824 263.824 111.776 262.72 111.632 261.616V261.568C111.632 261.496 111.656 261.448 111.728 261.448C112.04 261.448 112.856 261.568 113.432 261.76C113.6 261.808 113.672 261.88 113.672 262C113.672 262.12 113.552 262.288 113.456 262.528C113.36 262.744 113.264 263.032 113.24 263.728C113.216 264.664 113.168 266.296 113.168 267.496V267.592C114.56 267.568 116.072 267.52 117.92 267.448C118.088 267.448 118.112 267.496 118.112 267.64C118.136 267.928 118.136 268.6 118.112 268.888C118.112 268.984 118.04 269.032 117.92 269.032C116.12 268.96 114.584 268.936 113.168 268.912C113.192 271.36 113.264 273.472 113.336 275.824C113.336 275.944 113.288 275.992 113.168 275.992C113 276.016 112.76 276.016 112.52 276.016C112.304 276.016 112.064 276.016 111.92 275.992C111.776 275.992 111.704 275.944 111.728 275.824C111.728 275.488 111.752 275.2 111.752 274.888C111.2 274.888 110.528 274.864 110.024 274.864L108.08 274.888C108.08 275.248 108.104 275.608 108.104 275.968C108.104 276.088 108.056 276.136 107.936 276.136C107.768 276.16 107.528 276.16 107.288 276.16C107.048 276.16 106.808 276.16 106.664 276.136C106.52 276.136 106.472 276.088 106.472 275.968C106.592 272.824 106.616 271.144 106.616 268.864C105.176 268.864 103.976 268.864 102.728 268.888V272.032C102.728 274.168 102.752 276.616 102.776 278.704C104.24 278.752 105.056 278.776 106.688 278.776C110.024 278.776 111.968 278.776 116.336 278.584C116.504 278.584 116.528 278.656 116.528 278.8C116.552 279.088 116.552 279.808 116.528 280.072C116.528 280.192 116.456 280.24 116.336 280.24C112.04 280.072 109.928 280.072 106.688 280.072C104.792 280.072 104.168 280.096 102.824 280.12C102.824 280.408 102.848 280.672 102.848 280.912C102.848 281.032 102.8 281.08 102.68 281.104C102.344 281.128 101.528 281.128 101.24 281.104ZM107.984 268.864L108.056 273.712C108.632 273.736 109.448 273.736 110.024 273.736C110.528 273.736 111.224 273.736 111.776 273.712C111.8 272.776 111.8 271.984 111.8 271.216V268.888C110.528 268.864 109.304 268.864 107.984 268.864ZM124.256 281.584C124.136 281.632 124.064 281.608 123.992 281.512C123.656 280.96 123.056 280.624 122.744 280.384C122.624 280.264 122.672 280.216 122.792 280.192C127.592 279.64 129.272 277 129.32 274.384C129.32 273.928 129.32 273.352 129.248 272.8C127.472 273.928 125.36 275.032 123.464 275.632C123.32 275.68 123.176 275.752 123.104 275.632C122.816 275.224 122.12 274.816 121.832 274.624C121.664 274.528 121.64 274.432 121.856 274.384C125.864 273.472 129.488 271.432 131.336 269.656L131.744 269.248C130.184 269.248 128.216 269.272 127.232 269.272C127.232 269.536 127.232 269.776 127.256 270.04C127.256 270.184 127.208 270.208 127.04 270.208C126.704 270.232 126.152 270.232 125.864 270.208C125.72 270.208 125.648 270.136 125.648 270.04C125.816 268.384 125.84 267.064 125.84 265.648C125.84 264.16 125.816 263.2 125.72 261.496V261.472C125.72 261.376 125.792 261.304 125.936 261.328C127.808 261.4 130.808 261.424 132.68 261.424C134.744 261.424 137.36 261.4 139.256 261.304H139.304C139.472 261.304 139.52 261.424 139.52 261.496C139.424 263.128 139.4 264.328 139.4 265.624C139.4 266.848 139.472 268.096 139.592 269.8V269.824C139.592 269.92 139.496 270.016 139.376 270.016C139.016 270.04 138.512 270.04 138.224 270.016C138.08 269.992 137.984 269.944 137.984 269.8C138.008 269.632 138.008 269.464 138.008 269.296C137.168 269.272 135.32 269.248 133.76 269.248C133.856 269.32 133.88 269.392 133.88 269.44C133.88 269.512 133.784 269.56 133.616 269.584C136.184 271.384 139.112 272.968 143.696 273.784C143.864 273.832 143.912 273.904 143.744 274.048C143.432 274.312 142.976 274.672 142.664 275.128C142.568 275.248 142.472 275.272 142.352 275.224C138.656 274.216 135.296 272.248 132.608 270.256L132.536 270.328C131.912 270.952 130.904 271.696 129.752 272.464C130.112 272.512 130.592 272.584 131 272.68C131.12 272.728 131.168 272.776 131.168 272.848C131.168 272.968 131.072 273.136 130.976 273.304C130.808 273.616 130.76 273.736 130.736 274.48C130.688 277.696 128.816 280.552 124.256 281.584ZM127.136 265.912C127.16 266.416 127.184 267.208 127.208 268.12C128.216 268.144 130.28 268.168 131.864 268.168C131.888 267.568 131.888 266.632 131.888 265.864C130.256 265.888 128.12 265.888 127.136 265.912ZM127.136 264.736C128.144 264.76 130.28 264.784 131.888 264.784C131.888 263.944 131.864 263.056 131.864 262.552C129.92 262.552 127.184 262.576 127.184 262.576L127.136 264.736ZM133.232 265.864C133.232 266.632 133.256 267.544 133.256 268.168C134.936 268.168 137.168 268.12 138.056 268.12C138.08 267.256 138.104 266.416 138.104 265.912C137.216 265.888 134.936 265.888 133.232 265.864ZM133.232 264.784C134.912 264.784 137.216 264.76 138.104 264.736L138.056 262.576C138.056 262.576 135.488 262.552 133.568 262.552C133.568 262.6 133.52 262.696 133.4 262.768C133.28 262.888 133.256 263.008 133.256 263.176C133.232 263.608 133.232 264.208 133.232 264.784ZM134.504 272.608V272.512C134.504 272.44 134.528 272.44 134.672 272.44C135.032 272.488 135.752 272.56 136.304 272.728C136.472 272.776 136.544 272.824 136.544 272.896C136.544 272.992 136.448 273.112 136.328 273.256C136.16 273.472 136.136 274.24 136.136 275.176V276.328C136.136 277.864 136.208 279.328 136.304 281.128C136.304 281.248 136.232 281.272 136.136 281.296C135.776 281.32 135.104 281.32 134.816 281.296C134.648 281.272 134.6 281.248 134.624 281.128C134.696 279.808 134.696 278.776 134.696 277.792V276.328C134.696 275.128 134.72 273.568 134.504 272.608ZM167.216 277.408C167.144 277.408 167.096 277.408 167 277.36C163.352 275.872 157.328 270.928 155.936 270.04C155.552 269.8 155.216 269.632 154.856 269.632C154.544 269.632 154.232 269.776 153.896 270.064C153.08 270.808 151.232 272.728 150.8 273.256C150.512 273.616 150.464 274.024 150.152 274.024C150.08 274.024 149.96 273.976 149.792 273.88C149.408 273.64 148.88 273.232 148.64 272.968C148.52 272.848 148.544 272.776 148.664 272.704C150.464 271.456 151.664 270.016 153.056 268.768C153.608 268.264 154.208 268.048 154.784 268.048C155.456 268.048 156.128 268.336 156.752 268.744C158.384 269.848 164.144 274.408 168.104 275.824C168.248 275.872 168.32 275.92 168.32 275.992C168.32 276.064 168.272 276.136 168.2 276.256C168.008 276.544 167.648 277.024 167.408 277.312C167.336 277.384 167.288 277.408 167.216 277.408Z" fill="white"/>
</svg>
