<svg width="215" height="127" viewBox="0 0 215 127" fill="none" xmlns="http://www.w3.org/2000/svg">
<path d="M2.71875 48.5625C2.71875 40.875 4.51042 34.7396 8.09375 30.1562C11.3021 26.0104 15.1875 23.9375 19.75 23.9375C24.3125 23.9375 28.1979 26.0104 31.4062 30.1562C34.9896 34.7396 36.7812 40.9792 36.7812 48.875C36.7812 56.75 34.9896 62.9792 31.4062 67.5625C28.1979 71.7083 24.3229 73.7812 19.7812 73.7812C15.2396 73.7812 11.3438 71.7083 8.09375 67.5625C4.51042 62.9792 2.71875 56.6458 2.71875 48.5625ZM9.875 48.5938C9.875 53.9479 10.8021 58.3958 12.6562 61.9375C14.5104 65.4167 16.875 67.1562 19.75 67.1562C22.6042 67.1562 24.9688 65.4167 26.8438 61.9375C28.7188 58.4792 29.6562 54.1146 29.6562 48.8438C29.6562 43.5729 28.7188 39.1979 26.8438 35.7188C24.9688 32.2604 22.6042 30.5312 19.75 30.5312C16.9167 30.5312 14.5625 32.2604 12.6875 35.7188C10.8125 39.1562 9.875 43.4479 9.875 48.5938ZM58.3063 31.5625H49.9625L53.9625 24.75H65.5875V73H58.3063V31.5625Z" fill="#282828"/>
<path d="M0.8 104.42V102.86H5.64V104.42H0.8ZM7.36531 112.8C7.04531 112.8 6.76531 112.773 6.52531 112.72C6.28531 112.68 6.07198 112.62 5.88531 112.54V111.02C6.09865 111.073 6.32531 111.12 6.56531 111.16C6.80531 111.2 7.05865 111.22 7.32531 111.22C7.65865 111.22 7.97198 111.153 8.26531 111.02C8.57198 110.887 8.81865 110.653 9.00531 110.32C9.19198 109.987 9.28531 109.52 9.28531 108.92V94.72H11.0853V108.78C11.0853 109.7 10.932 110.453 10.6253 111.04C10.3186 111.64 9.88531 112.08 9.32531 112.36C8.76531 112.653 8.11198 112.8 7.36531 112.8ZM23.8341 109H15.8541V94.72H23.8341V96.3H17.6541V100.76H23.4741V102.32H17.6541V107.42H23.8341V109ZM27.9673 109V94.72H29.7673V107.4H36.0073V109H27.9673ZM39.4556 109V94.72H41.2556V107.4H47.4956V109H39.4556ZM54.0584 101.74L57.7784 94.72H59.7184L54.9584 103.46V109H53.1584V103.54L48.3984 94.72H50.3584L54.0584 101.74ZM64.4666 109H62.6666V94.72H70.6466V96.3H64.4666V101.36H70.2666V102.94H64.4666V109ZM78.0577 109H72.8977V107.96L74.5777 107.58V96.16L72.8977 95.76V94.72H78.0577V95.76L76.3777 96.16V107.58L78.0577 107.96V109ZM89.915 105.18C89.915 106.033 89.7083 106.76 89.295 107.36C88.8817 107.947 88.2883 108.4 87.515 108.72C86.755 109.04 85.855 109.2 84.815 109.2C84.2817 109.2 83.7683 109.173 83.275 109.12C82.795 109.067 82.355 108.993 81.955 108.9C81.555 108.793 81.2017 108.667 80.895 108.52V106.8C81.375 107.013 81.9683 107.207 82.675 107.38C83.395 107.553 84.135 107.64 84.895 107.64C85.6017 107.64 86.195 107.547 86.675 107.36C87.155 107.173 87.515 106.907 87.755 106.56C87.995 106.213 88.115 105.807 88.115 105.34C88.115 104.873 88.015 104.48 87.815 104.16C87.615 103.84 87.2683 103.547 86.775 103.28C86.295 103 85.6217 102.707 84.755 102.4C84.1417 102.173 83.6017 101.933 83.135 101.68C82.6817 101.413 82.3017 101.113 81.995 100.78C81.6883 100.447 81.455 100.067 81.295 99.64C81.1483 99.2133 81.075 98.72 81.075 98.16C81.075 97.4 81.2683 96.7533 81.655 96.22C82.0417 95.6733 82.575 95.2533 83.255 94.96C83.9483 94.6667 84.7417 94.52 85.635 94.52C86.4217 94.52 87.1417 94.5933 87.795 94.74C88.4483 94.8867 89.0417 95.08 89.575 95.32L89.015 96.86C88.5217 96.6467 87.9817 96.4667 87.395 96.32C86.8217 96.1733 86.2217 96.1 85.595 96.1C84.995 96.1 84.495 96.1867 84.095 96.36C83.695 96.5333 83.395 96.78 83.195 97.1C82.995 97.4067 82.895 97.7667 82.895 98.18C82.895 98.66 82.995 99.06 83.195 99.38C83.395 99.7 83.7217 99.9867 84.175 100.24C84.6283 100.493 85.2417 100.767 86.015 101.06C86.855 101.367 87.5617 101.7 88.135 102.06C88.7217 102.407 89.1617 102.827 89.455 103.32C89.7617 103.813 89.915 104.433 89.915 105.18ZM104.712 109H102.912V102.34H95.5916V109H93.7916V94.72H95.5916V100.76H102.912V94.72H104.712V109Z" fill="#282828"/>
</svg>
