<svg width="215" height="127" viewBox="0 0 215 127" fill="none" xmlns="http://www.w3.org/2000/svg">
<path d="M2.71875 48.5625C2.71875 40.875 4.51042 34.7396 8.09375 30.1562C11.3021 26.0104 15.1875 23.9375 19.75 23.9375C24.3125 23.9375 28.1979 26.0104 31.4062 30.1562C34.9896 34.7396 36.7812 40.9792 36.7812 48.875C36.7812 56.75 34.9896 62.9792 31.4062 67.5625C28.1979 71.7083 24.3229 73.7812 19.7812 73.7812C15.2396 73.7812 11.3438 71.7083 8.09375 67.5625C4.51042 62.9792 2.71875 56.6458 2.71875 48.5625ZM9.875 48.5938C9.875 53.9479 10.8021 58.3958 12.6562 61.9375C14.5104 65.4167 16.875 67.1562 19.75 67.1562C22.6042 67.1562 24.9688 65.4167 26.8438 61.9375C28.7188 58.4792 29.6562 54.1146 29.6562 48.8438C29.6562 43.5729 28.7188 39.1979 26.8438 35.7188C24.9688 32.2604 22.6042 30.5312 19.75 30.5312C16.9167 30.5312 14.5625 32.2604 12.6875 35.7188C10.8125 39.1562 9.875 43.4479 9.875 48.5938ZM61.9313 66.1562H79.9V73H47.4938L64.2438 52.7188C65.8896 50.6979 67.2646 48.9479 68.3688 47.4688C69.4938 45.9896 70.3479 44.75 70.9313 43.75C72.1188 41.7917 72.7125 40.0312 72.7125 38.4688C72.7125 36.2188 71.9208 34.3333 70.3375 32.8125C68.7542 31.2917 66.7958 30.5312 64.4625 30.5312C59.5875 30.5312 56.7958 33.4167 56.0875 39.1875H48.8375C50.0042 29.0208 55.1396 23.9375 64.2438 23.9375C68.6396 23.9375 72.3271 25.3333 75.3063 28.125C78.3063 30.9167 79.8063 34.375 79.8063 38.5C79.8063 41.125 79.1083 43.6979 77.7125 46.2188C77.0042 47.5312 75.9625 49.0938 74.5875 50.9062C73.2333 52.6979 71.5146 54.8229 69.4313 57.2812L61.9313 66.1562Z" fill="#282828"/>
<path d="M0.8 104.42V102.86H5.64V104.42H0.8ZM13.1653 94.72C15.032 94.72 16.392 95.0867 17.2453 95.82C18.0986 96.5533 18.5253 97.5867 18.5253 98.92C18.5253 99.5067 18.4253 100.073 18.2253 100.62C18.0386 101.153 17.7253 101.633 17.2853 102.06C16.8453 102.487 16.2586 102.827 15.5253 103.08C14.792 103.32 13.892 103.44 12.8253 103.44H11.1853V109H9.38531V94.72H13.1653ZM13.0053 96.26H11.1853V101.9H12.6253C13.532 101.9 14.2853 101.807 14.8853 101.62C15.4853 101.42 15.932 101.107 16.2253 100.68C16.5186 100.253 16.6653 99.6933 16.6653 99C16.6653 98.08 16.372 97.3933 15.7853 96.94C15.1986 96.4867 14.272 96.26 13.0053 96.26ZM30.4747 109H22.4947V94.72H30.4747V96.3H24.2947V100.76H30.1147V102.32H24.2947V107.42H30.4747V109ZM45.928 109H43.828L36.188 97.14H36.108C36.1213 97.38 36.1346 97.6467 36.148 97.94C36.1746 98.2333 36.1946 98.5533 36.208 98.9C36.2213 99.2333 36.2346 99.58 36.248 99.94C36.2613 100.3 36.268 100.66 36.268 101.02V109H34.608V94.72H36.688L44.308 106.54H44.388C44.3746 106.38 44.3613 106.16 44.348 105.88C44.3346 105.587 44.3213 105.267 44.308 104.92C44.2946 104.56 44.2813 104.193 44.268 103.82C44.2546 103.447 44.248 103.1 44.248 102.78V94.72H45.928V109ZM57.0033 101.46H61.9433V108.46C61.1699 108.713 60.3899 108.9 59.6033 109.02C58.8166 109.14 57.9233 109.2 56.9233 109.2C55.4433 109.2 54.1966 108.907 53.1833 108.32C52.1699 107.72 51.3966 106.873 50.8633 105.78C50.3433 104.673 50.0833 103.367 50.0833 101.86C50.0833 100.367 50.3766 99.0733 50.9633 97.98C51.5499 96.8867 52.3899 96.04 53.4833 95.44C54.5899 94.8267 55.9233 94.52 57.4833 94.52C58.2833 94.52 59.0366 94.5933 59.7433 94.74C60.4633 94.8867 61.1299 95.0933 61.7433 95.36L61.0633 96.92C60.5566 96.6933 59.9833 96.5 59.3433 96.34C58.7166 96.18 58.0633 96.1 57.3833 96.1C56.2499 96.1 55.2766 96.3333 54.4633 96.8C53.6499 97.2667 53.0299 97.9333 52.6033 98.8C52.1766 99.6533 51.9633 100.673 51.9633 101.86C51.9633 102.993 52.1433 104 52.5033 104.88C52.8766 105.747 53.4566 106.427 54.2433 106.92C55.0299 107.4 56.0633 107.64 57.3433 107.64C57.7699 107.64 58.1433 107.627 58.4633 107.6C58.7966 107.56 59.0966 107.513 59.3633 107.46C59.6433 107.407 59.9033 107.353 60.1433 107.3V103.06H57.0033V101.46ZM77.2141 103.96C77.2141 104.947 77.0141 105.84 76.6141 106.64C76.2141 107.427 75.6007 108.053 74.7741 108.52C73.9607 108.973 72.9207 109.2 71.6541 109.2C69.8807 109.2 68.5274 108.72 67.5941 107.76C66.6741 106.787 66.2141 105.507 66.2141 103.92V94.72H68.0141V103.98C68.0141 105.14 68.3207 106.04 68.9341 106.68C69.5607 107.32 70.5007 107.64 71.7541 107.64C72.6207 107.64 73.3207 107.487 73.8541 107.18C74.4007 106.86 74.8007 106.427 75.0541 105.88C75.3074 105.32 75.4341 104.68 75.4341 103.96V94.72H77.2141V103.96ZM86.003 109H80.843V107.96L82.523 107.58V96.16L80.843 95.76V94.72H86.003V95.76L84.323 96.16V107.58L86.003 107.96V109ZM101.08 109H98.9803L91.3403 97.14H91.2603C91.2736 97.38 91.287 97.6467 91.3003 97.94C91.327 98.2333 91.347 98.5533 91.3603 98.9C91.3736 99.2333 91.387 99.58 91.4003 99.94C91.4136 100.3 91.4203 100.66 91.4203 101.02V109H89.7603V94.72H91.8403L99.4603 106.54H99.5403C99.527 106.38 99.5136 106.16 99.5003 105.88C99.487 105.587 99.4736 105.267 99.4603 104.92C99.447 104.56 99.4336 104.193 99.4203 103.82C99.407 103.447 99.4003 103.1 99.4003 102.78V94.72H101.08V109Z" fill="#282828"/>
</svg>
