<svg width="100" height="100" viewBox="0 0 100 100" fill="none" xmlns="http://www.w3.org/2000/svg">
<path d="M5.03376 75.0635C5.22549 74.8718 5.22549 74.561 5.03377 74.3692C4.84204 74.1775 4.53119 74.1775 4.33946 74.3692C4.14773 74.561 4.14773 74.8718 4.33946 75.0635C4.53119 75.2553 4.84204 75.2553 5.03376 75.0635Z" fill="#025382"/>
<path d="M9.16328 79.1931C9.36059 78.9958 9.36059 78.6758 9.16328 78.4785C8.96596 78.2812 8.64606 78.2812 8.44875 78.4785C8.25144 78.6758 8.25144 78.9958 8.44875 79.1931C8.64606 79.3904 8.96597 79.3904 9.16328 79.1931Z" fill="#025382"/>
<path d="M13.2962 83.3259C13.5009 83.1212 13.5009 82.7892 13.2962 82.5844C13.0914 82.3797 12.7594 82.3797 12.5547 82.5844C12.3499 82.7892 12.3499 83.1212 12.5547 83.3259C12.7594 83.5307 13.0914 83.5307 13.2962 83.3259Z" fill="#025382"/>
<path d="M17.4156 87.4453C17.6203 87.2406 17.6203 86.9086 17.4156 86.7038C17.2108 86.4991 16.8788 86.4991 16.6741 86.7038C16.4693 86.9086 16.4693 87.2406 16.6741 87.4453C16.8788 87.6501 17.2108 87.6501 17.4156 87.4453Z" fill="#025382"/>
<path d="M21.5215 91.5513C21.7188 91.3539 21.7188 91.034 21.5215 90.8367C21.3242 90.6394 21.0043 90.6394 20.8069 90.8367C20.6096 91.034 20.6096 91.3539 20.8069 91.5513C21.0043 91.7486 21.3242 91.7486 21.5215 91.5513Z" fill="#025382"/>
<path d="M25.6308 95.6605C25.8225 95.4688 25.8225 95.158 25.6308 94.9662C25.439 94.7745 25.1282 94.7745 24.9365 94.9662C24.7447 95.158 24.7447 95.4688 24.9365 95.6605C25.1282 95.8523 25.439 95.8523 25.6308 95.6605Z" fill="#025382"/>
<path d="M0.948071 62.7391C1.15841 62.5287 1.15841 62.1877 0.94807 61.9773C0.737728 61.767 0.396697 61.767 0.186356 61.9773C-0.023986 62.1877 -0.023986 62.5287 0.186356 62.7391C0.396697 62.9494 0.737729 62.9494 0.948071 62.7391Z" fill="#025382"/>
<path d="M5.08769 66.8787C5.3092 66.6572 5.3092 66.298 5.08769 66.0765C4.86618 65.855 4.50704 65.855 4.28553 66.0765C4.06402 66.298 4.06402 66.6572 4.28553 66.8787C4.50704 67.1002 4.86618 67.1002 5.08769 66.8787Z" fill="#025382"/>
<path d="M9.23069 71.0217C9.46523 70.7871 9.46522 70.4069 9.23068 70.1723C8.99614 69.9378 8.61588 69.9378 8.38134 70.1723C8.1468 70.4069 8.1468 70.7871 8.38134 71.0217C8.61588 71.2562 8.99615 71.2562 9.23069 71.0217Z" fill="#025382"/>
<path d="M13.3737 75.1647C13.6212 74.9171 13.6212 74.5157 13.3737 74.2681C13.1261 74.0206 12.7247 74.0206 12.4771 74.2681C12.2296 74.5157 12.2296 74.9171 12.4771 75.1647C12.7247 75.4122 13.1261 75.4122 13.3737 75.1647Z" fill="#025382"/>
<path d="M17.5133 79.3043C17.772 79.0455 17.772 78.626 17.5133 78.3673C17.2546 78.1086 16.8351 78.1086 16.5763 78.3673C16.3176 78.626 16.3176 79.0455 16.5763 79.3043C16.8351 79.563 17.2546 79.563 17.5133 79.3043Z" fill="#025382"/>
<path d="M21.6327 83.4237C21.8914 83.1649 21.8914 82.7454 21.6327 82.4867C21.374 82.228 20.9545 82.228 20.6957 82.4867C20.437 82.7454 20.437 83.1649 20.6957 83.4237C20.9545 83.6824 21.374 83.6824 21.6327 83.4237Z" fill="#025382"/>
<path d="M25.7319 87.5229C25.9794 87.2753 25.9794 86.8739 25.7319 86.6263C25.4843 86.3788 25.0829 86.3788 24.8353 86.6263C24.5878 86.8739 24.5878 87.2753 24.8353 87.5229C25.0829 87.7704 25.4843 87.7704 25.7319 87.5229Z" fill="#025382"/>
<path d="M29.8277 91.6187C30.0622 91.3841 30.0622 91.0039 29.8277 90.7693C29.5931 90.5348 29.2129 90.5348 28.9783 90.7693C28.7438 91.0039 28.7438 91.3841 28.9783 91.6187C29.2129 91.8532 29.5931 91.8532 29.8277 91.6187Z" fill="#025382"/>
<path d="M33.9235 95.7145C34.145 95.493 34.145 95.1338 33.9235 94.9123C33.702 94.6908 33.3428 94.6908 33.1213 94.9123C32.8998 95.1338 32.8998 95.493 33.1213 95.7145C33.3428 95.936 33.702 95.936 33.9235 95.7145Z" fill="#025382"/>
<path d="M38.0227 99.8137C38.233 99.6033 38.233 99.2623 38.0227 99.0519C37.8123 98.8416 37.4713 98.8416 37.2609 99.0519C37.0506 99.2623 37.0506 99.6033 37.2609 99.8137C37.4713 100.024 37.8123 100.024 38.0227 99.8137Z" fill="#025382"/>
<path d="M0.968292 54.5205C1.1898 54.299 1.1898 53.9398 0.968293 53.7183C0.746782 53.4968 0.387643 53.4968 0.166132 53.7183C-0.0553779 53.9398 -0.0553772 54.299 0.166133 54.5205C0.387643 54.742 0.746782 54.742 0.968292 54.5205Z" fill="#025382"/>
<path d="M5.1214 58.6736C5.36152 58.4335 5.36152 58.0441 5.1214 57.804C4.88127 57.5639 4.49195 57.5639 4.25183 57.804C4.0117 58.0441 4.0117 58.4335 4.25183 58.6736C4.49195 58.9137 4.88127 58.9137 5.1214 58.6736Z" fill="#025382"/>
<path d="M9.2745 62.8267C9.53324 62.5679 9.53324 62.1484 9.2745 61.8897C9.01576 61.631 8.59626 61.631 8.33752 61.8897C8.07878 62.1484 8.07878 62.5679 8.33752 62.8267C8.59626 63.0854 9.01576 63.0854 9.2745 62.8267Z" fill="#025382"/>
<path d="M13.4276 66.9798C13.705 66.7024 13.705 66.2528 13.4276 65.9754C13.1502 65.6981 12.7006 65.6981 12.4232 65.9754C12.1459 66.2528 12.1459 66.7024 12.4232 66.9798C12.7006 67.2571 13.1503 67.2571 13.4276 66.9798Z" fill="#025382"/>
<path d="M17.5807 71.1329C17.8767 70.8369 17.8767 70.3571 17.5807 70.0611C17.2847 69.7651 16.8049 69.7651 16.5089 70.0611C16.2129 70.3571 16.2129 70.8369 16.5089 71.1329C16.8049 71.4289 17.2847 71.4289 17.5807 71.1329Z" fill="#025382"/>
<path d="M21.7338 75.286C22.0484 74.9714 22.0484 74.4614 21.7338 74.1468C21.4192 73.8322 20.9092 73.8322 20.5946 74.1468C20.28 74.4614 20.28 74.9714 20.5946 75.286C20.9092 75.6006 21.4192 75.6006 21.7338 75.286Z" fill="#025382"/>
<path d="M25.8532 79.4054C26.1678 79.0908 26.1678 78.5808 25.8532 78.2662C25.5386 77.9516 25.0286 77.9516 24.714 78.2662C24.3994 78.5808 24.3994 79.0908 24.714 79.4054C25.0286 79.72 25.5386 79.72 25.8532 79.4054Z" fill="#025382"/>
<path d="M29.9389 83.4911C30.2349 83.1951 30.2349 82.7153 29.9389 82.4193C29.6429 82.1233 29.1631 82.1233 28.8671 82.4193C28.5711 82.7153 28.5711 83.1951 28.8671 83.4911C29.1631 83.7871 29.6429 83.7871 29.9389 83.4911Z" fill="#025382"/>
<path d="M34.0246 87.5768C34.302 87.2994 34.302 86.8498 34.0246 86.5724C33.7472 86.295 33.2976 86.295 33.0202 86.5724C32.7429 86.8498 32.7429 87.2994 33.0202 87.5768C33.2976 87.8541 33.7472 87.8541 34.0246 87.5768Z" fill="#025382"/>
<path d="M38.1103 91.6625C38.369 91.4037 38.369 90.9842 38.1103 90.7255C37.8516 90.4668 37.4321 90.4668 37.1733 90.7255C36.9146 90.9842 36.9146 91.4037 37.1733 91.6625C37.4321 91.9212 37.8516 91.9212 38.1103 91.6625Z" fill="#025382"/>
<path d="M42.196 95.7482C42.4361 95.508 42.4361 95.1187 42.196 94.8786C41.9559 94.6385 41.5665 94.6385 41.3264 94.8786C41.0863 95.1187 41.0863 95.508 41.3264 95.7482C41.5665 95.9883 41.9559 95.9883 42.196 95.7482Z" fill="#025382"/>
<path d="M46.2817 99.8339C46.5032 99.6124 46.5032 99.2532 46.2817 99.0317C46.0602 98.8102 45.701 98.8102 45.4795 99.0317C45.258 99.2532 45.258 99.6124 45.4795 99.8339C45.701 100.055 46.0602 100.055 46.2817 99.8339Z" fill="#025382"/>
<path d="M0.968293 46.2817C1.1898 46.0602 1.1898 45.701 0.968292 45.4795C0.746782 45.258 0.387643 45.258 0.166133 45.4795C-0.0553772 45.701 -0.0553779 46.0602 0.166132 46.2817C0.387643 46.5032 0.746782 46.5032 0.968293 46.2817Z" fill="#025382"/>
<path d="M5.13488 50.4483C5.38245 50.2007 5.38245 49.7993 5.13488 49.5517C4.88731 49.3042 4.48592 49.3042 4.23835 49.5517C3.99078 49.7993 3.99078 50.2007 4.23835 50.4483C4.48592 50.6958 4.88731 50.6958 5.13488 50.4483Z" fill="#025382"/>
<path d="M9.29809 54.6115C9.56986 54.3397 9.56986 53.8991 9.29809 53.6273C9.02632 53.3556 8.5857 53.3556 8.31393 53.6273C8.04216 53.8991 8.04216 54.3397 8.31393 54.6115C8.5857 54.8833 9.02632 54.8833 9.29809 54.6115Z" fill="#025382"/>
<path d="M13.4613 58.7747C13.7573 58.4787 13.7573 57.9989 13.4613 57.7029C13.1653 57.4069 12.6855 57.4069 12.3895 57.7029C12.0935 57.9989 12.0935 58.4787 12.3895 58.7747C12.6855 59.0707 13.1653 59.0707 13.4613 58.7747Z" fill="#025382"/>
<path d="M17.6245 62.9379C17.9447 62.6177 17.9447 62.0987 17.6245 61.7785C17.3044 61.4583 16.7853 61.4583 16.4651 61.7785C16.1449 62.0987 16.1449 62.6177 16.4651 62.9379C16.7853 63.2581 17.3044 63.2581 17.6245 62.9379Z" fill="#025382"/>
<path d="M21.7877 67.1011C22.1321 66.7568 22.1321 66.1984 21.7877 65.8541C21.4434 65.5097 20.885 65.5097 20.5407 65.8541C20.1963 66.1984 20.1963 66.7568 20.5407 67.1011C20.885 67.4455 21.4434 67.4455 21.7877 67.1011Z" fill="#025382"/>
<path d="M25.951 71.2643C26.3195 70.8958 26.3195 70.2982 25.9509 69.9296C25.5824 69.5611 24.9848 69.5611 24.6163 69.9296C24.2477 70.2982 24.2477 70.8958 24.6163 71.2643C24.9848 71.6329 25.5824 71.6329 25.951 71.2643Z" fill="#025382"/>
<path d="M30.0704 75.3837C30.4389 75.0152 30.4389 74.4176 30.0704 74.0491C29.7018 73.6805 29.1042 73.6805 28.7357 74.0491C28.3671 74.4176 28.3671 75.0152 28.7357 75.3837C29.1042 75.7523 29.7018 75.7523 30.0704 75.3837Z" fill="#025382"/>
<path d="M34.1459 79.4593C34.4903 79.115 34.4903 78.5566 34.1459 78.2123C33.8016 77.8679 33.2432 77.8679 32.8989 78.2123C32.5545 78.5566 32.5545 79.115 32.8989 79.4593C33.2432 79.8037 33.8016 79.8037 34.1459 79.4593Z" fill="#025382"/>
<path d="M38.2215 83.5349C38.5417 83.2147 38.5417 82.6957 38.2215 82.3755C37.9014 82.0553 37.3823 82.0553 37.0621 82.3755C36.7419 82.6956 36.7419 83.2147 37.0621 83.5349C37.3823 83.8551 37.9014 83.8551 38.2215 83.5349Z" fill="#025382"/>
<path d="M42.2971 87.6105C42.5931 87.3145 42.5931 86.8347 42.2971 86.5387C42.0011 86.2427 41.5213 86.2427 41.2253 86.5387C40.9293 86.8347 40.9293 87.3145 41.2253 87.6105C41.5213 87.9065 42.0011 87.9065 42.2971 87.6105Z" fill="#025382"/>
<path d="M46.3727 91.6861C46.6445 91.4143 46.6445 90.9737 46.3727 90.7019C46.1009 90.4301 45.6603 90.4301 45.3885 90.7019C45.1167 90.9737 45.1168 91.4143 45.3885 91.6861C45.6603 91.9578 46.1009 91.9578 46.3727 91.6861Z" fill="#025382"/>
<path d="M50.4483 95.7617C50.6958 95.5141 50.6958 95.1127 50.4483 94.8651C50.2007 94.6176 49.7993 94.6176 49.5517 94.8651C49.3042 95.1127 49.3042 95.5141 49.5517 95.7617C49.7993 96.0092 50.2007 96.0092 50.4483 95.7617Z" fill="#025382"/>
<path d="M54.5205 99.8339C54.742 99.6124 54.742 99.2532 54.5205 99.0317C54.299 98.8102 53.9398 98.8102 53.7183 99.0317C53.4968 99.2532 53.4968 99.6124 53.7183 99.8339C53.9398 100.055 54.299 100.055 54.5205 99.8339Z" fill="#025382"/>
<path d="M0.94807 38.0227C1.15841 37.8123 1.15841 37.4713 0.948071 37.2609C0.737729 37.0506 0.396697 37.0506 0.186356 37.2609C-0.023986 37.4713 -0.023986 37.8123 0.186356 38.0227C0.396697 38.233 0.737728 38.233 0.94807 38.0227Z" fill="#025382"/>
<path d="M5.1214 42.196C5.36152 41.9559 5.36152 41.5665 5.1214 41.3264C4.88127 41.0863 4.49195 41.0863 4.25183 41.3264C4.0117 41.5665 4.0117 41.9559 4.25183 42.196C4.49195 42.4361 4.88127 42.4361 5.1214 42.196Z" fill="#025382"/>
<path d="M9.29809 46.3727C9.56986 46.1009 9.56986 45.6603 9.29809 45.3885C9.02632 45.1168 8.5857 45.1168 8.31393 45.3885C8.04216 45.6603 8.04216 46.1009 8.31393 46.3727C8.5857 46.6445 9.02632 46.6445 9.29809 46.3727Z" fill="#025382"/>
<path d="M13.4714 50.546C13.773 50.2445 13.773 49.7555 13.4714 49.454C13.1699 49.1524 12.681 49.1524 12.3794 49.454C12.0779 49.7555 12.0779 50.2445 12.3794 50.546C12.681 50.8476 13.1699 50.8476 13.4714 50.546Z" fill="#025382"/>
<path d="M17.6481 54.7227C17.9813 54.3895 17.9813 53.8493 17.6481 53.5161C17.3149 53.1829 16.7747 53.1829 16.4415 53.5161C16.1083 53.8493 16.1083 54.3895 16.4415 54.7227C16.7747 55.0559 17.3149 55.0559 17.6481 54.7227Z" fill="#025382"/>
<path d="M21.8214 58.896C22.1844 58.5331 22.1844 57.9445 21.8214 57.5816C21.4585 57.2186 20.87 57.2186 20.507 57.5816C20.144 57.9445 20.144 58.5331 20.507 58.896C20.87 59.259 21.4585 59.259 21.8214 58.896Z" fill="#025382"/>
<path d="M25.9981 63.0727C26.3928 62.6781 26.3928 62.0383 25.9981 61.6437C25.6035 61.2491 24.9637 61.2491 24.5691 61.6437C24.1745 62.0383 24.1745 62.6781 24.5691 63.0727C24.9637 63.4673 25.6035 63.4673 25.9981 63.0727Z" fill="#025382"/>
<path d="M30.1715 67.2461C30.5959 66.8217 30.5959 66.1336 30.1715 65.7091C29.7471 65.2847 29.059 65.2847 28.6346 65.7091C28.2101 66.1336 28.2101 66.8216 28.6346 67.246C29.059 67.6705 29.7471 67.6705 30.1715 67.2461Z" fill="#025382"/>
<path d="M34.2909 71.3655C34.7153 70.941 34.7153 70.2529 34.2909 69.8285C33.8665 69.4041 33.1784 69.4041 32.7539 69.8285C32.3295 70.2529 32.3295 70.941 32.754 71.3655C33.1784 71.7899 33.8665 71.7899 34.2909 71.3655Z" fill="#025382"/>
<path d="M38.3563 75.4309C38.751 75.0363 38.751 74.3965 38.3563 74.0019C37.9617 73.6072 37.3219 73.6072 36.9273 74.0019C36.5327 74.3965 36.5327 75.0363 36.9273 75.4309C37.3219 75.8255 37.9617 75.8255 38.3563 75.4309Z" fill="#025382"/>
<path d="M42.4184 79.493C42.7814 79.13 42.7814 78.5415 42.4184 78.1786C42.0555 77.8156 41.4669 77.8156 41.104 78.1786C40.741 78.5415 40.741 79.13 41.104 79.493C41.4669 79.856 42.0555 79.856 42.4184 79.493Z" fill="#025382"/>
<path d="M46.4839 83.5585C46.8171 83.2253 46.8171 82.6851 46.4839 82.3519C46.1507 82.0187 45.6105 82.0187 45.2773 82.3519C44.9441 82.6851 44.9441 83.2253 45.2773 83.5585C45.6105 83.8917 46.1507 83.8917 46.4839 83.5585Z" fill="#025382"/>
<path d="M50.546 87.6206C50.8476 87.319 50.8476 86.8301 50.546 86.5286C50.2445 86.227 49.7555 86.227 49.454 86.5286C49.1524 86.8301 49.1524 87.3191 49.454 87.6206C49.7555 87.9222 50.2445 87.9221 50.546 87.6206Z" fill="#025382"/>
<path d="M54.6115 91.6861C54.8833 91.4143 54.8833 90.9737 54.6115 90.7019C54.3397 90.4301 53.8991 90.4301 53.6273 90.7019C53.3556 90.9737 53.3556 91.4143 53.6273 91.6861C53.8991 91.9578 54.3397 91.9578 54.6115 91.6861Z" fill="#025382"/>
<path d="M58.6736 95.7482C58.9137 95.508 58.9137 95.1187 58.6736 94.8786C58.4335 94.6385 58.0441 94.6385 57.804 94.8786C57.5639 95.1187 57.5639 95.508 57.804 95.7482C58.0441 95.9883 58.4335 95.9883 58.6736 95.7482Z" fill="#025382"/>
<path d="M62.7391 99.8137C62.9494 99.6033 62.9494 99.2623 62.7391 99.0519C62.5287 98.8416 62.1877 98.8416 61.9773 99.0519C61.767 99.2623 61.767 99.6033 61.9773 99.8137C62.1877 100.024 62.5287 100.024 62.7391 99.8137Z" fill="#025382"/>
<path d="M5.08769 33.9235C5.3092 33.702 5.3092 33.3428 5.08769 33.1213C4.86618 32.8998 4.50704 32.8998 4.28553 33.1213C4.06402 33.3428 4.06402 33.702 4.28553 33.9235C4.50704 34.145 4.86618 34.145 5.08769 33.9235Z" fill="#025382"/>
<path d="M9.2745 38.1103C9.53324 37.8516 9.53324 37.4321 9.2745 37.1733C9.01576 36.9146 8.59626 36.9146 8.33752 37.1733C8.07878 37.4321 8.07878 37.8516 8.33752 38.1103C8.59626 38.369 9.01576 38.369 9.2745 38.1103Z" fill="#025382"/>
<path d="M13.4613 42.2971C13.7573 42.0011 13.7573 41.5213 13.4613 41.2253C13.1653 40.9293 12.6855 40.9293 12.3895 41.2253C12.0935 41.5213 12.0935 42.0011 12.3895 42.2971C12.6855 42.5931 13.1653 42.5931 13.4613 42.2971Z" fill="#025382"/>
<path d="M17.6481 46.4839C17.9813 46.1507 17.9813 45.6105 17.6481 45.2773C17.3149 44.9441 16.7747 44.9441 16.4415 45.2773C16.1083 45.6105 16.1083 46.1507 16.4415 46.4839C16.7747 46.8171 17.3149 46.8171 17.6481 46.4839Z" fill="#025382"/>
<path d="M21.8316 50.6673C22.2001 50.2988 22.2001 49.7012 21.8316 49.3327C21.463 48.9641 20.8654 48.9641 20.4969 49.3327C20.1283 49.7012 20.1283 50.2988 20.4969 50.6673C20.8654 51.0359 21.463 51.0359 21.8316 50.6673Z" fill="#025382"/>
<path d="M26.0184 54.8542C26.4241 54.4484 26.4241 53.7904 26.0184 53.3847C25.6126 52.9789 24.9546 52.9789 24.5489 53.3847C24.1431 53.7904 24.1431 54.4484 24.5489 54.8542C24.9546 55.2599 25.6126 55.2599 26.0184 54.8542Z" fill="#025382"/>
<path d="M30.2052 59.041C30.6482 58.5979 30.6482 57.8797 30.2052 57.4366C29.7621 56.9936 29.0439 56.9936 28.6008 57.4366C28.1578 57.8797 28.1578 58.5979 28.6008 59.041C29.0439 59.484 29.7621 59.484 30.2052 59.041Z" fill="#025382"/>
<path d="M34.392 63.2278C34.8722 62.7475 34.8722 61.9689 34.392 61.4886C33.9117 61.0084 33.1331 61.0084 32.6528 61.4886C32.1726 61.9689 32.1726 62.7475 32.6528 63.2278C33.1331 63.708 33.9117 63.708 34.392 63.2278Z" fill="#025382"/>
<path d="M38.5114 67.3472C38.9916 66.8669 38.9916 66.0883 38.5114 65.608C38.0311 65.1278 37.2525 65.1278 36.7722 65.608C36.292 66.0883 36.292 66.8669 36.7722 67.3472C37.2525 67.8274 38.0311 67.8274 38.5114 67.3472Z" fill="#025382"/>
<path d="M42.5634 71.3992C43.0064 70.9561 43.0064 70.2379 42.5634 69.7948C42.1203 69.3518 41.4021 69.3518 40.959 69.7948C40.516 70.2379 40.516 70.9561 40.959 71.3992C41.4021 71.8422 42.1203 71.8422 42.5634 71.3992Z" fill="#025382"/>
<path d="M46.6153 75.4511C47.0211 75.0454 47.0211 74.3874 46.6154 73.9817C46.2096 73.5759 45.5516 73.5759 45.1458 73.9816C44.7401 74.3874 44.7401 75.0454 45.1459 75.4511C45.5516 75.8569 46.2096 75.8569 46.6153 75.4511Z" fill="#025382"/>
<path d="M50.6673 79.5031C51.0359 79.1346 51.0359 78.537 50.6673 78.1684C50.2988 77.7999 49.7012 77.7999 49.3327 78.1684C48.9641 78.537 48.9641 79.1346 49.3327 79.5031C49.7012 79.8717 50.2988 79.8717 50.6673 79.5031Z" fill="#025382"/>
<path d="M54.7227 83.5585C55.0559 83.2253 55.0559 82.6851 54.7227 82.3519C54.3895 82.0187 53.8493 82.0187 53.5161 82.3519C53.1829 82.6851 53.1829 83.2253 53.5161 83.5585C53.8493 83.8917 54.3895 83.8917 54.7227 83.5585Z" fill="#025382"/>
<path d="M58.7747 87.6105C59.0707 87.3145 59.0707 86.8347 58.7747 86.5387C58.4787 86.2427 57.9989 86.2427 57.7029 86.5387C57.4069 86.8347 57.4069 87.3145 57.7029 87.6105C57.9989 87.9065 58.4787 87.9065 58.7747 87.6105Z" fill="#025382"/>
<path d="M62.8267 91.6625C63.0854 91.4037 63.0854 90.9842 62.8267 90.7255C62.5679 90.4668 62.1484 90.4668 61.8897 90.7255C61.631 90.9842 61.631 91.4037 61.8897 91.6625C62.1484 91.9212 62.5679 91.9212 62.8267 91.6625Z" fill="#025382"/>
<path d="M66.8787 95.7145C67.1002 95.493 67.1002 95.1338 66.8787 94.9123C66.6572 94.6908 66.298 94.6908 66.0765 94.9123C65.855 95.1338 65.855 95.493 66.0765 95.7145C66.298 95.936 66.6572 95.936 66.8787 95.7145Z" fill="#025382"/>
<path d="M5.03377 25.6308C5.22549 25.439 5.22549 25.1282 5.03376 24.9365C4.84204 24.7447 4.53119 24.7447 4.33946 24.9365C4.14773 25.1282 4.14773 25.439 4.33946 25.6308C4.53119 25.8225 4.84204 25.8225 5.03377 25.6308Z" fill="#025382"/>
<path d="M9.23068 29.8277C9.46522 29.5931 9.46523 29.2129 9.23069 28.9783C8.99615 28.7438 8.61588 28.7438 8.38134 28.9783C8.1468 29.2129 8.1468 29.5931 8.38134 29.8277C8.61588 30.0622 8.99614 30.0622 9.23068 29.8277Z" fill="#025382"/>
<path d="M13.4276 34.0246C13.705 33.7472 13.705 33.2976 13.4276 33.0202C13.1503 32.7429 12.7006 32.7429 12.4232 33.0202C12.1459 33.2976 12.1459 33.7472 12.4232 34.0246C12.7006 34.302 13.1502 34.302 13.4276 34.0246Z" fill="#025382"/>
<path d="M17.6245 38.2215C17.9447 37.9013 17.9447 37.3823 17.6245 37.0621C17.3044 36.7419 16.7853 36.7419 16.4651 37.0621C16.1449 37.3823 16.1449 37.9014 16.4651 38.2215C16.7853 38.5417 17.3044 38.5417 17.6245 38.2215Z" fill="#025382"/>
<path d="M21.8214 42.4184C22.1844 42.0555 22.1844 41.4669 21.8214 41.104C21.4585 40.741 20.87 40.741 20.507 41.104C20.144 41.4669 20.144 42.0555 20.507 42.4184C20.87 42.7814 21.4585 42.7814 21.8214 42.4184Z" fill="#025382"/>
<path d="M26.0184 46.6154C26.4241 46.2096 26.4241 45.5516 26.0184 45.1459C25.6126 44.7401 24.9546 44.7401 24.5489 45.1459C24.1431 45.5516 24.1431 46.2096 24.5489 46.6154C24.9546 47.0211 25.6126 47.0211 26.0184 46.6154Z" fill="#025382"/>
<path d="M30.2153 50.8123C30.6639 50.3637 30.6639 49.6363 30.2153 49.1877C29.7667 48.7391 29.0393 48.7391 28.5907 49.1877C28.1421 49.6363 28.1421 50.3637 28.5907 50.8123C29.0393 51.2609 29.7667 51.2609 30.2153 50.8123Z" fill="#025382"/>
<path d="M34.4122 55.0092C34.9036 54.5178 34.9036 53.721 34.4122 53.2296C33.9208 52.7382 33.124 52.7382 32.6326 53.2296C32.1412 53.721 32.1412 54.5178 32.6326 55.0092C33.124 55.5006 33.9208 55.5006 34.4122 55.0092Z" fill="#025382"/>
<path d="M38.6091 59.2061C39.1433 58.6719 39.1433 57.8057 38.6091 57.2715C38.0749 56.7373 37.2087 56.7373 36.6745 57.2715C36.1403 57.8057 36.1403 58.6719 36.6745 59.2061C37.2087 59.7403 38.0749 59.7403 38.6091 59.2061Z" fill="#025382"/>
<path d="M42.7285 63.3255C43.2627 62.7913 43.2627 61.9251 42.7285 61.3909C42.1943 60.8567 41.3281 60.8567 40.7939 61.3909C40.2597 61.9251 40.2597 62.7913 40.7939 63.3255C41.3281 63.8597 42.1943 63.8597 42.7285 63.3255Z" fill="#025382"/>
<path d="M46.7704 67.3674C47.2618 66.876 47.2618 66.0792 46.7704 65.5878C46.279 65.0964 45.4822 65.0964 44.9908 65.5878C44.4994 66.0792 44.4994 66.876 44.9908 67.3674C45.4822 67.8588 46.279 67.8588 46.7704 67.3674Z" fill="#025382"/>
<path d="M50.8123 71.4093C51.2609 70.9607 51.2609 70.2333 50.8123 69.7847C50.3637 69.3361 49.6363 69.3361 49.1877 69.7847C48.7391 70.2333 48.7391 70.9607 49.1877 71.4093C49.6363 71.8579 50.3637 71.8579 50.8123 71.4093Z" fill="#025382"/>
<path d="M54.8542 75.4511C55.2599 75.0454 55.2599 74.3874 54.8541 73.9816C54.4484 73.5759 53.7904 73.5759 53.3847 73.9817C52.9789 74.3874 52.9789 75.0454 53.3846 75.4511C53.7904 75.8569 54.4484 75.8569 54.8542 75.4511Z" fill="#025382"/>
<path d="M58.896 79.493C59.259 79.13 59.259 78.5415 58.896 78.1786C58.5331 77.8156 57.9445 77.8156 57.5816 78.1786C57.2186 78.5415 57.2186 79.13 57.5816 79.493C57.9445 79.856 58.5331 79.856 58.896 79.493Z" fill="#025382"/>
<path d="M62.9379 83.5349C63.2581 83.2147 63.2581 82.6957 62.9379 82.3755C62.6177 82.0553 62.0987 82.0553 61.7785 82.3755C61.4583 82.6957 61.4583 83.2147 61.7785 83.5349C62.0987 83.8551 62.6177 83.8551 62.9379 83.5349Z" fill="#025382"/>
<path d="M66.9798 87.5768C67.2571 87.2994 67.2571 86.8498 66.9798 86.5724C66.7024 86.295 66.2528 86.295 65.9754 86.5724C65.6981 86.8498 65.6981 87.2994 65.9754 87.5768C66.2528 87.8541 66.7024 87.8541 66.9798 87.5768Z" fill="#025382"/>
<path d="M71.0217 91.6187C71.2562 91.3841 71.2562 91.0039 71.0217 90.7693C70.7871 90.5348 70.4069 90.5348 70.1723 90.7693C69.9378 91.0039 69.9378 91.3841 70.1723 91.6187C70.4069 91.8532 70.7871 91.8532 71.0217 91.6187Z" fill="#025382"/>
<path d="M75.0635 95.6605C75.2553 95.4688 75.2553 95.158 75.0635 94.9662C74.8718 94.7745 74.561 94.7745 74.3692 94.9662C74.1775 95.158 74.1775 95.4688 74.3692 95.6605C74.561 95.8523 74.8718 95.8523 75.0635 95.6605Z" fill="#025382"/>
<path d="M9.16328 21.5215C9.36059 21.3242 9.36059 21.0043 9.16328 20.8069C8.96597 20.6096 8.64606 20.6096 8.44875 20.8069C8.25144 21.0043 8.25144 21.3242 8.44875 21.5215C8.64606 21.7188 8.96596 21.7188 9.16328 21.5215Z" fill="#025382"/>
<path d="M13.3737 25.7319C13.6212 25.4843 13.6212 25.0829 13.3737 24.8353C13.1261 24.5878 12.7247 24.5878 12.4771 24.8353C12.2296 25.0829 12.2296 25.4843 12.4771 25.7319C12.7247 25.9794 13.1261 25.9794 13.3737 25.7319Z" fill="#025382"/>
<path d="M17.5807 29.9389C17.8767 29.6429 17.8767 29.1631 17.5807 28.8671C17.2847 28.5711 16.8049 28.5711 16.5089 28.8671C16.2129 29.1631 16.2129 29.6429 16.5089 29.9389C16.8049 30.2349 17.2847 30.2349 17.5807 29.9389Z" fill="#025382"/>
<path d="M21.7877 34.1459C22.1321 33.8016 22.1321 33.2432 21.7877 32.8989C21.4434 32.5545 20.885 32.5545 20.5407 32.8989C20.1963 33.2432 20.1963 33.8016 20.5407 34.1459C20.885 34.4903 21.4434 34.4903 21.7877 34.1459Z" fill="#025382"/>
<path d="M25.9981 38.3563C26.3928 37.9617 26.3928 37.3219 25.9981 36.9273C25.6035 36.5327 24.9637 36.5327 24.5691 36.9273C24.1745 37.3219 24.1745 37.9617 24.5691 38.3563C24.9637 38.751 25.6035 38.751 25.9981 38.3563Z" fill="#025382"/>
<path d="M30.2052 42.5634C30.6482 42.1203 30.6482 41.4021 30.2052 40.959C29.7621 40.516 29.0439 40.516 28.6008 40.959C28.1578 41.4021 28.1578 42.1203 28.6008 42.5634C29.0439 43.0064 29.7621 43.0064 30.2052 42.5634Z" fill="#025382"/>
<path d="M34.4122 46.7704C34.9036 46.279 34.9036 45.4822 34.4122 44.9908C33.9208 44.4994 33.124 44.4994 32.6326 44.9908C32.1412 45.4822 32.1412 46.279 32.6326 46.7704C33.124 47.2618 33.9208 47.2618 34.4122 46.7704Z" fill="#025382"/>
<path d="M38.6192 50.9774C39.159 50.4376 39.159 49.5624 38.6192 49.0226C38.0794 48.4828 37.2042 48.4828 36.6644 49.0226C36.1246 49.5624 36.1246 50.4376 36.6644 50.9774C37.2042 51.5172 38.0794 51.5172 38.6192 50.9774Z" fill="#025382"/>
<path d="M42.8296 55.1878C43.4197 54.5977 43.4197 53.641 42.8296 53.051C42.2396 52.4609 41.2829 52.4609 40.6928 53.051C40.1027 53.6411 40.1027 54.5977 40.6928 55.1878C41.2829 55.7779 42.2396 55.7779 42.8296 55.1878Z" fill="#025382"/>
<path d="M46.949 59.3072C47.5391 58.7171 47.5391 57.7604 46.949 57.1704C46.359 56.5803 45.4023 56.5803 44.8122 57.1704C44.2221 57.7604 44.2221 58.7171 44.8122 59.3072C45.4023 59.8973 46.359 59.8973 46.949 59.3072Z" fill="#025382"/>
<path d="M50.9774 63.3356C51.5172 62.7958 51.5172 61.9206 50.9774 61.3808C50.4376 60.841 49.5624 60.841 49.0226 61.3808C48.4828 61.9206 48.4828 62.7958 49.0226 63.3356C49.5624 63.8754 50.4376 63.8754 50.9774 63.3356Z" fill="#025382"/>
<path d="M55.0092 67.3674C55.5006 66.876 55.5006 66.0792 55.0092 65.5878C54.5178 65.0964 53.721 65.0964 53.2296 65.5878C52.7382 66.0792 52.7382 66.876 53.2296 67.3674C53.721 67.8588 54.5178 67.8588 55.0092 67.3674Z" fill="#025382"/>
<path d="M59.041 71.3992C59.484 70.9561 59.484 70.2379 59.041 69.7948C58.5979 69.3518 57.8797 69.3518 57.4366 69.7948C56.9936 70.2379 56.9936 70.9561 57.4366 71.3991C57.8797 71.8422 58.5979 71.8422 59.041 71.3992Z" fill="#025382"/>
<path d="M63.0727 75.4309C63.4673 75.0363 63.4673 74.3965 63.0727 74.0019C62.6781 73.6072 62.0383 73.6072 61.6437 74.0019C61.2491 74.3965 61.2491 75.0363 61.6437 75.4309C62.0383 75.8255 62.6781 75.8255 63.0727 75.4309Z" fill="#025382"/>
<path d="M67.1011 79.4593C67.4455 79.115 67.4455 78.5566 67.1011 78.2123C66.7568 77.8679 66.1984 77.8679 65.8541 78.2123C65.5097 78.5566 65.5097 79.115 65.8541 79.4593C66.1984 79.8037 66.7568 79.8037 67.1011 79.4593Z" fill="#025382"/>
<path d="M71.1329 83.4911C71.4289 83.1951 71.4289 82.7153 71.1329 82.4193C70.8369 82.1233 70.3571 82.1233 70.0611 82.4193C69.7651 82.7153 69.7651 83.1951 70.0611 83.4911C70.3571 83.7871 70.8369 83.7871 71.1329 83.4911Z" fill="#025382"/>
<path d="M75.1647 87.5229C75.4122 87.2753 75.4122 86.8739 75.1647 86.6263C74.9171 86.3788 74.5157 86.3788 74.2681 86.6263C74.0206 86.8739 74.0206 87.2753 74.2681 87.5229C74.5157 87.7704 74.9171 87.7704 75.1647 87.5229Z" fill="#025382"/>
<path d="M79.1931 91.5513C79.3904 91.3539 79.3904 91.034 79.1931 90.8367C78.9958 90.6394 78.6758 90.6394 78.4785 90.8367C78.2812 91.034 78.2812 91.3539 78.4785 91.5513C78.6758 91.7486 78.9957 91.7486 79.1931 91.5513Z" fill="#025382"/>
<path d="M13.2962 17.4156C13.5009 17.2108 13.5009 16.8788 13.2962 16.6741C13.0914 16.4693 12.7594 16.4693 12.5547 16.6741C12.3499 16.8788 12.3499 17.2108 12.5547 17.4156C12.7594 17.6203 13.0914 17.6203 13.2962 17.4156Z" fill="#025382"/>
<path d="M17.5133 21.6327C17.772 21.374 17.772 20.9545 17.5133 20.6957C17.2546 20.437 16.8351 20.437 16.5763 20.6957C16.3176 20.9545 16.3176 21.374 16.5763 21.6327C16.8351 21.8914 17.2546 21.8914 17.5133 21.6327Z" fill="#025382"/>
<path d="M21.7338 25.8532C22.0484 25.5386 22.0484 25.0286 21.7338 24.714C21.4192 24.3994 20.9092 24.3994 20.5946 24.714C20.28 25.0286 20.28 25.5386 20.5946 25.8532C20.9092 26.1678 21.4192 26.1678 21.7338 25.8532Z" fill="#025382"/>
<path d="M25.9509 30.0704C26.3195 29.7018 26.3195 29.1042 25.951 28.7357C25.5824 28.3671 24.9848 28.3671 24.6163 28.7357C24.2477 29.1042 24.2477 29.7018 24.6163 30.0703C24.9848 30.4389 25.5824 30.4389 25.9509 30.0704Z" fill="#025382"/>
<path d="M30.1715 34.2909C30.5959 33.8665 30.5959 33.1784 30.1715 32.7539C29.7471 32.3295 29.059 32.3295 28.6346 32.7539C28.2101 33.1784 28.2101 33.8665 28.6346 34.2909C29.059 34.7153 29.7471 34.7153 30.1715 34.2909Z" fill="#025382"/>
<path d="M34.392 38.5114C34.8722 38.0311 34.8722 37.2525 34.392 36.7722C33.9117 36.292 33.1331 36.292 32.6528 36.7722C32.1726 37.2525 32.1726 38.0311 32.6528 38.5114C33.1331 38.9916 33.9117 38.9916 34.392 38.5114Z" fill="#025382"/>
<path d="M38.6091 42.7285C39.1433 42.1943 39.1433 41.3281 38.6091 40.7939C38.0749 40.2597 37.2087 40.2597 36.6745 40.7939C36.1403 41.3281 36.1403 42.1943 36.6745 42.7285C37.2087 43.2627 38.0749 43.2627 38.6091 42.7285Z" fill="#025382"/>
<path d="M42.8296 46.949C43.4197 46.359 43.4197 45.4022 42.8296 44.8122C42.2396 44.2221 41.2829 44.2221 40.6928 44.8122C40.1027 45.4023 40.1027 46.359 40.6928 46.949C41.2829 47.5391 42.2396 47.5391 42.8296 46.949Z" fill="#025382"/>
<path d="M47.0468 51.1662C47.6908 50.5221 47.6908 49.4779 47.0468 48.8338C46.4027 48.1898 45.3585 48.1898 44.7144 48.8338C44.0704 49.4779 44.0704 50.5221 44.7144 51.1662C45.3585 51.8102 46.4027 51.8102 47.0468 51.1662Z" fill="#025382"/>
<path d="M51.1662 55.2856C51.8102 54.6415 51.8102 53.5973 51.1662 52.9532C50.5221 52.3092 49.4779 52.3092 48.8338 52.9532C48.1898 53.5973 48.1898 54.6415 48.8338 55.2856C49.4779 55.9296 50.5221 55.9296 51.1662 55.2856Z" fill="#025382"/>
<path d="M55.1878 59.3072C55.7779 58.7171 55.7779 57.7604 55.1878 57.1704C54.5977 56.5803 53.641 56.5803 53.051 57.1704C52.4609 57.7604 52.4609 58.7171 53.051 59.3072C53.641 59.8973 54.5977 59.8973 55.1878 59.3072Z" fill="#025382"/>
<path d="M59.2061 63.3255C59.7403 62.7913 59.7403 61.9251 59.2061 61.3909C58.6719 60.8567 57.8057 60.8567 57.2715 61.3909C56.7373 61.9251 56.7373 62.7913 57.2715 63.3255C57.8057 63.8597 58.6719 63.8597 59.2061 63.3255Z" fill="#025382"/>
<path d="M63.2278 67.3472C63.708 66.8669 63.708 66.0883 63.2278 65.608C62.7475 65.1278 61.9689 65.1278 61.4886 65.608C61.0084 66.0883 61.0084 66.8669 61.4886 67.3472C61.9689 67.8274 62.7475 67.8274 63.2278 67.3472Z" fill="#025382"/>
<path d="M67.246 71.3655C67.6705 70.941 67.6705 70.2529 67.2461 69.8285C66.8216 69.4041 66.1336 69.4041 65.7091 69.8285C65.2847 70.2529 65.2847 70.941 65.7091 71.3655C66.1336 71.7899 66.8216 71.7899 67.246 71.3655Z" fill="#025382"/>
<path d="M71.2643 75.3837C71.6329 75.0152 71.6329 74.4176 71.2643 74.0491C70.8958 73.6805 70.2982 73.6805 69.9296 74.0491C69.5611 74.4176 69.5611 75.0152 69.9297 75.3837C70.2982 75.7523 70.8958 75.7523 71.2643 75.3837Z" fill="#025382"/>
<path d="M75.286 79.4054C75.6006 79.0908 75.6006 78.5808 75.286 78.2662C74.9714 77.9516 74.4614 77.9516 74.1468 78.2662C73.8322 78.5808 73.8322 79.0908 74.1468 79.4054C74.4614 79.72 74.9714 79.72 75.286 79.4054Z" fill="#025382"/>
<path d="M79.3043 83.4237C79.563 83.1649 79.563 82.7454 79.3043 82.4867C79.0455 82.228 78.6261 82.228 78.3673 82.4867C78.1086 82.7454 78.1086 83.1649 78.3673 83.4237C78.6261 83.6824 79.0455 83.6824 79.3043 83.4237Z" fill="#025382"/>
<path d="M83.3259 87.4453C83.5307 87.2406 83.5307 86.9086 83.3259 86.7038C83.1212 86.4991 82.7892 86.4991 82.5844 86.7038C82.3797 86.9086 82.3797 87.2406 82.5844 87.4453C82.7892 87.6501 83.1212 87.6501 83.3259 87.4453Z" fill="#025382"/>
<path d="M17.4156 13.2962C17.6203 13.0914 17.6203 12.7594 17.4156 12.5547C17.2108 12.3499 16.8788 12.3499 16.6741 12.5547C16.4693 12.7594 16.4693 13.0914 16.6741 13.2962C16.8788 13.5009 17.2108 13.5009 17.4156 13.2962Z" fill="#025382"/>
<path d="M21.6327 17.5133C21.8914 17.2546 21.8914 16.8351 21.6327 16.5763C21.374 16.3176 20.9545 16.3176 20.6957 16.5763C20.437 16.8351 20.437 17.2546 20.6957 17.5133C20.9545 17.772 21.374 17.772 21.6327 17.5133Z" fill="#025382"/>
<path d="M25.8532 21.7338C26.1678 21.4192 26.1678 20.9092 25.8532 20.5946C25.5386 20.28 25.0286 20.28 24.714 20.5946C24.3994 20.9092 24.3994 21.4192 24.714 21.7338C25.0286 22.0484 25.5386 22.0484 25.8532 21.7338Z" fill="#025382"/>
<path d="M30.0704 25.9509C30.4389 25.5824 30.4389 24.9848 30.0704 24.6163C29.7018 24.2477 29.1042 24.2477 28.7357 24.6163C28.3671 24.9848 28.3671 25.5824 28.7357 25.9509C29.1042 26.3195 29.7018 26.3195 30.0704 25.9509Z" fill="#025382"/>
<path d="M34.2909 30.1715C34.7153 29.7471 34.7153 29.059 34.2909 28.6346C33.8665 28.2101 33.1784 28.2101 32.754 28.6346C32.3295 29.059 32.3295 29.7471 32.7539 30.1715C33.1784 30.5959 33.8665 30.5959 34.2909 30.1715Z" fill="#025382"/>
<path d="M38.5114 34.392C38.9916 33.9117 38.9916 33.1331 38.5114 32.6528C38.0311 32.1726 37.2525 32.1726 36.7722 32.6528C36.292 33.1331 36.292 33.9117 36.7722 34.392C37.2525 34.8722 38.0311 34.8722 38.5114 34.392Z" fill="#025382"/>
<path d="M42.7285 38.6091C43.2627 38.0749 43.2627 37.2087 42.7285 36.6745C42.1943 36.1403 41.3281 36.1403 40.7939 36.6745C40.2597 37.2087 40.2597 38.0749 40.7939 38.6091C41.3281 39.1433 42.1943 39.1433 42.7285 38.6091Z" fill="#025382"/>
<path d="M46.949 42.8296C47.5391 42.2396 47.5391 41.2829 46.949 40.6928C46.359 40.1027 45.4023 40.1027 44.8122 40.6928C44.2221 41.2829 44.2221 42.2396 44.8122 42.8296C45.4023 43.4197 46.359 43.4197 46.949 42.8296Z" fill="#025382"/>
<path d="M51.1662 47.0468C51.8102 46.4027 51.8102 45.3585 51.1662 44.7144C50.5221 44.0704 49.4779 44.0704 48.8338 44.7144C48.1898 45.3585 48.1898 46.4027 48.8338 47.0468C49.4779 47.6908 50.5221 47.6908 51.1662 47.0468Z" fill="#025382"/>
<path d="M55.2856 51.1662C55.9296 50.5221 55.9296 49.4779 55.2856 48.8338C54.6415 48.1898 53.5973 48.1898 52.9532 48.8338C52.3092 49.4779 52.3092 50.5221 52.9532 51.1662C53.5973 51.8102 54.6415 51.8102 55.2856 51.1662Z" fill="#025382"/>
<path d="M59.3072 55.1878C59.8973 54.5977 59.8973 53.641 59.3072 53.051C58.7171 52.4609 57.7605 52.4609 57.1704 53.051C56.5803 53.641 56.5803 54.5977 57.1704 55.1878C57.7604 55.7779 58.7171 55.7779 59.3072 55.1878Z" fill="#025382"/>
<path d="M63.3255 59.2061C63.8597 58.6719 63.8597 57.8057 63.3255 57.2715C62.7913 56.7373 61.9251 56.7373 61.3909 57.2715C60.8567 57.8057 60.8567 58.6719 61.3909 59.2061C61.9251 59.7403 62.7913 59.7403 63.3255 59.2061Z" fill="#025382"/>
<path d="M67.3472 63.2278C67.8274 62.7475 67.8274 61.9689 67.3472 61.4886C66.8669 61.0084 66.0883 61.0084 65.608 61.4886C65.1278 61.9689 65.1278 62.7475 65.608 63.2278C66.0883 63.708 66.8669 63.708 67.3472 63.2278Z" fill="#025382"/>
<path d="M71.3655 67.246C71.7899 66.8216 71.7899 66.1335 71.3655 65.7091C70.941 65.2847 70.2529 65.2847 69.8285 65.7091C69.4041 66.1335 69.4041 66.8216 69.8285 67.246C70.2529 67.6705 70.941 67.6705 71.3655 67.246Z" fill="#025382"/>
<path d="M75.3837 71.2643C75.7523 70.8958 75.7523 70.2982 75.3837 69.9297C75.0152 69.5611 74.4176 69.5611 74.0491 69.9296C73.6805 70.2982 73.6805 70.8958 74.0491 71.2643C74.4176 71.6329 75.0152 71.6329 75.3837 71.2643Z" fill="#025382"/>
<path d="M79.4054 75.286C79.72 74.9714 79.72 74.4614 79.4054 74.1468C79.0908 73.8322 78.5808 73.8322 78.2662 74.1468C77.9516 74.4614 77.9516 74.9714 78.2662 75.286C78.5808 75.6006 79.0908 75.6006 79.4054 75.286Z" fill="#025382"/>
<path d="M83.4237 79.3043C83.6824 79.0455 83.6824 78.626 83.4237 78.3673C83.1649 78.1086 82.7454 78.1086 82.4867 78.3673C82.228 78.626 82.228 79.0455 82.4867 79.3043C82.7454 79.563 83.1649 79.563 83.4237 79.3043Z" fill="#025382"/>
<path d="M87.4453 83.3259C87.6501 83.1212 87.6501 82.7892 87.4453 82.5844C87.2406 82.3797 86.9086 82.3797 86.7038 82.5844C86.4991 82.7892 86.4991 83.1212 86.7038 83.3259C86.9086 83.5307 87.2406 83.5307 87.4453 83.3259Z" fill="#025382"/>
<path d="M21.5215 9.16328C21.7188 8.96596 21.7188 8.64606 21.5215 8.44875C21.3242 8.25144 21.0043 8.25144 20.8069 8.44875C20.6096 8.64606 20.6096 8.96596 20.8069 9.16328C21.0043 9.36059 21.3242 9.36059 21.5215 9.16328Z" fill="#025382"/>
<path d="M25.7319 13.3737C25.9794 13.1261 25.9794 12.7247 25.7319 12.4771C25.4843 12.2296 25.0829 12.2296 24.8353 12.4771C24.5878 12.7247 24.5878 13.1261 24.8353 13.3737C25.0829 13.6212 25.4843 13.6212 25.7319 13.3737Z" fill="#025382"/>
<path d="M29.9389 17.5807C30.2349 17.2847 30.2349 16.8049 29.9389 16.5089C29.6429 16.2129 29.1631 16.2129 28.8671 16.5089C28.5711 16.8049 28.5711 17.2847 28.8671 17.5807C29.1631 17.8767 29.6429 17.8767 29.9389 17.5807Z" fill="#025382"/>
<path d="M34.1459 21.7877C34.4903 21.4434 34.4903 20.885 34.1459 20.5407C33.8016 20.1963 33.2432 20.1963 32.8989 20.5407C32.5545 20.885 32.5545 21.4434 32.8989 21.7877C33.2432 22.1321 33.8016 22.1321 34.1459 21.7877Z" fill="#025382"/>
<path d="M38.3563 25.9981C38.751 25.6035 38.751 24.9637 38.3563 24.5691C37.9617 24.1745 37.3219 24.1745 36.9273 24.5691C36.5327 24.9637 36.5327 25.6035 36.9273 25.9981C37.3219 26.3928 37.9617 26.3928 38.3563 25.9981Z" fill="#025382"/>
<path d="M42.5634 30.2052C43.0064 29.7621 43.0064 29.0439 42.5634 28.6008C42.1203 28.1578 41.4021 28.1578 40.959 28.6008C40.516 29.0439 40.516 29.7621 40.959 30.2052C41.4021 30.6482 42.1203 30.6482 42.5634 30.2052Z" fill="#025382"/>
<path d="M46.7704 34.4122C47.2618 33.9208 47.2618 33.124 46.7704 32.6326C46.279 32.1412 45.4822 32.1412 44.9908 32.6326C44.4994 33.124 44.4994 33.9208 44.9908 34.4122C45.4822 34.9036 46.279 34.9036 46.7704 34.4122Z" fill="#025382"/>
<path d="M50.9774 38.6192C51.5172 38.0794 51.5172 37.2042 50.9774 36.6644C50.4376 36.1246 49.5624 36.1246 49.0226 36.6644C48.4828 37.2042 48.4828 38.0794 49.0226 38.6192C49.5624 39.159 50.4376 39.159 50.9774 38.6192Z" fill="#025382"/>
<path d="M55.1878 42.8296C55.7779 42.2396 55.7779 41.2829 55.1878 40.6928C54.5977 40.1027 53.641 40.1027 53.051 40.6928C52.4609 41.2829 52.4609 42.2396 53.051 42.8296C53.641 43.4197 54.5977 43.4197 55.1878 42.8296Z" fill="#025382"/>
<path d="M59.3072 46.949C59.8973 46.359 59.8973 45.4023 59.3072 44.8122C58.7171 44.2221 57.7604 44.2221 57.1704 44.8122C56.5803 45.4023 56.5803 46.359 57.1704 46.949C57.7605 47.5391 58.7171 47.5391 59.3072 46.949Z" fill="#025382"/>
<path d="M63.3356 50.9774C63.8754 50.4376 63.8754 49.5624 63.3356 49.0226C62.7958 48.4828 61.9206 48.4828 61.3808 49.0226C60.841 49.5624 60.841 50.4376 61.3808 50.9774C61.9206 51.5172 62.7958 51.5172 63.3356 50.9774Z" fill="#025382"/>
<path d="M67.3674 55.0092C67.8588 54.5178 67.8588 53.721 67.3674 53.2296C66.876 52.7382 66.0792 52.7382 65.5878 53.2296C65.0964 53.721 65.0964 54.5178 65.5878 55.0092C66.0792 55.5006 66.876 55.5006 67.3674 55.0092Z" fill="#025382"/>
<path d="M71.3992 59.041C71.8422 58.5979 71.8422 57.8797 71.3992 57.4366C70.9561 56.9936 70.2379 56.9936 69.7948 57.4366C69.3518 57.8797 69.3518 58.5979 69.7948 59.041C70.2379 59.484 70.9561 59.484 71.3992 59.041Z" fill="#025382"/>
<path d="M75.4309 63.0727C75.8255 62.6781 75.8255 62.0383 75.4309 61.6437C75.0363 61.249 74.3965 61.2491 74.0019 61.6437C73.6072 62.0383 73.6072 62.6781 74.0019 63.0727C74.3965 63.4673 75.0363 63.4673 75.4309 63.0727Z" fill="#025382"/>
<path d="M79.4593 67.1011C79.8037 66.7568 79.8037 66.1984 79.4593 65.8541C79.115 65.5097 78.5566 65.5097 78.2123 65.8541C77.8679 66.1984 77.8679 66.7568 78.2123 67.1011C78.5566 67.4455 79.115 67.4455 79.4593 67.1011Z" fill="#025382"/>
<path d="M83.4911 71.1329C83.787 70.8369 83.7871 70.3571 83.4911 70.0611C83.1951 69.7651 82.7153 69.7651 82.4193 70.0611C82.1233 70.3571 82.1233 70.8369 82.4193 71.1329C82.7153 71.4289 83.1951 71.4289 83.4911 71.1329Z" fill="#025382"/>
<path d="M87.5229 75.1647C87.7704 74.9171 87.7704 74.5157 87.5229 74.2681C87.2753 74.0206 86.8739 74.0206 86.6263 74.2681C86.3788 74.5157 86.3788 74.9171 86.6263 75.1647C86.8739 75.4122 87.2753 75.4122 87.5229 75.1647Z" fill="#025382"/>
<path d="M91.5513 79.1931C91.7486 78.9958 91.7486 78.6758 91.5513 78.4785C91.3539 78.2812 91.034 78.2812 90.8367 78.4785C90.6394 78.6758 90.6394 78.9958 90.8367 79.1931C91.034 79.3904 91.3539 79.3904 91.5513 79.1931Z" fill="#025382"/>
<path d="M25.6308 5.03376C25.8225 4.84204 25.8225 4.53119 25.6308 4.33946C25.439 4.14773 25.1282 4.14773 24.9365 4.33946C24.7447 4.53119 24.7447 4.84204 24.9365 5.03376C25.1282 5.22549 25.439 5.22549 25.6308 5.03376Z" fill="#025382"/>
<path d="M29.8277 9.23068C30.0622 8.99614 30.0622 8.61588 29.8277 8.38134C29.5931 8.1468 29.2129 8.1468 28.9783 8.38134C28.7438 8.61588 28.7438 8.99614 28.9783 9.23068C29.2129 9.46522 29.5931 9.46522 29.8277 9.23068Z" fill="#025382"/>
<path d="M34.0246 13.4276C34.302 13.1502 34.302 12.7006 34.0246 12.4232C33.7472 12.1459 33.2976 12.1459 33.0202 12.4232C32.7429 12.7006 32.7429 13.1502 33.0202 13.4276C33.2976 13.705 33.7472 13.705 34.0246 13.4276Z" fill="#025382"/>
<path d="M38.2215 17.6245C38.5417 17.3044 38.5417 16.7853 38.2215 16.4651C37.9014 16.1449 37.3823 16.1449 37.0621 16.4651C36.7419 16.7853 36.7419 17.3044 37.0621 17.6245C37.3823 17.9447 37.9014 17.9447 38.2215 17.6245Z" fill="#025382"/>
<path d="M42.4184 21.8214C42.7814 21.4585 42.7814 20.87 42.4184 20.507C42.0555 20.144 41.4669 20.144 41.104 20.507C40.741 20.87 40.741 21.4585 41.104 21.8214C41.4669 22.1844 42.0555 22.1844 42.4184 21.8214Z" fill="#025382"/>
<path d="M46.6154 26.0184C47.0211 25.6126 47.0211 24.9546 46.6153 24.5489C46.2096 24.1431 45.5516 24.1431 45.1459 24.5489C44.7401 24.9546 44.7401 25.6126 45.1458 26.0184C45.5516 26.4242 46.2096 26.4241 46.6154 26.0184Z" fill="#025382"/>
<path d="M50.8123 30.2153C51.2609 29.7667 51.2609 29.0393 50.8123 28.5907C50.3637 28.1421 49.6363 28.1421 49.1877 28.5907C48.7391 29.0393 48.7391 29.7667 49.1877 30.2153C49.6363 30.6639 50.3637 30.6639 50.8123 30.2153Z" fill="#025382"/>
<path d="M55.0092 34.4122C55.5006 33.9208 55.5006 33.124 55.0092 32.6326C54.5178 32.1412 53.721 32.1412 53.2296 32.6326C52.7382 33.124 52.7382 33.9208 53.2296 34.4122C53.721 34.9036 54.5178 34.9036 55.0092 34.4122Z" fill="#025382"/>
<path d="M59.2061 38.6091C59.7403 38.0749 59.7403 37.2087 59.2061 36.6745C58.6719 36.1403 57.8057 36.1403 57.2715 36.6745C56.7373 37.2087 56.7373 38.0749 57.2715 38.6091C57.8057 39.1433 58.6719 39.1433 59.2061 38.6091Z" fill="#025382"/>
<path d="M63.3255 42.7285C63.8597 42.1943 63.8597 41.3281 63.3255 40.7939C62.7913 40.2597 61.9251 40.2597 61.3909 40.7939C60.8567 41.3281 60.8567 42.1943 61.3909 42.7285C61.9251 43.2627 62.7913 43.2627 63.3255 42.7285Z" fill="#025382"/>
<path d="M67.3674 46.7704C67.8588 46.279 67.8588 45.4822 67.3674 44.9908C66.876 44.4994 66.0792 44.4994 65.5878 44.9908C65.0964 45.4822 65.0964 46.279 65.5878 46.7704C66.0792 47.2618 66.876 47.2618 67.3674 46.7704Z" fill="#025382"/>
<path d="M71.4093 50.8123C71.8579 50.3637 71.8579 49.6363 71.4093 49.1877C70.9607 48.7391 70.2333 48.7391 69.7847 49.1877C69.3361 49.6363 69.3361 50.3637 69.7847 50.8123C70.2333 51.2609 70.9607 51.2609 71.4093 50.8123Z" fill="#025382"/>
<path d="M75.4511 54.8542C75.8569 54.4484 75.8569 53.7904 75.4511 53.3847C75.0454 52.9789 74.3874 52.9789 73.9817 53.3847C73.5759 53.7904 73.5759 54.4484 73.9816 54.8542C74.3874 55.2599 75.0454 55.2599 75.4511 54.8542Z" fill="#025382"/>
<path d="M79.493 58.896C79.856 58.5331 79.856 57.9445 79.493 57.5816C79.13 57.2186 78.5415 57.2186 78.1786 57.5816C77.8156 57.9445 77.8156 58.5331 78.1786 58.896C78.5415 59.259 79.13 59.259 79.493 58.896Z" fill="#025382"/>
<path d="M83.5349 62.9379C83.8551 62.6177 83.8551 62.0987 83.5349 61.7785C83.2147 61.4583 82.6957 61.4583 82.3755 61.7785C82.0553 62.0987 82.0553 62.6177 82.3755 62.9379C82.6957 63.2581 83.2147 63.2581 83.5349 62.9379Z" fill="#025382"/>
<path d="M87.5768 66.9798C87.8541 66.7024 87.8541 66.2528 87.5768 65.9754C87.2994 65.698 86.8498 65.698 86.5724 65.9754C86.295 66.2528 86.295 66.7024 86.5724 66.9798C86.8498 67.2571 87.2994 67.2571 87.5768 66.9798Z" fill="#025382"/>
<path d="M91.6187 71.0217C91.8532 70.7871 91.8532 70.4069 91.6187 70.1723C91.3841 69.9378 91.0039 69.9378 90.7693 70.1723C90.5348 70.4069 90.5348 70.7871 90.7693 71.0217C91.0039 71.2562 91.3841 71.2562 91.6187 71.0217Z" fill="#025382"/>
<path d="M95.6605 75.0635C95.8523 74.8718 95.8523 74.561 95.6605 74.3692C95.4688 74.1775 95.158 74.1775 94.9662 74.3692C94.7745 74.561 94.7745 74.8718 94.9662 75.0635C95.158 75.2553 95.4688 75.2553 95.6605 75.0635Z" fill="#025382"/>
<path d="M33.9235 5.08769C34.145 4.86618 34.145 4.50704 33.9235 4.28553C33.702 4.06402 33.3428 4.06402 33.1213 4.28553C32.8998 4.50704 32.8998 4.86618 33.1213 5.08769C33.3428 5.3092 33.702 5.3092 33.9235 5.08769Z" fill="#025382"/>
<path d="M38.1103 9.2745C38.369 9.01576 38.369 8.59626 38.1103 8.33753C37.8516 8.07879 37.4321 8.07879 37.1733 8.33753C36.9146 8.59626 36.9146 9.01576 37.1733 9.2745C37.4321 9.53324 37.8516 9.53324 38.1103 9.2745Z" fill="#025382"/>
<path d="M42.2971 13.4613C42.5931 13.1653 42.5931 12.6855 42.2971 12.3895C42.0011 12.0935 41.5213 12.0935 41.2253 12.3895C40.9293 12.6855 40.9293 13.1653 41.2253 13.4613C41.5213 13.7573 42.0011 13.7573 42.2971 13.4613Z" fill="#025382"/>
<path d="M46.4839 17.6481C46.8171 17.3149 46.8171 16.7747 46.4839 16.4415C46.1507 16.1083 45.6105 16.1083 45.2773 16.4415C44.9441 16.7747 44.9441 17.3149 45.2773 17.6481C45.6105 17.9813 46.1507 17.9813 46.4839 17.6481Z" fill="#025382"/>
<path d="M50.6673 21.8316C51.0359 21.463 51.0359 20.8654 50.6673 20.4969C50.2988 20.1283 49.7012 20.1283 49.3327 20.4969C48.9641 20.8654 48.9641 21.463 49.3327 21.8316C49.7012 22.2001 50.2988 22.2001 50.6673 21.8316Z" fill="#025382"/>
<path d="M54.8541 26.0184C55.2599 25.6126 55.2599 24.9546 54.8542 24.5489C54.4484 24.1431 53.7904 24.1431 53.3846 24.5489C52.9789 24.9546 52.9789 25.6126 53.3847 26.0184C53.7904 26.4241 54.4484 26.4242 54.8541 26.0184Z" fill="#025382"/>
<path d="M59.041 30.2052C59.484 29.7621 59.484 29.0439 59.041 28.6008C58.5979 28.1578 57.8797 28.1578 57.4366 28.6009C56.9936 29.0439 56.9936 29.7621 57.4366 30.2052C57.8797 30.6482 58.5979 30.6482 59.041 30.2052Z" fill="#025382"/>
<path d="M63.2278 34.392C63.708 33.9117 63.708 33.1331 63.2278 32.6528C62.7475 32.1726 61.9689 32.1726 61.4886 32.6528C61.0084 33.1331 61.0084 33.9117 61.4886 34.392C61.9689 34.8722 62.7475 34.8722 63.2278 34.392Z" fill="#025382"/>
<path d="M67.3472 38.5114C67.8274 38.0311 67.8274 37.2525 67.3472 36.7722C66.8669 36.292 66.0883 36.292 65.608 36.7722C65.1278 37.2525 65.1278 38.0311 65.608 38.5114C66.0883 38.9916 66.8669 38.9916 67.3472 38.5114Z" fill="#025382"/>
<path d="M71.3992 42.5634C71.8422 42.1203 71.8422 41.4021 71.3992 40.959C70.9561 40.516 70.2379 40.516 69.7948 40.959C69.3518 41.4021 69.3518 42.1203 69.7948 42.5634C70.2379 43.0064 70.9561 43.0064 71.3992 42.5634Z" fill="#025382"/>
<path d="M75.4511 46.6154C75.8569 46.2096 75.8569 45.5516 75.4511 45.1459C75.0454 44.7401 74.3874 44.7401 73.9816 45.1459C73.5759 45.5516 73.5759 46.2096 73.9817 46.6154C74.3874 47.0211 75.0454 47.0211 75.4511 46.6154Z" fill="#025382"/>
<path d="M79.5031 50.6674C79.8717 50.2988 79.8717 49.7012 79.5031 49.3327C79.1346 48.9641 78.537 48.9641 78.1684 49.3327C77.7999 49.7012 77.7999 50.2988 78.1684 50.6673C78.537 51.0359 79.1346 51.0359 79.5031 50.6674Z" fill="#025382"/>
<path d="M83.5585 54.7227C83.8917 54.3895 83.8917 53.8493 83.5585 53.5161C83.2253 53.1829 82.6851 53.1829 82.3519 53.5161C82.0187 53.8493 82.0187 54.3895 82.3519 54.7227C82.6851 55.0559 83.2253 55.0559 83.5585 54.7227Z" fill="#025382"/>
<path d="M87.6105 58.7747C87.9065 58.4787 87.9065 57.9989 87.6105 57.7029C87.3145 57.4069 86.8347 57.4069 86.5387 57.7029C86.2427 57.9989 86.2427 58.4787 86.5387 58.7747C86.8347 59.0707 87.3145 59.0707 87.6105 58.7747Z" fill="#025382"/>
<path d="M91.6625 62.8267C91.9212 62.568 91.9212 62.1485 91.6625 61.8897C91.4037 61.631 90.9842 61.631 90.7255 61.8897C90.4668 62.1485 90.4668 62.568 90.7255 62.8267C90.9842 63.0854 91.4037 63.0854 91.6625 62.8267Z" fill="#025382"/>
<path d="M95.7145 66.8787C95.936 66.6572 95.936 66.298 95.7145 66.0765C95.493 65.855 95.1338 65.855 94.9123 66.0765C94.6908 66.298 94.6908 66.6572 94.9123 66.8787C95.1338 67.1002 95.493 67.1002 95.7145 66.8787Z" fill="#025382"/>
<path d="M38.0227 0.94807C38.233 0.737728 38.233 0.396696 38.0227 0.186354C37.8123 -0.0239873 37.4713 -0.023986 37.2609 0.186356C37.0506 0.396697 37.0506 0.73773 37.2609 0.948072C37.4713 1.15841 37.8123 1.15841 38.0227 0.94807Z" fill="#025382"/>
<path d="M42.196 5.1214C42.4361 4.88127 42.4361 4.49195 42.196 4.25183C41.9559 4.01171 41.5665 4.0117 41.3264 4.25183C41.0863 4.49195 41.0863 4.88127 41.3264 5.12139C41.5665 5.36152 41.9559 5.36152 42.196 5.1214Z" fill="#025382"/>
<path d="M46.3727 9.29809C46.6445 9.02632 46.6445 8.5857 46.3727 8.31393C46.1009 8.04216 45.6603 8.04216 45.3885 8.31393C45.1168 8.5857 45.1167 9.02633 45.3885 9.29809C45.6603 9.56986 46.1009 9.56986 46.3727 9.29809Z" fill="#025382"/>
<path d="M50.546 13.4714C50.8476 13.1699 50.8476 12.681 50.546 12.3794C50.2445 12.0779 49.7555 12.0779 49.454 12.3794C49.1524 12.681 49.1524 13.1699 49.454 13.4714C49.7555 13.773 50.2445 13.773 50.546 13.4714Z" fill="#025382"/>
<path d="M54.7227 17.6481C55.0559 17.3149 55.0559 16.7747 54.7227 16.4415C54.3895 16.1083 53.8493 16.1083 53.5161 16.4415C53.1829 16.7747 53.1829 17.3149 53.5161 17.6481C53.8493 17.9813 54.3895 17.9813 54.7227 17.6481Z" fill="#025382"/>
<path d="M58.896 21.8214C59.259 21.4585 59.259 20.87 58.896 20.507C58.5331 20.144 57.9445 20.144 57.5816 20.507C57.2186 20.87 57.2186 21.4585 57.5816 21.8214C57.9445 22.1844 58.5331 22.1844 58.896 21.8214Z" fill="#025382"/>
<path d="M63.0727 25.9981C63.4673 25.6035 63.4673 24.9637 63.0727 24.5691C62.6781 24.1745 62.0383 24.1745 61.6437 24.5691C61.2491 24.9637 61.2491 25.6035 61.6437 25.9981C62.0383 26.3928 62.6781 26.3928 63.0727 25.9981Z" fill="#025382"/>
<path d="M67.2461 30.1715C67.6705 29.7471 67.6705 29.059 67.246 28.6346C66.8216 28.2101 66.1336 28.2101 65.7091 28.6346C65.2847 29.059 65.2847 29.7471 65.7091 30.1715C66.1336 30.5959 66.8216 30.5959 67.2461 30.1715Z" fill="#025382"/>
<path d="M71.3655 34.2909C71.7899 33.8665 71.7899 33.1784 71.3655 32.754C70.941 32.3295 70.2529 32.3295 69.8285 32.7539C69.4041 33.1784 69.4041 33.8665 69.8285 34.2909C70.2529 34.7153 70.941 34.7153 71.3655 34.2909Z" fill="#025382"/>
<path d="M75.4309 38.3563C75.8255 37.9617 75.8255 37.3219 75.4309 36.9273C75.0363 36.5327 74.3965 36.5327 74.0019 36.9273C73.6072 37.3219 73.6072 37.9617 74.0019 38.3563C74.3965 38.751 75.0363 38.751 75.4309 38.3563Z" fill="#025382"/>
<path d="M79.493 42.4184C79.856 42.0555 79.856 41.4669 79.493 41.104C79.13 40.741 78.5415 40.741 78.1786 41.104C77.8156 41.4669 77.8156 42.0555 78.1786 42.4184C78.5415 42.7814 79.13 42.7814 79.493 42.4184Z" fill="#025382"/>
<path d="M83.5585 46.4839C83.8917 46.1507 83.8917 45.6105 83.5585 45.2773C83.2253 44.9441 82.6851 44.9441 82.3519 45.2773C82.0187 45.6105 82.0187 46.1507 82.3519 46.4839C82.6851 46.8171 83.2253 46.8171 83.5585 46.4839Z" fill="#025382"/>
<path d="M87.6206 50.546C87.9221 50.2445 87.9221 49.7555 87.6206 49.454C87.319 49.1524 86.8301 49.1524 86.5286 49.454C86.227 49.7555 86.227 50.2445 86.5286 50.546C86.8301 50.8476 87.319 50.8476 87.6206 50.546Z" fill="#025382"/>
<path d="M91.6861 54.6115C91.9578 54.3397 91.9578 53.8991 91.6861 53.6273C91.4143 53.3556 90.9737 53.3556 90.7019 53.6273C90.4301 53.8991 90.4301 54.3397 90.7019 54.6115C90.9737 54.8833 91.4143 54.8833 91.6861 54.6115Z" fill="#025382"/>
<path d="M95.7482 58.6736C95.9883 58.4335 95.9883 58.0441 95.7482 57.804C95.508 57.5639 95.1187 57.5639 94.8786 57.804C94.6385 58.0441 94.6385 58.4335 94.8786 58.6736C95.1187 58.9137 95.508 58.9137 95.7482 58.6736Z" fill="#025382"/>
<path d="M99.8137 62.7391C100.024 62.5287 100.024 62.1877 99.8137 61.9773C99.6033 61.767 99.2623 61.767 99.0519 61.9773C98.8416 62.1877 98.8416 62.5287 99.0519 62.7391C99.2623 62.9494 99.6033 62.9494 99.8137 62.7391Z" fill="#025382"/>
<path d="M46.2817 0.96829C46.5032 0.74678 46.5032 0.387645 46.2817 0.166135C46.0602 -0.0553753 45.701 -0.0553798 45.4795 0.16613C45.258 0.387641 45.258 0.746781 45.4795 0.968291C45.701 1.1898 46.0602 1.1898 46.2817 0.96829Z" fill="#025382"/>
<path d="M50.4483 5.13487C50.6958 4.8873 50.6958 4.48592 50.4483 4.23835C50.2007 3.99078 49.7993 3.99077 49.5517 4.23834C49.3042 4.48591 49.3042 4.88731 49.5517 5.13488C49.7993 5.38245 50.2007 5.38244 50.4483 5.13487Z" fill="#025382"/>
<path d="M54.6115 9.29809C54.8833 9.02632 54.8833 8.5857 54.6115 8.31393C54.3397 8.04216 53.8991 8.04216 53.6273 8.31393C53.3556 8.5857 53.3556 9.02632 53.6273 9.29809C53.8991 9.56986 54.3397 9.56986 54.6115 9.29809Z" fill="#025382"/>
<path d="M58.7747 13.4613C59.0707 13.1653 59.0707 12.6855 58.7747 12.3895C58.4787 12.0935 57.9989 12.0935 57.7029 12.3895C57.4069 12.6855 57.4069 13.1653 57.7029 13.4613C57.9989 13.7573 58.4787 13.7573 58.7747 13.4613Z" fill="#025382"/>
<path d="M62.9379 17.6245C63.2581 17.3044 63.2581 16.7853 62.9379 16.4651C62.6177 16.1449 62.0987 16.1449 61.7785 16.4651C61.4583 16.7853 61.4583 17.3044 61.7785 17.6245C62.0987 17.9447 62.6177 17.9447 62.9379 17.6245Z" fill="#025382"/>
<path d="M67.1011 21.7877C67.4455 21.4434 67.4455 20.885 67.1011 20.5407C66.7568 20.1963 66.1984 20.1963 65.8541 20.5407C65.5097 20.885 65.5097 21.4434 65.8541 21.7877C66.1984 22.1321 66.7568 22.1321 67.1011 21.7877Z" fill="#025382"/>
<path d="M71.2643 25.9509C71.6329 25.5824 71.6329 24.9848 71.2643 24.6163C70.8958 24.2477 70.2982 24.2477 69.9297 24.6163C69.5611 24.9848 69.5611 25.5824 69.9296 25.951C70.2982 26.3195 70.8958 26.3195 71.2643 25.9509Z" fill="#025382"/>
<path d="M75.3837 30.0703C75.7523 29.7018 75.7523 29.1042 75.3837 28.7357C75.0152 28.3671 74.4176 28.3671 74.0491 28.7357C73.6805 29.1042 73.6805 29.7018 74.0491 30.0704C74.4176 30.4389 75.0152 30.4389 75.3837 30.0703Z" fill="#025382"/>
<path d="M79.4593 34.1459C79.8037 33.8016 79.8037 33.2432 79.4593 32.8989C79.115 32.5545 78.5566 32.5545 78.2123 32.8989C77.8679 33.2432 77.8679 33.8016 78.2123 34.1459C78.5566 34.4903 79.115 34.4903 79.4593 34.1459Z" fill="#025382"/>
<path d="M83.5349 38.2215C83.8551 37.9013 83.8551 37.3823 83.5349 37.0621C83.2147 36.7419 82.6957 36.7419 82.3755 37.0621C82.0553 37.3823 82.0553 37.9013 82.3755 38.2215C82.6957 38.5417 83.2147 38.5417 83.5349 38.2215Z" fill="#025382"/>
<path d="M87.6105 42.2971C87.9065 42.0011 87.9065 41.5213 87.6105 41.2253C87.3145 40.9293 86.8347 40.9293 86.5387 41.2253C86.2427 41.5213 86.2427 42.0011 86.5387 42.2971C86.8347 42.5931 87.3145 42.5931 87.6105 42.2971Z" fill="#025382"/>
<path d="M91.6861 46.3727C91.9578 46.1009 91.9578 45.6603 91.6861 45.3885C91.4143 45.1168 90.9737 45.1167 90.7019 45.3885C90.4301 45.6603 90.4301 46.1009 90.7019 46.3727C90.9737 46.6445 91.4143 46.6445 91.6861 46.3727Z" fill="#025382"/>
<path d="M95.7617 50.4483C96.0092 50.2007 96.0092 49.7993 95.7617 49.5517C95.5141 49.3042 95.1127 49.3042 94.8651 49.5517C94.6176 49.7993 94.6176 50.2007 94.8651 50.4483C95.1127 50.6958 95.5141 50.6958 95.7617 50.4483Z" fill="#025382"/>
<path d="M99.8339 54.5205C100.055 54.299 100.055 53.9398 99.8339 53.7183C99.6124 53.4968 99.2532 53.4968 99.0317 53.7183C98.8102 53.9398 98.8102 54.299 99.0317 54.5205C99.2532 54.742 99.6124 54.742 99.8339 54.5205Z" fill="#025382"/>
<path d="M54.5205 0.968293C54.742 0.746782 54.742 0.387643 54.5205 0.166133C54.299 -0.0553772 53.9398 -0.0553772 53.7183 0.166133C53.4968 0.387643 53.4968 0.746784 53.7183 0.968294C53.9398 1.1898 54.299 1.1898 54.5205 0.968293Z" fill="#025382"/>
<path d="M58.6736 5.1214C58.9137 4.88127 58.9137 4.49195 58.6736 4.25183C58.4335 4.0117 58.0441 4.0117 57.804 4.25183C57.5639 4.49195 57.5639 4.88127 57.804 5.12139C58.0441 5.36152 58.4335 5.36152 58.6736 5.1214Z" fill="#025382"/>
<path d="M62.8267 9.2745C63.0854 9.01576 63.0854 8.59626 62.8267 8.33752C62.5679 8.07878 62.1484 8.07878 61.8897 8.33752C61.631 8.59626 61.631 9.01576 61.8897 9.2745C62.1484 9.53324 62.5679 9.53324 62.8267 9.2745Z" fill="#025382"/>
<path d="M66.9798 13.4276C67.2571 13.1503 67.2571 12.7006 66.9798 12.4232C66.7024 12.1459 66.2528 12.1459 65.9754 12.4232C65.6981 12.7006 65.6981 13.1503 65.9754 13.4276C66.2528 13.705 66.7024 13.705 66.9798 13.4276Z" fill="#025382"/>
<path d="M71.1329 17.5807C71.4289 17.2847 71.4289 16.8049 71.1329 16.5089C70.8369 16.2129 70.3571 16.2129 70.0611 16.5089C69.7651 16.8049 69.7651 17.2847 70.0611 17.5807C70.3571 17.8767 70.8369 17.8767 71.1329 17.5807Z" fill="#025382"/>
<path d="M75.286 21.7338C75.6006 21.4192 75.6006 20.9092 75.286 20.5946C74.9714 20.28 74.4614 20.28 74.1468 20.5946C73.8322 20.9092 73.8322 21.4192 74.1468 21.7338C74.4614 22.0484 74.9714 22.0484 75.286 21.7338Z" fill="#025382"/>
<path d="M79.4054 25.8532C79.72 25.5386 79.72 25.0286 79.4054 24.714C79.0908 24.3994 78.5808 24.3994 78.2662 24.714C77.9516 25.0286 77.9516 25.5386 78.2662 25.8532C78.5808 26.1678 79.0908 26.1678 79.4054 25.8532Z" fill="#025382"/>
<path d="M83.4911 29.9389C83.7871 29.6429 83.787 29.1631 83.4911 28.8671C83.1951 28.5711 82.7153 28.5711 82.4193 28.8671C82.1233 29.1631 82.1233 29.6429 82.4193 29.9389C82.7153 30.2349 83.1951 30.2349 83.4911 29.9389Z" fill="#025382"/>
<path d="M87.5768 34.0246C87.8541 33.7472 87.8541 33.2976 87.5768 33.0202C87.2994 32.7429 86.8498 32.7429 86.5724 33.0202C86.295 33.2976 86.295 33.7472 86.5724 34.0246C86.8498 34.302 87.2994 34.302 87.5768 34.0246Z" fill="#025382"/>
<path d="M91.6625 38.1103C91.9212 37.8516 91.9212 37.4321 91.6625 37.1733C91.4037 36.9146 90.9842 36.9146 90.7255 37.1733C90.4668 37.4321 90.4668 37.8516 90.7255 38.1103C90.9842 38.369 91.4037 38.369 91.6625 38.1103Z" fill="#025382"/>
<path d="M95.7482 42.196C95.9883 41.9559 95.9883 41.5665 95.7482 41.3264C95.508 41.0863 95.1187 41.0863 94.8786 41.3264C94.6385 41.5665 94.6385 41.9559 94.8786 42.196C95.1187 42.4361 95.508 42.4361 95.7482 42.196Z" fill="#025382"/>
<path d="M99.8339 46.2817C100.055 46.0602 100.055 45.701 99.8339 45.4795C99.6124 45.258 99.2532 45.258 99.0317 45.4795C98.8102 45.701 98.8102 46.0602 99.0317 46.2817C99.2532 46.5032 99.6124 46.5032 99.8339 46.2817Z" fill="#025382"/>
<path d="M62.7391 0.948068C62.9494 0.737727 62.9494 0.396699 62.7391 0.186357C62.5287 -0.0239844 62.1877 -0.0239883 61.9773 0.186353C61.767 0.396695 61.767 0.737728 61.9773 0.94807C62.1877 1.15841 62.5287 1.15841 62.7391 0.948068Z" fill="#025382"/>
<path d="M66.8787 5.08769C67.1002 4.86618 67.1002 4.50704 66.8787 4.28553C66.6572 4.06402 66.298 4.06402 66.0765 4.28553C65.855 4.50704 65.855 4.86618 66.0765 5.08769C66.298 5.3092 66.6572 5.3092 66.8787 5.08769Z" fill="#025382"/>
<path d="M71.0217 9.23068C71.2562 8.99614 71.2562 8.61588 71.0217 8.38134C70.7871 8.1468 70.4069 8.1468 70.1723 8.38134C69.9378 8.61588 69.9378 8.99615 70.1723 9.23069C70.4069 9.46523 70.7871 9.46522 71.0217 9.23068Z" fill="#025382"/>
<path d="M75.1647 13.3737C75.4122 13.1261 75.4122 12.7247 75.1647 12.4771C74.9171 12.2296 74.5157 12.2296 74.2681 12.4771C74.0206 12.7247 74.0206 13.1261 74.2681 13.3737C74.5157 13.6212 74.9171 13.6212 75.1647 13.3737Z" fill="#025382"/>
<path d="M79.3043 17.5133C79.563 17.2546 79.563 16.8351 79.3043 16.5763C79.0455 16.3176 78.6261 16.3176 78.3673 16.5763C78.1086 16.8351 78.1086 17.2546 78.3673 17.5133C78.6261 17.772 79.0455 17.772 79.3043 17.5133Z" fill="#025382"/>
<path d="M83.4237 21.6327C83.6824 21.374 83.6824 20.9545 83.4237 20.6957C83.1649 20.437 82.7454 20.437 82.4867 20.6957C82.228 20.9545 82.228 21.374 82.4867 21.6327C82.7454 21.8914 83.1649 21.8914 83.4237 21.6327Z" fill="#025382"/>
<path d="M87.5229 25.7319C87.7704 25.4843 87.7704 25.0829 87.5229 24.8353C87.2753 24.5878 86.8739 24.5878 86.6263 24.8353C86.3788 25.0829 86.3788 25.4843 86.6263 25.7319C86.8739 25.9794 87.2753 25.9794 87.5229 25.7319Z" fill="#025382"/>
<path d="M91.6187 29.8277C91.8532 29.5931 91.8532 29.2129 91.6187 28.9783C91.3841 28.7438 91.0039 28.7438 90.7693 28.9783C90.5348 29.2129 90.5348 29.5931 90.7693 29.8277C91.0039 30.0622 91.3841 30.0622 91.6187 29.8277Z" fill="#025382"/>
<path d="M95.7145 33.9235C95.936 33.702 95.936 33.3428 95.7145 33.1213C95.493 32.8998 95.1338 32.8998 94.9123 33.1213C94.6908 33.3428 94.6908 33.702 94.9123 33.9235C95.1338 34.145 95.493 34.145 95.7145 33.9235Z" fill="#025382"/>
<path d="M99.8137 38.0227C100.024 37.8123 100.024 37.4713 99.8137 37.2609C99.6033 37.0506 99.2623 37.0506 99.0519 37.2609C98.8416 37.4713 98.8416 37.8123 99.0519 38.0227C99.2623 38.233 99.6033 38.233 99.8137 38.0227Z" fill="#025382"/>
<path d="M75.0635 5.03377C75.2553 4.84204 75.2553 4.53119 75.0635 4.33946C74.8718 4.14773 74.561 4.14773 74.3692 4.33946C74.1775 4.53119 74.1775 4.84204 74.3692 5.03377C74.561 5.22549 74.8718 5.22549 75.0635 5.03377Z" fill="#025382"/>
<path d="M79.1931 9.16328C79.3904 8.96597 79.3904 8.64606 79.1931 8.44875C78.9957 8.25144 78.6758 8.25144 78.4785 8.44875C78.2812 8.64606 78.2812 8.96596 78.4785 9.16328C78.6758 9.36059 78.9958 9.36059 79.1931 9.16328Z" fill="#025382"/>
<path d="M83.3259 13.2962C83.5307 13.0914 83.5307 12.7594 83.3259 12.5547C83.1212 12.3499 82.7892 12.3499 82.5844 12.5547C82.3797 12.7594 82.3797 13.0914 82.5844 13.2962C82.7892 13.5009 83.1212 13.5009 83.3259 13.2962Z" fill="#025382"/>
<path d="M87.4453 17.4156C87.6501 17.2108 87.6501 16.8788 87.4453 16.6741C87.2406 16.4693 86.9086 16.4693 86.7038 16.6741C86.4991 16.8788 86.4991 17.2108 86.7038 17.4156C86.9086 17.6203 87.2406 17.6203 87.4453 17.4156Z" fill="#025382"/>
<path d="M91.5513 21.5215C91.7486 21.3242 91.7486 21.0043 91.5513 20.8069C91.3539 20.6096 91.034 20.6096 90.8367 20.8069C90.6394 21.0043 90.6394 21.3242 90.8367 21.5215C91.034 21.7188 91.3539 21.7188 91.5513 21.5215Z" fill="#025382"/>
<path d="M95.6605 25.6308C95.8523 25.439 95.8523 25.1282 95.6605 24.9365C95.4688 24.7447 95.158 24.7447 94.9662 24.9365C94.7745 25.1282 94.7745 25.439 94.9662 25.6308C95.158 25.8225 95.4688 25.8225 95.6605 25.6308Z" fill="#025382"/>
</svg>
