<svg width="171" height="252" viewBox="0 0 171 252" fill="none" xmlns="http://www.w3.org/2000/svg">
<path d="M18.912 14.68L20.576 13.656C21.152 14.872 21.632 15.704 22.368 16.792C23.488 15.672 24.224 14.744 25.088 13.496L26.688 14.744C26.752 14.776 26.976 14.968 26.976 15.128C26.976 15.384 26.688 15.416 26.112 15.48C25.184 16.568 24.224 17.528 23.456 18.296C24 19 24.448 19.512 24.96 20.056C26.432 18.68 27.168 17.912 28.32 16.504L29.92 17.816C30.016 17.88 30.144 18.008 30.144 18.168C30.144 18.424 29.888 18.424 29.248 18.456C28 19.704 27.904 19.8 26.24 21.336C28 22.936 29.408 23.864 30.24 24.408L28.32 25.912C23.936 22.488 21.248 19.384 18.912 14.68ZM13.824 22.424H24.096V24.6H13.6V22.744C11.776 24.632 10.72 25.688 9.76 26.424L8.256 24.6C10.112 23.32 11.456 22.136 12.928 20.408C12.544 19.864 11.904 18.904 10.016 17.336L11.264 15.768C12.384 16.6 13.312 17.624 14.24 18.68C15.2 17.432 15.744 16.536 16.32 15.256H9.408V13.272H18.336L19.008 14.104C18.272 16.376 16.704 19.224 13.824 22.424ZM12.16 33.592V26.744H25.504V33.592H12.16ZM23.264 31.672V28.664H14.4V31.672H23.264ZM3.168 15.672L4.16 13.656C6.144 14.424 7.552 15.288 8.672 16.088L7.584 18.008C6.272 17.176 4.576 16.344 3.168 15.672ZM1.504 24.664L2.496 22.584C3.552 23 5.6 23.832 6.912 24.92L5.824 26.936C4.48 25.944 3.232 25.272 1.504 24.664ZM7.744 28.824L9.408 30.424C8.16 33.176 6.72 36.28 4.832 40.024C4.896 40.216 4.928 40.376 4.928 40.632C4.928 40.728 4.928 41.08 4.64 41.08C4.48 41.08 4.224 40.888 4.192 40.856L2.08 39.416C4.096 36.44 5.664 33.496 7.744 28.824ZM22.656 38.168L20.736 37.432C21.408 36.504 22.048 35.448 22.656 33.848L24.544 34.776C24.704 34.84 24.928 34.968 24.928 35.128C24.928 35.416 24.64 35.48 24.16 35.576C23.296 37.208 23.2 37.368 22.656 38.168ZM15.84 38.264H29.92V40.344H8.672V38.264H15.36C14.688 37.08 14.016 36.248 13.024 35.096L14.688 33.912C15.872 35.192 16.576 36.152 17.28 37.272L15.84 38.264ZM51.2 23.96C52.736 23.96 54.08 25.208 54.08 26.84C54.08 28.44 52.768 29.72 51.2 29.72C49.6 29.72 48.352 28.408 48.352 26.84C48.352 25.24 49.632 23.96 51.2 23.96ZM89.664 18.072H81.92V39H79.008V18.072H71.296V15.64H89.664V18.072ZM114.812 15.64L106.204 29.336V39H103.228V29.336L94.6202 15.64H97.9802L104.732 26.712L111.484 15.64H114.812ZM141.135 27.32C141.135 34.808 137.007 39.64 131.023 39.64C125.007 39.64 120.879 34.776 120.879 27.32C120.879 19.896 124.975 15 131.023 15C137.039 15 141.135 19.896 141.135 27.32ZM138.127 27.32C138.127 21.528 135.503 17.4 131.023 17.4C126.543 17.4 123.919 21.496 123.919 27.32C123.919 33.144 126.543 37.24 131.023 37.24C135.535 37.24 138.127 33.08 138.127 27.32ZM167.976 30.552C167.976 35.448 164.744 39.64 158.6 39.64C149.8 39.64 149 32.536 149 30.552V15.64H151.912V30.968C151.912 33.912 153.64 37.24 158.408 37.24C164.584 37.24 165.064 32.408 165.064 30.968V15.64H167.976V30.552Z" fill="white"/>
<path d="M9.216 145.96C9.152 145.96 9.104 145.912 9.072 145.816C8.976 145.56 8.656 145.24 8.464 144.952C8.4 144.872 8.4 144.84 8.512 144.856C8.832 144.904 9.136 144.936 9.392 144.936C9.936 144.936 10.32 144.792 10.336 144.328V143.832C10.336 143.352 10.336 142.664 10.32 141.96C9.728 141.976 8.976 141.992 8.128 142.024C8.08 142.04 8.016 142.008 8.016 141.944C8 141.752 8 141.384 8.016 141.224C8.016 141.128 8.064 141.096 8.128 141.096C9.024 141.16 9.744 141.192 10.32 141.208V140.584C10.32 140.248 10.304 139.864 10.304 139.448C9.52 139.448 8.608 139.48 7.376 139.56C7.296 139.56 7.232 139.544 7.232 139.448C7.216 139.288 7.216 138.92 7.232 138.744C7.232 138.616 7.264 138.616 7.36 138.616C8.608 138.696 9.504 138.728 10.288 138.728C10.288 138.072 10.256 137.464 10.24 137.128C9.744 137.144 9.136 137.176 8.432 137.224C8.368 137.224 8.32 137.208 8.32 137.112C8.304 136.952 8.304 136.68 8.304 136.488C8.176 136.632 8.064 136.792 7.936 136.92C7.904 136.968 7.824 137 7.76 136.968C7.36 136.792 7.264 136.728 7.024 136.68C6.928 136.648 6.896 136.632 6.992 136.568C8.464 135.384 9.36 132.952 9.568 132.008C9.584 131.944 9.616 131.928 9.68 131.944C9.936 132.008 10.352 132.152 10.688 132.328C10.768 132.36 10.8 132.408 10.8 132.44C10.8 132.504 10.72 132.568 10.608 132.616C10.48 132.696 10.336 132.776 10.288 132.904C10.224 133.064 10.112 133.336 9.952 133.672C10.768 133.672 11.392 133.656 11.744 133.64C11.856 133.64 11.952 133.464 12.064 133.496C12.208 133.56 12.624 133.848 12.704 133.912C12.752 133.96 12.768 134.008 12.768 134.056C12.768 134.12 12.72 134.168 12.608 134.216C12.48 134.28 12.384 134.456 12.304 134.584C12.112 134.952 11.648 135.8 11.312 136.392C11.744 136.392 12.784 136.376 13.648 136.296C13.792 136.296 13.808 136.312 13.792 136.456C13.744 136.888 13.712 137.784 13.712 138.696C14.16 138.68 14.624 138.648 15.12 138.616C15.2 138.616 15.248 138.648 15.248 138.744C15.264 138.888 15.264 139.288 15.248 139.464C15.248 139.528 15.184 139.56 15.12 139.56C14.624 139.528 14.16 139.496 13.712 139.48C13.728 140.472 13.76 141.8 13.808 142.408C13.808 142.504 13.792 142.536 13.648 142.552C13.536 142.568 13.168 142.584 13.024 142.568C12.896 142.552 12.864 142.52 12.864 142.424C12.864 142.296 12.88 142.136 12.88 141.96L11.552 141.944H11.152C11.184 143.08 11.216 144.136 11.216 144.52C11.216 145.288 10.72 145.992 9.216 145.96ZM1.2 137.72C1.184 137.544 1.184 137.256 1.2 137.128C1.216 137.032 1.232 137 1.296 137C1.936 137.032 3.168 137.08 4.064 137.096V136.04C3.568 136.04 3.216 136.04 2.32 136.12C2.256 136.12 2.192 136.104 2.192 136.008C2.176 135.848 2.176 135.592 2.192 135.448C2.192 135.352 2.24 135.336 2.304 135.336C3.2 135.416 3.536 135.432 4.064 135.432V134.44C3.424 134.44 2.896 134.456 1.728 134.536H1.712C1.664 134.536 1.632 134.504 1.616 134.44V133.8C1.632 133.688 1.648 133.688 1.728 133.688C2.912 133.784 3.408 133.784 4.064 133.784C4.048 133.064 4.016 132.744 3.936 132.12V132.056C3.936 132.008 3.952 131.976 4.032 131.976C4.256 131.992 4.768 132.088 5.12 132.232C5.216 132.264 5.248 132.312 5.248 132.36C5.248 132.424 5.168 132.52 5.088 132.648C4.96 132.808 4.928 132.936 4.912 133.784C5.568 133.784 6.128 133.784 7.232 133.688C7.312 133.688 7.344 133.704 7.344 133.784C7.36 133.928 7.36 134.296 7.344 134.456C7.344 134.52 7.296 134.552 7.248 134.536C6.16 134.456 5.552 134.44 4.912 134.44V135.432C5.36 135.432 5.696 135.416 6.56 135.336C6.624 135.336 6.672 135.352 6.688 135.448V136.008C6.672 136.088 6.64 136.136 6.56 136.12C5.712 136.04 5.376 136.04 4.912 136.04V137.096C5.664 137.08 6.432 137.064 7.584 136.984H7.616C7.664 136.984 7.696 137.016 7.696 137.096C7.712 137.224 7.712 137.592 7.696 137.752C7.696 137.816 7.648 137.848 7.584 137.848C6.224 137.752 5.296 137.752 4.432 137.752C3.584 137.752 2.208 137.816 1.312 137.848C1.232 137.848 1.2 137.784 1.2 137.72ZM2.224 145.848C2.288 144.632 2.32 143.704 2.336 141.688C2.336 141.032 2.336 139.816 2.256 138.744C2.256 138.616 2.256 138.6 2.416 138.6C3.2 138.648 3.664 138.68 4.384 138.68C5.088 138.68 5.632 138.648 6.512 138.6C6.624 138.6 6.64 138.632 6.64 138.744C6.592 139.448 6.576 140.072 6.576 140.6C6.576 141.048 6.592 141.416 6.592 141.704C6.592 142.92 6.672 143.944 6.672 144.536C6.672 145.368 6.272 145.96 4.784 145.96C4.72 145.96 4.672 145.928 4.64 145.832C4.592 145.624 4.304 145.288 4.096 145.048C4.032 144.968 4.048 144.936 4.16 144.952C4.464 145 4.72 145.032 4.944 145.032C5.504 145.032 5.792 144.84 5.792 144.408C5.792 143.96 5.792 143.464 5.776 142.984L4.432 142.968C4.144 142.968 3.568 142.984 3.168 142.984C3.168 144.152 3.168 145 3.2 145.864C3.2 145.944 3.152 145.976 3.072 145.976C2.896 145.992 2.56 145.992 2.336 145.976C2.256 145.976 2.208 145.944 2.224 145.848ZM3.168 142.264C3.568 142.28 4.176 142.296 4.432 142.296C4.72 142.296 5.376 142.28 5.776 142.264C5.76 142.056 5.76 141.864 5.76 141.704V141.176L4.432 141.16C4.128 141.16 3.552 141.176 3.168 141.176V142.264ZM3.184 140.44C3.568 140.456 4.16 140.472 4.416 140.472L5.744 140.456C5.744 139.992 5.728 139.56 5.728 139.352H3.2C3.2 139.464 3.184 139.928 3.184 140.44ZM8.448 136.28H8.464C9.296 136.344 9.968 136.376 10.464 136.376C10.736 135.848 11.216 134.904 11.392 134.408C10.96 134.408 10.176 134.424 9.584 134.424C9.264 135.032 8.88 135.704 8.448 136.28ZM11.136 140.584C11.136 140.792 11.136 141 11.152 141.208H11.552C11.888 141.208 12.48 141.192 12.896 141.192V139.464C12.224 139.448 11.632 139.448 11.136 139.448V140.584ZM11.136 138.728C11.648 138.728 12.24 138.728 12.896 138.712V137.112H11.376C11.376 137.112 11.392 137.128 11.392 137.144C11.392 137.176 11.344 137.224 11.264 137.288C11.136 137.368 11.152 137.464 11.136 137.688V138.728ZM22.864 145.8C22.64 145.544 22.288 145.4 22.096 145.304C22.016 145.256 21.984 145.224 21.984 145.192C21.984 145.16 22.032 145.144 22.096 145.112C23.904 144.568 25.216 143.432 26.16 142.12C25.328 140.84 24.848 139.48 24.576 138.344C24.576 138.296 24.56 138.232 24.64 138.2C24.784 138.12 25.168 138.04 25.344 138.024C25.424 138.024 25.456 138.088 25.456 138.12C25.68 139.08 26.048 140.2 26.72 141.288C27.472 139.992 27.92 138.616 28.128 137.56H26.752C25.744 137.576 25.312 137.576 24.144 137.656H24.112C24.064 137.656 24.016 137.624 24 137.544C23.984 137.384 23.984 136.952 24 136.792C24.016 136.68 24.08 136.664 24.144 136.68C25.312 136.76 25.728 136.776 26.752 136.776C27.376 136.776 28.192 136.744 28.384 136.744C28.624 136.728 28.656 136.552 28.816 136.648C28.944 136.712 29.216 136.872 29.376 137.016C29.44 137.08 29.472 137.128 29.472 137.176C29.472 137.24 29.408 137.288 29.344 137.352C29.216 137.48 29.136 137.544 29.088 137.784C28.768 139.064 28.192 140.632 27.264 142.088C28.16 143.256 29.456 144.328 31.28 145.032C31.376 145.064 31.392 145.112 31.28 145.176C31.088 145.288 30.608 145.432 30.336 145.72C30.304 145.752 30.272 145.768 30.24 145.768C30.192 145.768 30.16 145.752 30.112 145.72C28.656 144.968 27.552 143.976 26.72 142.888C25.792 144.12 24.592 145.192 23.072 145.8C22.992 145.832 22.928 145.864 22.864 145.8ZM16.896 143.992C18.08 143.064 18.768 141.608 18.864 141.096C18.864 141 18.912 140.936 19.008 140.968C19.2 141.016 19.664 141.176 19.84 141.288C19.92 141.336 19.968 141.384 19.968 141.432C19.968 141.512 19.904 141.576 19.792 141.608C19.616 141.672 19.536 141.848 19.408 142.12C19.152 142.632 18.544 143.752 17.888 144.36C17.824 144.424 17.776 144.456 17.696 144.392C17.504 144.264 17.152 144.168 16.944 144.12C16.864 144.104 16.8 144.072 16.896 143.992ZM17.792 140.136C17.776 139.96 17.776 139.608 17.792 139.496C17.792 139.368 17.856 139.352 17.936 139.352C18.88 139.432 19.76 139.464 20.432 139.464V137.016C20.416 136.312 20.416 135.976 20.336 135.4C20.32 135.336 20.336 135.32 20.4 135.32C20.576 135.32 21.136 135.4 21.504 135.512C21.6 135.544 21.648 135.592 21.648 135.656C21.648 135.72 21.6 135.8 21.504 135.928C21.36 136.088 21.344 136.216 21.344 137V137.096C21.904 137.096 22.624 137.096 23.36 137H23.408C23.456 137 23.52 137.016 23.536 137.128C23.552 137.176 23.552 137.288 23.552 137.4C23.552 137.56 23.552 137.736 23.536 137.832C23.52 137.912 23.472 137.944 23.424 137.928C22.704 137.864 21.92 137.848 21.344 137.848V139.464C22.032 139.464 22.944 139.448 23.968 139.368H24C24.032 139.368 24.096 139.4 24.096 139.48C24.112 139.656 24.112 139.976 24.096 140.152C24.096 140.232 24.016 140.264 23.968 140.248C23.12 140.184 22.288 140.168 21.664 140.152C21.632 140.216 21.568 140.264 21.504 140.328C21.44 140.424 21.456 140.632 21.456 140.632C21.456 140.632 21.488 144.28 21.504 144.456C21.472 145.208 21.04 145.832 19.664 145.832H19.632C19.552 145.832 19.536 145.784 19.504 145.704C19.408 145.368 19.136 145.16 18.96 144.936C18.896 144.856 18.912 144.776 19.008 144.792C19.328 144.84 19.584 144.872 19.792 144.872C20.416 144.872 20.56 144.616 20.576 144.136V143.368C20.576 142.392 20.576 140.824 20.56 140.152C19.888 140.152 18.896 140.168 17.936 140.248H17.904C17.856 140.248 17.792 140.216 17.792 140.136ZM17.84 136.664C17.904 135.992 17.968 135.448 17.968 134.76C17.968 134.456 17.952 134.152 17.936 133.816V133.768C17.936 133.688 17.968 133.672 18.08 133.672C20.096 133.784 22.128 133.8 23.44 133.8C23.44 133.352 23.44 132.728 23.312 131.928C23.296 131.832 23.312 131.816 23.36 131.816C23.568 131.816 24.24 131.912 24.656 132.04C24.768 132.072 24.8 132.136 24.8 132.2C24.8 132.328 24.656 132.536 24.576 132.728C24.48 132.984 24.48 133.336 24.464 133.8C25.904 133.8 27.92 133.784 29.952 133.672C30.064 133.672 30.08 133.72 30.08 133.8C30.048 134.216 30.032 134.6 30.032 134.856C30.032 135.416 30.016 135.784 30.128 136.648C30.128 136.712 30.08 136.76 30.016 136.76C29.904 136.776 29.712 136.776 29.536 136.776C29.36 136.776 29.184 136.776 29.104 136.76C29.008 136.744 28.976 136.712 28.976 136.632C29.04 136.024 29.04 135.016 29.04 134.68C28.224 134.648 27.248 134.632 26.336 134.632C25.424 134.632 24.576 134.648 24 134.648C23.36 134.648 22.496 134.632 21.584 134.632C20.688 134.632 19.76 134.648 18.96 134.68C18.96 135.288 18.976 135.928 19.024 136.68C19.024 136.76 18.976 136.792 18.896 136.808C18.656 136.824 18.128 136.824 17.968 136.808C17.872 136.792 17.84 136.76 17.84 136.664ZM22.048 141.224C22.048 141.176 22.08 141.128 22.144 141.112C22.256 141.064 22.56 140.984 22.704 140.952H22.736C22.784 140.952 22.8 141 22.848 141.048C23.136 141.576 23.6 142.296 24.512 143.032C24.576 143.08 24.608 143.144 24.48 143.176C24.272 143.256 23.968 143.384 23.776 143.56C23.712 143.608 23.648 143.592 23.6 143.544C22.896 142.84 22.336 141.848 22.064 141.304C22.048 141.272 22.048 141.256 22.048 141.224ZM39.888 145.032C39.376 145.032 38.864 144.92 38.416 144.712C37.616 144.312 37.168 143.672 37.168 143.064C37.168 142.504 37.536 141.992 38.304 141.736C38.72 141.608 39.2 141.544 39.696 141.544C40.288 141.544 40.928 141.624 41.552 141.768C41.44 141.032 41.104 140.152 41.104 139.384C41.104 137.912 42.496 137.272 43.648 136.808C43.76 136.744 43.792 136.696 43.696 136.616C43.296 136.344 42.096 136.024 41.456 135.96C41.376 135.944 41.312 135.88 41.36 135.8C41.424 135.656 41.568 135.384 41.696 135.24C41.744 135.176 41.824 135.176 41.888 135.176C43.216 135.352 45.056 136.024 45.792 136.632C45.856 136.68 45.872 136.712 45.84 136.792C45.808 136.904 45.712 137.16 45.6 137.304C45.568 137.384 45.488 137.4 45.376 137.4C45.248 137.384 45.104 137.368 44.976 137.368C44.736 137.368 44.496 137.4 44.32 137.448C42.896 137.816 42 138.36 42 139.416C42 139.528 42.016 139.656 42.032 139.784C42.16 140.536 42.496 141.384 42.592 142.072C43.792 142.472 44.896 143.032 45.616 143.576C45.712 143.64 45.744 143.72 45.696 143.816C45.616 144.008 45.424 144.344 45.264 144.552C45.216 144.616 45.136 144.68 45.056 144.6C44.48 144.056 43.568 143.496 42.544 143.064C42.384 143.672 41.984 144.312 41.312 144.696C40.912 144.92 40.4 145.032 39.888 145.032ZM34.56 142.12C35.296 140.952 36.832 138.216 37.696 136.152C36.768 136.344 35.824 136.456 34.976 136.472C34.912 136.472 34.864 136.424 34.832 136.376C34.784 136.264 34.688 135.672 34.672 135.528V135.496C34.672 135.432 34.704 135.4 34.784 135.416C34.992 135.448 35.216 135.448 35.456 135.448C36.224 135.448 37.12 135.336 38 135.16C38.128 134.68 38.24 134.136 38.24 133.544C38.24 133.416 38.24 133.288 38.224 133.16C38.224 133.064 38.224 133.048 38.272 133.048C38.48 133.048 39.088 133.128 39.344 133.192C39.504 133.224 39.568 133.272 39.568 133.336C39.568 133.448 39.344 133.608 39.312 133.768C39.232 134.2 39.136 134.568 39.024 134.92C39.68 134.744 40.256 134.568 40.688 134.392C40.704 134.392 40.72 134.376 40.736 134.376C40.784 134.376 40.816 134.424 40.832 134.488C40.848 134.648 40.912 134.984 40.912 135.16C40.912 135.224 40.896 135.32 40.784 135.352C40.176 135.544 39.504 135.736 38.8 135.912C37.936 138.008 36.512 140.744 35.68 142.44C35.648 142.504 35.616 142.504 35.536 142.504C35.312 142.504 34.816 142.344 34.64 142.28C34.576 142.248 34.512 142.184 34.56 142.12ZM38.144 143.112C38.144 143.384 38.4 143.704 38.8 143.896C39.104 144.056 39.472 144.12 39.808 144.12C40.176 144.12 40.512 144.04 40.768 143.864C41.216 143.56 41.456 143.16 41.552 142.712C40.928 142.536 40.288 142.424 39.712 142.424C39.328 142.424 38.976 142.472 38.64 142.568C38.304 142.68 38.144 142.888 38.144 143.112ZM50.864 139.848C50.8 139.848 50.752 139.832 50.72 139.784C50.48 139.512 50.144 139.352 49.952 139.208C49.872 139.16 49.84 139.128 49.84 139.096C49.84 139.064 49.888 139.064 49.968 139.048C52.384 138.632 53.728 137.064 54.048 135.912C54.16 135.64 54.224 135.432 54.256 135.16V135.096C53.872 135.096 53.488 135.08 53.088 135.08C52.528 135.08 51.92 135.096 51.232 135.112C51.232 135.704 51.232 136.552 51.28 137.176C51.28 137.256 51.248 137.288 51.152 137.288C51.04 137.304 50.848 137.304 50.672 137.304C50.48 137.304 50.32 137.304 50.24 137.288C50.144 137.272 50.112 137.256 50.112 137.16C50.208 136.536 50.24 135.848 50.24 135.208C50.24 134.92 50.224 134.616 50.208 134.296V134.248C50.208 134.184 50.24 134.168 50.336 134.168C52.672 134.264 53.968 134.28 55.456 134.28C55.456 134.104 55.472 133.896 55.472 133.672C55.472 133.176 55.44 132.616 55.344 132.088V132.04C55.344 131.96 56.16 132.072 56.624 132.216C56.736 132.248 56.768 132.296 56.768 132.36C56.768 132.472 56.624 132.648 56.544 132.84C56.448 133.128 56.448 133.672 56.448 134.28C58.176 134.28 59.36 134.28 61.696 134.168C61.808 134.168 61.824 134.2 61.824 134.28C61.792 134.648 61.776 134.968 61.776 135.208C61.776 135.688 61.776 136.04 61.872 136.824C61.872 136.888 61.824 136.936 61.76 136.936C61.6 136.952 61.312 136.952 61.104 136.952C61.104 136.968 61.136 136.968 61.168 137C61.392 137.208 61.68 137.464 61.92 137.56C62 137.592 62.032 137.64 62.032 137.688C62 138.568 61.424 139 60.48 139.112C60.192 139.144 59.616 139.176 59.056 139.176C58.496 139.176 57.952 139.144 57.696 139.112C57.072 139 56.752 138.632 56.736 138.088C56.736 137.976 56.768 136.072 56.768 135.64C56.768 135.464 56.768 135.272 56.752 135.096H54.592C54.816 135.144 55.104 135.224 55.312 135.32C55.408 135.352 55.44 135.4 55.44 135.432C55.44 135.496 55.376 135.56 55.28 135.608C55.104 135.704 55.056 135.848 54.88 136.248C54.432 137.608 53.168 139.144 50.928 139.832C50.912 139.848 50.88 139.848 50.864 139.848ZM49.872 145.176C49.856 145.016 49.856 144.552 49.872 144.36C49.872 144.248 49.92 144.216 50.016 144.216C51.76 144.312 53.008 144.344 54.08 144.344C54.576 144.344 55.04 144.328 55.504 144.328C55.52 143.8 55.52 143.224 55.52 142.664C55.52 142.248 55.52 141.848 55.504 141.464C54.528 141.464 53.184 141.48 51.568 141.56C51.488 141.56 51.408 141.528 51.408 141.432C51.392 141.272 51.392 140.84 51.408 140.648C51.408 140.536 51.472 140.52 51.568 140.52C53.568 140.616 54.992 140.648 55.984 140.648C57.088 140.648 58.368 140.632 60.368 140.52C60.448 140.52 60.496 140.568 60.496 140.648C60.512 140.808 60.512 141.272 60.496 141.448C60.496 141.528 60.432 141.56 60.368 141.56C58.912 141.496 57.712 141.48 56.752 141.464C56.736 141.512 56.688 141.544 56.624 141.592C56.528 141.64 56.496 141.704 56.48 141.864C56.48 142.568 56.48 143.56 56.496 144.328C58.032 144.328 59.44 144.328 62 144.216C62.08 144.216 62.128 144.264 62.144 144.36C62.16 144.504 62.16 145 62.144 145.176C62.128 145.256 62.08 145.288 62.016 145.288C59.232 145.176 57.616 145.176 55.92 145.176C54.304 145.176 52.656 145.192 50.016 145.288C49.936 145.288 49.872 145.272 49.872 145.176ZM57.664 137.768C57.664 138.024 57.84 138.248 58.128 138.28C58.288 138.296 58.64 138.312 59.008 138.312C59.52 138.312 60.064 138.296 60.224 138.264C60.768 138.168 61.088 137.928 61.056 137C61.056 136.984 61.056 136.952 61.072 136.952C60.976 136.952 60.896 136.952 60.848 136.936C60.752 136.92 60.72 136.888 60.736 136.824C60.8 136.28 60.784 135.448 60.784 135.128C59.664 135.08 58.832 135.08 57.968 135.08C57.968 135.16 57.904 135.224 57.84 135.304C57.712 135.448 57.696 135.448 57.68 135.688C57.664 135.928 57.664 137.496 57.664 137.768ZM66.08 145.88C65.936 145.864 65.888 145.832 65.904 145.672C66.016 143.16 66.064 140.552 66.064 138.68V136.952C66.064 135.32 66.064 133.96 65.984 132.696V132.648C65.984 132.552 66 132.536 66.144 132.552C66.736 132.6 67.872 132.616 68.512 132.616C69.152 132.616 69.984 132.6 70.832 132.552H70.88C70.96 132.552 70.976 132.6 70.976 132.696C70.944 133.256 70.944 133.88 70.944 134.36V135.08C70.944 135.384 70.96 136.488 71.008 137.544C71.008 137.704 71.008 137.752 70.832 137.768C70.672 137.784 70.368 137.784 70.192 137.768C70.096 137.752 70.016 137.736 70.032 137.592V137.32C69.728 137.32 68.992 137.304 68.48 137.304C67.968 137.304 67.28 137.32 67.008 137.32V138.632C67.008 140.632 67.024 143.192 67.04 145.688C67.04 145.816 67.024 145.864 66.864 145.88C66.704 145.896 66.24 145.896 66.08 145.88ZM67.008 136.552C67.296 136.552 67.984 136.568 68.464 136.568C68.96 136.568 69.728 136.552 70.048 136.552V135.352C69.744 135.352 69.024 135.336 68.496 135.336C67.984 135.336 67.296 135.352 67.008 135.352V136.552ZM67.008 134.584C67.312 134.584 68.016 134.6 68.496 134.6C68.992 134.6 69.728 134.584 70.032 134.584V133.384L68.48 133.368C67.984 133.368 67.024 133.384 67.024 133.384C67.024 133.416 67.024 133.896 67.008 134.584ZM69.28 144.232C69.344 143.144 69.392 141.912 69.392 141.4C69.392 140.728 69.376 139.496 69.344 138.936C69.344 138.824 69.344 138.792 69.504 138.808C70.112 138.84 71.184 138.856 71.92 138.856C72.656 138.856 73.376 138.84 74.24 138.792C74.368 138.792 74.4 138.824 74.4 138.936C74.368 139.64 74.352 140.84 74.352 141.352C74.352 141.816 74.384 143.016 74.432 144.008C74.432 144.136 74.432 144.152 74.24 144.168C74.096 144.184 73.808 144.2 73.632 144.184C73.504 144.168 73.424 144.184 73.424 144.04C73.44 143.928 73.44 143.8 73.44 143.672C73.12 143.672 72.432 143.656 71.92 143.656C71.392 143.656 70.592 143.672 70.272 143.672V144.248C70.272 144.376 70.24 144.392 70.096 144.408C69.872 144.424 69.664 144.424 69.472 144.408C69.312 144.392 69.28 144.376 69.28 144.232ZM70.256 141.608C70.256 141.912 70.272 142.376 70.272 142.872C70.592 142.872 71.408 142.888 71.904 142.888C72.4 142.888 73.136 142.872 73.456 142.872C73.472 142.392 73.472 141.912 73.472 141.608C73.168 141.592 72.416 141.576 71.872 141.576C71.36 141.576 70.576 141.592 70.256 141.608ZM70.256 140.824L71.856 140.84C72.384 140.84 73.152 140.824 73.472 140.824V139.608C73.392 139.608 72.368 139.592 71.888 139.592C71.36 139.592 70.272 139.608 70.272 139.608C70.272 139.672 70.256 140.28 70.256 140.824ZM72.88 137.544C72.912 136.904 72.912 136.264 72.912 135.768V134.36C72.912 133.88 72.912 133.256 72.88 132.696C72.88 132.584 72.896 132.536 73.008 132.552C73.872 132.6 74.768 132.616 75.392 132.616C76.048 132.616 77.248 132.6 77.84 132.552H77.904C78.016 132.552 78.016 132.584 78 132.696C77.936 133.704 77.936 134.776 77.936 136.008V138.68C77.936 140.424 77.952 141.512 78 143.912C78.032 145.16 77.424 145.72 75.68 145.736C75.584 145.736 75.504 145.688 75.472 145.576C75.408 145.336 75.104 145.032 74.848 144.728C74.832 144.696 74.816 144.68 74.816 144.664C74.816 144.616 74.88 144.6 74.976 144.616C75.36 144.664 75.696 144.696 75.968 144.696C76.64 144.696 76.992 144.504 76.992 143.8V137.32C76.704 137.32 75.952 137.304 75.424 137.304C74.912 137.304 74.176 137.32 73.84 137.32C73.84 137.416 73.84 137.512 73.856 137.592C73.856 137.72 73.808 137.752 73.696 137.768H73.056C72.896 137.752 72.864 137.704 72.88 137.544ZM73.808 135.352C73.808 135.656 73.808 136.088 73.824 136.552C74.144 136.552 74.944 136.568 75.44 136.568C75.936 136.568 76.704 136.552 76.992 136.552V135.352C76.688 135.352 75.968 135.336 75.44 135.336C74.896 135.336 74.112 135.352 73.808 135.352ZM73.808 134.584C74.128 134.584 74.928 134.6 75.44 134.6C75.936 134.6 76.688 134.584 76.992 134.584C76.992 133.896 76.976 133.416 76.976 133.384C76.976 133.384 75.904 133.368 75.424 133.368L73.824 133.384C73.824 133.432 73.808 134.104 73.808 134.584ZM86.592 144.776C86.272 144.776 85.936 144.728 85.568 144.648C85.44 144.616 85.376 144.536 85.344 144.408C85.312 144.184 85.184 143.928 85.12 143.704C85.104 143.672 85.104 143.656 85.104 143.64C85.104 143.592 85.152 143.576 85.232 143.592C85.648 143.656 86 143.704 86.304 143.704C87.248 143.704 87.728 143.368 88.096 142.792C88.576 142.056 88.784 140.648 88.784 139.576C88.784 139.256 88.768 138.984 88.736 138.744C88.672 138.168 88.432 137.96 87.872 137.96C87.36 137.976 86.816 138.024 86.272 138.104C85.504 140.552 84.4 142.968 83.024 144.648C82.96 144.712 82.912 144.728 82.816 144.712C82.608 144.68 82.064 144.44 81.92 144.344C81.856 144.296 81.808 144.232 81.888 144.152C83.248 142.824 84.464 140.6 85.216 138.264C84.224 138.44 83.344 138.616 82.832 138.664C82.752 138.664 82.672 138.664 82.624 138.552C82.544 138.408 82.384 137.944 82.368 137.832C82.368 137.784 82.352 137.752 82.352 137.736C82.352 137.656 82.4 137.64 82.48 137.64C82.992 137.672 84.192 137.464 85.488 137.288C85.792 136.168 85.968 135.032 86 133.992C86 133.848 86 133.832 86.128 133.864C86.368 133.896 86.848 133.976 87.168 134.088C87.328 134.152 87.376 134.2 87.376 134.264C87.376 134.392 87.12 134.552 87.072 134.808C86.928 135.576 86.752 136.36 86.544 137.16C87.136 137.096 87.712 137.048 88.224 137.048C89.024 137.048 89.664 137.4 89.776 138.488C89.808 138.76 89.824 139.064 89.824 139.416C89.824 140.696 89.616 142.376 89.072 143.288C88.48 144.264 87.696 144.776 86.592 144.776ZM90.736 136.984L91.232 136.536C91.28 136.504 91.296 136.488 91.344 136.488C91.376 136.488 91.408 136.504 91.472 136.536C92.352 137 94.192 138.408 95.056 139.752C95.088 139.8 95.088 139.816 95.088 139.848C95.088 139.88 95.072 139.928 95.024 139.976C94.832 140.168 94.528 140.424 94.336 140.536C94.256 140.584 94.176 140.616 94.128 140.504C93.376 139.08 91.584 137.608 90.752 137.16C90.64 137.096 90.688 137.032 90.736 136.984ZM91.472 135.048C91.52 134.968 91.712 134.744 91.792 134.68C91.856 134.616 91.888 134.6 91.968 134.648C92.464 134.888 93.504 135.496 93.984 135.96C94.016 135.992 94.016 136.024 94.016 136.056C94.016 136.088 94.016 136.12 93.984 136.184C93.92 136.296 93.744 136.52 93.648 136.6C93.568 136.664 93.52 136.648 93.456 136.584C92.944 136.12 91.936 135.448 91.488 135.208C91.408 135.16 91.44 135.096 91.472 135.048ZM92.624 133.944C92.688 133.864 92.88 133.64 92.96 133.576C93.024 133.528 93.056 133.512 93.12 133.544C93.632 133.784 94.672 134.392 95.152 134.84C95.184 134.872 95.2 134.904 95.2 134.936C95.2 134.968 95.184 135 95.152 135.064C95.104 135.176 94.912 135.4 94.832 135.48C94.752 135.544 94.704 135.544 94.624 135.48C94.112 135 93.104 134.344 92.656 134.12C92.576 134.072 92.608 133.992 92.624 133.944Z" fill="white"/>
<path d="M2.096 174.8C2.048 174.8 2 174.784 1.968 174.752C1.728 174.496 1.216 174.288 0.944 174.16C0.848 174.128 0.816 174.096 0.816 174.08C0.816 174.048 0.864 174.032 0.928 174C4.512 172.848 6.592 169.968 7.2 166.464C5.872 166.464 4.384 166.464 2.048 166.576C1.952 166.576 1.872 166.56 1.856 166.464C1.84 166.384 1.84 166.24 1.84 166.096C1.84 165.904 1.84 165.696 1.856 165.584C1.872 165.472 1.92 165.44 2.048 165.456C4.544 165.584 5.984 165.584 7.312 165.584L7.36 165.04C7.392 164.448 7.408 162.992 7.408 162.48C7.408 162.096 7.376 161.632 7.296 161.296C7.28 161.216 7.264 161.152 7.36 161.152C7.536 161.152 8.224 161.28 8.592 161.392C8.752 161.44 8.8 161.488 8.8 161.552C8.8 161.648 8.704 161.76 8.624 161.888C8.512 162.032 8.464 162.224 8.448 162.624C8.448 163.024 8.416 164.544 8.384 165.088L8.336 165.584C9.728 165.568 11.376 165.568 13.936 165.456H13.968C14.064 165.456 14.112 165.52 14.112 165.6C14.128 165.792 14.128 166.272 14.112 166.48C14.112 166.544 14.032 166.576 13.936 166.576C11.552 166.48 9.984 166.464 8.592 166.464C9.072 168.208 10.608 172.16 15.2 173.888C15.264 173.92 15.312 173.936 15.312 173.968C15.312 173.984 15.28 174.016 15.184 174.064C14.832 174.208 14.448 174.416 14.16 174.656C14.08 174.72 13.984 174.72 13.904 174.688C10.16 172.912 8.592 169.472 8 167.568C7.216 170.704 5.312 173.376 2.224 174.768C2.192 174.784 2.144 174.8 2.096 174.8ZM25.872 174.912C25.76 174.912 25.696 174.896 25.664 174.784C25.584 174.496 25.248 174.112 25.104 173.888C25.024 173.776 25.088 173.776 25.168 173.792C25.616 173.872 25.968 173.92 26.256 173.92C26.976 173.92 27.264 173.648 27.488 173.04C27.568 172.848 27.632 172.56 27.696 172.224C26.768 172.208 25.952 172.208 25.472 172.208H22.736L22.56 173.344C22.56 173.44 22.528 173.472 22.448 173.472C22.208 173.488 21.792 173.472 21.584 173.44C21.472 173.424 21.44 173.392 21.472 173.296C21.936 171.488 22.128 170.336 22.32 169.12V169.056C21.632 169.072 20.928 169.088 20.24 169.12H20.208C20.128 169.12 20.064 169.088 20.064 169.008C20.048 168.848 20.048 168.432 20.064 168.24C20.064 168.128 20.144 168.128 20.224 168.128C20.96 168.16 21.728 168.192 22.448 168.208C22.592 167.168 22.72 165.92 22.72 165.248C22.72 165.072 22.736 165.04 22.784 165.04C23.008 165.04 23.568 165.12 24.016 165.136C24.528 165.152 25.296 165.152 25.84 165.152C26.944 165.152 28.224 165.12 28.976 165.056H29.024C29.088 165.056 29.104 165.088 29.088 165.184C29.04 165.712 28.992 166.896 28.944 168.208C29.632 168.192 30.336 168.16 31.04 168.128C31.12 168.128 31.168 168.16 31.184 168.24C31.2 168.4 31.2 168.848 31.184 169.024C31.184 169.104 31.104 169.136 31.04 169.12C30.336 169.088 29.616 169.072 28.896 169.056C28.848 169.84 28.8 170.64 28.736 171.36C29.264 171.344 29.808 171.328 30.336 171.296H30.368C30.432 171.296 30.464 171.328 30.48 171.392C30.496 171.536 30.496 172.048 30.48 172.208C30.464 172.272 30.416 172.304 30.336 172.288C29.808 172.272 29.216 172.24 28.624 172.24C28.56 172.768 28.464 173.2 28.352 173.472C27.888 174.624 27.248 174.944 25.872 174.912ZM16.848 166.304C16.88 166.16 17.024 165.728 17.104 165.584C17.12 165.552 17.152 165.504 17.296 165.52C17.776 165.616 19.056 165.904 19.792 166.192C19.84 166.208 19.856 166.24 19.856 166.288C19.856 166.416 19.728 166.896 19.632 167.12C19.6 167.184 19.568 167.248 19.44 167.184C18.592 166.8 17.28 166.512 16.96 166.464C16.864 166.448 16.816 166.432 16.848 166.304ZM17.248 173.984C17.168 173.92 17.152 173.872 17.248 173.792C18.288 172.896 19.536 170.784 20.08 169.728C20.112 169.648 20.16 169.632 20.208 169.712C20.304 169.888 20.56 170.192 20.704 170.304C20.72 170.32 20.784 170.368 20.736 170.48C19.952 172.064 19.216 173.136 18.704 173.92C18.528 174.24 18.544 174.496 18.336 174.496C18.288 174.496 18.24 174.48 18.16 174.448C17.936 174.368 17.44 174.128 17.248 173.984ZM18.128 162.016C18.208 161.888 18.512 161.488 18.592 161.408C18.624 161.392 18.64 161.344 18.768 161.408C19.264 161.632 20.416 162.32 20.96 162.768C21.008 162.8 21.024 162.832 21.024 162.864C21.024 162.976 20.704 163.472 20.56 163.632C20.528 163.664 20.496 163.68 20.448 163.68C20.416 163.68 20.384 163.664 20.336 163.632C19.584 162.976 18.496 162.336 18.192 162.192C18.128 162.16 18.064 162.128 18.128 162.016ZM20.512 165.856C21.984 164.56 23.152 162.128 23.392 160.976C23.408 160.912 23.44 160.864 23.536 160.896C23.648 160.912 24.08 161.088 24.416 161.248C24.544 161.312 24.64 161.376 24.64 161.456C24.64 161.52 24.592 161.584 24.448 161.68C24.256 161.792 24.208 161.792 24.096 162.032L23.744 162.848H25.904C26.864 162.848 28.24 162.848 30.064 162.752H30.096C30.16 162.752 30.192 162.784 30.208 162.864C30.224 163.008 30.224 163.52 30.208 163.696C30.192 163.76 30.144 163.792 30.064 163.792C28.352 163.696 26.816 163.696 25.904 163.696C25.424 163.696 24.016 163.696 23.296 163.712C22.832 164.576 22.272 165.456 21.584 166.208C21.536 166.256 21.472 166.288 21.392 166.256C21.136 166.096 20.928 166.048 20.592 165.984C20.48 165.968 20.432 165.936 20.512 165.856ZM22.864 171.392H24.848C24.944 170.672 25.04 169.84 25.12 169.024C24.56 169.024 23.92 169.024 23.216 169.04C23.2 169.12 23.2 169.2 23.184 169.28C23.072 170.032 22.976 170.608 22.864 171.392ZM23.328 168.224C24.016 168.24 24.64 168.24 25.184 168.24C25.248 167.408 25.296 166.608 25.328 165.952H23.648C23.568 166.304 23.456 167.248 23.328 168.224ZM25.744 171.392C26.272 171.392 27.008 171.392 27.808 171.376C27.888 170.672 27.952 169.84 27.984 169.04C27.248 169.04 26.56 169.04 25.984 169.024C25.904 169.856 25.824 170.672 25.744 171.392ZM26.048 168.24C26.64 168.24 27.312 168.24 28.032 168.224C28.064 167.216 28.096 166.352 28.096 165.952H26.416C26.432 165.968 26.432 165.968 26.432 165.984C26.432 166.032 26.384 166.064 26.304 166.128C26.224 166.176 26.208 166.288 26.192 166.4C26.16 166.976 26.096 167.6 26.048 168.24ZM40.704 174.48C40.352 174.48 40.016 174.448 39.728 174.4C38.128 174.096 37.088 173.136 37.088 171.984C37.088 170.864 38.064 169.536 40.448 168.448C40.448 168.352 40.432 168.256 40.432 168.176C40.352 167.296 39.872 166.928 39.264 166.928C38.528 166.928 37.584 167.472 36.928 168.272C36.464 168.832 36.048 169.504 35.712 170.032C35.664 170.112 35.6 170.144 35.504 170.144C35.312 170.144 34.816 169.984 34.608 169.92C34.496 169.888 34.464 169.792 34.528 169.712C35.744 168.256 37.04 166.688 38.08 164.784C37.616 164.816 37.168 164.832 36.752 164.832C36.288 164.832 35.872 164.816 35.504 164.768C35.44 164.752 35.392 164.688 35.36 164.624C35.328 164.496 35.296 163.936 35.312 163.776C35.312 163.696 35.328 163.68 35.44 163.712C35.872 163.824 36.464 163.888 37.152 163.888C37.568 163.888 38 163.872 38.464 163.824C38.704 163.264 38.896 162.752 39.04 162.16C39.072 162.064 39.072 162.032 39.136 162.032C39.296 162.032 39.952 162.08 40.224 162.176C40.336 162.208 40.384 162.256 40.384 162.304C40.384 162.448 40.08 162.608 39.968 162.832C39.824 163.152 39.696 163.424 39.552 163.712C40.432 163.584 41.312 163.408 42.048 163.2C42.08 163.184 42.096 163.184 42.128 163.184C42.176 163.184 42.208 163.216 42.224 163.28C42.24 163.376 42.272 163.856 42.304 164.064C42.304 164.112 42.304 164.208 42.192 164.224C41.248 164.416 40.176 164.576 39.152 164.688C38.656 165.568 38.352 166.016 37.936 166.576C37.84 166.704 37.888 166.672 38 166.624C38.592 166.336 39.136 166.192 39.616 166.192C40.56 166.192 41.232 166.784 41.376 168.032V168.064C42.512 167.616 44.512 166.88 45.024 166.56C45.072 166.528 45.152 166.528 45.2 166.576C45.328 166.752 45.696 167.248 45.744 167.456C45.808 167.712 45.504 167.632 45.168 167.728C44.144 168.048 42.464 168.656 41.424 169.056H41.408C41.392 169.84 41.328 170.816 41.232 171.552C41.216 171.712 41.184 171.744 41.024 171.76C40.768 171.792 40.608 171.792 40.336 171.792H40.288C40.176 171.792 40.16 171.728 40.176 171.648C40.304 170.976 40.384 170.192 40.432 169.504C38.768 170.336 38.096 171.2 38.096 171.92C38.096 172.688 38.848 173.264 39.952 173.424C40.144 173.456 40.368 173.472 40.592 173.472C41.552 173.472 42.736 173.216 43.44 172.864C43.472 172.848 43.504 172.848 43.52 172.848C43.552 172.848 43.584 172.864 43.584 172.944C43.584 173.12 43.52 173.632 43.536 173.824V173.856C43.536 173.952 43.488 174 43.376 174.048C42.8 174.288 41.696 174.48 40.704 174.48ZM49.536 174.592C49.504 174.592 49.456 174.56 49.392 174.496C49.248 174.336 49.072 174.032 48.912 173.664C48.896 173.632 48.896 173.616 48.896 173.6C48.896 173.536 48.944 173.536 49.024 173.504C49.664 173.392 50.656 173.104 51.648 172.768C51.648 171.952 51.664 170.304 51.664 168.96V168.56C51.12 168.56 50.336 168.576 49.44 168.656C49.392 168.656 49.312 168.64 49.296 168.528V167.84C49.312 167.712 49.376 167.696 49.44 167.696C50.368 167.792 51.088 167.808 51.648 167.808C51.648 167.12 51.632 166.56 51.616 166.272C51.2 166.272 50.64 166.304 50 166.368C49.968 166.368 49.904 166.336 49.904 166.24C49.888 166.112 49.888 165.84 49.904 165.664C49.824 165.728 49.76 165.776 49.696 165.84C49.648 165.904 49.536 165.936 49.472 165.872C49.328 165.728 48.944 165.584 48.72 165.52C48.624 165.488 48.624 165.44 48.704 165.376C50.272 164.352 51.616 162.128 51.84 161.296C51.856 161.216 51.856 161.168 51.904 161.168C52.048 161.168 52.48 161.344 52.816 161.504C52.896 161.536 52.928 161.568 52.928 161.616C52.928 161.68 52.864 161.744 52.752 161.824C52.72 161.84 52.688 161.872 52.656 161.904C53.04 162.576 53.904 163.904 55.104 164.704C55.152 164.736 55.168 164.768 55.168 164.784C55.168 164.832 55.12 164.848 55.056 164.864C54.816 164.944 54.448 165.136 54.304 165.248C54.288 165.264 54.256 165.264 54.24 165.264C54.176 165.264 54.128 165.232 54.064 165.184C53.28 164.464 52.624 163.424 52.208 162.656C51.808 163.36 51.072 164.512 50.128 165.456C50.976 165.536 51.584 165.536 52 165.536C52.48 165.536 53.184 165.536 54.048 165.424C54.096 165.424 54.144 165.472 54.16 165.552C54.176 165.696 54.176 166.096 54.16 166.256C54.144 166.336 54.096 166.368 54.048 166.368C53.568 166.32 53.12 166.304 52.752 166.288V166.32C52.752 166.352 52.72 166.4 52.656 166.448C52.576 166.496 52.544 166.56 52.528 166.672C52.528 166.96 52.528 167.344 52.512 167.808C53.072 167.808 53.664 167.776 54.56 167.696C54.608 167.696 54.688 167.728 54.688 167.824C54.704 168 54.704 168.368 54.688 168.56C54.688 168.624 54.608 168.656 54.56 168.656C53.696 168.576 53.04 168.56 52.512 168.56V172.48C53.584 172.128 54.528 171.776 54.928 171.616C55.04 171.568 55.072 171.568 55.04 171.68C55.008 171.856 54.96 172.128 54.96 172.352C54.96 172.432 54.944 172.496 54.816 172.544C54.176 172.8 50.608 174.064 49.888 174.336C49.728 174.416 49.648 174.592 49.536 174.592ZM49.488 169.856C49.456 169.792 49.424 169.744 49.52 169.696C49.632 169.632 50.096 169.456 50.112 169.456H50.16C50.192 169.456 50.224 169.472 50.272 169.536C50.576 169.952 51.168 170.976 51.44 171.712C51.456 171.744 51.456 171.76 51.456 171.776C51.456 171.84 51.408 171.856 51.36 171.888C51.296 171.936 50.816 172.192 50.768 172.208C50.736 172.224 50.72 172.224 50.704 172.224C50.656 172.224 50.624 172.192 50.608 172.112C50.32 171.232 49.68 170.128 49.488 169.856ZM52.624 171.44C53.184 170.736 53.6 169.712 53.696 169.376C53.712 169.296 53.728 169.28 53.84 169.312C53.952 169.344 54.432 169.488 54.64 169.632C54.704 169.68 54.736 169.728 54.736 169.76C54.736 169.84 54.624 169.904 54.512 169.968C54.448 170 54.352 170.112 54.288 170.224C54.096 170.56 53.696 171.216 53.408 171.632C53.376 171.664 53.36 171.68 53.328 171.68C53.28 171.68 53.232 171.648 53.184 171.632C53.04 171.568 52.784 171.568 52.672 171.536C52.592 171.52 52.592 171.488 52.624 171.44ZM54.848 167.584C54.832 167.408 54.832 167.024 54.848 166.864C54.864 166.752 54.928 166.736 55.008 166.736C55.744 166.784 56.416 166.816 57.008 166.832L57.024 164.528C56.576 164.544 56.08 164.576 55.52 164.608H55.488C55.44 164.608 55.392 164.576 55.376 164.496C55.36 164.336 55.36 163.92 55.376 163.776C55.392 163.648 55.44 163.632 55.52 163.648C56.08 163.696 56.576 163.712 57.024 163.744V162.976C57.024 162.352 57.008 161.728 56.896 161.216V161.184C56.896 161.12 56.928 161.104 56.976 161.104C57.216 161.104 57.776 161.216 58.144 161.328C58.256 161.36 58.288 161.424 58.288 161.472C58.288 161.568 58.192 161.696 58.112 161.824C58 161.984 57.968 162.096 57.952 162.464C57.936 162.8 57.92 163.344 57.92 163.76H59.616V162.992C59.616 162.352 59.6 161.728 59.488 161.216V161.168C59.488 161.12 59.504 161.104 59.552 161.104C59.792 161.104 60.336 161.2 60.736 161.328C60.832 161.36 60.88 161.408 60.88 161.472C60.88 161.568 60.784 161.696 60.688 161.824C60.592 161.968 60.56 162.096 60.544 162.432C60.512 162.784 60.512 163.312 60.512 163.744C61.072 163.728 61.68 163.696 62.32 163.648H62.352C62.4 163.648 62.448 163.696 62.448 163.76C62.464 163.904 62.464 164.352 62.448 164.528C62.448 164.592 62.368 164.624 62.32 164.624C61.696 164.576 61.072 164.544 60.512 164.528L60.528 166.832C61.296 166.816 62.16 166.8 62.976 166.736C63.04 166.736 63.104 166.784 63.12 166.864C63.12 167.008 63.136 167.424 63.12 167.6C63.104 167.664 63.024 167.696 62.976 167.696C61.424 167.6 59.664 167.584 58.768 167.584C57.872 167.584 56.576 167.584 55.008 167.696C54.944 167.696 54.864 167.664 54.848 167.584ZM56.048 174.784C56.16 173.744 56.24 172.256 56.256 171.376V170.816C56.256 170.176 56.24 169.552 56.176 168.912C56.176 168.848 56.224 168.8 56.304 168.816C57.232 168.896 57.792 168.912 58.864 168.912C59.984 168.912 60.272 168.896 61.28 168.816C61.392 168.816 61.408 168.88 61.408 168.944C61.36 169.936 61.328 170.544 61.328 171.376C61.328 172.16 61.408 173.616 61.472 174.672C61.472 174.752 61.408 174.816 61.344 174.832C61.12 174.832 60.736 174.848 60.544 174.832C60.464 174.816 60.416 174.784 60.416 174.688C60.416 174.48 60.432 174.256 60.432 174.048C60.128 174.032 59.6 174.016 58.832 174.016C58.128 174.016 57.488 174.032 57.104 174.048C57.104 174.288 57.12 174.528 57.12 174.784C57.12 174.88 57.088 174.896 56.976 174.896C56.784 174.912 56.352 174.912 56.192 174.896C56.096 174.896 56.048 174.848 56.048 174.784ZM57.104 173.232C57.488 173.248 58.144 173.264 58.832 173.264C59.584 173.264 60.144 173.248 60.448 173.232C60.464 172.688 60.464 172.176 60.464 171.792C60.176 171.776 59.632 171.76 58.832 171.76C58.144 171.76 57.488 171.776 57.104 171.792V173.232ZM57.12 171.008C57.504 171.024 58.16 171.04 58.832 171.04C59.6 171.04 60.16 171.024 60.464 171.008C60.464 170.32 60.448 169.664 60.448 169.664C60.368 169.664 59.728 169.648 58.832 169.648C57.76 169.648 57.168 169.68 57.168 169.68C57.168 169.744 57.136 170.336 57.12 171.008ZM57.92 164.512L57.936 166.848H59.584C59.6 166.272 59.6 165.2 59.616 164.512H57.92ZM65.504 175.44C65.44 175.44 65.392 175.424 65.36 175.344C65.232 175.024 64.944 174.816 64.784 174.672C64.736 174.608 64.704 174.576 64.704 174.544C64.704 174.512 64.768 174.512 64.864 174.512C67.52 174.512 69.312 173.184 69.984 172.176C70.16 171.936 70.272 171.68 70.352 171.44C69.952 171.44 69.584 171.44 69.312 171.456C69.328 171.6 69.328 171.76 69.328 171.904V171.936C69.328 172 69.28 172.016 69.184 172.032C68.976 172.048 68.592 172.048 68.4 172.032C68.304 172.016 68.24 171.984 68.256 171.92C68.352 171.04 68.384 170 68.384 169.12C68.384 167.84 68.384 167.12 68.304 165.92V165.904C68.304 165.84 68.352 165.808 68.432 165.808C69.712 165.872 70.896 165.872 71.952 165.872C73.088 165.872 74.064 165.872 75.36 165.792C75.488 165.792 75.52 165.856 75.52 165.904C75.456 166.912 75.44 167.76 75.44 168.64C75.44 169.456 75.488 170.736 75.568 171.792C75.568 171.872 75.504 171.92 75.424 171.92C75.168 171.936 74.832 171.952 74.64 171.936C74.544 171.92 74.48 171.904 74.48 171.808C74.496 171.696 74.496 171.568 74.512 171.456C74.272 171.456 73.936 171.44 73.552 171.44L73.44 171.552C73.296 171.648 73.312 171.696 73.296 171.856C73.264 172.192 73.248 172.64 73.248 173.024C73.248 173.232 73.264 173.424 73.264 173.536C73.264 173.872 73.536 174.064 74.048 174.128C74.384 174.16 74.784 174.176 75.216 174.176C75.904 174.176 76.64 174.128 77.104 174.032C77.776 173.904 77.952 173.36 77.984 172.368C77.984 172.272 78.048 172.288 78.096 172.352C78.288 172.576 78.624 172.928 78.96 173.072C79.04 173.104 79.072 173.152 79.04 173.248C78.88 174.176 78.416 174.832 77.136 174.96C76.56 175.024 75.856 175.056 75.184 175.056C74.72 175.056 74.272 175.04 73.872 174.992C72.672 174.864 72.304 174.496 72.304 173.856C72.304 173.392 72.336 172.864 72.336 172.064C72.336 171.824 72.336 171.6 72.32 171.424H71.904C71.552 171.424 71.184 171.424 70.816 171.44C71.024 171.536 71.248 171.664 71.424 171.776C71.504 171.824 71.536 171.888 71.536 171.936C71.536 172 71.456 172.064 71.312 172.096C71.152 172.128 70.912 172.48 70.752 172.704C69.952 173.84 68.144 175.136 65.6 175.424C65.568 175.424 65.536 175.44 65.504 175.44ZM65.968 166.688C66.032 166 66.096 165.536 66.096 164.864C66.096 164.576 66.08 164.304 66.048 163.984C66.048 163.872 66.064 163.856 66.192 163.856C68.336 163.952 69.568 163.968 70.928 163.968H73.488C74.256 163.024 75.024 161.712 75.264 161.104C75.328 160.976 75.328 160.96 75.472 161.008C75.664 161.072 76.128 161.28 76.384 161.456C76.448 161.504 76.48 161.536 76.48 161.568C76.48 161.648 76.368 161.696 76.24 161.776C76.096 161.872 76.032 161.936 75.92 162.08C75.6 162.528 75.04 163.344 74.544 163.968C75.52 163.952 76.528 163.92 77.856 163.856C77.968 163.856 77.984 163.888 77.984 163.984C77.952 164.336 77.936 164.656 77.936 164.896C77.936 165.472 77.936 165.744 78.032 166.624C78.032 166.688 77.984 166.736 77.92 166.736C77.808 166.752 77.6 166.752 77.424 166.752C77.232 166.752 77.056 166.752 76.976 166.736C76.88 166.72 76.848 166.704 76.864 166.624C76.912 166.016 76.912 165.104 76.912 164.784C76.08 164.752 75.008 164.752 73.952 164.752H71.984C70.304 164.752 68.56 164.752 67.12 164.784C67.12 165.216 67.12 165.776 67.168 166.688C67.168 166.768 67.136 166.8 67.04 166.816C66.816 166.832 66.24 166.832 66.096 166.816C66 166.8 65.952 166.768 65.968 166.688ZM67.424 161.584C67.424 161.552 67.456 161.536 67.52 161.488C67.68 161.408 68.032 161.232 68.16 161.184C68.24 161.152 68.256 161.152 68.32 161.216C68.624 161.44 69.6 162.432 69.92 163.024C69.952 163.088 69.968 163.136 69.888 163.2C69.76 163.312 69.36 163.536 69.168 163.632C69.104 163.664 69.04 163.648 69.008 163.584C68.688 162.896 67.792 161.952 67.456 161.648C67.44 161.632 67.424 161.6 67.424 161.584ZM69.264 169.104C69.888 169.104 70.976 169.12 71.904 169.12C72.928 169.12 74.032 169.104 74.56 169.088V168.208C74.016 168.192 72.928 168.176 71.92 168.176C70.976 168.176 69.888 168.192 69.264 168.208V169.104ZM69.264 167.52C69.904 167.52 70.976 167.536 71.904 167.536C72.912 167.536 74.016 167.52 74.544 167.504C74.544 166.976 74.528 166.56 74.528 166.56C74.528 166.56 72.992 166.544 71.952 166.544C70.912 166.544 69.28 166.56 69.28 166.56C69.28 166.56 69.28 166.992 69.264 167.52ZM69.28 169.792C69.28 170.096 69.28 170.416 69.296 170.768C69.92 170.768 70.976 170.784 71.904 170.784C72.912 170.784 73.984 170.768 74.528 170.768C74.544 170.416 74.544 170.08 74.56 169.792C74.016 169.776 72.928 169.76 71.92 169.76C70.976 169.76 69.888 169.776 69.28 169.792ZM70.8 161.184C70.736 161.104 70.736 161.056 70.848 161.024C71.008 160.96 71.376 160.832 71.52 160.8H71.568C71.6 160.8 71.632 160.816 71.68 160.864C71.904 161.136 72.672 162.352 72.88 162.944C72.896 162.976 72.896 162.992 72.896 163.024C72.896 163.056 72.88 163.072 72.816 163.12C72.688 163.2 72.256 163.376 72.032 163.44C71.968 163.472 71.904 163.44 71.888 163.376C71.68 162.576 71.024 161.488 70.8 161.184ZM88.416 174.24C87.664 174.24 86.8 174.16 86 173.888C84.48 173.376 83.712 172.336 83.712 171.344C83.712 170.432 84.384 169.552 85.776 169.2C86.544 169.008 87.408 168.944 88.208 168.944C89.296 168.944 90.256 169.056 90.704 169.136C90.224 168.496 89.552 167.376 88.944 166.16C87.824 166.4 86.64 166.528 85.536 166.528C84.832 166.528 84.16 166.48 83.568 166.352C83.504 166.352 83.472 166.272 83.44 166.192C83.408 166.048 83.392 165.44 83.408 165.28C83.408 165.184 83.44 165.168 83.552 165.2C84.208 165.376 84.96 165.456 85.744 165.456C86.656 165.456 87.6 165.36 88.496 165.168C88.128 164.32 87.824 163.456 87.664 162.688C87.648 162.56 87.632 162.528 87.728 162.512C87.936 162.48 88.256 162.448 88.528 162.448C88.88 162.448 88.96 162.512 88.96 162.624C88.96 162.736 88.88 162.896 88.896 163.104C88.96 163.632 89.168 164.272 89.44 164.944C90.16 164.736 90.848 164.48 91.424 164.176C91.456 164.16 91.472 164.16 91.488 164.16C91.552 164.16 91.584 164.192 91.616 164.256C91.696 164.384 91.936 164.784 92.016 165.008V165.04C92.016 165.088 92 165.152 91.92 165.184C91.328 165.472 90.624 165.712 89.888 165.92C90.656 167.504 91.728 169.12 92.592 170.192C92.64 170.24 92.624 170.304 92.56 170.352C92.4 170.464 91.984 170.608 91.76 170.672H91.712C91.648 170.672 91.616 170.656 91.568 170.624C91.392 170.496 91.328 170.352 90.56 170.16C89.872 169.984 88.976 169.856 88.08 169.856C87.408 169.856 86.736 169.936 86.16 170.08C85.28 170.304 84.848 170.832 84.848 171.392C84.848 171.984 85.344 172.608 86.336 172.912C86.944 173.088 87.616 173.152 88.24 173.152C89.136 173.152 89.968 173.024 90.512 172.896H90.576C90.64 172.896 90.64 172.928 90.608 173.04C90.544 173.28 90.416 173.616 90.384 173.84C90.352 174 90.272 174.064 90.064 174.112C89.68 174.176 89.088 174.24 88.416 174.24ZM104.864 173.824C104.448 173.824 104.032 173.808 103.632 173.76C102.096 173.6 101.216 172.832 101.04 171.328C101.024 171.12 101.008 170.864 101.008 170.592C101.008 170.064 101.04 169.44 101.04 168.88C101.04 168.64 101.024 168.368 101.024 168.08C99.648 168.288 98.416 168.512 97.52 168.688H97.456C97.392 168.688 97.36 168.672 97.328 168.608C97.248 168.464 97.024 167.904 96.992 167.712V167.664C96.992 167.6 97.024 167.584 97.152 167.584C97.6 167.568 98.416 167.488 98.88 167.424C99.584 167.328 100.304 167.248 101.024 167.152C101.008 166.528 100.992 165.936 100.96 165.488C100.944 165.152 100.912 164.656 100.832 164.272V164.208C100.832 164.16 100.848 164.128 100.944 164.128C101.168 164.128 101.84 164.192 102.208 164.272C102.336 164.304 102.368 164.368 102.368 164.432C102.368 164.544 102.256 164.672 102.208 164.736C102.08 164.928 102.064 165.248 102.048 165.632V167.008C103.392 166.816 104.752 166.64 106.112 166.464C106.144 165.728 106.176 164.944 106.176 164.192C106.176 163.888 106.16 163.6 106.144 163.376V163.296C106.144 163.248 106.16 163.232 106.208 163.232C106.416 163.232 107.056 163.344 107.392 163.456C107.536 163.504 107.584 163.552 107.584 163.6C107.584 163.744 107.28 163.904 107.264 164.112C107.184 164.72 107.136 165.504 107.072 166.352C108.304 166.208 109.536 166.08 110.736 166H110.768C110.848 166 110.848 166.048 110.864 166.128C110.896 166.336 110.928 166.816 110.912 166.992C110.912 167.056 110.88 167.104 110.8 167.104C109.712 167.088 108.4 167.168 107.008 167.296C106.944 167.984 106.848 168.816 106.752 169.28C106.512 170.32 105.872 170.72 105.024 170.72C104.784 170.72 104.544 170.688 104.288 170.64C104.208 170.624 104.112 170.576 104.096 170.448C104.08 170.224 104 169.968 103.936 169.776C103.904 169.664 103.888 169.632 104 169.648C104.272 169.696 104.528 169.728 104.752 169.728C105.296 169.728 105.712 169.552 105.824 168.992C105.904 168.608 105.984 167.968 106.032 167.392C104.688 167.536 103.312 167.728 102.016 167.92C102.016 168.224 102.016 168.528 102 168.848C101.984 169.248 101.984 169.632 101.984 170C101.984 170.432 101.984 170.832 102.016 171.152C102.096 172.192 102.672 172.624 103.744 172.768C103.984 172.8 104.256 172.816 104.528 172.816C105.392 172.816 106.384 172.688 107.44 172.48C107.472 172.48 107.488 172.464 107.52 172.464C107.584 172.464 107.616 172.512 107.584 172.64C107.52 172.992 107.456 173.184 107.408 173.424C107.36 173.616 107.264 173.616 107.152 173.648C106.384 173.76 105.616 173.824 104.864 173.824ZM119.616 174.032C118.864 174.032 118.128 173.888 117.584 173.584C116.848 173.184 116.528 172.592 116.528 172.048C116.528 171.28 117.2 170.56 118.32 170.56C119.616 170.56 120.704 171.536 120.544 173.072C121.136 172.96 121.696 172.752 122.128 172.432C123.008 171.792 123.504 170.896 123.504 170.048C123.504 169.312 123.136 168.608 122.288 168.16C121.84 167.92 121.232 167.792 120.608 167.792C119.52 167.792 118.336 168.128 117.552 168.768C116.8 169.376 116.192 169.968 115.696 170.448C115.648 170.496 115.6 170.496 115.536 170.448C115.392 170.368 114.928 169.984 114.816 169.856C114.768 169.792 114.8 169.728 114.832 169.696C116.576 168.352 120.48 164.608 120.896 164.064C120.992 163.952 120.96 163.952 120.832 163.984C119.648 164.336 117.84 164.576 116.768 164.672H116.688C116.608 164.672 116.576 164.656 116.528 164.56C116.448 164.416 116.288 163.888 116.272 163.744V163.68C116.272 163.6 116.304 163.552 116.432 163.584C116.576 163.6 116.752 163.6 116.944 163.6C118.352 163.6 120.928 163.232 121.568 162.944C121.616 162.912 121.648 162.912 121.68 162.912C121.744 162.912 121.792 162.928 121.856 162.976C122 163.056 122.416 163.328 122.608 163.52C122.656 163.568 122.672 163.616 122.672 163.648C122.672 163.792 122.432 163.888 122.352 163.968C122.032 164.272 119.76 166.496 119.056 167.168C118.944 167.264 118.944 167.344 119.104 167.28C119.6 167.088 120.288 166.976 120.976 166.976C121.6 166.976 122.224 167.072 122.72 167.312C123.936 167.872 124.576 168.912 124.576 170.048C124.576 171.12 123.984 172.272 122.784 173.136C121.952 173.712 120.752 174.032 119.616 174.032ZM117.488 172.064C117.488 172.336 117.68 172.656 118.064 172.848C118.464 173.056 119.008 173.168 119.584 173.168C119.6 173.04 119.616 172.912 119.616 172.8C119.616 171.872 118.992 171.376 118.368 171.376C117.792 171.376 117.488 171.696 117.488 172.064ZM132.048 174.832C131.184 173.84 129.904 172.88 129.2 172.464C129.12 172.4 129.104 172.384 129.184 172.272C129.264 172.144 129.6 171.808 129.712 171.728C129.76 171.68 129.792 171.648 129.872 171.696C130.528 172.064 131.904 172.976 132.864 173.888C132.928 173.952 132.912 174.016 132.88 174.08C132.768 174.272 132.368 174.704 132.224 174.832C132.176 174.88 132.112 174.896 132.048 174.832Z" fill="white"/>
<path d="M2.592 230.32C2.448 230.32 2.376 230.272 2.352 230.128C2.328 229.912 2.328 229.36 2.352 229.144C2.376 228.952 2.424 228.952 2.592 228.952C6.672 229.096 9.024 229.096 11.256 229.096V227.44C9.552 227.44 8.088 227.464 5.28 227.56C5.136 227.56 5.088 227.488 5.088 227.368C5.064 227.152 5.064 226.648 5.088 226.432C5.088 226.288 5.112 226.24 5.28 226.264C7.968 226.384 9.672 226.408 11.256 226.408V224.824C9.216 224.824 7.2 224.824 4.032 224.944C3.864 224.944 3.816 224.896 3.792 224.776C3.768 224.56 3.768 223.96 3.792 223.768C3.816 223.624 3.816 223.552 4.008 223.576C7.104 223.696 9.36 223.72 11.232 223.72C11.208 222.736 11.136 222.088 10.992 221.44V221.344C10.992 221.272 11.016 221.248 11.088 221.248C11.4 221.248 12.36 221.344 13.032 221.56C13.2 221.608 13.248 221.68 13.248 221.776C13.248 221.92 13.032 222.136 12.912 222.4C12.768 222.712 12.744 222.928 12.72 223.72C14.784 223.72 16.848 223.696 19.848 223.576C19.992 223.576 20.016 223.648 20.04 223.768C20.064 223.984 20.064 224.56 20.04 224.776C20.016 224.896 19.968 224.944 19.872 224.944C16.92 224.848 14.736 224.824 12.696 224.824V226.408C14.304 226.408 15.552 226.384 18.24 226.264C18.36 226.264 18.384 226.312 18.408 226.456C18.432 226.672 18.432 227.176 18.408 227.392C18.384 227.488 18.336 227.56 18.24 227.56C15.504 227.464 14.256 227.44 12.696 227.44V229.096H14.28C16.248 229.096 18.408 229.072 21.6 228.952C21.744 228.952 21.768 229.024 21.768 229.144C21.792 229.264 21.816 229.456 21.816 229.648C21.816 229.864 21.792 230.056 21.768 230.176C21.768 230.272 21.72 230.32 21.6 230.32C18.408 230.2 16.08 230.2 14.016 230.2H9.648C7.728 230.2 5.736 230.224 2.592 230.32ZM6.36 242.392C6.456 240.736 6.528 238.432 6.528 235.576C6.528 234.712 6.504 233.152 6.384 231.688V231.568C6.384 231.472 6.432 231.448 6.624 231.472C7.824 231.52 10.704 231.568 12.072 231.568C13.392 231.568 16.32 231.544 17.52 231.472H17.568C17.688 231.472 17.736 231.544 17.736 231.688C17.568 234.184 17.592 235.768 17.592 236.512C17.592 237.04 17.616 238.216 17.712 240.088C17.76 241.456 17.136 242.512 14.4 242.536C14.304 242.536 14.208 242.488 14.16 242.344C14.088 242.008 13.608 241.504 13.272 241.12C13.152 241 13.176 240.952 13.368 240.976C13.896 241.048 14.328 241.072 14.688 241.072C15.792 241.072 16.176 240.736 16.176 239.896C16.176 239.344 16.2 238.84 16.2 238.408L11.976 238.384L7.896 238.408C7.896 239.968 7.944 241.408 7.968 242.416C7.968 242.512 7.872 242.584 7.728 242.584C7.464 242.608 6.912 242.608 6.552 242.584C6.408 242.584 6.36 242.536 6.36 242.392ZM7.872 237.208C9.024 237.232 11.184 237.232 11.976 237.232L16.2 237.208V235.576L11.976 235.552L7.872 235.576V237.208ZM7.872 234.4L11.952 234.424C12.792 234.424 15.192 234.4 16.176 234.376V232.696L12.024 232.672C10.896 232.696 8.04 232.696 7.896 232.696C7.896 232.768 7.896 233.608 7.872 234.4ZM36.816 240.568C36.624 240.568 36.432 240.52 36.288 240.304C36.072 239.944 35.76 239.704 35.496 239.464C35.4 239.368 35.352 239.32 35.352 239.272C35.352 239.2 35.448 239.176 35.592 239.176C40.896 239.272 44.184 236.296 44.184 233.104C44.184 231.928 43.752 230.728 42.816 229.648C41.88 228.544 40.416 227.824 38.832 227.56C38.808 227.56 38.808 227.56 38.808 227.584H38.712C38.568 227.584 38.472 227.632 38.4 227.824C37.848 229.336 35.184 235.384 32.88 238.696C32.568 239.152 32.208 239.32 31.824 239.32C31.56 239.32 31.296 239.248 31.032 239.104C29.352 238.24 28.416 236.392 28.416 234.304C28.416 232.072 29.52 229.576 31.968 227.824C33.504 226.744 35.52 226.192 37.536 226.192C39.984 226.192 42.432 227.008 44.016 228.688C45.216 229.984 45.792 231.544 45.792 233.128C45.792 236.656 42.816 240.208 36.936 240.568H36.816ZM29.928 234.184C29.928 235.504 30.432 236.656 31.296 237.304C31.416 237.376 31.512 237.424 31.608 237.424C31.728 237.424 31.848 237.352 31.944 237.232C33.792 234.664 36.192 229.24 36.768 227.488C35.376 227.608 34.008 228.088 32.808 228.952C30.792 230.44 29.928 232.456 29.928 234.184ZM56.04 242.104C55.896 242.08 55.848 242.032 55.848 241.888C56.088 237.808 56.088 234.04 56.088 230.8V229.912C54.96 229.936 53.712 229.984 52.176 230.032C52.032 230.032 51.936 230.008 51.936 229.864C51.912 229.6 51.912 228.904 51.936 228.64C51.936 228.472 51.984 228.448 52.176 228.448C53.736 228.52 54.984 228.544 56.088 228.568V227.44C56.088 226 56.064 224.56 55.92 223.504V223.432C55.92 223.336 55.968 223.312 56.088 223.312C56.448 223.36 57.312 223.432 57.84 223.6C57.984 223.648 58.032 223.72 58.032 223.816C58.032 223.984 57.912 224.176 57.816 224.392C57.72 224.56 57.6 224.776 57.576 225.496C57.552 226.216 57.552 227.44 57.528 228.616H61.416V228.496C61.416 227.656 61.44 226.84 61.44 226.024C61.44 224.8 61.392 223.624 61.224 222.472V222.424C61.224 222.304 61.296 222.304 61.416 222.328C61.704 222.352 62.568 222.448 63.096 222.616C63.24 222.664 63.288 222.736 63.288 222.808C63.288 222.952 63.192 223.144 63.096 223.336C62.952 223.648 62.88 223.864 62.856 224.608C62.832 225.496 62.808 227.296 62.784 228.496V228.616H66.6V228.496C66.6 227.608 66.624 226.768 66.624 225.952C66.624 224.824 66.576 223.72 66.432 222.616V222.568C66.432 222.496 66.456 222.448 66.528 222.448C66.84 222.448 67.656 222.568 68.232 222.76C68.4 222.808 68.472 222.88 68.472 223C68.472 223.12 68.352 223.288 68.256 223.528C68.16 223.744 68.064 224.032 68.04 224.728C68.016 225.664 67.968 227.296 67.968 228.496V228.592C69.36 228.568 70.872 228.52 72.72 228.448C72.888 228.448 72.912 228.496 72.912 228.64C72.936 228.928 72.936 229.6 72.912 229.888C72.912 229.984 72.84 230.032 72.72 230.032C70.92 229.96 69.384 229.936 67.968 229.912C67.992 232.36 68.064 234.472 68.136 236.824C68.136 236.944 68.088 236.992 67.968 236.992C67.8 237.016 67.56 237.016 67.32 237.016C67.104 237.016 66.864 237.016 66.72 236.992C66.576 236.992 66.504 236.944 66.528 236.824C66.528 236.488 66.552 236.2 66.552 235.888C66 235.888 65.328 235.864 64.824 235.864L62.88 235.888C62.88 236.248 62.904 236.608 62.904 236.968C62.904 237.088 62.856 237.136 62.736 237.136C62.568 237.16 62.328 237.16 62.088 237.16C61.848 237.16 61.608 237.16 61.464 237.136C61.32 237.136 61.272 237.088 61.272 236.968C61.392 233.824 61.416 232.144 61.416 229.864C59.976 229.864 58.776 229.864 57.528 229.888V233.032C57.528 235.168 57.552 237.616 57.576 239.704C59.04 239.752 59.856 239.776 61.488 239.776C64.824 239.776 66.768 239.776 71.136 239.584C71.304 239.584 71.328 239.656 71.328 239.8C71.352 240.088 71.352 240.808 71.328 241.072C71.328 241.192 71.256 241.24 71.136 241.24C66.84 241.072 64.728 241.072 61.488 241.072C59.592 241.072 58.968 241.096 57.624 241.12C57.624 241.408 57.648 241.672 57.648 241.912C57.648 242.032 57.6 242.08 57.48 242.104C57.144 242.128 56.328 242.128 56.04 242.104ZM62.784 229.864L62.856 234.712C63.432 234.736 64.248 234.736 64.824 234.736C65.328 234.736 66.024 234.736 66.576 234.712C66.6 233.776 66.6 232.984 66.6 232.216V229.888C65.328 229.864 64.104 229.864 62.784 229.864ZM79.056 242.584C78.936 242.632 78.864 242.608 78.792 242.512C78.456 241.96 77.856 241.624 77.544 241.384C77.424 241.264 77.472 241.216 77.592 241.192C82.392 240.64 84.072 238 84.12 235.384C84.12 234.928 84.12 234.352 84.048 233.8C82.272 234.928 80.16 236.032 78.264 236.632C78.12 236.68 77.976 236.752 77.904 236.632C77.616 236.224 76.92 235.816 76.632 235.624C76.464 235.528 76.44 235.432 76.656 235.384C80.664 234.472 84.288 232.432 86.136 230.656L86.544 230.248C84.984 230.248 83.016 230.272 82.032 230.272C82.032 230.536 82.032 230.776 82.056 231.04C82.056 231.184 82.008 231.208 81.84 231.208C81.504 231.232 80.952 231.232 80.664 231.208C80.52 231.208 80.448 231.136 80.448 231.04C80.616 229.384 80.64 228.064 80.64 226.648C80.64 225.16 80.616 224.2 80.52 222.496V222.472C80.52 222.376 80.592 222.304 80.736 222.328C82.608 222.4 85.608 222.424 87.48 222.424C89.544 222.424 92.16 222.4 94.056 222.304H94.104C94.272 222.304 94.32 222.424 94.32 222.496C94.224 224.128 94.2 225.328 94.2 226.624C94.2 227.848 94.272 229.096 94.392 230.8V230.824C94.392 230.92 94.296 231.016 94.176 231.016C93.816 231.04 93.312 231.04 93.024 231.016C92.88 230.992 92.784 230.944 92.784 230.8C92.808 230.632 92.808 230.464 92.808 230.296C91.968 230.272 90.12 230.248 88.56 230.248C88.656 230.32 88.68 230.392 88.68 230.44C88.68 230.512 88.584 230.56 88.416 230.584C90.984 232.384 93.912 233.968 98.496 234.784C98.664 234.832 98.712 234.904 98.544 235.048C98.232 235.312 97.776 235.672 97.464 236.128C97.368 236.248 97.272 236.272 97.152 236.224C93.456 235.216 90.096 233.248 87.408 231.256L87.336 231.328C86.712 231.952 85.704 232.696 84.552 233.464C84.912 233.512 85.392 233.584 85.8 233.68C85.92 233.728 85.968 233.776 85.968 233.848C85.968 233.968 85.872 234.136 85.776 234.304C85.608 234.616 85.56 234.736 85.536 235.48C85.488 238.696 83.616 241.552 79.056 242.584ZM81.936 226.912C81.96 227.416 81.984 228.208 82.008 229.12C83.016 229.144 85.08 229.168 86.664 229.168C86.688 228.568 86.688 227.632 86.688 226.864C85.056 226.888 82.92 226.888 81.936 226.912ZM81.936 225.736C82.944 225.76 85.08 225.784 86.688 225.784C86.688 224.944 86.664 224.056 86.664 223.552C84.72 223.552 81.984 223.576 81.984 223.576L81.936 225.736ZM88.032 226.864C88.032 227.632 88.056 228.544 88.056 229.168C89.736 229.168 91.968 229.12 92.856 229.12C92.88 228.256 92.904 227.416 92.904 226.912C92.016 226.888 89.736 226.888 88.032 226.864ZM88.032 225.784C89.712 225.784 92.016 225.76 92.904 225.736L92.856 223.576C92.856 223.576 90.288 223.552 88.368 223.552C88.368 223.6 88.32 223.696 88.2 223.768C88.08 223.888 88.056 224.008 88.056 224.176C88.032 224.608 88.032 225.208 88.032 225.784ZM89.304 233.608V233.512C89.304 233.44 89.328 233.44 89.472 233.44C89.832 233.488 90.552 233.56 91.104 233.728C91.272 233.776 91.344 233.824 91.344 233.896C91.344 233.992 91.248 234.112 91.128 234.256C90.96 234.472 90.936 235.24 90.936 236.176V237.328C90.936 238.864 91.008 240.328 91.104 242.128C91.104 242.248 91.032 242.272 90.936 242.296C90.576 242.32 89.904 242.32 89.616 242.296C89.448 242.272 89.4 242.248 89.424 242.128C89.496 240.808 89.496 239.776 89.496 238.792V237.328C89.496 236.128 89.52 234.568 89.304 233.608ZM122.016 238.408C121.944 238.408 121.896 238.408 121.8 238.36C118.152 236.872 112.128 231.928 110.736 231.04C110.352 230.8 110.016 230.632 109.656 230.632C109.344 230.632 109.032 230.776 108.696 231.064C107.88 231.808 106.032 233.728 105.6 234.256C105.312 234.616 105.264 235.024 104.952 235.024C104.88 235.024 104.76 234.976 104.592 234.88C104.208 234.64 103.68 234.232 103.44 233.968C103.32 233.848 103.344 233.776 103.464 233.704C105.264 232.456 106.464 231.016 107.856 229.768C108.408 229.264 109.008 229.048 109.584 229.048C110.256 229.048 110.928 229.336 111.552 229.744C113.184 230.848 118.944 235.408 122.904 236.824C123.048 236.872 123.12 236.92 123.12 236.992C123.12 237.064 123.072 237.136 123 237.256C122.808 237.544 122.448 238.024 122.208 238.312C122.136 238.384 122.088 238.408 122.016 238.408Z" fill="white"/>
</svg>
