<svg width="215" height="127" viewBox="0 0 215 127" fill="none" xmlns="http://www.w3.org/2000/svg">
<path d="M2.71875 48.5625C2.71875 40.875 4.51042 34.7396 8.09375 30.1562C11.3021 26.0104 15.1875 23.9375 19.75 23.9375C24.3125 23.9375 28.1979 26.0104 31.4062 30.1562C34.9896 34.7396 36.7812 40.9792 36.7812 48.875C36.7812 56.75 34.9896 62.9792 31.4062 67.5625C28.1979 71.7083 24.3229 73.7812 19.7812 73.7812C15.2396 73.7812 11.3438 71.7083 8.09375 67.5625C4.51042 62.9792 2.71875 56.6458 2.71875 48.5625ZM9.875 48.5938C9.875 53.9479 10.8021 58.3958 12.6562 61.9375C14.5104 65.4167 16.875 67.1562 19.75 67.1562C22.6042 67.1562 24.9688 65.4167 26.8438 61.9375C28.7188 58.4792 29.6562 54.1146 29.6562 48.8438C29.6562 43.5729 28.7188 39.1979 26.8438 35.7188C24.9688 32.2604 22.6042 30.5312 19.75 30.5312C16.9167 30.5312 14.5625 32.2604 12.6875 35.7188C10.8125 39.1562 9.875 43.4479 9.875 48.5938ZM58.3063 31.5625H49.9625L53.9625 24.75H65.5875V73H58.3063V31.5625Z" fill="#282828"/>
<path d="M0.8 104.42V102.86H5.64V104.42H0.8ZM11.1853 109H9.38531V94.72H17.3653V96.3H11.1853V101.36H16.9853V102.94H11.1853V109ZM33.2164 101.84C33.2164 102.947 33.0764 103.953 32.7964 104.86C32.5164 105.753 32.0964 106.527 31.5364 107.18C30.9897 107.833 30.3031 108.333 29.4764 108.68C28.6631 109.027 27.7164 109.2 26.6364 109.2C25.5164 109.2 24.5431 109.027 23.7164 108.68C22.8897 108.32 22.2031 107.82 21.6564 107.18C21.1097 106.527 20.7031 105.747 20.4364 104.84C20.1697 103.933 20.0364 102.927 20.0364 101.82C20.0364 100.353 20.2764 99.0733 20.7564 97.98C21.2364 96.8867 21.9631 96.0333 22.9364 95.42C23.9231 94.8067 25.1631 94.5 26.6564 94.5C28.0831 94.5 29.2831 94.8067 30.2564 95.42C31.2297 96.02 31.9631 96.8733 32.4564 97.98C32.9631 99.0733 33.2164 100.36 33.2164 101.84ZM21.9364 101.84C21.9364 103.04 22.1031 104.073 22.4364 104.94C22.7697 105.807 23.2831 106.473 23.9764 106.94C24.6831 107.407 25.5697 107.64 26.6364 107.64C27.7164 107.64 28.5964 107.407 29.2764 106.94C29.9697 106.473 30.4831 105.807 30.8164 104.94C31.1497 104.073 31.3164 103.04 31.3164 101.84C31.3164 100.04 30.9431 98.6333 30.1964 97.62C29.4497 96.5933 28.2697 96.08 26.6564 96.08C25.5764 96.08 24.6831 96.3133 23.9764 96.78C23.2831 97.2333 22.7697 97.8933 22.4364 98.76C22.1031 99.6133 21.9364 100.64 21.9364 101.84ZM49.8414 101.84C49.8414 102.947 49.7014 103.953 49.4214 104.86C49.1414 105.753 48.7214 106.527 48.1614 107.18C47.6147 107.833 46.9281 108.333 46.1014 108.68C45.2881 109.027 44.3414 109.2 43.2614 109.2C42.1414 109.2 41.1681 109.027 40.3414 108.68C39.5147 108.32 38.8281 107.82 38.2814 107.18C37.7347 106.527 37.3281 105.747 37.0614 104.84C36.7947 103.933 36.6614 102.927 36.6614 101.82C36.6614 100.353 36.9014 99.0733 37.3814 97.98C37.8614 96.8867 38.5881 96.0333 39.5614 95.42C40.5481 94.8067 41.7881 94.5 43.2814 94.5C44.7081 94.5 45.9081 94.8067 46.8814 95.42C47.8547 96.02 48.5881 96.8733 49.0814 97.98C49.5881 99.0733 49.8414 100.36 49.8414 101.84ZM38.5614 101.84C38.5614 103.04 38.7281 104.073 39.0614 104.94C39.3947 105.807 39.9081 106.473 40.6014 106.94C41.3081 107.407 42.1947 107.64 43.2614 107.64C44.3414 107.64 45.2214 107.407 45.9014 106.94C46.5947 106.473 47.1081 105.807 47.4414 104.94C47.7747 104.073 47.9414 103.04 47.9414 101.84C47.9414 100.04 47.5681 98.6333 46.8214 97.62C46.0747 96.5933 44.8947 96.08 43.2814 96.08C42.2014 96.08 41.3081 96.3133 40.6014 96.78C39.9081 97.2333 39.3947 97.8933 39.0614 98.76C38.7281 99.6133 38.5614 100.64 38.5614 101.84ZM65.4464 101.72C65.4464 103.32 65.1464 104.66 64.5464 105.74C63.9597 106.82 63.1131 107.633 62.0064 108.18C60.8997 108.727 59.5597 109 57.9864 109H54.0064V94.72H58.4064C59.8464 94.72 61.0931 94.9867 62.1464 95.52C63.1997 96.0533 64.0131 96.84 64.5864 97.88C65.1597 98.9067 65.4464 100.187 65.4464 101.72ZM63.5464 101.78C63.5464 100.513 63.3331 99.4733 62.9064 98.66C62.4931 97.8467 61.8797 97.2467 61.0664 96.86C60.2664 96.46 59.2931 96.26 58.1464 96.26H55.8064V107.46H57.7464C59.6797 107.46 61.1264 106.987 62.0864 106.04C63.0597 105.08 63.5464 103.66 63.5464 101.78ZM77.7158 105.18C77.7158 106.033 77.5091 106.76 77.0958 107.36C76.6824 107.947 76.0891 108.4 75.3158 108.72C74.5558 109.04 73.6558 109.2 72.6158 109.2C72.0824 109.2 71.5691 109.173 71.0758 109.12C70.5958 109.067 70.1558 108.993 69.7558 108.9C69.3558 108.793 69.0024 108.667 68.6958 108.52V106.8C69.1758 107.013 69.7691 107.207 70.4758 107.38C71.1958 107.553 71.9358 107.64 72.6958 107.64C73.4024 107.64 73.9958 107.547 74.4758 107.36C74.9558 107.173 75.3158 106.907 75.5558 106.56C75.7958 106.213 75.9158 105.807 75.9158 105.34C75.9158 104.873 75.8158 104.48 75.6158 104.16C75.4158 103.84 75.0691 103.547 74.5758 103.28C74.0958 103 73.4224 102.707 72.5558 102.4C71.9424 102.173 71.4024 101.933 70.9358 101.68C70.4824 101.413 70.1024 101.113 69.7958 100.78C69.4891 100.447 69.2558 100.067 69.0958 99.64C68.9491 99.2133 68.8758 98.72 68.8758 98.16C68.8758 97.4 69.0691 96.7533 69.4558 96.22C69.8424 95.6733 70.3758 95.2533 71.0558 94.96C71.7491 94.6667 72.5424 94.52 73.4358 94.52C74.2224 94.52 74.9424 94.5933 75.5958 94.74C76.2491 94.8867 76.8424 95.08 77.3758 95.32L76.8158 96.86C76.3224 96.6467 75.7824 96.4667 75.1958 96.32C74.6224 96.1733 74.0224 96.1 73.3958 96.1C72.7958 96.1 72.2958 96.1867 71.8958 96.36C71.4958 96.5333 71.1958 96.78 70.9958 97.1C70.7958 97.4067 70.6958 97.7667 70.6958 98.18C70.6958 98.66 70.7958 99.06 70.9958 99.38C71.1958 99.7 71.5224 99.9867 71.9758 100.24C72.4291 100.493 73.0424 100.767 73.8158 101.06C74.6558 101.367 75.3624 101.7 75.9358 102.06C76.5224 102.407 76.9624 102.827 77.2558 103.32C77.5624 103.813 77.7158 104.433 77.7158 105.18Z" fill="#282828"/>
</svg>
