<svg width="215" height="127" viewBox="0 0 215 127" fill="none" xmlns="http://www.w3.org/2000/svg">
<path d="M2.71875 48.5625C2.71875 40.875 4.51042 34.7396 8.09375 30.1562C11.3021 26.0104 15.1875 23.9375 19.75 23.9375C24.3125 23.9375 28.1979 26.0104 31.4062 30.1562C34.9896 34.7396 36.7812 40.9792 36.7812 48.875C36.7812 56.75 34.9896 62.9792 31.4062 67.5625C28.1979 71.7083 24.3229 73.7812 19.7812 73.7812C15.2396 73.7812 11.3438 71.7083 8.09375 67.5625C4.51042 62.9792 2.71875 56.6458 2.71875 48.5625ZM9.875 48.5938C9.875 53.9479 10.8021 58.3958 12.6562 61.9375C14.5104 65.4167 16.875 67.1562 19.75 67.1562C22.6042 67.1562 24.9688 65.4167 26.8438 61.9375C28.7188 58.4792 29.6562 54.1146 29.6562 48.8438C29.6562 43.5729 28.7188 39.1979 26.8438 35.7188C24.9688 32.2604 22.6042 30.5312 19.75 30.5312C16.9167 30.5312 14.5625 32.2604 12.6875 35.7188C10.8125 39.1562 9.875 43.4479 9.875 48.5938ZM61.9313 66.1562H79.9V73H47.4938L64.2438 52.7188C65.8896 50.6979 67.2646 48.9479 68.3688 47.4688C69.4938 45.9896 70.3479 44.75 70.9313 43.75C72.1188 41.7917 72.7125 40.0312 72.7125 38.4688C72.7125 36.2188 71.9208 34.3333 70.3375 32.8125C68.7542 31.2917 66.7958 30.5312 64.4625 30.5312C59.5875 30.5312 56.7958 33.4167 56.0875 39.1875H48.8375C50.0042 29.0208 55.1396 23.9375 64.2438 23.9375C68.6396 23.9375 72.3271 25.3333 75.3063 28.125C78.3063 30.9167 79.8063 34.375 79.8063 38.5C79.8063 41.125 79.1083 43.6979 77.7125 46.2188C77.0042 47.5312 75.9625 49.0938 74.5875 50.9062C73.2333 52.6979 71.5146 54.8229 69.4313 57.2812L61.9313 66.1562Z" fill="#282828"/>
<path d="M0.8 104.42V102.86H5.64V104.42H0.8ZM15.5053 96.1C14.7453 96.1 14.0586 96.2333 13.4453 96.5C12.832 96.7533 12.312 97.1333 11.8853 97.64C11.4586 98.1333 11.132 98.74 10.9053 99.46C10.6786 100.167 10.5653 100.967 10.5653 101.86C10.5653 103.033 10.7453 104.053 11.1053 104.92C11.4786 105.787 12.0253 106.453 12.7453 106.92C13.4786 107.387 14.392 107.62 15.4853 107.62C16.112 107.62 16.7053 107.567 17.2653 107.46C17.8253 107.353 18.372 107.22 18.9053 107.06V108.62C18.372 108.82 17.8186 108.967 17.2453 109.06C16.6853 109.153 16.012 109.2 15.2253 109.2C13.772 109.2 12.5586 108.9 11.5853 108.3C10.612 107.7 9.87865 106.847 9.38531 105.74C8.90531 104.633 8.66531 103.333 8.66531 101.84C8.66531 100.76 8.81198 99.7733 9.10531 98.88C9.41198 97.9867 9.85198 97.2133 10.4253 96.56C11.012 95.9067 11.732 95.4067 12.5853 95.06C13.4386 94.7 14.4186 94.52 15.5253 94.52C16.2586 94.52 16.9653 94.5933 17.6453 94.74C18.3253 94.8867 18.932 95.0933 19.4653 95.36L18.7453 96.88C18.3053 96.68 17.812 96.5 17.2653 96.34C16.732 96.18 16.1453 96.1 15.5053 96.1ZM33.882 103.96C33.882 104.947 33.682 105.84 33.282 106.64C32.882 107.427 32.2687 108.053 31.442 108.52C30.6287 108.973 29.5887 109.2 28.322 109.2C26.5487 109.2 25.1954 108.72 24.262 107.76C23.342 106.787 22.882 105.507 22.882 103.92V94.72H24.682V103.98C24.682 105.14 24.9887 106.04 25.602 106.68C26.2287 107.32 27.1687 107.64 28.422 107.64C29.2887 107.64 29.9887 107.487 30.522 107.18C31.0687 106.86 31.4687 106.427 31.722 105.88C31.9754 105.32 32.102 104.68 32.102 103.96V94.72H33.882V103.96ZM43.1709 109H41.3709V96.3H36.9109V94.72H47.6109V96.3H43.1709V109ZM50.7642 109V94.72H52.5642V107.4H58.8042V109H50.7642ZM70.2325 109H62.2525V94.72H70.2325V96.3H64.0525V100.76H69.8725V102.32H64.0525V107.42H70.2325V109ZM78.3058 94.72C79.4924 94.72 80.4658 94.8733 81.2258 95.18C81.9991 95.4733 82.5724 95.92 82.9458 96.52C83.3191 97.12 83.5058 97.8733 83.5058 98.78C83.5058 99.54 83.3658 100.173 83.0858 100.68C82.8058 101.187 82.4458 101.593 82.0058 101.9C81.5791 102.193 81.1258 102.427 80.6458 102.6L84.5658 109H82.4658L79.0058 103.1H76.1658V109H74.3658V94.72H78.3058ZM78.2058 96.28H76.1658V101.58H78.3058C79.0791 101.58 79.7124 101.48 80.2058 101.28C80.6991 101.067 81.0591 100.76 81.2858 100.36C81.5258 99.96 81.6458 99.46 81.6458 98.86C81.6458 98.2333 81.5191 97.7333 81.2658 97.36C81.0258 96.9867 80.6524 96.7133 80.1458 96.54C79.6391 96.3667 78.9924 96.28 78.2058 96.28ZM91.5272 101.74L95.2472 94.72H97.1872L92.4272 103.46V109H90.6272V103.54L85.8672 94.72H87.8272L91.5272 101.74Z" fill="black"/>
</svg>
