<svg width="173" height="269" viewBox="0 0 173 269" fill="none" xmlns="http://www.w3.org/2000/svg">
<path d="M22.816 23.928L21.28 25.304C21.056 24.92 20.832 24.472 20.128 23.544C19.52 23.704 16.416 24.408 15.744 24.568C12.128 25.4 11.84 25.464 10.528 25.72C10.432 26.2 10.368 26.456 10.112 26.456C9.92 26.456 9.92 26.36 9.76 25.944L9.024 24.056C10.464 23.864 10.624 23.832 11.232 23.736V12.568H21.312V19.576H19.104C20.032 20.408 21.824 22.488 22.816 23.928ZM19.424 17.88V16.728H13.152V17.88H19.424ZM19.424 15.32V14.264H13.152V15.32H19.424ZM19.04 22.2C18.08 21.08 17.728 20.824 17.472 20.6L18.624 19.576H13.152V23.416C16.032 22.872 17.472 22.616 19.04 22.2ZM22.592 33.4V32.472H10.208V33.4H22.592ZM22.592 35.608V34.616H10.208V35.608H22.592ZM31.136 30.104L29.984 32.184C27.904 31.928 26.592 31.672 24.544 31.064V36.376C25.152 35.896 25.536 35.512 26.048 35L27.712 36.44C27.808 36.536 27.904 36.632 27.904 36.76C27.904 36.984 27.648 37.016 27.456 37.016C27.296 37.016 27.072 36.984 26.88 36.952C26.368 37.272 25.216 38.008 24.416 38.52C26.56 39.032 28.736 39.608 30.848 40.312L29.824 42.296C24.48 40.312 18.848 38.84 15.392 38.168L16.064 37.048H10.208V38.584C12.288 38.296 13.504 38.072 15.296 37.752L14.624 39.704C14.016 39.8 13.504 39.896 12.672 40.024C9.984 40.376 6.144 40.824 2.88 41.176C2.816 41.432 2.72 41.752 2.464 41.752C2.304 41.752 2.208 41.56 2.144 41.304L1.472 38.936C2.048 38.968 2.912 39.032 4.128 39.032C5.76 39.032 7.072 38.936 8.224 38.808V31.128C6.528 31.768 4.8 32.184 3.008 32.408L1.664 30.296C3.264 30.296 6.336 30.2 9.984 28.632C10.688 28.312 14.624 26.488 16.192 24.824L18.144 25.528C18.496 25.656 18.592 25.688 18.592 25.848C18.592 26.04 18.176 26.136 18.016 26.136C19.488 27.128 20.992 28.088 23.424 28.888C24.832 29.336 27.84 30.104 31.136 30.104ZM24.416 31.032C20.064 29.656 18.112 28.376 16.256 27.096C14.08 28.568 11.456 29.976 8.544 31.032H15.04V28.824L17.12 29.016C17.312 29.048 17.536 29.112 17.536 29.336C17.536 29.496 17.44 29.592 17.12 29.816V31.032H24.416ZM23.712 37.048H18.016C19.136 37.272 21.472 37.848 22.208 38.008C22.816 37.656 23.2 37.4 23.712 37.048ZM31.328 13.368C30.432 14.872 28.064 17.912 27.808 18.232C28.448 18.776 29.088 19.544 29.312 19.832C30.272 20.952 30.976 22.008 30.976 23.544C30.976 26.584 28.032 26.616 26.336 26.52L25.472 24.248C26.592 24.568 26.784 24.632 27.296 24.632C28.736 24.632 29.12 23.8 29.12 23.064C29.12 21.656 27.328 19.896 26.976 19.608C25.984 18.712 25.856 18.616 25.696 18.456C26.304 17.592 27.008 16.536 28.416 14.264H24.992V27.416H23.008V12.568H30.4L31.328 13.368ZM10.88 15.256C10.88 15.48 10.56 15.48 10.08 15.512C9.696 15.96 9.376 16.344 8.8 16.952C6.336 19.672 6.016 19.96 5.088 20.984C6.336 20.792 7.2 20.6 7.968 20.44C8.192 19.704 8.352 18.936 8.512 18.136L10.368 18.968C10.592 19.064 10.752 19.128 10.752 19.288C10.752 19.544 10.528 19.608 10.144 19.736C8.704 24.376 6.624 27.288 2.784 29.08L1.312 27.288C2.08 27.032 3.84 26.456 5.504 24.76C6.528 23.736 7.04 22.712 7.328 22.104C5.344 22.52 3.648 22.872 1.792 23.256C1.6 23.544 1.504 23.768 1.216 23.768C0.992 23.768 0.96 23.544 0.928 23.384L0.576 21.208C0.96 21.208 1.088 21.208 2.432 21.176C2.944 20.696 3.584 20.056 5.184 18.328C3.584 16.504 2.048 15.48 1.376 15.032L2.56 13.432C3.2 13.88 3.648 14.232 4.096 14.616C5.248 13.08 5.792 12.216 6.144 11.576L7.84 12.472C8.032 12.6 8.096 12.728 8.096 12.792C8.096 13.08 7.808 13.08 7.264 13.112C6.848 13.752 5.472 15.736 5.408 15.8C5.792 16.184 6.048 16.504 6.464 16.952C6.88 16.472 8.256 14.904 9.024 13.784L10.656 15C10.752 15.064 10.88 15.16 10.88 15.256ZM51.2 23.96C52.736 23.96 54.08 25.208 54.08 26.84C54.08 28.44 52.768 29.72 51.2 29.72C49.6 29.72 48.352 28.408 48.352 26.84C48.352 25.24 49.632 23.96 51.2 23.96ZM91.456 39H87.936L79.552 27.128L75.776 31V39H72.896V15.64H75.776V27.48L87.072 15.64H90.688L81.472 25.144L91.456 39ZM116.562 15.64L107.954 29.336V39H104.978V29.336L96.3702 15.64H99.7302L106.482 26.712L113.234 15.64H116.562ZM142.885 27.32C142.885 34.808 138.757 39.64 132.773 39.64C126.757 39.64 122.629 34.776 122.629 27.32C122.629 19.896 126.725 15 132.773 15C138.789 15 142.885 19.896 142.885 27.32ZM139.877 27.32C139.877 21.528 137.253 17.4 132.773 17.4C128.293 17.4 125.669 21.496 125.669 27.32C125.669 33.144 128.293 37.24 132.773 37.24C137.285 37.24 139.877 33.08 139.877 27.32ZM169.726 30.552C169.726 35.448 166.494 39.64 160.35 39.64C151.55 39.64 150.75 32.536 150.75 30.552V15.64H153.662V30.968C153.662 33.912 155.39 37.24 160.158 37.24C166.334 37.24 166.814 32.408 166.814 30.968V15.64H169.726V30.552Z" fill="white"/>
<path d="M13.216 162.96C13.152 162.96 13.104 162.912 13.072 162.816C12.976 162.56 12.656 162.24 12.464 161.952C12.4 161.872 12.4 161.84 12.512 161.856C12.832 161.904 13.136 161.936 13.392 161.936C13.936 161.936 14.32 161.792 14.336 161.328V160.832C14.336 160.352 14.336 159.664 14.32 158.96C13.728 158.976 12.976 158.992 12.128 159.024C12.08 159.04 12.016 159.008 12.016 158.944C12 158.752 12 158.384 12.016 158.224C12.016 158.128 12.064 158.096 12.128 158.096C13.024 158.16 13.744 158.192 14.32 158.208V157.584C14.32 157.248 14.304 156.864 14.304 156.448C13.52 156.448 12.608 156.48 11.376 156.56C11.296 156.56 11.232 156.544 11.232 156.448C11.216 156.288 11.216 155.92 11.232 155.744C11.232 155.616 11.264 155.616 11.36 155.616C12.608 155.696 13.504 155.728 14.288 155.728C14.288 155.072 14.256 154.464 14.24 154.128C13.744 154.144 13.136 154.176 12.432 154.224C12.368 154.224 12.32 154.208 12.32 154.112C12.304 153.952 12.304 153.68 12.304 153.488C12.176 153.632 12.064 153.792 11.936 153.92C11.904 153.968 11.824 154 11.76 153.968C11.36 153.792 11.264 153.728 11.024 153.68C10.928 153.648 10.896 153.632 10.992 153.568C12.464 152.384 13.36 149.952 13.568 149.008C13.584 148.944 13.616 148.928 13.68 148.944C13.936 149.008 14.352 149.152 14.688 149.328C14.768 149.36 14.8 149.408 14.8 149.44C14.8 149.504 14.72 149.568 14.608 149.616C14.48 149.696 14.336 149.776 14.288 149.904C14.224 150.064 14.112 150.336 13.952 150.672C14.768 150.672 15.392 150.656 15.744 150.64C15.856 150.64 15.952 150.464 16.064 150.496C16.208 150.56 16.624 150.848 16.704 150.912C16.752 150.96 16.768 151.008 16.768 151.056C16.768 151.12 16.72 151.168 16.608 151.216C16.48 151.28 16.384 151.456 16.304 151.584C16.112 151.952 15.648 152.8 15.312 153.392C15.744 153.392 16.784 153.376 17.648 153.296C17.792 153.296 17.808 153.312 17.792 153.456C17.744 153.888 17.712 154.784 17.712 155.696C18.16 155.68 18.624 155.648 19.12 155.616C19.2 155.616 19.248 155.648 19.248 155.744C19.264 155.888 19.264 156.288 19.248 156.464C19.248 156.528 19.184 156.56 19.12 156.56C18.624 156.528 18.16 156.496 17.712 156.48C17.728 157.472 17.76 158.8 17.808 159.408C17.808 159.504 17.792 159.536 17.648 159.552C17.536 159.568 17.168 159.584 17.024 159.568C16.896 159.552 16.864 159.52 16.864 159.424C16.864 159.296 16.88 159.136 16.88 158.96L15.552 158.944H15.152C15.184 160.08 15.216 161.136 15.216 161.52C15.216 162.288 14.72 162.992 13.216 162.96ZM5.2 154.72C5.184 154.544 5.184 154.256 5.2 154.128C5.216 154.032 5.232 154 5.296 154C5.936 154.032 7.168 154.08 8.064 154.096V153.04C7.568 153.04 7.216 153.04 6.32 153.12C6.256 153.12 6.192 153.104 6.192 153.008C6.176 152.848 6.176 152.592 6.192 152.448C6.192 152.352 6.24 152.336 6.304 152.336C7.2 152.416 7.536 152.432 8.064 152.432V151.44C7.424 151.44 6.896 151.456 5.728 151.536H5.712C5.664 151.536 5.632 151.504 5.616 151.44V150.8C5.632 150.688 5.648 150.688 5.728 150.688C6.912 150.784 7.408 150.784 8.064 150.784C8.048 150.064 8.016 149.744 7.936 149.12V149.056C7.936 149.008 7.952 148.976 8.032 148.976C8.256 148.992 8.768 149.088 9.12 149.232C9.216 149.264 9.248 149.312 9.248 149.36C9.248 149.424 9.168 149.52 9.088 149.648C8.96 149.808 8.928 149.936 8.912 150.784C9.568 150.784 10.128 150.784 11.232 150.688C11.312 150.688 11.344 150.704 11.344 150.784C11.36 150.928 11.36 151.296 11.344 151.456C11.344 151.52 11.296 151.552 11.248 151.536C10.16 151.456 9.552 151.44 8.912 151.44V152.432C9.36 152.432 9.696 152.416 10.56 152.336C10.624 152.336 10.672 152.352 10.688 152.448V153.008C10.672 153.088 10.64 153.136 10.56 153.12C9.712 153.04 9.376 153.04 8.912 153.04V154.096C9.664 154.08 10.432 154.064 11.584 153.984H11.616C11.664 153.984 11.696 154.016 11.696 154.096C11.712 154.224 11.712 154.592 11.696 154.752C11.696 154.816 11.648 154.848 11.584 154.848C10.224 154.752 9.296 154.752 8.432 154.752C7.584 154.752 6.208 154.816 5.312 154.848C5.232 154.848 5.2 154.784 5.2 154.72ZM6.224 162.848C6.288 161.632 6.32 160.704 6.336 158.688C6.336 158.032 6.336 156.816 6.256 155.744C6.256 155.616 6.256 155.6 6.416 155.6C7.2 155.648 7.664 155.68 8.384 155.68C9.088 155.68 9.632 155.648 10.512 155.6C10.624 155.6 10.64 155.632 10.64 155.744C10.592 156.448 10.576 157.072 10.576 157.6C10.576 158.048 10.592 158.416 10.592 158.704C10.592 159.92 10.672 160.944 10.672 161.536C10.672 162.368 10.272 162.96 8.784 162.96C8.72 162.96 8.672 162.928 8.64 162.832C8.592 162.624 8.304 162.288 8.096 162.048C8.032 161.968 8.048 161.936 8.16 161.952C8.464 162 8.72 162.032 8.944 162.032C9.504 162.032 9.792 161.84 9.792 161.408C9.792 160.96 9.792 160.464 9.776 159.984L8.432 159.968C8.144 159.968 7.568 159.984 7.168 159.984C7.168 161.152 7.168 162 7.2 162.864C7.2 162.944 7.152 162.976 7.072 162.976C6.896 162.992 6.56 162.992 6.336 162.976C6.256 162.976 6.208 162.944 6.224 162.848ZM7.168 159.264C7.568 159.28 8.176 159.296 8.432 159.296C8.72 159.296 9.376 159.28 9.776 159.264C9.76 159.056 9.76 158.864 9.76 158.704V158.176L8.432 158.16C8.128 158.16 7.552 158.176 7.168 158.176V159.264ZM7.184 157.44C7.568 157.456 8.16 157.472 8.416 157.472L9.744 157.456C9.744 156.992 9.728 156.56 9.728 156.352H7.2C7.2 156.464 7.184 156.928 7.184 157.44ZM12.448 153.28H12.464C13.296 153.344 13.968 153.376 14.464 153.376C14.736 152.848 15.216 151.904 15.392 151.408C14.96 151.408 14.176 151.424 13.584 151.424C13.264 152.032 12.88 152.704 12.448 153.28ZM15.136 157.584C15.136 157.792 15.136 158 15.152 158.208H15.552C15.888 158.208 16.48 158.192 16.896 158.192V156.464C16.224 156.448 15.632 156.448 15.136 156.448V157.584ZM15.136 155.728C15.648 155.728 16.24 155.728 16.896 155.712V154.112H15.376C15.376 154.112 15.392 154.128 15.392 154.144C15.392 154.176 15.344 154.224 15.264 154.288C15.136 154.368 15.152 154.464 15.136 154.688V155.728ZM28.128 162.016C27.664 162.016 27.216 161.984 26.864 161.936C24.864 161.648 23.616 160.432 23.616 159.056C23.616 157.888 24.512 156.624 26.624 155.728C26.32 154.992 26.272 153.744 26.272 152.624C26.272 152 26.288 151.424 26.288 150.976C26.288 150.688 26.288 150.464 26.256 150.336C26.24 150.304 26.24 150.272 26.24 150.24C26.24 150.176 26.272 150.16 26.384 150.16C26.624 150.16 27.136 150.224 27.424 150.304C27.648 150.352 27.712 150.432 27.712 150.496C27.712 150.656 27.456 150.848 27.44 151.104C27.408 151.888 27.344 152.688 27.344 153.408C27.344 154.192 27.408 154.896 27.632 155.36C27.92 155.264 28.208 155.152 28.544 155.056C29.616 154.704 30.864 154.208 31.312 154.016C31.408 153.968 31.44 153.984 31.472 154.064C31.536 154.208 31.632 154.656 31.664 154.912V154.992C31.664 155.104 31.632 155.168 31.472 155.216C31.056 155.376 29.904 155.728 28.992 156C28.464 156.144 27.968 156.304 27.52 156.448C25.488 157.168 24.688 158.128 24.688 158.976C24.688 159.904 25.648 160.704 26.96 160.912C27.216 160.944 27.52 160.96 27.824 160.96C29.104 160.96 30.688 160.688 31.68 160.336C31.712 160.32 31.76 160.32 31.776 160.32C31.84 160.32 31.872 160.352 31.872 160.48C31.872 160.704 31.888 161.152 31.92 161.344V161.376C31.92 161.472 31.856 161.52 31.712 161.568C30.816 161.84 29.36 162.016 28.128 162.016ZM42.704 163.136C42.656 163.136 42.608 163.104 42.544 163.04C42.416 162.896 41.984 162.736 41.728 162.592C41.664 162.56 41.648 162.544 41.648 162.512C41.648 162.496 41.696 162.464 41.76 162.448C45.296 161.2 46.192 157.28 46.368 153.68C45.824 153.696 45.152 153.728 44.4 153.76C44.32 153.76 44.272 153.744 44.256 153.664C44.24 153.504 44.256 153.04 44.256 152.896C44.272 152.8 44.304 152.768 44.4 152.768C45.12 152.816 45.824 152.832 46.384 152.832C46.384 152.512 46.4 152.176 46.4 151.872C46.4 150.752 46.352 149.76 46.304 149.28V149.2C46.304 149.152 46.32 149.12 46.368 149.12C46.464 149.12 47.328 149.248 47.6 149.36C47.712 149.392 47.744 149.44 47.744 149.488C47.744 149.536 47.68 149.616 47.616 149.712C47.488 149.92 47.456 150.064 47.44 150.304C47.392 150.896 47.376 151.728 47.344 152.832H47.424C48.048 152.832 49.008 152.8 50.128 152.72H50.192C50.272 152.72 50.288 152.752 50.272 152.848C50.08 154.448 50.336 158.896 49.536 161.152C49.152 162.256 48.368 162.72 47.344 162.72C47.184 162.72 47.024 162.704 46.848 162.688C46.72 162.672 46.64 162.656 46.592 162.512C46.512 162.176 46.256 161.84 46.112 161.6C46.064 161.504 46.096 161.472 46.192 161.488C46.624 161.584 46.992 161.632 47.312 161.632C47.968 161.632 48.384 161.392 48.624 160.752C49.264 159.008 49.232 154.88 49.232 153.632C48.848 153.632 48.08 153.648 47.424 153.648H47.312C47.152 157.088 46.416 161.152 42.832 163.088C42.784 163.12 42.736 163.136 42.704 163.136ZM36.976 161.184C36.976 161.136 37.024 161.12 37.104 161.12C37.84 161.088 39.088 160.928 40.384 160.752C40.384 160.416 40.384 160.016 40.4 159.6C39.776 159.6 38.8 159.632 37.712 159.68H37.664C37.6 159.68 37.568 159.664 37.568 159.568C37.552 159.408 37.552 159.104 37.568 158.944C37.584 158.816 37.632 158.816 37.712 158.816C38.864 158.88 39.776 158.896 40.4 158.896C40.416 158.464 40.416 158 40.416 157.552C39.936 157.552 39.248 157.568 38.88 157.584C38.896 157.712 38.896 157.84 38.896 157.984C38.896 158.112 38.864 158.16 38.72 158.16C38.496 158.176 38.288 158.176 38.112 158.16C37.952 158.144 37.952 158.112 37.968 157.984C38.048 156.96 38.048 156.08 38.064 155.6C38.064 154.864 38.064 154.24 38 153.488V153.44C38 153.36 38.016 153.312 38.144 153.328C38.768 153.376 39.696 153.392 40.432 153.392C40.416 153.04 40.416 152.704 40.416 152.416C39.696 152.416 38.512 152.432 37.376 152.512H37.328C37.28 152.512 37.232 152.496 37.232 152.416C37.216 152.256 37.216 151.904 37.232 151.76C37.232 151.632 37.296 151.632 37.376 151.632C38.528 151.728 39.68 151.744 40.416 151.744V151.52C40.4 151.184 40.4 150.944 40.368 150.736C39.616 150.8 38.832 150.864 38.192 150.88C38.112 150.88 38.032 150.88 38 150.784C37.936 150.56 37.696 150.32 37.552 150.144C37.456 150.048 37.504 150.032 37.6 150.032C37.904 150.048 38.208 150.048 38.512 150.048C40.416 150.048 42.016 149.776 42.672 149.52C42.768 149.472 42.784 149.456 42.88 149.52C43.024 149.632 43.376 149.92 43.52 150.112C43.568 150.176 43.6 150.224 43.6 150.256C43.6 150.368 43.424 150.384 43.152 150.368C43.072 150.368 42.848 150.368 42.56 150.432C42.304 150.496 41.936 150.544 41.52 150.608C41.52 150.624 41.536 150.624 41.536 150.64C41.536 150.688 41.488 150.752 41.408 150.816C41.296 150.912 41.248 150.992 41.248 151.312C41.248 151.392 41.248 151.552 41.232 151.744C42.032 151.744 43.36 151.728 44.432 151.632C44.496 151.632 44.544 151.68 44.56 151.744C44.576 151.904 44.576 152.24 44.56 152.432C44.544 152.496 44.496 152.528 44.448 152.528C43.376 152.448 42.032 152.432 41.232 152.416C41.232 152.704 41.232 153.04 41.216 153.392C41.904 153.392 42.672 153.376 43.52 153.328C43.632 153.328 43.68 153.36 43.664 153.504C43.6 154.112 43.6 154.688 43.6 155.152V155.632C43.6 156.08 43.616 156.736 43.68 157.792V157.872C43.68 157.952 43.648 157.984 43.504 158C43.344 158.032 43.152 158.032 42.976 158.016C42.88 158 42.784 158 42.8 157.856V157.584C42.432 157.568 41.728 157.552 41.216 157.552C41.216 158 41.232 158.464 41.232 158.896C41.872 158.896 42.896 158.88 43.936 158.8C43.984 158.8 44.032 158.848 44.048 158.928C44.064 159.088 44.064 159.376 44.048 159.568C44.048 159.632 43.968 159.664 43.936 159.664C42.912 159.6 41.888 159.6 41.232 159.6C41.232 159.968 41.248 160.32 41.248 160.624C42.352 160.464 43.408 160.288 44.016 160.16C44.096 160.144 44.128 160.16 44.128 160.192C44.128 160.352 44.016 160.544 44.016 160.784C44.016 160.848 43.984 160.912 43.856 160.944C42.864 161.136 38.88 161.776 37.984 161.952C37.808 161.984 37.728 162.16 37.632 162.16C37.584 162.16 37.536 162.128 37.472 162.048C37.328 161.888 37.104 161.52 36.992 161.248C36.976 161.216 36.976 161.2 36.976 161.184ZM38.88 156.88C39.248 156.88 39.952 156.896 40.432 156.896V155.776C39.952 155.776 39.232 155.792 38.88 155.792V156.88ZM38.88 155.104C39.248 155.12 39.952 155.136 40.432 155.136V154.048C39.952 154.048 39.296 154.048 38.896 154.064C38.88 154.304 38.88 154.736 38.88 155.104ZM41.216 156.896C41.728 156.896 42.448 156.88 42.816 156.88C42.832 156.432 42.832 156.064 42.832 155.792C42.464 155.792 41.744 155.776 41.216 155.776V156.896ZM41.216 155.136C41.728 155.136 42.448 155.12 42.832 155.104C42.816 154.736 42.816 154.304 42.816 154.048H41.216V155.136ZM59.744 161.712C59.616 161.712 59.488 161.68 59.392 161.536C59.248 161.296 59.04 161.136 58.864 160.976C58.8 160.912 58.768 160.88 58.768 160.848C58.768 160.8 58.832 160.784 58.928 160.784C62.464 160.848 64.656 158.864 64.656 156.736C64.656 155.952 64.368 155.152 63.744 154.432C63.12 153.696 62.144 153.216 61.088 153.04C61.072 153.04 61.072 153.04 61.072 153.056H61.008C60.912 153.056 60.848 153.088 60.8 153.216C60.432 154.224 58.656 158.256 57.12 160.464C56.912 160.768 56.672 160.88 56.416 160.88C56.24 160.88 56.064 160.832 55.888 160.736C54.768 160.16 54.144 158.928 54.144 157.536C54.144 156.048 54.88 154.384 56.512 153.216C57.536 152.496 58.88 152.128 60.224 152.128C61.856 152.128 63.488 152.672 64.544 153.792C65.344 154.656 65.728 155.696 65.728 156.752C65.728 159.104 63.744 161.472 59.824 161.712H59.744ZM55.152 157.456C55.152 158.336 55.488 159.104 56.064 159.536C56.144 159.584 56.208 159.616 56.272 159.616C56.352 159.616 56.432 159.568 56.496 159.488C57.728 157.776 59.328 154.16 59.712 152.992C58.784 153.072 57.872 153.392 57.072 153.968C55.728 154.96 55.152 156.304 55.152 157.456ZM71.408 163.136C71.36 163.136 71.312 163.104 71.248 163.024C71.088 162.832 70.8 162.496 70.64 162.128C70.624 162.096 70.624 162.08 70.624 162.064C70.624 161.984 70.688 161.984 70.784 161.968C71.488 161.872 72.56 161.616 73.648 161.312C73.648 160.72 73.664 159.904 73.664 159.136C73.664 158.752 73.664 158.368 73.648 158.032C72.528 158.752 71.168 159.424 69.648 159.936C69.568 159.952 69.472 159.984 69.424 159.888C69.216 159.6 68.896 159.424 68.672 159.296C68.592 159.248 68.56 159.216 68.56 159.2C68.56 159.168 68.624 159.152 68.704 159.136C71.36 158.528 73.84 157.04 74.912 155.952H74.032C72.928 155.952 71.744 155.968 69.904 156.048C69.792 156.048 69.744 156.016 69.744 155.936C69.728 155.76 69.728 155.344 69.744 155.184C69.744 155.072 69.776 155.056 69.904 155.056C72.576 155.168 73.968 155.184 75.392 155.184C75.392 154.768 75.408 154.352 75.408 153.84C74.336 153.84 73.408 153.856 71.584 153.92H71.552C71.488 153.92 71.456 153.872 71.456 153.808C71.44 153.648 71.44 153.248 71.456 153.088C71.456 152.992 71.472 152.976 71.584 152.992C73.328 153.072 74.4 153.088 75.408 153.088V151.76C74.112 151.76 72.896 151.76 70.8 151.84H70.752C70.688 151.84 70.656 151.808 70.656 151.744C70.64 151.584 70.64 151.168 70.656 151.008C70.656 150.912 70.672 150.88 70.8 150.896C72.88 150.96 74.208 150.992 75.408 151.008C75.392 150.224 75.36 149.792 75.232 149.136V149.072C75.232 149.024 75.248 148.992 75.296 148.992C75.584 148.992 76.24 149.088 76.608 149.232C76.704 149.264 76.736 149.312 76.736 149.376C76.736 149.456 76.656 149.584 76.56 149.728C76.416 149.984 76.384 150.128 76.368 151.008C77.76 151.008 79.072 150.976 81.12 150.896C81.216 150.896 81.232 150.928 81.248 151.008C81.264 151.184 81.264 151.584 81.248 151.76C81.232 151.808 81.216 151.84 81.136 151.84C79.136 151.792 77.728 151.76 76.368 151.76V153.088C77.472 153.088 78.256 153.088 80.08 152.992C80.176 152.992 80.192 153.024 80.208 153.104C80.224 153.264 80.224 153.664 80.208 153.84C80.192 153.888 80.16 153.92 80.08 153.92C78.208 153.856 77.44 153.84 76.368 153.84C76.368 154.336 76.384 154.784 76.384 155.184C78.016 155.184 79.488 155.168 82.224 155.056C82.336 155.056 82.352 155.104 82.352 155.184C82.368 155.36 82.368 155.776 82.352 155.952C82.352 156.032 82.304 156.048 82.224 156.048C79.968 155.952 78.432 155.952 77.024 155.952C77.216 156.736 77.504 157.488 77.888 158.16C79.232 157.584 80.304 156.752 80.656 156.416C80.72 156.352 80.752 156.352 80.816 156.416C80.896 156.48 81.392 156.896 81.6 157.216C81.632 157.248 81.632 157.28 81.632 157.312C81.632 157.424 81.472 157.472 81.296 157.504C81.056 157.52 81.024 157.52 80.736 157.664C80.32 157.888 79.36 158.4 78.336 158.848C79.344 160.256 80.912 161.312 83.216 161.872C83.296 161.888 83.344 161.92 83.344 161.952C83.344 161.984 83.296 162.032 83.2 162.08C82.912 162.224 82.464 162.464 82.208 162.736C82.16 162.784 82.128 162.784 82.096 162.784C82.048 162.784 82 162.768 81.936 162.736C78.896 161.616 76.88 159.232 76.096 156.064C75.968 156.112 75.904 156.192 75.728 156.368C75.392 156.72 74.96 157.088 74.464 157.456C74.56 157.472 74.64 157.488 74.688 157.488C74.816 157.504 74.88 157.552 74.88 157.616C74.88 157.664 74.832 157.728 74.736 157.792C74.672 157.824 74.64 157.872 74.64 158.064C74.64 159.072 74.64 160.24 74.656 161.04C75.904 160.672 77.024 160.32 77.456 160.176C77.584 160.144 77.6 160.144 77.568 160.272C77.52 160.448 77.472 160.72 77.472 160.96C77.456 161.04 77.44 161.104 77.312 161.152C75.424 161.84 72.752 162.576 71.792 162.88C71.616 162.944 71.52 163.136 71.408 163.136ZM88.192 163.008C88.112 163.024 88.032 163.04 87.984 162.96C87.792 162.64 87.456 162.432 87.248 162.24C87.168 162.176 87.152 162.128 87.152 162.112C87.152 162.08 87.2 162.08 87.28 162.08C90.784 162.032 92.48 160 92.928 158.832C93.104 158.448 93.2 158.064 93.248 157.68C93.264 157.632 93.264 157.584 93.296 157.568L92.768 157.584L92.784 157.904C92.784 158.032 92.768 158.048 92.64 158.064C92.512 158.08 92.048 158.08 91.904 158.064C91.792 158.048 91.744 158.048 91.76 157.904C91.856 156.32 91.856 154.528 91.856 153.52C91.856 152.336 91.856 151.024 91.792 149.792V149.696C91.792 149.616 91.824 149.6 91.968 149.616C92.896 149.664 93.968 149.68 94.72 149.68C95.488 149.68 96.48 149.664 97.584 149.616H97.632C97.728 149.616 97.76 149.664 97.76 149.776C97.696 150.976 97.68 152.64 97.68 153.632C97.68 154.544 97.696 156.112 97.776 157.728V157.808C97.776 157.888 97.744 157.92 97.6 157.952C97.52 157.968 97.36 157.968 97.2 157.968C97.088 157.968 96.976 157.968 96.912 157.952C96.784 157.936 96.736 157.92 96.736 157.808C96.736 157.728 96.736 157.664 96.752 157.584L96.112 157.568L96.16 157.584C96.272 157.6 96.304 157.648 96.304 157.68C96.304 157.728 96.256 157.776 96.192 157.824C96.096 157.904 96.064 157.984 96.064 158.16C96.048 158.672 96 160.288 96 160.912C96.016 161.424 96.144 161.648 96.528 161.696C96.656 161.712 96.816 161.728 96.976 161.728C97.248 161.728 97.552 161.696 97.776 161.648C98.192 161.552 98.384 161.024 98.4 159.808C98.4 159.712 98.448 159.744 98.496 159.792C98.672 160.032 99.008 160.416 99.328 160.576C99.408 160.624 99.424 160.656 99.408 160.784C99.2 161.936 98.832 162.48 97.968 162.592C97.648 162.64 97.28 162.672 96.912 162.672C96.672 162.672 96.432 162.656 96.224 162.624C95.376 162.496 94.992 161.984 95.056 161.072C95.088 160.448 95.104 159.408 95.12 158.592C95.12 158.256 95.104 157.872 95.072 157.552H94.688L93.344 157.568L93.376 157.584C93.616 157.648 94.064 157.776 94.384 157.968C94.464 158.016 94.496 158.064 94.496 158.112C94.496 158.176 94.432 158.256 94.288 158.304C94.08 158.384 94.048 158.608 93.744 159.248C93.136 160.736 91.472 162.528 88.192 163.008ZM85.584 160.4C85.536 160.4 85.488 160.384 85.44 160.32C85.264 160.112 85.008 159.664 84.912 159.488C84.896 159.456 84.896 159.44 84.896 159.424C84.896 159.376 84.96 159.376 85.024 159.36C85.552 159.264 86.544 158.928 87.552 158.544L87.584 154.928C87.184 154.928 86.64 154.96 85.952 155.008C85.92 155.008 85.84 154.992 85.84 154.896C85.824 154.736 85.824 154.304 85.84 154.144C85.84 154.016 85.888 154 85.952 154.016C86.656 154.08 87.184 154.112 87.584 154.112C87.584 152.88 87.568 151.728 87.552 151.152C87.072 151.152 86.448 151.184 85.664 151.248H85.632C85.6 151.248 85.536 151.216 85.536 151.136C85.52 150.96 85.52 150.512 85.536 150.352C85.536 150.208 85.6 150.208 85.664 150.208C86.88 150.32 87.648 150.32 88.208 150.336C88.688 150.336 89.44 150.32 90.64 150.208C90.688 150.208 90.752 150.24 90.768 150.336C90.784 150.512 90.784 150.944 90.768 151.152C90.752 151.232 90.688 151.264 90.64 151.264C89.744 151.184 89.088 151.152 88.624 151.152V151.168L88.576 154.128C88.976 154.112 89.488 154.08 90.192 154.016H90.224C90.256 154.016 90.304 154.048 90.304 154.128C90.32 154.304 90.32 154.72 90.304 154.912C90.304 154.992 90.24 155.008 90.192 155.008C89.504 154.96 88.976 154.944 88.576 154.928C88.576 156.144 88.592 157.392 88.608 158.144C89.568 157.76 90.416 157.392 90.8 157.216C90.912 157.168 90.912 157.168 90.912 157.28C90.896 157.392 90.896 157.536 90.896 157.664C90.896 157.776 90.896 157.872 90.912 157.952V157.984C90.912 158.032 90.88 158.08 90.784 158.128C89.328 158.816 86.864 159.808 85.968 160.16C85.808 160.224 85.712 160.4 85.584 160.4ZM94.688 156.848L96.768 156.832L96.784 155.232L94.688 155.2L92.752 155.232L92.768 156.832C93.216 156.848 94.176 156.848 94.688 156.848ZM94.688 154.384L96.784 154.368V152.88L94.688 152.848L92.752 152.88V154.368L94.688 154.384ZM94.688 152.08L96.768 152.064L96.752 150.496L94.704 150.48L92.768 150.496L92.752 152.064C93.216 152.08 94.176 152.08 94.688 152.08ZM106.592 161.776C106.272 161.776 105.936 161.728 105.568 161.648C105.44 161.616 105.376 161.536 105.344 161.408C105.312 161.184 105.184 160.928 105.12 160.704C105.104 160.672 105.104 160.656 105.104 160.64C105.104 160.592 105.152 160.576 105.232 160.592C105.648 160.656 106 160.704 106.304 160.704C107.248 160.704 107.728 160.368 108.096 159.792C108.576 159.056 108.784 157.648 108.784 156.576C108.784 156.256 108.768 155.984 108.736 155.744C108.672 155.168 108.432 154.96 107.872 154.96C107.36 154.976 106.816 155.024 106.272 155.104C105.504 157.552 104.4 159.968 103.024 161.648C102.96 161.712 102.912 161.728 102.816 161.712C102.608 161.68 102.064 161.44 101.92 161.344C101.856 161.296 101.808 161.232 101.888 161.152C103.248 159.824 104.464 157.6 105.216 155.264C104.224 155.44 103.344 155.616 102.832 155.664C102.752 155.664 102.672 155.664 102.624 155.552C102.544 155.408 102.384 154.944 102.368 154.832C102.368 154.784 102.352 154.752 102.352 154.736C102.352 154.656 102.4 154.64 102.48 154.64C102.992 154.672 104.192 154.464 105.488 154.288C105.792 153.168 105.968 152.032 106 150.992C106 150.848 106 150.832 106.128 150.864C106.368 150.896 106.848 150.976 107.168 151.088C107.328 151.152 107.376 151.2 107.376 151.264C107.376 151.392 107.12 151.552 107.072 151.808C106.928 152.576 106.752 153.36 106.544 154.16C107.136 154.096 107.712 154.048 108.224 154.048C109.024 154.048 109.664 154.4 109.776 155.488C109.808 155.76 109.824 156.064 109.824 156.416C109.824 157.696 109.616 159.376 109.072 160.288C108.48 161.264 107.696 161.776 106.592 161.776ZM110.736 153.984L111.232 153.536C111.28 153.504 111.296 153.488 111.344 153.488C111.376 153.488 111.408 153.504 111.472 153.536C112.352 154 114.192 155.408 115.056 156.752C115.088 156.8 115.088 156.816 115.088 156.848C115.088 156.88 115.072 156.928 115.024 156.976C114.832 157.168 114.528 157.424 114.336 157.536C114.256 157.584 114.176 157.616 114.128 157.504C113.376 156.08 111.584 154.608 110.752 154.16C110.64 154.096 110.688 154.032 110.736 153.984ZM111.472 152.048C111.52 151.968 111.712 151.744 111.792 151.68C111.856 151.616 111.888 151.6 111.968 151.648C112.464 151.888 113.504 152.496 113.984 152.96C114.016 152.992 114.016 153.024 114.016 153.056C114.016 153.088 114.016 153.12 113.984 153.184C113.92 153.296 113.744 153.52 113.648 153.6C113.568 153.664 113.52 153.648 113.456 153.584C112.944 153.12 111.936 152.448 111.488 152.208C111.408 152.16 111.44 152.096 111.472 152.048ZM112.624 150.944C112.688 150.864 112.88 150.64 112.96 150.576C113.024 150.528 113.056 150.512 113.12 150.544C113.632 150.784 114.672 151.392 115.152 151.84C115.184 151.872 115.2 151.904 115.2 151.936C115.2 151.968 115.184 152 115.152 152.064C115.104 152.176 114.912 152.4 114.832 152.48C114.752 152.544 114.704 152.544 114.624 152.48C114.112 152 113.104 151.344 112.656 151.12C112.576 151.072 112.608 150.992 112.624 150.944Z" fill="white"/>
<path d="M12.032 191.896C11.824 191.896 11.616 191.896 11.456 191.88C11.36 191.864 11.328 191.832 11.328 191.736L11.424 188.456C10.816 188.472 9.984 188.504 8.928 188.584C8.864 188.584 8.784 188.552 8.768 188.456C8.768 188.28 8.752 187.8 8.768 187.624C8.784 187.496 8.848 187.496 8.928 187.496C10.016 187.576 10.816 187.592 11.44 187.608C11.472 185.896 11.504 184.232 11.504 183.08C10.24 185.384 8.096 187.848 5.84 189.592C5.792 189.64 5.744 189.672 5.696 189.672C5.648 189.672 5.6 189.64 5.552 189.592C5.264 189.336 4.864 189.176 4.576 189.08C4.464 189.032 4.432 188.968 4.56 188.904C7.696 187.288 10.24 183.608 11.056 182.264H10.176C9.024 182.264 7.744 182.28 5.904 182.376C5.808 182.376 5.744 182.36 5.728 182.248C5.712 182.056 5.712 181.576 5.728 181.384C5.744 181.256 5.776 181.24 5.888 181.256C8.608 181.368 9.968 181.4 11.504 181.4C11.488 180.264 11.472 179.144 11.328 178.168V178.136C11.328 178.056 11.376 178.024 11.456 178.024C11.712 178.056 12.32 178.168 12.688 178.296C12.8 178.328 12.848 178.392 12.848 178.456C12.848 178.6 12.672 178.808 12.592 179.016C12.448 179.4 12.4 180.28 12.384 181.4C13.936 181.4 15.408 181.368 18.064 181.256C18.176 181.256 18.208 181.304 18.224 181.4C18.224 181.576 18.24 182.056 18.224 182.264C18.208 182.344 18.144 182.376 18.064 182.376C15.808 182.28 14.24 182.28 12.752 182.264C13.584 183.624 16.08 187.208 19.28 188.712C19.36 188.744 19.392 188.776 19.392 188.808C19.392 188.84 19.344 188.888 19.248 188.92C18.912 189.048 18.512 189.24 18.272 189.48C18.224 189.512 18.192 189.528 18.144 189.528C18.096 189.528 18.048 189.512 18 189.464C15.888 187.992 13.536 185.336 12.384 183.112C12.384 184.248 12.416 185.944 12.464 187.608C13.104 187.592 13.872 187.576 14.96 187.496C15.024 187.496 15.072 187.528 15.088 187.624C15.088 187.784 15.104 188.296 15.088 188.472C15.072 188.552 15.008 188.584 14.96 188.584C13.888 188.488 13.152 188.472 12.48 188.456C12.512 189.736 12.528 190.92 12.56 191.736C12.56 191.816 12.512 191.864 12.432 191.88C12.32 191.896 12.176 191.896 12.032 191.896ZM21.76 184.376C21.664 184.424 21.6 184.424 21.536 184.36C21.312 184.168 20.976 184.088 20.688 183.976C20.592 183.944 20.576 183.896 20.672 183.864C22.544 183.128 22.816 181.384 22.816 180.184C22.816 179.704 22.768 179.304 22.72 178.936V178.872C22.72 178.808 22.752 178.808 22.864 178.84C23.072 178.872 23.552 179.016 23.808 179.096C25.2 178.744 26.496 178.232 26.912 177.96C26.976 177.928 26.992 177.896 27.056 177.96C27.152 178.056 27.504 178.456 27.616 178.616C27.648 178.68 27.68 178.728 27.68 178.76C27.68 178.872 27.536 178.92 27.344 178.888C27.264 178.888 27.104 178.904 26.896 178.968C26.272 179.192 25.024 179.576 23.696 179.88C23.68 180.088 23.696 180.264 23.68 180.536C24.08 180.536 24.608 180.552 25.04 180.552C25.792 180.552 26.8 180.552 27.952 180.44C28 180.44 28.064 180.472 28.064 180.552C28.08 180.68 28.08 181.112 28.064 181.256C28.064 181.32 28 181.352 27.952 181.352C27.312 181.304 26.672 181.272 26.128 181.256C26.096 181.288 26.064 181.32 26 181.352C25.872 181.416 25.872 181.56 25.872 181.944C25.872 182.344 25.904 182.856 25.968 183.304C25.968 183.352 25.92 183.432 25.84 183.432H24.992C24.896 183.416 24.88 183.352 24.88 183.32C24.976 182.696 25.008 182.264 25.008 181.88C25.008 181.736 25.008 181.528 24.992 181.256C24.528 181.256 24.016 181.272 23.6 181.272C23.472 182.28 23.072 183.576 21.76 184.376ZM21.168 191.384C21.056 191.288 21.12 191.272 21.216 191.256C23.824 191.112 25.728 190.056 26.208 189.672C26.304 189.608 26.304 189.592 26.416 189.656C26.56 189.736 26.848 189.976 27.088 190.2C27.136 190.248 27.168 190.296 27.168 190.328C27.168 190.408 27.056 190.456 26.896 190.472C26.736 190.488 26.656 190.52 26.512 190.584C25.776 191 24.048 191.784 22.128 192.12C22.064 192.12 21.936 192.12 21.888 192.04C21.792 191.848 21.376 191.512 21.168 191.384ZM24.16 189.624C24.24 188.504 24.288 187.496 24.288 186.696C24.272 185.736 24.288 184.792 24.224 183.816V183.784C24.224 183.704 24.272 183.704 24.352 183.704C25.664 183.752 26.864 183.768 28.064 183.768C29.376 183.768 29.904 183.768 31.68 183.704H31.728C31.808 183.704 31.84 183.752 31.84 183.832C31.792 184.776 31.792 185.624 31.792 186.68C31.792 187.48 31.824 188.264 31.872 189.48V189.512C31.872 189.592 31.808 189.608 31.728 189.624H30.992C30.88 189.608 30.848 189.576 30.848 189.496C30.848 189.416 30.848 189.336 30.864 189.256C30.32 189.24 29.184 189.224 28.064 189.224C26.992 189.224 25.84 189.24 25.2 189.24C25.216 189.368 25.216 189.48 25.216 189.608C25.216 189.704 25.184 189.72 25.072 189.72C24.864 189.736 24.48 189.736 24.304 189.72C24.208 189.72 24.144 189.72 24.16 189.624ZM25.168 187.576C25.184 187.88 25.184 188.2 25.184 188.552C25.824 188.552 26.992 188.568 28.048 188.568C29.184 188.568 30.352 188.536 30.88 188.536C30.896 188.216 30.896 187.896 30.896 187.592C30.368 187.576 29.2 187.56 28.064 187.56C26.992 187.56 25.792 187.576 25.168 187.576ZM25.168 186.92C25.792 186.92 26.976 186.936 28.064 186.936C29.2 186.936 30.368 186.904 30.896 186.904V186.024C30.368 186.024 29.2 186.008 28.064 186.008C26.976 186.008 25.776 186.024 25.168 186.024V186.92ZM25.168 185.352C25.792 185.352 26.976 185.368 28.064 185.368C29.2 185.368 30.368 185.336 30.896 185.336V184.456C30.896 184.456 29.248 184.424 28.064 184.424C26.88 184.424 25.184 184.456 25.184 184.456C25.184 184.456 25.184 184.824 25.168 185.352ZM26.784 183.224C28.176 182.648 28.512 181.64 28.56 180.568C28.576 180.392 28.576 180.216 28.576 180.072C28.576 179.64 28.544 179.304 28.48 178.952V178.904C28.48 178.856 28.496 178.84 28.544 178.84C28.624 178.84 29.264 179 29.552 179.112C30.992 178.76 32.384 178.232 32.8 177.976C32.864 177.928 32.88 177.912 32.944 177.976C33.056 178.072 33.392 178.472 33.52 178.632C33.552 178.68 33.568 178.728 33.568 178.76C33.568 178.888 33.44 178.92 33.232 178.904C33.168 178.904 32.992 178.904 32.784 178.984C32.144 179.208 30.784 179.576 29.44 179.88C29.424 180.072 29.424 180.248 29.408 180.536C29.84 180.536 30.432 180.552 30.88 180.552C31.632 180.552 33.104 180.552 34.256 180.44C34.304 180.44 34.352 180.472 34.368 180.552C34.368 180.68 34.384 181.112 34.368 181.256C34.368 181.32 34.304 181.352 34.256 181.352C33.632 181.304 32.88 181.272 32.224 181.272C32.192 181.288 32.16 181.32 32.096 181.352C32 181.4 31.984 181.496 31.984 181.72C31.968 182.136 31.984 182.808 32.064 183.352C32.064 183.384 32.016 183.464 31.952 183.464C31.712 183.464 31.296 183.48 31.072 183.464C30.976 183.464 30.96 183.384 30.96 183.352C31.056 182.728 31.088 182.264 31.088 181.88C31.088 181.736 31.088 181.528 31.072 181.256H30.864C30.368 181.256 29.792 181.272 29.328 181.272C29.2 182.072 28.816 183.064 27.76 183.72C27.68 183.768 27.632 183.768 27.568 183.704C27.376 183.544 27.056 183.416 26.8 183.32C26.704 183.288 26.704 183.256 26.784 183.224ZM29.104 190.264C29.024 190.2 29.024 190.168 29.104 190.12C29.168 190.056 29.536 189.72 29.616 189.688C29.712 189.656 29.744 189.64 29.84 189.688C30.448 190.12 32.336 190.904 34.64 191.048C34.752 191.064 34.832 191.096 34.672 191.192C34.448 191.336 34 191.672 33.824 191.912C33.76 191.992 33.728 191.976 33.6 191.96C31.712 191.64 29.664 190.712 29.104 190.264ZM46.528 191.736C46.368 191.736 46.192 191.72 46.016 191.704C45.888 191.688 45.808 191.704 45.776 191.544C45.696 191.208 45.44 190.904 45.216 190.6C45.104 190.472 45.184 190.472 45.28 190.488C45.76 190.584 46.16 190.632 46.48 190.632C47.536 190.632 47.952 190.184 48.272 189.56C48.912 188.312 48.96 185.208 48.96 183.256V182.104C48.768 182.088 48.304 182.088 47.776 182.088H46.208C45.984 182.088 45.68 182.088 44.816 182.104C44.448 182.808 44.016 183.528 43.536 184.136C43.504 184.2 43.408 184.232 43.328 184.168C43.104 183.992 42.88 183.976 42.592 183.896V184.824C42.592 185.832 42.608 188.344 42.672 189.896V189.976C42.672 190.056 42.64 190.088 42.528 190.12C42.384 190.152 42 190.152 41.824 190.136C41.712 190.12 41.632 190.072 41.632 189.96C41.648 189.704 41.648 189.416 41.648 189.08L40.304 189.064L39.008 189.08C39.008 189.688 39.008 190.232 39.024 190.632C39.024 190.776 39.008 190.792 38.848 190.824C38.688 190.84 38.256 190.84 38.112 190.824C37.952 190.792 37.92 190.776 37.92 190.632C38.016 188.904 38.048 186.184 38.048 184.872C38.048 183.56 38.048 182.328 37.984 181.224V181.16C37.984 181.064 38 181.048 38.144 181.064L39.424 181.112C39.648 179.944 39.76 178.792 39.76 178.312C39.76 178.2 39.808 178.184 39.92 178.184C40.016 178.2 40.736 178.328 41.088 178.488C41.2 178.52 41.232 178.568 41.232 178.616C41.232 178.696 41.136 178.776 40.992 178.888C40.88 178.968 40.832 179.128 40.784 179.32C40.672 179.784 40.512 180.504 40.336 181.128H40.352C41.072 181.128 41.648 181.112 42.512 181.064H42.544C42.64 181.064 42.672 181.112 42.656 181.224C42.608 181.944 42.592 182.792 42.592 183.624C44.192 181.944 45.152 179.112 45.344 178.248C45.36 178.168 45.392 178.136 45.472 178.152C45.568 178.168 46 178.312 46.368 178.456C46.512 178.52 46.576 178.568 46.576 178.648C46.576 178.728 46.512 178.808 46.384 178.904C46.304 178.952 46.16 179.096 46.064 179.336C45.888 179.832 45.616 180.488 45.264 181.224H46.208C47.088 181.224 48.656 181.192 49.92 181.096H49.968C50.064 181.096 50.08 181.128 50.064 181.24C49.872 183.048 50.24 187.912 49.296 189.928C48.736 191.112 47.904 191.736 46.528 191.736ZM38.992 188.216C39.328 188.232 39.968 188.248 40.304 188.248C40.64 188.248 41.312 188.232 41.664 188.216C41.68 187.208 41.68 186.088 41.68 185.368C41.36 185.352 40.704 185.336 40.304 185.336C39.92 185.336 39.312 185.352 38.992 185.368V188.216ZM38.992 184.504C39.328 184.52 39.968 184.536 40.304 184.536C40.656 184.536 41.344 184.504 41.68 184.504C41.68 183.48 41.664 182.184 41.664 181.928H40.304C39.776 181.928 39.008 181.944 39.008 181.944C39.008 182.008 38.992 183.464 38.992 184.504ZM43.936 184.792C44.032 184.696 44.304 184.392 44.352 184.328C44.432 184.264 44.448 184.248 44.56 184.312C45.04 184.568 46.4 185.4 47.264 186.248C47.296 186.28 47.328 186.312 47.328 186.36C47.328 186.392 47.312 186.44 47.264 186.488C47.232 186.536 46.88 186.936 46.768 187.032C46.72 187.08 46.688 187.096 46.64 187.096C46.608 187.096 46.56 187.08 46.512 187.016C45.744 186.184 44.432 185.272 43.968 185C43.84 184.92 43.872 184.872 43.936 184.792ZM59.888 191.032C59.376 191.032 58.864 190.92 58.416 190.712C57.616 190.312 57.168 189.672 57.168 189.064C57.168 188.504 57.536 187.992 58.304 187.736C58.72 187.608 59.2 187.544 59.696 187.544C60.288 187.544 60.928 187.624 61.552 187.768C61.44 187.032 61.104 186.152 61.104 185.384C61.104 183.912 62.496 183.272 63.648 182.808C63.76 182.744 63.792 182.696 63.696 182.616C63.296 182.344 62.096 182.024 61.456 181.96C61.376 181.944 61.312 181.88 61.36 181.8C61.424 181.656 61.568 181.384 61.696 181.24C61.744 181.176 61.824 181.176 61.888 181.176C63.216 181.352 65.056 182.024 65.792 182.632C65.856 182.68 65.872 182.712 65.84 182.792C65.808 182.904 65.712 183.16 65.6 183.304C65.568 183.384 65.488 183.4 65.376 183.4C65.248 183.384 65.104 183.368 64.976 183.368C64.736 183.368 64.496 183.4 64.32 183.448C62.896 183.816 62 184.36 62 185.416C62 185.528 62.016 185.656 62.032 185.784C62.16 186.536 62.496 187.384 62.592 188.072C63.792 188.472 64.896 189.032 65.616 189.576C65.712 189.64 65.744 189.72 65.696 189.816C65.616 190.008 65.424 190.344 65.264 190.552C65.216 190.616 65.136 190.68 65.056 190.6C64.48 190.056 63.568 189.496 62.544 189.064C62.384 189.672 61.984 190.312 61.312 190.696C60.912 190.92 60.4 191.032 59.888 191.032ZM54.56 188.12C55.296 186.952 56.832 184.216 57.696 182.152C56.768 182.344 55.824 182.456 54.976 182.472C54.912 182.472 54.864 182.424 54.832 182.376C54.784 182.264 54.688 181.672 54.672 181.528V181.496C54.672 181.432 54.704 181.4 54.784 181.416C54.992 181.448 55.216 181.448 55.456 181.448C56.224 181.448 57.12 181.336 58 181.16C58.128 180.68 58.24 180.136 58.24 179.544C58.24 179.416 58.24 179.288 58.224 179.16C58.224 179.064 58.224 179.048 58.272 179.048C58.48 179.048 59.088 179.128 59.344 179.192C59.504 179.224 59.568 179.272 59.568 179.336C59.568 179.448 59.344 179.608 59.312 179.768C59.232 180.2 59.136 180.568 59.024 180.92C59.68 180.744 60.256 180.568 60.688 180.392C60.704 180.392 60.72 180.376 60.736 180.376C60.784 180.376 60.816 180.424 60.832 180.488C60.848 180.648 60.912 180.984 60.912 181.16C60.912 181.224 60.896 181.32 60.784 181.352C60.176 181.544 59.504 181.736 58.8 181.912C57.936 184.008 56.512 186.744 55.68 188.44C55.648 188.504 55.616 188.504 55.536 188.504C55.312 188.504 54.816 188.344 54.64 188.28C54.576 188.248 54.512 188.184 54.56 188.12ZM58.144 189.112C58.144 189.384 58.4 189.704 58.8 189.896C59.104 190.056 59.472 190.12 59.808 190.12C60.176 190.12 60.512 190.04 60.768 189.864C61.216 189.56 61.456 189.16 61.552 188.712C60.928 188.536 60.288 188.424 59.712 188.424C59.328 188.424 58.976 188.472 58.64 188.568C58.304 188.68 58.144 188.888 58.144 189.112ZM70.352 192.024C70.272 192.024 70.128 192.008 70.096 191.928C69.952 191.656 69.664 191.352 69.472 191.144C69.408 191.08 69.392 191.048 69.392 191.016C69.392 190.984 69.456 190.968 69.536 190.984C69.952 191.016 70.336 191.016 70.704 191.016C73.344 191.016 74.96 190.392 75.952 189.544C75.2 189.368 74.464 189.272 73.776 189.24C73.696 189.384 73.616 189.56 73.536 189.736C73.504 189.784 73.456 189.816 73.392 189.816C73.12 189.816 72.72 189.768 72.464 189.72C72.368 189.704 72.336 189.656 72.384 189.592C73.008 188.648 73.616 187.512 73.92 186.872V186.856C72.688 186.856 71.344 186.888 69.456 186.952H69.408C69.344 186.952 69.312 186.92 69.312 186.84C69.296 186.664 69.296 186.248 69.312 186.072C69.312 185.96 69.328 185.944 69.456 185.944C71.536 186.024 73.008 186.056 74.272 186.072C74.496 185.528 74.688 184.968 74.736 184.488C74.736 184.408 74.752 184.376 74.816 184.376C74.992 184.376 75.52 184.44 75.952 184.584C76.064 184.632 76.112 184.68 76.112 184.728C76.112 184.808 75.984 184.904 75.872 184.968C75.712 185.08 75.68 185.192 75.568 185.416C75.488 185.624 75.392 185.832 75.28 186.072H75.984C77.84 186.072 79.584 186.072 82.592 185.944C82.704 185.944 82.72 185.992 82.72 186.072C82.736 186.168 82.752 186.312 82.752 186.456C82.752 186.616 82.736 186.76 82.72 186.856C82.72 186.936 82.672 186.968 82.608 186.952C80.928 186.904 79.568 186.872 78.368 186.856C78.432 186.888 78.496 186.904 78.56 186.92C78.688 186.952 78.736 187 78.736 187.048C78.736 187.128 78.64 187.208 78.544 187.256C78.4 187.352 78.368 187.48 78.208 187.848C78.032 188.248 77.824 188.664 77.552 189.08C78.992 189.496 80.464 190.136 81.648 191.064C81.68 191.096 81.712 191.128 81.712 191.176C81.712 191.208 81.696 191.256 81.648 191.32C81.552 191.48 81.248 191.816 81.104 191.928C81.056 191.96 81.024 191.976 80.992 191.976C80.944 191.976 80.912 191.96 80.864 191.928C79.792 190.936 78.4 190.248 76.976 189.8C75.856 190.968 73.952 191.944 70.352 192.024ZM69.792 179.432C69.776 179.256 69.776 178.84 69.792 178.68C69.808 178.552 69.824 178.536 69.952 178.552C72.304 178.648 73.696 178.664 75.008 178.664H75.984C77.776 178.664 79.104 178.664 82.032 178.552H82.064C82.144 178.552 82.16 178.6 82.16 178.68C82.176 178.856 82.176 179.272 82.16 179.448C82.16 179.528 82.112 179.56 82.032 179.56C80.368 179.496 79.136 179.48 78.064 179.464V179.496C78.064 179.528 78.032 179.592 77.952 179.656C77.872 179.704 77.856 179.816 77.84 179.912V180.872C78.864 180.872 79.952 180.84 80.704 180.792C80.832 180.792 80.864 180.872 80.864 180.936C80.816 181.72 80.784 182.184 80.784 182.76C80.784 183.384 80.816 183.752 80.896 184.632C80.896 184.696 80.832 184.776 80.736 184.776C80.48 184.792 80.144 184.792 79.952 184.776C79.84 184.776 79.792 184.728 79.792 184.648C79.792 184.536 79.808 184.44 79.808 184.344C79.024 184.328 76.944 184.312 75.904 184.312C74.896 184.312 73.008 184.328 72.16 184.344C72.16 184.472 72.176 184.6 72.176 184.744C72.176 184.824 72.144 184.856 72.032 184.872C71.808 184.888 71.392 184.888 71.2 184.872C71.088 184.856 71.056 184.808 71.056 184.76C71.168 183.912 71.184 183.48 71.184 182.76C71.184 181.992 71.152 181.752 71.088 180.92C71.088 180.856 71.136 180.808 71.232 180.808C71.968 180.84 73.072 180.872 74.096 180.872C74.096 180.344 74.08 179.848 74.08 179.464C72.976 179.464 71.776 179.496 69.952 179.56C69.856 179.56 69.808 179.528 69.792 179.432ZM72.112 182.776C72.112 182.984 72.128 183.24 72.128 183.56C72.576 183.576 73.328 183.576 74.08 183.592C74.096 182.952 74.096 182.264 74.096 181.624C73.088 181.64 72.144 181.64 72.144 181.64C72.144 181.64 72.112 182.152 72.112 182.776ZM74.144 188.504C74.88 188.536 75.728 188.648 76.608 188.84C76.88 188.456 77.072 188.072 77.216 187.672C77.312 187.416 77.392 187.128 77.424 186.856H74.928C74.88 186.952 74.848 187.048 74.8 187.144C74.56 187.672 74.384 188.04 74.144 188.504ZM74.992 183.592H76.928C76.944 182.952 76.944 182.264 76.944 181.624H74.992V183.592ZM74.992 180.888H76.944C76.944 180.344 76.928 179.848 76.928 179.464H75.216V179.496C75.216 179.528 75.184 179.592 75.104 179.656C75.024 179.704 75.008 179.816 74.992 179.912V180.888ZM77.84 183.576C78.656 183.576 79.44 183.56 79.84 183.56C79.856 183.24 79.856 183 79.856 182.792C79.856 182.152 79.824 181.64 79.824 181.64C79.824 181.64 78.864 181.64 77.84 181.624V183.576ZM91.92 192.04C91.76 192.04 91.632 192.04 91.552 192.024C91.472 192.008 91.44 191.976 91.456 191.896C91.504 191.176 91.536 190.12 91.536 189.208C91.536 188.84 91.536 188.504 91.52 188.216C89.6 188.376 87.68 188.552 86.912 188.6C86.72 188.616 86.624 188.76 86.512 188.76C86.464 188.76 86.416 188.728 86.368 188.648C86.24 188.472 85.984 188.104 85.856 187.752C85.856 187.736 85.84 187.72 85.84 187.704C85.84 187.656 85.872 187.656 85.92 187.656C86.144 187.656 86.4 187.672 86.672 187.672C87.552 187.672 88.64 187.624 89.776 187.576C89.952 187.464 90.144 187.32 90.368 187.176C89.568 186.648 88.32 186.104 87.712 185.864C87.632 185.832 87.6 185.8 87.664 185.72C87.744 185.608 87.92 185.336 88.016 185.24C88.064 185.192 88.08 185.176 88.16 185.208C88.416 185.304 88.848 185.48 89.328 185.704C89.824 185.224 90.368 184.488 90.672 183.96C89.328 183.96 87.984 183.976 85.776 184.056C85.68 184.056 85.616 184.024 85.616 183.944C85.6 183.784 85.6 183.384 85.616 183.256C85.632 183.144 85.648 183.128 85.776 183.128C88.496 183.224 90.032 183.24 91.52 183.24V182.088C90.384 182.088 89.408 182.104 87.52 182.168H87.488C87.424 182.168 87.392 182.12 87.392 182.072C87.376 181.928 87.376 181.56 87.392 181.416C87.392 181.336 87.408 181.304 87.52 181.32C89.328 181.384 90.464 181.4 91.52 181.4V180.328C90.16 180.328 88.8 180.344 86.688 180.408C86.576 180.408 86.544 180.392 86.528 180.312C86.512 180.168 86.512 179.768 86.528 179.624C86.544 179.528 86.544 179.496 86.672 179.512C88.736 179.592 90.256 179.608 91.504 179.608C91.488 178.936 91.44 178.392 91.344 177.944V177.88C91.344 177.832 91.36 177.816 91.408 177.816C91.616 177.816 92.24 177.88 92.672 178.024C92.784 178.056 92.816 178.104 92.816 178.168C92.816 178.264 92.688 178.408 92.608 178.584C92.512 178.808 92.48 178.984 92.448 179.608C93.84 179.608 95.216 179.592 97.232 179.512C97.328 179.512 97.344 179.56 97.36 179.624C97.376 179.784 97.376 180.168 97.36 180.312C97.344 180.376 97.312 180.408 97.248 180.408C95.264 180.36 93.808 180.328 92.448 180.328V181.4C93.536 181.4 94.352 181.4 96.144 181.32C96.24 181.32 96.256 181.352 96.272 181.432C96.288 181.576 96.288 181.944 96.272 182.088C96.256 182.152 96.208 182.184 96.144 182.168C94.32 182.12 93.488 182.088 92.448 182.088V183.24C94.08 183.24 95.616 183.224 98.336 183.128C98.432 183.128 98.448 183.176 98.448 183.24C98.464 183.32 98.48 183.464 98.48 183.592C98.48 183.736 98.464 183.88 98.448 183.96C98.448 184.024 98.4 184.056 98.336 184.056C95.488 183.96 93.744 183.96 92.016 183.96H91.856L91.872 183.976C91.952 184.04 91.984 184.088 91.984 184.12C91.984 184.216 91.824 184.248 91.664 184.328C91.536 184.392 91.456 184.488 91.376 184.568C91.04 184.984 90.56 185.56 90.064 186.056C90.448 186.264 90.816 186.456 91.088 186.648C92.096 185.88 93.152 184.952 93.616 184.344C93.648 184.296 93.664 184.248 93.744 184.296C93.936 184.392 94.384 184.664 94.576 184.84C94.656 184.904 94.688 184.968 94.688 185C94.688 185.08 94.528 185.112 94.368 185.16C94.24 185.192 94.128 185.24 94.016 185.336C93.376 185.864 92.192 186.776 91.184 187.48C92.88 187.384 94.544 187.24 95.616 187.144C95.072 186.76 94.592 186.44 94.336 186.296C94.272 186.248 94.272 186.2 94.336 186.136C94.432 186.04 94.688 185.8 94.768 185.752C94.848 185.688 94.88 185.704 94.944 185.752C95.472 186.04 96.944 186.968 98.064 187.976C98.128 188.04 98.096 188.104 98.048 188.168C97.968 188.264 97.616 188.568 97.488 188.648C97.456 188.664 97.44 188.68 97.408 188.68C97.36 188.68 97.328 188.648 97.28 188.6C97.008 188.312 96.704 188.024 96.384 187.768C96.352 187.784 96.32 187.8 96.272 187.8L92.656 188.12L92.608 188.152C92.512 188.216 92.512 188.264 92.512 188.456C92.496 188.744 92.496 189.08 92.496 189.448C92.496 190.232 92.528 191.128 92.576 191.912C92.576 191.992 92.56 192.024 92.48 192.024C92.352 192.04 92.128 192.04 91.92 192.04ZM85.44 190.936C85.376 190.904 85.36 190.84 85.456 190.824C87.52 190.424 88.864 189.56 89.44 188.904C89.52 188.808 89.472 188.808 89.6 188.872C89.744 188.952 90.16 189.24 90.336 189.448C90.384 189.496 90.4 189.544 90.4 189.56C90.4 189.64 90.288 189.656 90.144 189.688C89.984 189.704 89.936 189.736 89.808 189.848C89.2 190.328 88.112 191.128 86.336 191.64C86.304 191.64 86.272 191.656 86.24 191.656C86.192 191.656 86.144 191.64 86.112 191.592C85.952 191.336 85.616 191.08 85.44 190.936ZM93.712 189.256C93.648 189.192 93.648 189.16 93.712 189.128C93.808 189.08 94.272 188.824 94.352 188.792C94.432 188.776 94.432 188.776 94.512 188.84C94.96 189.224 96.256 190.168 98.096 190.6C98.176 190.632 98.24 190.664 98.096 190.744C97.808 190.92 97.472 191.112 97.248 191.336C97.184 191.384 97.136 191.4 97.04 191.352C95.536 190.776 94.208 189.784 93.712 189.256ZM108.704 191.48C108.352 191.48 108.016 191.448 107.728 191.4C106.128 191.096 105.088 190.136 105.088 188.984C105.088 187.864 106.064 186.536 108.448 185.448C108.448 185.352 108.432 185.256 108.432 185.176C108.352 184.296 107.872 183.928 107.264 183.928C106.528 183.928 105.584 184.472 104.928 185.272C104.464 185.832 104.048 186.504 103.712 187.032C103.664 187.112 103.6 187.144 103.504 187.144C103.312 187.144 102.816 186.984 102.608 186.92C102.496 186.888 102.464 186.792 102.528 186.712C103.744 185.256 105.04 183.688 106.08 181.784C105.616 181.816 105.168 181.832 104.752 181.832C104.288 181.832 103.872 181.816 103.504 181.768C103.44 181.752 103.392 181.688 103.36 181.624C103.328 181.496 103.296 180.936 103.312 180.776C103.312 180.696 103.328 180.68 103.44 180.712C103.872 180.824 104.464 180.888 105.152 180.888C105.568 180.888 106 180.872 106.464 180.824C106.704 180.264 106.896 179.752 107.04 179.16C107.072 179.064 107.072 179.032 107.136 179.032C107.296 179.032 107.952 179.08 108.224 179.176C108.336 179.208 108.384 179.256 108.384 179.304C108.384 179.448 108.08 179.608 107.968 179.832C107.824 180.152 107.696 180.424 107.552 180.712C108.432 180.584 109.312 180.408 110.048 180.2C110.08 180.184 110.096 180.184 110.128 180.184C110.176 180.184 110.208 180.216 110.224 180.28C110.24 180.376 110.272 180.856 110.304 181.064C110.304 181.112 110.304 181.208 110.192 181.224C109.248 181.416 108.176 181.576 107.152 181.688C106.656 182.568 106.352 183.016 105.936 183.576C105.84 183.704 105.888 183.672 106 183.624C106.592 183.336 107.136 183.192 107.616 183.192C108.56 183.192 109.232 183.784 109.376 185.032V185.064C110.512 184.616 112.512 183.88 113.024 183.56C113.072 183.528 113.152 183.528 113.2 183.576C113.328 183.752 113.696 184.248 113.744 184.456C113.808 184.712 113.504 184.632 113.168 184.728C112.144 185.048 110.464 185.656 109.424 186.056H109.408C109.392 186.84 109.328 187.816 109.232 188.552C109.216 188.712 109.184 188.744 109.024 188.76C108.768 188.792 108.608 188.792 108.336 188.792H108.288C108.176 188.792 108.16 188.728 108.176 188.648C108.304 187.976 108.384 187.192 108.432 186.504C106.768 187.336 106.096 188.2 106.096 188.92C106.096 189.688 106.848 190.264 107.952 190.424C108.144 190.456 108.368 190.472 108.592 190.472C109.552 190.472 110.736 190.216 111.44 189.864C111.472 189.848 111.504 189.848 111.52 189.848C111.552 189.848 111.584 189.864 111.584 189.944C111.584 190.12 111.52 190.632 111.536 190.824V190.856C111.536 190.952 111.488 191 111.376 191.048C110.8 191.288 109.696 191.48 108.704 191.48ZM122.32 191.24C122.24 191.24 122.192 191.208 122.176 191.128V190.328C122.192 190.216 122.224 190.2 122.304 190.2C122.944 190.248 123.552 190.264 124.128 190.28C124.32 189.176 124.624 186.968 124.848 185.192C124.368 185.208 123.824 185.224 123.232 185.256C123.152 185.256 123.104 185.224 123.104 185.144C123.088 184.984 123.088 184.536 123.104 184.36C123.104 184.248 123.152 184.216 123.232 184.232C123.872 184.264 124.448 184.296 124.96 184.312L125.088 183.288C125.264 181.8 125.36 180.776 125.328 180.12C124.864 180.12 124.32 180.152 123.616 180.2C123.552 180.2 123.472 180.168 123.472 180.072C123.456 179.912 123.456 179.496 123.472 179.288C123.472 179.176 123.52 179.16 123.616 179.176C125.008 179.256 125.792 179.272 126.592 179.272C127.424 179.272 128.288 179.272 129.392 179.192C129.552 179.192 129.552 179.208 129.52 179.352C129.408 179.976 129.136 182.696 129.04 183.864C129.024 183.976 129.024 184.136 129.008 184.312C129.488 184.296 130.032 184.264 130.688 184.232C130.752 184.232 130.8 184.264 130.816 184.344C130.832 184.504 130.832 184.984 130.816 185.16C130.816 185.224 130.736 185.256 130.688 185.256C130.016 185.208 129.44 185.192 128.928 185.176C128.768 186.84 128.528 189.4 128.448 190.312C129.136 190.296 129.936 190.264 130.816 190.2C130.864 190.2 130.912 190.232 130.928 190.328C130.944 190.488 130.944 190.968 130.928 191.144C130.912 191.208 130.864 191.24 130.816 191.24C129.088 191.144 127.664 191.144 126.704 191.144H126.032C125.104 191.144 123.744 191.16 122.32 191.24ZM116.864 190.552C117.52 189.48 118.032 187.816 118.112 186.84C118.128 186.76 118.128 186.696 118.192 186.696C118.368 186.696 118.928 186.84 119.056 186.872C119.168 186.904 119.2 186.936 119.2 186.984C119.2 187.048 119.136 187.128 119.056 187.224C118.96 187.352 118.928 187.416 118.896 187.576C118.72 188.312 118.32 189.768 117.904 190.648C117.888 190.696 117.856 190.744 117.776 190.728C117.568 190.648 117.168 190.648 116.976 190.664C116.848 190.664 116.816 190.632 116.864 190.552ZM117.072 184.968C117.072 184.904 117.104 184.904 117.152 184.904C117.504 184.904 118.032 184.904 118.608 184.872C118.848 184.52 119.168 183.992 119.504 183.416C118.96 182.824 117.728 181.912 117.36 181.672C117.296 181.624 117.264 181.608 117.328 181.528C117.424 181.4 117.6 181.176 117.712 181.08C117.76 181.048 117.776 181.032 117.856 181.08C117.952 181.128 118.096 181.224 118.288 181.352C118.784 180.472 119.424 178.968 119.552 178.216C119.568 178.152 119.552 178.104 119.632 178.104C119.792 178.104 120.304 178.296 120.544 178.44C120.672 178.52 120.72 178.584 120.72 178.632C120.72 178.728 120.624 178.792 120.512 178.888C120.384 178.968 120.32 179.112 120.272 179.224C120.032 179.768 119.344 181.144 118.944 181.816C119.312 182.088 119.696 182.376 119.952 182.632C120.544 181.544 121.072 180.456 121.2 179.976C121.216 179.912 121.216 179.848 121.28 179.848C121.44 179.848 121.92 180.072 122.16 180.232C122.288 180.312 122.336 180.376 122.336 180.44C122.336 180.536 122.24 180.6 122.112 180.68C121.968 180.744 121.936 180.84 121.856 180.968C121.44 181.72 120.288 183.656 119.568 184.792C120.32 184.728 121.088 184.632 121.632 184.568C121.44 184.168 121.248 183.832 121.136 183.656C121.088 183.576 121.072 183.544 121.168 183.496C121.296 183.448 121.552 183.336 121.68 183.304C121.744 183.288 121.76 183.288 121.808 183.352C122.064 183.704 122.752 184.904 122.992 185.624C123.024 185.688 123.04 185.72 122.96 185.768C122.832 185.848 122.56 186.008 122.368 186.088C122.304 186.104 122.24 186.088 122.24 186.024C122.176 185.784 122.064 185.512 121.952 185.24C121.68 185.272 121.248 185.336 120.736 185.416C120.8 185.416 120.832 185.448 120.832 185.496C120.832 185.528 120.8 185.576 120.72 185.64C120.64 185.704 120.624 185.768 120.624 185.864C120.64 187.48 120.64 189.8 120.736 191.736C120.752 191.816 120.736 191.864 120.656 191.864C120.544 191.88 120.352 191.88 120.176 191.88C119.984 191.88 119.808 191.88 119.728 191.864C119.648 191.848 119.616 191.816 119.616 191.72C119.728 190.04 119.76 188.344 119.76 186.712V185.544C118.896 185.672 118.096 185.784 117.872 185.832C117.712 185.864 117.6 185.992 117.504 185.992C117.456 185.992 117.408 185.976 117.36 185.88C117.28 185.688 117.152 185.384 117.088 185.016C117.088 185 117.072 184.968 117.072 184.968ZM121.296 186.808C121.28 186.728 121.264 186.696 121.36 186.664C121.488 186.616 121.776 186.552 121.904 186.536C121.968 186.536 122.016 186.52 122.032 186.584C122.192 187.128 122.656 188.488 123.216 189.352C123.248 189.4 123.264 189.464 123.152 189.48C122.96 189.528 122.656 189.592 122.432 189.688C122.368 189.72 122.32 189.688 122.288 189.624C121.888 188.76 121.456 187.4 121.296 186.808ZM125.152 190.312H127.424C127.536 189.4 127.808 186.808 127.968 185.16H125.76C125.536 187.032 125.248 189.352 125.152 190.312ZM125.872 184.344C126.32 184.36 126.72 184.36 127.056 184.36C127.376 184.36 127.696 184.36 128.048 184.344C128.064 184.168 128.064 184.024 128.08 183.912C128.16 183.064 128.368 180.632 128.4 180.104H126.576C126.544 180.2 126.448 180.328 126.384 180.504C126.272 180.824 126.208 181.32 126 183.192L125.872 184.344ZM137.136 191.928C137.056 191.928 136.992 191.88 136.96 191.784C136.912 191.56 136.64 191.256 136.432 191C136.368 190.92 136.384 190.888 136.496 190.904C136.72 190.936 136.928 190.968 137.136 190.968C137.776 190.968 138.288 190.76 138.304 190.184V188.024C137.856 188.008 136.976 187.992 136.608 187.992C136.256 187.992 135.44 188.008 134.928 188.024C134.688 189.56 134.176 190.84 133.488 191.864C133.44 191.928 133.36 191.96 133.28 191.896C133.12 191.8 132.752 191.816 132.448 191.816C132.352 191.816 132.32 191.736 132.4 191.64C133.52 190.376 134.224 188.232 134.24 185.448V184.92C134.24 184.328 134.224 183.544 134.192 182.824C133.968 183.16 133.744 183.464 133.52 183.72C133.472 183.784 133.36 183.816 133.312 183.768C133.168 183.656 132.784 183.544 132.624 183.464C132.528 183.432 132.512 183.416 132.576 183.352C134.128 182.008 135.28 178.984 135.504 177.992C135.52 177.928 135.552 177.912 135.616 177.928C135.872 177.992 136.304 178.136 136.624 178.328C136.688 178.376 136.72 178.408 136.72 178.456C136.72 178.52 136.64 178.584 136.528 178.648C136.4 178.728 136.256 178.824 136.192 178.968C136.144 179.08 136.08 179.256 135.968 179.496C136.672 179.48 137.136 179.464 137.472 179.464C137.568 179.464 137.68 179.32 137.76 179.32C137.872 179.32 138.368 179.656 138.448 179.736C138.496 179.784 138.528 179.832 138.528 179.88C138.528 179.928 138.48 179.992 138.352 180.056C138.224 180.104 138.144 180.264 138.064 180.392C137.856 180.76 137.52 181.432 137.232 181.96C137.84 181.96 138.544 181.928 139.088 181.896C139.216 181.896 139.248 181.928 139.248 182.056C139.168 183.016 139.152 183.912 139.152 184.6V185.496C139.152 186.152 139.152 189.064 139.216 190.312C139.248 191.256 138.608 191.912 137.136 191.928ZM134.752 181.928C135.264 181.944 135.888 181.96 136.384 181.96C136.64 181.48 136.96 180.744 137.152 180.216C136.752 180.216 136.144 180.232 135.632 180.232C135.376 180.744 135.072 181.352 134.752 181.928ZM134.976 187.256C135.36 187.272 135.904 187.272 136.272 187.288C136.304 186.712 136.304 185.976 136.32 185.272C135.92 185.272 135.376 185.272 135.056 185.288V185.448C135.056 186.056 135.024 186.696 134.976 187.256ZM135.04 182.68C135.04 182.68 135.056 183.656 135.056 184.52C135.376 184.52 135.936 184.536 136.32 184.536C136.304 183.784 136.304 183.08 136.272 182.664C135.744 182.664 135.04 182.68 135.04 182.68ZM137.024 185.272C137.024 185.976 137.024 186.696 137.056 187.272C137.488 187.272 138.048 187.272 138.368 187.256V185.288C138.064 185.272 137.456 185.272 137.024 185.272ZM137.024 184.536C137.456 184.536 138.064 184.52 138.352 184.52V182.68C138.352 182.68 137.728 182.664 137.2 182.664V182.696C137.2 182.728 137.184 182.776 137.12 182.824C137.056 182.872 137.04 182.92 137.04 182.984C137.04 183.384 137.024 183.944 137.024 184.536ZM139.28 182.888C139.2 182.824 139.168 182.776 139.28 182.76C140.88 182.472 142.016 181.336 142.256 180.168C142.304 179.976 142.336 179.736 142.336 179.544L140.368 179.592C140.288 179.592 140.24 179.576 140.24 179.528C140.224 179.432 140.224 178.888 140.24 178.792C140.24 178.728 140.288 178.712 140.352 178.712C141.424 178.76 142.576 178.776 143.04 178.776C143.632 178.776 144.96 178.776 146.144 178.68C146.272 178.68 146.288 178.696 146.272 178.776C146.176 179.448 146.288 181.176 145.888 182.072C145.52 182.84 144.976 183.096 143.952 183.112C143.84 183.112 143.744 183.096 143.712 183C143.648 182.776 143.36 182.488 143.152 182.232C143.072 182.136 143.152 182.152 143.232 182.168C143.536 182.216 143.792 182.232 144 182.232C144.688 182.232 144.896 182.008 145.056 181.608C145.264 181.08 145.264 180.024 145.264 179.512C144.96 179.512 144.208 179.528 143.552 179.528C143.568 179.544 143.568 179.56 143.568 179.576C143.568 179.624 143.52 179.672 143.456 179.72C143.328 179.816 143.296 179.96 143.184 180.328C142.88 181.496 141.808 182.936 140.048 183.48C140.016 183.496 139.984 183.496 139.968 183.496C139.904 183.496 139.872 183.464 139.84 183.4C139.728 183.176 139.424 183 139.28 182.888ZM139.6 187.304C140.4 186.264 140.928 184.648 140.976 183.96C140.992 183.88 140.992 183.848 141.088 183.864C141.168 183.88 141.68 184.04 141.92 184.136C142.032 184.184 142.08 184.248 142.08 184.312C142.08 184.376 142.032 184.44 141.904 184.552C141.808 184.616 141.792 184.584 141.728 184.792C141.648 185.032 141.584 185.272 141.488 185.512C141.984 185.528 142.416 185.528 142.896 185.528C142.864 184.76 142.832 183.944 142.752 183.432V183.4C142.752 183.352 142.784 183.336 142.832 183.336C142.992 183.336 143.552 183.432 143.92 183.56C144.016 183.592 144.064 183.64 144.064 183.704C144.064 183.8 143.968 183.912 143.888 184.056C143.776 184.232 143.776 184.488 143.776 184.744C143.76 184.968 143.76 185.24 143.76 185.528C144.528 185.528 145.152 185.496 146.272 185.416C146.352 185.416 146.4 185.464 146.4 185.528C146.416 185.672 146.416 186.104 146.4 186.264C146.4 186.328 146.32 186.36 146.272 186.344C145.168 186.28 144.512 186.264 143.744 186.248V187.352C143.744 187.576 143.744 187.8 143.76 188.024C144.656 188.008 145.632 187.976 146.8 187.912C146.896 187.912 146.928 187.944 146.944 188.024V188.776C146.928 188.84 146.864 188.872 146.8 188.856C145.648 188.792 144.704 188.776 143.76 188.76C143.776 189.88 143.824 190.952 143.856 191.832C143.856 191.896 143.824 191.944 143.744 191.944C143.504 191.96 143.136 191.96 142.912 191.944C142.816 191.928 142.8 191.88 142.8 191.816C142.848 190.728 142.88 189.768 142.896 188.776C141.968 188.776 140.912 188.808 139.856 188.856H139.824C139.776 188.856 139.728 188.824 139.712 188.776C139.696 188.632 139.696 188.168 139.712 188.024C139.728 187.944 139.76 187.912 139.856 187.912C140.896 187.976 141.952 188.008 142.896 188.024V186.248C142.336 186.248 141.824 186.264 141.2 186.296C141.008 186.744 140.8 187.16 140.56 187.528C140.528 187.592 140.448 187.608 140.368 187.576C140.096 187.48 140 187.432 139.696 187.4C139.584 187.384 139.536 187.384 139.6 187.304ZM157.264 191.528C157.184 191.528 157.136 191.48 157.088 191.384C156.32 189.784 154.784 187.656 153.568 186.328C153.168 185.896 152.944 185.512 152.944 185.096C152.944 184.76 153.088 184.408 153.392 183.992C154.16 182.984 156.016 180.712 156.64 179.16C156.672 179.096 156.688 179.032 156.816 179.096C157.04 179.224 157.616 179.528 157.792 179.672C157.904 179.768 157.952 179.832 157.952 179.88C157.952 180.056 157.552 180.136 157.392 180.36C156.576 181.576 154.944 183.656 154.304 184.472C154.128 184.696 154.064 184.888 154.064 185.064C154.064 185.288 154.192 185.496 154.384 185.72C155.504 187 157.472 189.256 158.4 191C158.416 191.048 158.432 191.08 158.432 191.096C158.432 191.176 158.352 191.192 158.272 191.224C158.08 191.304 157.584 191.448 157.44 191.496C157.36 191.512 157.312 191.528 157.264 191.528Z" fill="white"/>
<path d="M6.904 259.536C6.856 259.536 6.784 259.488 6.688 259.392C6.496 259.152 6.04 258.504 5.824 257.976C5.8 257.928 5.8 257.904 5.8 257.88C5.8 257.808 5.896 257.808 6.016 257.808C7.216 257.712 8.944 257.424 10.72 257.064C10.816 255.336 10.84 253.128 10.84 251.232V249C10.84 247.68 10.816 246.576 10.696 245.304C10.696 245.256 10.672 245.208 10.696 245.16C9.568 246 8.296 246.84 6.88 247.584C6.76 247.656 6.592 247.704 6.496 247.584C6.208 247.272 5.584 247.032 5.176 246.864C5.008 246.792 4.96 246.744 4.96 246.696C4.96 246.648 5.056 246.6 5.176 246.552C9.688 244.896 13.024 241.44 14.536 239.496C14.896 239.016 15.208 238.536 15.376 238.056C15.424 237.912 15.472 237.816 15.664 237.912C15.976 238.032 16.768 238.296 17.176 238.608C17.296 238.704 17.344 238.776 17.344 238.848C17.344 239.016 17.08 239.136 16.84 239.184C16.816 239.184 16.792 239.208 16.768 239.208C18.736 241.44 22.528 244.224 26.848 245.496C26.992 245.544 27.04 245.568 27.04 245.616C27.04 245.664 26.992 245.712 26.872 245.784C26.416 246.072 25.84 246.312 25.504 246.72C25.384 246.84 25.24 246.864 25.12 246.792C21.448 245.208 17.752 242.376 15.88 240.144C14.848 241.392 13.192 243.264 10.792 245.088H10.96C12.736 245.16 13.984 245.16 15.136 245.16V244.56C15.136 244.08 15.112 243.432 14.968 242.688C14.944 242.568 14.968 242.544 15.112 242.544C15.448 242.568 16.312 242.688 16.816 242.808C16.96 242.856 17.008 242.904 17.008 243C17.008 243.168 16.72 243.456 16.648 243.768C16.576 243.984 16.552 244.224 16.552 244.584V245.16C17.848 245.16 19.336 245.136 20.848 245.064H20.92C21.088 245.064 21.136 245.16 21.112 245.304C21.016 246.384 21.016 247.632 21.016 249.264C21.016 250.776 21.04 251.496 21.16 252.648V252.72C21.16 252.84 21.136 252.888 20.872 252.912C20.632 252.936 20.176 252.96 19.912 252.936C19.72 252.912 19.576 252.912 19.576 252.744C19.576 252.576 19.6 252.432 19.6 252.264C18.904 252.264 17.512 252.24 16.504 252.24C16.912 253.152 17.464 253.992 18.184 254.76C20.296 254.016 22.096 252.864 22.648 252.36C22.744 252.288 22.792 252.312 22.888 252.384C23.008 252.48 23.728 253.176 24.016 253.632C24.04 253.68 24.064 253.728 24.064 253.752C24.064 253.896 23.872 253.968 23.632 253.968C23.2 253.968 23.128 253.968 22.648 254.16C22.048 254.424 20.632 255.072 19.168 255.624C20.944 257.016 23.488 257.928 26.944 258.048C27.088 258.048 27.136 258.072 27.136 258.12C27.136 258.168 27.088 258.24 26.968 258.312C26.536 258.6 25.96 259.008 25.648 259.416C25.528 259.584 25.432 259.56 25.24 259.536C21.856 259.008 19.216 257.736 17.344 255.816C17.272 256.056 17.224 256.416 17.224 256.68C17.224 256.8 17.2 256.896 17.008 256.944C15.976 257.232 9.16 258.864 7.48 259.224C7.192 259.272 7.072 259.536 6.904 259.536ZM12.232 252.264C12.232 253.608 12.232 255.168 12.256 256.752C14.416 256.272 16.384 255.768 17.128 255.6C16.24 254.616 15.544 253.512 15.016 252.24C14.032 252.24 12.856 252.264 12.232 252.264ZM12.232 251.136L15.88 251.16L19.624 251.136C19.648 250.536 19.648 249.888 19.648 249.264L15.928 249.24L12.232 249.264V251.136ZM12.256 248.112L15.928 248.136L19.648 248.112C19.648 247.104 19.624 246.456 19.624 246.288C19.624 246.288 17.08 246.264 15.928 246.264C14.752 246.264 12.28 246.288 12.28 246.288C12.28 246.288 12.256 247.056 12.256 248.112ZM40.816 257.568C40.624 257.568 40.432 257.52 40.288 257.304C40.072 256.944 39.76 256.704 39.496 256.464C39.4 256.368 39.352 256.32 39.352 256.272C39.352 256.2 39.448 256.176 39.592 256.176C44.896 256.272 48.184 253.296 48.184 250.104C48.184 248.928 47.752 247.728 46.816 246.648C45.88 245.544 44.416 244.824 42.832 244.56C42.808 244.56 42.808 244.56 42.808 244.584H42.712C42.568 244.584 42.472 244.632 42.4 244.824C41.848 246.336 39.184 252.384 36.88 255.696C36.568 256.152 36.208 256.32 35.824 256.32C35.56 256.32 35.296 256.248 35.032 256.104C33.352 255.24 32.416 253.392 32.416 251.304C32.416 249.072 33.52 246.576 35.968 244.824C37.504 243.744 39.52 243.192 41.536 243.192C43.984 243.192 46.432 244.008 48.016 245.688C49.216 246.984 49.792 248.544 49.792 250.128C49.792 253.656 46.816 257.208 40.936 257.568H40.816ZM33.928 251.184C33.928 252.504 34.432 253.656 35.296 254.304C35.416 254.376 35.512 254.424 35.608 254.424C35.728 254.424 35.848 254.352 35.944 254.232C37.792 251.664 40.192 246.24 40.768 244.488C39.376 244.608 38.008 245.088 36.808 245.952C34.792 247.44 33.928 249.456 33.928 251.184ZM60.04 259.104C59.896 259.08 59.848 259.032 59.848 258.888C60.088 254.808 60.088 251.04 60.088 247.8V246.912C58.96 246.936 57.712 246.984 56.176 247.032C56.032 247.032 55.936 247.008 55.936 246.864C55.912 246.6 55.912 245.904 55.936 245.64C55.936 245.472 55.984 245.448 56.176 245.448C57.736 245.52 58.984 245.544 60.088 245.568V244.44C60.088 243 60.064 241.56 59.92 240.504V240.432C59.92 240.336 59.968 240.312 60.088 240.312C60.448 240.36 61.312 240.432 61.84 240.6C61.984 240.648 62.032 240.72 62.032 240.816C62.032 240.984 61.912 241.176 61.816 241.392C61.72 241.56 61.6 241.776 61.576 242.496C61.552 243.216 61.552 244.44 61.528 245.616H65.416V245.496C65.416 244.656 65.44 243.84 65.44 243.024C65.44 241.8 65.392 240.624 65.224 239.472V239.424C65.224 239.304 65.296 239.304 65.416 239.328C65.704 239.352 66.568 239.448 67.096 239.616C67.24 239.664 67.288 239.736 67.288 239.808C67.288 239.952 67.192 240.144 67.096 240.336C66.952 240.648 66.88 240.864 66.856 241.608C66.832 242.496 66.808 244.296 66.784 245.496V245.616H70.6V245.496C70.6 244.608 70.624 243.768 70.624 242.952C70.624 241.824 70.576 240.72 70.432 239.616V239.568C70.432 239.496 70.456 239.448 70.528 239.448C70.84 239.448 71.656 239.568 72.232 239.76C72.4 239.808 72.472 239.88 72.472 240C72.472 240.12 72.352 240.288 72.256 240.528C72.16 240.744 72.064 241.032 72.04 241.728C72.016 242.664 71.968 244.296 71.968 245.496V245.592C73.36 245.568 74.872 245.52 76.72 245.448C76.888 245.448 76.912 245.496 76.912 245.64C76.936 245.928 76.936 246.6 76.912 246.888C76.912 246.984 76.84 247.032 76.72 247.032C74.92 246.96 73.384 246.936 71.968 246.912C71.992 249.36 72.064 251.472 72.136 253.824C72.136 253.944 72.088 253.992 71.968 253.992C71.8 254.016 71.56 254.016 71.32 254.016C71.104 254.016 70.864 254.016 70.72 253.992C70.576 253.992 70.504 253.944 70.528 253.824C70.528 253.488 70.552 253.2 70.552 252.888C70 252.888 69.328 252.864 68.824 252.864L66.88 252.888C66.88 253.248 66.904 253.608 66.904 253.968C66.904 254.088 66.856 254.136 66.736 254.136C66.568 254.16 66.328 254.16 66.088 254.16C65.848 254.16 65.608 254.16 65.464 254.136C65.32 254.136 65.272 254.088 65.272 253.968C65.392 250.824 65.416 249.144 65.416 246.864C63.976 246.864 62.776 246.864 61.528 246.888V250.032C61.528 252.168 61.552 254.616 61.576 256.704C63.04 256.752 63.856 256.776 65.488 256.776C68.824 256.776 70.768 256.776 75.136 256.584C75.304 256.584 75.328 256.656 75.328 256.8C75.352 257.088 75.352 257.808 75.328 258.072C75.328 258.192 75.256 258.24 75.136 258.24C70.84 258.072 68.728 258.072 65.488 258.072C63.592 258.072 62.968 258.096 61.624 258.12C61.624 258.408 61.648 258.672 61.648 258.912C61.648 259.032 61.6 259.08 61.48 259.104C61.144 259.128 60.328 259.128 60.04 259.104ZM66.784 246.864L66.856 251.712C67.432 251.736 68.248 251.736 68.824 251.736C69.328 251.736 70.024 251.736 70.576 251.712C70.6 250.776 70.6 249.984 70.6 249.216V246.888C69.328 246.864 68.104 246.864 66.784 246.864ZM83.056 259.584C82.936 259.632 82.864 259.608 82.792 259.512C82.456 258.96 81.856 258.624 81.544 258.384C81.424 258.264 81.472 258.216 81.592 258.192C86.392 257.64 88.072 255 88.12 252.384C88.12 251.928 88.12 251.352 88.048 250.8C86.272 251.928 84.16 253.032 82.264 253.632C82.12 253.68 81.976 253.752 81.904 253.632C81.616 253.224 80.92 252.816 80.632 252.624C80.464 252.528 80.44 252.432 80.656 252.384C84.664 251.472 88.288 249.432 90.136 247.656L90.544 247.248C88.984 247.248 87.016 247.272 86.032 247.272C86.032 247.536 86.032 247.776 86.056 248.04C86.056 248.184 86.008 248.208 85.84 248.208C85.504 248.232 84.952 248.232 84.664 248.208C84.52 248.208 84.448 248.136 84.448 248.04C84.616 246.384 84.64 245.064 84.64 243.648C84.64 242.16 84.616 241.2 84.52 239.496V239.472C84.52 239.376 84.592 239.304 84.736 239.328C86.608 239.4 89.608 239.424 91.48 239.424C93.544 239.424 96.16 239.4 98.056 239.304H98.104C98.272 239.304 98.32 239.424 98.32 239.496C98.224 241.128 98.2 242.328 98.2 243.624C98.2 244.848 98.272 246.096 98.392 247.8V247.824C98.392 247.92 98.296 248.016 98.176 248.016C97.816 248.04 97.312 248.04 97.024 248.016C96.88 247.992 96.784 247.944 96.784 247.8C96.808 247.632 96.808 247.464 96.808 247.296C95.968 247.272 94.12 247.248 92.56 247.248C92.656 247.32 92.68 247.392 92.68 247.44C92.68 247.512 92.584 247.56 92.416 247.584C94.984 249.384 97.912 250.968 102.496 251.784C102.664 251.832 102.712 251.904 102.544 252.048C102.232 252.312 101.776 252.672 101.464 253.128C101.368 253.248 101.272 253.272 101.152 253.224C97.456 252.216 94.096 250.248 91.408 248.256L91.336 248.328C90.712 248.952 89.704 249.696 88.552 250.464C88.912 250.512 89.392 250.584 89.8 250.68C89.92 250.728 89.968 250.776 89.968 250.848C89.968 250.968 89.872 251.136 89.776 251.304C89.608 251.616 89.56 251.736 89.536 252.48C89.488 255.696 87.616 258.552 83.056 259.584ZM85.936 243.912C85.96 244.416 85.984 245.208 86.008 246.12C87.016 246.144 89.08 246.168 90.664 246.168C90.688 245.568 90.688 244.632 90.688 243.864C89.056 243.888 86.92 243.888 85.936 243.912ZM85.936 242.736C86.944 242.76 89.08 242.784 90.688 242.784C90.688 241.944 90.664 241.056 90.664 240.552C88.72 240.552 85.984 240.576 85.984 240.576L85.936 242.736ZM92.032 243.864C92.032 244.632 92.056 245.544 92.056 246.168C93.736 246.168 95.968 246.12 96.856 246.12C96.88 245.256 96.904 244.416 96.904 243.912C96.016 243.888 93.736 243.888 92.032 243.864ZM92.032 242.784C93.712 242.784 96.016 242.76 96.904 242.736L96.856 240.576C96.856 240.576 94.288 240.552 92.368 240.552C92.368 240.6 92.32 240.696 92.2 240.768C92.08 240.888 92.056 241.008 92.056 241.176C92.032 241.608 92.032 242.208 92.032 242.784ZM93.304 250.608V250.512C93.304 250.44 93.328 250.44 93.472 250.44C93.832 250.488 94.552 250.56 95.104 250.728C95.272 250.776 95.344 250.824 95.344 250.896C95.344 250.992 95.248 251.112 95.128 251.256C94.96 251.472 94.936 252.24 94.936 253.176V254.328C94.936 255.864 95.008 257.328 95.104 259.128C95.104 259.248 95.032 259.272 94.936 259.296C94.576 259.32 93.904 259.32 93.616 259.296C93.448 259.272 93.4 259.248 93.424 259.128C93.496 257.808 93.496 256.776 93.496 255.792V254.328C93.496 253.128 93.52 251.568 93.304 250.608ZM126.016 255.408C125.944 255.408 125.896 255.408 125.8 255.36C122.152 253.872 116.128 248.928 114.736 248.04C114.352 247.8 114.016 247.632 113.656 247.632C113.344 247.632 113.032 247.776 112.696 248.064C111.88 248.808 110.032 250.728 109.6 251.256C109.312 251.616 109.264 252.024 108.952 252.024C108.88 252.024 108.76 251.976 108.592 251.88C108.208 251.64 107.68 251.232 107.44 250.968C107.32 250.848 107.344 250.776 107.464 250.704C109.264 249.456 110.464 248.016 111.856 246.768C112.408 246.264 113.008 246.048 113.584 246.048C114.256 246.048 114.928 246.336 115.552 246.744C117.184 247.848 122.944 252.408 126.904 253.824C127.048 253.872 127.12 253.92 127.12 253.992C127.12 254.064 127.072 254.136 127 254.256C126.808 254.544 126.448 255.024 126.208 255.312C126.136 255.384 126.088 255.408 126.016 255.408Z" fill="white"/>
</svg>
