<svg width="109" height="123" viewBox="0 0 109 123" fill="none" xmlns="http://www.w3.org/2000/svg">
<path d="M2.71875 48.5625C2.71875 40.875 4.51042 34.7396 8.09375 30.1562C11.3021 26.0104 15.1875 23.9375 19.75 23.9375C24.3125 23.9375 28.1979 26.0104 31.4062 30.1562C34.9896 34.7396 36.7812 40.9792 36.7812 48.875C36.7812 56.75 34.9896 62.9792 31.4062 67.5625C28.1979 71.7083 24.3229 73.7812 19.7812 73.7812C15.2396 73.7812 11.3438 71.7083 8.09375 67.5625C4.51042 62.9792 2.71875 56.6458 2.71875 48.5625ZM9.875 48.5938C9.875 53.9479 10.8021 58.3958 12.6562 61.9375C14.5104 65.4167 16.875 67.1562 19.75 67.1562C22.6042 67.1562 24.9688 65.4167 26.8438 61.9375C28.7188 58.4792 29.6562 54.1146 29.6562 48.8438C29.6562 43.5729 28.7188 39.1979 26.8438 35.7188C24.9688 32.2604 22.6042 30.5312 19.75 30.5312C16.9167 30.5312 14.5625 32.2604 12.6875 35.7188C10.8125 39.1562 9.875 43.4479 9.875 48.5938ZM58.3063 31.5625H49.9625L53.9625 24.75H65.5875V73H58.3063V31.5625Z" fill="#282828"/>
<path d="M0.8 104.42V102.86H5.64V104.42H0.8ZM20.3053 109H18.5053V102.34H11.1853V109H9.38531V94.72H11.1853V100.76H18.5053V94.72H20.3053V109ZM37.6695 101.84C37.6695 102.947 37.5295 103.953 37.2495 104.86C36.9695 105.753 36.5495 106.527 35.9895 107.18C35.4429 107.833 34.7562 108.333 33.9295 108.68C33.1162 109.027 32.1695 109.2 31.0895 109.2C29.9695 109.2 28.9962 109.027 28.1695 108.68C27.3429 108.32 26.6562 107.82 26.1095 107.18C25.5629 106.527 25.1562 105.747 24.8895 104.84C24.6229 103.933 24.4895 102.927 24.4895 101.82C24.4895 100.353 24.7295 99.0733 25.2095 97.98C25.6895 96.8867 26.4162 96.0333 27.3895 95.42C28.3762 94.8067 29.6162 94.5 31.1095 94.5C32.5362 94.5 33.7362 94.8067 34.7095 95.42C35.6829 96.02 36.4162 96.8733 36.9095 97.98C37.4162 99.0733 37.6695 100.36 37.6695 101.84ZM26.3895 101.84C26.3895 103.04 26.5562 104.073 26.8895 104.94C27.2229 105.807 27.7362 106.473 28.4295 106.94C29.1362 107.407 30.0229 107.64 31.0895 107.64C32.1695 107.64 33.0495 107.407 33.7295 106.94C34.4229 106.473 34.9362 105.807 35.2695 104.94C35.6029 104.073 35.7695 103.04 35.7695 101.84C35.7695 100.04 35.3962 98.6333 34.6495 97.62C33.9029 96.5933 32.7229 96.08 31.1095 96.08C30.0295 96.08 29.1362 96.3133 28.4295 96.78C27.7362 97.2333 27.2229 97.8933 26.8895 98.76C26.5562 99.6133 26.3895 100.64 26.3895 101.84ZM58.0392 94.72L54.2392 109H52.4192L49.6392 99.64C49.5592 99.36 49.4792 99.0733 49.3992 98.78C49.3192 98.4867 49.2459 98.2067 49.1792 97.94C49.1126 97.6733 49.0526 97.4467 48.9992 97.26C48.9592 97.06 48.9326 96.9133 48.9192 96.82C48.9059 96.9133 48.8792 97.06 48.8392 97.26C48.8126 97.4467 48.7659 97.6733 48.6992 97.94C48.6326 98.2067 48.5592 98.4933 48.4792 98.8C48.4126 99.0933 48.3326 99.3933 48.2392 99.7L45.5392 109H43.7192L39.9392 94.72H41.8192L44.0392 103.44C44.1192 103.747 44.1926 104.053 44.2592 104.36C44.3259 104.653 44.3859 104.947 44.4392 105.24C44.5059 105.52 44.5592 105.793 44.5992 106.06C44.6392 106.327 44.6792 106.587 44.7192 106.84C44.7592 106.573 44.7992 106.3 44.8392 106.02C44.8926 105.74 44.9526 105.453 45.0192 105.16C45.0859 104.853 45.1592 104.547 45.2392 104.24C45.3192 103.933 45.3992 103.633 45.4792 103.34L47.9992 94.72H49.8592L52.4792 103.4C52.5726 103.707 52.6592 104.02 52.7392 104.34C52.8192 104.647 52.8926 104.947 52.9592 105.24C53.0259 105.533 53.0792 105.82 53.1192 106.1C53.1726 106.367 53.2192 106.613 53.2592 106.84C53.2992 106.507 53.3526 106.16 53.4192 105.8C53.4859 105.427 53.5659 105.04 53.6592 104.64C53.7526 104.24 53.8526 103.833 53.9592 103.42L56.1592 94.72H58.0392ZM71.9483 109H70.1483V96.3H65.6883V94.72H76.3883V96.3H71.9483V109ZM91.6109 101.84C91.6109 102.947 91.4709 103.953 91.1909 104.86C90.9109 105.753 90.4909 106.527 89.9309 107.18C89.3843 107.833 88.6976 108.333 87.8709 108.68C87.0576 109.027 86.1109 109.2 85.0309 109.2C83.9109 109.2 82.9376 109.027 82.1109 108.68C81.2843 108.32 80.5976 107.82 80.0509 107.18C79.5043 106.527 79.0976 105.747 78.8309 104.84C78.5643 103.933 78.4309 102.927 78.4309 101.82C78.4309 100.353 78.6709 99.0733 79.1509 97.98C79.6309 96.8867 80.3576 96.0333 81.3309 95.42C82.3176 94.8067 83.5576 94.5 85.0509 94.5C86.4776 94.5 87.6776 94.8067 88.6509 95.42C89.6243 96.02 90.3576 96.8733 90.8509 97.98C91.3576 99.0733 91.6109 100.36 91.6109 101.84ZM80.3309 101.84C80.3309 103.04 80.4976 104.073 80.8309 104.94C81.1643 105.807 81.6776 106.473 82.3709 106.94C83.0776 107.407 83.9643 107.64 85.0309 107.64C86.1109 107.64 86.9909 107.407 87.6709 106.94C88.3643 106.473 88.8776 105.807 89.2109 104.94C89.5443 104.073 89.7109 103.04 89.7109 101.84C89.7109 100.04 89.3376 98.6333 88.5909 97.62C87.8443 96.5933 86.6643 96.08 85.0509 96.08C83.9709 96.08 83.0776 96.3133 82.3709 96.78C81.6776 97.2333 81.1643 97.8933 80.8309 98.76C80.4976 99.6133 80.3309 100.64 80.3309 101.84Z" fill="#282828"/>
</svg>
