<svg width="121" height="60" viewBox="0 0 121 60" fill="none" xmlns="http://www.w3.org/2000/svg">
<path d="M60.6464 59.3536C60.8417 59.5488 61.1583 59.5488 61.3536 59.3536L64.5355 56.1716C64.7308 55.9763 64.7308 55.6597 64.5355 55.4645C64.3403 55.2692 64.0237 55.2692 63.8284 55.4645L61 58.2929L58.1716 55.4645C57.9763 55.2692 57.6597 55.2692 57.4645 55.4645C57.2692 55.6597 57.2692 55.9763 57.4645 56.1716L60.6464 59.3536ZM61 34L60.5 34L60.5 59L61 59L61.5 59L61.5 34L61 34Z" fill="black"/>
<path d="M2.01406 20.136C1.79006 20.136 1.56606 20.136 1.35806 20.104C1.08606 20.088 1.03806 19.976 1.00606 19.848C0.958063 19.56 0.846063 19.352 0.750063 19.08C0.734063 19.048 0.734063 19.016 0.734063 19C0.734063 18.936 0.766063 18.888 0.830063 18.888C0.862063 18.888 0.894063 18.904 0.958063 18.936C1.27806 19.08 1.69406 19.16 2.15806 19.16C3.91806 19.16 6.30206 18.056 6.30206 15.432C6.30206 14.312 5.67806 13.72 5.03806 13.448C4.70206 13.304 4.33406 13.224 3.95006 13.224C3.63006 13.224 3.29406 13.288 3.02206 13.416C2.95806 13.448 2.89406 13.464 2.84606 13.464C2.78206 13.464 2.76606 13.416 2.78206 13.32C2.81406 13.128 2.86206 12.84 2.89406 12.552C2.91006 12.424 3.00606 12.344 3.13406 12.328C3.35806 12.312 3.71006 12.28 4.07806 12.184C4.57406 12.04 4.91006 11.848 5.21406 11.592C5.71006 11.176 5.93406 10.68 5.93406 10.232C5.93406 9.464 5.31006 8.808 4.36606 8.808C4.07806 8.808 3.75806 8.872 3.40606 9.016C2.83006 9.24 2.39806 9.608 2.04606 10.136C1.98206 10.216 1.95006 10.248 1.91806 10.248C1.87006 10.248 1.83806 10.184 1.80606 10.12C1.74206 9.912 1.72606 9.544 1.63006 9.384C1.59806 9.304 1.58206 9.256 1.58206 9.208C1.58206 9.16 1.59806 9.112 1.66206 9.064C2.01406 8.728 2.62206 8.344 3.21406 8.152C3.67806 8.008 4.12606 7.928 4.52606 7.928C6.06206 7.928 7.03806 8.936 7.03806 10.088C7.03806 10.792 6.68606 11.528 5.88606 12.12C5.69406 12.28 5.42206 12.424 5.16606 12.52C5.03806 12.568 5.11806 12.6 5.18206 12.616C6.41406 12.856 7.48606 13.896 7.50206 15.4C7.50206 18.68 4.44606 20.136 2.01406 20.136ZM14.6179 18.296C14.4259 18.296 14.3619 18.248 14.2979 18.136C14.0579 17.784 14.0579 17.88 13.8179 17.592C13.7539 17.528 13.7219 17.48 13.7219 17.448C13.7219 17.4 13.7859 17.384 13.8819 17.368C15.4179 17.256 17.4819 16.904 19.0179 16.136C20.3619 15.464 21.1299 14.36 21.1299 13.272C21.1299 12.728 20.9379 12.184 20.5539 11.704C19.9779 10.984 19.0659 10.68 17.9459 10.68C16.8419 10.68 15.5299 10.984 14.1539 11.48C13.2419 11.816 12.0419 12.376 11.5459 12.584C11.3859 12.664 11.3219 12.68 11.2419 12.616C11.0019 12.408 10.6179 11.992 10.4899 11.784C10.4259 11.688 10.4579 11.64 10.5539 11.624C11.3379 11.448 12.6659 10.888 13.7859 10.504C15.2419 10.008 16.6979 9.704 17.9779 9.704C19.4659 9.704 20.7299 10.12 21.5459 11.176C22.0259 11.8 22.2979 12.552 22.2979 13.32C22.2979 14.664 21.4819 16.088 19.6099 17.08C18.1059 17.848 15.9619 18.216 14.6179 18.296ZM32.3299 18.712C32.2019 18.712 32.0739 18.68 31.9779 18.536C31.8339 18.296 31.6259 18.136 31.4499 17.976C31.3859 17.912 31.3539 17.88 31.3539 17.848C31.3539 17.8 31.4179 17.784 31.5139 17.784C35.0499 17.848 37.2419 15.864 37.2419 13.736C37.2419 12.952 36.9539 12.152 36.3299 11.432C35.7059 10.696 34.7299 10.216 33.6739 10.04C33.6579 10.04 33.6579 10.04 33.6579 10.056H33.5939C33.4979 10.056 33.4339 10.088 33.3859 10.216C33.0179 11.224 31.2419 15.256 29.7059 17.464C29.4979 17.768 29.2579 17.88 29.0019 17.88C28.8259 17.88 28.6499 17.832 28.4739 17.736C27.3539 17.16 26.7299 15.928 26.7299 14.536C26.7299 13.048 27.4659 11.384 29.0979 10.216C30.1219 9.496 31.4659 9.128 32.8099 9.128C34.4419 9.128 36.0739 9.672 37.1299 10.792C37.9299 11.656 38.3139 12.696 38.3139 13.752C38.3139 16.104 36.3299 18.472 32.4099 18.712H32.3299ZM27.7379 14.456C27.7379 15.336 28.0739 16.104 28.6499 16.536C28.7299 16.584 28.7939 16.616 28.8579 16.616C28.9379 16.616 29.0179 16.568 29.0819 16.488C30.3139 14.776 31.9139 11.16 32.2979 9.992C31.3699 10.072 30.4579 10.392 29.6579 10.968C28.3139 11.96 27.7379 13.304 27.7379 14.456ZM44.3459 19.736C44.2499 19.72 44.2179 19.688 44.2179 19.592C44.3779 16.872 44.3779 14.36 44.3779 12.2V11.608C43.6259 11.624 42.7939 11.656 41.7699 11.688C41.6739 11.688 41.6099 11.672 41.6099 11.576C41.5939 11.4 41.5939 10.936 41.6099 10.76C41.6099 10.648 41.6419 10.632 41.7699 10.632C42.8099 10.68 43.6419 10.696 44.3779 10.712V9.96C44.3779 9 44.3619 8.04 44.2659 7.336V7.288C44.2659 7.224 44.2979 7.208 44.3779 7.208C44.6179 7.24 45.1939 7.288 45.5459 7.4C45.6419 7.432 45.6739 7.48 45.6739 7.544C45.6739 7.656 45.5939 7.784 45.5299 7.928C45.4659 8.04 45.3859 8.184 45.3699 8.664C45.3539 9.144 45.3539 9.96 45.3379 10.744H47.9299V10.664C47.9299 10.104 47.9459 9.56 47.9459 9.016C47.9459 8.2 47.9139 7.416 47.8019 6.648V6.616C47.8019 6.536 47.8499 6.536 47.9299 6.552C48.1219 6.568 48.6979 6.632 49.0499 6.744C49.1459 6.776 49.1779 6.824 49.1779 6.872C49.1779 6.968 49.1139 7.096 49.0499 7.224C48.9539 7.432 48.9059 7.576 48.8899 8.072C48.8739 8.664 48.8579 9.864 48.8419 10.664V10.744H51.3859V10.664C51.3859 10.072 51.4019 9.512 51.4019 8.968C51.4019 8.216 51.3699 7.48 51.2739 6.744V6.712C51.2739 6.664 51.2899 6.632 51.3379 6.632C51.5459 6.632 52.0899 6.712 52.4739 6.84C52.5859 6.872 52.6339 6.92 52.6339 7C52.6339 7.08 52.5539 7.192 52.4899 7.352C52.4259 7.496 52.3619 7.688 52.3459 8.152C52.3299 8.776 52.2979 9.864 52.2979 10.664V10.728C53.2259 10.712 54.2339 10.68 55.4659 10.632C55.5779 10.632 55.5939 10.664 55.5939 10.76C55.6099 10.952 55.6099 11.4 55.5939 11.592C55.5939 11.656 55.5459 11.688 55.4659 11.688C54.2659 11.64 53.2419 11.624 52.2979 11.608C52.3139 13.24 52.3619 14.648 52.4099 16.216C52.4099 16.296 52.3779 16.328 52.2979 16.328C52.1859 16.344 52.0259 16.344 51.8659 16.344C51.7219 16.344 51.5619 16.344 51.4659 16.328C51.3699 16.328 51.3219 16.296 51.3379 16.216C51.3379 15.992 51.3539 15.8 51.3539 15.592C50.9859 15.592 50.5379 15.576 50.2019 15.576L48.9059 15.592C48.9059 15.832 48.9219 16.072 48.9219 16.312C48.9219 16.392 48.8899 16.424 48.8099 16.424C48.6979 16.44 48.5379 16.44 48.3779 16.44C48.2179 16.44 48.0579 16.44 47.9619 16.424C47.8659 16.424 47.8339 16.392 47.8339 16.312C47.9139 14.216 47.9299 13.096 47.9299 11.576C46.9699 11.576 46.1699 11.576 45.3379 11.592V13.688C45.3379 15.112 45.3539 16.744 45.3699 18.136C46.3459 18.168 46.8899 18.184 47.9779 18.184C50.2019 18.184 51.4979 18.184 54.4099 18.056C54.5219 18.056 54.5379 18.104 54.5379 18.2C54.5539 18.392 54.5539 18.872 54.5379 19.048C54.5379 19.128 54.4899 19.16 54.4099 19.16C51.5459 19.048 50.1379 19.048 47.9779 19.048C46.7139 19.048 46.2979 19.064 45.4019 19.08C45.4019 19.272 45.4179 19.448 45.4179 19.608C45.4179 19.688 45.3859 19.72 45.3059 19.736C45.0819 19.752 44.5379 19.752 44.3459 19.736ZM48.8419 11.576L48.8899 14.808C49.2739 14.824 49.8179 14.824 50.2019 14.824C50.5379 14.824 51.0019 14.824 51.3699 14.808C51.3859 14.184 51.3859 13.656 51.3859 13.144V11.592C50.5379 11.576 49.7219 11.576 48.8419 11.576ZM58.8899 20.056C58.8099 20.088 58.7619 20.072 58.7139 20.008C58.4899 19.64 58.0899 19.416 57.8819 19.256C57.8019 19.176 57.8339 19.144 57.9139 19.128C61.1139 18.76 62.2339 17 62.2659 15.256C62.2659 14.952 62.2659 14.568 62.2179 14.2C61.0339 14.952 59.6259 15.688 58.3619 16.088C58.2659 16.12 58.1699 16.168 58.1219 16.088C57.9299 15.816 57.4659 15.544 57.2739 15.416C57.1619 15.352 57.1459 15.288 57.2899 15.256C59.9619 14.648 62.3779 13.288 63.6099 12.104L63.8819 11.832C62.8419 11.832 61.5299 11.848 60.8739 11.848C60.8739 12.024 60.8739 12.184 60.8899 12.36C60.8899 12.456 60.8579 12.472 60.7459 12.472C60.5219 12.488 60.1539 12.488 59.9619 12.472C59.8659 12.472 59.8179 12.424 59.8179 12.36C59.9299 11.256 59.9459 10.376 59.9459 9.432C59.9459 8.44 59.9299 7.8 59.8659 6.664V6.648C59.8659 6.584 59.9139 6.536 60.0099 6.552C61.2579 6.6 63.2579 6.616 64.5059 6.616C65.8819 6.616 67.6259 6.6 68.8899 6.536H68.9219C69.0339 6.536 69.0659 6.616 69.0659 6.664C69.0019 7.752 68.9859 8.552 68.9859 9.416C68.9859 10.232 69.0339 11.064 69.1139 12.2V12.216C69.1139 12.28 69.0499 12.344 68.9699 12.344C68.7299 12.36 68.3939 12.36 68.2019 12.344C68.1059 12.328 68.0419 12.296 68.0419 12.2C68.0579 12.088 68.0579 11.976 68.0579 11.864C67.4979 11.848 66.2659 11.832 65.2259 11.832C65.2899 11.88 65.3059 11.928 65.3059 11.96C65.3059 12.008 65.2419 12.04 65.1299 12.056C66.8419 13.256 68.7939 14.312 71.8499 14.856C71.9619 14.888 71.9939 14.936 71.8819 15.032C71.6739 15.208 71.3699 15.448 71.1619 15.752C71.0979 15.832 71.0339 15.848 70.9539 15.816C68.4899 15.144 66.2499 13.832 64.4579 12.504L64.4099 12.552C63.9939 12.968 63.3219 13.464 62.5539 13.976C62.7939 14.008 63.1139 14.056 63.3859 14.12C63.4659 14.152 63.4979 14.184 63.4979 14.232C63.4979 14.312 63.4339 14.424 63.3699 14.536C63.2579 14.744 63.2259 14.824 63.2099 15.32C63.1779 17.464 61.9299 19.368 58.8899 20.056ZM60.8099 9.608C60.8259 9.944 60.8419 10.472 60.8579 11.08C61.5299 11.096 62.9059 11.112 63.9619 11.112C63.9779 10.712 63.9779 10.088 63.9779 9.576C62.8899 9.592 61.4659 9.592 60.8099 9.608ZM60.8099 8.824C61.4819 8.84 62.9059 8.856 63.9779 8.856C63.9779 8.296 63.9619 7.704 63.9619 7.368C62.6659 7.368 60.8419 7.384 60.8419 7.384L60.8099 8.824ZM64.8739 9.576C64.8739 10.088 64.8899 10.696 64.8899 11.112C66.0099 11.112 67.4979 11.08 68.0899 11.08C68.1059 10.504 68.1219 9.944 68.1219 9.608C67.5299 9.592 66.0099 9.592 64.8739 9.576ZM64.8739 8.856C65.9939 8.856 67.5299 8.84 68.1219 8.824L68.0899 7.384C68.0899 7.384 66.3779 7.368 65.0979 7.368C65.0979 7.4 65.0659 7.464 64.9859 7.512C64.9059 7.592 64.8899 7.672 64.8899 7.784C64.8739 8.072 64.8739 8.472 64.8739 8.856ZM65.7219 14.072V14.008C65.7219 13.96 65.7379 13.96 65.8339 13.96C66.0739 13.992 66.5539 14.04 66.9219 14.152C67.0339 14.184 67.0819 14.216 67.0819 14.264C67.0819 14.328 67.0179 14.408 66.9379 14.504C66.8259 14.648 66.8099 15.16 66.8099 15.784V16.552C66.8099 17.576 66.8579 18.552 66.9219 19.752C66.9219 19.832 66.8739 19.848 66.8099 19.864C66.5699 19.88 66.1219 19.88 65.9299 19.864C65.8179 19.848 65.7859 19.832 65.8019 19.752C65.8499 18.872 65.8499 18.184 65.8499 17.528V16.552C65.8499 15.752 65.8659 14.712 65.7219 14.072ZM74.9059 19.272C74.8259 19.256 74.7939 19.224 74.8099 19.144C74.9699 17.384 74.9699 15.352 75.0179 13.512C74.6819 13.912 74.3299 14.296 73.9459 14.664C73.8819 14.728 73.8019 14.712 73.7379 14.664C73.5459 14.504 73.2419 14.408 73.0179 14.344C72.9059 14.312 72.8739 14.28 72.9859 14.216C74.3139 13.272 75.3539 11.864 76.0579 10.568C75.5139 10.568 74.8419 10.6 73.9619 10.648C73.8979 10.648 73.8339 10.616 73.8179 10.536C73.8019 10.472 73.8019 10.36 73.8019 10.264C73.8019 10.12 73.8019 9.96 73.8179 9.864C73.8339 9.752 73.8819 9.736 73.9619 9.736C75.0819 9.8 75.8179 9.832 76.4259 9.832C76.6819 9.288 76.8739 8.792 76.9859 8.392C76.5379 8.392 76.0739 8.408 75.6099 8.408C75.3699 8.792 75.0819 9.192 74.7619 9.544C74.7299 9.576 74.7139 9.576 74.6819 9.576C74.6339 9.576 74.5859 9.56 74.5539 9.528C74.3139 9.368 74.0899 9.368 73.8819 9.304C73.7699 9.272 73.7539 9.24 73.8659 9.16C74.9539 8.2 75.5939 6.712 75.8659 5.928C75.8819 5.848 75.9459 5.848 76.0259 5.864C76.1059 5.896 76.4899 6.024 76.8099 6.184C76.9219 6.232 76.9699 6.28 76.9699 6.328C76.9699 6.408 76.8579 6.488 76.7459 6.552C76.5539 6.648 76.5539 6.648 76.4579 6.856C76.3459 7.08 76.2179 7.352 76.0419 7.672H78.0099C78.6339 7.672 79.2099 7.656 80.2499 7.576C80.3139 7.576 80.3619 7.592 80.3779 7.672C80.3779 7.816 80.3939 8.232 80.3779 8.408C80.3619 8.472 80.2979 8.488 80.2499 8.488C79.3539 8.424 78.7779 8.408 78.2339 8.392C78.2499 8.408 78.2499 8.424 78.2499 8.44C78.2499 8.504 78.1699 8.568 78.0579 8.616C77.8499 8.744 77.8659 8.744 77.7539 8.984C77.6419 9.24 77.5139 9.528 77.3699 9.832C78.2499 9.832 79.1939 9.832 80.6819 9.736C80.7459 9.736 80.7939 9.752 80.7939 9.832C80.8099 9.976 80.8099 10.392 80.7939 10.552C80.7939 10.632 80.7459 10.632 80.6819 10.632C79.0979 10.568 78.1859 10.552 77.3539 10.552H77.0019C76.6979 11.112 76.3459 11.704 75.9459 12.296C76.4419 12.296 76.9379 12.312 77.4179 12.312C77.6899 11.816 77.8979 11.288 77.9779 10.936C77.9939 10.872 78.0579 10.872 78.1219 10.888C78.2019 10.92 78.6019 11.08 78.9219 11.224C79.0179 11.272 79.0499 11.32 79.0499 11.368C79.0499 11.432 78.9539 11.512 78.8419 11.544C78.6819 11.624 78.6819 11.624 78.5699 11.784L78.2659 12.312C78.8899 12.296 79.4819 12.296 80.4419 12.232H80.4899C80.5379 12.232 80.5699 12.248 80.5859 12.312C80.5859 12.456 80.6019 12.824 80.5859 13C80.5699 13.064 80.5059 13.064 80.4579 13.064C79.5459 13 78.9379 13 78.3619 12.984C78.3459 13.032 78.2979 13.064 78.2499 13.096C78.1539 13.176 78.1539 13.24 78.1539 13.4V14.104C78.6659 14.104 79.1139 14.088 80.0419 14.024C80.1059 14.024 80.1379 14.024 80.1539 14.12C80.1699 14.248 80.1699 14.6 80.1539 14.76C80.1539 14.824 80.0899 14.84 80.0259 14.824C79.1779 14.776 78.6659 14.76 78.1539 14.76V15.832C78.6659 15.832 79.1299 15.816 80.0259 15.752C80.0899 15.752 80.1379 15.752 80.1539 15.848C80.1699 15.976 80.1699 16.328 80.1539 16.488C80.1539 16.552 80.0899 16.552 80.0259 16.552C79.1459 16.504 78.6659 16.488 78.1539 16.488C78.1699 16.904 78.1699 17.288 78.1699 17.624C78.8899 17.624 79.5299 17.608 80.2979 17.544C80.3619 17.544 80.4259 17.544 80.4259 17.64C80.4419 17.784 80.4419 18.168 80.4259 18.328C80.4259 18.392 80.3459 18.408 80.2979 18.408C79.3379 18.36 78.5379 18.344 77.7699 18.344H75.7859C75.7859 18.632 75.8019 18.904 75.8019 19.16V19.176C75.8019 19.24 75.7539 19.256 75.7059 19.272C75.4979 19.288 75.1139 19.288 74.9059 19.272ZM75.7699 17.608C76.3139 17.624 76.8419 17.624 77.3379 17.624C77.3379 17.304 77.3379 16.904 77.3539 16.488H75.7699V17.608ZM75.7699 15.816C76.2979 15.816 76.8259 15.832 77.3539 15.832V14.76H75.7859C75.7699 15.112 75.7699 15.448 75.7699 15.816ZM75.7859 14.088C76.2979 14.104 76.8259 14.104 77.3539 14.104C77.3379 13.656 77.3379 13.272 77.3219 12.984C76.8419 12.984 76.3459 13 75.8499 13C75.8019 13.112 75.8019 13.224 75.8019 13.432C75.8019 13.64 75.7859 13.864 75.7859 14.088ZM78.2979 19.336C78.1379 19.24 78.1859 19.208 78.2979 19.192C81.2419 18.776 82.0259 16.984 82.3619 15.848C82.4739 15.528 82.5379 15.192 82.5539 14.872C82.5539 14.792 82.5859 14.744 82.6819 14.776C82.8579 14.84 83.2579 14.968 83.5619 15.144C83.6419 15.192 83.6739 15.24 83.6739 15.288C83.6739 15.336 83.6259 15.4 83.5299 15.448C83.3539 15.544 83.3379 15.736 83.1459 16.264C82.7459 17.512 81.7539 19.336 79.2099 19.928C79.1779 19.928 79.1459 19.944 79.1139 19.944C79.0819 19.944 79.0339 19.928 79.0019 19.88C78.8419 19.576 78.5539 19.496 78.2979 19.336ZM81.3699 14.872C81.4499 13.288 81.4499 11.64 81.4499 10.632C81.4499 9.448 81.4499 8.184 81.4179 6.952V6.888C81.4179 6.76 81.4339 6.744 81.5939 6.76C82.4579 6.808 83.2419 6.824 83.9459 6.824C84.6659 6.824 85.3059 6.808 86.3459 6.76H86.3939C86.4739 6.76 86.5059 6.808 86.5059 6.936C86.4579 8.12 86.4579 9.752 86.4579 10.76C86.4579 11.672 86.4739 13.144 86.5219 14.728C86.5219 14.76 86.5379 14.808 86.5379 14.824C86.5379 14.904 86.5059 14.936 86.3619 14.952C86.2819 14.968 86.1219 14.968 85.9779 14.968C85.8659 14.968 85.7539 14.968 85.6899 14.952C85.5779 14.936 85.5459 14.92 85.5459 14.808V14.632C85.4019 14.616 85.2099 14.616 84.9859 14.616C85.0499 14.616 85.0979 14.632 85.1139 14.632C85.2099 14.664 85.2579 14.712 85.2579 14.744C85.2579 14.808 85.1779 14.856 85.1299 14.888C85.0179 14.968 85.0019 15.096 85.0019 15.32C84.9699 16.024 84.9539 17.368 84.9539 17.912C84.9539 18.44 85.0819 18.68 85.4499 18.728C85.5939 18.76 85.7379 18.76 85.8979 18.76C86.1059 18.76 86.3139 18.744 86.5059 18.696C86.9059 18.6 87.1459 18.168 87.1459 16.952C87.1459 16.856 87.1939 16.872 87.2419 16.936C87.4019 17.176 87.6899 17.432 87.9779 17.592C88.0419 17.64 88.0579 17.688 88.0419 17.8C87.8659 18.968 87.4979 19.512 86.6979 19.624C86.4099 19.672 86.1379 19.688 85.8499 19.688C85.6259 19.688 85.3859 19.672 85.1619 19.64C84.4419 19.528 83.9939 19.032 84.0419 18.088C84.0739 17.464 84.0899 16.456 84.1059 15.64C84.1059 15.304 84.1059 14.904 84.0739 14.6H83.9299C83.4499 14.6 82.7299 14.616 82.3299 14.632V14.888C82.3299 15 82.3299 15.032 82.2019 15.032C82.1379 15.048 81.9619 15.048 81.8019 15.048C81.6739 15.048 81.5619 15.048 81.5139 15.032C81.4019 15.016 81.3699 15.032 81.3699 14.872ZM82.2979 10.712C82.2979 10.84 82.2979 11.096 82.3139 11.432C82.6499 11.432 83.4659 11.448 83.9619 11.448C84.4579 11.448 85.2579 11.432 85.5939 11.432V10.696C85.5939 10.552 85.5939 10.28 85.5779 9.96C85.2739 9.96 84.4899 9.944 83.9619 9.944C83.4499 9.944 82.6339 9.96 82.2979 9.96V10.712ZM82.2979 9.176C82.6339 9.192 83.4819 9.192 83.9619 9.192C84.4579 9.192 85.2579 9.176 85.5779 9.176V7.624C85.5779 7.624 84.4899 7.608 83.9299 7.608C83.3699 7.608 82.2979 7.624 82.2979 7.624V9.176ZM82.3139 13.848L83.9139 13.864C84.3939 13.864 85.1779 13.848 85.5619 13.832C85.5779 13.336 85.5779 12.776 85.5779 12.264C85.2579 12.264 84.4899 12.248 83.9619 12.248C83.4499 12.248 82.6339 12.264 82.3139 12.264V13.848ZM96.7139 19.016C96.2499 19.016 95.8019 18.984 95.4499 18.936C93.4499 18.648 92.2019 17.432 92.2019 16.056C92.2019 14.888 93.0979 13.624 95.2099 12.728C94.9059 11.992 94.8579 10.744 94.8579 9.624C94.8579 9 94.8739 8.424 94.8739 7.976C94.8739 7.688 94.8739 7.464 94.8419 7.336C94.8259 7.304 94.8259 7.272 94.8259 7.24C94.8259 7.176 94.8579 7.16 94.9699 7.16C95.2099 7.16 95.7219 7.224 96.0099 7.304C96.2339 7.352 96.2979 7.432 96.2979 7.496C96.2979 7.656 96.0419 7.848 96.0259 8.104C95.9939 8.888 95.9299 9.688 95.9299 10.408C95.9299 11.192 95.9939 11.896 96.2179 12.36C96.5059 12.264 96.7939 12.152 97.1299 12.056C98.2019 11.704 99.4499 11.208 99.8979 11.016C99.9939 10.968 100.026 10.984 100.058 11.064C100.122 11.208 100.218 11.656 100.25 11.912V11.992C100.25 12.104 100.218 12.168 100.058 12.216C99.6419 12.376 98.4899 12.728 97.5779 13C97.0499 13.144 96.5539 13.304 96.1059 13.448C94.0739 14.168 93.2739 15.128 93.2739 15.976C93.2739 16.904 94.2339 17.704 95.5459 17.912C95.8019 17.944 96.1059 17.96 96.4099 17.96C97.6899 17.96 99.2739 17.688 100.266 17.336C100.298 17.32 100.346 17.32 100.362 17.32C100.426 17.32 100.458 17.352 100.458 17.48C100.458 17.704 100.474 18.152 100.506 18.344V18.376C100.506 18.472 100.442 18.52 100.298 18.568C99.4019 18.84 97.9459 19.016 96.7139 19.016ZM113.594 19.192C113.034 19.192 112.474 19.064 112.01 18.792C111.258 18.344 110.874 17.752 110.874 17.224C110.874 16.696 111.242 16.216 111.978 15.944C112.474 15.752 113.002 15.672 113.562 15.672C114.074 15.672 114.602 15.736 115.146 15.864C115.146 15.592 115.13 15.304 115.114 15C115.082 13.864 115.066 12.584 115.05 11.384C113.37 11.576 111.834 11.864 111.162 11.896H111.114C111.018 11.896 110.938 11.848 110.906 11.768C110.842 11.608 110.714 11.256 110.682 11.048V11.016C110.682 10.952 110.73 10.92 110.858 10.92C111.322 10.92 111.898 10.872 112.506 10.792C113.13 10.712 114.026 10.584 115.05 10.456C115.034 9.8 115.034 9.176 115.018 8.632C115.018 8.344 115.002 8.056 114.97 7.832V7.784C114.97 7.72 114.986 7.672 115.082 7.672C115.418 7.656 115.786 7.688 116.09 7.752C116.25 7.784 116.298 7.848 116.298 7.928C116.298 8.072 116.122 8.248 116.106 8.408C116.058 9.032 116.026 9.688 116.01 10.344C116.682 10.264 117.386 10.2 118.074 10.136C118.218 10.136 118.266 10.152 118.282 10.248C118.314 10.376 118.346 10.904 118.314 11.08C118.314 11.144 118.266 11.192 118.17 11.192C117.482 11.176 116.73 11.208 115.994 11.288V12.152C115.994 13.128 116.01 14.088 116.074 14.984C116.09 15.4 116.122 15.8 116.138 16.12C117.226 16.488 118.282 17.032 119.13 17.64C119.226 17.704 119.226 17.768 119.178 17.848C119.05 18.072 118.858 18.376 118.682 18.568C118.634 18.632 118.57 18.664 118.49 18.584C117.914 18.088 117.098 17.544 116.202 17.144C116.09 17.752 115.738 18.52 115.05 18.872C114.634 19.08 114.122 19.192 113.594 19.192ZM107.114 14.696C107.114 12.856 107.466 10.952 107.786 9.192C107.866 8.728 107.946 8.28 107.946 7.88C107.946 7.768 107.978 7.736 108.042 7.736C108.17 7.736 108.858 7.992 109.146 8.104C109.274 8.168 109.322 8.232 109.322 8.296C109.322 8.44 109.05 8.584 108.97 8.824C108.362 11 108.026 13.064 108.026 14.632C108.026 15.256 108.074 15.784 108.186 16.216C108.218 16.36 108.25 16.424 108.282 16.424C108.314 16.424 108.362 16.312 108.41 16.152C108.522 15.64 108.826 14.76 108.938 14.504C108.97 14.424 109.018 14.392 109.05 14.472C109.098 14.552 109.194 14.776 109.434 14.936C109.498 14.984 109.482 15.048 109.45 15.112C109.162 15.944 108.81 17.08 108.81 17.832C108.81 18.216 108.89 18.536 109.05 18.904C109.066 18.92 109.066 18.952 109.066 18.968C109.066 19.032 109.034 19.08 108.954 19.112C108.826 19.176 108.506 19.256 108.33 19.272C108.234 19.288 108.202 19.288 108.17 19.208C107.386 17.864 107.114 16.312 107.114 14.696ZM111.882 17.256C111.882 17.512 112.074 17.784 112.442 17.976C112.73 18.168 113.146 18.264 113.546 18.264C113.93 18.264 114.298 18.184 114.57 18.008C115.082 17.688 115.194 17.192 115.226 16.776C114.666 16.616 114.106 16.52 113.562 16.52C113.146 16.52 112.746 16.568 112.378 16.696C112.042 16.824 111.882 17.032 111.882 17.256Z" fill="black"/>
</svg>
