<svg width="390" height="63" viewBox="0 0 390 63" fill="none" xmlns="http://www.w3.org/2000/svg">
<g clip-path="url(#clip0_1998_64)">
<path d="M194.646 63.3536C194.842 63.5488 195.158 63.5488 195.354 63.3536L198.536 60.1716C198.731 59.9763 198.731 59.6597 198.536 59.4645C198.34 59.2692 198.024 59.2692 197.828 59.4645L195 62.2929L192.172 59.4645C191.976 59.2692 191.66 59.2692 191.464 59.4645C191.269 59.6597 191.269 59.9763 191.464 60.1716L194.646 63.3536ZM195 38L194.5 38L194.5 63L195 63L195.5 63L195.5 38L195 38Z" fill="black"/>
<path d="M136.014 24.136C135.79 24.136 135.566 24.136 135.358 24.104C135.086 24.088 135.038 23.976 135.006 23.848C134.958 23.56 134.846 23.352 134.75 23.08C134.734 23.048 134.734 23.016 134.734 23C134.734 22.936 134.766 22.888 134.83 22.888C134.862 22.888 134.894 22.904 134.958 22.936C135.278 23.08 135.694 23.16 136.158 23.16C137.918 23.16 140.302 22.056 140.302 19.432C140.302 18.312 139.678 17.72 139.038 17.448C138.702 17.304 138.334 17.224 137.95 17.224C137.63 17.224 137.294 17.288 137.022 17.416C136.958 17.448 136.894 17.464 136.846 17.464C136.782 17.464 136.766 17.416 136.782 17.32C136.814 17.128 136.862 16.84 136.894 16.552C136.91 16.424 137.006 16.344 137.134 16.328C137.358 16.312 137.71 16.28 138.078 16.184C138.574 16.04 138.91 15.848 139.214 15.592C139.71 15.176 139.934 14.68 139.934 14.232C139.934 13.464 139.31 12.808 138.366 12.808C138.078 12.808 137.758 12.872 137.406 13.016C136.83 13.24 136.398 13.608 136.046 14.136C135.982 14.216 135.95 14.248 135.918 14.248C135.87 14.248 135.838 14.184 135.806 14.12C135.742 13.912 135.726 13.544 135.63 13.384C135.598 13.304 135.582 13.256 135.582 13.208C135.582 13.16 135.598 13.112 135.662 13.064C136.014 12.728 136.622 12.344 137.214 12.152C137.678 12.008 138.126 11.928 138.526 11.928C140.062 11.928 141.038 12.936 141.038 14.088C141.038 14.792 140.686 15.528 139.886 16.12C139.694 16.28 139.422 16.424 139.166 16.52C139.038 16.568 139.118 16.6 139.182 16.616C140.414 16.856 141.486 17.896 141.502 19.4C141.502 22.68 138.446 24.136 136.014 24.136ZM148.618 22.296C148.426 22.296 148.362 22.248 148.298 22.136C148.058 21.784 148.058 21.88 147.818 21.592C147.754 21.528 147.722 21.48 147.722 21.448C147.722 21.4 147.786 21.384 147.882 21.368C149.418 21.256 151.482 20.904 153.018 20.136C154.362 19.464 155.13 18.36 155.13 17.272C155.13 16.728 154.938 16.184 154.554 15.704C153.978 14.984 153.066 14.68 151.946 14.68C150.842 14.68 149.53 14.984 148.154 15.48C147.242 15.816 146.042 16.376 145.546 16.584C145.386 16.664 145.322 16.68 145.242 16.616C145.002 16.408 144.618 15.992 144.49 15.784C144.426 15.688 144.458 15.64 144.554 15.624C145.338 15.448 146.666 14.888 147.786 14.504C149.242 14.008 150.698 13.704 151.978 13.704C153.466 13.704 154.73 14.12 155.546 15.176C156.026 15.8 156.298 16.552 156.298 17.32C156.298 18.664 155.482 20.088 153.61 21.08C152.106 21.848 149.962 22.216 148.618 22.296ZM166.33 22.712C166.202 22.712 166.074 22.68 165.978 22.536C165.834 22.296 165.626 22.136 165.45 21.976C165.386 21.912 165.354 21.88 165.354 21.848C165.354 21.8 165.418 21.784 165.514 21.784C169.05 21.848 171.242 19.864 171.242 17.736C171.242 16.952 170.954 16.152 170.33 15.432C169.706 14.696 168.73 14.216 167.674 14.04C167.658 14.04 167.658 14.04 167.658 14.056H167.594C167.498 14.056 167.434 14.088 167.386 14.216C167.018 15.224 165.242 19.256 163.706 21.464C163.498 21.768 163.258 21.88 163.002 21.88C162.826 21.88 162.65 21.832 162.474 21.736C161.354 21.16 160.73 19.928 160.73 18.536C160.73 17.048 161.466 15.384 163.098 14.216C164.122 13.496 165.466 13.128 166.81 13.128C168.442 13.128 170.074 13.672 171.13 14.792C171.93 15.656 172.314 16.696 172.314 17.752C172.314 20.104 170.33 22.472 166.41 22.712H166.33ZM161.738 18.456C161.738 19.336 162.074 20.104 162.65 20.536C162.73 20.584 162.794 20.616 162.858 20.616C162.938 20.616 163.018 20.568 163.082 20.488C164.314 18.776 165.914 15.16 166.298 13.992C165.37 14.072 164.458 14.392 163.658 14.968C162.314 15.96 161.738 17.304 161.738 18.456ZM178.346 23.736C178.25 23.72 178.218 23.688 178.218 23.592C178.378 20.872 178.378 18.36 178.378 16.2V15.608C177.626 15.624 176.794 15.656 175.77 15.688C175.674 15.688 175.61 15.672 175.61 15.576C175.594 15.4 175.594 14.936 175.61 14.76C175.61 14.648 175.642 14.632 175.77 14.632C176.81 14.68 177.642 14.696 178.378 14.712V13.96C178.378 13 178.362 12.04 178.266 11.336V11.288C178.266 11.224 178.298 11.208 178.378 11.208C178.618 11.24 179.194 11.288 179.546 11.4C179.642 11.432 179.674 11.48 179.674 11.544C179.674 11.656 179.594 11.784 179.53 11.928C179.466 12.04 179.386 12.184 179.37 12.664C179.354 13.144 179.354 13.96 179.338 14.744H181.93V14.664C181.93 14.104 181.946 13.56 181.946 13.016C181.946 12.2 181.914 11.416 181.802 10.648V10.616C181.802 10.536 181.85 10.536 181.93 10.552C182.122 10.568 182.698 10.632 183.05 10.744C183.146 10.776 183.178 10.824 183.178 10.872C183.178 10.968 183.114 11.096 183.05 11.224C182.954 11.432 182.906 11.576 182.89 12.072C182.874 12.664 182.858 13.864 182.842 14.664V14.744H185.386V14.664C185.386 14.072 185.402 13.512 185.402 12.968C185.402 12.216 185.37 11.48 185.274 10.744V10.712C185.274 10.664 185.29 10.632 185.338 10.632C185.546 10.632 186.09 10.712 186.474 10.84C186.586 10.872 186.634 10.92 186.634 11C186.634 11.08 186.554 11.192 186.49 11.352C186.426 11.496 186.362 11.688 186.346 12.152C186.33 12.776 186.298 13.864 186.298 14.664V14.728C187.226 14.712 188.234 14.68 189.466 14.632C189.578 14.632 189.594 14.664 189.594 14.76C189.61 14.952 189.61 15.4 189.594 15.592C189.594 15.656 189.546 15.688 189.466 15.688C188.266 15.64 187.242 15.624 186.298 15.608C186.314 17.24 186.362 18.648 186.41 20.216C186.41 20.296 186.378 20.328 186.298 20.328C186.186 20.344 186.026 20.344 185.866 20.344C185.722 20.344 185.562 20.344 185.466 20.328C185.37 20.328 185.322 20.296 185.338 20.216C185.338 19.992 185.354 19.8 185.354 19.592C184.986 19.592 184.538 19.576 184.202 19.576L182.906 19.592C182.906 19.832 182.922 20.072 182.922 20.312C182.922 20.392 182.89 20.424 182.81 20.424C182.698 20.44 182.538 20.44 182.378 20.44C182.218 20.44 182.058 20.44 181.962 20.424C181.866 20.424 181.834 20.392 181.834 20.312C181.914 18.216 181.93 17.096 181.93 15.576C180.97 15.576 180.17 15.576 179.338 15.592V17.688C179.338 19.112 179.354 20.744 179.37 22.136C180.346 22.168 180.89 22.184 181.978 22.184C184.202 22.184 185.498 22.184 188.41 22.056C188.522 22.056 188.538 22.104 188.538 22.2C188.554 22.392 188.554 22.872 188.538 23.048C188.538 23.128 188.49 23.16 188.41 23.16C185.546 23.048 184.138 23.048 181.978 23.048C180.714 23.048 180.298 23.064 179.402 23.08C179.402 23.272 179.418 23.448 179.418 23.608C179.418 23.688 179.386 23.72 179.306 23.736C179.082 23.752 178.538 23.752 178.346 23.736ZM182.842 15.576L182.89 18.808C183.274 18.824 183.818 18.824 184.202 18.824C184.538 18.824 185.002 18.824 185.37 18.808C185.386 18.184 185.386 17.656 185.386 17.144V15.592C184.538 15.576 183.722 15.576 182.842 15.576ZM192.89 24.056C192.81 24.088 192.762 24.072 192.714 24.008C192.49 23.64 192.09 23.416 191.882 23.256C191.802 23.176 191.834 23.144 191.914 23.128C195.114 22.76 196.234 21 196.266 19.256C196.266 18.952 196.266 18.568 196.218 18.2C195.034 18.952 193.626 19.688 192.362 20.088C192.266 20.12 192.17 20.168 192.122 20.088C191.93 19.816 191.466 19.544 191.274 19.416C191.162 19.352 191.146 19.288 191.29 19.256C193.962 18.648 196.378 17.288 197.61 16.104L197.882 15.832C196.842 15.832 195.53 15.848 194.874 15.848C194.874 16.024 194.874 16.184 194.89 16.36C194.89 16.456 194.858 16.472 194.746 16.472C194.522 16.488 194.154 16.488 193.962 16.472C193.866 16.472 193.818 16.424 193.818 16.36C193.93 15.256 193.946 14.376 193.946 13.432C193.946 12.44 193.93 11.8 193.866 10.664V10.648C193.866 10.584 193.914 10.536 194.01 10.552C195.258 10.6 197.258 10.616 198.506 10.616C199.882 10.616 201.626 10.6 202.89 10.536H202.922C203.034 10.536 203.066 10.616 203.066 10.664C203.002 11.752 202.986 12.552 202.986 13.416C202.986 14.232 203.034 15.064 203.114 16.2V16.216C203.114 16.28 203.05 16.344 202.97 16.344C202.73 16.36 202.394 16.36 202.202 16.344C202.106 16.328 202.042 16.296 202.042 16.2C202.058 16.088 202.058 15.976 202.058 15.864C201.498 15.848 200.266 15.832 199.226 15.832C199.29 15.88 199.306 15.928 199.306 15.96C199.306 16.008 199.242 16.04 199.13 16.056C200.842 17.256 202.794 18.312 205.85 18.856C205.962 18.888 205.994 18.936 205.882 19.032C205.674 19.208 205.37 19.448 205.162 19.752C205.098 19.832 205.034 19.848 204.954 19.816C202.49 19.144 200.25 17.832 198.458 16.504L198.41 16.552C197.994 16.968 197.322 17.464 196.554 17.976C196.794 18.008 197.114 18.056 197.386 18.12C197.466 18.152 197.498 18.184 197.498 18.232C197.498 18.312 197.434 18.424 197.37 18.536C197.258 18.744 197.226 18.824 197.21 19.32C197.178 21.464 195.93 23.368 192.89 24.056ZM194.81 13.608C194.826 13.944 194.842 14.472 194.858 15.08C195.53 15.096 196.906 15.112 197.962 15.112C197.978 14.712 197.978 14.088 197.978 13.576C196.89 13.592 195.466 13.592 194.81 13.608ZM194.81 12.824C195.482 12.84 196.906 12.856 197.978 12.856C197.978 12.296 197.962 11.704 197.962 11.368C196.666 11.368 194.842 11.384 194.842 11.384L194.81 12.824ZM198.874 13.576C198.874 14.088 198.89 14.696 198.89 15.112C200.01 15.112 201.498 15.08 202.09 15.08C202.106 14.504 202.122 13.944 202.122 13.608C201.53 13.592 200.01 13.592 198.874 13.576ZM198.874 12.856C199.994 12.856 201.53 12.84 202.122 12.824L202.09 11.384C202.09 11.384 200.378 11.368 199.098 11.368C199.098 11.4 199.066 11.464 198.986 11.512C198.906 11.592 198.89 11.672 198.89 11.784C198.874 12.072 198.874 12.472 198.874 12.856ZM199.722 18.072V18.008C199.722 17.96 199.738 17.96 199.834 17.96C200.074 17.992 200.554 18.04 200.922 18.152C201.034 18.184 201.082 18.216 201.082 18.264C201.082 18.328 201.018 18.408 200.938 18.504C200.826 18.648 200.81 19.16 200.81 19.784V20.552C200.81 21.576 200.858 22.552 200.922 23.752C200.922 23.832 200.874 23.848 200.81 23.864C200.57 23.88 200.122 23.88 199.93 23.864C199.818 23.848 199.786 23.832 199.802 23.752C199.85 22.872 199.85 22.184 199.85 21.528V20.552C199.85 19.752 199.866 18.712 199.722 18.072ZM208.906 23.272C208.826 23.256 208.794 23.224 208.81 23.144C208.97 21.384 208.97 19.352 209.018 17.512C208.682 17.912 208.33 18.296 207.946 18.664C207.882 18.728 207.802 18.712 207.738 18.664C207.546 18.504 207.242 18.408 207.018 18.344C206.906 18.312 206.874 18.28 206.986 18.216C208.314 17.272 209.354 15.864 210.058 14.568C209.514 14.568 208.842 14.6 207.962 14.648C207.898 14.648 207.834 14.616 207.818 14.536C207.802 14.472 207.802 14.36 207.802 14.264C207.802 14.12 207.802 13.96 207.818 13.864C207.834 13.752 207.882 13.736 207.962 13.736C209.082 13.8 209.818 13.832 210.426 13.832C210.682 13.288 210.874 12.792 210.986 12.392C210.538 12.392 210.074 12.408 209.61 12.408C209.37 12.792 209.082 13.192 208.762 13.544C208.73 13.576 208.714 13.576 208.682 13.576C208.634 13.576 208.586 13.56 208.554 13.528C208.314 13.368 208.09 13.368 207.882 13.304C207.77 13.272 207.754 13.24 207.866 13.16C208.954 12.2 209.594 10.712 209.866 9.928C209.882 9.848 209.946 9.848 210.026 9.864C210.106 9.896 210.49 10.024 210.81 10.184C210.922 10.232 210.97 10.28 210.97 10.328C210.97 10.408 210.858 10.488 210.746 10.552C210.554 10.648 210.554 10.648 210.458 10.856C210.346 11.08 210.218 11.352 210.042 11.672H212.01C212.634 11.672 213.21 11.656 214.25 11.576C214.314 11.576 214.362 11.592 214.378 11.672C214.378 11.816 214.394 12.232 214.378 12.408C214.362 12.472 214.298 12.488 214.25 12.488C213.354 12.424 212.778 12.408 212.234 12.392C212.25 12.408 212.25 12.424 212.25 12.44C212.25 12.504 212.17 12.568 212.058 12.616C211.85 12.744 211.866 12.744 211.754 12.984C211.642 13.24 211.514 13.528 211.37 13.832C212.25 13.832 213.194 13.832 214.682 13.736C214.746 13.736 214.794 13.752 214.794 13.832C214.81 13.976 214.81 14.392 214.794 14.552C214.794 14.632 214.746 14.632 214.682 14.632C213.098 14.568 212.186 14.552 211.354 14.552H211.002C210.698 15.112 210.346 15.704 209.946 16.296C210.442 16.296 210.938 16.312 211.418 16.312C211.69 15.816 211.898 15.288 211.978 14.936C211.994 14.872 212.058 14.872 212.122 14.888C212.202 14.92 212.602 15.08 212.922 15.224C213.018 15.272 213.05 15.32 213.05 15.368C213.05 15.432 212.954 15.512 212.842 15.544C212.682 15.624 212.682 15.624 212.57 15.784L212.266 16.312C212.89 16.296 213.482 16.296 214.442 16.232H214.49C214.538 16.232 214.57 16.248 214.586 16.312C214.586 16.456 214.602 16.824 214.586 17C214.57 17.064 214.506 17.064 214.458 17.064C213.546 17 212.938 17 212.362 16.984C212.346 17.032 212.298 17.064 212.25 17.096C212.154 17.176 212.154 17.24 212.154 17.4V18.104C212.666 18.104 213.114 18.088 214.042 18.024C214.106 18.024 214.138 18.024 214.154 18.12C214.17 18.248 214.17 18.6 214.154 18.76C214.154 18.824 214.09 18.84 214.026 18.824C213.178 18.776 212.666 18.76 212.154 18.76V19.832C212.666 19.832 213.13 19.816 214.026 19.752C214.09 19.752 214.138 19.752 214.154 19.848C214.17 19.976 214.17 20.328 214.154 20.488C214.154 20.552 214.09 20.552 214.026 20.552C213.146 20.504 212.666 20.488 212.154 20.488C212.17 20.904 212.17 21.288 212.17 21.624C212.89 21.624 213.53 21.608 214.298 21.544C214.362 21.544 214.426 21.544 214.426 21.64C214.442 21.784 214.442 22.168 214.426 22.328C214.426 22.392 214.346 22.408 214.298 22.408C213.338 22.36 212.538 22.344 211.77 22.344H209.786C209.786 22.632 209.802 22.904 209.802 23.16V23.176C209.802 23.24 209.754 23.256 209.706 23.272C209.498 23.288 209.114 23.288 208.906 23.272ZM209.77 21.608C210.314 21.624 210.842 21.624 211.338 21.624C211.338 21.304 211.338 20.904 211.354 20.488H209.77V21.608ZM209.77 19.816C210.298 19.816 210.826 19.832 211.354 19.832V18.76H209.786C209.77 19.112 209.77 19.448 209.77 19.816ZM209.786 18.088C210.298 18.104 210.826 18.104 211.354 18.104C211.338 17.656 211.338 17.272 211.322 16.984C210.842 16.984 210.346 17 209.85 17C209.802 17.112 209.802 17.224 209.802 17.432C209.802 17.64 209.786 17.864 209.786 18.088ZM212.298 23.336C212.138 23.24 212.186 23.208 212.298 23.192C215.242 22.776 216.026 20.984 216.362 19.848C216.474 19.528 216.538 19.192 216.554 18.872C216.554 18.792 216.586 18.744 216.682 18.776C216.858 18.84 217.258 18.968 217.562 19.144C217.642 19.192 217.674 19.24 217.674 19.288C217.674 19.336 217.626 19.4 217.53 19.448C217.354 19.544 217.338 19.736 217.146 20.264C216.746 21.512 215.754 23.336 213.21 23.928C213.178 23.928 213.146 23.944 213.114 23.944C213.082 23.944 213.034 23.928 213.002 23.88C212.842 23.576 212.554 23.496 212.298 23.336ZM215.37 18.872C215.45 17.288 215.45 15.64 215.45 14.632C215.45 13.448 215.45 12.184 215.418 10.952V10.888C215.418 10.76 215.434 10.744 215.594 10.76C216.458 10.808 217.242 10.824 217.946 10.824C218.666 10.824 219.306 10.808 220.346 10.76H220.394C220.474 10.76 220.506 10.808 220.506 10.936C220.458 12.12 220.458 13.752 220.458 14.76C220.458 15.672 220.474 17.144 220.522 18.728C220.522 18.76 220.538 18.808 220.538 18.824C220.538 18.904 220.506 18.936 220.362 18.952C220.282 18.968 220.122 18.968 219.978 18.968C219.866 18.968 219.754 18.968 219.69 18.952C219.578 18.936 219.546 18.92 219.546 18.808V18.632C219.402 18.616 219.21 18.616 218.986 18.616C219.05 18.616 219.098 18.632 219.114 18.632C219.21 18.664 219.258 18.712 219.258 18.744C219.258 18.808 219.178 18.856 219.13 18.888C219.018 18.968 219.002 19.096 219.002 19.32C218.97 20.024 218.954 21.368 218.954 21.912C218.954 22.44 219.082 22.68 219.45 22.728C219.594 22.76 219.738 22.76 219.898 22.76C220.106 22.76 220.314 22.744 220.506 22.696C220.906 22.6 221.146 22.168 221.146 20.952C221.146 20.856 221.194 20.872 221.242 20.936C221.402 21.176 221.69 21.432 221.978 21.592C222.042 21.64 222.058 21.688 222.042 21.8C221.866 22.968 221.498 23.512 220.698 23.624C220.41 23.672 220.138 23.688 219.85 23.688C219.626 23.688 219.386 23.672 219.162 23.64C218.442 23.528 217.994 23.032 218.042 22.088C218.074 21.464 218.09 20.456 218.106 19.64C218.106 19.304 218.106 18.904 218.074 18.6H217.93C217.45 18.6 216.73 18.616 216.33 18.632V18.888C216.33 19 216.33 19.032 216.202 19.032C216.138 19.048 215.962 19.048 215.802 19.048C215.674 19.048 215.562 19.048 215.514 19.032C215.402 19.016 215.37 19.032 215.37 18.872ZM216.298 14.712C216.298 14.84 216.298 15.096 216.314 15.432C216.65 15.432 217.466 15.448 217.962 15.448C218.458 15.448 219.258 15.432 219.594 15.432V14.696C219.594 14.552 219.594 14.28 219.578 13.96C219.274 13.96 218.49 13.944 217.962 13.944C217.45 13.944 216.634 13.96 216.298 13.96V14.712ZM216.298 13.176C216.634 13.192 217.482 13.192 217.962 13.192C218.458 13.192 219.258 13.176 219.578 13.176V11.624C219.578 11.624 218.49 11.608 217.93 11.608C217.37 11.608 216.298 11.624 216.298 11.624V13.176ZM216.314 17.848L217.914 17.864C218.394 17.864 219.178 17.848 219.562 17.832C219.578 17.336 219.578 16.776 219.578 16.264C219.258 16.264 218.49 16.248 217.962 16.248C217.45 16.248 216.634 16.264 216.314 16.264V17.848ZM230.714 23.016C230.25 23.016 229.802 22.984 229.45 22.936C227.45 22.648 226.202 21.432 226.202 20.056C226.202 18.888 227.098 17.624 229.21 16.728C228.906 15.992 228.858 14.744 228.858 13.624C228.858 13 228.874 12.424 228.874 11.976C228.874 11.688 228.874 11.464 228.842 11.336C228.826 11.304 228.826 11.272 228.826 11.24C228.826 11.176 228.858 11.16 228.97 11.16C229.21 11.16 229.722 11.224 230.01 11.304C230.234 11.352 230.298 11.432 230.298 11.496C230.298 11.656 230.042 11.848 230.026 12.104C229.994 12.888 229.93 13.688 229.93 14.408C229.93 15.192 229.994 15.896 230.218 16.36C230.506 16.264 230.794 16.152 231.13 16.056C232.202 15.704 233.45 15.208 233.898 15.016C233.994 14.968 234.026 14.984 234.058 15.064C234.122 15.208 234.218 15.656 234.25 15.912V15.992C234.25 16.104 234.218 16.168 234.058 16.216C233.642 16.376 232.49 16.728 231.578 17C231.05 17.144 230.554 17.304 230.106 17.448C228.074 18.168 227.274 19.128 227.274 19.976C227.274 20.904 228.234 21.704 229.546 21.912C229.802 21.944 230.106 21.96 230.41 21.96C231.69 21.96 233.274 21.688 234.266 21.336C234.298 21.32 234.346 21.32 234.362 21.32C234.426 21.32 234.458 21.352 234.458 21.48C234.458 21.704 234.474 22.152 234.506 22.344V22.376C234.506 22.472 234.442 22.52 234.298 22.568C233.402 22.84 231.946 23.016 230.714 23.016ZM247.594 23.192C247.034 23.192 246.474 23.064 246.01 22.792C245.258 22.344 244.874 21.752 244.874 21.224C244.874 20.696 245.242 20.216 245.978 19.944C246.474 19.752 247.002 19.672 247.562 19.672C248.074 19.672 248.602 19.736 249.146 19.864C249.146 19.592 249.13 19.304 249.114 19C249.082 17.864 249.066 16.584 249.05 15.384C247.37 15.576 245.834 15.864 245.162 15.896H245.114C245.018 15.896 244.938 15.848 244.906 15.768C244.842 15.608 244.714 15.256 244.682 15.048V15.016C244.682 14.952 244.73 14.92 244.858 14.92C245.322 14.92 245.898 14.872 246.506 14.792C247.13 14.712 248.026 14.584 249.05 14.456C249.034 13.8 249.034 13.176 249.018 12.632C249.018 12.344 249.002 12.056 248.97 11.832V11.784C248.97 11.72 248.986 11.672 249.082 11.672C249.418 11.656 249.786 11.688 250.09 11.752C250.25 11.784 250.298 11.848 250.298 11.928C250.298 12.072 250.122 12.248 250.106 12.408C250.058 13.032 250.026 13.688 250.01 14.344C250.682 14.264 251.386 14.2 252.074 14.136C252.218 14.136 252.266 14.152 252.282 14.248C252.314 14.376 252.346 14.904 252.314 15.08C252.314 15.144 252.266 15.192 252.17 15.192C251.482 15.176 250.73 15.208 249.994 15.288V16.152C249.994 17.128 250.01 18.088 250.074 18.984C250.09 19.4 250.122 19.8 250.138 20.12C251.226 20.488 252.282 21.032 253.13 21.64C253.226 21.704 253.226 21.768 253.178 21.848C253.05 22.072 252.858 22.376 252.682 22.568C252.634 22.632 252.57 22.664 252.49 22.584C251.914 22.088 251.098 21.544 250.202 21.144C250.09 21.752 249.738 22.52 249.05 22.872C248.634 23.08 248.122 23.192 247.594 23.192ZM241.114 18.696C241.114 16.856 241.466 14.952 241.786 13.192C241.866 12.728 241.946 12.28 241.946 11.88C241.946 11.768 241.978 11.736 242.042 11.736C242.17 11.736 242.858 11.992 243.146 12.104C243.274 12.168 243.322 12.232 243.322 12.296C243.322 12.44 243.05 12.584 242.97 12.824C242.362 15 242.026 17.064 242.026 18.632C242.026 19.256 242.074 19.784 242.186 20.216C242.218 20.36 242.25 20.424 242.282 20.424C242.314 20.424 242.362 20.312 242.41 20.152C242.522 19.64 242.826 18.76 242.938 18.504C242.97 18.424 243.018 18.392 243.05 18.472C243.098 18.552 243.194 18.776 243.434 18.936C243.498 18.984 243.482 19.048 243.45 19.112C243.162 19.944 242.81 21.08 242.81 21.832C242.81 22.216 242.89 22.536 243.05 22.904C243.066 22.92 243.066 22.952 243.066 22.968C243.066 23.032 243.034 23.08 242.954 23.112C242.826 23.176 242.506 23.256 242.33 23.272C242.234 23.288 242.202 23.288 242.17 23.208C241.386 21.864 241.114 20.312 241.114 18.696ZM245.882 21.256C245.882 21.512 246.074 21.784 246.442 21.976C246.73 22.168 247.146 22.264 247.546 22.264C247.93 22.264 248.298 22.184 248.57 22.008C249.082 21.688 249.194 21.192 249.226 20.776C248.666 20.616 248.106 20.52 247.562 20.52C247.146 20.52 246.746 20.568 246.378 20.696C246.042 20.824 245.882 21.032 245.882 21.256Z" fill="black"/>
</g>
<defs>
<clipPath id="clip0_1998_64">
<rect width="390" height="63" fill="white"/>
</clipPath>
</defs>
</svg>
