<svg width="128" height="127" viewBox="0 0 128 127" fill="none" xmlns="http://www.w3.org/2000/svg">
<path d="M2.71875 48.5625C2.71875 40.875 4.51042 34.7396 8.09375 30.1562C11.3021 26.0104 15.1875 23.9375 19.75 23.9375C24.3125 23.9375 28.1979 26.0104 31.4062 30.1562C34.9896 34.7396 36.7812 40.9792 36.7812 48.875C36.7812 56.75 34.9896 62.9792 31.4062 67.5625C28.1979 71.7083 24.3229 73.7812 19.7812 73.7812C15.2396 73.7812 11.3438 71.7083 8.09375 67.5625C4.51042 62.9792 2.71875 56.6458 2.71875 48.5625ZM9.875 48.5938C9.875 53.9479 10.8021 58.3958 12.6562 61.9375C14.5104 65.4167 16.875 67.1562 19.75 67.1562C22.6042 67.1562 24.9688 65.4167 26.8438 61.9375C28.7188 58.4792 29.6562 54.1146 29.6562 48.8438C29.6562 43.5729 28.7188 39.1979 26.8438 35.7188C24.9688 32.2604 22.6042 30.5312 19.75 30.5312C16.9167 30.5312 14.5625 32.2604 12.6875 35.7188C10.8125 39.1562 9.875 43.4479 9.875 48.5938ZM61.9313 66.1562H79.9V73H47.4938L64.2438 52.7188C65.8896 50.6979 67.2646 48.9479 68.3688 47.4688C69.4938 45.9896 70.3479 44.75 70.9313 43.75C72.1188 41.7917 72.7125 40.0312 72.7125 38.4688C72.7125 36.2188 71.9208 34.3333 70.3375 32.8125C68.7542 31.2917 66.7958 30.5312 64.4625 30.5312C59.5875 30.5312 56.7958 33.4167 56.0875 39.1875H48.8375C50.0042 29.0208 55.1396 23.9375 64.2438 23.9375C68.6396 23.9375 72.3271 25.3333 75.3063 28.125C78.3063 30.9167 79.8063 34.375 79.8063 38.5C79.8063 41.125 79.1083 43.6979 77.7125 46.2188C77.0042 47.5312 75.9625 49.0938 74.5875 50.9062C73.2333 52.6979 71.5146 54.8229 69.4313 57.2812L61.9313 66.1562Z" fill="#282828"/>
<path d="M0.8 104.42V102.86H5.64V104.42H0.8ZM21.8453 101.84C21.8453 102.947 21.7053 103.953 21.4253 104.86C21.1453 105.753 20.7253 106.527 20.1653 107.18C19.6186 107.833 18.932 108.333 18.1053 108.68C17.292 109.027 16.3453 109.2 15.2653 109.2C14.1453 109.2 13.172 109.027 12.3453 108.68C11.5186 108.32 10.832 107.82 10.2853 107.18C9.73865 106.527 9.33198 105.747 9.06531 104.84C8.79865 103.933 8.66531 102.927 8.66531 101.82C8.66531 100.353 8.90531 99.0733 9.38531 97.98C9.86531 96.8867 10.592 96.0333 11.5653 95.42C12.552 94.8067 13.792 94.5 15.2853 94.5C16.712 94.5 17.912 94.8067 18.8853 95.42C19.8586 96.02 20.592 96.8733 21.0853 97.98C21.592 99.0733 21.8453 100.36 21.8453 101.84ZM10.5653 101.84C10.5653 103.04 10.732 104.073 11.0653 104.94C11.3986 105.807 11.912 106.473 12.6053 106.94C13.312 107.407 14.1986 107.64 15.2653 107.64C16.3453 107.64 17.2253 107.407 17.9053 106.94C18.5986 106.473 19.112 105.807 19.4453 104.94C19.7786 104.073 19.9453 103.04 19.9453 101.84C19.9453 100.04 19.572 98.6333 18.8253 97.62C18.0786 96.5933 16.8986 96.08 15.2853 96.08C14.2053 96.08 13.312 96.3133 12.6053 96.78C11.912 97.2333 11.3986 97.8933 11.0653 98.76C10.732 99.6133 10.5653 100.64 10.5653 101.84ZM35.875 94.72L30.775 109H28.975L23.875 94.72H25.755L28.975 103.88C29.1217 104.267 29.2483 104.64 29.355 105C29.4617 105.36 29.555 105.707 29.635 106.04C29.7283 106.36 29.8083 106.68 29.875 107C29.9417 106.68 30.015 106.353 30.095 106.02C30.1883 105.687 30.2883 105.34 30.395 104.98C30.515 104.62 30.6417 104.24 30.775 103.84L33.975 94.72H35.875ZM46.7872 109H38.8072V94.72H46.7872V96.3H40.6072V100.76H46.4272V102.32H40.6072V107.42H46.7872V109ZM54.8605 94.72C56.0471 94.72 57.0205 94.8733 57.7805 95.18C58.5538 95.4733 59.1271 95.92 59.5005 96.52C59.8738 97.12 60.0605 97.8733 60.0605 98.78C60.0605 99.54 59.9205 100.173 59.6405 100.68C59.3605 101.187 59.0005 101.593 58.5605 101.9C58.1338 102.193 57.6805 102.427 57.2005 102.6L61.1205 109H59.0205L55.5605 103.1H52.7205V109H50.9205V94.72H54.8605ZM54.7605 96.28H52.7205V101.58H54.8605C55.6338 101.58 56.2671 101.48 56.7605 101.28C57.2538 101.067 57.6138 100.76 57.8405 100.36C58.0805 99.96 58.2005 99.46 58.2005 98.86C58.2005 98.2333 58.0738 97.7333 57.8205 97.36C57.5805 96.9867 57.2071 96.7133 56.7005 96.54C56.1938 96.3667 55.5471 96.28 54.7605 96.28ZM80.6172 94.72L75.5172 109H73.7172L68.6172 94.72H70.4972L73.7172 103.88C73.8639 104.267 73.9905 104.64 74.0972 105C74.2039 105.36 74.2972 105.707 74.3772 106.04C74.4705 106.36 74.5505 106.68 74.6172 107C74.6839 106.68 74.7572 106.353 74.8372 106.02C74.9305 105.687 75.0305 105.34 75.1372 104.98C75.2572 104.62 75.3839 104.24 75.5172 103.84L78.7172 94.72H80.6172ZM87.5694 109H82.4094V107.96L84.0894 107.58V96.16L82.4094 95.76V94.72H87.5694V95.76L85.8894 96.16V107.58L87.5694 107.96V109ZM99.3067 109H91.3267V94.72H99.3067V96.3H93.1267V100.76H98.9467V102.32H93.1267V107.42H99.3067V109ZM119.84 94.72L116.04 109H114.22L111.44 99.64C111.36 99.36 111.28 99.0733 111.2 98.78C111.12 98.4867 111.047 98.2067 110.98 97.94C110.913 97.6733 110.853 97.4467 110.8 97.26C110.76 97.06 110.733 96.9133 110.72 96.82C110.707 96.9133 110.68 97.06 110.64 97.26C110.613 97.4467 110.567 97.6733 110.5 97.94C110.433 98.2067 110.36 98.4933 110.28 98.8C110.213 99.0933 110.133 99.3933 110.04 99.7L107.34 109H105.52L101.74 94.72H103.62L105.84 103.44C105.92 103.747 105.993 104.053 106.06 104.36C106.127 104.653 106.187 104.947 106.24 105.24C106.307 105.52 106.36 105.793 106.4 106.06C106.44 106.327 106.48 106.587 106.52 106.84C106.56 106.573 106.6 106.3 106.64 106.02C106.693 105.74 106.753 105.453 106.82 105.16C106.887 104.853 106.96 104.547 107.04 104.24C107.12 103.933 107.2 103.633 107.28 103.34L109.8 94.72H111.66L114.28 103.4C114.373 103.707 114.46 104.02 114.54 104.34C114.62 104.647 114.693 104.947 114.76 105.24C114.827 105.533 114.88 105.82 114.92 106.1C114.973 106.367 115.02 106.613 115.06 106.84C115.1 106.507 115.153 106.16 115.22 105.8C115.287 105.427 115.367 105.04 115.46 104.64C115.553 104.24 115.653 103.833 115.76 103.42L117.96 94.72H119.84Z" fill="#282828"/>
</svg>
