<svg width="390" height="169" viewBox="0 0 390 169" fill="none" xmlns="http://www.w3.org/2000/svg">
<path d="M18.7188 62.5625C18.7188 54.875 20.5104 48.7396 24.0938 44.1562C27.3021 40.0104 31.1875 37.9375 35.75 37.9375C40.3125 37.9375 44.1979 40.0104 47.4062 44.1562C50.9896 48.7396 52.7812 54.9792 52.7812 62.875C52.7812 70.75 50.9896 76.9792 47.4062 81.5625C44.1979 85.7083 40.3229 87.7812 35.7812 87.7812C31.2396 87.7812 27.3438 85.7083 24.0938 81.5625C20.5104 76.9792 18.7188 70.6458 18.7188 62.5625ZM25.875 62.5938C25.875 67.9479 26.8021 72.3958 28.6562 75.9375C30.5104 79.4167 32.875 81.1562 35.75 81.1562C38.6042 81.1562 40.9688 79.4167 42.8438 75.9375C44.7188 72.4792 45.6562 68.1146 45.6562 62.8438C45.6562 57.5729 44.7188 53.1979 42.8438 49.7188C40.9688 46.2604 38.6042 44.5312 35.75 44.5312C32.9167 44.5312 30.5625 46.2604 28.6875 49.7188C26.8125 53.1562 25.875 57.4479 25.875 62.5938ZM77.9313 80.1562H95.9V87H63.4938L80.2438 66.7188C81.8896 64.6979 83.2646 62.9479 84.3688 61.4688C85.4938 59.9896 86.3479 58.75 86.9313 57.75C88.1188 55.7917 88.7125 54.0312 88.7125 52.4688C88.7125 50.2188 87.9208 48.3333 86.3375 46.8125C84.7542 45.2917 82.7958 44.5312 80.4625 44.5312C75.5875 44.5312 72.7958 47.4167 72.0875 53.1875H64.8375C66.0042 43.0208 71.1396 37.9375 80.2438 37.9375C84.6396 37.9375 88.3271 39.3333 91.3063 42.125C94.3063 44.9167 95.8063 48.375 95.8063 52.5C95.8063 55.125 95.1083 57.6979 93.7125 60.2188C93.0042 61.5312 91.9625 63.0938 90.5875 64.9062C89.2333 66.6979 87.5146 68.8229 85.4313 71.2812L77.9313 80.1562Z" fill="#282828"/>
<path d="M16.8 118.42V116.86H21.64V118.42H16.8ZM37.8453 115.84C37.8453 116.947 37.7053 117.953 37.4253 118.86C37.1453 119.753 36.7253 120.527 36.1653 121.18C35.6186 121.833 34.932 122.333 34.1053 122.68C33.292 123.027 32.3453 123.2 31.2653 123.2C30.1453 123.2 29.172 123.027 28.3453 122.68C27.5186 122.32 26.832 121.82 26.2853 121.18C25.7386 120.527 25.332 119.747 25.0653 118.84C24.7986 117.933 24.6653 116.927 24.6653 115.82C24.6653 114.353 24.9053 113.073 25.3853 111.98C25.8653 110.887 26.592 110.033 27.5653 109.42C28.552 108.807 29.792 108.5 31.2853 108.5C32.712 108.5 33.912 108.807 34.8853 109.42C35.8586 110.02 36.592 110.873 37.0853 111.98C37.592 113.073 37.8453 114.36 37.8453 115.84ZM26.5653 115.84C26.5653 117.04 26.732 118.073 27.0653 118.94C27.3986 119.807 27.912 120.473 28.6053 120.94C29.312 121.407 30.1986 121.64 31.2653 121.64C32.3453 121.64 33.2253 121.407 33.9053 120.94C34.5986 120.473 35.112 119.807 35.4453 118.94C35.7786 118.073 35.9453 117.04 35.9453 115.84C35.9453 114.04 35.572 112.633 34.8253 111.62C34.0786 110.593 32.8986 110.08 31.2853 110.08C30.2053 110.08 29.312 110.313 28.6053 110.78C27.912 111.233 27.3986 111.893 27.0653 112.76C26.732 113.613 26.5653 114.64 26.5653 115.84ZM51.875 108.72L46.775 123H44.975L39.875 108.72H41.755L44.975 117.88C45.1217 118.267 45.2483 118.64 45.355 119C45.4617 119.36 45.555 119.707 45.635 120.04C45.7283 120.36 45.8083 120.68 45.875 121C45.9417 120.68 46.015 120.353 46.095 120.02C46.1883 119.687 46.2883 119.34 46.395 118.98C46.515 118.62 46.6417 118.24 46.775 117.84L49.975 108.72H51.875ZM62.7872 123H54.8072V108.72H62.7872V110.3H56.6072V114.76H62.4272V116.32H56.6072V121.42H62.7872V123ZM70.8605 108.72C72.0471 108.72 73.0205 108.873 73.7805 109.18C74.5538 109.473 75.1271 109.92 75.5005 110.52C75.8738 111.12 76.0605 111.873 76.0605 112.78C76.0605 113.54 75.9205 114.173 75.6405 114.68C75.3605 115.187 75.0005 115.593 74.5605 115.9C74.1338 116.193 73.6805 116.427 73.2005 116.6L77.1205 123H75.0205L71.5605 117.1H68.7205V123H66.9205V108.72H70.8605ZM70.7605 110.28H68.7205V115.58H70.8605C71.6338 115.58 72.2671 115.48 72.7605 115.28C73.2538 115.067 73.6138 114.76 73.8405 114.36C74.0805 113.96 74.2005 113.46 74.2005 112.86C74.2005 112.233 74.0738 111.733 73.8205 111.36C73.5805 110.987 73.2071 110.713 72.7005 110.54C72.1938 110.367 71.5471 110.28 70.7605 110.28ZM96.6172 108.72L91.5172 123H89.7172L84.6172 108.72H86.4972L89.7172 117.88C89.8639 118.267 89.9905 118.64 90.0972 119C90.2039 119.36 90.2972 119.707 90.3772 120.04C90.4705 120.36 90.5505 120.68 90.6172 121C90.6839 120.68 90.7572 120.353 90.8372 120.02C90.9305 119.687 91.0305 119.34 91.1372 118.98C91.2572 118.62 91.3839 118.24 91.5172 117.84L94.7172 108.72H96.6172ZM103.569 123H98.4094V121.96L100.089 121.58V110.16L98.4094 109.76V108.72H103.569V109.76L101.889 110.16V121.58L103.569 121.96V123ZM115.307 123H107.327V108.72H115.307V110.3H109.127V114.76H114.947V116.32H109.127V121.42H115.307V123ZM135.84 108.72L132.04 123H130.22L127.44 113.64C127.36 113.36 127.28 113.073 127.2 112.78C127.12 112.487 127.047 112.207 126.98 111.94C126.913 111.673 126.853 111.447 126.8 111.26C126.76 111.06 126.733 110.913 126.72 110.82C126.707 110.913 126.68 111.06 126.64 111.26C126.613 111.447 126.567 111.673 126.5 111.94C126.433 112.207 126.36 112.493 126.28 112.8C126.213 113.093 126.133 113.393 126.04 113.7L123.34 123H121.52L117.74 108.72H119.62L121.84 117.44C121.92 117.747 121.993 118.053 122.06 118.36C122.127 118.653 122.187 118.947 122.24 119.24C122.307 119.52 122.36 119.793 122.4 120.06C122.44 120.327 122.48 120.587 122.52 120.84C122.56 120.573 122.6 120.3 122.64 120.02C122.693 119.74 122.753 119.453 122.82 119.16C122.887 118.853 122.96 118.547 123.04 118.24C123.12 117.933 123.2 117.633 123.28 117.34L125.8 108.72H127.66L130.28 117.4C130.373 117.707 130.46 118.02 130.54 118.34C130.62 118.647 130.693 118.947 130.76 119.24C130.827 119.533 130.88 119.82 130.92 120.1C130.973 120.367 131.02 120.613 131.06 120.84C131.1 120.507 131.153 120.16 131.22 119.8C131.287 119.427 131.367 119.04 131.46 118.64C131.553 118.24 131.653 117.833 131.76 117.42L133.96 108.72H135.84Z" fill="#282828"/>
</svg>
