<svg width="215" height="127" viewBox="0 0 215 127" fill="none" xmlns="http://www.w3.org/2000/svg">
<path d="M2.71875 48.5625C2.71875 40.875 4.51042 34.7396 8.09375 30.1562C11.3021 26.0104 15.1875 23.9375 19.75 23.9375C24.3125 23.9375 28.1979 26.0104 31.4062 30.1562C34.9896 34.7396 36.7812 40.9792 36.7812 48.875C36.7812 56.75 34.9896 62.9792 31.4062 67.5625C28.1979 71.7083 24.3229 73.7812 19.7812 73.7812C15.2396 73.7812 11.3438 71.7083 8.09375 67.5625C4.51042 62.9792 2.71875 56.6458 2.71875 48.5625ZM9.875 48.5938C9.875 53.9479 10.8021 58.3958 12.6562 61.9375C14.5104 65.4167 16.875 67.1562 19.75 67.1562C22.6042 67.1562 24.9688 65.4167 26.8438 61.9375C28.7188 58.4792 29.6562 54.1146 29.6562 48.8438C29.6562 43.5729 28.7188 39.1979 26.8438 35.7188C24.9688 32.2604 22.6042 30.5312 19.75 30.5312C16.9167 30.5312 14.5625 32.2604 12.6875 35.7188C10.8125 39.1562 9.875 43.4479 9.875 48.5938ZM62.4625 50.5938V44.375C65.5458 44.375 67.6188 44.0312 68.6813 43.3438C70.5771 42.1354 71.525 40.1979 71.525 37.5312C71.525 35.4688 70.8375 33.7917 69.4625 32.5C68.1083 31.1875 66.3479 30.5312 64.1813 30.5312C62.1604 30.5312 60.5979 31.0208 59.4938 32C58.4313 33 57.6396 34.6875 57.1188 37.0625H49.8688C50.6188 32.5208 52.1604 29.1979 54.4938 27.0938C56.8271 24.9688 60.0875 23.9062 64.275 23.9062C68.5042 23.9062 71.9521 25.1562 74.6188 27.6562C77.2854 30.1354 78.6188 33.3333 78.6188 37.25C78.6188 41.6667 76.8688 45.1042 73.3688 47.5625C77.3688 49.9167 79.3688 53.7396 79.3688 59.0312C79.3688 63.3646 77.9104 66.9062 74.9938 69.6562C72.0771 72.4062 68.3375 73.7812 63.775 73.7812C57.9625 73.7812 53.65 71.6458 50.8375 67.375C49.6708 65.5833 48.9313 63.1042 48.6188 59.9375H55.65C56.025 62.2708 56.9313 64.0625 58.3688 65.3125C59.8271 66.5417 61.7229 67.1562 64.0563 67.1562C66.4104 67.1562 68.3583 66.375 69.9 64.8125C71.4417 63.2083 72.2125 61.1771 72.2125 58.7188C72.2125 55.4688 71.0563 53.1562 68.7438 51.7812C67.3896 50.9896 65.2958 50.5938 62.4625 50.5938Z" fill="white"/>
<path d="M0.8 104.42V102.86H5.64V104.42H0.8ZM24.7853 94.72L20.9853 109H19.1653L16.3853 99.64C16.3053 99.36 16.2253 99.0733 16.1453 98.78C16.0653 98.4867 15.992 98.2067 15.9253 97.94C15.8586 97.6733 15.7986 97.4467 15.7453 97.26C15.7053 97.06 15.6786 96.9133 15.6653 96.82C15.652 96.9133 15.6253 97.06 15.5853 97.26C15.5586 97.4467 15.512 97.6733 15.4453 97.94C15.3786 98.2067 15.3053 98.4933 15.2253 98.8C15.1586 99.0933 15.0786 99.3933 14.9853 99.7L12.2853 109H10.4653L6.68531 94.72H8.56531L10.7853 103.44C10.8653 103.747 10.9386 104.053 11.0053 104.36C11.072 104.653 11.132 104.947 11.1853 105.24C11.252 105.52 11.3053 105.793 11.3453 106.06C11.3853 106.327 11.4253 106.587 11.4653 106.84C11.5053 106.573 11.5453 106.3 11.5853 106.02C11.6386 105.74 11.6986 105.453 11.7653 105.16C11.832 104.853 11.9053 104.547 11.9853 104.24C12.0653 103.933 12.1453 103.633 12.2253 103.34L14.7453 94.72H16.6053L19.2253 103.4C19.3186 103.707 19.4053 104.02 19.4853 104.34C19.5653 104.647 19.6386 104.947 19.7053 105.24C19.772 105.533 19.8253 105.82 19.8653 106.1C19.9186 106.367 19.9653 106.613 20.0053 106.84C20.0453 106.507 20.0986 106.16 20.1653 105.8C20.232 105.427 20.312 105.04 20.4053 104.64C20.4986 104.24 20.5986 103.833 20.7053 103.42L22.9053 94.72H24.7853ZM39.2438 101.84C39.2438 102.947 39.1038 103.953 38.8238 104.86C38.5438 105.753 38.1238 106.527 37.5638 107.18C37.0171 107.833 36.3304 108.333 35.5038 108.68C34.6904 109.027 33.7438 109.2 32.6638 109.2C31.5438 109.2 30.5704 109.027 29.7438 108.68C28.9171 108.32 28.2304 107.82 27.6838 107.18C27.1371 106.527 26.7304 105.747 26.4638 104.84C26.1971 103.933 26.0638 102.927 26.0638 101.82C26.0638 100.353 26.3038 99.0733 26.7838 97.98C27.2638 96.8867 27.9904 96.0333 28.9638 95.42C29.9504 94.8067 31.1904 94.5 32.6838 94.5C34.1104 94.5 35.3104 94.8067 36.2838 95.42C37.2571 96.02 37.9904 96.8733 38.4838 97.98C38.9904 99.0733 39.2438 100.36 39.2438 101.84ZM27.9638 101.84C27.9638 103.04 28.1304 104.073 28.4638 104.94C28.7971 105.807 29.3104 106.473 30.0038 106.94C30.7104 107.407 31.5971 107.64 32.6638 107.64C33.7438 107.64 34.6238 107.407 35.3038 106.94C35.9971 106.473 36.5104 105.807 36.8438 104.94C37.1771 104.073 37.3438 103.04 37.3438 101.84C37.3438 100.04 36.9704 98.6333 36.2238 97.62C35.4771 96.5933 34.2971 96.08 32.6838 96.08C31.6038 96.08 30.7104 96.3133 30.0038 96.78C29.3104 97.2333 28.7971 97.8933 28.4638 98.76C28.1304 99.6133 27.9638 100.64 27.9638 101.84ZM46.3487 94.72C47.5354 94.72 48.5088 94.8733 49.2688 95.18C50.0421 95.4733 50.6154 95.92 50.9888 96.52C51.3621 97.12 51.5488 97.8733 51.5488 98.78C51.5488 99.54 51.4088 100.173 51.1288 100.68C50.8488 101.187 50.4888 101.593 50.0488 101.9C49.6221 102.193 49.1688 102.427 48.6888 102.6L52.6088 109H50.5088L47.0488 103.1H44.2088V109H42.4088V94.72H46.3487ZM46.2488 96.28H44.2088V101.58H46.3487C47.1221 101.58 47.7554 101.48 48.2488 101.28C48.7421 101.067 49.1021 100.76 49.3288 100.36C49.5688 99.96 49.6888 99.46 49.6888 98.86C49.6888 98.2333 49.5621 97.7333 49.3088 97.36C49.0688 96.9867 48.6954 96.7133 48.1888 96.54C47.6821 96.3667 47.0354 96.28 46.2488 96.28ZM65.2902 109H63.1702L58.1102 102.18L56.6502 103.46V109H54.8502V94.72H56.6502V101.76C57.0502 101.307 57.4568 100.853 57.8702 100.4C58.2835 99.9467 58.6968 99.4933 59.1102 99.04L62.9702 94.72H65.0702L59.4102 100.94L65.2902 109ZM85.5436 98.06C85.5436 98.7 85.4236 99.2533 85.1836 99.72C84.9436 100.187 84.5969 100.567 84.1436 100.86C83.7036 101.153 83.1836 101.36 82.5836 101.48V101.56C83.7303 101.693 84.5836 102.053 85.1436 102.64C85.7036 103.227 85.9836 103.993 85.9836 104.94C85.9836 105.767 85.7903 106.507 85.4036 107.16C85.0169 107.8 84.4169 108.3 83.6036 108.66C82.8036 109.02 81.7703 109.2 80.5036 109.2C79.7569 109.2 79.0636 109.14 78.4236 109.02C77.7836 108.913 77.1703 108.713 76.5836 108.42V106.78C77.1836 107.073 77.8303 107.307 78.5236 107.48C79.2169 107.64 79.8836 107.72 80.5236 107.72C81.8036 107.72 82.7236 107.473 83.2836 106.98C83.8569 106.473 84.1436 105.78 84.1436 104.9C84.1436 104.3 83.9836 103.82 83.6636 103.46C83.3569 103.087 82.9036 102.813 82.3036 102.64C81.7036 102.467 80.9836 102.38 80.1436 102.38H78.7636V100.88H80.1636C80.9503 100.88 81.6036 100.767 82.1236 100.54C82.6569 100.313 83.0569 100 83.3236 99.6C83.6036 99.1867 83.7436 98.7133 83.7436 98.18C83.7436 97.4867 83.5103 96.9533 83.0436 96.58C82.5769 96.1933 81.9436 96 81.1436 96C80.6369 96 80.1769 96.0533 79.7636 96.16C79.3503 96.2533 78.9636 96.3933 78.6036 96.58C78.2569 96.7533 77.9036 96.96 77.5436 97.2L76.6636 96C77.0103 95.7333 77.4036 95.4867 77.8436 95.26C78.2969 95.0333 78.7969 94.8533 79.3436 94.72C79.8903 94.5867 80.4836 94.52 81.1236 94.52C82.6169 94.52 83.7236 94.8533 84.4436 95.52C85.1769 96.1867 85.5436 97.0333 85.5436 98.06ZM88.5889 98.56C88.9489 98.4933 89.3089 98.4133 89.6689 98.32C90.0422 98.2133 90.4156 98.1 90.7889 97.98C91.2156 97.8467 91.7622 97.6733 92.4289 97.46C93.0956 97.2333 93.8222 97.0133 94.6089 96.8C95.3956 96.5733 96.1956 96.3867 97.0089 96.24C97.8356 96.08 98.6089 96 99.3289 96C100.449 96 101.456 96.2067 102.349 96.62C103.242 97.0333 103.956 97.6333 104.489 98.42C105.022 99.2067 105.289 100.16 105.289 101.28C105.289 102.24 105.102 103.1 104.729 103.86C104.369 104.62 103.856 105.293 103.189 105.88C102.536 106.453 101.756 106.94 100.849 107.34C99.9422 107.727 98.9356 108.04 97.8289 108.28C96.7356 108.507 95.5756 108.653 94.3489 108.72L93.6289 107.06C94.9489 107.033 96.2022 106.907 97.3889 106.68C98.5756 106.44 99.6289 106.093 100.549 105.64C101.482 105.187 102.216 104.6 102.749 103.88C103.282 103.147 103.549 102.267 103.549 101.24C103.549 100.547 103.382 99.92 103.049 99.36C102.716 98.7867 102.229 98.3333 101.589 98C100.962 97.6667 100.196 97.5 99.2889 97.5C98.6356 97.5 97.9222 97.58 97.1489 97.74C96.3756 97.8867 95.5956 98.08 94.8089 98.32C94.0222 98.5467 93.2689 98.7933 92.5489 99.06C91.8422 99.3267 91.2089 99.5733 90.6489 99.8C90.0889 100.027 89.6489 100.2 89.3289 100.32L88.5889 98.56ZM118.409 95.34C118.276 96.38 118.102 97.4667 117.889 98.6C117.689 99.7333 117.429 100.833 117.109 101.9C116.709 103.273 116.262 104.42 115.769 105.34C115.289 106.26 114.769 106.953 114.209 107.42C113.649 107.887 113.062 108.12 112.449 108.12C111.862 108.12 111.296 107.907 110.749 107.48C110.202 107.053 109.756 106.44 109.409 105.64C109.062 104.827 108.889 103.873 108.889 102.78C108.889 101.687 109.109 100.653 109.549 99.68C110.002 98.7067 110.622 97.8467 111.409 97.1C112.209 96.34 113.142 95.74 114.209 95.3C115.276 94.86 116.416 94.64 117.629 94.64C118.802 94.64 119.856 94.8333 120.789 95.22C121.736 95.6067 122.542 96.14 123.209 96.82C123.876 97.4867 124.389 98.2667 124.749 99.16C125.109 100.04 125.289 100.987 125.289 102C125.289 103.4 124.989 104.633 124.389 105.7C123.802 106.767 122.949 107.633 121.829 108.3C120.722 108.967 119.376 109.407 117.789 109.62L116.849 108.14C117.169 108.1 117.476 108.06 117.769 108.02C118.062 107.98 118.329 107.933 118.569 107.88C119.209 107.733 119.829 107.507 120.429 107.2C121.042 106.88 121.589 106.48 122.069 106C122.549 105.507 122.929 104.927 123.209 104.26C123.502 103.58 123.649 102.807 123.649 101.94C123.649 101.127 123.516 100.373 123.249 99.68C122.982 98.9733 122.589 98.3533 122.069 97.82C121.549 97.2867 120.916 96.8667 120.169 96.56C119.422 96.2533 118.569 96.1 117.609 96.1C116.516 96.1 115.522 96.3 114.629 96.7C113.749 97.1 112.996 97.6267 112.369 98.28C111.756 98.92 111.282 99.6267 110.949 100.4C110.616 101.16 110.449 101.907 110.449 102.64C110.449 103.48 110.556 104.173 110.769 104.72C110.996 105.253 111.262 105.647 111.569 105.9C111.889 106.153 112.202 106.28 112.509 106.28C112.829 106.28 113.156 106.127 113.489 105.82C113.822 105.5 114.162 104.993 114.509 104.3C114.856 103.593 115.196 102.68 115.529 101.56C115.822 100.6 116.069 99.58 116.269 98.5C116.482 97.42 116.636 96.36 116.729 95.32L118.409 95.34ZM128.069 97.2H146.249V98.66H128.069V97.2ZM131.849 107.68H145.569V109.12H131.849V107.68ZM137.009 102.86H142.269V104.26H137.009V102.86ZM131.089 92.74H132.609V110.6H131.089V92.74ZM136.349 92.3H137.849V105.24H136.349V92.3ZM141.629 92.54H143.129V105.14H141.629V92.54ZM151.749 97.44V99.62H162.489V97.44H151.749ZM151.749 94.12V96.26H162.489V94.12H151.749ZM150.269 92.84H164.029V100.88H150.269V92.84ZM159.329 100.04C159.809 100.693 160.416 101.3 161.149 101.86C161.896 102.42 162.716 102.913 163.609 103.34C164.516 103.767 165.436 104.1 166.369 104.34C166.262 104.433 166.142 104.56 166.009 104.72C165.876 104.88 165.749 105.04 165.629 105.2C165.522 105.347 165.429 105.487 165.349 105.62C164.402 105.313 163.469 104.913 162.549 104.42C161.629 103.913 160.782 103.333 160.009 102.68C159.236 102.013 158.589 101.3 158.069 100.54L159.329 100.04ZM155.009 100.04L156.329 100.58C155.796 101.327 155.136 102.027 154.349 102.68C153.562 103.333 152.709 103.92 151.789 104.44C150.882 104.96 149.962 105.387 149.029 105.72C148.962 105.573 148.869 105.427 148.749 105.28C148.642 105.133 148.522 104.987 148.389 104.84C148.269 104.693 148.149 104.567 148.029 104.46C148.936 104.207 149.829 103.853 150.709 103.4C151.602 102.947 152.422 102.433 153.169 101.86C153.916 101.287 154.529 100.68 155.009 100.04ZM153.349 103.58H154.889V104.8C154.889 105.28 154.836 105.787 154.729 106.32C154.636 106.84 154.442 107.367 154.149 107.9C153.856 108.42 153.416 108.92 152.829 109.4C152.256 109.88 151.482 110.32 150.509 110.72C150.442 110.587 150.349 110.447 150.229 110.3C150.109 110.153 149.982 110.007 149.849 109.86C149.716 109.727 149.596 109.613 149.489 109.52C150.369 109.187 151.062 108.827 151.569 108.44C152.089 108.04 152.476 107.633 152.729 107.22C152.996 106.793 153.162 106.373 153.229 105.96C153.309 105.533 153.349 105.133 153.349 104.76V103.58ZM156.349 93.52H157.849V100.3H156.349V93.52ZM159.709 103.58H161.249V110.56H159.709V103.58ZM170.249 102.88H176.609V103.92H170.249V102.88ZM170.269 105.4H176.629V106.44H170.269V105.4ZM168.089 97.16H177.169V98.38H168.089V97.16ZM170.209 108.04H177.029V109.2H170.209V108.04ZM172.969 100.86H174.269V108.48H172.969V100.86ZM170.909 100.36H176.889V101.44H170.909V110.14H169.569V101.38L170.549 100.36H170.909ZM173.669 98.74L175.049 99.04C174.849 99.4 174.649 99.76 174.449 100.12C174.262 100.467 174.089 100.773 173.929 101.04L172.869 100.74C173.002 100.447 173.149 100.113 173.309 99.74C173.469 99.3533 173.589 99.02 173.669 98.74ZM170.249 92.2L171.609 92.52C171.342 93.3867 170.989 94.22 170.549 95.02C170.122 95.82 169.662 96.5 169.169 97.06C169.102 96.98 168.996 96.8867 168.849 96.78C168.702 96.6733 168.556 96.5733 168.409 96.48C168.262 96.3733 168.136 96.2933 168.029 96.24C168.509 95.7333 168.936 95.1267 169.309 94.42C169.696 93.7 170.009 92.96 170.249 92.2ZM172.049 94.66L173.369 94.98C173.036 96.1 172.629 97.1733 172.149 98.2C171.682 99.2267 171.156 100.18 170.569 101.06C169.982 101.927 169.342 102.687 168.649 103.34C168.596 103.247 168.509 103.127 168.389 102.98C168.282 102.833 168.169 102.687 168.049 102.54C167.929 102.393 167.822 102.273 167.729 102.18C168.702 101.313 169.562 100.22 170.309 98.9C171.056 97.58 171.636 96.1667 172.049 94.66ZM170.289 94.02H176.829V95.24H169.749L170.289 94.02ZM179.049 97.68V99.76H184.029V97.68H179.049ZM179.049 100.98V103.08H184.029V100.98H179.049ZM179.049 94.38V96.44H184.029V94.38H179.049ZM177.689 93.04H185.429V104.44H177.689V93.04ZM181.969 103.44H183.309V108.54C183.309 108.753 183.329 108.893 183.369 108.96C183.422 109.027 183.542 109.06 183.729 109.06C183.769 109.06 183.862 109.06 184.009 109.06C184.156 109.06 184.302 109.06 184.449 109.06C184.609 109.06 184.722 109.06 184.789 109.06C184.922 109.06 185.016 109 185.069 108.88C185.136 108.76 185.182 108.513 185.209 108.14C185.249 107.767 185.276 107.193 185.289 106.42C185.436 106.54 185.629 106.653 185.869 106.76C186.109 106.853 186.322 106.927 186.509 106.98C186.469 107.873 186.396 108.56 186.289 109.04C186.182 109.533 186.022 109.867 185.809 110.04C185.596 110.227 185.309 110.32 184.949 110.32C184.856 110.32 184.709 110.32 184.509 110.32C184.322 110.32 184.129 110.32 183.929 110.32C183.742 110.32 183.609 110.32 183.529 110.32C183.102 110.32 182.776 110.267 182.549 110.16C182.322 110.067 182.169 109.887 182.089 109.62C182.009 109.353 181.969 108.993 181.969 108.54V103.44ZM179.209 103.8H180.509C180.416 104.84 180.236 105.8 179.969 106.68C179.716 107.547 179.302 108.313 178.729 108.98C178.169 109.633 177.389 110.18 176.389 110.62C176.309 110.46 176.182 110.273 176.009 110.06C175.849 109.847 175.696 109.68 175.549 109.56C176.456 109.2 177.156 108.74 177.649 108.18C178.156 107.62 178.522 106.973 178.749 106.24C178.976 105.493 179.129 104.68 179.209 103.8Z" fill="white"/>
</svg>
