<svg width="160" height="126" viewBox="0 0 160 126" fill="none" xmlns="http://www.w3.org/2000/svg">
<path d="M9.216 19.96C9.152 19.96 9.104 19.912 9.072 19.816C8.976 19.56 8.656 19.24 8.464 18.952C8.4 18.872 8.4 18.84 8.512 18.856C8.832 18.904 9.136 18.936 9.392 18.936C9.936 18.936 10.32 18.792 10.336 18.328V17.832C10.336 17.352 10.336 16.664 10.32 15.96C9.728 15.976 8.976 15.992 8.128 16.024C8.08 16.04 8.016 16.008 8.016 15.944C8 15.752 8 15.384 8.016 15.224C8.016 15.128 8.064 15.096 8.128 15.096C9.024 15.16 9.744 15.192 10.32 15.208V14.584C10.32 14.248 10.304 13.864 10.304 13.448C9.52 13.448 8.608 13.48 7.376 13.56C7.296 13.56 7.232 13.544 7.232 13.448C7.216 13.288 7.216 12.92 7.232 12.744C7.232 12.616 7.264 12.616 7.36 12.616C8.608 12.696 9.504 12.728 10.288 12.728C10.288 12.072 10.256 11.464 10.24 11.128C9.744 11.144 9.136 11.176 8.432 11.224C8.368 11.224 8.32 11.208 8.32 11.112C8.304 10.952 8.304 10.68 8.304 10.488C8.176 10.632 8.064 10.792 7.936 10.92C7.904 10.968 7.824 11 7.76 10.968C7.36 10.792 7.264 10.728 7.024 10.68C6.928 10.648 6.896 10.632 6.992 10.568C8.464 9.384 9.36 6.952 9.568 6.008C9.584 5.944 9.616 5.928 9.68 5.944C9.936 6.008 10.352 6.152 10.688 6.328C10.768 6.36 10.8 6.408 10.8 6.44C10.8 6.504 10.72 6.568 10.608 6.616C10.48 6.696 10.336 6.776 10.288 6.904C10.224 7.064 10.112 7.336 9.952 7.672C10.768 7.672 11.392 7.656 11.744 7.64C11.856 7.64 11.952 7.464 12.064 7.496C12.208 7.56 12.624 7.848 12.704 7.912C12.752 7.96 12.768 8.008 12.768 8.056C12.768 8.12 12.72 8.168 12.608 8.216C12.48 8.28 12.384 8.456 12.304 8.584C12.112 8.952 11.648 9.8 11.312 10.392C11.744 10.392 12.784 10.376 13.648 10.296C13.792 10.296 13.808 10.312 13.792 10.456C13.744 10.888 13.712 11.784 13.712 12.696C14.16 12.68 14.624 12.648 15.12 12.616C15.2 12.616 15.248 12.648 15.248 12.744C15.264 12.888 15.264 13.288 15.248 13.464C15.248 13.528 15.184 13.56 15.12 13.56C14.624 13.528 14.16 13.496 13.712 13.48C13.728 14.472 13.76 15.8 13.808 16.408C13.808 16.504 13.792 16.536 13.648 16.552C13.536 16.568 13.168 16.584 13.024 16.568C12.896 16.552 12.864 16.52 12.864 16.424C12.864 16.296 12.88 16.136 12.88 15.96L11.552 15.944H11.152C11.184 17.08 11.216 18.136 11.216 18.52C11.216 19.288 10.72 19.992 9.216 19.96ZM1.2 11.72C1.184 11.544 1.184 11.256 1.2 11.128C1.216 11.032 1.232 11 1.296 11C1.936 11.032 3.168 11.08 4.064 11.096V10.04C3.568 10.04 3.216 10.04 2.32 10.12C2.256 10.12 2.192 10.104 2.192 10.008C2.176 9.848 2.176 9.592 2.192 9.448C2.192 9.352 2.24 9.336 2.304 9.336C3.2 9.416 3.536 9.432 4.064 9.432V8.44C3.424 8.44 2.896 8.456 1.728 8.536H1.712C1.664 8.536 1.632 8.504 1.616 8.44V7.8C1.632 7.688 1.648 7.688 1.728 7.688C2.912 7.784 3.408 7.784 4.064 7.784C4.048 7.064 4.016 6.744 3.936 6.12V6.056C3.936 6.008 3.952 5.976 4.032 5.976C4.256 5.992 4.768 6.088 5.12 6.232C5.216 6.264 5.248 6.312 5.248 6.36C5.248 6.424 5.168 6.52 5.088 6.648C4.96 6.808 4.928 6.936 4.912 7.784C5.568 7.784 6.128 7.784 7.232 7.688C7.312 7.688 7.344 7.704 7.344 7.784C7.36 7.928 7.36 8.296 7.344 8.456C7.344 8.52 7.296 8.552 7.248 8.536C6.16 8.456 5.552 8.44 4.912 8.44V9.432C5.36 9.432 5.696 9.416 6.56 9.336C6.624 9.336 6.672 9.352 6.688 9.448V10.008C6.672 10.088 6.64 10.136 6.56 10.12C5.712 10.04 5.376 10.04 4.912 10.04V11.096C5.664 11.08 6.432 11.064 7.584 10.984H7.616C7.664 10.984 7.696 11.016 7.696 11.096C7.712 11.224 7.712 11.592 7.696 11.752C7.696 11.816 7.648 11.848 7.584 11.848C6.224 11.752 5.296 11.752 4.432 11.752C3.584 11.752 2.208 11.816 1.312 11.848C1.232 11.848 1.2 11.784 1.2 11.72ZM2.224 19.848C2.288 18.632 2.32 17.704 2.336 15.688C2.336 15.032 2.336 13.816 2.256 12.744C2.256 12.616 2.256 12.6 2.416 12.6C3.2 12.648 3.664 12.68 4.384 12.68C5.088 12.68 5.632 12.648 6.512 12.6C6.624 12.6 6.64 12.632 6.64 12.744C6.592 13.448 6.576 14.072 6.576 14.6C6.576 15.048 6.592 15.416 6.592 15.704C6.592 16.92 6.672 17.944 6.672 18.536C6.672 19.368 6.272 19.96 4.784 19.96C4.72 19.96 4.672 19.928 4.64 19.832C4.592 19.624 4.304 19.288 4.096 19.048C4.032 18.968 4.048 18.936 4.16 18.952C4.464 19 4.72 19.032 4.944 19.032C5.504 19.032 5.792 18.84 5.792 18.408C5.792 17.96 5.792 17.464 5.776 16.984L4.432 16.968C4.144 16.968 3.568 16.984 3.168 16.984C3.168 18.152 3.168 19 3.2 19.864C3.2 19.944 3.152 19.976 3.072 19.976C2.896 19.992 2.56 19.992 2.336 19.976C2.256 19.976 2.208 19.944 2.224 19.848ZM3.168 16.264C3.568 16.28 4.176 16.296 4.432 16.296C4.72 16.296 5.376 16.28 5.776 16.264C5.76 16.056 5.76 15.864 5.76 15.704V15.176L4.432 15.16C4.128 15.16 3.552 15.176 3.168 15.176V16.264ZM3.184 14.44C3.568 14.456 4.16 14.472 4.416 14.472L5.744 14.456C5.744 13.992 5.728 13.56 5.728 13.352H3.2C3.2 13.464 3.184 13.928 3.184 14.44ZM8.448 10.28H8.464C9.296 10.344 9.968 10.376 10.464 10.376C10.736 9.848 11.216 8.904 11.392 8.408C10.96 8.408 10.176 8.424 9.584 8.424C9.264 9.032 8.88 9.704 8.448 10.28ZM11.136 14.584C11.136 14.792 11.136 15 11.152 15.208H11.552C11.888 15.208 12.48 15.192 12.896 15.192V13.464C12.224 13.448 11.632 13.448 11.136 13.448V14.584ZM11.136 12.728C11.648 12.728 12.24 12.728 12.896 12.712V11.112H11.376C11.376 11.112 11.392 11.128 11.392 11.144C11.392 11.176 11.344 11.224 11.264 11.288C11.136 11.368 11.152 11.464 11.136 11.688V12.728ZM24.128 19.016C23.664 19.016 23.216 18.984 22.864 18.936C20.864 18.648 19.616 17.432 19.616 16.056C19.616 14.888 20.512 13.624 22.624 12.728C22.32 11.992 22.272 10.744 22.272 9.624C22.272 9 22.288 8.424 22.288 7.976C22.288 7.688 22.288 7.464 22.256 7.336C22.24 7.304 22.24 7.272 22.24 7.24C22.24 7.176 22.272 7.16 22.384 7.16C22.624 7.16 23.136 7.224 23.424 7.304C23.648 7.352 23.712 7.432 23.712 7.496C23.712 7.656 23.456 7.848 23.44 8.104C23.408 8.888 23.344 9.688 23.344 10.408C23.344 11.192 23.408 11.896 23.632 12.36C23.92 12.264 24.208 12.152 24.544 12.056C25.616 11.704 26.864 11.208 27.312 11.016C27.408 10.968 27.44 10.984 27.472 11.064C27.536 11.208 27.632 11.656 27.664 11.912V11.992C27.664 12.104 27.632 12.168 27.472 12.216C27.056 12.376 25.904 12.728 24.992 13C24.464 13.144 23.968 13.304 23.52 13.448C21.488 14.168 20.688 15.128 20.688 15.976C20.688 16.904 21.648 17.704 22.96 17.912C23.216 17.944 23.52 17.96 23.824 17.96C25.104 17.96 26.688 17.688 27.68 17.336C27.712 17.32 27.76 17.32 27.776 17.32C27.84 17.32 27.872 17.352 27.872 17.48C27.872 17.704 27.888 18.152 27.92 18.344V18.376C27.92 18.472 27.856 18.52 27.712 18.568C26.816 18.84 25.36 19.016 24.128 19.016ZM38.704 20.136C38.656 20.136 38.608 20.104 38.544 20.04C38.416 19.896 37.984 19.736 37.728 19.592C37.664 19.56 37.648 19.544 37.648 19.512C37.648 19.496 37.696 19.464 37.76 19.448C41.296 18.2 42.192 14.28 42.368 10.68C41.824 10.696 41.152 10.728 40.4 10.76C40.32 10.76 40.272 10.744 40.256 10.664C40.24 10.504 40.256 10.04 40.256 9.896C40.272 9.8 40.304 9.768 40.4 9.768C41.12 9.816 41.824 9.832 42.384 9.832C42.384 9.512 42.4 9.176 42.4 8.872C42.4 7.752 42.352 6.76 42.304 6.28V6.2C42.304 6.152 42.32 6.12 42.368 6.12C42.464 6.12 43.328 6.248 43.6 6.36C43.712 6.392 43.744 6.44 43.744 6.488C43.744 6.536 43.68 6.616 43.616 6.712C43.488 6.92 43.456 7.064 43.44 7.304C43.392 7.896 43.376 8.728 43.344 9.832H43.424C44.048 9.832 45.008 9.8 46.128 9.72H46.192C46.272 9.72 46.288 9.752 46.272 9.848C46.08 11.448 46.336 15.896 45.536 18.152C45.152 19.256 44.368 19.72 43.344 19.72C43.184 19.72 43.024 19.704 42.848 19.688C42.72 19.672 42.64 19.656 42.592 19.512C42.512 19.176 42.256 18.84 42.112 18.6C42.064 18.504 42.096 18.472 42.192 18.488C42.624 18.584 42.992 18.632 43.312 18.632C43.968 18.632 44.384 18.392 44.624 17.752C45.264 16.008 45.232 11.88 45.232 10.632C44.848 10.632 44.08 10.648 43.424 10.648H43.312C43.152 14.088 42.416 18.152 38.832 20.088C38.784 20.12 38.736 20.136 38.704 20.136ZM32.976 18.184C32.976 18.136 33.024 18.12 33.104 18.12C33.84 18.088 35.088 17.928 36.384 17.752C36.384 17.416 36.384 17.016 36.4 16.6C35.776 16.6 34.8 16.632 33.712 16.68H33.664C33.6 16.68 33.568 16.664 33.568 16.568C33.552 16.408 33.552 16.104 33.568 15.944C33.584 15.816 33.632 15.816 33.712 15.816C34.864 15.88 35.776 15.896 36.4 15.896C36.416 15.464 36.416 15 36.416 14.552C35.936 14.552 35.248 14.568 34.88 14.584C34.896 14.712 34.896 14.84 34.896 14.984C34.896 15.112 34.864 15.16 34.72 15.16C34.496 15.176 34.288 15.176 34.112 15.16C33.952 15.144 33.952 15.112 33.968 14.984C34.048 13.96 34.048 13.08 34.064 12.6C34.064 11.864 34.064 11.24 34 10.488V10.44C34 10.36 34.016 10.312 34.144 10.328C34.768 10.376 35.696 10.392 36.432 10.392C36.416 10.04 36.416 9.704 36.416 9.416C35.696 9.416 34.512 9.432 33.376 9.512H33.328C33.28 9.512 33.232 9.496 33.232 9.416C33.216 9.256 33.216 8.904 33.232 8.76C33.232 8.632 33.296 8.632 33.376 8.632C34.528 8.728 35.68 8.744 36.416 8.744V8.52C36.4 8.184 36.4 7.944 36.368 7.736C35.616 7.8 34.832 7.864 34.192 7.88C34.112 7.88 34.032 7.88 34 7.784C33.936 7.56 33.696 7.32 33.552 7.144C33.456 7.048 33.504 7.032 33.6 7.032C33.904 7.048 34.208 7.048 34.512 7.048C36.416 7.048 38.016 6.776 38.672 6.52C38.768 6.472 38.784 6.456 38.88 6.52C39.024 6.632 39.376 6.92 39.52 7.112C39.568 7.176 39.6 7.224 39.6 7.256C39.6 7.368 39.424 7.384 39.152 7.368C39.072 7.368 38.848 7.368 38.56 7.432C38.304 7.496 37.936 7.544 37.52 7.608C37.52 7.624 37.536 7.624 37.536 7.64C37.536 7.688 37.488 7.752 37.408 7.816C37.296 7.912 37.248 7.992 37.248 8.312C37.248 8.392 37.248 8.552 37.232 8.744C38.032 8.744 39.36 8.728 40.432 8.632C40.496 8.632 40.544 8.68 40.56 8.744C40.576 8.904 40.576 9.24 40.56 9.432C40.544 9.496 40.496 9.528 40.448 9.528C39.376 9.448 38.032 9.432 37.232 9.416C37.232 9.704 37.232 10.04 37.216 10.392C37.904 10.392 38.672 10.376 39.52 10.328C39.632 10.328 39.68 10.36 39.664 10.504C39.6 11.112 39.6 11.688 39.6 12.152V12.632C39.6 13.08 39.616 13.736 39.68 14.792V14.872C39.68 14.952 39.648 14.984 39.504 15C39.344 15.032 39.152 15.032 38.976 15.016C38.88 15 38.784 15 38.8 14.856V14.584C38.432 14.568 37.728 14.552 37.216 14.552C37.216 15 37.232 15.464 37.232 15.896C37.872 15.896 38.896 15.88 39.936 15.8C39.984 15.8 40.032 15.848 40.048 15.928C40.064 16.088 40.064 16.376 40.048 16.568C40.048 16.632 39.968 16.664 39.936 16.664C38.912 16.6 37.888 16.6 37.232 16.6C37.232 16.968 37.248 17.32 37.248 17.624C38.352 17.464 39.408 17.288 40.016 17.16C40.096 17.144 40.128 17.16 40.128 17.192C40.128 17.352 40.016 17.544 40.016 17.784C40.016 17.848 39.984 17.912 39.856 17.944C38.864 18.136 34.88 18.776 33.984 18.952C33.808 18.984 33.728 19.16 33.632 19.16C33.584 19.16 33.536 19.128 33.472 19.048C33.328 18.888 33.104 18.52 32.992 18.248C32.976 18.216 32.976 18.2 32.976 18.184ZM34.88 13.88C35.248 13.88 35.952 13.896 36.432 13.896V12.776C35.952 12.776 35.232 12.792 34.88 12.792V13.88ZM34.88 12.104C35.248 12.12 35.952 12.136 36.432 12.136V11.048C35.952 11.048 35.296 11.048 34.896 11.064C34.88 11.304 34.88 11.736 34.88 12.104ZM37.216 13.896C37.728 13.896 38.448 13.88 38.816 13.88C38.832 13.432 38.832 13.064 38.832 12.792C38.464 12.792 37.744 12.776 37.216 12.776V13.896ZM37.216 12.136C37.728 12.136 38.448 12.12 38.832 12.104C38.816 11.736 38.816 11.304 38.816 11.048H37.216V12.136ZM55.744 18.712C55.616 18.712 55.488 18.68 55.392 18.536C55.248 18.296 55.04 18.136 54.864 17.976C54.8 17.912 54.768 17.88 54.768 17.848C54.768 17.8 54.832 17.784 54.928 17.784C58.464 17.848 60.656 15.864 60.656 13.736C60.656 12.952 60.368 12.152 59.744 11.432C59.12 10.696 58.144 10.216 57.088 10.04C57.072 10.04 57.072 10.04 57.072 10.056H57.008C56.912 10.056 56.848 10.088 56.8 10.216C56.432 11.224 54.656 15.256 53.12 17.464C52.912 17.768 52.672 17.88 52.416 17.88C52.24 17.88 52.064 17.832 51.888 17.736C50.768 17.16 50.144 15.928 50.144 14.536C50.144 13.048 50.88 11.384 52.512 10.216C53.536 9.496 54.88 9.128 56.224 9.128C57.856 9.128 59.488 9.672 60.544 10.792C61.344 11.656 61.728 12.696 61.728 13.752C61.728 16.104 59.744 18.472 55.824 18.712H55.744ZM51.152 14.456C51.152 15.336 51.488 16.104 52.064 16.536C52.144 16.584 52.208 16.616 52.272 16.616C52.352 16.616 52.432 16.568 52.496 16.488C53.728 14.776 55.328 11.16 55.712 9.992C54.784 10.072 53.872 10.392 53.072 10.968C51.728 11.96 51.152 13.304 51.152 14.456ZM67.408 20.136C67.36 20.136 67.312 20.104 67.248 20.024C67.088 19.832 66.8 19.496 66.64 19.128C66.624 19.096 66.624 19.08 66.624 19.064C66.624 18.984 66.688 18.984 66.784 18.968C67.488 18.872 68.56 18.616 69.648 18.312C69.648 17.72 69.664 16.904 69.664 16.136C69.664 15.752 69.664 15.368 69.648 15.032C68.528 15.752 67.168 16.424 65.648 16.936C65.568 16.952 65.472 16.984 65.424 16.888C65.216 16.6 64.896 16.424 64.672 16.296C64.592 16.248 64.56 16.216 64.56 16.2C64.56 16.168 64.624 16.152 64.704 16.136C67.36 15.528 69.84 14.04 70.912 12.952H70.032C68.928 12.952 67.744 12.968 65.904 13.048C65.792 13.048 65.744 13.016 65.744 12.936C65.728 12.76 65.728 12.344 65.744 12.184C65.744 12.072 65.776 12.056 65.904 12.056C68.576 12.168 69.968 12.184 71.392 12.184C71.392 11.768 71.408 11.352 71.408 10.84C70.336 10.84 69.408 10.856 67.584 10.92H67.552C67.488 10.92 67.456 10.872 67.456 10.808C67.44 10.648 67.44 10.248 67.456 10.088C67.456 9.992 67.472 9.976 67.584 9.992C69.328 10.072 70.4 10.088 71.408 10.088V8.76C70.112 8.76 68.896 8.76 66.8 8.84H66.752C66.688 8.84 66.656 8.808 66.656 8.744C66.64 8.584 66.64 8.168 66.656 8.008C66.656 7.912 66.672 7.88 66.8 7.896C68.88 7.96 70.208 7.992 71.408 8.008C71.392 7.224 71.36 6.792 71.232 6.136V6.072C71.232 6.024 71.248 5.992 71.296 5.992C71.584 5.992 72.24 6.088 72.608 6.232C72.704 6.264 72.736 6.312 72.736 6.376C72.736 6.456 72.656 6.584 72.56 6.728C72.416 6.984 72.384 7.128 72.368 8.008C73.76 8.008 75.072 7.976 77.12 7.896C77.216 7.896 77.232 7.928 77.248 8.008C77.264 8.184 77.264 8.584 77.248 8.76C77.232 8.808 77.216 8.84 77.136 8.84C75.136 8.792 73.728 8.76 72.368 8.76V10.088C73.472 10.088 74.256 10.088 76.08 9.992C76.176 9.992 76.192 10.024 76.208 10.104C76.224 10.264 76.224 10.664 76.208 10.84C76.192 10.888 76.16 10.92 76.08 10.92C74.208 10.856 73.44 10.84 72.368 10.84C72.368 11.336 72.384 11.784 72.384 12.184C74.016 12.184 75.488 12.168 78.224 12.056C78.336 12.056 78.352 12.104 78.352 12.184C78.368 12.36 78.368 12.776 78.352 12.952C78.352 13.032 78.304 13.048 78.224 13.048C75.968 12.952 74.432 12.952 73.024 12.952C73.216 13.736 73.504 14.488 73.888 15.16C75.232 14.584 76.304 13.752 76.656 13.416C76.72 13.352 76.752 13.352 76.816 13.416C76.896 13.48 77.392 13.896 77.6 14.216C77.632 14.248 77.632 14.28 77.632 14.312C77.632 14.424 77.472 14.472 77.296 14.504C77.056 14.52 77.024 14.52 76.736 14.664C76.32 14.888 75.36 15.4 74.336 15.848C75.344 17.256 76.912 18.312 79.216 18.872C79.296 18.888 79.344 18.92 79.344 18.952C79.344 18.984 79.296 19.032 79.2 19.08C78.912 19.224 78.464 19.464 78.208 19.736C78.16 19.784 78.128 19.784 78.096 19.784C78.048 19.784 78 19.768 77.936 19.736C74.896 18.616 72.88 16.232 72.096 13.064C71.968 13.112 71.904 13.192 71.728 13.368C71.392 13.72 70.96 14.088 70.464 14.456C70.56 14.472 70.64 14.488 70.688 14.488C70.816 14.504 70.88 14.552 70.88 14.616C70.88 14.664 70.832 14.728 70.736 14.792C70.672 14.824 70.64 14.872 70.64 15.064C70.64 16.072 70.64 17.24 70.656 18.04C71.904 17.672 73.024 17.32 73.456 17.176C73.584 17.144 73.6 17.144 73.568 17.272C73.52 17.448 73.472 17.72 73.472 17.96C73.456 18.04 73.44 18.104 73.312 18.152C71.424 18.84 68.752 19.576 67.792 19.88C67.616 19.944 67.52 20.136 67.408 20.136ZM84.192 20.008C84.112 20.024 84.032 20.04 83.984 19.96C83.792 19.64 83.456 19.432 83.248 19.24C83.168 19.176 83.152 19.128 83.152 19.112C83.152 19.08 83.2 19.08 83.28 19.08C86.784 19.032 88.48 17 88.928 15.832C89.104 15.448 89.2 15.064 89.248 14.68C89.264 14.632 89.264 14.584 89.296 14.568L88.768 14.584L88.784 14.904C88.784 15.032 88.768 15.048 88.64 15.064C88.512 15.08 88.048 15.08 87.904 15.064C87.792 15.048 87.744 15.048 87.76 14.904C87.856 13.32 87.856 11.528 87.856 10.52C87.856 9.336 87.856 8.024 87.792 6.792V6.696C87.792 6.616 87.824 6.6 87.968 6.616C88.896 6.664 89.968 6.68 90.72 6.68C91.488 6.68 92.48 6.664 93.584 6.616H93.632C93.728 6.616 93.76 6.664 93.76 6.776C93.696 7.976 93.68 9.64 93.68 10.632C93.68 11.544 93.696 13.112 93.776 14.728V14.808C93.776 14.888 93.744 14.92 93.6 14.952C93.52 14.968 93.36 14.968 93.2 14.968C93.088 14.968 92.976 14.968 92.912 14.952C92.784 14.936 92.736 14.92 92.736 14.808C92.736 14.728 92.736 14.664 92.752 14.584L92.112 14.568L92.16 14.584C92.272 14.6 92.304 14.648 92.304 14.68C92.304 14.728 92.256 14.776 92.192 14.824C92.096 14.904 92.064 14.984 92.064 15.16C92.048 15.672 92 17.288 92 17.912C92.016 18.424 92.144 18.648 92.528 18.696C92.656 18.712 92.816 18.728 92.976 18.728C93.248 18.728 93.552 18.696 93.776 18.648C94.192 18.552 94.384 18.024 94.4 16.808C94.4 16.712 94.448 16.744 94.496 16.792C94.672 17.032 95.008 17.416 95.328 17.576C95.408 17.624 95.424 17.656 95.408 17.784C95.2 18.936 94.832 19.48 93.968 19.592C93.648 19.64 93.28 19.672 92.912 19.672C92.672 19.672 92.432 19.656 92.224 19.624C91.376 19.496 90.992 18.984 91.056 18.072C91.088 17.448 91.104 16.408 91.12 15.592C91.12 15.256 91.104 14.872 91.072 14.552H90.688L89.344 14.568L89.376 14.584C89.616 14.648 90.064 14.776 90.384 14.968C90.464 15.016 90.496 15.064 90.496 15.112C90.496 15.176 90.432 15.256 90.288 15.304C90.08 15.384 90.048 15.608 89.744 16.248C89.136 17.736 87.472 19.528 84.192 20.008ZM81.584 17.4C81.536 17.4 81.488 17.384 81.44 17.32C81.264 17.112 81.008 16.664 80.912 16.488C80.896 16.456 80.896 16.44 80.896 16.424C80.896 16.376 80.96 16.376 81.024 16.36C81.552 16.264 82.544 15.928 83.552 15.544L83.584 11.928C83.184 11.928 82.64 11.96 81.952 12.008C81.92 12.008 81.84 11.992 81.84 11.896C81.824 11.736 81.824 11.304 81.84 11.144C81.84 11.016 81.888 11 81.952 11.016C82.656 11.08 83.184 11.112 83.584 11.112C83.584 9.88 83.568 8.728 83.552 8.152C83.072 8.152 82.448 8.184 81.664 8.248H81.632C81.6 8.248 81.536 8.216 81.536 8.136C81.52 7.96 81.52 7.512 81.536 7.352C81.536 7.208 81.6 7.208 81.664 7.208C82.88 7.32 83.648 7.32 84.208 7.336C84.688 7.336 85.44 7.32 86.64 7.208C86.688 7.208 86.752 7.24 86.768 7.336C86.784 7.512 86.784 7.944 86.768 8.152C86.752 8.232 86.688 8.264 86.64 8.264C85.744 8.184 85.088 8.152 84.624 8.152V8.168L84.576 11.128C84.976 11.112 85.488 11.08 86.192 11.016H86.224C86.256 11.016 86.304 11.048 86.304 11.128C86.32 11.304 86.32 11.72 86.304 11.912C86.304 11.992 86.24 12.008 86.192 12.008C85.504 11.96 84.976 11.944 84.576 11.928C84.576 13.144 84.592 14.392 84.608 15.144C85.568 14.76 86.416 14.392 86.8 14.216C86.912 14.168 86.912 14.168 86.912 14.28C86.896 14.392 86.896 14.536 86.896 14.664C86.896 14.776 86.896 14.872 86.912 14.952V14.984C86.912 15.032 86.88 15.08 86.784 15.128C85.328 15.816 82.864 16.808 81.968 17.16C81.808 17.224 81.712 17.4 81.584 17.4ZM90.688 13.848L92.768 13.832L92.784 12.232L90.688 12.2L88.752 12.232L88.768 13.832C89.216 13.848 90.176 13.848 90.688 13.848ZM90.688 11.384L92.784 11.368V9.88L90.688 9.848L88.752 9.88V11.368L90.688 11.384ZM90.688 9.08L92.768 9.064L92.752 7.496L90.704 7.48L88.768 7.496L88.752 9.064C89.216 9.08 90.176 9.08 90.688 9.08ZM102.592 18.776C102.272 18.776 101.936 18.728 101.568 18.648C101.44 18.616 101.376 18.536 101.344 18.408C101.312 18.184 101.184 17.928 101.12 17.704C101.104 17.672 101.104 17.656 101.104 17.64C101.104 17.592 101.152 17.576 101.232 17.592C101.648 17.656 102 17.704 102.304 17.704C103.248 17.704 103.728 17.368 104.096 16.792C104.576 16.056 104.784 14.648 104.784 13.576C104.784 13.256 104.768 12.984 104.736 12.744C104.672 12.168 104.432 11.96 103.872 11.96C103.36 11.976 102.816 12.024 102.272 12.104C101.504 14.552 100.4 16.968 99.024 18.648C98.96 18.712 98.912 18.728 98.816 18.712C98.608 18.68 98.064 18.44 97.92 18.344C97.856 18.296 97.808 18.232 97.888 18.152C99.248 16.824 100.464 14.6 101.216 12.264C100.224 12.44 99.344 12.616 98.832 12.664C98.752 12.664 98.672 12.664 98.624 12.552C98.544 12.408 98.384 11.944 98.368 11.832C98.368 11.784 98.352 11.752 98.352 11.736C98.352 11.656 98.4 11.64 98.48 11.64C98.992 11.672 100.192 11.464 101.488 11.288C101.792 10.168 101.968 9.032 102 7.992C102 7.848 102 7.832 102.128 7.864C102.368 7.896 102.848 7.976 103.168 8.088C103.328 8.152 103.376 8.2 103.376 8.264C103.376 8.392 103.12 8.552 103.072 8.808C102.928 9.576 102.752 10.36 102.544 11.16C103.136 11.096 103.712 11.048 104.224 11.048C105.024 11.048 105.664 11.4 105.776 12.488C105.808 12.76 105.824 13.064 105.824 13.416C105.824 14.696 105.616 16.376 105.072 17.288C104.48 18.264 103.696 18.776 102.592 18.776ZM106.736 10.984L107.232 10.536C107.28 10.504 107.296 10.488 107.344 10.488C107.376 10.488 107.408 10.504 107.472 10.536C108.352 11 110.192 12.408 111.056 13.752C111.088 13.8 111.088 13.816 111.088 13.848C111.088 13.88 111.072 13.928 111.024 13.976C110.832 14.168 110.528 14.424 110.336 14.536C110.256 14.584 110.176 14.616 110.128 14.504C109.376 13.08 107.584 11.608 106.752 11.16C106.64 11.096 106.688 11.032 106.736 10.984ZM107.472 9.048C107.52 8.968 107.712 8.744 107.792 8.68C107.856 8.616 107.888 8.6 107.968 8.648C108.464 8.888 109.504 9.496 109.984 9.96C110.016 9.992 110.016 10.024 110.016 10.056C110.016 10.088 110.016 10.12 109.984 10.184C109.92 10.296 109.744 10.52 109.648 10.6C109.568 10.664 109.52 10.648 109.456 10.584C108.944 10.12 107.936 9.448 107.488 9.208C107.408 9.16 107.44 9.096 107.472 9.048ZM108.624 7.944C108.688 7.864 108.88 7.64 108.96 7.576C109.024 7.528 109.056 7.512 109.12 7.544C109.632 7.784 110.672 8.392 111.152 8.84C111.184 8.872 111.2 8.904 111.2 8.936C111.2 8.968 111.184 9 111.152 9.064C111.104 9.176 110.912 9.4 110.832 9.48C110.752 9.544 110.704 9.544 110.624 9.48C110.112 9 109.104 8.344 108.656 8.12C108.576 8.072 108.608 7.992 108.624 7.944Z" fill="#E5E5E5"/>
<path d="M8.032 48.896C7.824 48.896 7.616 48.896 7.456 48.88C7.36 48.864 7.328 48.832 7.328 48.736L7.424 45.456C6.816 45.472 5.984 45.504 4.928 45.584C4.864 45.584 4.784 45.552 4.768 45.456C4.768 45.28 4.752 44.8 4.768 44.624C4.784 44.496 4.848 44.496 4.928 44.496C6.016 44.576 6.816 44.592 7.44 44.608C7.472 42.896 7.504 41.232 7.504 40.08C6.24 42.384 4.096 44.848 1.84 46.592C1.792 46.64 1.744 46.672 1.696 46.672C1.648 46.672 1.6 46.64 1.552 46.592C1.264 46.336 0.864 46.176 0.576 46.08C0.464 46.032 0.432 45.968 0.56 45.904C3.696 44.288 6.24 40.608 7.056 39.264H6.176C5.024 39.264 3.744 39.28 1.904 39.376C1.808 39.376 1.744 39.36 1.728 39.248C1.712 39.056 1.712 38.576 1.728 38.384C1.744 38.256 1.776 38.24 1.888 38.256C4.608 38.368 5.968 38.4 7.504 38.4C7.488 37.264 7.472 36.144 7.328 35.168V35.136C7.328 35.056 7.376 35.024 7.456 35.024C7.712 35.056 8.32 35.168 8.688 35.296C8.8 35.328 8.848 35.392 8.848 35.456C8.848 35.6 8.672 35.808 8.592 36.016C8.448 36.4 8.4 37.28 8.384 38.4C9.936 38.4 11.408 38.368 14.064 38.256C14.176 38.256 14.208 38.304 14.224 38.4C14.224 38.576 14.24 39.056 14.224 39.264C14.208 39.344 14.144 39.376 14.064 39.376C11.808 39.28 10.24 39.28 8.752 39.264C9.584 40.624 12.08 44.208 15.28 45.712C15.36 45.744 15.392 45.776 15.392 45.808C15.392 45.84 15.344 45.888 15.248 45.92C14.912 46.048 14.512 46.24 14.272 46.48C14.224 46.512 14.192 46.528 14.144 46.528C14.096 46.528 14.048 46.512 14 46.464C11.888 44.992 9.536 42.336 8.384 40.112C8.384 41.248 8.416 42.944 8.464 44.608C9.104 44.592 9.872 44.576 10.96 44.496C11.024 44.496 11.072 44.528 11.088 44.624C11.088 44.784 11.104 45.296 11.088 45.472C11.072 45.552 11.008 45.584 10.96 45.584C9.888 45.488 9.152 45.472 8.48 45.456C8.512 46.736 8.528 47.92 8.56 48.736C8.56 48.816 8.512 48.864 8.432 48.88C8.32 48.896 8.176 48.896 8.032 48.896ZM17.76 41.376C17.664 41.424 17.6 41.424 17.536 41.36C17.312 41.168 16.976 41.088 16.688 40.976C16.592 40.944 16.576 40.896 16.672 40.864C18.544 40.128 18.816 38.384 18.816 37.184C18.816 36.704 18.768 36.304 18.72 35.936V35.872C18.72 35.808 18.752 35.808 18.864 35.84C19.072 35.872 19.552 36.016 19.808 36.096C21.2 35.744 22.496 35.232 22.912 34.96C22.976 34.928 22.992 34.896 23.056 34.96C23.152 35.056 23.504 35.456 23.616 35.616C23.648 35.68 23.68 35.728 23.68 35.76C23.68 35.872 23.536 35.92 23.344 35.888C23.264 35.888 23.104 35.904 22.896 35.968C22.272 36.192 21.024 36.576 19.696 36.88C19.68 37.088 19.696 37.264 19.68 37.536C20.08 37.536 20.608 37.552 21.04 37.552C21.792 37.552 22.8 37.552 23.952 37.44C24 37.44 24.064 37.472 24.064 37.552C24.08 37.68 24.08 38.112 24.064 38.256C24.064 38.32 24 38.352 23.952 38.352C23.312 38.304 22.672 38.272 22.128 38.256C22.096 38.288 22.064 38.32 22 38.352C21.872 38.416 21.872 38.56 21.872 38.944C21.872 39.344 21.904 39.856 21.968 40.304C21.968 40.352 21.92 40.432 21.84 40.432H20.992C20.896 40.416 20.88 40.352 20.88 40.32C20.976 39.696 21.008 39.264 21.008 38.88C21.008 38.736 21.008 38.528 20.992 38.256C20.528 38.256 20.016 38.272 19.6 38.272C19.472 39.28 19.072 40.576 17.76 41.376ZM17.168 48.384C17.056 48.288 17.12 48.272 17.216 48.256C19.824 48.112 21.728 47.056 22.208 46.672C22.304 46.608 22.304 46.592 22.416 46.656C22.56 46.736 22.848 46.976 23.088 47.2C23.136 47.248 23.168 47.296 23.168 47.328C23.168 47.408 23.056 47.456 22.896 47.472C22.736 47.488 22.656 47.52 22.512 47.584C21.776 48 20.048 48.784 18.128 49.12C18.064 49.12 17.936 49.12 17.888 49.04C17.792 48.848 17.376 48.512 17.168 48.384ZM20.16 46.624C20.24 45.504 20.288 44.496 20.288 43.696C20.272 42.736 20.288 41.792 20.224 40.816V40.784C20.224 40.704 20.272 40.704 20.352 40.704C21.664 40.752 22.864 40.768 24.064 40.768C25.376 40.768 25.904 40.768 27.68 40.704H27.728C27.808 40.704 27.84 40.752 27.84 40.832C27.792 41.776 27.792 42.624 27.792 43.68C27.792 44.48 27.824 45.264 27.872 46.48V46.512C27.872 46.592 27.808 46.608 27.728 46.624H26.992C26.88 46.608 26.848 46.576 26.848 46.496C26.848 46.416 26.848 46.336 26.864 46.256C26.32 46.24 25.184 46.224 24.064 46.224C22.992 46.224 21.84 46.24 21.2 46.24C21.216 46.368 21.216 46.48 21.216 46.608C21.216 46.704 21.184 46.72 21.072 46.72C20.864 46.736 20.48 46.736 20.304 46.72C20.208 46.72 20.144 46.72 20.16 46.624ZM21.168 44.576C21.184 44.88 21.184 45.2 21.184 45.552C21.824 45.552 22.992 45.568 24.048 45.568C25.184 45.568 26.352 45.536 26.88 45.536C26.896 45.216 26.896 44.896 26.896 44.592C26.368 44.576 25.2 44.56 24.064 44.56C22.992 44.56 21.792 44.576 21.168 44.576ZM21.168 43.92C21.792 43.92 22.976 43.936 24.064 43.936C25.2 43.936 26.368 43.904 26.896 43.904V43.024C26.368 43.024 25.2 43.008 24.064 43.008C22.976 43.008 21.776 43.024 21.168 43.024V43.92ZM21.168 42.352C21.792 42.352 22.976 42.368 24.064 42.368C25.2 42.368 26.368 42.336 26.896 42.336V41.456C26.896 41.456 25.248 41.424 24.064 41.424C22.88 41.424 21.184 41.456 21.184 41.456C21.184 41.456 21.184 41.824 21.168 42.352ZM22.784 40.224C24.176 39.648 24.512 38.64 24.56 37.568C24.576 37.392 24.576 37.216 24.576 37.072C24.576 36.64 24.544 36.304 24.48 35.952V35.904C24.48 35.856 24.496 35.84 24.544 35.84C24.624 35.84 25.264 36 25.552 36.112C26.992 35.76 28.384 35.232 28.8 34.976C28.864 34.928 28.88 34.912 28.944 34.976C29.056 35.072 29.392 35.472 29.52 35.632C29.552 35.68 29.568 35.728 29.568 35.76C29.568 35.888 29.44 35.92 29.232 35.904C29.168 35.904 28.992 35.904 28.784 35.984C28.144 36.208 26.784 36.576 25.44 36.88C25.424 37.072 25.424 37.248 25.408 37.536C25.84 37.536 26.432 37.552 26.88 37.552C27.632 37.552 29.104 37.552 30.256 37.44C30.304 37.44 30.352 37.472 30.368 37.552C30.368 37.68 30.384 38.112 30.368 38.256C30.368 38.32 30.304 38.352 30.256 38.352C29.632 38.304 28.88 38.272 28.224 38.272C28.192 38.288 28.16 38.32 28.096 38.352C28 38.4 27.984 38.496 27.984 38.72C27.968 39.136 27.984 39.808 28.064 40.352C28.064 40.384 28.016 40.464 27.952 40.464C27.712 40.464 27.296 40.48 27.072 40.464C26.976 40.464 26.96 40.384 26.96 40.352C27.056 39.728 27.088 39.264 27.088 38.88C27.088 38.736 27.088 38.528 27.072 38.256H26.864C26.368 38.256 25.792 38.272 25.328 38.272C25.2 39.072 24.816 40.064 23.76 40.72C23.68 40.768 23.632 40.768 23.568 40.704C23.376 40.544 23.056 40.416 22.8 40.32C22.704 40.288 22.704 40.256 22.784 40.224ZM25.104 47.264C25.024 47.2 25.024 47.168 25.104 47.12C25.168 47.056 25.536 46.72 25.616 46.688C25.712 46.656 25.744 46.64 25.84 46.688C26.448 47.12 28.336 47.904 30.64 48.048C30.752 48.064 30.832 48.096 30.672 48.192C30.448 48.336 30 48.672 29.824 48.912C29.76 48.992 29.728 48.976 29.6 48.96C27.712 48.64 25.664 47.712 25.104 47.264ZM42.528 48.736C42.368 48.736 42.192 48.72 42.016 48.704C41.888 48.688 41.808 48.704 41.776 48.544C41.696 48.208 41.44 47.904 41.216 47.6C41.104 47.472 41.184 47.472 41.28 47.488C41.76 47.584 42.16 47.632 42.48 47.632C43.536 47.632 43.952 47.184 44.272 46.56C44.912 45.312 44.96 42.208 44.96 40.256V39.104C44.768 39.088 44.304 39.088 43.776 39.088H42.208C41.984 39.088 41.68 39.088 40.816 39.104C40.448 39.808 40.016 40.528 39.536 41.136C39.504 41.2 39.408 41.232 39.328 41.168C39.104 40.992 38.88 40.976 38.592 40.896V41.824C38.592 42.832 38.608 45.344 38.672 46.896V46.976C38.672 47.056 38.64 47.088 38.528 47.12C38.384 47.152 38 47.152 37.824 47.136C37.712 47.12 37.632 47.072 37.632 46.96C37.648 46.704 37.648 46.416 37.648 46.08L36.304 46.064L35.008 46.08C35.008 46.688 35.008 47.232 35.024 47.632C35.024 47.776 35.008 47.792 34.848 47.824C34.688 47.84 34.256 47.84 34.112 47.824C33.952 47.792 33.92 47.776 33.92 47.632C34.016 45.904 34.048 43.184 34.048 41.872C34.048 40.56 34.048 39.328 33.984 38.224V38.16C33.984 38.064 34 38.048 34.144 38.064L35.424 38.112C35.648 36.944 35.76 35.792 35.76 35.312C35.76 35.2 35.808 35.184 35.92 35.184C36.016 35.2 36.736 35.328 37.088 35.488C37.2 35.52 37.232 35.568 37.232 35.616C37.232 35.696 37.136 35.776 36.992 35.888C36.88 35.968 36.832 36.128 36.784 36.32C36.672 36.784 36.512 37.504 36.336 38.128H36.352C37.072 38.128 37.648 38.112 38.512 38.064H38.544C38.64 38.064 38.672 38.112 38.656 38.224C38.608 38.944 38.592 39.792 38.592 40.624C40.192 38.944 41.152 36.112 41.344 35.248C41.36 35.168 41.392 35.136 41.472 35.152C41.568 35.168 42 35.312 42.368 35.456C42.512 35.52 42.576 35.568 42.576 35.648C42.576 35.728 42.512 35.808 42.384 35.904C42.304 35.952 42.16 36.096 42.064 36.336C41.888 36.832 41.616 37.488 41.264 38.224H42.208C43.088 38.224 44.656 38.192 45.92 38.096H45.968C46.064 38.096 46.08 38.128 46.064 38.24C45.872 40.048 46.24 44.912 45.296 46.928C44.736 48.112 43.904 48.736 42.528 48.736ZM34.992 45.216C35.328 45.232 35.968 45.248 36.304 45.248C36.64 45.248 37.312 45.232 37.664 45.216C37.68 44.208 37.68 43.088 37.68 42.368C37.36 42.352 36.704 42.336 36.304 42.336C35.92 42.336 35.312 42.352 34.992 42.368V45.216ZM34.992 41.504C35.328 41.52 35.968 41.536 36.304 41.536C36.656 41.536 37.344 41.504 37.68 41.504C37.68 40.48 37.664 39.184 37.664 38.928H36.304C35.776 38.928 35.008 38.944 35.008 38.944C35.008 39.008 34.992 40.464 34.992 41.504ZM39.936 41.792C40.032 41.696 40.304 41.392 40.352 41.328C40.432 41.264 40.448 41.248 40.56 41.312C41.04 41.568 42.4 42.4 43.264 43.248C43.296 43.28 43.328 43.312 43.328 43.36C43.328 43.392 43.312 43.44 43.264 43.488C43.232 43.536 42.88 43.936 42.768 44.032C42.72 44.08 42.688 44.096 42.64 44.096C42.608 44.096 42.56 44.08 42.512 44.016C41.744 43.184 40.432 42.272 39.968 42C39.84 41.92 39.872 41.872 39.936 41.792ZM55.888 48.032C55.376 48.032 54.864 47.92 54.416 47.712C53.616 47.312 53.168 46.672 53.168 46.064C53.168 45.504 53.536 44.992 54.304 44.736C54.72 44.608 55.2 44.544 55.696 44.544C56.288 44.544 56.928 44.624 57.552 44.768C57.44 44.032 57.104 43.152 57.104 42.384C57.104 40.912 58.496 40.272 59.648 39.808C59.76 39.744 59.792 39.696 59.696 39.616C59.296 39.344 58.096 39.024 57.456 38.96C57.376 38.944 57.312 38.88 57.36 38.8C57.424 38.656 57.568 38.384 57.696 38.24C57.744 38.176 57.824 38.176 57.888 38.176C59.216 38.352 61.056 39.024 61.792 39.632C61.856 39.68 61.872 39.712 61.84 39.792C61.808 39.904 61.712 40.16 61.6 40.304C61.568 40.384 61.488 40.4 61.376 40.4C61.248 40.384 61.104 40.368 60.976 40.368C60.736 40.368 60.496 40.4 60.32 40.448C58.896 40.816 58 41.36 58 42.416C58 42.528 58.016 42.656 58.032 42.784C58.16 43.536 58.496 44.384 58.592 45.072C59.792 45.472 60.896 46.032 61.616 46.576C61.712 46.64 61.744 46.72 61.696 46.816C61.616 47.008 61.424 47.344 61.264 47.552C61.216 47.616 61.136 47.68 61.056 47.6C60.48 47.056 59.568 46.496 58.544 46.064C58.384 46.672 57.984 47.312 57.312 47.696C56.912 47.92 56.4 48.032 55.888 48.032ZM50.56 45.12C51.296 43.952 52.832 41.216 53.696 39.152C52.768 39.344 51.824 39.456 50.976 39.472C50.912 39.472 50.864 39.424 50.832 39.376C50.784 39.264 50.688 38.672 50.672 38.528V38.496C50.672 38.432 50.704 38.4 50.784 38.416C50.992 38.448 51.216 38.448 51.456 38.448C52.224 38.448 53.12 38.336 54 38.16C54.128 37.68 54.24 37.136 54.24 36.544C54.24 36.416 54.24 36.288 54.224 36.16C54.224 36.064 54.224 36.048 54.272 36.048C54.48 36.048 55.088 36.128 55.344 36.192C55.504 36.224 55.568 36.272 55.568 36.336C55.568 36.448 55.344 36.608 55.312 36.768C55.232 37.2 55.136 37.568 55.024 37.92C55.68 37.744 56.256 37.568 56.688 37.392C56.704 37.392 56.72 37.376 56.736 37.376C56.784 37.376 56.816 37.424 56.832 37.488C56.848 37.648 56.912 37.984 56.912 38.16C56.912 38.224 56.896 38.32 56.784 38.352C56.176 38.544 55.504 38.736 54.8 38.912C53.936 41.008 52.512 43.744 51.68 45.44C51.648 45.504 51.616 45.504 51.536 45.504C51.312 45.504 50.816 45.344 50.64 45.28C50.576 45.248 50.512 45.184 50.56 45.12ZM54.144 46.112C54.144 46.384 54.4 46.704 54.8 46.896C55.104 47.056 55.472 47.12 55.808 47.12C56.176 47.12 56.512 47.04 56.768 46.864C57.216 46.56 57.456 46.16 57.552 45.712C56.928 45.536 56.288 45.424 55.712 45.424C55.328 45.424 54.976 45.472 54.64 45.568C54.304 45.68 54.144 45.888 54.144 46.112ZM66.352 49.024C66.272 49.024 66.128 49.008 66.096 48.928C65.952 48.656 65.664 48.352 65.472 48.144C65.408 48.08 65.392 48.048 65.392 48.016C65.392 47.984 65.456 47.968 65.536 47.984C65.952 48.016 66.336 48.016 66.704 48.016C69.344 48.016 70.96 47.392 71.952 46.544C71.2 46.368 70.464 46.272 69.776 46.24C69.696 46.384 69.616 46.56 69.536 46.736C69.504 46.784 69.456 46.816 69.392 46.816C69.12 46.816 68.72 46.768 68.464 46.72C68.368 46.704 68.336 46.656 68.384 46.592C69.008 45.648 69.616 44.512 69.92 43.872V43.856C68.688 43.856 67.344 43.888 65.456 43.952H65.408C65.344 43.952 65.312 43.92 65.312 43.84C65.296 43.664 65.296 43.248 65.312 43.072C65.312 42.96 65.328 42.944 65.456 42.944C67.536 43.024 69.008 43.056 70.272 43.072C70.496 42.528 70.688 41.968 70.736 41.488C70.736 41.408 70.752 41.376 70.816 41.376C70.992 41.376 71.52 41.44 71.952 41.584C72.064 41.632 72.112 41.68 72.112 41.728C72.112 41.808 71.984 41.904 71.872 41.968C71.712 42.08 71.68 42.192 71.568 42.416C71.488 42.624 71.392 42.832 71.28 43.072H71.984C73.84 43.072 75.584 43.072 78.592 42.944C78.704 42.944 78.72 42.992 78.72 43.072C78.736 43.168 78.752 43.312 78.752 43.456C78.752 43.616 78.736 43.76 78.72 43.856C78.72 43.936 78.672 43.968 78.608 43.952C76.928 43.904 75.568 43.872 74.368 43.856C74.432 43.888 74.496 43.904 74.56 43.92C74.688 43.952 74.736 44 74.736 44.048C74.736 44.128 74.64 44.208 74.544 44.256C74.4 44.352 74.368 44.48 74.208 44.848C74.032 45.248 73.824 45.664 73.552 46.08C74.992 46.496 76.464 47.136 77.648 48.064C77.68 48.096 77.712 48.128 77.712 48.176C77.712 48.208 77.696 48.256 77.648 48.32C77.552 48.48 77.248 48.816 77.104 48.928C77.056 48.96 77.024 48.976 76.992 48.976C76.944 48.976 76.912 48.96 76.864 48.928C75.792 47.936 74.4 47.248 72.976 46.8C71.856 47.968 69.952 48.944 66.352 49.024ZM65.792 36.432C65.776 36.256 65.776 35.84 65.792 35.68C65.808 35.552 65.824 35.536 65.952 35.552C68.304 35.648 69.696 35.664 71.008 35.664H71.984C73.776 35.664 75.104 35.664 78.032 35.552H78.064C78.144 35.552 78.16 35.6 78.16 35.68C78.176 35.856 78.176 36.272 78.16 36.448C78.16 36.528 78.112 36.56 78.032 36.56C76.368 36.496 75.136 36.48 74.064 36.464V36.496C74.064 36.528 74.032 36.592 73.952 36.656C73.872 36.704 73.856 36.816 73.84 36.912V37.872C74.864 37.872 75.952 37.84 76.704 37.792C76.832 37.792 76.864 37.872 76.864 37.936C76.816 38.72 76.784 39.184 76.784 39.76C76.784 40.384 76.816 40.752 76.896 41.632C76.896 41.696 76.832 41.776 76.736 41.776C76.48 41.792 76.144 41.792 75.952 41.776C75.84 41.776 75.792 41.728 75.792 41.648C75.792 41.536 75.808 41.44 75.808 41.344C75.024 41.328 72.944 41.312 71.904 41.312C70.896 41.312 69.008 41.328 68.16 41.344C68.16 41.472 68.176 41.6 68.176 41.744C68.176 41.824 68.144 41.856 68.032 41.872C67.808 41.888 67.392 41.888 67.2 41.872C67.088 41.856 67.056 41.808 67.056 41.76C67.168 40.912 67.184 40.48 67.184 39.76C67.184 38.992 67.152 38.752 67.088 37.92C67.088 37.856 67.136 37.808 67.232 37.808C67.968 37.84 69.072 37.872 70.096 37.872C70.096 37.344 70.08 36.848 70.08 36.464C68.976 36.464 67.776 36.496 65.952 36.56C65.856 36.56 65.808 36.528 65.792 36.432ZM68.112 39.776C68.112 39.984 68.128 40.24 68.128 40.56C68.576 40.576 69.328 40.576 70.08 40.592C70.096 39.952 70.096 39.264 70.096 38.624C69.088 38.64 68.144 38.64 68.144 38.64C68.144 38.64 68.112 39.152 68.112 39.776ZM70.144 45.504C70.88 45.536 71.728 45.648 72.608 45.84C72.88 45.456 73.072 45.072 73.216 44.672C73.312 44.416 73.392 44.128 73.424 43.856H70.928C70.88 43.952 70.848 44.048 70.8 44.144C70.56 44.672 70.384 45.04 70.144 45.504ZM70.992 40.592H72.928C72.944 39.952 72.944 39.264 72.944 38.624H70.992V40.592ZM70.992 37.888H72.944C72.944 37.344 72.928 36.848 72.928 36.464H71.216V36.496C71.216 36.528 71.184 36.592 71.104 36.656C71.024 36.704 71.008 36.816 70.992 36.912V37.888ZM73.84 40.576C74.656 40.576 75.44 40.56 75.84 40.56C75.856 40.24 75.856 40 75.856 39.792C75.856 39.152 75.824 38.64 75.824 38.64C75.824 38.64 74.864 38.64 73.84 38.624V40.576ZM87.92 49.04C87.76 49.04 87.632 49.04 87.552 49.024C87.472 49.008 87.44 48.976 87.456 48.896C87.504 48.176 87.536 47.12 87.536 46.208C87.536 45.84 87.536 45.504 87.52 45.216C85.6 45.376 83.68 45.552 82.912 45.6C82.72 45.616 82.624 45.76 82.512 45.76C82.464 45.76 82.416 45.728 82.368 45.648C82.24 45.472 81.984 45.104 81.856 44.752C81.856 44.736 81.84 44.72 81.84 44.704C81.84 44.656 81.872 44.656 81.92 44.656C82.144 44.656 82.4 44.672 82.672 44.672C83.552 44.672 84.64 44.624 85.776 44.576C85.952 44.464 86.144 44.32 86.368 44.176C85.568 43.648 84.32 43.104 83.712 42.864C83.632 42.832 83.6 42.8 83.664 42.72C83.744 42.608 83.92 42.336 84.016 42.24C84.064 42.192 84.08 42.176 84.16 42.208C84.416 42.304 84.848 42.48 85.328 42.704C85.824 42.224 86.368 41.488 86.672 40.96C85.328 40.96 83.984 40.976 81.776 41.056C81.68 41.056 81.616 41.024 81.616 40.944C81.6 40.784 81.6 40.384 81.616 40.256C81.632 40.144 81.648 40.128 81.776 40.128C84.496 40.224 86.032 40.24 87.52 40.24V39.088C86.384 39.088 85.408 39.104 83.52 39.168H83.488C83.424 39.168 83.392 39.12 83.392 39.072C83.376 38.928 83.376 38.56 83.392 38.416C83.392 38.336 83.408 38.304 83.52 38.32C85.328 38.384 86.464 38.4 87.52 38.4V37.328C86.16 37.328 84.8 37.344 82.688 37.408C82.576 37.408 82.544 37.392 82.528 37.312C82.512 37.168 82.512 36.768 82.528 36.624C82.544 36.528 82.544 36.496 82.672 36.512C84.736 36.592 86.256 36.608 87.504 36.608C87.488 35.936 87.44 35.392 87.344 34.944V34.88C87.344 34.832 87.36 34.816 87.408 34.816C87.616 34.816 88.24 34.88 88.672 35.024C88.784 35.056 88.816 35.104 88.816 35.168C88.816 35.264 88.688 35.408 88.608 35.584C88.512 35.808 88.48 35.984 88.448 36.608C89.84 36.608 91.216 36.592 93.232 36.512C93.328 36.512 93.344 36.56 93.36 36.624C93.376 36.784 93.376 37.168 93.36 37.312C93.344 37.376 93.312 37.408 93.248 37.408C91.264 37.36 89.808 37.328 88.448 37.328V38.4C89.536 38.4 90.352 38.4 92.144 38.32C92.24 38.32 92.256 38.352 92.272 38.432C92.288 38.576 92.288 38.944 92.272 39.088C92.256 39.152 92.208 39.184 92.144 39.168C90.32 39.12 89.488 39.088 88.448 39.088V40.24C90.08 40.24 91.616 40.224 94.336 40.128C94.432 40.128 94.448 40.176 94.448 40.24C94.464 40.32 94.48 40.464 94.48 40.592C94.48 40.736 94.464 40.88 94.448 40.96C94.448 41.024 94.4 41.056 94.336 41.056C91.488 40.96 89.744 40.96 88.016 40.96H87.856L87.872 40.976C87.952 41.04 87.984 41.088 87.984 41.12C87.984 41.216 87.824 41.248 87.664 41.328C87.536 41.392 87.456 41.488 87.376 41.568C87.04 41.984 86.56 42.56 86.064 43.056C86.448 43.264 86.816 43.456 87.088 43.648C88.096 42.88 89.152 41.952 89.616 41.344C89.648 41.296 89.664 41.248 89.744 41.296C89.936 41.392 90.384 41.664 90.576 41.84C90.656 41.904 90.688 41.968 90.688 42C90.688 42.08 90.528 42.112 90.368 42.16C90.24 42.192 90.128 42.24 90.016 42.336C89.376 42.864 88.192 43.776 87.184 44.48C88.88 44.384 90.544 44.24 91.616 44.144C91.072 43.76 90.592 43.44 90.336 43.296C90.272 43.248 90.272 43.2 90.336 43.136C90.432 43.04 90.688 42.8 90.768 42.752C90.848 42.688 90.88 42.704 90.944 42.752C91.472 43.04 92.944 43.968 94.064 44.976C94.128 45.04 94.096 45.104 94.048 45.168C93.968 45.264 93.616 45.568 93.488 45.648C93.456 45.664 93.44 45.68 93.408 45.68C93.36 45.68 93.328 45.648 93.28 45.6C93.008 45.312 92.704 45.024 92.384 44.768C92.352 44.784 92.32 44.8 92.272 44.8L88.656 45.12L88.608 45.152C88.512 45.216 88.512 45.264 88.512 45.456C88.496 45.744 88.496 46.08 88.496 46.448C88.496 47.232 88.528 48.128 88.576 48.912C88.576 48.992 88.56 49.024 88.48 49.024C88.352 49.04 88.128 49.04 87.92 49.04ZM81.44 47.936C81.376 47.904 81.36 47.84 81.456 47.824C83.52 47.424 84.864 46.56 85.44 45.904C85.52 45.808 85.472 45.808 85.6 45.872C85.744 45.952 86.16 46.24 86.336 46.448C86.384 46.496 86.4 46.544 86.4 46.56C86.4 46.64 86.288 46.656 86.144 46.688C85.984 46.704 85.936 46.736 85.808 46.848C85.2 47.328 84.112 48.128 82.336 48.64C82.304 48.64 82.272 48.656 82.24 48.656C82.192 48.656 82.144 48.64 82.112 48.592C81.952 48.336 81.616 48.08 81.44 47.936ZM89.712 46.256C89.648 46.192 89.648 46.16 89.712 46.128C89.808 46.08 90.272 45.824 90.352 45.792C90.432 45.776 90.432 45.776 90.512 45.84C90.96 46.224 92.256 47.168 94.096 47.6C94.176 47.632 94.24 47.664 94.096 47.744C93.808 47.92 93.472 48.112 93.248 48.336C93.184 48.384 93.136 48.4 93.04 48.352C91.536 47.776 90.208 46.784 89.712 46.256ZM104.704 48.48C104.352 48.48 104.016 48.448 103.728 48.4C102.128 48.096 101.088 47.136 101.088 45.984C101.088 44.864 102.064 43.536 104.448 42.448C104.448 42.352 104.432 42.256 104.432 42.176C104.352 41.296 103.872 40.928 103.264 40.928C102.528 40.928 101.584 41.472 100.928 42.272C100.464 42.832 100.048 43.504 99.712 44.032C99.664 44.112 99.6 44.144 99.504 44.144C99.312 44.144 98.816 43.984 98.608 43.92C98.496 43.888 98.464 43.792 98.528 43.712C99.744 42.256 101.04 40.688 102.08 38.784C101.616 38.816 101.168 38.832 100.752 38.832C100.288 38.832 99.872 38.816 99.504 38.768C99.44 38.752 99.392 38.688 99.36 38.624C99.328 38.496 99.296 37.936 99.312 37.776C99.312 37.696 99.328 37.68 99.44 37.712C99.872 37.824 100.464 37.888 101.152 37.888C101.568 37.888 102 37.872 102.464 37.824C102.704 37.264 102.896 36.752 103.04 36.16C103.072 36.064 103.072 36.032 103.136 36.032C103.296 36.032 103.952 36.08 104.224 36.176C104.336 36.208 104.384 36.256 104.384 36.304C104.384 36.448 104.08 36.608 103.968 36.832C103.824 37.152 103.696 37.424 103.552 37.712C104.432 37.584 105.312 37.408 106.048 37.2C106.08 37.184 106.096 37.184 106.128 37.184C106.176 37.184 106.208 37.216 106.224 37.28C106.24 37.376 106.272 37.856 106.304 38.064C106.304 38.112 106.304 38.208 106.192 38.224C105.248 38.416 104.176 38.576 103.152 38.688C102.656 39.568 102.352 40.016 101.936 40.576C101.84 40.704 101.888 40.672 102 40.624C102.592 40.336 103.136 40.192 103.616 40.192C104.56 40.192 105.232 40.784 105.376 42.032V42.064C106.512 41.616 108.512 40.88 109.024 40.56C109.072 40.528 109.152 40.528 109.2 40.576C109.328 40.752 109.696 41.248 109.744 41.456C109.808 41.712 109.504 41.632 109.168 41.728C108.144 42.048 106.464 42.656 105.424 43.056H105.408C105.392 43.84 105.328 44.816 105.232 45.552C105.216 45.712 105.184 45.744 105.024 45.76C104.768 45.792 104.608 45.792 104.336 45.792H104.288C104.176 45.792 104.16 45.728 104.176 45.648C104.304 44.976 104.384 44.192 104.432 43.504C102.768 44.336 102.096 45.2 102.096 45.92C102.096 46.688 102.848 47.264 103.952 47.424C104.144 47.456 104.368 47.472 104.592 47.472C105.552 47.472 106.736 47.216 107.44 46.864C107.472 46.848 107.504 46.848 107.52 46.848C107.552 46.848 107.584 46.864 107.584 46.944C107.584 47.12 107.52 47.632 107.536 47.824V47.856C107.536 47.952 107.488 48 107.376 48.048C106.8 48.288 105.696 48.48 104.704 48.48ZM118.32 48.24C118.24 48.24 118.192 48.208 118.176 48.128V47.328C118.192 47.216 118.224 47.2 118.304 47.2C118.944 47.248 119.552 47.264 120.128 47.28C120.32 46.176 120.624 43.968 120.848 42.192C120.368 42.208 119.824 42.224 119.232 42.256C119.152 42.256 119.104 42.224 119.104 42.144C119.088 41.984 119.088 41.536 119.104 41.36C119.104 41.248 119.152 41.216 119.232 41.232C119.872 41.264 120.448 41.296 120.96 41.312L121.088 40.288C121.264 38.8 121.36 37.776 121.328 37.12C120.864 37.12 120.32 37.152 119.616 37.2C119.552 37.2 119.472 37.168 119.472 37.072C119.456 36.912 119.456 36.496 119.472 36.288C119.472 36.176 119.52 36.16 119.616 36.176C121.008 36.256 121.792 36.272 122.592 36.272C123.424 36.272 124.288 36.272 125.392 36.192C125.552 36.192 125.552 36.208 125.52 36.352C125.408 36.976 125.136 39.696 125.04 40.864C125.024 40.976 125.024 41.136 125.008 41.312C125.488 41.296 126.032 41.264 126.688 41.232C126.752 41.232 126.8 41.264 126.816 41.344C126.832 41.504 126.832 41.984 126.816 42.16C126.816 42.224 126.736 42.256 126.688 42.256C126.016 42.208 125.44 42.192 124.928 42.176C124.768 43.84 124.528 46.4 124.448 47.312C125.136 47.296 125.936 47.264 126.816 47.2C126.864 47.2 126.912 47.232 126.928 47.328C126.944 47.488 126.944 47.968 126.928 48.144C126.912 48.208 126.864 48.24 126.816 48.24C125.088 48.144 123.664 48.144 122.704 48.144H122.032C121.104 48.144 119.744 48.16 118.32 48.24ZM112.864 47.552C113.52 46.48 114.032 44.816 114.112 43.84C114.128 43.76 114.128 43.696 114.192 43.696C114.368 43.696 114.928 43.84 115.056 43.872C115.168 43.904 115.2 43.936 115.2 43.984C115.2 44.048 115.136 44.128 115.056 44.224C114.96 44.352 114.928 44.416 114.896 44.576C114.72 45.312 114.32 46.768 113.904 47.648C113.888 47.696 113.856 47.744 113.776 47.728C113.568 47.648 113.168 47.648 112.976 47.664C112.848 47.664 112.816 47.632 112.864 47.552ZM113.072 41.968C113.072 41.904 113.104 41.904 113.152 41.904C113.504 41.904 114.032 41.904 114.608 41.872C114.848 41.52 115.168 40.992 115.504 40.416C114.96 39.824 113.728 38.912 113.36 38.672C113.296 38.624 113.264 38.608 113.328 38.528C113.424 38.4 113.6 38.176 113.712 38.08C113.76 38.048 113.776 38.032 113.856 38.08C113.952 38.128 114.096 38.224 114.288 38.352C114.784 37.472 115.424 35.968 115.552 35.216C115.568 35.152 115.552 35.104 115.632 35.104C115.792 35.104 116.304 35.296 116.544 35.44C116.672 35.52 116.72 35.584 116.72 35.632C116.72 35.728 116.624 35.792 116.512 35.888C116.384 35.968 116.32 36.112 116.272 36.224C116.032 36.768 115.344 38.144 114.944 38.816C115.312 39.088 115.696 39.376 115.952 39.632C116.544 38.544 117.072 37.456 117.2 36.976C117.216 36.912 117.216 36.848 117.28 36.848C117.44 36.848 117.92 37.072 118.16 37.232C118.288 37.312 118.336 37.376 118.336 37.44C118.336 37.536 118.24 37.6 118.112 37.68C117.968 37.744 117.936 37.84 117.856 37.968C117.44 38.72 116.288 40.656 115.568 41.792C116.32 41.728 117.088 41.632 117.632 41.568C117.44 41.168 117.248 40.832 117.136 40.656C117.088 40.576 117.072 40.544 117.168 40.496C117.296 40.448 117.552 40.336 117.68 40.304C117.744 40.288 117.76 40.288 117.808 40.352C118.064 40.704 118.752 41.904 118.992 42.624C119.024 42.688 119.04 42.72 118.96 42.768C118.832 42.848 118.56 43.008 118.368 43.088C118.304 43.104 118.24 43.088 118.24 43.024C118.176 42.784 118.064 42.512 117.952 42.24C117.68 42.272 117.248 42.336 116.736 42.416C116.8 42.416 116.832 42.448 116.832 42.496C116.832 42.528 116.8 42.576 116.72 42.64C116.64 42.704 116.624 42.768 116.624 42.864C116.64 44.48 116.64 46.8 116.736 48.736C116.752 48.816 116.736 48.864 116.656 48.864C116.544 48.88 116.352 48.88 116.176 48.88C115.984 48.88 115.808 48.88 115.728 48.864C115.648 48.848 115.616 48.816 115.616 48.72C115.728 47.04 115.76 45.344 115.76 43.712V42.544C114.896 42.672 114.096 42.784 113.872 42.832C113.712 42.864 113.6 42.992 113.504 42.992C113.456 42.992 113.408 42.976 113.36 42.88C113.28 42.688 113.152 42.384 113.088 42.016C113.088 42 113.072 41.968 113.072 41.968ZM117.296 43.808C117.28 43.728 117.264 43.696 117.36 43.664C117.488 43.616 117.776 43.552 117.904 43.536C117.968 43.536 118.016 43.52 118.032 43.584C118.192 44.128 118.656 45.488 119.216 46.352C119.248 46.4 119.264 46.464 119.152 46.48C118.96 46.528 118.656 46.592 118.432 46.688C118.368 46.72 118.32 46.688 118.288 46.624C117.888 45.76 117.456 44.4 117.296 43.808ZM121.152 47.312H123.424C123.536 46.4 123.808 43.808 123.968 42.16H121.76C121.536 44.032 121.248 46.352 121.152 47.312ZM121.872 41.344C122.32 41.36 122.72 41.36 123.056 41.36C123.376 41.36 123.696 41.36 124.048 41.344C124.064 41.168 124.064 41.024 124.08 40.912C124.16 40.064 124.368 37.632 124.4 37.104H122.576C122.544 37.2 122.448 37.328 122.384 37.504C122.272 37.824 122.208 38.32 122 40.192L121.872 41.344ZM133.136 48.928C133.056 48.928 132.992 48.88 132.96 48.784C132.912 48.56 132.64 48.256 132.432 48C132.368 47.92 132.384 47.888 132.496 47.904C132.72 47.936 132.928 47.968 133.136 47.968C133.776 47.968 134.288 47.76 134.304 47.184V45.024C133.856 45.008 132.976 44.992 132.608 44.992C132.256 44.992 131.44 45.008 130.928 45.024C130.688 46.56 130.176 47.84 129.488 48.864C129.44 48.928 129.36 48.96 129.28 48.896C129.12 48.8 128.752 48.816 128.448 48.816C128.352 48.816 128.32 48.736 128.4 48.64C129.52 47.376 130.224 45.232 130.24 42.448V41.92C130.24 41.328 130.224 40.544 130.192 39.824C129.968 40.16 129.744 40.464 129.52 40.72C129.472 40.784 129.36 40.816 129.312 40.768C129.168 40.656 128.784 40.544 128.624 40.464C128.528 40.432 128.512 40.416 128.576 40.352C130.128 39.008 131.28 35.984 131.504 34.992C131.52 34.928 131.552 34.912 131.616 34.928C131.872 34.992 132.304 35.136 132.624 35.328C132.688 35.376 132.72 35.408 132.72 35.456C132.72 35.52 132.64 35.584 132.528 35.648C132.4 35.728 132.256 35.824 132.192 35.968C132.144 36.08 132.08 36.256 131.968 36.496C132.672 36.48 133.136 36.464 133.472 36.464C133.568 36.464 133.68 36.32 133.76 36.32C133.872 36.32 134.368 36.656 134.448 36.736C134.496 36.784 134.528 36.832 134.528 36.88C134.528 36.928 134.48 36.992 134.352 37.056C134.224 37.104 134.144 37.264 134.064 37.392C133.856 37.76 133.52 38.432 133.232 38.96C133.84 38.96 134.544 38.928 135.088 38.896C135.216 38.896 135.248 38.928 135.248 39.056C135.168 40.016 135.152 40.912 135.152 41.6V42.496C135.152 43.152 135.152 46.064 135.216 47.312C135.248 48.256 134.608 48.912 133.136 48.928ZM130.752 38.928C131.264 38.944 131.888 38.96 132.384 38.96C132.64 38.48 132.96 37.744 133.152 37.216C132.752 37.216 132.144 37.232 131.632 37.232C131.376 37.744 131.072 38.352 130.752 38.928ZM130.976 44.256C131.36 44.272 131.904 44.272 132.272 44.288C132.304 43.712 132.304 42.976 132.32 42.272C131.92 42.272 131.376 42.272 131.056 42.288V42.448C131.056 43.056 131.024 43.696 130.976 44.256ZM131.04 39.68C131.04 39.68 131.056 40.656 131.056 41.52C131.376 41.52 131.936 41.536 132.32 41.536C132.304 40.784 132.304 40.08 132.272 39.664C131.744 39.664 131.04 39.68 131.04 39.68ZM133.024 42.272C133.024 42.976 133.024 43.696 133.056 44.272C133.488 44.272 134.048 44.272 134.368 44.256V42.288C134.064 42.272 133.456 42.272 133.024 42.272ZM133.024 41.536C133.456 41.536 134.064 41.52 134.352 41.52V39.68C134.352 39.68 133.728 39.664 133.2 39.664V39.696C133.2 39.728 133.184 39.776 133.12 39.824C133.056 39.872 133.04 39.92 133.04 39.984C133.04 40.384 133.024 40.944 133.024 41.536ZM135.28 39.888C135.2 39.824 135.168 39.776 135.28 39.76C136.88 39.472 138.016 38.336 138.256 37.168C138.304 36.976 138.336 36.736 138.336 36.544L136.368 36.592C136.288 36.592 136.24 36.576 136.24 36.528C136.224 36.432 136.224 35.888 136.24 35.792C136.24 35.728 136.288 35.712 136.352 35.712C137.424 35.76 138.576 35.776 139.04 35.776C139.632 35.776 140.96 35.776 142.144 35.68C142.272 35.68 142.288 35.696 142.272 35.776C142.176 36.448 142.288 38.176 141.888 39.072C141.52 39.84 140.976 40.096 139.952 40.112C139.84 40.112 139.744 40.096 139.712 40C139.648 39.776 139.36 39.488 139.152 39.232C139.072 39.136 139.152 39.152 139.232 39.168C139.536 39.216 139.792 39.232 140 39.232C140.688 39.232 140.896 39.008 141.056 38.608C141.264 38.08 141.264 37.024 141.264 36.512C140.96 36.512 140.208 36.528 139.552 36.528C139.568 36.544 139.568 36.56 139.568 36.576C139.568 36.624 139.52 36.672 139.456 36.72C139.328 36.816 139.296 36.96 139.184 37.328C138.88 38.496 137.808 39.936 136.048 40.48C136.016 40.496 135.984 40.496 135.968 40.496C135.904 40.496 135.872 40.464 135.84 40.4C135.728 40.176 135.424 40 135.28 39.888ZM135.6 44.304C136.4 43.264 136.928 41.648 136.976 40.96C136.992 40.88 136.992 40.848 137.088 40.864C137.168 40.88 137.68 41.04 137.92 41.136C138.032 41.184 138.08 41.248 138.08 41.312C138.08 41.376 138.032 41.44 137.904 41.552C137.808 41.616 137.792 41.584 137.728 41.792C137.648 42.032 137.584 42.272 137.488 42.512C137.984 42.528 138.416 42.528 138.896 42.528C138.864 41.76 138.832 40.944 138.752 40.432V40.4C138.752 40.352 138.784 40.336 138.832 40.336C138.992 40.336 139.552 40.432 139.92 40.56C140.016 40.592 140.064 40.64 140.064 40.704C140.064 40.8 139.968 40.912 139.888 41.056C139.776 41.232 139.776 41.488 139.776 41.744C139.76 41.968 139.76 42.24 139.76 42.528C140.528 42.528 141.152 42.496 142.272 42.416C142.352 42.416 142.4 42.464 142.4 42.528C142.416 42.672 142.416 43.104 142.4 43.264C142.4 43.328 142.32 43.36 142.272 43.344C141.168 43.28 140.512 43.264 139.744 43.248V44.352C139.744 44.576 139.744 44.8 139.76 45.024C140.656 45.008 141.632 44.976 142.8 44.912C142.896 44.912 142.928 44.944 142.944 45.024V45.776C142.928 45.84 142.864 45.872 142.8 45.856C141.648 45.792 140.704 45.776 139.76 45.76C139.776 46.88 139.824 47.952 139.856 48.832C139.856 48.896 139.824 48.944 139.744 48.944C139.504 48.96 139.136 48.96 138.912 48.944C138.816 48.928 138.8 48.88 138.8 48.816C138.848 47.728 138.88 46.768 138.896 45.776C137.968 45.776 136.912 45.808 135.856 45.856H135.824C135.776 45.856 135.728 45.824 135.712 45.776C135.696 45.632 135.696 45.168 135.712 45.024C135.728 44.944 135.76 44.912 135.856 44.912C136.896 44.976 137.952 45.008 138.896 45.024V43.248C138.336 43.248 137.824 43.264 137.2 43.296C137.008 43.744 136.8 44.16 136.56 44.528C136.528 44.592 136.448 44.608 136.368 44.576C136.096 44.48 136 44.432 135.696 44.4C135.584 44.384 135.536 44.384 135.6 44.304ZM153.264 48.528C153.184 48.528 153.136 48.48 153.088 48.384C152.32 46.784 150.784 44.656 149.568 43.328C149.168 42.896 148.944 42.512 148.944 42.096C148.944 41.76 149.088 41.408 149.392 40.992C150.16 39.984 152.016 37.712 152.64 36.16C152.672 36.096 152.688 36.032 152.816 36.096C153.04 36.224 153.616 36.528 153.792 36.672C153.904 36.768 153.952 36.832 153.952 36.88C153.952 37.056 153.552 37.136 153.392 37.36C152.576 38.576 150.944 40.656 150.304 41.472C150.128 41.696 150.064 41.888 150.064 42.064C150.064 42.288 150.192 42.496 150.384 42.72C151.504 44 153.472 46.256 154.4 48C154.416 48.048 154.432 48.08 154.432 48.096C154.432 48.176 154.352 48.192 154.272 48.224C154.08 48.304 153.584 48.448 153.44 48.496C153.36 48.512 153.312 48.528 153.264 48.528Z" fill="#E5E5E5"/>
<path d="M2.904 116.536C2.856 116.536 2.784 116.488 2.688 116.392C2.496 116.152 2.04 115.504 1.824 114.976C1.8 114.928 1.8 114.904 1.8 114.88C1.8 114.808 1.896 114.808 2.016 114.808C3.216 114.712 4.944 114.424 6.72 114.064C6.816 112.336 6.84 110.128 6.84 108.232V106C6.84 104.68 6.816 103.576 6.696 102.304C6.696 102.256 6.672 102.208 6.696 102.16C5.568 103 4.296 103.84 2.88 104.584C2.76 104.656 2.592 104.704 2.496 104.584C2.208 104.272 1.584 104.032 1.176 103.864C1.008 103.792 0.96 103.744 0.96 103.696C0.96 103.648 1.056 103.6 1.176 103.552C5.688 101.896 9.024 98.44 10.536 96.496C10.896 96.016 11.208 95.536 11.376 95.056C11.424 94.912 11.472 94.816 11.664 94.912C11.976 95.032 12.768 95.296 13.176 95.608C13.296 95.704 13.344 95.776 13.344 95.848C13.344 96.016 13.08 96.136 12.84 96.184C12.816 96.184 12.792 96.208 12.768 96.208C14.736 98.44 18.528 101.224 22.848 102.496C22.992 102.544 23.04 102.568 23.04 102.616C23.04 102.664 22.992 102.712 22.872 102.784C22.416 103.072 21.84 103.312 21.504 103.72C21.384 103.84 21.24 103.864 21.12 103.792C17.448 102.208 13.752 99.376 11.88 97.144C10.848 98.392 9.192 100.264 6.792 102.088H6.96C8.736 102.16 9.984 102.16 11.136 102.16V101.56C11.136 101.08 11.112 100.432 10.968 99.688C10.944 99.568 10.968 99.544 11.112 99.544C11.448 99.568 12.312 99.688 12.816 99.808C12.96 99.856 13.008 99.904 13.008 100C13.008 100.168 12.72 100.456 12.648 100.768C12.576 100.984 12.552 101.224 12.552 101.584V102.16C13.848 102.16 15.336 102.136 16.848 102.064H16.92C17.088 102.064 17.136 102.16 17.112 102.304C17.016 103.384 17.016 104.632 17.016 106.264C17.016 107.776 17.04 108.496 17.16 109.648V109.72C17.16 109.84 17.136 109.888 16.872 109.912C16.632 109.936 16.176 109.96 15.912 109.936C15.72 109.912 15.576 109.912 15.576 109.744C15.576 109.576 15.6 109.432 15.6 109.264C14.904 109.264 13.512 109.24 12.504 109.24C12.912 110.152 13.464 110.992 14.184 111.76C16.296 111.016 18.096 109.864 18.648 109.36C18.744 109.288 18.792 109.312 18.888 109.384C19.008 109.48 19.728 110.176 20.016 110.632C20.04 110.68 20.064 110.728 20.064 110.752C20.064 110.896 19.872 110.968 19.632 110.968C19.2 110.968 19.128 110.968 18.648 111.16C18.048 111.424 16.632 112.072 15.168 112.624C16.944 114.016 19.488 114.928 22.944 115.048C23.088 115.048 23.136 115.072 23.136 115.12C23.136 115.168 23.088 115.24 22.968 115.312C22.536 115.6 21.96 116.008 21.648 116.416C21.528 116.584 21.432 116.56 21.24 116.536C17.856 116.008 15.216 114.736 13.344 112.816C13.272 113.056 13.224 113.416 13.224 113.68C13.224 113.8 13.2 113.896 13.008 113.944C11.976 114.232 5.16 115.864 3.48 116.224C3.192 116.272 3.072 116.536 2.904 116.536ZM8.232 109.264C8.232 110.608 8.232 112.168 8.256 113.752C10.416 113.272 12.384 112.768 13.128 112.6C12.24 111.616 11.544 110.512 11.016 109.24C10.032 109.24 8.856 109.264 8.232 109.264ZM8.232 108.136L11.88 108.16L15.624 108.136C15.648 107.536 15.648 106.888 15.648 106.264L11.928 106.24L8.232 106.264V108.136ZM8.256 105.112L11.928 105.136L15.648 105.112C15.648 104.104 15.624 103.456 15.624 103.288C15.624 103.288 13.08 103.264 11.928 103.264C10.752 103.264 8.28 103.288 8.28 103.288C8.28 103.288 8.256 104.056 8.256 105.112ZM36.816 114.568C36.624 114.568 36.432 114.52 36.288 114.304C36.072 113.944 35.76 113.704 35.496 113.464C35.4 113.368 35.352 113.32 35.352 113.272C35.352 113.2 35.448 113.176 35.592 113.176C40.896 113.272 44.184 110.296 44.184 107.104C44.184 105.928 43.752 104.728 42.816 103.648C41.88 102.544 40.416 101.824 38.832 101.56C38.808 101.56 38.808 101.56 38.808 101.584H38.712C38.568 101.584 38.472 101.632 38.4 101.824C37.848 103.336 35.184 109.384 32.88 112.696C32.568 113.152 32.208 113.32 31.824 113.32C31.56 113.32 31.296 113.248 31.032 113.104C29.352 112.24 28.416 110.392 28.416 108.304C28.416 106.072 29.52 103.576 31.968 101.824C33.504 100.744 35.52 100.192 37.536 100.192C39.984 100.192 42.432 101.008 44.016 102.688C45.216 103.984 45.792 105.544 45.792 107.128C45.792 110.656 42.816 114.208 36.936 114.568H36.816ZM29.928 108.184C29.928 109.504 30.432 110.656 31.296 111.304C31.416 111.376 31.512 111.424 31.608 111.424C31.728 111.424 31.848 111.352 31.944 111.232C33.792 108.664 36.192 103.24 36.768 101.488C35.376 101.608 34.008 102.088 32.808 102.952C30.792 104.44 29.928 106.456 29.928 108.184ZM56.04 116.104C55.896 116.08 55.848 116.032 55.848 115.888C56.088 111.808 56.088 108.04 56.088 104.8V103.912C54.96 103.936 53.712 103.984 52.176 104.032C52.032 104.032 51.936 104.008 51.936 103.864C51.912 103.6 51.912 102.904 51.936 102.64C51.936 102.472 51.984 102.448 52.176 102.448C53.736 102.52 54.984 102.544 56.088 102.568V101.44C56.088 100 56.064 98.56 55.92 97.504V97.432C55.92 97.336 55.968 97.312 56.088 97.312C56.448 97.36 57.312 97.432 57.84 97.6C57.984 97.648 58.032 97.72 58.032 97.816C58.032 97.984 57.912 98.176 57.816 98.392C57.72 98.56 57.6 98.776 57.576 99.496C57.552 100.216 57.552 101.44 57.528 102.616H61.416V102.496C61.416 101.656 61.44 100.84 61.44 100.024C61.44 98.8 61.392 97.624 61.224 96.472V96.424C61.224 96.304 61.296 96.304 61.416 96.328C61.704 96.352 62.568 96.448 63.096 96.616C63.24 96.664 63.288 96.736 63.288 96.808C63.288 96.952 63.192 97.144 63.096 97.336C62.952 97.648 62.88 97.864 62.856 98.608C62.832 99.496 62.808 101.296 62.784 102.496V102.616H66.6V102.496C66.6 101.608 66.624 100.768 66.624 99.952C66.624 98.824 66.576 97.72 66.432 96.616V96.568C66.432 96.496 66.456 96.448 66.528 96.448C66.84 96.448 67.656 96.568 68.232 96.76C68.4 96.808 68.472 96.88 68.472 97C68.472 97.12 68.352 97.288 68.256 97.528C68.16 97.744 68.064 98.032 68.04 98.728C68.016 99.664 67.968 101.296 67.968 102.496V102.592C69.36 102.568 70.872 102.52 72.72 102.448C72.888 102.448 72.912 102.496 72.912 102.64C72.936 102.928 72.936 103.6 72.912 103.888C72.912 103.984 72.84 104.032 72.72 104.032C70.92 103.96 69.384 103.936 67.968 103.912C67.992 106.36 68.064 108.472 68.136 110.824C68.136 110.944 68.088 110.992 67.968 110.992C67.8 111.016 67.56 111.016 67.32 111.016C67.104 111.016 66.864 111.016 66.72 110.992C66.576 110.992 66.504 110.944 66.528 110.824C66.528 110.488 66.552 110.2 66.552 109.888C66 109.888 65.328 109.864 64.824 109.864L62.88 109.888C62.88 110.248 62.904 110.608 62.904 110.968C62.904 111.088 62.856 111.136 62.736 111.136C62.568 111.16 62.328 111.16 62.088 111.16C61.848 111.16 61.608 111.16 61.464 111.136C61.32 111.136 61.272 111.088 61.272 110.968C61.392 107.824 61.416 106.144 61.416 103.864C59.976 103.864 58.776 103.864 57.528 103.888V107.032C57.528 109.168 57.552 111.616 57.576 113.704C59.04 113.752 59.856 113.776 61.488 113.776C64.824 113.776 66.768 113.776 71.136 113.584C71.304 113.584 71.328 113.656 71.328 113.8C71.352 114.088 71.352 114.808 71.328 115.072C71.328 115.192 71.256 115.24 71.136 115.24C66.84 115.072 64.728 115.072 61.488 115.072C59.592 115.072 58.968 115.096 57.624 115.12C57.624 115.408 57.648 115.672 57.648 115.912C57.648 116.032 57.6 116.08 57.48 116.104C57.144 116.128 56.328 116.128 56.04 116.104ZM62.784 103.864L62.856 108.712C63.432 108.736 64.248 108.736 64.824 108.736C65.328 108.736 66.024 108.736 66.576 108.712C66.6 107.776 66.6 106.984 66.6 106.216V103.888C65.328 103.864 64.104 103.864 62.784 103.864ZM79.056 116.584C78.936 116.632 78.864 116.608 78.792 116.512C78.456 115.96 77.856 115.624 77.544 115.384C77.424 115.264 77.472 115.216 77.592 115.192C82.392 114.64 84.072 112 84.12 109.384C84.12 108.928 84.12 108.352 84.048 107.8C82.272 108.928 80.16 110.032 78.264 110.632C78.12 110.68 77.976 110.752 77.904 110.632C77.616 110.224 76.92 109.816 76.632 109.624C76.464 109.528 76.44 109.432 76.656 109.384C80.664 108.472 84.288 106.432 86.136 104.656L86.544 104.248C84.984 104.248 83.016 104.272 82.032 104.272C82.032 104.536 82.032 104.776 82.056 105.04C82.056 105.184 82.008 105.208 81.84 105.208C81.504 105.232 80.952 105.232 80.664 105.208C80.52 105.208 80.448 105.136 80.448 105.04C80.616 103.384 80.64 102.064 80.64 100.648C80.64 99.16 80.616 98.2 80.52 96.496V96.472C80.52 96.376 80.592 96.304 80.736 96.328C82.608 96.4 85.608 96.424 87.48 96.424C89.544 96.424 92.16 96.4 94.056 96.304H94.104C94.272 96.304 94.32 96.424 94.32 96.496C94.224 98.128 94.2 99.328 94.2 100.624C94.2 101.848 94.272 103.096 94.392 104.8V104.824C94.392 104.92 94.296 105.016 94.176 105.016C93.816 105.04 93.312 105.04 93.024 105.016C92.88 104.992 92.784 104.944 92.784 104.8C92.808 104.632 92.808 104.464 92.808 104.296C91.968 104.272 90.12 104.248 88.56 104.248C88.656 104.32 88.68 104.392 88.68 104.44C88.68 104.512 88.584 104.56 88.416 104.584C90.984 106.384 93.912 107.968 98.496 108.784C98.664 108.832 98.712 108.904 98.544 109.048C98.232 109.312 97.776 109.672 97.464 110.128C97.368 110.248 97.272 110.272 97.152 110.224C93.456 109.216 90.096 107.248 87.408 105.256L87.336 105.328C86.712 105.952 85.704 106.696 84.552 107.464C84.912 107.512 85.392 107.584 85.8 107.68C85.92 107.728 85.968 107.776 85.968 107.848C85.968 107.968 85.872 108.136 85.776 108.304C85.608 108.616 85.56 108.736 85.536 109.48C85.488 112.696 83.616 115.552 79.056 116.584ZM81.936 100.912C81.96 101.416 81.984 102.208 82.008 103.12C83.016 103.144 85.08 103.168 86.664 103.168C86.688 102.568 86.688 101.632 86.688 100.864C85.056 100.888 82.92 100.888 81.936 100.912ZM81.936 99.736C82.944 99.76 85.08 99.784 86.688 99.784C86.688 98.944 86.664 98.056 86.664 97.552C84.72 97.552 81.984 97.576 81.984 97.576L81.936 99.736ZM88.032 100.864C88.032 101.632 88.056 102.544 88.056 103.168C89.736 103.168 91.968 103.12 92.856 103.12C92.88 102.256 92.904 101.416 92.904 100.912C92.016 100.888 89.736 100.888 88.032 100.864ZM88.032 99.784C89.712 99.784 92.016 99.76 92.904 99.736L92.856 97.576C92.856 97.576 90.288 97.552 88.368 97.552C88.368 97.6 88.32 97.696 88.2 97.768C88.08 97.888 88.056 98.008 88.056 98.176C88.032 98.608 88.032 99.208 88.032 99.784ZM89.304 107.608V107.512C89.304 107.44 89.328 107.44 89.472 107.44C89.832 107.488 90.552 107.56 91.104 107.728C91.272 107.776 91.344 107.824 91.344 107.896C91.344 107.992 91.248 108.112 91.128 108.256C90.96 108.472 90.936 109.24 90.936 110.176V111.328C90.936 112.864 91.008 114.328 91.104 116.128C91.104 116.248 91.032 116.272 90.936 116.296C90.576 116.32 89.904 116.32 89.616 116.296C89.448 116.272 89.4 116.248 89.424 116.128C89.496 114.808 89.496 113.776 89.496 112.792V111.328C89.496 110.128 89.52 108.568 89.304 107.608ZM122.016 112.408C121.944 112.408 121.896 112.408 121.8 112.36C118.152 110.872 112.128 105.928 110.736 105.04C110.352 104.8 110.016 104.632 109.656 104.632C109.344 104.632 109.032 104.776 108.696 105.064C107.88 105.808 106.032 107.728 105.6 108.256C105.312 108.616 105.264 109.024 104.952 109.024C104.88 109.024 104.76 108.976 104.592 108.88C104.208 108.64 103.68 108.232 103.44 107.968C103.32 107.848 103.344 107.776 103.464 107.704C105.264 106.456 106.464 105.016 107.856 103.768C108.408 103.264 109.008 103.048 109.584 103.048C110.256 103.048 110.928 103.336 111.552 103.744C113.184 104.848 118.944 109.408 122.904 110.824C123.048 110.872 123.12 110.92 123.12 110.992C123.12 111.064 123.072 111.136 123 111.256C122.808 111.544 122.448 112.024 122.208 112.312C122.136 112.384 122.088 112.408 122.016 112.408Z" fill="#E5E5E5"/>
</svg>
