<svg width="198" height="54" viewBox="0 0 198 54" fill="none" xmlns="http://www.w3.org/2000/svg">
<path d="M186.44 19.9963L194.873 26.4365L186.44 32.8767" stroke="#E5E5E5" stroke-width="3" stroke-linecap="round"/>
<path d="M22.816 23.928L21.28 25.304C21.056 24.92 20.832 24.472 20.128 23.544C19.52 23.704 16.416 24.408 15.744 24.568C12.128 25.4 11.84 25.464 10.528 25.72C10.432 26.2 10.368 26.456 10.112 26.456C9.92 26.456 9.92 26.36 9.76 25.944L9.024 24.056C10.464 23.864 10.624 23.832 11.232 23.736V12.568H21.312V19.576H19.104C20.032 20.408 21.824 22.488 22.816 23.928ZM19.424 17.88V16.728H13.152V17.88H19.424ZM19.424 15.32V14.264H13.152V15.32H19.424ZM19.04 22.2C18.08 21.08 17.728 20.824 17.472 20.6L18.624 19.576H13.152V23.416C16.032 22.872 17.472 22.616 19.04 22.2ZM22.592 33.4V32.472H10.208V33.4H22.592ZM22.592 35.608V34.616H10.208V35.608H22.592ZM31.136 30.104L29.984 32.184C27.904 31.928 26.592 31.672 24.544 31.064V36.376C25.152 35.896 25.536 35.512 26.048 35L27.712 36.44C27.808 36.536 27.904 36.632 27.904 36.76C27.904 36.984 27.648 37.016 27.456 37.016C27.296 37.016 27.072 36.984 26.88 36.952C26.368 37.272 25.216 38.008 24.416 38.52C26.56 39.032 28.736 39.608 30.848 40.312L29.824 42.296C24.48 40.312 18.848 38.84 15.392 38.168L16.064 37.048H10.208V38.584C12.288 38.296 13.504 38.072 15.296 37.752L14.624 39.704C14.016 39.8 13.504 39.896 12.672 40.024C9.984 40.376 6.144 40.824 2.88 41.176C2.816 41.432 2.72 41.752 2.464 41.752C2.304 41.752 2.208 41.56 2.144 41.304L1.472 38.936C2.048 38.968 2.912 39.032 4.128 39.032C5.76 39.032 7.072 38.936 8.224 38.808V31.128C6.528 31.768 4.8 32.184 3.008 32.408L1.664 30.296C3.264 30.296 6.336 30.2 9.984 28.632C10.688 28.312 14.624 26.488 16.192 24.824L18.144 25.528C18.496 25.656 18.592 25.688 18.592 25.848C18.592 26.04 18.176 26.136 18.016 26.136C19.488 27.128 20.992 28.088 23.424 28.888C24.832 29.336 27.84 30.104 31.136 30.104ZM24.416 31.032C20.064 29.656 18.112 28.376 16.256 27.096C14.08 28.568 11.456 29.976 8.544 31.032H15.04V28.824L17.12 29.016C17.312 29.048 17.536 29.112 17.536 29.336C17.536 29.496 17.44 29.592 17.12 29.816V31.032H24.416ZM23.712 37.048H18.016C19.136 37.272 21.472 37.848 22.208 38.008C22.816 37.656 23.2 37.4 23.712 37.048ZM31.328 13.368C30.432 14.872 28.064 17.912 27.808 18.232C28.448 18.776 29.088 19.544 29.312 19.832C30.272 20.952 30.976 22.008 30.976 23.544C30.976 26.584 28.032 26.616 26.336 26.52L25.472 24.248C26.592 24.568 26.784 24.632 27.296 24.632C28.736 24.632 29.12 23.8 29.12 23.064C29.12 21.656 27.328 19.896 26.976 19.608C25.984 18.712 25.856 18.616 25.696 18.456C26.304 17.592 27.008 16.536 28.416 14.264H24.992V27.416H23.008V12.568H30.4L31.328 13.368ZM10.88 15.256C10.88 15.48 10.56 15.48 10.08 15.512C9.696 15.96 9.376 16.344 8.8 16.952C6.336 19.672 6.016 19.96 5.088 20.984C6.336 20.792 7.2 20.6 7.968 20.44C8.192 19.704 8.352 18.936 8.512 18.136L10.368 18.968C10.592 19.064 10.752 19.128 10.752 19.288C10.752 19.544 10.528 19.608 10.144 19.736C8.704 24.376 6.624 27.288 2.784 29.08L1.312 27.288C2.08 27.032 3.84 26.456 5.504 24.76C6.528 23.736 7.04 22.712 7.328 22.104C5.344 22.52 3.648 22.872 1.792 23.256C1.6 23.544 1.504 23.768 1.216 23.768C0.992 23.768 0.96 23.544 0.928 23.384L0.576 21.208C0.96 21.208 1.088 21.208 2.432 21.176C2.944 20.696 3.584 20.056 5.184 18.328C3.584 16.504 2.048 15.48 1.376 15.032L2.56 13.432C3.2 13.88 3.648 14.232 4.096 14.616C5.248 13.08 5.792 12.216 6.144 11.576L7.84 12.472C8.032 12.6 8.096 12.728 8.096 12.792C8.096 13.08 7.808 13.08 7.264 13.112C6.848 13.752 5.472 15.736 5.408 15.8C5.792 16.184 6.048 16.504 6.464 16.952C6.88 16.472 8.256 14.904 9.024 13.784L10.656 15C10.752 15.064 10.88 15.16 10.88 15.256ZM51.2 23.96C52.736 23.96 54.08 25.208 54.08 26.84C54.08 28.44 52.768 29.72 51.2 29.72C49.6 29.72 48.352 28.408 48.352 26.84C48.352 25.24 49.632 23.96 51.2 23.96ZM91.456 39H87.936L79.552 27.128L75.776 31V39H72.896V15.64H75.776V27.48L87.072 15.64H90.688L81.472 25.144L91.456 39ZM116.562 15.64L107.954 29.336V39H104.978V29.336L96.3702 15.64H99.7302L106.482 26.712L113.234 15.64H116.562ZM142.885 27.32C142.885 34.808 138.757 39.64 132.773 39.64C126.757 39.64 122.629 34.776 122.629 27.32C122.629 19.896 126.725 15 132.773 15C138.789 15 142.885 19.896 142.885 27.32ZM139.877 27.32C139.877 21.528 137.253 17.4 132.773 17.4C128.293 17.4 125.669 21.496 125.669 27.32C125.669 33.144 128.293 37.24 132.773 37.24C137.285 37.24 139.877 33.08 139.877 27.32ZM169.726 30.552C169.726 35.448 166.494 39.64 160.35 39.64C151.55 39.64 150.75 32.536 150.75 30.552V15.64H153.662V30.968C153.662 33.912 155.39 37.24 160.158 37.24C166.334 37.24 166.814 32.408 166.814 30.968V15.64H169.726V30.552Z" fill="white"/>
<path d="M0 42.2H172.382V43.8H0V42.2Z" fill="white"/>
</svg>
