<svg width="150" height="126" viewBox="0 0 150 126" fill="none" xmlns="http://www.w3.org/2000/svg">
<path d="M8.528 19.688C7.312 19.688 6.08 19.656 5.136 19.576C3.712 19.448 3.344 18.616 3.36 17.752L3.408 13.192C3.408 12.68 3.408 11.944 3.36 11.256C2.912 11.688 2.432 12.088 1.952 12.424C1.888 12.472 1.808 12.52 1.744 12.456C1.52 12.216 1.168 12.088 0.976 12.008C0.864 11.96 0.832 11.928 0.944 11.864C3.376 10.36 5.52 7.72 6.16 6.168C6.192 6.088 6.208 6.056 6.304 6.072C6.56 6.152 6.928 6.312 7.28 6.536C7.36 6.584 7.408 6.648 7.408 6.696C7.408 6.776 7.296 6.856 7.152 6.92C6.976 6.984 6.912 7.032 6.688 7.352L6.256 7.96C7.344 7.96 8.816 7.944 9.184 7.928C9.312 7.928 9.408 7.736 9.52 7.768C9.696 7.832 10.144 8.152 10.224 8.232C10.272 8.28 10.304 8.328 10.304 8.376C10.304 8.424 10.256 8.488 10.128 8.552C10 8.616 9.888 8.744 9.792 8.872C9.552 9.176 8.896 10.056 8.4 10.648C9.664 10.648 11.312 10.632 12.448 10.568C12.608 10.568 12.64 10.616 12.624 10.744C12.544 11.64 12.56 12.2 12.56 12.664C12.56 13.256 12.576 14.552 12.64 15.56V15.64C12.64 15.72 12.608 15.752 12.464 15.768C12.272 15.8 11.968 15.8 11.744 15.784C11.648 15.784 11.552 15.768 11.552 15.64C11.568 15.464 11.568 15.288 11.568 15.096C10.912 15.096 8.704 15.064 7.904 15.064C7.088 15.064 5.024 15.096 4.368 15.096V17.64C4.368 18.2 4.608 18.536 5.312 18.6C6.112 18.664 7.312 18.712 8.544 18.712C9.904 18.712 11.296 18.664 12.32 18.536C13.2 18.424 13.52 17.592 13.536 16.344C13.536 16.248 13.6 16.232 13.68 16.328C13.968 16.664 14.176 16.904 14.56 17.096C14.656 17.128 14.704 17.192 14.672 17.32C14.464 18.68 13.92 19.368 12.512 19.528C11.536 19.64 10.032 19.688 8.528 19.688ZM4.032 10.6C5.024 10.648 6.16 10.648 7.312 10.648C7.776 10.104 8.48 9.16 8.704 8.76C8.208 8.76 6.384 8.776 5.616 8.792C5.168 9.352 4.624 9.992 4.032 10.6ZM4.368 14.248C4.928 14.248 6.48 14.28 7.424 14.28C7.44 13.816 7.44 13.208 7.44 12.696C7.44 11.96 7.424 11.688 7.408 11.432C6.272 11.432 4.992 11.448 4.384 11.448C4.384 11.448 4.384 12.808 4.368 14.248ZM8.368 12.696C8.368 13.208 8.368 13.816 8.384 14.28C9.376 14.28 11.056 14.248 11.584 14.248C11.6 13.64 11.6 13.08 11.6 12.776C11.6 12.344 11.584 11.624 11.584 11.448C11.584 11.448 9.872 11.432 8.656 11.432V11.448C8.656 11.496 8.608 11.56 8.496 11.608C8.416 11.656 8.384 11.704 8.384 11.848C8.384 12.296 8.368 12.216 8.368 12.696ZM20.88 19.88C20.736 19.88 20.608 19.88 20.528 19.864C20.448 19.864 20.416 19.832 20.416 19.752C20.496 18.312 20.528 16.328 20.56 15.048C19.808 16.264 18.8 17.384 17.632 18.28C17.568 18.328 17.52 18.376 17.408 18.296C17.216 18.12 16.736 17.944 16.528 17.88C16.448 17.848 16.4 17.816 16.512 17.752C18.448 16.728 19.888 14.76 20.496 13.752C19.712 13.768 18.768 13.8 17.536 13.864C17.488 13.864 17.424 13.864 17.424 13.784C17.408 13.64 17.408 13.128 17.424 12.984C17.424 12.888 17.472 12.888 17.536 12.888C18.832 12.968 19.776 12.984 20.56 12.984C20.528 12.456 20.496 11.944 20.432 11.448C20.416 11.384 20.432 11.352 20.496 11.352C20.64 11.352 21.296 11.432 21.584 11.56C21.664 11.592 21.696 11.624 21.696 11.656C21.696 11.752 21.568 11.88 21.504 12.088C21.456 12.28 21.424 12.52 21.392 12.984C22.112 12.984 22.992 12.968 24.256 12.888C24.32 12.888 24.368 12.92 24.368 12.984C24.368 13.128 24.384 13.624 24.368 13.784C24.368 13.848 24.304 13.864 24.24 13.864C22.992 13.784 22.128 13.752 21.376 13.752V13.848C21.632 14.248 23.024 15.72 24.624 16.568C24.768 16.648 24.784 16.712 24.672 16.76C24.464 16.872 24.112 17.032 23.92 17.208C23.84 17.288 23.808 17.352 23.696 17.256C22.768 16.552 21.872 15.56 21.376 14.888C21.392 16.296 21.456 18.648 21.504 19.768C21.504 19.832 21.472 19.864 21.392 19.864C21.28 19.88 21.072 19.88 20.88 19.88ZM17.056 7.56C16.96 7.448 17.008 7.448 17.088 7.448C19.744 7.4 22.64 6.68 23.264 6.312C23.36 6.264 23.376 6.232 23.472 6.312C23.6 6.44 23.952 6.76 24.096 6.968C24.144 7.032 24.176 7.096 24.176 7.144C24.176 7.256 24 7.304 23.728 7.288C23.648 7.272 23.424 7.272 23.152 7.368C22.24 7.688 19.68 8.216 17.712 8.376C17.632 8.376 17.552 8.376 17.52 8.28C17.44 8.024 17.216 7.752 17.056 7.56ZM17.488 9.416C17.44 9.352 17.424 9.32 17.504 9.272C17.648 9.192 17.936 9.032 18.08 8.984C18.144 8.968 18.16 8.968 18.224 9.016C18.448 9.256 19.28 10.344 19.536 10.904C19.568 10.968 19.584 11 19.504 11.08C19.392 11.176 19.056 11.384 18.864 11.48C18.816 11.512 18.752 11.496 18.736 11.432C18.48 10.776 17.712 9.672 17.488 9.416ZM19.888 8.872C19.84 8.808 19.824 8.776 19.92 8.728C20.08 8.664 20.384 8.568 20.512 8.536C20.576 8.52 20.592 8.536 20.656 8.6C20.848 8.856 21.456 9.912 21.648 10.488C21.664 10.568 21.68 10.6 21.6 10.664C21.472 10.76 21.104 10.904 20.912 10.968C20.864 10.984 20.8 10.968 20.784 10.904C20.624 10.216 20.064 9.16 19.888 8.872ZM21.952 11.272C22.624 10.312 23.296 8.952 23.52 8.248C23.536 8.168 23.552 8.12 23.584 8.12C23.648 8.12 24.24 8.376 24.56 8.6C24.624 8.648 24.656 8.696 24.656 8.728C24.656 8.792 24.576 8.856 24.464 8.92C24.304 9.016 24.24 9.096 24.16 9.24C23.872 9.72 23.2 10.888 22.8 11.464C22.752 11.528 22.672 11.576 22.576 11.528C22.432 11.448 22.208 11.432 22 11.384C21.936 11.368 21.904 11.336 21.952 11.272ZM23.296 19.128C23.248 19.096 23.184 19.016 23.312 19C27.008 18.424 29.2 16.136 29.92 14.968C29.952 14.888 29.984 14.856 30.032 14.856C30.064 14.856 30.096 14.872 30.16 14.904C30.368 15.032 30.768 15.272 30.992 15.464C31.072 15.528 31.088 15.576 31.088 15.624C31.088 15.704 30.976 15.768 30.816 15.816C30.608 15.88 30.496 16.024 30.336 16.184C29.264 17.368 27.36 19.112 24.528 19.832C24.464 19.848 24.4 19.88 24.352 19.88C24.304 19.88 24.256 19.864 24.224 19.816C24.112 19.624 23.536 19.272 23.296 19.128ZM24.256 10.504C26.4 9.544 28.288 7.608 28.864 6.44C28.928 6.296 28.928 6.28 29.088 6.344C29.328 6.44 29.728 6.632 30 6.84C30.064 6.904 30.096 6.952 30.096 6.984C30.096 7.064 29.984 7.128 29.824 7.192C29.648 7.272 29.6 7.336 29.44 7.512C28.672 8.424 27.312 9.96 25.488 11.032C25.392 11.096 25.296 11.144 25.216 11.064C25.056 10.904 24.528 10.728 24.272 10.648C24.192 10.632 24.128 10.568 24.256 10.504ZM24.416 14.296C26.8 13.576 28.64 11.608 29.184 10.552C29.232 10.456 29.248 10.408 29.296 10.408C29.328 10.408 29.36 10.424 29.424 10.456C29.664 10.584 30.048 10.808 30.304 11C30.368 11.048 30.4 11.096 30.4 11.128C30.4 11.208 30.288 11.256 30.144 11.32C29.936 11.416 29.92 11.432 29.728 11.64C28.96 12.552 27.424 14.12 25.6 14.984C25.552 15 25.488 15.016 25.424 15.016C25.376 15.016 25.328 15 25.296 14.952C25.152 14.776 24.688 14.552 24.432 14.44C24.368 14.408 24.288 14.344 24.416 14.296ZM40.704 19.48C40.352 19.48 40.016 19.448 39.728 19.4C38.128 19.096 37.088 18.136 37.088 16.984C37.088 15.864 38.064 14.536 40.448 13.448C40.448 13.352 40.432 13.256 40.432 13.176C40.352 12.296 39.872 11.928 39.264 11.928C38.528 11.928 37.584 12.472 36.928 13.272C36.464 13.832 36.048 14.504 35.712 15.032C35.664 15.112 35.6 15.144 35.504 15.144C35.312 15.144 34.816 14.984 34.608 14.92C34.496 14.888 34.464 14.792 34.528 14.712C35.744 13.256 37.04 11.688 38.08 9.784C37.616 9.816 37.168 9.832 36.752 9.832C36.288 9.832 35.872 9.816 35.504 9.768C35.44 9.752 35.392 9.688 35.36 9.624C35.328 9.496 35.296 8.936 35.312 8.776C35.312 8.696 35.328 8.68 35.44 8.712C35.872 8.824 36.464 8.888 37.152 8.888C37.568 8.888 38 8.872 38.464 8.824C38.704 8.264 38.896 7.752 39.04 7.16C39.072 7.064 39.072 7.032 39.136 7.032C39.296 7.032 39.952 7.08 40.224 7.176C40.336 7.208 40.384 7.256 40.384 7.304C40.384 7.448 40.08 7.608 39.968 7.832C39.824 8.152 39.696 8.424 39.552 8.712C40.432 8.584 41.312 8.408 42.048 8.2C42.08 8.184 42.096 8.184 42.128 8.184C42.176 8.184 42.208 8.216 42.224 8.28C42.24 8.376 42.272 8.856 42.304 9.064C42.304 9.112 42.304 9.208 42.192 9.224C41.248 9.416 40.176 9.576 39.152 9.688C38.656 10.568 38.352 11.016 37.936 11.576C37.84 11.704 37.888 11.672 38 11.624C38.592 11.336 39.136 11.192 39.616 11.192C40.56 11.192 41.232 11.784 41.376 13.032V13.064C42.512 12.616 44.512 11.88 45.024 11.56C45.072 11.528 45.152 11.528 45.2 11.576C45.328 11.752 45.696 12.248 45.744 12.456C45.808 12.712 45.504 12.632 45.168 12.728C44.144 13.048 42.464 13.656 41.424 14.056H41.408C41.392 14.84 41.328 15.816 41.232 16.552C41.216 16.712 41.184 16.744 41.024 16.76C40.768 16.792 40.608 16.792 40.336 16.792H40.288C40.176 16.792 40.16 16.728 40.176 16.648C40.304 15.976 40.384 15.192 40.432 14.504C38.768 15.336 38.096 16.2 38.096 16.92C38.096 17.688 38.848 18.264 39.952 18.424C40.144 18.456 40.368 18.472 40.592 18.472C41.552 18.472 42.736 18.216 43.44 17.864C43.472 17.848 43.504 17.848 43.52 17.848C43.552 17.848 43.584 17.864 43.584 17.944C43.584 18.12 43.52 18.632 43.536 18.824V18.856C43.536 18.952 43.488 19 43.376 19.048C42.8 19.288 41.696 19.48 40.704 19.48ZM53.712 12.088C53.504 11.896 53.168 11.784 52.928 11.72C52.848 11.704 52.8 11.672 52.8 11.64C52.8 11.608 52.848 11.576 52.912 11.544C54.928 10.424 56.512 8.056 57.152 6.792C57.296 6.52 57.44 6.216 57.488 5.944C57.504 5.896 57.52 5.832 57.584 5.832C57.68 5.832 58.272 6.088 58.56 6.264C58.64 6.312 58.672 6.376 58.672 6.424C58.672 6.52 58.56 6.616 58.416 6.664C58.384 6.68 58.352 6.696 58.32 6.728C59.408 8.392 61.792 10.296 63.584 10.984C63.632 11 63.648 11.016 63.648 11.032C63.648 11.08 63.6 11.128 63.552 11.16C63.264 11.304 62.864 11.48 62.688 11.72C62.64 11.8 62.544 11.8 62.48 11.768C60.608 10.712 58.72 8.776 57.84 7.432C57.232 8.44 55.856 10.552 53.92 12.056C53.856 12.104 53.776 12.152 53.712 12.088ZM48.832 14.056C48.832 13.992 48.896 13.992 48.96 13.976C49.504 13.88 50.352 13.592 51.296 13.208V10.392C50.656 10.408 49.92 10.424 49.344 10.456C49.28 10.456 49.216 10.44 49.2 10.36C49.184 10.184 49.184 9.704 49.2 9.56C49.216 9.464 49.264 9.416 49.344 9.432C49.92 9.464 50.64 9.512 51.28 9.528C51.28 8.2 51.232 6.824 51.152 6.184V6.152C51.152 6.104 51.184 6.072 51.232 6.072C51.472 6.072 52 6.136 52.4 6.264C52.48 6.28 52.512 6.328 52.512 6.392C52.512 6.488 52.416 6.664 52.352 6.904C52.256 7.144 52.24 8.28 52.224 9.528C52.672 9.512 53.072 9.48 53.632 9.432H53.664C53.728 9.432 53.776 9.464 53.776 9.544C53.792 9.64 53.792 9.832 53.792 10.008C53.792 10.152 53.792 10.28 53.776 10.36C53.776 10.44 53.696 10.456 53.632 10.456C53.072 10.44 52.672 10.408 52.224 10.392V12.888C52.912 12.584 53.408 12.36 53.712 12.2C53.808 12.168 53.808 12.168 53.808 12.28V12.552C53.808 12.696 53.808 12.856 53.84 12.968V13C53.84 13.064 53.808 13.112 53.712 13.16C53.296 13.384 52.816 13.592 52.224 13.864C52.224 15.144 52.256 16.792 52.256 18.056C52.256 18.872 51.968 19.624 50.256 19.672H50.224C50.144 19.672 50.064 19.624 50.048 19.576C49.968 19.256 49.76 18.92 49.568 18.664C49.504 18.584 49.52 18.536 49.616 18.536C49.92 18.584 50.176 18.6 50.384 18.6C51.072 18.6 51.248 18.36 51.264 17.784C51.28 16.808 51.296 15.416 51.296 14.232C50.736 14.472 50.288 14.664 49.888 14.824C49.744 14.888 49.632 15.064 49.52 15.064C49.472 15.064 49.424 15.032 49.376 14.968C49.216 14.776 48.944 14.296 48.848 14.12C48.832 14.088 48.832 14.072 48.832 14.056ZM53.712 14.136C53.696 13.976 53.696 13.608 53.712 13.416C53.728 13.288 53.76 13.272 53.856 13.272C55.44 13.384 56.48 13.4 57.456 13.4V11.912C56.88 11.912 56.208 11.928 55.264 12.008C55.2 12.008 55.136 11.992 55.12 11.896C55.104 11.704 55.104 11.384 55.12 11.224C55.136 11.096 55.184 11.08 55.264 11.08C56.224 11.16 56.88 11.192 57.456 11.192C57.44 10.392 57.424 10.04 57.344 9.4C57.328 9.304 57.328 9.256 57.408 9.256C57.616 9.256 58.208 9.368 58.592 9.496C58.672 9.528 58.704 9.56 58.704 9.608C58.704 9.704 58.624 9.8 58.544 9.944C58.432 10.152 58.384 10.296 58.368 11.192C59.008 11.192 59.744 11.176 60.752 11.08C60.8 11.08 60.864 11.128 60.864 11.192C60.864 11.368 60.88 11.704 60.864 11.896C60.848 11.976 60.832 12.008 60.752 12.008C59.76 11.928 59.024 11.912 58.368 11.912V13.4C59.44 13.4 60.64 13.368 62.256 13.272C62.336 13.272 62.384 13.32 62.384 13.4C62.4 13.56 62.4 13.96 62.384 14.136C62.384 14.216 62.32 14.248 62.256 14.232C60.448 14.136 59.104 14.136 57.968 14.136C56.864 14.136 55.68 14.136 53.856 14.232H53.824C53.76 14.232 53.712 14.2 53.712 14.136ZM54.928 19.736C55.008 18.872 55.024 17.784 55.024 17.464C55.024 17 55.008 16.12 54.96 15.544V15.496C54.96 15.4 54.976 15.384 55.12 15.4C55.808 15.448 57.296 15.464 57.952 15.464C58.592 15.464 59.872 15.448 60.8 15.4C60.928 15.4 60.96 15.432 60.96 15.544C60.88 16.472 60.896 17.048 60.896 17.4C60.896 17.704 60.912 18.568 60.976 19.608V19.656C60.976 19.768 60.96 19.784 60.8 19.8C60.64 19.832 60.288 19.832 60.112 19.816C60.016 19.8 59.936 19.816 59.936 19.688C59.936 19.464 59.952 19.256 59.952 19.032L57.936 19.016L55.952 19.032C55.952 19.256 55.968 19.512 55.968 19.752C55.968 19.896 55.952 19.912 55.792 19.928C55.584 19.944 55.296 19.944 55.12 19.928C54.96 19.912 54.912 19.896 54.928 19.736ZM55.952 18.184C56.432 18.2 57.632 18.216 57.936 18.216C58.224 18.216 59.456 18.2 59.968 18.184V17.304L59.952 16.248L57.936 16.232L55.968 16.248C55.968 16.328 55.952 17.08 55.952 17.448V18.184ZM75.536 18.84C72.24 18.296 70.272 16.008 70.272 13.544C70.272 12.248 70.8 10.92 71.952 9.752C72 9.704 72.016 9.672 72.016 9.656C72.016 9.64 71.984 9.64 71.888 9.656C69.84 9.976 68.272 10.232 66.592 10.44H66.544C66.48 10.44 66.416 10.424 66.384 10.36C66.32 10.216 66.16 9.576 66.144 9.464V9.432C66.144 9.336 66.208 9.304 66.288 9.304C66.688 9.304 67.376 9.272 68.016 9.192C70.32 8.904 75.36 8.184 77.184 8.072C77.264 8.072 77.264 8.104 77.28 8.168C77.312 8.344 77.328 8.936 77.328 9.08C77.328 9.144 77.296 9.176 77.232 9.176C76.016 9.16 73.84 9.24 72.976 10.04C71.84 11.08 71.296 12.28 71.296 13.448C71.296 15.544 73.104 17.464 76.336 17.768C76.48 17.768 76.464 17.832 76.384 17.928C76.224 18.152 75.888 18.488 75.76 18.744C75.712 18.824 75.648 18.856 75.536 18.84Z" fill="#E5E5E5"/>
<path d="M1.504 41.68C1.408 41.68 1.36 41.664 1.36 41.568C1.344 41.392 1.344 40.96 1.36 40.784C1.376 40.672 1.376 40.656 1.504 40.672C3.552 40.768 5.008 40.784 6.24 40.784C5.808 39.856 5.136 38.976 4.784 38.592C4.72 38.528 4.688 38.496 4.784 38.432C4.928 38.336 5.28 38.144 5.456 38.096C5.472 38.096 5.488 38.08 5.504 38.08C5.536 38.08 5.568 38.096 5.632 38.16C6.016 38.544 6.736 39.44 7.184 40.304C7.2 40.352 7.216 40.368 7.216 40.4C7.216 40.432 7.184 40.464 7.12 40.512C7.024 40.592 6.88 40.688 6.72 40.784H8.544C9.28 39.696 9.76 38.448 9.856 38.08C9.888 38 9.904 37.984 10.048 38.016C10.176 38.048 10.736 38.208 10.976 38.368C11.088 38.432 11.136 38.496 11.136 38.544C11.136 38.656 10.88 38.736 10.752 38.896C10.496 39.264 10.064 40.064 9.584 40.784C10.96 40.784 12.512 40.752 14.528 40.672H14.56C14.624 40.672 14.64 40.72 14.64 40.784C14.656 40.992 14.656 41.392 14.64 41.584C14.64 41.648 14.608 41.68 14.512 41.68C11.664 41.568 9.584 41.568 7.824 41.568H6.72C5.264 41.568 3.792 41.584 1.504 41.68ZM2.48 37.664C2.464 37.504 2.464 37.072 2.48 36.88C2.48 36.768 2.528 36.736 2.608 36.736C4.96 36.864 6.448 36.864 7.488 36.864C7.488 35.984 7.472 35.488 7.376 34.928V34.88C7.376 34.832 7.392 34.816 7.44 34.816C7.584 34.816 8.384 34.864 8.752 34.976C8.848 35.008 8.88 35.056 8.88 35.104C8.88 35.2 8.784 35.328 8.688 35.472C8.56 35.68 8.544 35.92 8.512 36.864C9.6 36.864 11.024 36.848 13.344 36.736C13.408 36.736 13.456 36.784 13.456 36.864C13.472 36.96 13.472 37.152 13.472 37.344C13.472 37.472 13.472 37.6 13.456 37.68C13.456 37.744 13.408 37.776 13.344 37.776C10.72 37.68 9.088 37.68 7.984 37.664C6.928 37.664 5.28 37.68 2.608 37.776C2.544 37.776 2.48 37.76 2.48 37.664ZM4.24 48.752C4.336 47.632 4.336 45.648 4.336 45.136C4.336 44.528 4.336 43.872 4.256 42.944V42.88C4.256 42.784 4.304 42.768 4.48 42.784C5.376 42.832 7.12 42.832 7.904 42.832C8.704 42.832 10.432 42.832 11.536 42.784H11.584C11.696 42.784 11.712 42.832 11.712 42.96C11.632 44.08 11.648 44.688 11.648 45.184C11.648 45.648 11.664 47.504 11.728 48.656V48.736C11.728 48.832 11.696 48.864 11.552 48.88C11.36 48.912 11.008 48.912 10.848 48.896C10.736 48.88 10.656 48.896 10.656 48.736C10.672 48.576 10.672 48.4 10.672 48.224C10.08 48.208 8.4 48.192 7.872 48.192C7.36 48.192 5.904 48.208 5.312 48.224V48.816C5.312 48.896 5.28 48.912 5.136 48.928C4.928 48.944 4.608 48.944 4.432 48.928C4.272 48.912 4.224 48.912 4.24 48.752ZM5.296 47.424L7.872 47.44C8.368 47.44 10.096 47.424 10.688 47.408C10.704 46.848 10.704 46.272 10.704 45.856C10.128 45.84 8.4 45.84 7.872 45.84C7.344 45.84 5.872 45.84 5.296 45.856V47.424ZM5.296 45.072L7.872 45.088L10.704 45.072C10.704 44.528 10.688 43.648 10.688 43.648C10.688 43.648 8.512 43.616 7.888 43.616C7.264 43.616 5.312 43.648 5.312 43.648C5.312 43.648 5.296 44.48 5.296 45.072ZM24.384 48.912C24.272 48.912 24.192 48.864 24.16 48.72C24.112 48.48 23.92 48.208 23.792 48.032C23.728 47.904 23.744 47.904 23.872 47.936C24.16 48 24.416 48.032 24.624 48.032C25.36 48.032 25.76 47.696 25.968 47.072C26.112 46.64 26.176 46.208 26.176 45.76C26.176 45.504 26.16 45.248 26.112 44.992C25.104 46.288 23.52 47.648 21.264 48.368C21.184 48.4 21.12 48.4 21.088 48.32C20.976 48.144 20.672 47.872 20.48 47.744C20.368 47.68 20.368 47.632 20.496 47.6C22.784 47.136 24.72 45.632 25.872 44.048C25.776 43.808 25.664 43.552 25.552 43.328C24.4 44.544 22.832 45.68 21.168 46.24C21.152 46.256 21.12 46.256 21.104 46.256C21.056 46.256 21.024 46.24 20.992 46.192C20.896 46.016 20.56 45.76 20.4 45.664C20.32 45.616 20.304 45.552 20.416 45.52C22.288 45.088 24.096 43.888 25.168 42.688C25.024 42.496 24.864 42.304 24.704 42.128C23.808 42.864 22.592 43.648 21.264 44.096H21.216C21.168 44.096 21.12 44.08 21.088 44.032C20.976 43.824 20.672 43.68 20.512 43.568C20.416 43.488 20.4 43.456 20.512 43.424C22.4 42.912 24.176 41.792 24.8 40.96C24.144 40.976 23.472 40.992 23.056 40.992C23.072 41.12 23.072 41.248 23.072 41.36V41.408C23.072 41.456 23.04 41.472 22.96 41.472C22.784 41.488 22.384 41.488 22.24 41.472C22.144 41.472 22.096 41.424 22.112 41.36C22.176 40.72 22.192 40 22.208 39.488V39.168C21.904 39.472 21.6 39.76 21.248 40.032C21.184 40.08 21.136 40.096 21.072 40.064C20.816 39.872 20.496 39.824 20.304 39.776C20.192 39.744 20.176 39.712 20.272 39.648C22.208 38.288 23.504 36.288 23.952 34.992C23.968 34.928 23.984 34.896 24.064 34.928C24.288 34.992 24.656 35.12 24.944 35.328C25.024 35.376 25.056 35.424 25.056 35.472C25.056 35.552 24.976 35.616 24.848 35.664C24.704 35.712 24.624 35.776 24.464 36.032L24.384 36.16C25.232 36.16 26.224 36.144 26.528 36.144C26.608 36.144 26.736 36.016 26.816 36.016C26.928 36.016 27.408 36.336 27.488 36.4C27.552 36.464 27.584 36.512 27.584 36.544C27.584 36.608 27.52 36.672 27.408 36.736C27.296 36.784 27.216 36.88 27.12 36.992C26.928 37.28 26.656 37.712 26.368 38.112C27.456 38.096 28.736 38.064 29.584 38.016C29.68 38.016 29.712 38.064 29.696 38.128C29.664 38.48 29.648 39.12 29.648 39.504C29.648 39.984 29.68 40.608 29.728 41.184V41.216C29.728 41.28 29.68 41.328 29.616 41.328C29.424 41.344 29.04 41.344 28.88 41.328C28.8 41.328 28.752 41.296 28.752 41.216V40.992C28.464 40.992 27.968 40.976 27.44 40.976C27.552 41.728 27.744 42.528 28.032 43.296C28.88 42.768 29.68 42.064 29.92 41.808C29.968 41.76 30 41.76 30.064 41.808C30.128 41.856 30.464 42.176 30.64 42.464C30.656 42.512 30.672 42.544 30.672 42.576C30.672 42.688 30.528 42.72 30.352 42.736C30.224 42.752 30.144 42.816 30.032 42.896C29.648 43.168 28.96 43.584 28.32 43.952C28.96 45.312 29.92 46.544 31.248 47.344C31.328 47.392 31.36 47.424 31.36 47.456C31.36 47.488 31.296 47.536 31.2 47.568C30.976 47.664 30.544 47.808 30.352 47.984C30.288 48.048 30.208 48.048 30.16 48C28.16 46.272 26.992 43.616 26.608 40.96H25.904C25.952 41.008 25.968 41.104 25.872 41.152C25.728 41.232 25.664 41.216 25.536 41.36L25.264 41.632C26.352 42.72 27.024 44.32 27.024 45.92C27.024 46.4 26.976 46.864 26.848 47.328C26.56 48.352 25.632 49.008 24.384 48.912ZM16.352 42.128C18.672 40.048 20.224 36.464 20.4 35.312C20.4 35.248 20.416 35.184 20.464 35.184C20.592 35.184 21.232 35.488 21.536 35.68C21.632 35.744 21.696 35.808 21.696 35.872C21.696 35.952 21.616 36.016 21.472 36.096C21.296 36.176 21.216 36.224 21.152 36.4C20.912 36.96 20.48 37.872 19.936 38.864L20.16 38.944C20.24 38.976 20.288 39.04 20.288 39.104C20.288 39.168 20.24 39.248 20.16 39.328C20.016 39.504 20.016 39.568 20.016 40C19.968 41.824 19.856 45.088 19.856 47.312C19.856 47.84 19.856 48.304 19.872 48.688C19.872 48.784 19.84 48.816 19.744 48.816C19.648 48.832 19.472 48.832 19.296 48.832C19.12 48.832 18.944 48.832 18.848 48.816C18.752 48.816 18.72 48.768 18.72 48.688C18.912 46.672 19.008 42.816 19.088 40.304C18.592 41.072 18.064 41.824 17.504 42.416C17.44 42.48 17.36 42.512 17.28 42.464C17.072 42.352 16.672 42.288 16.416 42.256C16.304 42.24 16.256 42.224 16.352 42.128ZM23.04 39.488C23.04 39.696 23.04 39.968 23.056 40.272C23.568 40.272 24.528 40.288 25.328 40.288C25.344 39.808 25.36 39.248 25.344 38.8C24.368 38.8 23.296 38.816 23.04 38.816V39.488ZM23.12 38.08C23.888 38.096 24.736 38.112 25.456 38.112C25.728 37.712 26 37.248 26.192 36.88C25.792 36.896 24.624 36.912 23.936 36.912C23.696 37.28 23.424 37.664 23.12 38.08ZM26.192 40.288C27.072 40.288 28.256 40.272 28.784 40.272C28.8 40 28.8 39.744 28.8 39.536C28.8 39.232 28.784 38.864 28.784 38.816C28.544 38.8 27.328 38.8 26.352 38.8C26.352 38.848 26.304 38.88 26.256 38.928C26.208 38.976 26.192 39.04 26.192 39.12C26.176 39.44 26.192 39.92 26.192 40.288ZM35.536 47.84C35.312 47.84 34.688 47.712 34.528 47.632C34.448 47.6 34.368 47.552 34.432 47.456C35.312 45.952 36.368 42.96 37.024 40.192C36.592 40.256 36.176 40.288 35.776 40.288C35.328 40.288 34.912 40.24 34.528 40.128C34.464 40.112 34.416 40.064 34.384 40C34.352 39.872 34.32 39.296 34.336 39.12C34.336 39.024 34.368 38.976 34.48 39.024C34.896 39.216 35.44 39.28 36.032 39.28C36.416 39.28 36.832 39.264 37.264 39.2C37.456 38.224 37.616 37.296 37.68 36.512C37.696 36.4 37.696 36.368 37.76 36.368C37.92 36.368 38.56 36.48 38.848 36.592C39.024 36.672 39.104 36.736 39.104 36.8C39.104 36.96 38.768 37.104 38.72 37.312L38.304 39.024C38.816 38.912 39.328 38.784 39.84 38.624C39.856 38.624 39.872 38.608 39.888 38.608C39.952 38.608 39.984 38.656 39.984 38.72C40 38.88 40.016 39.232 40 39.424C39.984 39.504 39.952 39.6 39.84 39.632C39.2 39.776 38.608 39.92 38.048 40.032C37.312 42.832 36.464 45.808 35.712 47.744C35.664 47.824 35.616 47.856 35.536 47.84ZM38.336 45.952C38.352 45.808 38.48 45.328 38.544 45.152C38.576 45.056 38.64 45.056 38.704 45.12C39.6 46.048 41.584 46.496 43.52 46.496C44.112 46.496 44.704 46.448 45.264 46.368C45.296 46.368 45.312 46.352 45.328 46.352C45.392 46.352 45.392 46.4 45.408 46.48C45.408 46.608 45.344 47.264 45.312 47.472C45.296 47.536 45.264 47.568 45.184 47.584C44.752 47.632 44.304 47.648 43.856 47.648C41.776 47.648 39.504 47.184 38.384 46.128C38.336 46.08 38.336 46.016 38.336 45.952ZM40.752 40.432C40.752 40.272 40.8 39.824 40.848 39.664C40.864 39.584 40.88 39.552 40.928 39.536C42.64 39.504 44.432 39.744 45.2 39.952C45.296 39.968 45.296 40 45.296 40.112C45.28 40.24 45.184 40.816 45.136 40.944C45.104 41.024 45.072 41.056 44.992 41.04C44.352 40.816 42.88 40.528 41.44 40.528C41.248 40.528 41.056 40.528 40.864 40.544H40.832C40.784 40.544 40.752 40.496 40.752 40.432ZM43.344 37.184C43.392 37.104 43.6 36.848 43.664 36.784C43.728 36.736 43.76 36.704 43.84 36.736C44.352 36.976 45.392 37.568 45.872 38.032C45.936 38.08 45.936 38.128 45.888 38.24C45.84 38.368 45.648 38.608 45.568 38.688C45.488 38.752 45.44 38.752 45.36 38.704C44.848 38.224 43.84 37.584 43.376 37.344C43.296 37.312 43.312 37.232 43.344 37.184ZM44.576 36.064C44.624 35.984 44.832 35.728 44.896 35.664C44.96 35.6 44.992 35.584 45.072 35.616C45.584 35.84 46.624 36.432 47.12 36.88C47.184 36.944 47.184 36.992 47.136 37.104C47.088 37.216 46.896 37.472 46.816 37.552C46.736 37.616 46.688 37.616 46.624 37.552C46.096 37.088 45.072 36.448 44.608 36.224C44.528 36.192 44.544 36.112 44.576 36.064ZM55.0996 48.528C55.0516 48.528 55.0036 48.512 54.9396 48.448C54.7316 48.24 54.4756 48.128 54.2676 48.016C54.1556 47.968 54.1556 47.936 54.2676 47.872C57.3716 46.384 57.9796 44.24 57.9796 41.936C57.9796 41.744 57.9636 41.536 57.9636 41.344L57.9156 40.208C57.3236 40.288 56.7156 40.336 56.0916 40.336C55.5316 40.336 54.9716 40.304 54.4276 40.208C54.3476 40.192 54.3316 40.16 54.3156 40.08C54.2836 39.936 54.2676 39.44 54.2676 39.28C54.2676 39.152 54.2836 39.136 54.4116 39.168C55.0516 39.312 55.6916 39.376 56.3156 39.376C56.8436 39.376 57.3716 39.328 57.8836 39.248C57.8836 39.216 57.8676 39.184 57.8676 39.152C57.8196 38.048 57.8196 37.04 57.6916 36.416C57.6756 36.384 57.6756 36.352 57.6756 36.32C57.6756 36.288 57.6916 36.272 57.7556 36.272C57.9476 36.272 58.6516 36.32 58.9716 36.384C59.1156 36.416 59.1636 36.464 59.1636 36.544C59.1636 36.688 58.9236 36.88 58.9076 37.072C58.8756 37.456 58.8756 37.744 58.8756 38.016C58.8756 38.336 58.8756 38.64 58.8916 39.04C59.5796 38.864 60.1716 38.64 60.6516 38.416C60.7476 38.368 60.7796 38.4 60.7956 38.496C60.8116 38.672 60.8756 39.216 60.8756 39.392C60.8756 39.472 60.8756 39.504 60.7636 39.552C60.2516 39.712 59.6276 39.888 58.9236 40.032L58.9716 41.328C58.9716 41.584 58.9876 41.84 58.9876 42.08C58.9876 44.416 58.5236 46.72 55.2916 48.464C55.2116 48.512 55.1636 48.528 55.0996 48.528ZM50.5396 42.464C50.5396 40.8 50.8596 39.088 51.0836 37.712C51.1636 37.264 51.1796 36.96 51.1956 36.592V36.544C51.1956 36.432 51.2436 36.432 51.3716 36.464C51.5956 36.496 52.1236 36.64 52.3636 36.752C52.4916 36.816 52.5556 36.88 52.5556 36.944C52.5556 37.072 52.2836 37.232 52.2196 37.456C51.8036 39.04 51.4676 40.8 51.4676 42.32C51.4676 43.04 51.5476 43.696 51.7236 44.272C51.7556 44.4 51.7876 44.448 51.8196 44.448C51.8676 44.448 51.8996 44.384 51.9316 44.288C52.0756 43.808 52.5396 42.736 52.6356 42.512C52.6676 42.432 52.6996 42.432 52.7636 42.48C52.7636 42.512 52.8916 42.784 53.1316 42.96C53.1956 43.008 53.1796 43.056 53.1476 43.136C53.0036 43.488 52.6356 44.368 52.4596 45.152C52.4116 45.344 52.3956 45.536 52.3956 45.712C52.3956 45.968 52.4436 46.208 52.5396 46.496V46.528C52.5396 46.592 52.5076 46.624 52.4596 46.656C52.2836 46.72 52.1076 46.768 51.9156 46.832C51.8196 46.848 51.8036 46.848 51.7396 46.784C50.8276 45.616 50.5396 44.064 50.5396 42.464ZM72.2196 48.48C71.8676 48.48 71.5316 48.448 71.2436 48.4C69.6436 48.096 68.6036 47.136 68.6036 45.984C68.6036 44.864 69.5796 43.536 71.9636 42.448C71.9636 42.352 71.9476 42.256 71.9476 42.176C71.8676 41.296 71.3876 40.928 70.7796 40.928C70.0436 40.928 69.0996 41.472 68.4436 42.272C67.9796 42.832 67.5636 43.504 67.2276 44.032C67.1796 44.112 67.1156 44.144 67.0196 44.144C66.8276 44.144 66.3316 43.984 66.1236 43.92C66.0116 43.888 65.9796 43.792 66.0436 43.712C67.2596 42.256 68.5556 40.688 69.5956 38.784C69.1316 38.816 68.6836 38.832 68.2676 38.832C67.8036 38.832 67.3876 38.816 67.0196 38.768C66.9556 38.752 66.9076 38.688 66.8756 38.624C66.8436 38.496 66.8116 37.936 66.8276 37.776C66.8276 37.696 66.8436 37.68 66.9556 37.712C67.3876 37.824 67.9796 37.888 68.6676 37.888C69.0836 37.888 69.5156 37.872 69.9796 37.824C70.2196 37.264 70.4116 36.752 70.5556 36.16C70.5876 36.064 70.5876 36.032 70.6516 36.032C70.8116 36.032 71.4676 36.08 71.7396 36.176C71.8516 36.208 71.8996 36.256 71.8996 36.304C71.8996 36.448 71.5956 36.608 71.4836 36.832C71.3396 37.152 71.2116 37.424 71.0676 37.712C71.9476 37.584 72.8276 37.408 73.5636 37.2C73.5956 37.184 73.6116 37.184 73.6436 37.184C73.6916 37.184 73.7236 37.216 73.7396 37.28C73.7556 37.376 73.7876 37.856 73.8196 38.064C73.8196 38.112 73.8196 38.208 73.7076 38.224C72.7636 38.416 71.6916 38.576 70.6676 38.688C70.1716 39.568 69.8676 40.016 69.4516 40.576C69.3556 40.704 69.4036 40.672 69.5156 40.624C70.1076 40.336 70.6516 40.192 71.1316 40.192C72.0756 40.192 72.7476 40.784 72.8916 42.032V42.064C74.0276 41.616 76.0276 40.88 76.5396 40.56C76.5876 40.528 76.6676 40.528 76.7156 40.576C76.8436 40.752 77.2116 41.248 77.2596 41.456C77.3236 41.712 77.0196 41.632 76.6836 41.728C75.6596 42.048 73.9796 42.656 72.9396 43.056H72.9236C72.9076 43.84 72.8436 44.816 72.7476 45.552C72.7316 45.712 72.6996 45.744 72.5396 45.76C72.2836 45.792 72.1236 45.792 71.8516 45.792H71.8036C71.6916 45.792 71.6756 45.728 71.6916 45.648C71.8196 44.976 71.8996 44.192 71.9476 43.504C70.2836 44.336 69.6116 45.2 69.6116 45.92C69.6116 46.688 70.3636 47.264 71.4676 47.424C71.6596 47.456 71.8836 47.472 72.1076 47.472C73.0676 47.472 74.2516 47.216 74.9556 46.864C74.9876 46.848 75.0196 46.848 75.0356 46.848C75.0676 46.848 75.0996 46.864 75.0996 46.944C75.0996 47.12 75.0356 47.632 75.0516 47.824V47.856C75.0516 47.952 75.0036 48 74.8916 48.048C74.3156 48.288 73.2116 48.48 72.2196 48.48ZM83.1956 48.816C83.0036 48.816 82.8116 48.816 82.7156 48.8C82.6196 48.784 82.5876 48.768 82.6036 48.672C82.7316 46.4 82.7636 43.312 82.7636 41.392C82.3156 42.32 81.6756 43.392 80.8276 44.272C80.7636 44.336 80.6676 44.368 80.5876 44.304C80.3956 44.144 80.0276 44 79.8196 43.936C79.7236 43.904 79.6756 43.872 79.7716 43.808C81.2116 42.752 82.2356 41.04 82.7636 39.856C82.7636 39.744 82.7636 39.632 82.7796 39.504C82.2836 39.52 81.5636 39.536 80.7956 39.6C80.7476 39.6 80.6676 39.584 80.6676 39.504C80.6516 39.424 80.6516 39.296 80.6516 39.152C80.6516 38.976 80.6516 38.784 80.6676 38.688C80.6836 38.56 80.7316 38.576 80.7956 38.576C81.5636 38.64 82.2836 38.672 82.7796 38.688C82.7796 37.44 82.7476 36.08 82.6356 35.168C82.6196 35.072 82.6356 35.072 82.7316 35.072C82.9556 35.088 83.4996 35.152 83.8516 35.264C83.9316 35.296 83.9636 35.328 83.9636 35.392C83.9636 35.504 83.8836 35.664 83.8036 35.904C83.6756 36.272 83.6436 37.376 83.6436 38.672C84.0756 38.672 84.6516 38.64 85.3076 38.576C85.3556 38.576 85.4356 38.592 85.4356 38.672C85.4516 38.832 85.4516 39.312 85.4356 39.504C85.4356 39.568 85.3396 39.6 85.3076 39.6C84.6676 39.552 84.0756 39.52 83.6436 39.504V40.096C83.9316 40.48 84.7796 41.424 85.6916 41.92C85.8036 41.984 85.8196 42.032 85.7396 42.096C85.6436 42.176 85.3396 42.4 85.2116 42.56C85.1636 42.624 85.1156 42.672 85.0196 42.592C84.5236 42.16 84.0116 41.568 83.6436 41.072C83.6436 43.056 83.7076 46.88 83.8036 48.688C83.8036 48.768 83.7716 48.8 83.6916 48.8C83.5796 48.816 83.3876 48.816 83.1956 48.816ZM84.3796 48.016C84.3156 48 84.2996 47.936 84.3796 47.904C86.0116 47.232 87.0676 46.08 87.4196 45.392C87.4836 45.28 87.4356 45.28 87.5476 45.328C87.6916 45.376 88.1236 45.568 88.3316 45.728C88.3796 45.776 88.4116 45.808 88.4116 45.84C88.4116 45.904 88.2996 45.936 88.1876 45.984C88.0596 46.048 88.0276 46.08 87.9156 46.192C87.4996 46.752 86.6516 47.744 85.2916 48.48C85.2436 48.512 85.1476 48.544 85.0996 48.48C84.9236 48.24 84.5556 48.112 84.3796 48.016ZM85.3716 44.736C85.3556 44.576 85.3556 44.224 85.3716 44.064C85.3716 43.952 85.3716 43.936 85.4996 43.936C87.4356 44.048 88.2836 44.048 89.7556 44.048C91.1476 44.048 92.0916 44.048 94.0596 43.936C94.1716 43.936 94.1876 43.968 94.1876 44.048C94.2036 44.128 94.2196 44.272 94.2196 44.4C94.2196 44.528 94.2036 44.656 94.1876 44.736C94.1876 44.816 94.1556 44.848 94.0756 44.832C92.4276 44.768 91.4356 44.752 90.3956 44.752V44.784C90.3956 44.832 90.3316 44.896 90.2676 44.944C90.1876 45.008 90.2036 45.104 90.1876 45.328C90.1716 45.76 90.2036 47.008 90.2356 47.488C90.2676 48.24 89.8676 48.832 88.4116 48.832H88.3796C88.2836 48.832 88.2676 48.784 88.2356 48.704C88.1236 48.4 87.8356 48.112 87.6596 47.92C87.5796 47.824 87.6116 47.792 87.7076 47.808C88.0596 47.872 88.3316 47.904 88.5556 47.904C89.1316 47.904 89.3076 47.68 89.3236 47.248C89.3396 47.12 89.3396 46.688 89.3396 46.192C89.3396 45.68 89.3396 45.12 89.3236 44.752C88.1396 44.752 87.1956 44.768 85.4836 44.832C85.4036 44.848 85.3716 44.816 85.3716 44.736ZM85.3876 36.688C85.3716 36.528 85.3716 36.176 85.3876 35.984C85.4036 35.856 85.4356 35.856 85.5316 35.856C87.4196 35.968 88.6036 35.968 89.6116 35.968C90.6676 35.968 92.2036 35.968 94.1236 35.856C94.2036 35.856 94.2516 35.888 94.2676 35.984C94.2836 36.128 94.2836 36.528 94.2676 36.704C94.2516 36.784 94.1876 36.816 94.1236 36.816C93.0516 36.768 92.0756 36.736 91.2596 36.72V36.752C91.2596 36.784 91.2276 36.848 91.1476 36.912C91.0676 36.944 91.0676 37.024 91.0516 37.168V37.968C91.8196 37.968 92.6676 37.936 93.2436 37.904C93.3556 37.904 93.3876 37.952 93.3876 38.016C93.3396 38.528 93.3236 38.976 93.3236 39.296C93.3236 39.728 93.3396 40.624 93.4036 41.408V41.424C93.4036 41.504 93.3396 41.552 93.2596 41.552C93.0516 41.552 92.7636 41.568 92.6036 41.552C92.5236 41.536 92.4596 41.536 92.4596 41.456C92.4596 41.344 92.4756 41.248 92.4756 41.12L89.6116 41.104L86.9396 41.12C86.9396 41.248 86.9556 41.36 86.9556 41.456C86.9556 41.584 86.9076 41.584 86.8116 41.6C86.6356 41.616 86.2836 41.616 86.1396 41.6C86.0116 41.584 85.9956 41.536 85.9956 41.472C86.0756 40.816 86.0916 39.872 86.0916 39.376C86.0916 38.768 86.0756 38.512 86.0116 38.032C86.0116 37.952 86.0436 37.92 86.1396 37.92C86.6516 37.952 87.4676 37.968 88.2036 37.968C88.2036 37.456 88.2036 36.992 88.1876 36.72C87.4516 36.72 86.5716 36.752 85.5316 36.816C85.4676 36.816 85.4036 36.784 85.3876 36.688ZM86.3636 42.88C86.3476 42.736 86.3476 42.368 86.3636 42.224C86.3796 42.112 86.3636 42.08 86.4756 42.096C87.8036 42.176 88.5076 42.192 89.7556 42.192C90.9396 42.192 91.4516 42.192 92.9396 42.096C93.0356 42.08 93.0516 42.112 93.0516 42.192C93.0676 42.368 93.0676 42.736 93.0516 42.896C93.0516 42.96 93.0196 42.992 92.9396 42.992C91.7716 42.912 91.1956 42.912 90.5076 42.912H89.7556C88.5556 42.912 87.7876 42.928 86.4756 42.992C86.3956 42.992 86.3636 42.976 86.3636 42.88ZM86.9076 39.376C86.9076 39.616 86.9076 40.016 86.9236 40.432C87.2436 40.432 87.7076 40.432 88.2036 40.448V38.672H86.9236C86.9076 38.832 86.9076 38.992 86.9076 39.376ZM88.9716 38.672C88.9716 39.328 88.9716 40.048 88.9876 40.448H90.2676C90.2836 40.032 90.2836 39.344 90.2836 38.672H88.9716ZM88.9716 37.984H90.2676C90.2676 37.456 90.2676 36.992 90.2516 36.704H89.1636C89.1796 36.72 89.1796 36.736 89.1796 36.752C89.1796 36.8 89.1476 36.848 89.0676 36.912C89.0036 36.944 88.9876 37.024 88.9716 37.168V37.984ZM91.0516 38.672C91.0516 39.328 91.0516 40.032 91.0676 40.448C91.6116 40.432 92.1556 40.432 92.4916 40.416V39.072C92.4916 38.88 92.4916 38.736 92.4756 38.672C92.2356 38.656 91.6436 38.672 91.0516 38.672ZM91.0676 45.664C91.0356 45.584 91.0356 45.568 91.0996 45.536C91.1956 45.504 91.5476 45.344 91.6596 45.312C91.7396 45.296 91.7396 45.296 91.8036 45.376C92.0916 45.824 93.0676 46.88 94.6196 47.552C94.6836 47.584 94.7156 47.632 94.5876 47.696C94.3316 47.824 94.0276 47.952 93.8036 48.176C93.7556 48.224 93.7236 48.224 93.6436 48.176C92.4116 47.456 91.3716 46.256 91.0676 45.664ZM103.644 48.016C103.18 48.016 102.732 47.984 102.38 47.936C100.38 47.648 99.1316 46.432 99.1316 45.056C99.1316 43.888 100.028 42.624 102.14 41.728C101.836 40.992 101.788 39.744 101.788 38.624C101.788 38 101.804 37.424 101.804 36.976C101.804 36.688 101.804 36.464 101.772 36.336C101.756 36.304 101.756 36.272 101.756 36.24C101.756 36.176 101.788 36.16 101.9 36.16C102.14 36.16 102.652 36.224 102.94 36.304C103.164 36.352 103.228 36.432 103.228 36.496C103.228 36.656 102.972 36.848 102.956 37.104C102.924 37.888 102.86 38.688 102.86 39.408C102.86 40.192 102.924 40.896 103.148 41.36C103.436 41.264 103.724 41.152 104.06 41.056C105.132 40.704 106.38 40.208 106.828 40.016C106.924 39.968 106.956 39.984 106.988 40.064C107.052 40.208 107.148 40.656 107.18 40.912V40.992C107.18 41.104 107.148 41.168 106.988 41.216C106.572 41.376 105.42 41.728 104.508 42C103.98 42.144 103.484 42.304 103.036 42.448C101.004 43.168 100.204 44.128 100.204 44.976C100.204 45.904 101.164 46.704 102.476 46.912C102.732 46.944 103.036 46.96 103.34 46.96C104.62 46.96 106.204 46.688 107.196 46.336C107.228 46.32 107.276 46.32 107.292 46.32C107.356 46.32 107.388 46.352 107.388 46.48C107.388 46.704 107.404 47.152 107.436 47.344V47.376C107.436 47.472 107.372 47.52 107.228 47.568C106.332 47.84 104.876 48.016 103.644 48.016ZM116.908 48.576C116.844 48.576 116.796 48.544 116.748 48.496C116.54 48.208 116.316 48.096 116.156 47.968C116.06 47.904 116.044 47.856 116.172 47.824C118.3 47.216 120.044 45.824 120.268 44.368C120.092 44.672 119.612 45.024 118.988 45.024C117.676 45.024 116.86 44.176 116.86 42.976C116.86 41.808 117.708 40.768 118.94 40.768C119.5 40.768 119.82 41.008 119.964 41.04C119.964 40.88 119.964 40.048 119.948 39.12C117.58 39.2 115.276 39.424 113.708 39.632H113.644C113.58 39.632 113.548 39.616 113.532 39.552C113.5 39.408 113.372 38.784 113.356 38.624V38.56C113.356 38.512 113.372 38.496 113.436 38.496C113.66 38.496 113.916 38.512 114.204 38.512C114.62 38.512 115.036 38.496 115.34 38.48C116.844 38.384 118.396 38.288 119.932 38.224C119.916 37.84 119.916 37.488 119.9 37.168C119.884 36.688 119.852 36.272 119.82 36.016C119.82 35.984 119.804 35.952 119.804 35.92C119.804 35.888 119.82 35.872 119.884 35.872C120.092 35.872 120.716 35.904 121.052 35.968C121.196 36 121.26 36.048 121.26 36.112C121.26 36.24 120.988 36.432 120.972 36.656C120.94 37.056 120.924 37.6 120.924 38.176C122.492 38.128 124.06 38.096 125.58 38.096C125.676 38.096 125.676 38.128 125.692 38.24C125.708 38.432 125.724 38.944 125.708 39.104C125.692 39.184 125.66 39.216 125.596 39.2C124.604 39.104 123.5 39.072 122.348 39.072C121.868 39.072 121.388 39.072 120.908 39.088C120.924 39.904 120.94 40.672 120.956 41.104C120.956 41.344 120.972 41.52 120.988 41.68C121.26 42.224 121.436 42.896 121.436 43.616C121.436 45.344 120.396 47.344 117.02 48.544C116.972 48.56 116.94 48.576 116.908 48.576ZM117.82 42.992C117.836 43.664 118.348 44.16 118.988 44.16C119.788 44.144 120.204 43.504 120.204 42.864C120.204 42.24 119.82 41.632 119.02 41.632C118.364 41.632 117.82 42.192 117.82 42.992ZM134.179 48.032C133.427 48.032 132.691 47.888 132.147 47.584C131.411 47.184 131.091 46.592 131.091 46.048C131.091 45.28 131.763 44.56 132.883 44.56C134.179 44.56 135.267 45.536 135.107 47.072C135.699 46.96 136.259 46.752 136.691 46.432C137.571 45.792 138.067 44.896 138.067 44.048C138.067 43.312 137.699 42.608 136.851 42.16C136.403 41.92 135.795 41.792 135.171 41.792C134.083 41.792 132.899 42.128 132.115 42.768C131.363 43.376 130.755 43.968 130.259 44.448C130.211 44.496 130.163 44.496 130.099 44.448C129.955 44.368 129.491 43.984 129.379 43.856C129.331 43.792 129.363 43.728 129.395 43.696C131.139 42.352 135.043 38.608 135.459 38.064C135.555 37.952 135.523 37.952 135.395 37.984C134.211 38.336 132.403 38.576 131.331 38.672H131.251C131.171 38.672 131.139 38.656 131.091 38.56C131.011 38.416 130.851 37.888 130.835 37.744V37.68C130.835 37.6 130.867 37.552 130.995 37.584C131.139 37.6 131.315 37.6 131.507 37.6C132.915 37.6 135.491 37.232 136.131 36.944C136.179 36.912 136.211 36.912 136.243 36.912C136.307 36.912 136.355 36.928 136.419 36.976C136.562 37.056 136.979 37.328 137.171 37.52C137.219 37.568 137.235 37.616 137.235 37.648C137.235 37.792 136.995 37.888 136.915 37.968C136.595 38.272 134.323 40.496 133.619 41.168C133.507 41.264 133.507 41.344 133.667 41.28C134.163 41.088 134.851 40.976 135.539 40.976C136.163 40.976 136.787 41.072 137.283 41.312C138.499 41.872 139.139 42.912 139.139 44.048C139.139 45.12 138.547 46.272 137.347 47.136C136.515 47.712 135.315 48.032 134.179 48.032ZM132.051 46.064C132.051 46.336 132.243 46.656 132.627 46.848C133.027 47.056 133.571 47.168 134.147 47.168C134.163 47.04 134.179 46.912 134.179 46.8C134.179 45.872 133.555 45.376 132.931 45.376C132.355 45.376 132.051 45.696 132.051 46.064Z" fill="#E5E5E5"/>
<path d="M7.512 105.28C7.464 105.28 7.392 105.256 7.32 105.16C7.152 104.944 6.864 104.56 6.672 104.08C6.648 104.032 6.648 104.008 6.648 103.984C6.648 103.936 6.672 103.936 6.72 103.936C7.392 103.936 8.256 103.768 9.168 103.624C9.192 102.472 9.192 100.024 9.192 99.4C9.192 98.512 9.192 97.528 9.096 96.16C9.096 95.992 9.096 95.944 9.336 95.968C10.344 96.04 11.328 96.088 12.12 96.088C12.888 96.088 13.56 96.064 14.808 95.968C14.976 95.968 15.024 96.016 15.024 96.16C14.904 97.48 14.928 98.176 14.928 98.68C14.928 99.112 14.952 100.192 15.048 101.272V101.32C15.048 101.44 15.024 101.464 14.808 101.488C14.616 101.512 14.16 101.536 13.968 101.512C13.8 101.488 13.776 101.488 13.776 101.344C13.776 101.248 13.8 101.176 13.8 101.08C13.272 101.056 12.384 101.056 12.024 101.056C11.688 101.056 10.848 101.056 10.344 101.08V103.408C11.376 103.216 12.408 103 13.224 102.808C12.888 102.496 12.576 102.256 12.384 102.088C12.312 102.04 12.288 101.992 12.384 101.92L13.056 101.488C13.152 101.44 13.176 101.44 13.272 101.488C13.872 101.872 15.36 103.192 15.96 104.104C16.008 104.176 16.008 104.224 15.912 104.32C15.768 104.44 15.384 104.704 15.144 104.872C15.072 104.896 15 104.92 14.952 104.848C14.712 104.416 14.4 104.008 14.088 103.648C12.984 103.912 9.432 104.728 8.016 105.016C7.776 105.064 7.656 105.28 7.512 105.28ZM1.152 101.752C1.152 101.704 1.224 101.704 1.344 101.68C1.968 101.632 2.712 101.56 3.504 101.44C3.816 101.056 4.152 100.672 4.488 100.24C3.672 99.616 2.52 98.968 1.8 98.632C1.704 98.584 1.68 98.56 1.728 98.464C1.824 98.32 2.112 97.96 2.256 97.864C2.328 97.816 2.352 97.816 2.448 97.84C2.664 97.936 2.952 98.08 3.264 98.248C3.864 97.288 4.32 96.232 4.512 95.512C4.512 95.44 4.512 95.368 4.608 95.368C4.848 95.368 5.472 95.608 5.808 95.776C5.976 95.848 6.048 95.92 6.048 95.992C6.048 96.088 5.904 96.16 5.736 96.28C5.592 96.376 5.472 96.52 5.424 96.64C5.088 97.216 4.608 98.008 4.128 98.752C4.488 98.968 4.848 99.184 5.136 99.4C5.856 98.416 6.432 97.528 6.624 97C6.672 96.928 6.672 96.856 6.792 96.904C7.056 96.952 7.584 97.24 7.872 97.432C8.016 97.528 8.088 97.6 8.088 97.648C8.088 97.744 7.92 97.816 7.752 97.888C7.56 97.984 7.512 98.056 7.392 98.2C6.792 98.968 5.856 100.144 4.944 101.2C5.736 101.08 6.456 100.936 7.008 100.816C7.176 100.504 7.32 100.192 7.392 99.904C7.416 99.784 7.44 99.76 7.584 99.808C7.776 99.88 8.256 100.12 8.568 100.36C8.688 100.456 8.76 100.528 8.76 100.6C8.76 100.72 8.616 100.792 8.448 100.84C8.28 100.864 8.16 100.984 8.016 101.248C7.392 102.52 5.496 105.112 2.712 106.048C2.616 106.096 2.52 106.12 2.448 106.024C2.208 105.688 1.752 105.52 1.464 105.376C1.224 105.256 1.32 105.232 1.488 105.184C3.552 104.656 5.28 103.24 6.36 101.848C5.064 102.112 3.048 102.568 2.424 102.712C2.232 102.784 2.088 102.952 1.944 102.952C1.896 102.952 1.824 102.928 1.752 102.832C1.608 102.664 1.296 102.184 1.176 101.824C1.176 101.8 1.152 101.776 1.152 101.752ZM2.088 110.008C2.064 109.768 2.064 109.288 2.088 109.072C2.112 108.904 2.112 108.904 2.304 108.904C5.136 109 7.224 109.048 9.048 109.048C8.544 108.496 8.016 108.04 7.776 107.872C7.704 107.8 7.656 107.752 7.776 107.656C7.92 107.584 8.448 107.344 8.592 107.296C8.64 107.272 8.688 107.224 8.832 107.344C9.264 107.68 10.128 108.352 10.632 109.048H13.224C13.728 108.448 14.136 107.704 14.28 107.272C14.304 107.176 14.328 107.176 14.496 107.224C14.664 107.272 15.576 107.512 15.84 107.704C15.936 107.752 15.96 107.824 15.96 107.848C15.96 107.944 15.84 108.016 15.648 108.088C15.408 108.208 15.288 108.28 15.12 108.472C14.976 108.664 14.808 108.856 14.64 109.048C16.608 109.048 18.84 109 21.72 108.904C21.888 108.904 21.912 108.952 21.912 109.072C21.936 109.192 21.96 109.384 21.96 109.552C21.96 109.744 21.936 109.912 21.912 110.032C21.912 110.128 21.864 110.176 21.744 110.152C17.496 110.032 14.472 110.008 11.976 110.008C9.36 110.008 6.552 110.008 2.304 110.152H2.232C2.136 110.152 2.088 110.104 2.088 110.008ZM4.152 107.128C4.128 106.912 4.128 106.384 4.152 106.192C4.176 106.048 4.176 106.048 4.344 106.048C8.04 106.192 9.432 106.192 11.208 106.192C11.232 105.712 11.208 105.136 11.064 104.728V104.68C11.064 104.608 11.112 104.56 11.208 104.56C11.52 104.56 12.24 104.68 12.792 104.8C12.96 104.824 13.008 104.872 13.008 104.944C13.008 105.04 12.816 105.208 12.72 105.4C12.648 105.568 12.6 105.88 12.576 106.192C14.376 106.192 15.768 106.168 19.416 106.048C19.56 106.048 19.584 106.072 19.584 106.192C19.608 106.408 19.608 106.936 19.584 107.152C19.584 107.248 19.584 107.272 19.464 107.272C15.576 107.152 13.944 107.152 11.928 107.152C9.768 107.152 8.352 107.152 4.344 107.272C4.2 107.272 4.176 107.248 4.152 107.128ZM6.456 116.392C6.6 115.168 6.6 114.4 6.624 113.728C6.624 112.768 6.6 112.144 6.528 111.232C6.528 111.184 6.504 111.136 6.504 111.112C6.504 111.016 6.552 110.992 6.792 111.016C8.28 111.112 10.536 111.112 11.928 111.112C13.368 111.112 15.48 111.088 17.088 111.016H17.16C17.304 111.016 17.352 111.088 17.352 111.208C17.256 112.36 17.256 113.104 17.256 113.752C17.256 114.352 17.256 114.976 17.376 116.296C17.376 116.488 17.376 116.512 17.088 116.56C16.848 116.584 16.368 116.584 16.152 116.56C15.96 116.56 15.816 116.56 15.816 116.368C15.84 116.224 15.84 116.08 15.84 115.96C14.976 115.936 12.84 115.912 11.88 115.912C10.872 115.912 8.808 115.936 7.968 115.96C7.968 116.104 7.992 116.248 7.992 116.392C7.992 116.584 7.944 116.608 7.728 116.608C7.392 116.632 7.008 116.632 6.72 116.608C6.504 116.608 6.432 116.584 6.456 116.392ZM7.944 115L11.856 115.024L15.888 115C15.912 114.568 15.912 114.208 15.912 113.944C15.096 113.92 12.864 113.896 11.88 113.896C10.848 113.896 8.76 113.92 7.944 113.944V115ZM7.944 113.032C8.784 113.056 10.896 113.056 11.856 113.056L15.912 113.032C15.912 112.504 15.888 112.024 15.888 112.024L11.88 112C10.704 112 7.968 112.024 7.968 112.024C7.968 112.024 7.968 112.504 7.944 113.032ZM10.344 100.192C10.872 100.216 11.736 100.216 12.024 100.216C12.36 100.216 13.296 100.216 13.824 100.192V98.968C13.32 98.944 12.432 98.944 12.072 98.944C11.736 98.944 10.848 98.944 10.344 98.968V100.192ZM10.344 98.104C10.872 98.104 11.76 98.128 12.072 98.128L13.824 98.104C13.824 97.552 13.8 96.904 13.8 96.904C13.8 96.904 12.624 96.88 12.096 96.88C11.544 96.904 10.368 96.904 10.368 96.904C10.368 96.904 10.344 97.456 10.344 98.104ZM16.248 105.28C16.416 103.528 16.464 101.488 16.464 100.456V98.896C16.464 97.96 16.44 96.856 16.32 96.088C16.296 95.992 16.32 95.92 16.464 95.944C17.28 96.016 18.312 96.064 19.056 96.064C19.824 96.064 20.496 96.04 20.88 96.016C21.024 96.016 21.168 95.824 21.288 95.872C21.432 95.944 22.032 96.328 22.152 96.472C22.2 96.52 22.248 96.568 22.248 96.64C22.248 96.688 22.2 96.76 22.08 96.832C21.984 96.856 21.888 96.904 21.84 96.976C21.456 97.648 20.808 98.872 20.424 99.544C20.4 99.592 20.376 99.64 20.376 99.688C20.376 99.736 20.424 99.808 20.52 99.88C21.84 100.84 22.344 101.8 22.344 102.64C22.344 103.984 21.024 104.992 19.512 104.992C19.272 104.992 19.032 104.968 18.792 104.92C18.72 104.92 18.648 104.896 18.624 104.824C18.576 104.512 18.192 104.056 18.048 103.816C18 103.744 17.976 103.672 18.096 103.696C18.48 103.816 18.84 103.864 19.176 103.864C20.256 103.864 21.072 103.336 21.072 102.544C21.072 101.944 20.616 101.224 19.536 100.456C19.32 100.288 19.224 100.12 19.224 99.952C19.224 99.856 19.272 99.736 19.32 99.592C19.632 99.016 20.232 97.672 20.496 97.024H17.76C17.688 97.504 17.688 99.112 17.688 100.456C17.688 101.8 17.76 103.504 17.832 105.304C17.832 105.376 17.784 105.496 17.688 105.496C17.4 105.52 16.632 105.52 16.392 105.496C16.272 105.472 16.224 105.352 16.248 105.28ZM37.416 115.48C36.384 115.48 35.208 115.36 34.056 115C31.848 114.352 30.624 112.864 30.624 111.496C30.624 110.344 31.464 109.24 33.36 108.76C34.656 108.424 36.072 108.328 37.32 108.328C38.664 108.328 39.84 108.424 40.536 108.496C40.08 107.752 39.504 106.672 38.928 105.472C37.104 105.856 35.184 106.072 33.408 106.072C32.424 106.072 31.464 106 30.624 105.856C30.528 105.832 30.456 105.736 30.408 105.616C30.336 105.4 30.312 104.68 30.336 104.44C30.336 104.296 30.384 104.272 30.576 104.32C31.512 104.56 32.568 104.656 33.672 104.656C35.184 104.656 36.768 104.464 38.304 104.152C37.968 103.408 37.632 102.64 37.32 101.872C36.216 102.088 35.088 102.208 33.96 102.208C33.024 102.208 32.088 102.112 31.2 101.92C31.08 101.896 31.008 101.8 30.984 101.704C30.936 101.488 30.936 100.768 30.96 100.528C30.96 100.408 31.008 100.384 31.176 100.432C32.16 100.72 33.168 100.84 34.2 100.84C35.088 100.84 35.976 100.744 36.816 100.576C36.408 99.472 36.072 98.416 35.88 97.456C35.832 97.288 35.784 97.24 35.952 97.192C36.336 97.096 36.816 97.072 37.296 97.072C37.632 97.072 37.728 97.144 37.728 97.288C37.728 97.456 37.584 97.72 37.608 98.032C37.704 98.704 37.896 99.472 38.136 100.264C39.048 100 39.912 99.664 40.704 99.28C40.728 99.256 40.752 99.256 40.8 99.256C40.872 99.256 40.92 99.304 40.968 99.4C41.088 99.568 41.448 100 41.544 100.312V100.384C41.544 100.432 41.52 100.528 41.424 100.552C40.584 100.936 39.624 101.296 38.592 101.56C38.88 102.328 39.192 103.096 39.552 103.864C40.872 103.504 42.072 103.072 43.056 102.568C43.104 102.544 43.152 102.544 43.176 102.544C43.248 102.544 43.296 102.592 43.368 102.664C43.512 102.856 43.896 103.312 43.992 103.624C44.016 103.648 44.016 103.672 44.016 103.696C44.016 103.744 43.968 103.84 43.872 103.888C42.816 104.368 41.544 104.8 40.2 105.16C41.184 107.08 42.288 108.832 43.176 109.96C43.248 110.032 43.248 110.104 43.152 110.176C42.864 110.344 42.36 110.56 42.024 110.632C42 110.632 41.976 110.656 41.952 110.656C41.856 110.656 41.784 110.584 41.712 110.536C41.424 110.32 41.208 110.128 40.128 109.912C39.36 109.768 38.28 109.648 37.128 109.648C36.096 109.648 35.016 109.744 34.08 109.984C32.832 110.296 32.256 110.92 32.256 111.592C32.256 112.384 33.072 113.248 34.464 113.608C35.352 113.848 36.288 113.944 37.224 113.944C38.448 113.944 39.672 113.776 40.752 113.512C40.8 113.488 40.848 113.488 40.872 113.488C40.968 113.488 40.968 113.536 40.92 113.68C40.8 114.016 40.68 114.448 40.584 114.832C40.536 115.048 40.464 115.12 40.152 115.216C39.576 115.336 38.592 115.48 37.416 115.48ZM62.016 114.568C61.824 114.568 61.632 114.52 61.488 114.304C61.272 113.944 60.96 113.704 60.696 113.464C60.6 113.368 60.552 113.32 60.552 113.272C60.552 113.2 60.648 113.176 60.792 113.176C66.096 113.272 69.384 110.296 69.384 107.104C69.384 105.928 68.952 104.728 68.016 103.648C67.08 102.544 65.616 101.824 64.032 101.56C64.008 101.56 64.008 101.56 64.008 101.584H63.912C63.768 101.584 63.672 101.632 63.6 101.824C63.048 103.336 60.384 109.384 58.08 112.696C57.768 113.152 57.408 113.32 57.024 113.32C56.76 113.32 56.496 113.248 56.232 113.104C54.552 112.24 53.616 110.392 53.616 108.304C53.616 106.072 54.72 103.576 57.168 101.824C58.704 100.744 60.72 100.192 62.736 100.192C65.184 100.192 67.632 101.008 69.216 102.688C70.416 103.984 70.992 105.544 70.992 107.128C70.992 110.656 68.016 114.208 62.136 114.568H62.016ZM55.128 108.184C55.128 109.504 55.632 110.656 56.496 111.304C56.616 111.376 56.712 111.424 56.808 111.424C56.928 111.424 57.048 111.352 57.144 111.232C58.992 108.664 61.392 103.24 61.968 101.488C60.576 101.608 59.208 102.088 58.008 102.952C55.992 104.44 55.128 106.456 55.128 108.184ZM81.24 116.104C81.096 116.08 81.048 116.032 81.048 115.888C81.288 111.808 81.288 108.04 81.288 104.8V103.912C80.16 103.936 78.912 103.984 77.376 104.032C77.232 104.032 77.136 104.008 77.136 103.864C77.112 103.6 77.112 102.904 77.136 102.64C77.136 102.472 77.184 102.448 77.376 102.448C78.936 102.52 80.184 102.544 81.288 102.568V101.44C81.288 100 81.264 98.56 81.12 97.504V97.432C81.12 97.336 81.168 97.312 81.288 97.312C81.648 97.36 82.512 97.432 83.04 97.6C83.184 97.648 83.232 97.72 83.232 97.816C83.232 97.984 83.112 98.176 83.016 98.392C82.92 98.56 82.8 98.776 82.776 99.496C82.752 100.216 82.752 101.44 82.728 102.616H86.616V102.496C86.616 101.656 86.64 100.84 86.64 100.024C86.64 98.8 86.592 97.624 86.424 96.472V96.424C86.424 96.304 86.496 96.304 86.616 96.328C86.904 96.352 87.768 96.448 88.296 96.616C88.44 96.664 88.488 96.736 88.488 96.808C88.488 96.952 88.392 97.144 88.296 97.336C88.152 97.648 88.08 97.864 88.056 98.608C88.032 99.496 88.008 101.296 87.984 102.496V102.616H91.8V102.496C91.8 101.608 91.824 100.768 91.824 99.952C91.824 98.824 91.776 97.72 91.632 96.616V96.568C91.632 96.496 91.656 96.448 91.728 96.448C92.04 96.448 92.856 96.568 93.432 96.76C93.6 96.808 93.672 96.88 93.672 97C93.672 97.12 93.552 97.288 93.456 97.528C93.36 97.744 93.264 98.032 93.24 98.728C93.216 99.664 93.168 101.296 93.168 102.496V102.592C94.56 102.568 96.072 102.52 97.92 102.448C98.088 102.448 98.112 102.496 98.112 102.64C98.136 102.928 98.136 103.6 98.112 103.888C98.112 103.984 98.04 104.032 97.92 104.032C96.12 103.96 94.584 103.936 93.168 103.912C93.192 106.36 93.264 108.472 93.336 110.824C93.336 110.944 93.288 110.992 93.168 110.992C93 111.016 92.76 111.016 92.52 111.016C92.304 111.016 92.064 111.016 91.92 110.992C91.776 110.992 91.704 110.944 91.728 110.824C91.728 110.488 91.752 110.2 91.752 109.888C91.2 109.888 90.528 109.864 90.024 109.864L88.08 109.888C88.08 110.248 88.104 110.608 88.104 110.968C88.104 111.088 88.056 111.136 87.936 111.136C87.768 111.16 87.528 111.16 87.288 111.16C87.048 111.16 86.808 111.16 86.664 111.136C86.52 111.136 86.472 111.088 86.472 110.968C86.592 107.824 86.616 106.144 86.616 103.864C85.176 103.864 83.976 103.864 82.728 103.888V107.032C82.728 109.168 82.752 111.616 82.776 113.704C84.24 113.752 85.056 113.776 86.688 113.776C90.024 113.776 91.968 113.776 96.336 113.584C96.504 113.584 96.528 113.656 96.528 113.8C96.552 114.088 96.552 114.808 96.528 115.072C96.528 115.192 96.456 115.24 96.336 115.24C92.04 115.072 89.928 115.072 86.688 115.072C84.792 115.072 84.168 115.096 82.824 115.12C82.824 115.408 82.848 115.672 82.848 115.912C82.848 116.032 82.8 116.08 82.68 116.104C82.344 116.128 81.528 116.128 81.24 116.104ZM87.984 103.864L88.056 108.712C88.632 108.736 89.448 108.736 90.024 108.736C90.528 108.736 91.224 108.736 91.776 108.712C91.8 107.776 91.8 106.984 91.8 106.216V103.888C90.528 103.864 89.304 103.864 87.984 103.864ZM104.256 116.584C104.136 116.632 104.064 116.608 103.992 116.512C103.656 115.96 103.056 115.624 102.744 115.384C102.624 115.264 102.672 115.216 102.792 115.192C107.592 114.64 109.272 112 109.32 109.384C109.32 108.928 109.32 108.352 109.248 107.8C107.472 108.928 105.36 110.032 103.464 110.632C103.32 110.68 103.176 110.752 103.104 110.632C102.816 110.224 102.12 109.816 101.832 109.624C101.664 109.528 101.64 109.432 101.856 109.384C105.864 108.472 109.488 106.432 111.336 104.656L111.744 104.248C110.184 104.248 108.216 104.272 107.232 104.272C107.232 104.536 107.232 104.776 107.256 105.04C107.256 105.184 107.208 105.208 107.04 105.208C106.704 105.232 106.152 105.232 105.864 105.208C105.72 105.208 105.648 105.136 105.648 105.04C105.816 103.384 105.84 102.064 105.84 100.648C105.84 99.16 105.816 98.2 105.72 96.496V96.472C105.72 96.376 105.792 96.304 105.936 96.328C107.808 96.4 110.808 96.424 112.68 96.424C114.744 96.424 117.36 96.4 119.256 96.304H119.304C119.472 96.304 119.52 96.424 119.52 96.496C119.424 98.128 119.4 99.328 119.4 100.624C119.4 101.848 119.472 103.096 119.592 104.8V104.824C119.592 104.92 119.496 105.016 119.376 105.016C119.016 105.04 118.512 105.04 118.224 105.016C118.08 104.992 117.984 104.944 117.984 104.8C118.008 104.632 118.008 104.464 118.008 104.296C117.168 104.272 115.32 104.248 113.76 104.248C113.856 104.32 113.88 104.392 113.88 104.44C113.88 104.512 113.784 104.56 113.616 104.584C116.184 106.384 119.112 107.968 123.696 108.784C123.864 108.832 123.912 108.904 123.744 109.048C123.432 109.312 122.976 109.672 122.664 110.128C122.568 110.248 122.472 110.272 122.352 110.224C118.656 109.216 115.296 107.248 112.608 105.256L112.536 105.328C111.912 105.952 110.904 106.696 109.752 107.464C110.112 107.512 110.592 107.584 111 107.68C111.12 107.728 111.168 107.776 111.168 107.848C111.168 107.968 111.072 108.136 110.976 108.304C110.808 108.616 110.76 108.736 110.736 109.48C110.688 112.696 108.816 115.552 104.256 116.584ZM107.136 100.912C107.16 101.416 107.184 102.208 107.208 103.12C108.216 103.144 110.28 103.168 111.864 103.168C111.888 102.568 111.888 101.632 111.888 100.864C110.256 100.888 108.12 100.888 107.136 100.912ZM107.136 99.736C108.144 99.76 110.28 99.784 111.888 99.784C111.888 98.944 111.864 98.056 111.864 97.552C109.92 97.552 107.184 97.576 107.184 97.576L107.136 99.736ZM113.232 100.864C113.232 101.632 113.256 102.544 113.256 103.168C114.936 103.168 117.168 103.12 118.056 103.12C118.08 102.256 118.104 101.416 118.104 100.912C117.216 100.888 114.936 100.888 113.232 100.864ZM113.232 99.784C114.912 99.784 117.216 99.76 118.104 99.736L118.056 97.576C118.056 97.576 115.488 97.552 113.568 97.552C113.568 97.6 113.52 97.696 113.4 97.768C113.28 97.888 113.256 98.008 113.256 98.176C113.232 98.608 113.232 99.208 113.232 99.784ZM114.504 107.608V107.512C114.504 107.44 114.528 107.44 114.672 107.44C115.032 107.488 115.752 107.56 116.304 107.728C116.472 107.776 116.544 107.824 116.544 107.896C116.544 107.992 116.448 108.112 116.328 108.256C116.16 108.472 116.136 109.24 116.136 110.176V111.328C116.136 112.864 116.208 114.328 116.304 116.128C116.304 116.248 116.232 116.272 116.136 116.296C115.776 116.32 115.104 116.32 114.816 116.296C114.648 116.272 114.6 116.248 114.624 116.128C114.696 114.808 114.696 113.776 114.696 112.792V111.328C114.696 110.128 114.72 108.568 114.504 107.608ZM147.216 112.408C147.144 112.408 147.096 112.408 147 112.36C143.352 110.872 137.328 105.928 135.936 105.04C135.552 104.8 135.216 104.632 134.856 104.632C134.544 104.632 134.232 104.776 133.896 105.064C133.08 105.808 131.232 107.728 130.8 108.256C130.512 108.616 130.464 109.024 130.152 109.024C130.08 109.024 129.96 108.976 129.792 108.88C129.408 108.64 128.88 108.232 128.64 107.968C128.52 107.848 128.544 107.776 128.664 107.704C130.464 106.456 131.664 105.016 133.056 103.768C133.608 103.264 134.208 103.048 134.784 103.048C135.456 103.048 136.128 103.336 136.752 103.744C138.384 104.848 144.144 109.408 148.104 110.824C148.248 110.872 148.32 110.92 148.32 110.992C148.32 111.064 148.272 111.136 148.2 111.256C148.008 111.544 147.648 112.024 147.408 112.312C147.336 112.384 147.288 112.408 147.216 112.408Z" fill="#E5E5E5"/>
</svg>
