<svg width="165" height="54" viewBox="0 0 165 54" fill="none" xmlns="http://www.w3.org/2000/svg">
<path d="M153.44 20.9963L161.873 27.4365L153.44 33.8767" stroke="#E5E5E5" stroke-width="3" stroke-linecap="round"/>
<path d="M30.272 29.368H16.32V31.352H29.312C29.12 33.304 28.8 36.888 28.32 38.584C27.648 41.048 26.24 41.144 25.088 41.208C24.256 41.24 23.168 41.272 22.336 41.24L21.344 38.744C22.304 38.84 23.264 38.936 24.352 38.936C25.728 38.936 26.016 38.584 26.4 37.112C26.624 36.28 26.784 35.032 26.976 33.336H14.176V15.16H17.664C18.368 14.168 18.848 13.336 19.488 11.992L21.568 12.664C21.824 12.76 22.112 12.824 22.112 13.08C22.112 13.368 21.76 13.432 21.216 13.56C20.896 14.232 20.64 14.648 20.256 15.16H28.096V25.432H16.32V27.448H30.272V29.368ZM25.92 19.384V17.08H16.32V19.384H25.92ZM25.92 23.512V21.208H16.32V23.512H25.92ZM11.136 32.888H4.896V36.408H2.656V15.352H11.136V32.888ZM8.992 30.808V17.432H4.896V30.808H8.992ZM25.184 37.272L23.264 38.04C22.784 36.696 22.368 35.864 21.408 34.488L23.072 33.72C23.712 34.488 24.48 35.48 25.184 37.272ZM21.216 38.904L19.328 39.576C18.848 38.008 18.336 36.728 17.472 34.968L19.232 34.328C20.416 36.184 20.896 37.688 21.216 38.904ZM17.184 39.928L15.04 40.504C14.688 38.424 14.272 36.824 13.6 35.512L15.616 35.096C16.448 37.016 16.768 38.136 17.184 39.928ZM12.8 35.864C12.032 37.944 11.264 39.352 10.016 40.984L7.936 39.64C8.96 38.616 10.048 37.304 10.88 34.776L12.8 35.864ZM51.2 23.96C52.736 23.96 54.08 25.208 54.08 26.84C54.08 28.44 52.768 29.72 51.2 29.72C49.6 29.72 48.352 28.408 48.352 26.84C48.352 25.24 49.632 23.96 51.2 23.96ZM95.808 39H93.088V18.424L85.632 39H83.04L75.584 18.424V39H72.864V15.64H77.12L84.32 35.512L91.52 15.64H95.808V39ZM122.244 39H103.94V15.64H121.86V18.04H106.852V25.848H120.676V28.184H106.852V36.6H122.244V39ZM132.182 39H129.206V15.64H132.182V39Z" fill="white"/>
<path d="M0 42.2H134.838V43.8H0V42.2Z" fill="white"/>
</svg>
