<svg width="144" height="126" viewBox="0 0 144 126" fill="none" xmlns="http://www.w3.org/2000/svg">
<path d="M9.216 19.96C9.152 19.96 9.104 19.912 9.072 19.816C8.976 19.56 8.656 19.24 8.464 18.952C8.4 18.872 8.4 18.84 8.512 18.856C8.832 18.904 9.136 18.936 9.392 18.936C9.936 18.936 10.32 18.792 10.336 18.328V17.832C10.336 17.352 10.336 16.664 10.32 15.96C9.728 15.976 8.976 15.992 8.128 16.024C8.08 16.04 8.016 16.008 8.016 15.944C8 15.752 8 15.384 8.016 15.224C8.016 15.128 8.064 15.096 8.128 15.096C9.024 15.16 9.744 15.192 10.32 15.208V14.584C10.32 14.248 10.304 13.864 10.304 13.448C9.52 13.448 8.608 13.48 7.376 13.56C7.296 13.56 7.232 13.544 7.232 13.448C7.216 13.288 7.216 12.92 7.232 12.744C7.232 12.616 7.264 12.616 7.36 12.616C8.608 12.696 9.504 12.728 10.288 12.728C10.288 12.072 10.256 11.464 10.24 11.128C9.744 11.144 9.136 11.176 8.432 11.224C8.368 11.224 8.32 11.208 8.32 11.112C8.304 10.952 8.304 10.68 8.304 10.488C8.176 10.632 8.064 10.792 7.936 10.92C7.904 10.968 7.824 11 7.76 10.968C7.36 10.792 7.264 10.728 7.024 10.68C6.928 10.648 6.896 10.632 6.992 10.568C8.464 9.384 9.36 6.952 9.568 6.008C9.584 5.944 9.616 5.928 9.68 5.944C9.936 6.008 10.352 6.152 10.688 6.328C10.768 6.36 10.8 6.408 10.8 6.44C10.8 6.504 10.72 6.568 10.608 6.616C10.48 6.696 10.336 6.776 10.288 6.904C10.224 7.064 10.112 7.336 9.952 7.672C10.768 7.672 11.392 7.656 11.744 7.64C11.856 7.64 11.952 7.464 12.064 7.496C12.208 7.56 12.624 7.848 12.704 7.912C12.752 7.96 12.768 8.008 12.768 8.056C12.768 8.12 12.72 8.168 12.608 8.216C12.48 8.28 12.384 8.456 12.304 8.584C12.112 8.952 11.648 9.8 11.312 10.392C11.744 10.392 12.784 10.376 13.648 10.296C13.792 10.296 13.808 10.312 13.792 10.456C13.744 10.888 13.712 11.784 13.712 12.696C14.16 12.68 14.624 12.648 15.12 12.616C15.2 12.616 15.248 12.648 15.248 12.744C15.264 12.888 15.264 13.288 15.248 13.464C15.248 13.528 15.184 13.56 15.12 13.56C14.624 13.528 14.16 13.496 13.712 13.48C13.728 14.472 13.76 15.8 13.808 16.408C13.808 16.504 13.792 16.536 13.648 16.552C13.536 16.568 13.168 16.584 13.024 16.568C12.896 16.552 12.864 16.52 12.864 16.424C12.864 16.296 12.88 16.136 12.88 15.96L11.552 15.944H11.152C11.184 17.08 11.216 18.136 11.216 18.52C11.216 19.288 10.72 19.992 9.216 19.96ZM1.2 11.72C1.184 11.544 1.184 11.256 1.2 11.128C1.216 11.032 1.232 11 1.296 11C1.936 11.032 3.168 11.08 4.064 11.096V10.04C3.568 10.04 3.216 10.04 2.32 10.12C2.256 10.12 2.192 10.104 2.192 10.008C2.176 9.848 2.176 9.592 2.192 9.448C2.192 9.352 2.24 9.336 2.304 9.336C3.2 9.416 3.536 9.432 4.064 9.432V8.44C3.424 8.44 2.896 8.456 1.728 8.536H1.712C1.664 8.536 1.632 8.504 1.616 8.44V7.8C1.632 7.688 1.648 7.688 1.728 7.688C2.912 7.784 3.408 7.784 4.064 7.784C4.048 7.064 4.016 6.744 3.936 6.12V6.056C3.936 6.008 3.952 5.976 4.032 5.976C4.256 5.992 4.768 6.088 5.12 6.232C5.216 6.264 5.248 6.312 5.248 6.36C5.248 6.424 5.168 6.52 5.088 6.648C4.96 6.808 4.928 6.936 4.912 7.784C5.568 7.784 6.128 7.784 7.232 7.688C7.312 7.688 7.344 7.704 7.344 7.784C7.36 7.928 7.36 8.296 7.344 8.456C7.344 8.52 7.296 8.552 7.248 8.536C6.16 8.456 5.552 8.44 4.912 8.44V9.432C5.36 9.432 5.696 9.416 6.56 9.336C6.624 9.336 6.672 9.352 6.688 9.448V10.008C6.672 10.088 6.64 10.136 6.56 10.12C5.712 10.04 5.376 10.04 4.912 10.04V11.096C5.664 11.08 6.432 11.064 7.584 10.984H7.616C7.664 10.984 7.696 11.016 7.696 11.096C7.712 11.224 7.712 11.592 7.696 11.752C7.696 11.816 7.648 11.848 7.584 11.848C6.224 11.752 5.296 11.752 4.432 11.752C3.584 11.752 2.208 11.816 1.312 11.848C1.232 11.848 1.2 11.784 1.2 11.72ZM2.224 19.848C2.288 18.632 2.32 17.704 2.336 15.688C2.336 15.032 2.336 13.816 2.256 12.744C2.256 12.616 2.256 12.6 2.416 12.6C3.2 12.648 3.664 12.68 4.384 12.68C5.088 12.68 5.632 12.648 6.512 12.6C6.624 12.6 6.64 12.632 6.64 12.744C6.592 13.448 6.576 14.072 6.576 14.6C6.576 15.048 6.592 15.416 6.592 15.704C6.592 16.92 6.672 17.944 6.672 18.536C6.672 19.368 6.272 19.96 4.784 19.96C4.72 19.96 4.672 19.928 4.64 19.832C4.592 19.624 4.304 19.288 4.096 19.048C4.032 18.968 4.048 18.936 4.16 18.952C4.464 19 4.72 19.032 4.944 19.032C5.504 19.032 5.792 18.84 5.792 18.408C5.792 17.96 5.792 17.464 5.776 16.984L4.432 16.968C4.144 16.968 3.568 16.984 3.168 16.984C3.168 18.152 3.168 19 3.2 19.864C3.2 19.944 3.152 19.976 3.072 19.976C2.896 19.992 2.56 19.992 2.336 19.976C2.256 19.976 2.208 19.944 2.224 19.848ZM3.168 16.264C3.568 16.28 4.176 16.296 4.432 16.296C4.72 16.296 5.376 16.28 5.776 16.264C5.76 16.056 5.76 15.864 5.76 15.704V15.176L4.432 15.16C4.128 15.16 3.552 15.176 3.168 15.176V16.264ZM3.184 14.44C3.568 14.456 4.16 14.472 4.416 14.472L5.744 14.456C5.744 13.992 5.728 13.56 5.728 13.352H3.2C3.2 13.464 3.184 13.928 3.184 14.44ZM8.448 10.28H8.464C9.296 10.344 9.968 10.376 10.464 10.376C10.736 9.848 11.216 8.904 11.392 8.408C10.96 8.408 10.176 8.424 9.584 8.424C9.264 9.032 8.88 9.704 8.448 10.28ZM11.136 14.584C11.136 14.792 11.136 15 11.152 15.208H11.552C11.888 15.208 12.48 15.192 12.896 15.192V13.464C12.224 13.448 11.632 13.448 11.136 13.448V14.584ZM11.136 12.728C11.648 12.728 12.24 12.728 12.896 12.712V11.112H11.376C11.376 11.112 11.392 11.128 11.392 11.144C11.392 11.176 11.344 11.224 11.264 11.288C11.136 11.368 11.152 11.464 11.136 11.688V12.728ZM22.864 19.8C22.64 19.544 22.288 19.4 22.096 19.304C22.016 19.256 21.984 19.224 21.984 19.192C21.984 19.16 22.032 19.144 22.096 19.112C23.904 18.568 25.216 17.432 26.16 16.12C25.328 14.84 24.848 13.48 24.576 12.344C24.576 12.296 24.56 12.232 24.64 12.2C24.784 12.12 25.168 12.04 25.344 12.024C25.424 12.024 25.456 12.088 25.456 12.12C25.68 13.08 26.048 14.2 26.72 15.288C27.472 13.992 27.92 12.616 28.128 11.56H26.752C25.744 11.576 25.312 11.576 24.144 11.656H24.112C24.064 11.656 24.016 11.624 24 11.544C23.984 11.384 23.984 10.952 24 10.792C24.016 10.68 24.08 10.664 24.144 10.68C25.312 10.76 25.728 10.776 26.752 10.776C27.376 10.776 28.192 10.744 28.384 10.744C28.624 10.728 28.656 10.552 28.816 10.648C28.944 10.712 29.216 10.872 29.376 11.016C29.44 11.08 29.472 11.128 29.472 11.176C29.472 11.24 29.408 11.288 29.344 11.352C29.216 11.48 29.136 11.544 29.088 11.784C28.768 13.064 28.192 14.632 27.264 16.088C28.16 17.256 29.456 18.328 31.28 19.032C31.376 19.064 31.392 19.112 31.28 19.176C31.088 19.288 30.608 19.432 30.336 19.72C30.304 19.752 30.272 19.768 30.24 19.768C30.192 19.768 30.16 19.752 30.112 19.72C28.656 18.968 27.552 17.976 26.72 16.888C25.792 18.12 24.592 19.192 23.072 19.8C22.992 19.832 22.928 19.864 22.864 19.8ZM16.896 17.992C18.08 17.064 18.768 15.608 18.864 15.096C18.864 15 18.912 14.936 19.008 14.968C19.2 15.016 19.664 15.176 19.84 15.288C19.92 15.336 19.968 15.384 19.968 15.432C19.968 15.512 19.904 15.576 19.792 15.608C19.616 15.672 19.536 15.848 19.408 16.12C19.152 16.632 18.544 17.752 17.888 18.36C17.824 18.424 17.776 18.456 17.696 18.392C17.504 18.264 17.152 18.168 16.944 18.12C16.864 18.104 16.8 18.072 16.896 17.992ZM17.792 14.136C17.776 13.96 17.776 13.608 17.792 13.496C17.792 13.368 17.856 13.352 17.936 13.352C18.88 13.432 19.76 13.464 20.432 13.464V11.016C20.416 10.312 20.416 9.976 20.336 9.4C20.32 9.336 20.336 9.32 20.4 9.32C20.576 9.32 21.136 9.4 21.504 9.512C21.6 9.544 21.648 9.592 21.648 9.656C21.648 9.72 21.6 9.8 21.504 9.928C21.36 10.088 21.344 10.216 21.344 11V11.096C21.904 11.096 22.624 11.096 23.36 11H23.408C23.456 11 23.52 11.016 23.536 11.128C23.552 11.176 23.552 11.288 23.552 11.4C23.552 11.56 23.552 11.736 23.536 11.832C23.52 11.912 23.472 11.944 23.424 11.928C22.704 11.864 21.92 11.848 21.344 11.848V13.464C22.032 13.464 22.944 13.448 23.968 13.368H24C24.032 13.368 24.096 13.4 24.096 13.48C24.112 13.656 24.112 13.976 24.096 14.152C24.096 14.232 24.016 14.264 23.968 14.248C23.12 14.184 22.288 14.168 21.664 14.152C21.632 14.216 21.568 14.264 21.504 14.328C21.44 14.424 21.456 14.632 21.456 14.632C21.456 14.632 21.488 18.28 21.504 18.456C21.472 19.208 21.04 19.832 19.664 19.832H19.632C19.552 19.832 19.536 19.784 19.504 19.704C19.408 19.368 19.136 19.16 18.96 18.936C18.896 18.856 18.912 18.776 19.008 18.792C19.328 18.84 19.584 18.872 19.792 18.872C20.416 18.872 20.56 18.616 20.576 18.136V17.368C20.576 16.392 20.576 14.824 20.56 14.152C19.888 14.152 18.896 14.168 17.936 14.248H17.904C17.856 14.248 17.792 14.216 17.792 14.136ZM17.84 10.664C17.904 9.992 17.968 9.448 17.968 8.76C17.968 8.456 17.952 8.152 17.936 7.816V7.768C17.936 7.688 17.968 7.672 18.08 7.672C20.096 7.784 22.128 7.8 23.44 7.8C23.44 7.352 23.44 6.728 23.312 5.928C23.296 5.832 23.312 5.816 23.36 5.816C23.568 5.816 24.24 5.912 24.656 6.04C24.768 6.072 24.8 6.136 24.8 6.2C24.8 6.328 24.656 6.536 24.576 6.728C24.48 6.984 24.48 7.336 24.464 7.8C25.904 7.8 27.92 7.784 29.952 7.672C30.064 7.672 30.08 7.72 30.08 7.8C30.048 8.216 30.032 8.6 30.032 8.856C30.032 9.416 30.016 9.784 30.128 10.648C30.128 10.712 30.08 10.76 30.016 10.76C29.904 10.776 29.712 10.776 29.536 10.776C29.36 10.776 29.184 10.776 29.104 10.76C29.008 10.744 28.976 10.712 28.976 10.632C29.04 10.024 29.04 9.016 29.04 8.68C28.224 8.648 27.248 8.632 26.336 8.632C25.424 8.632 24.576 8.648 24 8.648C23.36 8.648 22.496 8.632 21.584 8.632C20.688 8.632 19.76 8.648 18.96 8.68C18.96 9.288 18.976 9.928 19.024 10.68C19.024 10.76 18.976 10.792 18.896 10.808C18.656 10.824 18.128 10.824 17.968 10.808C17.872 10.792 17.84 10.76 17.84 10.664ZM22.048 15.224C22.048 15.176 22.08 15.128 22.144 15.112C22.256 15.064 22.56 14.984 22.704 14.952H22.736C22.784 14.952 22.8 15 22.848 15.048C23.136 15.576 23.6 16.296 24.512 17.032C24.576 17.08 24.608 17.144 24.48 17.176C24.272 17.256 23.968 17.384 23.776 17.56C23.712 17.608 23.648 17.592 23.6 17.544C22.896 16.84 22.336 15.848 22.064 15.304C22.048 15.272 22.048 15.256 22.048 15.224ZM39.888 19.032C39.376 19.032 38.864 18.92 38.416 18.712C37.616 18.312 37.168 17.672 37.168 17.064C37.168 16.504 37.536 15.992 38.304 15.736C38.72 15.608 39.2 15.544 39.696 15.544C40.288 15.544 40.928 15.624 41.552 15.768C41.44 15.032 41.104 14.152 41.104 13.384C41.104 11.912 42.496 11.272 43.648 10.808C43.76 10.744 43.792 10.696 43.696 10.616C43.296 10.344 42.096 10.024 41.456 9.96C41.376 9.944 41.312 9.88 41.36 9.8C41.424 9.656 41.568 9.384 41.696 9.24C41.744 9.176 41.824 9.176 41.888 9.176C43.216 9.352 45.056 10.024 45.792 10.632C45.856 10.68 45.872 10.712 45.84 10.792C45.808 10.904 45.712 11.16 45.6 11.304C45.568 11.384 45.488 11.4 45.376 11.4C45.248 11.384 45.104 11.368 44.976 11.368C44.736 11.368 44.496 11.4 44.32 11.448C42.896 11.816 42 12.36 42 13.416C42 13.528 42.016 13.656 42.032 13.784C42.16 14.536 42.496 15.384 42.592 16.072C43.792 16.472 44.896 17.032 45.616 17.576C45.712 17.64 45.744 17.72 45.696 17.816C45.616 18.008 45.424 18.344 45.264 18.552C45.216 18.616 45.136 18.68 45.056 18.6C44.48 18.056 43.568 17.496 42.544 17.064C42.384 17.672 41.984 18.312 41.312 18.696C40.912 18.92 40.4 19.032 39.888 19.032ZM34.56 16.12C35.296 14.952 36.832 12.216 37.696 10.152C36.768 10.344 35.824 10.456 34.976 10.472C34.912 10.472 34.864 10.424 34.832 10.376C34.784 10.264 34.688 9.672 34.672 9.528V9.496C34.672 9.432 34.704 9.4 34.784 9.416C34.992 9.448 35.216 9.448 35.456 9.448C36.224 9.448 37.12 9.336 38 9.16C38.128 8.68 38.24 8.136 38.24 7.544C38.24 7.416 38.24 7.288 38.224 7.16C38.224 7.064 38.224 7.048 38.272 7.048C38.48 7.048 39.088 7.128 39.344 7.192C39.504 7.224 39.568 7.272 39.568 7.336C39.568 7.448 39.344 7.608 39.312 7.768C39.232 8.2 39.136 8.568 39.024 8.92C39.68 8.744 40.256 8.568 40.688 8.392C40.704 8.392 40.72 8.376 40.736 8.376C40.784 8.376 40.816 8.424 40.832 8.488C40.848 8.648 40.912 8.984 40.912 9.16C40.912 9.224 40.896 9.32 40.784 9.352C40.176 9.544 39.504 9.736 38.8 9.912C37.936 12.008 36.512 14.744 35.68 16.44C35.648 16.504 35.616 16.504 35.536 16.504C35.312 16.504 34.816 16.344 34.64 16.28C34.576 16.248 34.512 16.184 34.56 16.12ZM38.144 17.112C38.144 17.384 38.4 17.704 38.8 17.896C39.104 18.056 39.472 18.12 39.808 18.12C40.176 18.12 40.512 18.04 40.768 17.864C41.216 17.56 41.456 17.16 41.552 16.712C40.928 16.536 40.288 16.424 39.712 16.424C39.328 16.424 38.976 16.472 38.64 16.568C38.304 16.68 38.144 16.888 38.144 17.112ZM50.864 13.848C50.8 13.848 50.752 13.832 50.72 13.784C50.48 13.512 50.144 13.352 49.952 13.208C49.872 13.16 49.84 13.128 49.84 13.096C49.84 13.064 49.888 13.064 49.968 13.048C52.384 12.632 53.728 11.064 54.048 9.912C54.16 9.64 54.224 9.432 54.256 9.16V9.096C53.872 9.096 53.488 9.08 53.088 9.08C52.528 9.08 51.92 9.096 51.232 9.112C51.232 9.704 51.232 10.552 51.28 11.176C51.28 11.256 51.248 11.288 51.152 11.288C51.04 11.304 50.848 11.304 50.672 11.304C50.48 11.304 50.32 11.304 50.24 11.288C50.144 11.272 50.112 11.256 50.112 11.16C50.208 10.536 50.24 9.848 50.24 9.208C50.24 8.92 50.224 8.616 50.208 8.296V8.248C50.208 8.184 50.24 8.168 50.336 8.168C52.672 8.264 53.968 8.28 55.456 8.28C55.456 8.104 55.472 7.896 55.472 7.672C55.472 7.176 55.44 6.616 55.344 6.088V6.04C55.344 5.96 56.16 6.072 56.624 6.216C56.736 6.248 56.768 6.296 56.768 6.36C56.768 6.472 56.624 6.648 56.544 6.84C56.448 7.128 56.448 7.672 56.448 8.28C58.176 8.28 59.36 8.28 61.696 8.168C61.808 8.168 61.824 8.2 61.824 8.28C61.792 8.648 61.776 8.968 61.776 9.208C61.776 9.688 61.776 10.04 61.872 10.824C61.872 10.888 61.824 10.936 61.76 10.936C61.6 10.952 61.312 10.952 61.104 10.952C61.104 10.968 61.136 10.968 61.168 11C61.392 11.208 61.68 11.464 61.92 11.56C62 11.592 62.032 11.64 62.032 11.688C62 12.568 61.424 13 60.48 13.112C60.192 13.144 59.616 13.176 59.056 13.176C58.496 13.176 57.952 13.144 57.696 13.112C57.072 13 56.752 12.632 56.736 12.088C56.736 11.976 56.768 10.072 56.768 9.64C56.768 9.464 56.768 9.272 56.752 9.096H54.592C54.816 9.144 55.104 9.224 55.312 9.32C55.408 9.352 55.44 9.4 55.44 9.432C55.44 9.496 55.376 9.56 55.28 9.608C55.104 9.704 55.056 9.848 54.88 10.248C54.432 11.608 53.168 13.144 50.928 13.832C50.912 13.848 50.88 13.848 50.864 13.848ZM49.872 19.176C49.856 19.016 49.856 18.552 49.872 18.36C49.872 18.248 49.92 18.216 50.016 18.216C51.76 18.312 53.008 18.344 54.08 18.344C54.576 18.344 55.04 18.328 55.504 18.328C55.52 17.8 55.52 17.224 55.52 16.664C55.52 16.248 55.52 15.848 55.504 15.464C54.528 15.464 53.184 15.48 51.568 15.56C51.488 15.56 51.408 15.528 51.408 15.432C51.392 15.272 51.392 14.84 51.408 14.648C51.408 14.536 51.472 14.52 51.568 14.52C53.568 14.616 54.992 14.648 55.984 14.648C57.088 14.648 58.368 14.632 60.368 14.52C60.448 14.52 60.496 14.568 60.496 14.648C60.512 14.808 60.512 15.272 60.496 15.448C60.496 15.528 60.432 15.56 60.368 15.56C58.912 15.496 57.712 15.48 56.752 15.464C56.736 15.512 56.688 15.544 56.624 15.592C56.528 15.64 56.496 15.704 56.48 15.864C56.48 16.568 56.48 17.56 56.496 18.328C58.032 18.328 59.44 18.328 62 18.216C62.08 18.216 62.128 18.264 62.144 18.36C62.16 18.504 62.16 19 62.144 19.176C62.128 19.256 62.08 19.288 62.016 19.288C59.232 19.176 57.616 19.176 55.92 19.176C54.304 19.176 52.656 19.192 50.016 19.288C49.936 19.288 49.872 19.272 49.872 19.176ZM57.664 11.768C57.664 12.024 57.84 12.248 58.128 12.28C58.288 12.296 58.64 12.312 59.008 12.312C59.52 12.312 60.064 12.296 60.224 12.264C60.768 12.168 61.088 11.928 61.056 11C61.056 10.984 61.056 10.952 61.072 10.952C60.976 10.952 60.896 10.952 60.848 10.936C60.752 10.92 60.72 10.888 60.736 10.824C60.8 10.28 60.784 9.448 60.784 9.128C59.664 9.08 58.832 9.08 57.968 9.08C57.968 9.16 57.904 9.224 57.84 9.304C57.712 9.448 57.696 9.448 57.68 9.688C57.664 9.928 57.664 11.496 57.664 11.768ZM66.08 19.88C65.936 19.864 65.888 19.832 65.904 19.672C66.016 17.16 66.064 14.552 66.064 12.68V10.952C66.064 9.32 66.064 7.96 65.984 6.696V6.648C65.984 6.552 66 6.536 66.144 6.552C66.736 6.6 67.872 6.616 68.512 6.616C69.152 6.616 69.984 6.6 70.832 6.552H70.88C70.96 6.552 70.976 6.6 70.976 6.696C70.944 7.256 70.944 7.88 70.944 8.36V9.08C70.944 9.384 70.96 10.488 71.008 11.544C71.008 11.704 71.008 11.752 70.832 11.768C70.672 11.784 70.368 11.784 70.192 11.768C70.096 11.752 70.016 11.736 70.032 11.592V11.32C69.728 11.32 68.992 11.304 68.48 11.304C67.968 11.304 67.28 11.32 67.008 11.32V12.632C67.008 14.632 67.024 17.192 67.04 19.688C67.04 19.816 67.024 19.864 66.864 19.88C66.704 19.896 66.24 19.896 66.08 19.88ZM67.008 10.552C67.296 10.552 67.984 10.568 68.464 10.568C68.96 10.568 69.728 10.552 70.048 10.552V9.352C69.744 9.352 69.024 9.336 68.496 9.336C67.984 9.336 67.296 9.352 67.008 9.352V10.552ZM67.008 8.584C67.312 8.584 68.016 8.6 68.496 8.6C68.992 8.6 69.728 8.584 70.032 8.584V7.384L68.48 7.368C67.984 7.368 67.024 7.384 67.024 7.384C67.024 7.416 67.024 7.896 67.008 8.584ZM69.28 18.232C69.344 17.144 69.392 15.912 69.392 15.4C69.392 14.728 69.376 13.496 69.344 12.936C69.344 12.824 69.344 12.792 69.504 12.808C70.112 12.84 71.184 12.856 71.92 12.856C72.656 12.856 73.376 12.84 74.24 12.792C74.368 12.792 74.4 12.824 74.4 12.936C74.368 13.64 74.352 14.84 74.352 15.352C74.352 15.816 74.384 17.016 74.432 18.008C74.432 18.136 74.432 18.152 74.24 18.168C74.096 18.184 73.808 18.2 73.632 18.184C73.504 18.168 73.424 18.184 73.424 18.04C73.44 17.928 73.44 17.8 73.44 17.672C73.12 17.672 72.432 17.656 71.92 17.656C71.392 17.656 70.592 17.672 70.272 17.672V18.248C70.272 18.376 70.24 18.392 70.096 18.408C69.872 18.424 69.664 18.424 69.472 18.408C69.312 18.392 69.28 18.376 69.28 18.232ZM70.256 15.608C70.256 15.912 70.272 16.376 70.272 16.872C70.592 16.872 71.408 16.888 71.904 16.888C72.4 16.888 73.136 16.872 73.456 16.872C73.472 16.392 73.472 15.912 73.472 15.608C73.168 15.592 72.416 15.576 71.872 15.576C71.36 15.576 70.576 15.592 70.256 15.608ZM70.256 14.824L71.856 14.84C72.384 14.84 73.152 14.824 73.472 14.824V13.608C73.392 13.608 72.368 13.592 71.888 13.592C71.36 13.592 70.272 13.608 70.272 13.608C70.272 13.672 70.256 14.28 70.256 14.824ZM72.88 11.544C72.912 10.904 72.912 10.264 72.912 9.768V8.36C72.912 7.88 72.912 7.256 72.88 6.696C72.88 6.584 72.896 6.536 73.008 6.552C73.872 6.6 74.768 6.616 75.392 6.616C76.048 6.616 77.248 6.6 77.84 6.552H77.904C78.016 6.552 78.016 6.584 78 6.696C77.936 7.704 77.936 8.776 77.936 10.008V12.68C77.936 14.424 77.952 15.512 78 17.912C78.032 19.16 77.424 19.72 75.68 19.736C75.584 19.736 75.504 19.688 75.472 19.576C75.408 19.336 75.104 19.032 74.848 18.728C74.832 18.696 74.816 18.68 74.816 18.664C74.816 18.616 74.88 18.6 74.976 18.616C75.36 18.664 75.696 18.696 75.968 18.696C76.64 18.696 76.992 18.504 76.992 17.8V11.32C76.704 11.32 75.952 11.304 75.424 11.304C74.912 11.304 74.176 11.32 73.84 11.32C73.84 11.416 73.84 11.512 73.856 11.592C73.856 11.72 73.808 11.752 73.696 11.768H73.056C72.896 11.752 72.864 11.704 72.88 11.544ZM73.808 9.352C73.808 9.656 73.808 10.088 73.824 10.552C74.144 10.552 74.944 10.568 75.44 10.568C75.936 10.568 76.704 10.552 76.992 10.552V9.352C76.688 9.352 75.968 9.336 75.44 9.336C74.896 9.336 74.112 9.352 73.808 9.352ZM73.808 8.584C74.128 8.584 74.928 8.6 75.44 8.6C75.936 8.6 76.688 8.584 76.992 8.584C76.992 7.896 76.976 7.416 76.976 7.384C76.976 7.384 75.904 7.368 75.424 7.368L73.824 7.384C73.824 7.432 73.808 8.104 73.808 8.584ZM86.592 18.776C86.272 18.776 85.936 18.728 85.568 18.648C85.44 18.616 85.376 18.536 85.344 18.408C85.312 18.184 85.184 17.928 85.12 17.704C85.104 17.672 85.104 17.656 85.104 17.64C85.104 17.592 85.152 17.576 85.232 17.592C85.648 17.656 86 17.704 86.304 17.704C87.248 17.704 87.728 17.368 88.096 16.792C88.576 16.056 88.784 14.648 88.784 13.576C88.784 13.256 88.768 12.984 88.736 12.744C88.672 12.168 88.432 11.96 87.872 11.96C87.36 11.976 86.816 12.024 86.272 12.104C85.504 14.552 84.4 16.968 83.024 18.648C82.96 18.712 82.912 18.728 82.816 18.712C82.608 18.68 82.064 18.44 81.92 18.344C81.856 18.296 81.808 18.232 81.888 18.152C83.248 16.824 84.464 14.6 85.216 12.264C84.224 12.44 83.344 12.616 82.832 12.664C82.752 12.664 82.672 12.664 82.624 12.552C82.544 12.408 82.384 11.944 82.368 11.832C82.368 11.784 82.352 11.752 82.352 11.736C82.352 11.656 82.4 11.64 82.48 11.64C82.992 11.672 84.192 11.464 85.488 11.288C85.792 10.168 85.968 9.032 86 7.992C86 7.848 86 7.832 86.128 7.864C86.368 7.896 86.848 7.976 87.168 8.088C87.328 8.152 87.376 8.2 87.376 8.264C87.376 8.392 87.12 8.552 87.072 8.808C86.928 9.576 86.752 10.36 86.544 11.16C87.136 11.096 87.712 11.048 88.224 11.048C89.024 11.048 89.664 11.4 89.776 12.488C89.808 12.76 89.824 13.064 89.824 13.416C89.824 14.696 89.616 16.376 89.072 17.288C88.48 18.264 87.696 18.776 86.592 18.776ZM90.736 10.984L91.232 10.536C91.28 10.504 91.296 10.488 91.344 10.488C91.376 10.488 91.408 10.504 91.472 10.536C92.352 11 94.192 12.408 95.056 13.752C95.088 13.8 95.088 13.816 95.088 13.848C95.088 13.88 95.072 13.928 95.024 13.976C94.832 14.168 94.528 14.424 94.336 14.536C94.256 14.584 94.176 14.616 94.128 14.504C93.376 13.08 91.584 11.608 90.752 11.16C90.64 11.096 90.688 11.032 90.736 10.984ZM91.472 9.048C91.52 8.968 91.712 8.744 91.792 8.68C91.856 8.616 91.888 8.6 91.968 8.648C92.464 8.888 93.504 9.496 93.984 9.96C94.016 9.992 94.016 10.024 94.016 10.056C94.016 10.088 94.016 10.12 93.984 10.184C93.92 10.296 93.744 10.52 93.648 10.6C93.568 10.664 93.52 10.648 93.456 10.584C92.944 10.12 91.936 9.448 91.488 9.208C91.408 9.16 91.44 9.096 91.472 9.048ZM92.624 7.944C92.688 7.864 92.88 7.64 92.96 7.576C93.024 7.528 93.056 7.512 93.12 7.544C93.632 7.784 94.672 8.392 95.152 8.84C95.184 8.872 95.2 8.904 95.2 8.936C95.2 8.968 95.184 9 95.152 9.064C95.104 9.176 94.912 9.4 94.832 9.48C94.752 9.544 94.704 9.544 94.624 9.48C94.112 9 93.104 8.344 92.656 8.12C92.576 8.072 92.608 7.992 92.624 7.944Z" fill="#E5E5E5"/>
<path d="M2.096 48.8C2.048 48.8 2 48.784 1.968 48.752C1.728 48.496 1.216 48.288 0.944 48.16C0.848 48.128 0.816 48.096 0.816 48.08C0.816 48.048 0.864 48.032 0.928 48C4.512 46.848 6.592 43.968 7.2 40.464C5.872 40.464 4.384 40.464 2.048 40.576C1.952 40.576 1.872 40.56 1.856 40.464C1.84 40.384 1.84 40.24 1.84 40.096C1.84 39.904 1.84 39.696 1.856 39.584C1.872 39.472 1.92 39.44 2.048 39.456C4.544 39.584 5.984 39.584 7.312 39.584L7.36 39.04C7.392 38.448 7.408 36.992 7.408 36.48C7.408 36.096 7.376 35.632 7.296 35.296C7.28 35.216 7.264 35.152 7.36 35.152C7.536 35.152 8.224 35.28 8.592 35.392C8.752 35.44 8.8 35.488 8.8 35.552C8.8 35.648 8.704 35.76 8.624 35.888C8.512 36.032 8.464 36.224 8.448 36.624C8.448 37.024 8.416 38.544 8.384 39.088L8.336 39.584C9.728 39.568 11.376 39.568 13.936 39.456H13.968C14.064 39.456 14.112 39.52 14.112 39.6C14.128 39.792 14.128 40.272 14.112 40.48C14.112 40.544 14.032 40.576 13.936 40.576C11.552 40.48 9.984 40.464 8.592 40.464C9.072 42.208 10.608 46.16 15.2 47.888C15.264 47.92 15.312 47.936 15.312 47.968C15.312 47.984 15.28 48.016 15.184 48.064C14.832 48.208 14.448 48.416 14.16 48.656C14.08 48.72 13.984 48.72 13.904 48.688C10.16 46.912 8.592 43.472 8 41.568C7.216 44.704 5.312 47.376 2.224 48.768C2.192 48.784 2.144 48.8 2.096 48.8ZM25.872 48.912C25.76 48.912 25.696 48.896 25.664 48.784C25.584 48.496 25.248 48.112 25.104 47.888C25.024 47.776 25.088 47.776 25.168 47.792C25.616 47.872 25.968 47.92 26.256 47.92C26.976 47.92 27.264 47.648 27.488 47.04C27.568 46.848 27.632 46.56 27.696 46.224C26.768 46.208 25.952 46.208 25.472 46.208H22.736L22.56 47.344C22.56 47.44 22.528 47.472 22.448 47.472C22.208 47.488 21.792 47.472 21.584 47.44C21.472 47.424 21.44 47.392 21.472 47.296C21.936 45.488 22.128 44.336 22.32 43.12V43.056C21.632 43.072 20.928 43.088 20.24 43.12H20.208C20.128 43.12 20.064 43.088 20.064 43.008C20.048 42.848 20.048 42.432 20.064 42.24C20.064 42.128 20.144 42.128 20.224 42.128C20.96 42.16 21.728 42.192 22.448 42.208C22.592 41.168 22.72 39.92 22.72 39.248C22.72 39.072 22.736 39.04 22.784 39.04C23.008 39.04 23.568 39.12 24.016 39.136C24.528 39.152 25.296 39.152 25.84 39.152C26.944 39.152 28.224 39.12 28.976 39.056H29.024C29.088 39.056 29.104 39.088 29.088 39.184C29.04 39.712 28.992 40.896 28.944 42.208C29.632 42.192 30.336 42.16 31.04 42.128C31.12 42.128 31.168 42.16 31.184 42.24C31.2 42.4 31.2 42.848 31.184 43.024C31.184 43.104 31.104 43.136 31.04 43.12C30.336 43.088 29.616 43.072 28.896 43.056C28.848 43.84 28.8 44.64 28.736 45.36C29.264 45.344 29.808 45.328 30.336 45.296H30.368C30.432 45.296 30.464 45.328 30.48 45.392C30.496 45.536 30.496 46.048 30.48 46.208C30.464 46.272 30.416 46.304 30.336 46.288C29.808 46.272 29.216 46.24 28.624 46.24C28.56 46.768 28.464 47.2 28.352 47.472C27.888 48.624 27.248 48.944 25.872 48.912ZM16.848 40.304C16.88 40.16 17.024 39.728 17.104 39.584C17.12 39.552 17.152 39.504 17.296 39.52C17.776 39.616 19.056 39.904 19.792 40.192C19.84 40.208 19.856 40.24 19.856 40.288C19.856 40.416 19.728 40.896 19.632 41.12C19.6 41.184 19.568 41.248 19.44 41.184C18.592 40.8 17.28 40.512 16.96 40.464C16.864 40.448 16.816 40.432 16.848 40.304ZM17.248 47.984C17.168 47.92 17.152 47.872 17.248 47.792C18.288 46.896 19.536 44.784 20.08 43.728C20.112 43.648 20.16 43.632 20.208 43.712C20.304 43.888 20.56 44.192 20.704 44.304C20.72 44.32 20.784 44.368 20.736 44.48C19.952 46.064 19.216 47.136 18.704 47.92C18.528 48.24 18.544 48.496 18.336 48.496C18.288 48.496 18.24 48.48 18.16 48.448C17.936 48.368 17.44 48.128 17.248 47.984ZM18.128 36.016C18.208 35.888 18.512 35.488 18.592 35.408C18.624 35.392 18.64 35.344 18.768 35.408C19.264 35.632 20.416 36.32 20.96 36.768C21.008 36.8 21.024 36.832 21.024 36.864C21.024 36.976 20.704 37.472 20.56 37.632C20.528 37.664 20.496 37.68 20.448 37.68C20.416 37.68 20.384 37.664 20.336 37.632C19.584 36.976 18.496 36.336 18.192 36.192C18.128 36.16 18.064 36.128 18.128 36.016ZM20.512 39.856C21.984 38.56 23.152 36.128 23.392 34.976C23.408 34.912 23.44 34.864 23.536 34.896C23.648 34.912 24.08 35.088 24.416 35.248C24.544 35.312 24.64 35.376 24.64 35.456C24.64 35.52 24.592 35.584 24.448 35.68C24.256 35.792 24.208 35.792 24.096 36.032L23.744 36.848H25.904C26.864 36.848 28.24 36.848 30.064 36.752H30.096C30.16 36.752 30.192 36.784 30.208 36.864C30.224 37.008 30.224 37.52 30.208 37.696C30.192 37.76 30.144 37.792 30.064 37.792C28.352 37.696 26.816 37.696 25.904 37.696C25.424 37.696 24.016 37.696 23.296 37.712C22.832 38.576 22.272 39.456 21.584 40.208C21.536 40.256 21.472 40.288 21.392 40.256C21.136 40.096 20.928 40.048 20.592 39.984C20.48 39.968 20.432 39.936 20.512 39.856ZM22.864 45.392H24.848C24.944 44.672 25.04 43.84 25.12 43.024C24.56 43.024 23.92 43.024 23.216 43.04C23.2 43.12 23.2 43.2 23.184 43.28C23.072 44.032 22.976 44.608 22.864 45.392ZM23.328 42.224C24.016 42.24 24.64 42.24 25.184 42.24C25.248 41.408 25.296 40.608 25.328 39.952H23.648C23.568 40.304 23.456 41.248 23.328 42.224ZM25.744 45.392C26.272 45.392 27.008 45.392 27.808 45.376C27.888 44.672 27.952 43.84 27.984 43.04C27.248 43.04 26.56 43.04 25.984 43.024C25.904 43.856 25.824 44.672 25.744 45.392ZM26.048 42.24C26.64 42.24 27.312 42.24 28.032 42.224C28.064 41.216 28.096 40.352 28.096 39.952H26.416C26.432 39.968 26.432 39.968 26.432 39.984C26.432 40.032 26.384 40.064 26.304 40.128C26.224 40.176 26.208 40.288 26.192 40.4C26.16 40.976 26.096 41.6 26.048 42.24ZM40.704 48.48C40.352 48.48 40.016 48.448 39.728 48.4C38.128 48.096 37.088 47.136 37.088 45.984C37.088 44.864 38.064 43.536 40.448 42.448C40.448 42.352 40.432 42.256 40.432 42.176C40.352 41.296 39.872 40.928 39.264 40.928C38.528 40.928 37.584 41.472 36.928 42.272C36.464 42.832 36.048 43.504 35.712 44.032C35.664 44.112 35.6 44.144 35.504 44.144C35.312 44.144 34.816 43.984 34.608 43.92C34.496 43.888 34.464 43.792 34.528 43.712C35.744 42.256 37.04 40.688 38.08 38.784C37.616 38.816 37.168 38.832 36.752 38.832C36.288 38.832 35.872 38.816 35.504 38.768C35.44 38.752 35.392 38.688 35.36 38.624C35.328 38.496 35.296 37.936 35.312 37.776C35.312 37.696 35.328 37.68 35.44 37.712C35.872 37.824 36.464 37.888 37.152 37.888C37.568 37.888 38 37.872 38.464 37.824C38.704 37.264 38.896 36.752 39.04 36.16C39.072 36.064 39.072 36.032 39.136 36.032C39.296 36.032 39.952 36.08 40.224 36.176C40.336 36.208 40.384 36.256 40.384 36.304C40.384 36.448 40.08 36.608 39.968 36.832C39.824 37.152 39.696 37.424 39.552 37.712C40.432 37.584 41.312 37.408 42.048 37.2C42.08 37.184 42.096 37.184 42.128 37.184C42.176 37.184 42.208 37.216 42.224 37.28C42.24 37.376 42.272 37.856 42.304 38.064C42.304 38.112 42.304 38.208 42.192 38.224C41.248 38.416 40.176 38.576 39.152 38.688C38.656 39.568 38.352 40.016 37.936 40.576C37.84 40.704 37.888 40.672 38 40.624C38.592 40.336 39.136 40.192 39.616 40.192C40.56 40.192 41.232 40.784 41.376 42.032V42.064C42.512 41.616 44.512 40.88 45.024 40.56C45.072 40.528 45.152 40.528 45.2 40.576C45.328 40.752 45.696 41.248 45.744 41.456C45.808 41.712 45.504 41.632 45.168 41.728C44.144 42.048 42.464 42.656 41.424 43.056H41.408C41.392 43.84 41.328 44.816 41.232 45.552C41.216 45.712 41.184 45.744 41.024 45.76C40.768 45.792 40.608 45.792 40.336 45.792H40.288C40.176 45.792 40.16 45.728 40.176 45.648C40.304 44.976 40.384 44.192 40.432 43.504C38.768 44.336 38.096 45.2 38.096 45.92C38.096 46.688 38.848 47.264 39.952 47.424C40.144 47.456 40.368 47.472 40.592 47.472C41.552 47.472 42.736 47.216 43.44 46.864C43.472 46.848 43.504 46.848 43.52 46.848C43.552 46.848 43.584 46.864 43.584 46.944C43.584 47.12 43.52 47.632 43.536 47.824V47.856C43.536 47.952 43.488 48 43.376 48.048C42.8 48.288 41.696 48.48 40.704 48.48ZM49.536 48.592C49.504 48.592 49.456 48.56 49.392 48.496C49.248 48.336 49.072 48.032 48.912 47.664C48.896 47.632 48.896 47.616 48.896 47.6C48.896 47.536 48.944 47.536 49.024 47.504C49.664 47.392 50.656 47.104 51.648 46.768C51.648 45.952 51.664 44.304 51.664 42.96V42.56C51.12 42.56 50.336 42.576 49.44 42.656C49.392 42.656 49.312 42.64 49.296 42.528V41.84C49.312 41.712 49.376 41.696 49.44 41.696C50.368 41.792 51.088 41.808 51.648 41.808C51.648 41.12 51.632 40.56 51.616 40.272C51.2 40.272 50.64 40.304 50 40.368C49.968 40.368 49.904 40.336 49.904 40.24C49.888 40.112 49.888 39.84 49.904 39.664C49.824 39.728 49.76 39.776 49.696 39.84C49.648 39.904 49.536 39.936 49.472 39.872C49.328 39.728 48.944 39.584 48.72 39.52C48.624 39.488 48.624 39.44 48.704 39.376C50.272 38.352 51.616 36.128 51.84 35.296C51.856 35.216 51.856 35.168 51.904 35.168C52.048 35.168 52.48 35.344 52.816 35.504C52.896 35.536 52.928 35.568 52.928 35.616C52.928 35.68 52.864 35.744 52.752 35.824C52.72 35.84 52.688 35.872 52.656 35.904C53.04 36.576 53.904 37.904 55.104 38.704C55.152 38.736 55.168 38.768 55.168 38.784C55.168 38.832 55.12 38.848 55.056 38.864C54.816 38.944 54.448 39.136 54.304 39.248C54.288 39.264 54.256 39.264 54.24 39.264C54.176 39.264 54.128 39.232 54.064 39.184C53.28 38.464 52.624 37.424 52.208 36.656C51.808 37.36 51.072 38.512 50.128 39.456C50.976 39.536 51.584 39.536 52 39.536C52.48 39.536 53.184 39.536 54.048 39.424C54.096 39.424 54.144 39.472 54.16 39.552C54.176 39.696 54.176 40.096 54.16 40.256C54.144 40.336 54.096 40.368 54.048 40.368C53.568 40.32 53.12 40.304 52.752 40.288V40.32C52.752 40.352 52.72 40.4 52.656 40.448C52.576 40.496 52.544 40.56 52.528 40.672C52.528 40.96 52.528 41.344 52.512 41.808C53.072 41.808 53.664 41.776 54.56 41.696C54.608 41.696 54.688 41.728 54.688 41.824C54.704 42 54.704 42.368 54.688 42.56C54.688 42.624 54.608 42.656 54.56 42.656C53.696 42.576 53.04 42.56 52.512 42.56V46.48C53.584 46.128 54.528 45.776 54.928 45.616C55.04 45.568 55.072 45.568 55.04 45.68C55.008 45.856 54.96 46.128 54.96 46.352C54.96 46.432 54.944 46.496 54.816 46.544C54.176 46.8 50.608 48.064 49.888 48.336C49.728 48.416 49.648 48.592 49.536 48.592ZM49.488 43.856C49.456 43.792 49.424 43.744 49.52 43.696C49.632 43.632 50.096 43.456 50.112 43.456H50.16C50.192 43.456 50.224 43.472 50.272 43.536C50.576 43.952 51.168 44.976 51.44 45.712C51.456 45.744 51.456 45.76 51.456 45.776C51.456 45.84 51.408 45.856 51.36 45.888C51.296 45.936 50.816 46.192 50.768 46.208C50.736 46.224 50.72 46.224 50.704 46.224C50.656 46.224 50.624 46.192 50.608 46.112C50.32 45.232 49.68 44.128 49.488 43.856ZM52.624 45.44C53.184 44.736 53.6 43.712 53.696 43.376C53.712 43.296 53.728 43.28 53.84 43.312C53.952 43.344 54.432 43.488 54.64 43.632C54.704 43.68 54.736 43.728 54.736 43.76C54.736 43.84 54.624 43.904 54.512 43.968C54.448 44 54.352 44.112 54.288 44.224C54.096 44.56 53.696 45.216 53.408 45.632C53.376 45.664 53.36 45.68 53.328 45.68C53.28 45.68 53.232 45.648 53.184 45.632C53.04 45.568 52.784 45.568 52.672 45.536C52.592 45.52 52.592 45.488 52.624 45.44ZM54.848 41.584C54.832 41.408 54.832 41.024 54.848 40.864C54.864 40.752 54.928 40.736 55.008 40.736C55.744 40.784 56.416 40.816 57.008 40.832L57.024 38.528C56.576 38.544 56.08 38.576 55.52 38.608H55.488C55.44 38.608 55.392 38.576 55.376 38.496C55.36 38.336 55.36 37.92 55.376 37.776C55.392 37.648 55.44 37.632 55.52 37.648C56.08 37.696 56.576 37.712 57.024 37.744V36.976C57.024 36.352 57.008 35.728 56.896 35.216V35.184C56.896 35.12 56.928 35.104 56.976 35.104C57.216 35.104 57.776 35.216 58.144 35.328C58.256 35.36 58.288 35.424 58.288 35.472C58.288 35.568 58.192 35.696 58.112 35.824C58 35.984 57.968 36.096 57.952 36.464C57.936 36.8 57.92 37.344 57.92 37.76H59.616V36.992C59.616 36.352 59.6 35.728 59.488 35.216V35.168C59.488 35.12 59.504 35.104 59.552 35.104C59.792 35.104 60.336 35.2 60.736 35.328C60.832 35.36 60.88 35.408 60.88 35.472C60.88 35.568 60.784 35.696 60.688 35.824C60.592 35.968 60.56 36.096 60.544 36.432C60.512 36.784 60.512 37.312 60.512 37.744C61.072 37.728 61.68 37.696 62.32 37.648H62.352C62.4 37.648 62.448 37.696 62.448 37.76C62.464 37.904 62.464 38.352 62.448 38.528C62.448 38.592 62.368 38.624 62.32 38.624C61.696 38.576 61.072 38.544 60.512 38.528L60.528 40.832C61.296 40.816 62.16 40.8 62.976 40.736C63.04 40.736 63.104 40.784 63.12 40.864C63.12 41.008 63.136 41.424 63.12 41.6C63.104 41.664 63.024 41.696 62.976 41.696C61.424 41.6 59.664 41.584 58.768 41.584C57.872 41.584 56.576 41.584 55.008 41.696C54.944 41.696 54.864 41.664 54.848 41.584ZM56.048 48.784C56.16 47.744 56.24 46.256 56.256 45.376V44.816C56.256 44.176 56.24 43.552 56.176 42.912C56.176 42.848 56.224 42.8 56.304 42.816C57.232 42.896 57.792 42.912 58.864 42.912C59.984 42.912 60.272 42.896 61.28 42.816C61.392 42.816 61.408 42.88 61.408 42.944C61.36 43.936 61.328 44.544 61.328 45.376C61.328 46.16 61.408 47.616 61.472 48.672C61.472 48.752 61.408 48.816 61.344 48.832C61.12 48.832 60.736 48.848 60.544 48.832C60.464 48.816 60.416 48.784 60.416 48.688C60.416 48.48 60.432 48.256 60.432 48.048C60.128 48.032 59.6 48.016 58.832 48.016C58.128 48.016 57.488 48.032 57.104 48.048C57.104 48.288 57.12 48.528 57.12 48.784C57.12 48.88 57.088 48.896 56.976 48.896C56.784 48.912 56.352 48.912 56.192 48.896C56.096 48.896 56.048 48.848 56.048 48.784ZM57.104 47.232C57.488 47.248 58.144 47.264 58.832 47.264C59.584 47.264 60.144 47.248 60.448 47.232C60.464 46.688 60.464 46.176 60.464 45.792C60.176 45.776 59.632 45.76 58.832 45.76C58.144 45.76 57.488 45.776 57.104 45.792V47.232ZM57.12 45.008C57.504 45.024 58.16 45.04 58.832 45.04C59.6 45.04 60.16 45.024 60.464 45.008C60.464 44.32 60.448 43.664 60.448 43.664C60.368 43.664 59.728 43.648 58.832 43.648C57.76 43.648 57.168 43.68 57.168 43.68C57.168 43.744 57.136 44.336 57.12 45.008ZM57.92 38.512L57.936 40.848H59.584C59.6 40.272 59.6 39.2 59.616 38.512H57.92ZM65.504 49.44C65.44 49.44 65.392 49.424 65.36 49.344C65.232 49.024 64.944 48.816 64.784 48.672C64.736 48.608 64.704 48.576 64.704 48.544C64.704 48.512 64.768 48.512 64.864 48.512C67.52 48.512 69.312 47.184 69.984 46.176C70.16 45.936 70.272 45.68 70.352 45.44C69.952 45.44 69.584 45.44 69.312 45.456C69.328 45.6 69.328 45.76 69.328 45.904V45.936C69.328 46 69.28 46.016 69.184 46.032C68.976 46.048 68.592 46.048 68.4 46.032C68.304 46.016 68.24 45.984 68.256 45.92C68.352 45.04 68.384 44 68.384 43.12C68.384 41.84 68.384 41.12 68.304 39.92V39.904C68.304 39.84 68.352 39.808 68.432 39.808C69.712 39.872 70.896 39.872 71.952 39.872C73.088 39.872 74.064 39.872 75.36 39.792C75.488 39.792 75.52 39.856 75.52 39.904C75.456 40.912 75.44 41.76 75.44 42.64C75.44 43.456 75.488 44.736 75.568 45.792C75.568 45.872 75.504 45.92 75.424 45.92C75.168 45.936 74.832 45.952 74.64 45.936C74.544 45.92 74.48 45.904 74.48 45.808C74.496 45.696 74.496 45.568 74.512 45.456C74.272 45.456 73.936 45.44 73.552 45.44L73.44 45.552C73.296 45.648 73.312 45.696 73.296 45.856C73.264 46.192 73.248 46.64 73.248 47.024C73.248 47.232 73.264 47.424 73.264 47.536C73.264 47.872 73.536 48.064 74.048 48.128C74.384 48.16 74.784 48.176 75.216 48.176C75.904 48.176 76.64 48.128 77.104 48.032C77.776 47.904 77.952 47.36 77.984 46.368C77.984 46.272 78.048 46.288 78.096 46.352C78.288 46.576 78.624 46.928 78.96 47.072C79.04 47.104 79.072 47.152 79.04 47.248C78.88 48.176 78.416 48.832 77.136 48.96C76.56 49.024 75.856 49.056 75.184 49.056C74.72 49.056 74.272 49.04 73.872 48.992C72.672 48.864 72.304 48.496 72.304 47.856C72.304 47.392 72.336 46.864 72.336 46.064C72.336 45.824 72.336 45.6 72.32 45.424H71.904C71.552 45.424 71.184 45.424 70.816 45.44C71.024 45.536 71.248 45.664 71.424 45.776C71.504 45.824 71.536 45.888 71.536 45.936C71.536 46 71.456 46.064 71.312 46.096C71.152 46.128 70.912 46.48 70.752 46.704C69.952 47.84 68.144 49.136 65.6 49.424C65.568 49.424 65.536 49.44 65.504 49.44ZM65.968 40.688C66.032 40 66.096 39.536 66.096 38.864C66.096 38.576 66.08 38.304 66.048 37.984C66.048 37.872 66.064 37.856 66.192 37.856C68.336 37.952 69.568 37.968 70.928 37.968H73.488C74.256 37.024 75.024 35.712 75.264 35.104C75.328 34.976 75.328 34.96 75.472 35.008C75.664 35.072 76.128 35.28 76.384 35.456C76.448 35.504 76.48 35.536 76.48 35.568C76.48 35.648 76.368 35.696 76.24 35.776C76.096 35.872 76.032 35.936 75.92 36.08C75.6 36.528 75.04 37.344 74.544 37.968C75.52 37.952 76.528 37.92 77.856 37.856C77.968 37.856 77.984 37.888 77.984 37.984C77.952 38.336 77.936 38.656 77.936 38.896C77.936 39.472 77.936 39.744 78.032 40.624C78.032 40.688 77.984 40.736 77.92 40.736C77.808 40.752 77.6 40.752 77.424 40.752C77.232 40.752 77.056 40.752 76.976 40.736C76.88 40.72 76.848 40.704 76.864 40.624C76.912 40.016 76.912 39.104 76.912 38.784C76.08 38.752 75.008 38.752 73.952 38.752H71.984C70.304 38.752 68.56 38.752 67.12 38.784C67.12 39.216 67.12 39.776 67.168 40.688C67.168 40.768 67.136 40.8 67.04 40.816C66.816 40.832 66.24 40.832 66.096 40.816C66 40.8 65.952 40.768 65.968 40.688ZM67.424 35.584C67.424 35.552 67.456 35.536 67.52 35.488C67.68 35.408 68.032 35.232 68.16 35.184C68.24 35.152 68.256 35.152 68.32 35.216C68.624 35.44 69.6 36.432 69.92 37.024C69.952 37.088 69.968 37.136 69.888 37.2C69.76 37.312 69.36 37.536 69.168 37.632C69.104 37.664 69.04 37.648 69.008 37.584C68.688 36.896 67.792 35.952 67.456 35.648C67.44 35.632 67.424 35.6 67.424 35.584ZM69.264 43.104C69.888 43.104 70.976 43.12 71.904 43.12C72.928 43.12 74.032 43.104 74.56 43.088V42.208C74.016 42.192 72.928 42.176 71.92 42.176C70.976 42.176 69.888 42.192 69.264 42.208V43.104ZM69.264 41.52C69.904 41.52 70.976 41.536 71.904 41.536C72.912 41.536 74.016 41.52 74.544 41.504C74.544 40.976 74.528 40.56 74.528 40.56C74.528 40.56 72.992 40.544 71.952 40.544C70.912 40.544 69.28 40.56 69.28 40.56C69.28 40.56 69.28 40.992 69.264 41.52ZM69.28 43.792C69.28 44.096 69.28 44.416 69.296 44.768C69.92 44.768 70.976 44.784 71.904 44.784C72.912 44.784 73.984 44.768 74.528 44.768C74.544 44.416 74.544 44.08 74.56 43.792C74.016 43.776 72.928 43.76 71.92 43.76C70.976 43.76 69.888 43.776 69.28 43.792ZM70.8 35.184C70.736 35.104 70.736 35.056 70.848 35.024C71.008 34.96 71.376 34.832 71.52 34.8H71.568C71.6 34.8 71.632 34.816 71.68 34.864C71.904 35.136 72.672 36.352 72.88 36.944C72.896 36.976 72.896 36.992 72.896 37.024C72.896 37.056 72.88 37.072 72.816 37.12C72.688 37.2 72.256 37.376 72.032 37.44C71.968 37.472 71.904 37.44 71.888 37.376C71.68 36.576 71.024 35.488 70.8 35.184ZM88.416 48.24C87.664 48.24 86.8 48.16 86 47.888C84.48 47.376 83.712 46.336 83.712 45.344C83.712 44.432 84.384 43.552 85.776 43.2C86.544 43.008 87.408 42.944 88.208 42.944C89.296 42.944 90.256 43.056 90.704 43.136C90.224 42.496 89.552 41.376 88.944 40.16C87.824 40.4 86.64 40.528 85.536 40.528C84.832 40.528 84.16 40.48 83.568 40.352C83.504 40.352 83.472 40.272 83.44 40.192C83.408 40.048 83.392 39.44 83.408 39.28C83.408 39.184 83.44 39.168 83.552 39.2C84.208 39.376 84.96 39.456 85.744 39.456C86.656 39.456 87.6 39.36 88.496 39.168C88.128 38.32 87.824 37.456 87.664 36.688C87.648 36.56 87.632 36.528 87.728 36.512C87.936 36.48 88.256 36.448 88.528 36.448C88.88 36.448 88.96 36.512 88.96 36.624C88.96 36.736 88.88 36.896 88.896 37.104C88.96 37.632 89.168 38.272 89.44 38.944C90.16 38.736 90.848 38.48 91.424 38.176C91.456 38.16 91.472 38.16 91.488 38.16C91.552 38.16 91.584 38.192 91.616 38.256C91.696 38.384 91.936 38.784 92.016 39.008V39.04C92.016 39.088 92 39.152 91.92 39.184C91.328 39.472 90.624 39.712 89.888 39.92C90.656 41.504 91.728 43.12 92.592 44.192C92.64 44.24 92.624 44.304 92.56 44.352C92.4 44.464 91.984 44.608 91.76 44.672H91.712C91.648 44.672 91.616 44.656 91.568 44.624C91.392 44.496 91.328 44.352 90.56 44.16C89.872 43.984 88.976 43.856 88.08 43.856C87.408 43.856 86.736 43.936 86.16 44.08C85.28 44.304 84.848 44.832 84.848 45.392C84.848 45.984 85.344 46.608 86.336 46.912C86.944 47.088 87.616 47.152 88.24 47.152C89.136 47.152 89.968 47.024 90.512 46.896H90.576C90.64 46.896 90.64 46.928 90.608 47.04C90.544 47.28 90.416 47.616 90.384 47.84C90.352 48 90.272 48.064 90.064 48.112C89.68 48.176 89.088 48.24 88.416 48.24ZM104.864 47.824C104.448 47.824 104.032 47.808 103.632 47.76C102.096 47.6 101.216 46.832 101.04 45.328C101.024 45.12 101.008 44.864 101.008 44.592C101.008 44.064 101.04 43.44 101.04 42.88C101.04 42.64 101.024 42.368 101.024 42.08C99.648 42.288 98.416 42.512 97.52 42.688H97.456C97.392 42.688 97.36 42.672 97.328 42.608C97.248 42.464 97.024 41.904 96.992 41.712V41.664C96.992 41.6 97.024 41.584 97.152 41.584C97.6 41.568 98.416 41.488 98.88 41.424C99.584 41.328 100.304 41.248 101.024 41.152C101.008 40.528 100.992 39.936 100.96 39.488C100.944 39.152 100.912 38.656 100.832 38.272V38.208C100.832 38.16 100.848 38.128 100.944 38.128C101.168 38.128 101.84 38.192 102.208 38.272C102.336 38.304 102.368 38.368 102.368 38.432C102.368 38.544 102.256 38.672 102.208 38.736C102.08 38.928 102.064 39.248 102.048 39.632V41.008C103.392 40.816 104.752 40.64 106.112 40.464C106.144 39.728 106.176 38.944 106.176 38.192C106.176 37.888 106.16 37.6 106.144 37.376V37.296C106.144 37.248 106.16 37.232 106.208 37.232C106.416 37.232 107.056 37.344 107.392 37.456C107.536 37.504 107.584 37.552 107.584 37.6C107.584 37.744 107.28 37.904 107.264 38.112C107.184 38.72 107.136 39.504 107.072 40.352C108.304 40.208 109.536 40.08 110.736 40H110.768C110.848 40 110.848 40.048 110.864 40.128C110.896 40.336 110.928 40.816 110.912 40.992C110.912 41.056 110.88 41.104 110.8 41.104C109.712 41.088 108.4 41.168 107.008 41.296C106.944 41.984 106.848 42.816 106.752 43.28C106.512 44.32 105.872 44.72 105.024 44.72C104.784 44.72 104.544 44.688 104.288 44.64C104.208 44.624 104.112 44.576 104.096 44.448C104.08 44.224 104 43.968 103.936 43.776C103.904 43.664 103.888 43.632 104 43.648C104.272 43.696 104.528 43.728 104.752 43.728C105.296 43.728 105.712 43.552 105.824 42.992C105.904 42.608 105.984 41.968 106.032 41.392C104.688 41.536 103.312 41.728 102.016 41.92C102.016 42.224 102.016 42.528 102 42.848C101.984 43.248 101.984 43.632 101.984 44C101.984 44.432 101.984 44.832 102.016 45.152C102.096 46.192 102.672 46.624 103.744 46.768C103.984 46.8 104.256 46.816 104.528 46.816C105.392 46.816 106.384 46.688 107.44 46.48C107.472 46.48 107.488 46.464 107.52 46.464C107.584 46.464 107.616 46.512 107.584 46.64C107.52 46.992 107.456 47.184 107.408 47.424C107.36 47.616 107.264 47.616 107.152 47.648C106.384 47.76 105.616 47.824 104.864 47.824ZM119.616 48.032C118.864 48.032 118.128 47.888 117.584 47.584C116.848 47.184 116.528 46.592 116.528 46.048C116.528 45.28 117.2 44.56 118.32 44.56C119.616 44.56 120.704 45.536 120.544 47.072C121.136 46.96 121.696 46.752 122.128 46.432C123.008 45.792 123.504 44.896 123.504 44.048C123.504 43.312 123.136 42.608 122.288 42.16C121.84 41.92 121.232 41.792 120.608 41.792C119.52 41.792 118.336 42.128 117.552 42.768C116.8 43.376 116.192 43.968 115.696 44.448C115.648 44.496 115.6 44.496 115.536 44.448C115.392 44.368 114.928 43.984 114.816 43.856C114.768 43.792 114.8 43.728 114.832 43.696C116.576 42.352 120.48 38.608 120.896 38.064C120.992 37.952 120.96 37.952 120.832 37.984C119.648 38.336 117.84 38.576 116.768 38.672H116.688C116.608 38.672 116.576 38.656 116.528 38.56C116.448 38.416 116.288 37.888 116.272 37.744V37.68C116.272 37.6 116.304 37.552 116.432 37.584C116.576 37.6 116.752 37.6 116.944 37.6C118.352 37.6 120.928 37.232 121.568 36.944C121.616 36.912 121.648 36.912 121.68 36.912C121.744 36.912 121.792 36.928 121.856 36.976C122 37.056 122.416 37.328 122.608 37.52C122.656 37.568 122.672 37.616 122.672 37.648C122.672 37.792 122.432 37.888 122.352 37.968C122.032 38.272 119.76 40.496 119.056 41.168C118.944 41.264 118.944 41.344 119.104 41.28C119.6 41.088 120.288 40.976 120.976 40.976C121.6 40.976 122.224 41.072 122.72 41.312C123.936 41.872 124.576 42.912 124.576 44.048C124.576 45.12 123.984 46.272 122.784 47.136C121.952 47.712 120.752 48.032 119.616 48.032ZM117.488 46.064C117.488 46.336 117.68 46.656 118.064 46.848C118.464 47.056 119.008 47.168 119.584 47.168C119.6 47.04 119.616 46.912 119.616 46.8C119.616 45.872 118.992 45.376 118.368 45.376C117.792 45.376 117.488 45.696 117.488 46.064ZM132.048 48.832C131.184 47.84 129.904 46.88 129.2 46.464C129.12 46.4 129.104 46.384 129.184 46.272C129.264 46.144 129.6 45.808 129.712 45.728C129.76 45.68 129.792 45.648 129.872 45.696C130.528 46.064 131.904 46.976 132.864 47.888C132.928 47.952 132.912 48.016 132.88 48.08C132.768 48.272 132.368 48.704 132.224 48.832C132.176 48.88 132.112 48.896 132.048 48.832Z" fill="#E5E5E5"/>
<path d="M2.592 104.32C2.448 104.32 2.376 104.272 2.352 104.128C2.328 103.912 2.328 103.36 2.352 103.144C2.376 102.952 2.424 102.952 2.592 102.952C6.672 103.096 9.024 103.096 11.256 103.096V101.44C9.552 101.44 8.088 101.464 5.28 101.56C5.136 101.56 5.088 101.488 5.088 101.368C5.064 101.152 5.064 100.648 5.088 100.432C5.088 100.288 5.112 100.24 5.28 100.264C7.968 100.384 9.672 100.408 11.256 100.408V98.824C9.216 98.824 7.2 98.824 4.032 98.944C3.864 98.944 3.816 98.896 3.792 98.776C3.768 98.56 3.768 97.96 3.792 97.768C3.816 97.624 3.816 97.552 4.008 97.576C7.104 97.696 9.36 97.72 11.232 97.72C11.208 96.736 11.136 96.088 10.992 95.44V95.344C10.992 95.272 11.016 95.248 11.088 95.248C11.4 95.248 12.36 95.344 13.032 95.56C13.2 95.608 13.248 95.68 13.248 95.776C13.248 95.92 13.032 96.136 12.912 96.4C12.768 96.712 12.744 96.928 12.72 97.72C14.784 97.72 16.848 97.696 19.848 97.576C19.992 97.576 20.016 97.648 20.04 97.768C20.064 97.984 20.064 98.56 20.04 98.776C20.016 98.896 19.968 98.944 19.872 98.944C16.92 98.848 14.736 98.824 12.696 98.824V100.408C14.304 100.408 15.552 100.384 18.24 100.264C18.36 100.264 18.384 100.312 18.408 100.456C18.432 100.672 18.432 101.176 18.408 101.392C18.384 101.488 18.336 101.56 18.24 101.56C15.504 101.464 14.256 101.44 12.696 101.44V103.096H14.28C16.248 103.096 18.408 103.072 21.6 102.952C21.744 102.952 21.768 103.024 21.768 103.144C21.792 103.264 21.816 103.456 21.816 103.648C21.816 103.864 21.792 104.056 21.768 104.176C21.768 104.272 21.72 104.32 21.6 104.32C18.408 104.2 16.08 104.2 14.016 104.2H9.648C7.728 104.2 5.736 104.224 2.592 104.32ZM6.36 116.392C6.456 114.736 6.528 112.432 6.528 109.576C6.528 108.712 6.504 107.152 6.384 105.688V105.568C6.384 105.472 6.432 105.448 6.624 105.472C7.824 105.52 10.704 105.568 12.072 105.568C13.392 105.568 16.32 105.544 17.52 105.472H17.568C17.688 105.472 17.736 105.544 17.736 105.688C17.568 108.184 17.592 109.768 17.592 110.512C17.592 111.04 17.616 112.216 17.712 114.088C17.76 115.456 17.136 116.512 14.4 116.536C14.304 116.536 14.208 116.488 14.16 116.344C14.088 116.008 13.608 115.504 13.272 115.12C13.152 115 13.176 114.952 13.368 114.976C13.896 115.048 14.328 115.072 14.688 115.072C15.792 115.072 16.176 114.736 16.176 113.896C16.176 113.344 16.2 112.84 16.2 112.408L11.976 112.384L7.896 112.408C7.896 113.968 7.944 115.408 7.968 116.416C7.968 116.512 7.872 116.584 7.728 116.584C7.464 116.608 6.912 116.608 6.552 116.584C6.408 116.584 6.36 116.536 6.36 116.392ZM7.872 111.208C9.024 111.232 11.184 111.232 11.976 111.232L16.2 111.208V109.576L11.976 109.552L7.872 109.576V111.208ZM7.872 108.4L11.952 108.424C12.792 108.424 15.192 108.4 16.176 108.376V106.696L12.024 106.672C10.896 106.696 8.04 106.696 7.896 106.696C7.896 106.768 7.896 107.608 7.872 108.4ZM36.816 114.568C36.624 114.568 36.432 114.52 36.288 114.304C36.072 113.944 35.76 113.704 35.496 113.464C35.4 113.368 35.352 113.32 35.352 113.272C35.352 113.2 35.448 113.176 35.592 113.176C40.896 113.272 44.184 110.296 44.184 107.104C44.184 105.928 43.752 104.728 42.816 103.648C41.88 102.544 40.416 101.824 38.832 101.56C38.808 101.56 38.808 101.56 38.808 101.584H38.712C38.568 101.584 38.472 101.632 38.4 101.824C37.848 103.336 35.184 109.384 32.88 112.696C32.568 113.152 32.208 113.32 31.824 113.32C31.56 113.32 31.296 113.248 31.032 113.104C29.352 112.24 28.416 110.392 28.416 108.304C28.416 106.072 29.52 103.576 31.968 101.824C33.504 100.744 35.52 100.192 37.536 100.192C39.984 100.192 42.432 101.008 44.016 102.688C45.216 103.984 45.792 105.544 45.792 107.128C45.792 110.656 42.816 114.208 36.936 114.568H36.816ZM29.928 108.184C29.928 109.504 30.432 110.656 31.296 111.304C31.416 111.376 31.512 111.424 31.608 111.424C31.728 111.424 31.848 111.352 31.944 111.232C33.792 108.664 36.192 103.24 36.768 101.488C35.376 101.608 34.008 102.088 32.808 102.952C30.792 104.44 29.928 106.456 29.928 108.184ZM56.04 116.104C55.896 116.08 55.848 116.032 55.848 115.888C56.088 111.808 56.088 108.04 56.088 104.8V103.912C54.96 103.936 53.712 103.984 52.176 104.032C52.032 104.032 51.936 104.008 51.936 103.864C51.912 103.6 51.912 102.904 51.936 102.64C51.936 102.472 51.984 102.448 52.176 102.448C53.736 102.52 54.984 102.544 56.088 102.568V101.44C56.088 100 56.064 98.56 55.92 97.504V97.432C55.92 97.336 55.968 97.312 56.088 97.312C56.448 97.36 57.312 97.432 57.84 97.6C57.984 97.648 58.032 97.72 58.032 97.816C58.032 97.984 57.912 98.176 57.816 98.392C57.72 98.56 57.6 98.776 57.576 99.496C57.552 100.216 57.552 101.44 57.528 102.616H61.416V102.496C61.416 101.656 61.44 100.84 61.44 100.024C61.44 98.8 61.392 97.624 61.224 96.472V96.424C61.224 96.304 61.296 96.304 61.416 96.328C61.704 96.352 62.568 96.448 63.096 96.616C63.24 96.664 63.288 96.736 63.288 96.808C63.288 96.952 63.192 97.144 63.096 97.336C62.952 97.648 62.88 97.864 62.856 98.608C62.832 99.496 62.808 101.296 62.784 102.496V102.616H66.6V102.496C66.6 101.608 66.624 100.768 66.624 99.952C66.624 98.824 66.576 97.72 66.432 96.616V96.568C66.432 96.496 66.456 96.448 66.528 96.448C66.84 96.448 67.656 96.568 68.232 96.76C68.4 96.808 68.472 96.88 68.472 97C68.472 97.12 68.352 97.288 68.256 97.528C68.16 97.744 68.064 98.032 68.04 98.728C68.016 99.664 67.968 101.296 67.968 102.496V102.592C69.36 102.568 70.872 102.52 72.72 102.448C72.888 102.448 72.912 102.496 72.912 102.64C72.936 102.928 72.936 103.6 72.912 103.888C72.912 103.984 72.84 104.032 72.72 104.032C70.92 103.96 69.384 103.936 67.968 103.912C67.992 106.36 68.064 108.472 68.136 110.824C68.136 110.944 68.088 110.992 67.968 110.992C67.8 111.016 67.56 111.016 67.32 111.016C67.104 111.016 66.864 111.016 66.72 110.992C66.576 110.992 66.504 110.944 66.528 110.824C66.528 110.488 66.552 110.2 66.552 109.888C66 109.888 65.328 109.864 64.824 109.864L62.88 109.888C62.88 110.248 62.904 110.608 62.904 110.968C62.904 111.088 62.856 111.136 62.736 111.136C62.568 111.16 62.328 111.16 62.088 111.16C61.848 111.16 61.608 111.16 61.464 111.136C61.32 111.136 61.272 111.088 61.272 110.968C61.392 107.824 61.416 106.144 61.416 103.864C59.976 103.864 58.776 103.864 57.528 103.888V107.032C57.528 109.168 57.552 111.616 57.576 113.704C59.04 113.752 59.856 113.776 61.488 113.776C64.824 113.776 66.768 113.776 71.136 113.584C71.304 113.584 71.328 113.656 71.328 113.8C71.352 114.088 71.352 114.808 71.328 115.072C71.328 115.192 71.256 115.24 71.136 115.24C66.84 115.072 64.728 115.072 61.488 115.072C59.592 115.072 58.968 115.096 57.624 115.12C57.624 115.408 57.648 115.672 57.648 115.912C57.648 116.032 57.6 116.08 57.48 116.104C57.144 116.128 56.328 116.128 56.04 116.104ZM62.784 103.864L62.856 108.712C63.432 108.736 64.248 108.736 64.824 108.736C65.328 108.736 66.024 108.736 66.576 108.712C66.6 107.776 66.6 106.984 66.6 106.216V103.888C65.328 103.864 64.104 103.864 62.784 103.864ZM79.056 116.584C78.936 116.632 78.864 116.608 78.792 116.512C78.456 115.96 77.856 115.624 77.544 115.384C77.424 115.264 77.472 115.216 77.592 115.192C82.392 114.64 84.072 112 84.12 109.384C84.12 108.928 84.12 108.352 84.048 107.8C82.272 108.928 80.16 110.032 78.264 110.632C78.12 110.68 77.976 110.752 77.904 110.632C77.616 110.224 76.92 109.816 76.632 109.624C76.464 109.528 76.44 109.432 76.656 109.384C80.664 108.472 84.288 106.432 86.136 104.656L86.544 104.248C84.984 104.248 83.016 104.272 82.032 104.272C82.032 104.536 82.032 104.776 82.056 105.04C82.056 105.184 82.008 105.208 81.84 105.208C81.504 105.232 80.952 105.232 80.664 105.208C80.52 105.208 80.448 105.136 80.448 105.04C80.616 103.384 80.64 102.064 80.64 100.648C80.64 99.16 80.616 98.2 80.52 96.496V96.472C80.52 96.376 80.592 96.304 80.736 96.328C82.608 96.4 85.608 96.424 87.48 96.424C89.544 96.424 92.16 96.4 94.056 96.304H94.104C94.272 96.304 94.32 96.424 94.32 96.496C94.224 98.128 94.2 99.328 94.2 100.624C94.2 101.848 94.272 103.096 94.392 104.8V104.824C94.392 104.92 94.296 105.016 94.176 105.016C93.816 105.04 93.312 105.04 93.024 105.016C92.88 104.992 92.784 104.944 92.784 104.8C92.808 104.632 92.808 104.464 92.808 104.296C91.968 104.272 90.12 104.248 88.56 104.248C88.656 104.32 88.68 104.392 88.68 104.44C88.68 104.512 88.584 104.56 88.416 104.584C90.984 106.384 93.912 107.968 98.496 108.784C98.664 108.832 98.712 108.904 98.544 109.048C98.232 109.312 97.776 109.672 97.464 110.128C97.368 110.248 97.272 110.272 97.152 110.224C93.456 109.216 90.096 107.248 87.408 105.256L87.336 105.328C86.712 105.952 85.704 106.696 84.552 107.464C84.912 107.512 85.392 107.584 85.8 107.68C85.92 107.728 85.968 107.776 85.968 107.848C85.968 107.968 85.872 108.136 85.776 108.304C85.608 108.616 85.56 108.736 85.536 109.48C85.488 112.696 83.616 115.552 79.056 116.584ZM81.936 100.912C81.96 101.416 81.984 102.208 82.008 103.12C83.016 103.144 85.08 103.168 86.664 103.168C86.688 102.568 86.688 101.632 86.688 100.864C85.056 100.888 82.92 100.888 81.936 100.912ZM81.936 99.736C82.944 99.76 85.08 99.784 86.688 99.784C86.688 98.944 86.664 98.056 86.664 97.552C84.72 97.552 81.984 97.576 81.984 97.576L81.936 99.736ZM88.032 100.864C88.032 101.632 88.056 102.544 88.056 103.168C89.736 103.168 91.968 103.12 92.856 103.12C92.88 102.256 92.904 101.416 92.904 100.912C92.016 100.888 89.736 100.888 88.032 100.864ZM88.032 99.784C89.712 99.784 92.016 99.76 92.904 99.736L92.856 97.576C92.856 97.576 90.288 97.552 88.368 97.552C88.368 97.6 88.32 97.696 88.2 97.768C88.08 97.888 88.056 98.008 88.056 98.176C88.032 98.608 88.032 99.208 88.032 99.784ZM89.304 107.608V107.512C89.304 107.44 89.328 107.44 89.472 107.44C89.832 107.488 90.552 107.56 91.104 107.728C91.272 107.776 91.344 107.824 91.344 107.896C91.344 107.992 91.248 108.112 91.128 108.256C90.96 108.472 90.936 109.24 90.936 110.176V111.328C90.936 112.864 91.008 114.328 91.104 116.128C91.104 116.248 91.032 116.272 90.936 116.296C90.576 116.32 89.904 116.32 89.616 116.296C89.448 116.272 89.4 116.248 89.424 116.128C89.496 114.808 89.496 113.776 89.496 112.792V111.328C89.496 110.128 89.52 108.568 89.304 107.608ZM122.016 112.408C121.944 112.408 121.896 112.408 121.8 112.36C118.152 110.872 112.128 105.928 110.736 105.04C110.352 104.8 110.016 104.632 109.656 104.632C109.344 104.632 109.032 104.776 108.696 105.064C107.88 105.808 106.032 107.728 105.6 108.256C105.312 108.616 105.264 109.024 104.952 109.024C104.88 109.024 104.76 108.976 104.592 108.88C104.208 108.64 103.68 108.232 103.44 107.968C103.32 107.848 103.344 107.776 103.464 107.704C105.264 106.456 106.464 105.016 107.856 103.768C108.408 103.264 109.008 103.048 109.584 103.048C110.256 103.048 110.928 103.336 111.552 103.744C113.184 104.848 118.944 109.408 122.904 110.824C123.048 110.872 123.12 110.92 123.12 110.992C123.12 111.064 123.072 111.136 123 111.256C122.808 111.544 122.448 112.024 122.208 112.312C122.136 112.384 122.088 112.408 122.016 112.408Z" fill="#E5E5E5"/>
</svg>
