<svg width="167" height="28" viewBox="0 0 167 28" fill="none" xmlns="http://www.w3.org/2000/svg">
<path d="M17.408 1.408L19.072 0.383995C19.648 1.6 20.128 2.432 20.864 3.52C21.984 2.4 22.72 1.472 23.584 0.223995L25.184 1.472C25.248 1.504 25.472 1.696 25.472 1.856C25.472 2.112 25.184 2.144 24.608 2.208C23.68 3.296 22.72 4.256 21.952 5.024C22.496 5.728 22.944 6.24 23.456 6.784C24.928 5.408 25.664 4.64 26.816 3.232L28.416 4.54399C28.512 4.608 28.64 4.736 28.64 4.896C28.64 5.152 28.384 5.152 27.744 5.184C26.496 6.432 26.4 6.528 24.736 8.064C26.496 9.664 27.904 10.592 28.736 11.136L26.816 12.64C22.432 9.216 19.744 6.112 17.408 1.408ZM12.32 9.152H22.592V11.328H12.096V9.472C10.272 11.36 9.21597 12.416 8.25597 13.152L6.75197 11.328C8.60797 10.048 9.95197 8.864 11.424 7.136C11.04 6.592 10.4 5.632 8.51197 4.064L9.75997 2.496C10.88 3.328 11.808 4.352 12.736 5.408C13.696 4.16 14.24 3.264 14.816 1.984H7.90397V-3.8147e-06H16.832L17.504 0.831995C16.768 3.104 15.2 5.952 12.32 9.152ZM10.656 20.32V13.472H24V20.32H10.656ZM21.76 18.4V15.392H12.896V18.4H21.76ZM1.66397 2.4L2.65597 0.383995C4.63997 1.152 6.04797 2.016 7.16797 2.816L6.07997 4.736C4.76797 3.904 3.07197 3.072 1.66397 2.4ZM-2.82526e-05 11.392L0.991972 9.312C2.04797 9.728 4.09597 10.56 5.40797 11.648L4.31997 13.664C2.97597 12.672 1.72797 12 -2.82526e-05 11.392ZM6.23997 15.552L7.90397 17.152C6.65597 19.904 5.21597 23.008 3.32797 26.752C3.39197 26.944 3.42397 27.104 3.42397 27.36C3.42397 27.456 3.42397 27.808 3.13597 27.808C2.97597 27.808 2.71997 27.616 2.68797 27.584L0.575972 26.144C2.59197 23.168 4.15997 20.224 6.23997 15.552ZM21.152 24.896L19.232 24.16C19.904 23.232 20.544 22.176 21.152 20.576L23.04 21.504C23.2 21.568 23.424 21.696 23.424 21.856C23.424 22.144 23.136 22.208 22.656 22.304C21.792 23.936 21.696 24.096 21.152 24.896ZM14.336 24.992H28.416V27.072H7.16797V24.992H13.856C13.184 23.808 12.512 22.976 11.52 21.824L13.184 20.64C14.368 21.92 15.072 22.88 15.776 24L14.336 24.992ZM49.696 10.688C51.232 10.688 52.576 11.936 52.576 13.568C52.576 15.168 51.264 16.448 49.696 16.448C48.096 16.448 46.848 15.136 46.848 13.568C46.848 11.968 48.128 10.688 49.696 10.688ZM88.16 4.8H80.416V25.728H77.504V4.8H69.792V2.368H88.16V4.8ZM113.308 2.368L104.7 16.064V25.728H101.724V16.064L93.1162 2.368H96.4762L103.228 13.44L109.98 2.368H113.308ZM139.63 14.048C139.63 21.536 135.502 26.368 129.518 26.368C123.502 26.368 119.374 21.504 119.374 14.048C119.374 6.624 123.47 1.72799 129.518 1.72799C135.534 1.72799 139.63 6.624 139.63 14.048ZM136.622 14.048C136.622 8.256 133.998 4.128 129.518 4.128C125.038 4.128 122.414 8.224 122.414 14.048C122.414 19.872 125.038 23.968 129.518 23.968C134.03 23.968 136.622 19.808 136.622 14.048ZM166.472 17.28C166.472 22.176 163.24 26.368 157.096 26.368C148.296 26.368 147.496 19.264 147.496 17.28V2.368H150.408V17.696C150.408 20.64 152.136 23.968 156.904 23.968C163.08 23.968 163.56 19.136 163.56 17.696V2.368H166.472V17.28Z" fill="white"/>
</svg>
