<svg width="198" height="54" viewBox="0 0 198 54" fill="none" xmlns="http://www.w3.org/2000/svg">
<path d="M186.254 21.2463L194.686 27.6865L186.254 34.1267" stroke="#E5E5E5" stroke-width="3" stroke-linecap="round"/>
<path d="M18.912 14.68L20.576 13.656C21.152 14.872 21.632 15.704 22.368 16.792C23.488 15.672 24.224 14.744 25.088 13.496L26.688 14.744C26.752 14.776 26.976 14.968 26.976 15.128C26.976 15.384 26.688 15.416 26.112 15.48C25.184 16.568 24.224 17.528 23.456 18.296C24 19 24.448 19.512 24.96 20.056C26.432 18.68 27.168 17.912 28.32 16.504L29.92 17.816C30.016 17.88 30.144 18.008 30.144 18.168C30.144 18.424 29.888 18.424 29.248 18.456C28 19.704 27.904 19.8 26.24 21.336C28 22.936 29.408 23.864 30.24 24.408L28.32 25.912C23.936 22.488 21.248 19.384 18.912 14.68ZM13.824 22.424H24.096V24.6H13.6V22.744C11.776 24.632 10.72 25.688 9.76 26.424L8.256 24.6C10.112 23.32 11.456 22.136 12.928 20.408C12.544 19.864 11.904 18.904 10.016 17.336L11.264 15.768C12.384 16.6 13.312 17.624 14.24 18.68C15.2 17.432 15.744 16.536 16.32 15.256H9.408V13.272H18.336L19.008 14.104C18.272 16.376 16.704 19.224 13.824 22.424ZM12.16 33.592V26.744H25.504V33.592H12.16ZM23.264 31.672V28.664H14.4V31.672H23.264ZM3.168 15.672L4.16 13.656C6.144 14.424 7.552 15.288 8.672 16.088L7.584 18.008C6.272 17.176 4.576 16.344 3.168 15.672ZM1.504 24.664L2.496 22.584C3.552 23 5.6 23.832 6.912 24.92L5.824 26.936C4.48 25.944 3.232 25.272 1.504 24.664ZM7.744 28.824L9.408 30.424C8.16 33.176 6.72 36.28 4.832 40.024C4.896 40.216 4.928 40.376 4.928 40.632C4.928 40.728 4.928 41.08 4.64 41.08C4.48 41.08 4.224 40.888 4.192 40.856L2.08 39.416C4.096 36.44 5.664 33.496 7.744 28.824ZM22.656 38.168L20.736 37.432C21.408 36.504 22.048 35.448 22.656 33.848L24.544 34.776C24.704 34.84 24.928 34.968 24.928 35.128C24.928 35.416 24.64 35.48 24.16 35.576C23.296 37.208 23.2 37.368 22.656 38.168ZM15.84 38.264H29.92V40.344H8.672V38.264H15.36C14.688 37.08 14.016 36.248 13.024 35.096L14.688 33.912C15.872 35.192 16.576 36.152 17.28 37.272L15.84 38.264ZM51.2 23.96C52.736 23.96 54.08 25.208 54.08 26.84C54.08 28.44 52.768 29.72 51.2 29.72C49.6 29.72 48.352 28.408 48.352 26.84C48.352 25.24 49.632 23.96 51.2 23.96ZM89.664 18.072H81.92V39H79.008V18.072H71.296V15.64H89.664V18.072ZM114.812 15.64L106.204 29.336V39H103.228V29.336L94.6202 15.64H97.9802L104.732 26.712L111.484 15.64H114.812ZM141.135 27.32C141.135 34.808 137.007 39.64 131.023 39.64C125.007 39.64 120.879 34.776 120.879 27.32C120.879 19.896 124.975 15 131.023 15C137.039 15 141.135 19.896 141.135 27.32ZM138.127 27.32C138.127 21.528 135.503 17.4 131.023 17.4C126.543 17.4 123.919 21.496 123.919 27.32C123.919 33.144 126.543 37.24 131.023 37.24C135.535 37.24 138.127 33.08 138.127 27.32ZM167.976 30.552C167.976 35.448 164.744 39.64 158.6 39.64C149.8 39.64 149 32.536 149 30.552V15.64H151.912V30.968C151.912 33.912 153.64 37.24 158.408 37.24C164.584 37.24 165.064 32.408 165.064 30.968V15.64H167.976V30.552Z" fill="white"/>
<path d="M0 42.2H170.632V43.8H0V42.2Z" fill="white"/>
</svg>
