<svg width="390" height="159" viewBox="0 0 390 159" fill="none" xmlns="http://www.w3.org/2000/svg">
<path d="M18.7188 80.5625C18.7188 72.875 20.5104 66.7396 24.0938 62.1562C27.3021 58.0104 31.1875 55.9375 35.75 55.9375C40.3125 55.9375 44.1979 58.0104 47.4062 62.1562C50.9896 66.7396 52.7812 72.9792 52.7812 80.875C52.7812 88.75 50.9896 94.9792 47.4062 99.5625C44.1979 103.708 40.3229 105.781 35.7812 105.781C31.2396 105.781 27.3438 103.708 24.0938 99.5625C20.5104 94.9792 18.7188 88.6458 18.7188 80.5625ZM25.875 80.5938C25.875 85.9479 26.8021 90.3958 28.6562 93.9375C30.5104 97.4167 32.875 99.1562 35.75 99.1562C38.6042 99.1562 40.9688 97.4167 42.8438 93.9375C44.7188 90.4792 45.6562 86.1146 45.6562 80.8438C45.6562 75.5729 44.7188 71.1979 42.8438 67.7188C40.9688 64.2604 38.6042 62.5312 35.75 62.5312C32.9167 62.5312 30.5625 64.2604 28.6875 67.7188C26.8125 71.1562 25.875 75.4479 25.875 80.5938ZM78.4625 82.5938V76.375C81.5458 76.375 83.6188 76.0312 84.6813 75.3438C86.5771 74.1354 87.525 72.1979 87.525 69.5312C87.525 67.4688 86.8375 65.7917 85.4625 64.5C84.1083 63.1875 82.3479 62.5312 80.1813 62.5312C78.1604 62.5312 76.5979 63.0208 75.4938 64C74.4313 65 73.6396 66.6875 73.1188 69.0625H65.8688C66.6188 64.5208 68.1604 61.1979 70.4938 59.0938C72.8271 56.9688 76.0875 55.9062 80.275 55.9062C84.5042 55.9062 87.9521 57.1562 90.6188 59.6562C93.2854 62.1354 94.6188 65.3333 94.6188 69.25C94.6188 73.6667 92.8688 77.1042 89.3688 79.5625C93.3688 81.9167 95.3688 85.7396 95.3688 91.0312C95.3688 95.3646 93.9104 98.9062 90.9938 101.656C88.0771 104.406 84.3375 105.781 79.775 105.781C73.9625 105.781 69.65 103.646 66.8375 99.375C65.6708 97.5833 64.9313 95.1042 64.6188 91.9375H71.65C72.025 94.2708 72.9313 96.0625 74.3688 97.3125C75.8271 98.5417 77.7229 99.1562 80.0563 99.1562C82.4104 99.1562 84.3583 98.375 85.9 96.8125C87.4417 95.2083 88.2125 93.1771 88.2125 90.7188C88.2125 87.4688 87.0563 85.1562 84.7438 83.7812C83.3896 82.9896 81.2958 82.5938 78.4625 82.5938Z" fill="white"/>
<path d="M16.8 136.42V134.86H21.64V136.42H16.8ZM40.7853 126.72L36.9853 141H35.1653L32.3853 131.64C32.3053 131.36 32.2253 131.073 32.1453 130.78C32.0653 130.487 31.992 130.207 31.9253 129.94C31.8586 129.673 31.7986 129.447 31.7453 129.26C31.7053 129.06 31.6786 128.913 31.6653 128.82C31.652 128.913 31.6253 129.06 31.5853 129.26C31.5586 129.447 31.512 129.673 31.4453 129.94C31.3786 130.207 31.3053 130.493 31.2253 130.8C31.1586 131.093 31.0786 131.393 30.9853 131.7L28.2853 141H26.4653L22.6853 126.72H24.5653L26.7853 135.44C26.8653 135.747 26.9386 136.053 27.0053 136.36C27.072 136.653 27.132 136.947 27.1853 137.24C27.252 137.52 27.3053 137.793 27.3453 138.06C27.3853 138.327 27.4253 138.587 27.4653 138.84C27.5053 138.573 27.5453 138.3 27.5853 138.02C27.6386 137.74 27.6986 137.453 27.7653 137.16C27.832 136.853 27.9053 136.547 27.9853 136.24C28.0653 135.933 28.1453 135.633 28.2253 135.34L30.7453 126.72H32.6053L35.2253 135.4C35.3186 135.707 35.4053 136.02 35.4853 136.34C35.5653 136.647 35.6386 136.947 35.7053 137.24C35.772 137.533 35.8253 137.82 35.8653 138.1C35.9186 138.367 35.9653 138.613 36.0053 138.84C36.0453 138.507 36.0986 138.16 36.1653 137.8C36.232 137.427 36.312 137.04 36.4053 136.64C36.4986 136.24 36.5986 135.833 36.7053 135.42L38.9053 126.72H40.7853ZM55.2438 133.84C55.2438 134.947 55.1038 135.953 54.8238 136.86C54.5438 137.753 54.1238 138.527 53.5638 139.18C53.0171 139.833 52.3304 140.333 51.5038 140.68C50.6904 141.027 49.7438 141.2 48.6638 141.2C47.5438 141.2 46.5704 141.027 45.7438 140.68C44.9171 140.32 44.2304 139.82 43.6838 139.18C43.1371 138.527 42.7304 137.747 42.4638 136.84C42.1971 135.933 42.0638 134.927 42.0638 133.82C42.0638 132.353 42.3038 131.073 42.7838 129.98C43.2638 128.887 43.9904 128.033 44.9638 127.42C45.9504 126.807 47.1904 126.5 48.6838 126.5C50.1104 126.5 51.3104 126.807 52.2838 127.42C53.2571 128.02 53.9904 128.873 54.4838 129.98C54.9904 131.073 55.2438 132.36 55.2438 133.84ZM43.9638 133.84C43.9638 135.04 44.1304 136.073 44.4638 136.94C44.7971 137.807 45.3104 138.473 46.0038 138.94C46.7104 139.407 47.5971 139.64 48.6638 139.64C49.7438 139.64 50.6238 139.407 51.3038 138.94C51.9971 138.473 52.5104 137.807 52.8438 136.94C53.1771 136.073 53.3438 135.04 53.3438 133.84C53.3438 132.04 52.9704 130.633 52.2238 129.62C51.4771 128.593 50.2971 128.08 48.6838 128.08C47.6038 128.08 46.7104 128.313 46.0038 128.78C45.3104 129.233 44.7971 129.893 44.4638 130.76C44.1304 131.613 43.9638 132.64 43.9638 133.84ZM62.3487 126.72C63.5354 126.72 64.5088 126.873 65.2688 127.18C66.0421 127.473 66.6154 127.92 66.9888 128.52C67.3621 129.12 67.5488 129.873 67.5488 130.78C67.5488 131.54 67.4088 132.173 67.1288 132.68C66.8488 133.187 66.4888 133.593 66.0488 133.9C65.6221 134.193 65.1688 134.427 64.6888 134.6L68.6088 141H66.5088L63.0488 135.1H60.2088V141H58.4088V126.72H62.3487ZM62.2488 128.28H60.2088V133.58H62.3487C63.1221 133.58 63.7554 133.48 64.2488 133.28C64.7421 133.067 65.1021 132.76 65.3288 132.36C65.5688 131.96 65.6888 131.46 65.6888 130.86C65.6888 130.233 65.5621 129.733 65.3088 129.36C65.0688 128.987 64.6954 128.713 64.1888 128.54C63.6821 128.367 63.0354 128.28 62.2488 128.28ZM81.2902 141H79.1702L74.1102 134.18L72.6502 135.46V141H70.8502V126.72H72.6502V133.76C73.0502 133.307 73.4568 132.853 73.8702 132.4C74.2835 131.947 74.6968 131.493 75.1102 131.04L78.9702 126.72H81.0702L75.4102 132.94L81.2902 141ZM101.544 130.06C101.544 130.7 101.424 131.253 101.184 131.72C100.944 132.187 100.597 132.567 100.144 132.86C99.7036 133.153 99.1836 133.36 98.5836 133.48V133.56C99.7303 133.693 100.584 134.053 101.144 134.64C101.704 135.227 101.984 135.993 101.984 136.94C101.984 137.767 101.79 138.507 101.404 139.16C101.017 139.8 100.417 140.3 99.6036 140.66C98.8036 141.02 97.7703 141.2 96.5036 141.2C95.7569 141.2 95.0636 141.14 94.4236 141.02C93.7836 140.913 93.1703 140.713 92.5836 140.42V138.78C93.1836 139.073 93.8303 139.307 94.5236 139.48C95.2169 139.64 95.8836 139.72 96.5236 139.72C97.8036 139.72 98.7236 139.473 99.2836 138.98C99.8569 138.473 100.144 137.78 100.144 136.9C100.144 136.3 99.9836 135.82 99.6636 135.46C99.3569 135.087 98.9036 134.813 98.3036 134.64C97.7036 134.467 96.9836 134.38 96.1436 134.38H94.7636V132.88H96.1636C96.9503 132.88 97.6036 132.767 98.1236 132.54C98.6569 132.313 99.0569 132 99.3236 131.6C99.6036 131.187 99.7436 130.713 99.7436 130.18C99.7436 129.487 99.5103 128.953 99.0436 128.58C98.5769 128.193 97.9436 128 97.1436 128C96.6369 128 96.1769 128.053 95.7636 128.16C95.3503 128.253 94.9636 128.393 94.6036 128.58C94.2569 128.753 93.9036 128.96 93.5436 129.2L92.6636 128C93.0103 127.733 93.4036 127.487 93.8436 127.26C94.2969 127.033 94.7969 126.853 95.3436 126.72C95.8903 126.587 96.4836 126.52 97.1236 126.52C98.6169 126.52 99.7236 126.853 100.444 127.52C101.177 128.187 101.544 129.033 101.544 130.06ZM104.589 130.56C104.949 130.493 105.309 130.413 105.669 130.32C106.042 130.213 106.416 130.1 106.789 129.98C107.216 129.847 107.762 129.673 108.429 129.46C109.096 129.233 109.822 129.013 110.609 128.8C111.396 128.573 112.196 128.387 113.009 128.24C113.836 128.08 114.609 128 115.329 128C116.449 128 117.456 128.207 118.349 128.62C119.242 129.033 119.956 129.633 120.489 130.42C121.022 131.207 121.289 132.16 121.289 133.28C121.289 134.24 121.102 135.1 120.729 135.86C120.369 136.62 119.856 137.293 119.189 137.88C118.536 138.453 117.756 138.94 116.849 139.34C115.942 139.727 114.936 140.04 113.829 140.28C112.736 140.507 111.576 140.653 110.349 140.72L109.629 139.06C110.949 139.033 112.202 138.907 113.389 138.68C114.576 138.44 115.629 138.093 116.549 137.64C117.482 137.187 118.216 136.6 118.749 135.88C119.282 135.147 119.549 134.267 119.549 133.24C119.549 132.547 119.382 131.92 119.049 131.36C118.716 130.787 118.229 130.333 117.589 130C116.962 129.667 116.196 129.5 115.289 129.5C114.636 129.5 113.922 129.58 113.149 129.74C112.376 129.887 111.596 130.08 110.809 130.32C110.022 130.547 109.269 130.793 108.549 131.06C107.842 131.327 107.209 131.573 106.649 131.8C106.089 132.027 105.649 132.2 105.329 132.32L104.589 130.56ZM134.409 127.34C134.276 128.38 134.102 129.467 133.889 130.6C133.689 131.733 133.429 132.833 133.109 133.9C132.709 135.273 132.262 136.42 131.769 137.34C131.289 138.26 130.769 138.953 130.209 139.42C129.649 139.887 129.062 140.12 128.449 140.12C127.862 140.12 127.296 139.907 126.749 139.48C126.202 139.053 125.756 138.44 125.409 137.64C125.062 136.827 124.889 135.873 124.889 134.78C124.889 133.687 125.109 132.653 125.549 131.68C126.002 130.707 126.622 129.847 127.409 129.1C128.209 128.34 129.142 127.74 130.209 127.3C131.276 126.86 132.416 126.64 133.629 126.64C134.802 126.64 135.856 126.833 136.789 127.22C137.736 127.607 138.542 128.14 139.209 128.82C139.876 129.487 140.389 130.267 140.749 131.16C141.109 132.04 141.289 132.987 141.289 134C141.289 135.4 140.989 136.633 140.389 137.7C139.802 138.767 138.949 139.633 137.829 140.3C136.722 140.967 135.376 141.407 133.789 141.62L132.849 140.14C133.169 140.1 133.476 140.06 133.769 140.02C134.062 139.98 134.329 139.933 134.569 139.88C135.209 139.733 135.829 139.507 136.429 139.2C137.042 138.88 137.589 138.48 138.069 138C138.549 137.507 138.929 136.927 139.209 136.26C139.502 135.58 139.649 134.807 139.649 133.94C139.649 133.127 139.516 132.373 139.249 131.68C138.982 130.973 138.589 130.353 138.069 129.82C137.549 129.287 136.916 128.867 136.169 128.56C135.422 128.253 134.569 128.1 133.609 128.1C132.516 128.1 131.522 128.3 130.629 128.7C129.749 129.1 128.996 129.627 128.369 130.28C127.756 130.92 127.282 131.627 126.949 132.4C126.616 133.16 126.449 133.907 126.449 134.64C126.449 135.48 126.556 136.173 126.769 136.72C126.996 137.253 127.262 137.647 127.569 137.9C127.889 138.153 128.202 138.28 128.509 138.28C128.829 138.28 129.156 138.127 129.489 137.82C129.822 137.5 130.162 136.993 130.509 136.3C130.856 135.593 131.196 134.68 131.529 133.56C131.822 132.6 132.069 131.58 132.269 130.5C132.482 129.42 132.636 128.36 132.729 127.32L134.409 127.34ZM144.069 129.2H162.249V130.66H144.069V129.2ZM147.849 139.68H161.569V141.12H147.849V139.68ZM153.009 134.86H158.269V136.26H153.009V134.86ZM147.089 124.74H148.609V142.6H147.089V124.74ZM152.349 124.3H153.849V137.24H152.349V124.3ZM157.629 124.54H159.129V137.14H157.629V124.54ZM167.749 129.44V131.62H178.489V129.44H167.749ZM167.749 126.12V128.26H178.489V126.12H167.749ZM166.269 124.84H180.029V132.88H166.269V124.84ZM175.329 132.04C175.809 132.693 176.416 133.3 177.149 133.86C177.896 134.42 178.716 134.913 179.609 135.34C180.516 135.767 181.436 136.1 182.369 136.34C182.262 136.433 182.142 136.56 182.009 136.72C181.876 136.88 181.749 137.04 181.629 137.2C181.522 137.347 181.429 137.487 181.349 137.62C180.402 137.313 179.469 136.913 178.549 136.42C177.629 135.913 176.782 135.333 176.009 134.68C175.236 134.013 174.589 133.3 174.069 132.54L175.329 132.04ZM171.009 132.04L172.329 132.58C171.796 133.327 171.136 134.027 170.349 134.68C169.562 135.333 168.709 135.92 167.789 136.44C166.882 136.96 165.962 137.387 165.029 137.72C164.962 137.573 164.869 137.427 164.749 137.28C164.642 137.133 164.522 136.987 164.389 136.84C164.269 136.693 164.149 136.567 164.029 136.46C164.936 136.207 165.829 135.853 166.709 135.4C167.602 134.947 168.422 134.433 169.169 133.86C169.916 133.287 170.529 132.68 171.009 132.04ZM169.349 135.58H170.889V136.8C170.889 137.28 170.836 137.787 170.729 138.32C170.636 138.84 170.442 139.367 170.149 139.9C169.856 140.42 169.416 140.92 168.829 141.4C168.256 141.88 167.482 142.32 166.509 142.72C166.442 142.587 166.349 142.447 166.229 142.3C166.109 142.153 165.982 142.007 165.849 141.86C165.716 141.727 165.596 141.613 165.489 141.52C166.369 141.187 167.062 140.827 167.569 140.44C168.089 140.04 168.476 139.633 168.729 139.22C168.996 138.793 169.162 138.373 169.229 137.96C169.309 137.533 169.349 137.133 169.349 136.76V135.58ZM172.349 125.52H173.849V132.3H172.349V125.52ZM175.709 135.58H177.249V142.56H175.709V135.58ZM186.249 134.88H192.609V135.92H186.249V134.88ZM186.269 137.4H192.629V138.44H186.269V137.4ZM184.089 129.16H193.169V130.38H184.089V129.16ZM186.209 140.04H193.029V141.2H186.209V140.04ZM188.969 132.86H190.269V140.48H188.969V132.86ZM186.909 132.36H192.889V133.44H186.909V142.14H185.569V133.38L186.549 132.36H186.909ZM189.669 130.74L191.049 131.04C190.849 131.4 190.649 131.76 190.449 132.12C190.262 132.467 190.089 132.773 189.929 133.04L188.869 132.74C189.002 132.447 189.149 132.113 189.309 131.74C189.469 131.353 189.589 131.02 189.669 130.74ZM186.249 124.2L187.609 124.52C187.342 125.387 186.989 126.22 186.549 127.02C186.122 127.82 185.662 128.5 185.169 129.06C185.102 128.98 184.996 128.887 184.849 128.78C184.702 128.673 184.556 128.573 184.409 128.48C184.262 128.373 184.136 128.293 184.029 128.24C184.509 127.733 184.936 127.127 185.309 126.42C185.696 125.7 186.009 124.96 186.249 124.2ZM188.049 126.66L189.369 126.98C189.036 128.1 188.629 129.173 188.149 130.2C187.682 131.227 187.156 132.18 186.569 133.06C185.982 133.927 185.342 134.687 184.649 135.34C184.596 135.247 184.509 135.127 184.389 134.98C184.282 134.833 184.169 134.687 184.049 134.54C183.929 134.393 183.822 134.273 183.729 134.18C184.702 133.313 185.562 132.22 186.309 130.9C187.056 129.58 187.636 128.167 188.049 126.66ZM186.289 126.02H192.829V127.24H185.749L186.289 126.02ZM195.049 129.68V131.76H200.029V129.68H195.049ZM195.049 132.98V135.08H200.029V132.98H195.049ZM195.049 126.38V128.44H200.029V126.38H195.049ZM193.689 125.04H201.429V136.44H193.689V125.04ZM197.969 135.44H199.309V140.54C199.309 140.753 199.329 140.893 199.369 140.96C199.422 141.027 199.542 141.06 199.729 141.06C199.769 141.06 199.862 141.06 200.009 141.06C200.156 141.06 200.302 141.06 200.449 141.06C200.609 141.06 200.722 141.06 200.789 141.06C200.922 141.06 201.016 141 201.069 140.88C201.136 140.76 201.182 140.513 201.209 140.14C201.249 139.767 201.276 139.193 201.289 138.42C201.436 138.54 201.629 138.653 201.869 138.76C202.109 138.853 202.322 138.927 202.509 138.98C202.469 139.873 202.396 140.56 202.289 141.04C202.182 141.533 202.022 141.867 201.809 142.04C201.596 142.227 201.309 142.32 200.949 142.32C200.856 142.32 200.709 142.32 200.509 142.32C200.322 142.32 200.129 142.32 199.929 142.32C199.742 142.32 199.609 142.32 199.529 142.32C199.102 142.32 198.776 142.267 198.549 142.16C198.322 142.067 198.169 141.887 198.089 141.62C198.009 141.353 197.969 140.993 197.969 140.54V135.44ZM195.209 135.8H196.509C196.416 136.84 196.236 137.8 195.969 138.68C195.716 139.547 195.302 140.313 194.729 140.98C194.169 141.633 193.389 142.18 192.389 142.62C192.309 142.46 192.182 142.273 192.009 142.06C191.849 141.847 191.696 141.68 191.549 141.56C192.456 141.2 193.156 140.74 193.649 140.18C194.156 139.62 194.522 138.973 194.749 138.24C194.976 137.493 195.129 136.68 195.209 135.8Z" fill="white"/>
</svg>
