<svg width="390" height="257" viewBox="0 0 390 257" fill="none" xmlns="http://www.w3.org/2000/svg">
<path d="M28.216 145.96C28.152 145.96 28.104 145.912 28.072 145.816C27.976 145.56 27.656 145.24 27.464 144.952C27.4 144.872 27.4 144.84 27.512 144.856C27.832 144.904 28.136 144.936 28.392 144.936C28.936 144.936 29.32 144.792 29.336 144.328V143.832C29.336 143.352 29.336 142.664 29.32 141.96C28.728 141.976 27.976 141.992 27.128 142.024C27.08 142.04 27.016 142.008 27.016 141.944C27 141.752 27 141.384 27.016 141.224C27.016 141.128 27.064 141.096 27.128 141.096C28.024 141.16 28.744 141.192 29.32 141.208V140.584C29.32 140.248 29.304 139.864 29.304 139.448C28.52 139.448 27.608 139.48 26.376 139.56C26.296 139.56 26.232 139.544 26.232 139.448C26.216 139.288 26.216 138.92 26.232 138.744C26.232 138.616 26.264 138.616 26.36 138.616C27.608 138.696 28.504 138.728 29.288 138.728C29.288 138.072 29.256 137.464 29.24 137.128C28.744 137.144 28.136 137.176 27.432 137.224C27.368 137.224 27.32 137.208 27.32 137.112C27.304 136.952 27.304 136.68 27.304 136.488C27.176 136.632 27.064 136.792 26.936 136.92C26.904 136.968 26.824 137 26.76 136.968C26.36 136.792 26.264 136.728 26.024 136.68C25.928 136.648 25.896 136.632 25.992 136.568C27.464 135.384 28.36 132.952 28.568 132.008C28.584 131.944 28.616 131.928 28.68 131.944C28.936 132.008 29.352 132.152 29.688 132.328C29.768 132.36 29.8 132.408 29.8 132.44C29.8 132.504 29.72 132.568 29.608 132.616C29.48 132.696 29.336 132.776 29.288 132.904C29.224 133.064 29.112 133.336 28.952 133.672C29.768 133.672 30.392 133.656 30.744 133.64C30.856 133.64 30.952 133.464 31.064 133.496C31.208 133.56 31.624 133.848 31.704 133.912C31.752 133.96 31.768 134.008 31.768 134.056C31.768 134.12 31.72 134.168 31.608 134.216C31.48 134.28 31.384 134.456 31.304 134.584C31.112 134.952 30.648 135.8 30.312 136.392C30.744 136.392 31.784 136.376 32.648 136.296C32.792 136.296 32.808 136.312 32.792 136.456C32.744 136.888 32.712 137.784 32.712 138.696C33.16 138.68 33.624 138.648 34.12 138.616C34.2 138.616 34.248 138.648 34.248 138.744C34.264 138.888 34.264 139.288 34.248 139.464C34.248 139.528 34.184 139.56 34.12 139.56C33.624 139.528 33.16 139.496 32.712 139.48C32.728 140.472 32.76 141.8 32.808 142.408C32.808 142.504 32.792 142.536 32.648 142.552C32.536 142.568 32.168 142.584 32.024 142.568C31.896 142.552 31.864 142.52 31.864 142.424C31.864 142.296 31.88 142.136 31.88 141.96L30.552 141.944H30.152C30.184 143.08 30.216 144.136 30.216 144.52C30.216 145.288 29.72 145.992 28.216 145.96ZM20.2 137.72C20.184 137.544 20.184 137.256 20.2 137.128C20.216 137.032 20.232 137 20.296 137C20.936 137.032 22.168 137.08 23.064 137.096V136.04C22.568 136.04 22.216 136.04 21.32 136.12C21.256 136.12 21.192 136.104 21.192 136.008C21.176 135.848 21.176 135.592 21.192 135.448C21.192 135.352 21.24 135.336 21.304 135.336C22.2 135.416 22.536 135.432 23.064 135.432V134.44C22.424 134.44 21.896 134.456 20.728 134.536H20.712C20.664 134.536 20.632 134.504 20.616 134.44V133.8C20.632 133.688 20.648 133.688 20.728 133.688C21.912 133.784 22.408 133.784 23.064 133.784C23.048 133.064 23.016 132.744 22.936 132.12V132.056C22.936 132.008 22.952 131.976 23.032 131.976C23.256 131.992 23.768 132.088 24.12 132.232C24.216 132.264 24.248 132.312 24.248 132.36C24.248 132.424 24.168 132.52 24.088 132.648C23.96 132.808 23.928 132.936 23.912 133.784C24.568 133.784 25.128 133.784 26.232 133.688C26.312 133.688 26.344 133.704 26.344 133.784C26.36 133.928 26.36 134.296 26.344 134.456C26.344 134.52 26.296 134.552 26.248 134.536C25.16 134.456 24.552 134.44 23.912 134.44V135.432C24.36 135.432 24.696 135.416 25.56 135.336C25.624 135.336 25.672 135.352 25.688 135.448V136.008C25.672 136.088 25.64 136.136 25.56 136.12C24.712 136.04 24.376 136.04 23.912 136.04V137.096C24.664 137.08 25.432 137.064 26.584 136.984H26.616C26.664 136.984 26.696 137.016 26.696 137.096C26.712 137.224 26.712 137.592 26.696 137.752C26.696 137.816 26.648 137.848 26.584 137.848C25.224 137.752 24.296 137.752 23.432 137.752C22.584 137.752 21.208 137.816 20.312 137.848C20.232 137.848 20.2 137.784 20.2 137.72ZM21.224 145.848C21.288 144.632 21.32 143.704 21.336 141.688C21.336 141.032 21.336 139.816 21.256 138.744C21.256 138.616 21.256 138.6 21.416 138.6C22.2 138.648 22.664 138.68 23.384 138.68C24.088 138.68 24.632 138.648 25.512 138.6C25.624 138.6 25.64 138.632 25.64 138.744C25.592 139.448 25.576 140.072 25.576 140.6C25.576 141.048 25.592 141.416 25.592 141.704C25.592 142.92 25.672 143.944 25.672 144.536C25.672 145.368 25.272 145.96 23.784 145.96C23.72 145.96 23.672 145.928 23.64 145.832C23.592 145.624 23.304 145.288 23.096 145.048C23.032 144.968 23.048 144.936 23.16 144.952C23.464 145 23.72 145.032 23.944 145.032C24.504 145.032 24.792 144.84 24.792 144.408C24.792 143.96 24.792 143.464 24.776 142.984L23.432 142.968C23.144 142.968 22.568 142.984 22.168 142.984C22.168 144.152 22.168 145 22.2 145.864C22.2 145.944 22.152 145.976 22.072 145.976C21.896 145.992 21.56 145.992 21.336 145.976C21.256 145.976 21.208 145.944 21.224 145.848ZM22.168 142.264C22.568 142.28 23.176 142.296 23.432 142.296C23.72 142.296 24.376 142.28 24.776 142.264C24.76 142.056 24.76 141.864 24.76 141.704V141.176L23.432 141.16C23.128 141.16 22.552 141.176 22.168 141.176V142.264ZM22.184 140.44C22.568 140.456 23.16 140.472 23.416 140.472L24.744 140.456C24.744 139.992 24.728 139.56 24.728 139.352H22.2C22.2 139.464 22.184 139.928 22.184 140.44ZM27.448 136.28H27.464C28.296 136.344 28.968 136.376 29.464 136.376C29.736 135.848 30.216 134.904 30.392 134.408C29.96 134.408 29.176 134.424 28.584 134.424C28.264 135.032 27.88 135.704 27.448 136.28ZM30.136 140.584C30.136 140.792 30.136 141 30.152 141.208H30.552C30.888 141.208 31.48 141.192 31.896 141.192V139.464C31.224 139.448 30.632 139.448 30.136 139.448V140.584ZM30.136 138.728C30.648 138.728 31.24 138.728 31.896 138.712V137.112H30.376C30.376 137.112 30.392 137.128 30.392 137.144C30.392 137.176 30.344 137.224 30.264 137.288C30.136 137.368 30.152 137.464 30.136 137.688V138.728ZM41.864 145.8C41.64 145.544 41.288 145.4 41.096 145.304C41.016 145.256 40.984 145.224 40.984 145.192C40.984 145.16 41.032 145.144 41.096 145.112C42.904 144.568 44.216 143.432 45.16 142.12C44.328 140.84 43.848 139.48 43.576 138.344C43.576 138.296 43.56 138.232 43.64 138.2C43.784 138.12 44.168 138.04 44.344 138.024C44.424 138.024 44.456 138.088 44.456 138.12C44.68 139.08 45.048 140.2 45.72 141.288C46.472 139.992 46.92 138.616 47.128 137.56H45.752C44.744 137.576 44.312 137.576 43.144 137.656H43.112C43.064 137.656 43.016 137.624 43 137.544C42.984 137.384 42.984 136.952 43 136.792C43.016 136.68 43.08 136.664 43.144 136.68C44.312 136.76 44.728 136.776 45.752 136.776C46.376 136.776 47.192 136.744 47.384 136.744C47.624 136.728 47.656 136.552 47.816 136.648C47.944 136.712 48.216 136.872 48.376 137.016C48.44 137.08 48.472 137.128 48.472 137.176C48.472 137.24 48.408 137.288 48.344 137.352C48.216 137.48 48.136 137.544 48.088 137.784C47.768 139.064 47.192 140.632 46.264 142.088C47.16 143.256 48.456 144.328 50.28 145.032C50.376 145.064 50.392 145.112 50.28 145.176C50.088 145.288 49.608 145.432 49.336 145.72C49.304 145.752 49.272 145.768 49.24 145.768C49.192 145.768 49.16 145.752 49.112 145.72C47.656 144.968 46.552 143.976 45.72 142.888C44.792 144.12 43.592 145.192 42.072 145.8C41.992 145.832 41.928 145.864 41.864 145.8ZM35.896 143.992C37.08 143.064 37.768 141.608 37.864 141.096C37.864 141 37.912 140.936 38.008 140.968C38.2 141.016 38.664 141.176 38.84 141.288C38.92 141.336 38.968 141.384 38.968 141.432C38.968 141.512 38.904 141.576 38.792 141.608C38.616 141.672 38.536 141.848 38.408 142.12C38.152 142.632 37.544 143.752 36.888 144.36C36.824 144.424 36.776 144.456 36.696 144.392C36.504 144.264 36.152 144.168 35.944 144.12C35.864 144.104 35.8 144.072 35.896 143.992ZM36.792 140.136C36.776 139.96 36.776 139.608 36.792 139.496C36.792 139.368 36.856 139.352 36.936 139.352C37.88 139.432 38.76 139.464 39.432 139.464V137.016C39.416 136.312 39.416 135.976 39.336 135.4C39.32 135.336 39.336 135.32 39.4 135.32C39.576 135.32 40.136 135.4 40.504 135.512C40.6 135.544 40.648 135.592 40.648 135.656C40.648 135.72 40.6 135.8 40.504 135.928C40.36 136.088 40.344 136.216 40.344 137V137.096C40.904 137.096 41.624 137.096 42.36 137H42.408C42.456 137 42.52 137.016 42.536 137.128C42.552 137.176 42.552 137.288 42.552 137.4C42.552 137.56 42.552 137.736 42.536 137.832C42.52 137.912 42.472 137.944 42.424 137.928C41.704 137.864 40.92 137.848 40.344 137.848V139.464C41.032 139.464 41.944 139.448 42.968 139.368H43C43.032 139.368 43.096 139.4 43.096 139.48C43.112 139.656 43.112 139.976 43.096 140.152C43.096 140.232 43.016 140.264 42.968 140.248C42.12 140.184 41.288 140.168 40.664 140.152C40.632 140.216 40.568 140.264 40.504 140.328C40.44 140.424 40.456 140.632 40.456 140.632C40.456 140.632 40.488 144.28 40.504 144.456C40.472 145.208 40.04 145.832 38.664 145.832H38.632C38.552 145.832 38.536 145.784 38.504 145.704C38.408 145.368 38.136 145.16 37.96 144.936C37.896 144.856 37.912 144.776 38.008 144.792C38.328 144.84 38.584 144.872 38.792 144.872C39.416 144.872 39.56 144.616 39.576 144.136V143.368C39.576 142.392 39.576 140.824 39.56 140.152C38.888 140.152 37.896 140.168 36.936 140.248H36.904C36.856 140.248 36.792 140.216 36.792 140.136ZM36.84 136.664C36.904 135.992 36.968 135.448 36.968 134.76C36.968 134.456 36.952 134.152 36.936 133.816V133.768C36.936 133.688 36.968 133.672 37.08 133.672C39.096 133.784 41.128 133.8 42.44 133.8C42.44 133.352 42.44 132.728 42.312 131.928C42.296 131.832 42.312 131.816 42.36 131.816C42.568 131.816 43.24 131.912 43.656 132.04C43.768 132.072 43.8 132.136 43.8 132.2C43.8 132.328 43.656 132.536 43.576 132.728C43.48 132.984 43.48 133.336 43.464 133.8C44.904 133.8 46.92 133.784 48.952 133.672C49.064 133.672 49.08 133.72 49.08 133.8C49.048 134.216 49.032 134.6 49.032 134.856C49.032 135.416 49.016 135.784 49.128 136.648C49.128 136.712 49.08 136.76 49.016 136.76C48.904 136.776 48.712 136.776 48.536 136.776C48.36 136.776 48.184 136.776 48.104 136.76C48.008 136.744 47.976 136.712 47.976 136.632C48.04 136.024 48.04 135.016 48.04 134.68C47.224 134.648 46.248 134.632 45.336 134.632C44.424 134.632 43.576 134.648 43 134.648C42.36 134.648 41.496 134.632 40.584 134.632C39.688 134.632 38.76 134.648 37.96 134.68C37.96 135.288 37.976 135.928 38.024 136.68C38.024 136.76 37.976 136.792 37.896 136.808C37.656 136.824 37.128 136.824 36.968 136.808C36.872 136.792 36.84 136.76 36.84 136.664ZM41.048 141.224C41.048 141.176 41.08 141.128 41.144 141.112C41.256 141.064 41.56 140.984 41.704 140.952H41.736C41.784 140.952 41.8 141 41.848 141.048C42.136 141.576 42.6 142.296 43.512 143.032C43.576 143.08 43.608 143.144 43.48 143.176C43.272 143.256 42.968 143.384 42.776 143.56C42.712 143.608 42.648 143.592 42.6 143.544C41.896 142.84 41.336 141.848 41.064 141.304C41.048 141.272 41.048 141.256 41.048 141.224ZM58.888 145.032C58.376 145.032 57.864 144.92 57.416 144.712C56.616 144.312 56.168 143.672 56.168 143.064C56.168 142.504 56.536 141.992 57.304 141.736C57.72 141.608 58.2 141.544 58.696 141.544C59.288 141.544 59.928 141.624 60.552 141.768C60.44 141.032 60.104 140.152 60.104 139.384C60.104 137.912 61.496 137.272 62.648 136.808C62.76 136.744 62.792 136.696 62.696 136.616C62.296 136.344 61.096 136.024 60.456 135.96C60.376 135.944 60.312 135.88 60.36 135.8C60.424 135.656 60.568 135.384 60.696 135.24C60.744 135.176 60.824 135.176 60.888 135.176C62.216 135.352 64.056 136.024 64.792 136.632C64.856 136.68 64.872 136.712 64.84 136.792C64.808 136.904 64.712 137.16 64.6 137.304C64.568 137.384 64.488 137.4 64.376 137.4C64.248 137.384 64.104 137.368 63.976 137.368C63.736 137.368 63.496 137.4 63.32 137.448C61.896 137.816 61 138.36 61 139.416C61 139.528 61.016 139.656 61.032 139.784C61.16 140.536 61.496 141.384 61.592 142.072C62.792 142.472 63.896 143.032 64.616 143.576C64.712 143.64 64.744 143.72 64.696 143.816C64.616 144.008 64.424 144.344 64.264 144.552C64.216 144.616 64.136 144.68 64.056 144.6C63.48 144.056 62.568 143.496 61.544 143.064C61.384 143.672 60.984 144.312 60.312 144.696C59.912 144.92 59.4 145.032 58.888 145.032ZM53.56 142.12C54.296 140.952 55.832 138.216 56.696 136.152C55.768 136.344 54.824 136.456 53.976 136.472C53.912 136.472 53.864 136.424 53.832 136.376C53.784 136.264 53.688 135.672 53.672 135.528V135.496C53.672 135.432 53.704 135.4 53.784 135.416C53.992 135.448 54.216 135.448 54.456 135.448C55.224 135.448 56.12 135.336 57 135.16C57.128 134.68 57.24 134.136 57.24 133.544C57.24 133.416 57.24 133.288 57.224 133.16C57.224 133.064 57.224 133.048 57.272 133.048C57.48 133.048 58.088 133.128 58.344 133.192C58.504 133.224 58.568 133.272 58.568 133.336C58.568 133.448 58.344 133.608 58.312 133.768C58.232 134.2 58.136 134.568 58.024 134.92C58.68 134.744 59.256 134.568 59.688 134.392C59.704 134.392 59.72 134.376 59.736 134.376C59.784 134.376 59.816 134.424 59.832 134.488C59.848 134.648 59.912 134.984 59.912 135.16C59.912 135.224 59.896 135.32 59.784 135.352C59.176 135.544 58.504 135.736 57.8 135.912C56.936 138.008 55.512 140.744 54.68 142.44C54.648 142.504 54.616 142.504 54.536 142.504C54.312 142.504 53.816 142.344 53.64 142.28C53.576 142.248 53.512 142.184 53.56 142.12ZM57.144 143.112C57.144 143.384 57.4 143.704 57.8 143.896C58.104 144.056 58.472 144.12 58.808 144.12C59.176 144.12 59.512 144.04 59.768 143.864C60.216 143.56 60.456 143.16 60.552 142.712C59.928 142.536 59.288 142.424 58.712 142.424C58.328 142.424 57.976 142.472 57.64 142.568C57.304 142.68 57.144 142.888 57.144 143.112ZM69.864 139.848C69.8 139.848 69.752 139.832 69.72 139.784C69.48 139.512 69.144 139.352 68.952 139.208C68.872 139.16 68.84 139.128 68.84 139.096C68.84 139.064 68.888 139.064 68.968 139.048C71.384 138.632 72.728 137.064 73.048 135.912C73.16 135.64 73.224 135.432 73.256 135.16V135.096C72.872 135.096 72.488 135.08 72.088 135.08C71.528 135.08 70.92 135.096 70.232 135.112C70.232 135.704 70.232 136.552 70.28 137.176C70.28 137.256 70.248 137.288 70.152 137.288C70.04 137.304 69.848 137.304 69.672 137.304C69.48 137.304 69.32 137.304 69.24 137.288C69.144 137.272 69.112 137.256 69.112 137.16C69.208 136.536 69.24 135.848 69.24 135.208C69.24 134.92 69.224 134.616 69.208 134.296V134.248C69.208 134.184 69.24 134.168 69.336 134.168C71.672 134.264 72.968 134.28 74.456 134.28C74.456 134.104 74.472 133.896 74.472 133.672C74.472 133.176 74.44 132.616 74.344 132.088V132.04C74.344 131.96 75.16 132.072 75.624 132.216C75.736 132.248 75.768 132.296 75.768 132.36C75.768 132.472 75.624 132.648 75.544 132.84C75.448 133.128 75.448 133.672 75.448 134.28C77.176 134.28 78.36 134.28 80.696 134.168C80.808 134.168 80.824 134.2 80.824 134.28C80.792 134.648 80.776 134.968 80.776 135.208C80.776 135.688 80.776 136.04 80.872 136.824C80.872 136.888 80.824 136.936 80.76 136.936C80.6 136.952 80.312 136.952 80.104 136.952C80.104 136.968 80.136 136.968 80.168 137C80.392 137.208 80.68 137.464 80.92 137.56C81 137.592 81.032 137.64 81.032 137.688C81 138.568 80.424 139 79.48 139.112C79.192 139.144 78.616 139.176 78.056 139.176C77.496 139.176 76.952 139.144 76.696 139.112C76.072 139 75.752 138.632 75.736 138.088C75.736 137.976 75.768 136.072 75.768 135.64C75.768 135.464 75.768 135.272 75.752 135.096H73.592C73.816 135.144 74.104 135.224 74.312 135.32C74.408 135.352 74.44 135.4 74.44 135.432C74.44 135.496 74.376 135.56 74.28 135.608C74.104 135.704 74.056 135.848 73.88 136.248C73.432 137.608 72.168 139.144 69.928 139.832C69.912 139.848 69.88 139.848 69.864 139.848ZM68.872 145.176C68.856 145.016 68.856 144.552 68.872 144.36C68.872 144.248 68.92 144.216 69.016 144.216C70.76 144.312 72.008 144.344 73.08 144.344C73.576 144.344 74.04 144.328 74.504 144.328C74.52 143.8 74.52 143.224 74.52 142.664C74.52 142.248 74.52 141.848 74.504 141.464C73.528 141.464 72.184 141.48 70.568 141.56C70.488 141.56 70.408 141.528 70.408 141.432C70.392 141.272 70.392 140.84 70.408 140.648C70.408 140.536 70.472 140.52 70.568 140.52C72.568 140.616 73.992 140.648 74.984 140.648C76.088 140.648 77.368 140.632 79.368 140.52C79.448 140.52 79.496 140.568 79.496 140.648C79.512 140.808 79.512 141.272 79.496 141.448C79.496 141.528 79.432 141.56 79.368 141.56C77.912 141.496 76.712 141.48 75.752 141.464C75.736 141.512 75.688 141.544 75.624 141.592C75.528 141.64 75.496 141.704 75.48 141.864C75.48 142.568 75.48 143.56 75.496 144.328C77.032 144.328 78.44 144.328 81 144.216C81.08 144.216 81.128 144.264 81.144 144.36C81.16 144.504 81.16 145 81.144 145.176C81.128 145.256 81.08 145.288 81.016 145.288C78.232 145.176 76.616 145.176 74.92 145.176C73.304 145.176 71.656 145.192 69.016 145.288C68.936 145.288 68.872 145.272 68.872 145.176ZM76.664 137.768C76.664 138.024 76.84 138.248 77.128 138.28C77.288 138.296 77.64 138.312 78.008 138.312C78.52 138.312 79.064 138.296 79.224 138.264C79.768 138.168 80.088 137.928 80.056 137C80.056 136.984 80.056 136.952 80.072 136.952C79.976 136.952 79.896 136.952 79.848 136.936C79.752 136.92 79.72 136.888 79.736 136.824C79.8 136.28 79.784 135.448 79.784 135.128C78.664 135.08 77.832 135.08 76.968 135.08C76.968 135.16 76.904 135.224 76.84 135.304C76.712 135.448 76.696 135.448 76.68 135.688C76.664 135.928 76.664 137.496 76.664 137.768ZM85.08 145.88C84.936 145.864 84.888 145.832 84.904 145.672C85.016 143.16 85.064 140.552 85.064 138.68V136.952C85.064 135.32 85.064 133.96 84.984 132.696V132.648C84.984 132.552 85 132.536 85.144 132.552C85.736 132.6 86.872 132.616 87.512 132.616C88.152 132.616 88.984 132.6 89.832 132.552H89.88C89.96 132.552 89.976 132.6 89.976 132.696C89.944 133.256 89.944 133.88 89.944 134.36V135.08C89.944 135.384 89.96 136.488 90.008 137.544C90.008 137.704 90.008 137.752 89.832 137.768C89.672 137.784 89.368 137.784 89.192 137.768C89.096 137.752 89.016 137.736 89.032 137.592V137.32C88.728 137.32 87.992 137.304 87.48 137.304C86.968 137.304 86.28 137.32 86.008 137.32V138.632C86.008 140.632 86.024 143.192 86.04 145.688C86.04 145.816 86.024 145.864 85.864 145.88C85.704 145.896 85.24 145.896 85.08 145.88ZM86.008 136.552C86.296 136.552 86.984 136.568 87.464 136.568C87.96 136.568 88.728 136.552 89.048 136.552V135.352C88.744 135.352 88.024 135.336 87.496 135.336C86.984 135.336 86.296 135.352 86.008 135.352V136.552ZM86.008 134.584C86.312 134.584 87.016 134.6 87.496 134.6C87.992 134.6 88.728 134.584 89.032 134.584V133.384L87.48 133.368C86.984 133.368 86.024 133.384 86.024 133.384C86.024 133.416 86.024 133.896 86.008 134.584ZM88.28 144.232C88.344 143.144 88.392 141.912 88.392 141.4C88.392 140.728 88.376 139.496 88.344 138.936C88.344 138.824 88.344 138.792 88.504 138.808C89.112 138.84 90.184 138.856 90.92 138.856C91.656 138.856 92.376 138.84 93.24 138.792C93.368 138.792 93.4 138.824 93.4 138.936C93.368 139.64 93.352 140.84 93.352 141.352C93.352 141.816 93.384 143.016 93.432 144.008C93.432 144.136 93.432 144.152 93.24 144.168C93.096 144.184 92.808 144.2 92.632 144.184C92.504 144.168 92.424 144.184 92.424 144.04C92.44 143.928 92.44 143.8 92.44 143.672C92.12 143.672 91.432 143.656 90.92 143.656C90.392 143.656 89.592 143.672 89.272 143.672V144.248C89.272 144.376 89.24 144.392 89.096 144.408C88.872 144.424 88.664 144.424 88.472 144.408C88.312 144.392 88.28 144.376 88.28 144.232ZM89.256 141.608C89.256 141.912 89.272 142.376 89.272 142.872C89.592 142.872 90.408 142.888 90.904 142.888C91.4 142.888 92.136 142.872 92.456 142.872C92.472 142.392 92.472 141.912 92.472 141.608C92.168 141.592 91.416 141.576 90.872 141.576C90.36 141.576 89.576 141.592 89.256 141.608ZM89.256 140.824L90.856 140.84C91.384 140.84 92.152 140.824 92.472 140.824V139.608C92.392 139.608 91.368 139.592 90.888 139.592C90.36 139.592 89.272 139.608 89.272 139.608C89.272 139.672 89.256 140.28 89.256 140.824ZM91.88 137.544C91.912 136.904 91.912 136.264 91.912 135.768V134.36C91.912 133.88 91.912 133.256 91.88 132.696C91.88 132.584 91.896 132.536 92.008 132.552C92.872 132.6 93.768 132.616 94.392 132.616C95.048 132.616 96.248 132.6 96.84 132.552H96.904C97.016 132.552 97.016 132.584 97 132.696C96.936 133.704 96.936 134.776 96.936 136.008V138.68C96.936 140.424 96.952 141.512 97 143.912C97.032 145.16 96.424 145.72 94.68 145.736C94.584 145.736 94.504 145.688 94.472 145.576C94.408 145.336 94.104 145.032 93.848 144.728C93.832 144.696 93.816 144.68 93.816 144.664C93.816 144.616 93.88 144.6 93.976 144.616C94.36 144.664 94.696 144.696 94.968 144.696C95.64 144.696 95.992 144.504 95.992 143.8V137.32C95.704 137.32 94.952 137.304 94.424 137.304C93.912 137.304 93.176 137.32 92.84 137.32C92.84 137.416 92.84 137.512 92.856 137.592C92.856 137.72 92.808 137.752 92.696 137.768H92.056C91.896 137.752 91.864 137.704 91.88 137.544ZM92.808 135.352C92.808 135.656 92.808 136.088 92.824 136.552C93.144 136.552 93.944 136.568 94.44 136.568C94.936 136.568 95.704 136.552 95.992 136.552V135.352C95.688 135.352 94.968 135.336 94.44 135.336C93.896 135.336 93.112 135.352 92.808 135.352ZM92.808 134.584C93.128 134.584 93.928 134.6 94.44 134.6C94.936 134.6 95.688 134.584 95.992 134.584C95.992 133.896 95.976 133.416 95.976 133.384C95.976 133.384 94.904 133.368 94.424 133.368L92.824 133.384C92.824 133.432 92.808 134.104 92.808 134.584ZM105.592 144.776C105.272 144.776 104.936 144.728 104.568 144.648C104.44 144.616 104.376 144.536 104.344 144.408C104.312 144.184 104.184 143.928 104.12 143.704C104.104 143.672 104.104 143.656 104.104 143.64C104.104 143.592 104.152 143.576 104.232 143.592C104.648 143.656 105 143.704 105.304 143.704C106.248 143.704 106.728 143.368 107.096 142.792C107.576 142.056 107.784 140.648 107.784 139.576C107.784 139.256 107.768 138.984 107.736 138.744C107.672 138.168 107.432 137.96 106.872 137.96C106.36 137.976 105.816 138.024 105.272 138.104C104.504 140.552 103.4 142.968 102.024 144.648C101.96 144.712 101.912 144.728 101.816 144.712C101.608 144.68 101.064 144.44 100.92 144.344C100.856 144.296 100.808 144.232 100.888 144.152C102.248 142.824 103.464 140.6 104.216 138.264C103.224 138.44 102.344 138.616 101.832 138.664C101.752 138.664 101.672 138.664 101.624 138.552C101.544 138.408 101.384 137.944 101.368 137.832C101.368 137.784 101.352 137.752 101.352 137.736C101.352 137.656 101.4 137.64 101.48 137.64C101.992 137.672 103.192 137.464 104.488 137.288C104.792 136.168 104.968 135.032 105 133.992C105 133.848 105 133.832 105.128 133.864C105.368 133.896 105.848 133.976 106.168 134.088C106.328 134.152 106.376 134.2 106.376 134.264C106.376 134.392 106.12 134.552 106.072 134.808C105.928 135.576 105.752 136.36 105.544 137.16C106.136 137.096 106.712 137.048 107.224 137.048C108.024 137.048 108.664 137.4 108.776 138.488C108.808 138.76 108.824 139.064 108.824 139.416C108.824 140.696 108.616 142.376 108.072 143.288C107.48 144.264 106.696 144.776 105.592 144.776ZM109.736 136.984L110.232 136.536C110.28 136.504 110.296 136.488 110.344 136.488C110.376 136.488 110.408 136.504 110.472 136.536C111.352 137 113.192 138.408 114.056 139.752C114.088 139.8 114.088 139.816 114.088 139.848C114.088 139.88 114.072 139.928 114.024 139.976C113.832 140.168 113.528 140.424 113.336 140.536C113.256 140.584 113.176 140.616 113.128 140.504C112.376 139.08 110.584 137.608 109.752 137.16C109.64 137.096 109.688 137.032 109.736 136.984ZM110.472 135.048C110.52 134.968 110.712 134.744 110.792 134.68C110.856 134.616 110.888 134.6 110.968 134.648C111.464 134.888 112.504 135.496 112.984 135.96C113.016 135.992 113.016 136.024 113.016 136.056C113.016 136.088 113.016 136.12 112.984 136.184C112.92 136.296 112.744 136.52 112.648 136.6C112.568 136.664 112.52 136.648 112.456 136.584C111.944 136.12 110.936 135.448 110.488 135.208C110.408 135.16 110.44 135.096 110.472 135.048ZM111.624 133.944C111.688 133.864 111.88 133.64 111.96 133.576C112.024 133.528 112.056 133.512 112.12 133.544C112.632 133.784 113.672 134.392 114.152 134.84C114.184 134.872 114.2 134.904 114.2 134.936C114.2 134.968 114.184 135 114.152 135.064C114.104 135.176 113.912 135.4 113.832 135.48C113.752 135.544 113.704 135.544 113.624 135.48C113.112 135 112.104 134.344 111.656 134.12C111.576 134.072 111.608 133.992 111.624 133.944Z" fill="#E5E5E5"/>
<path d="M21.096 174.8C21.048 174.8 21 174.784 20.968 174.752C20.728 174.496 20.216 174.288 19.944 174.16C19.848 174.128 19.816 174.096 19.816 174.08C19.816 174.048 19.864 174.032 19.928 174C23.512 172.848 25.592 169.968 26.2 166.464C24.872 166.464 23.384 166.464 21.048 166.576C20.952 166.576 20.872 166.56 20.856 166.464C20.84 166.384 20.84 166.24 20.84 166.096C20.84 165.904 20.84 165.696 20.856 165.584C20.872 165.472 20.92 165.44 21.048 165.456C23.544 165.584 24.984 165.584 26.312 165.584L26.36 165.04C26.392 164.448 26.408 162.992 26.408 162.48C26.408 162.096 26.376 161.632 26.296 161.296C26.28 161.216 26.264 161.152 26.36 161.152C26.536 161.152 27.224 161.28 27.592 161.392C27.752 161.44 27.8 161.488 27.8 161.552C27.8 161.648 27.704 161.76 27.624 161.888C27.512 162.032 27.464 162.224 27.448 162.624C27.448 163.024 27.416 164.544 27.384 165.088L27.336 165.584C28.728 165.568 30.376 165.568 32.936 165.456H32.968C33.064 165.456 33.112 165.52 33.112 165.6C33.128 165.792 33.128 166.272 33.112 166.48C33.112 166.544 33.032 166.576 32.936 166.576C30.552 166.48 28.984 166.464 27.592 166.464C28.072 168.208 29.608 172.16 34.2 173.888C34.264 173.92 34.312 173.936 34.312 173.968C34.312 173.984 34.28 174.016 34.184 174.064C33.832 174.208 33.448 174.416 33.16 174.656C33.08 174.72 32.984 174.72 32.904 174.688C29.16 172.912 27.592 169.472 27 167.568C26.216 170.704 24.312 173.376 21.224 174.768C21.192 174.784 21.144 174.8 21.096 174.8ZM44.872 174.912C44.76 174.912 44.696 174.896 44.664 174.784C44.584 174.496 44.248 174.112 44.104 173.888C44.024 173.776 44.088 173.776 44.168 173.792C44.616 173.872 44.968 173.92 45.256 173.92C45.976 173.92 46.264 173.648 46.488 173.04C46.568 172.848 46.632 172.56 46.696 172.224C45.768 172.208 44.952 172.208 44.472 172.208H41.736L41.56 173.344C41.56 173.44 41.528 173.472 41.448 173.472C41.208 173.488 40.792 173.472 40.584 173.44C40.472 173.424 40.44 173.392 40.472 173.296C40.936 171.488 41.128 170.336 41.32 169.12V169.056C40.632 169.072 39.928 169.088 39.24 169.12H39.208C39.128 169.12 39.064 169.088 39.064 169.008C39.048 168.848 39.048 168.432 39.064 168.24C39.064 168.128 39.144 168.128 39.224 168.128C39.96 168.16 40.728 168.192 41.448 168.208C41.592 167.168 41.72 165.92 41.72 165.248C41.72 165.072 41.736 165.04 41.784 165.04C42.008 165.04 42.568 165.12 43.016 165.136C43.528 165.152 44.296 165.152 44.84 165.152C45.944 165.152 47.224 165.12 47.976 165.056H48.024C48.088 165.056 48.104 165.088 48.088 165.184C48.04 165.712 47.992 166.896 47.944 168.208C48.632 168.192 49.336 168.16 50.04 168.128C50.12 168.128 50.168 168.16 50.184 168.24C50.2 168.4 50.2 168.848 50.184 169.024C50.184 169.104 50.104 169.136 50.04 169.12C49.336 169.088 48.616 169.072 47.896 169.056C47.848 169.84 47.8 170.64 47.736 171.36C48.264 171.344 48.808 171.328 49.336 171.296H49.368C49.432 171.296 49.464 171.328 49.48 171.392C49.496 171.536 49.496 172.048 49.48 172.208C49.464 172.272 49.416 172.304 49.336 172.288C48.808 172.272 48.216 172.24 47.624 172.24C47.56 172.768 47.464 173.2 47.352 173.472C46.888 174.624 46.248 174.944 44.872 174.912ZM35.848 166.304C35.88 166.16 36.024 165.728 36.104 165.584C36.12 165.552 36.152 165.504 36.296 165.52C36.776 165.616 38.056 165.904 38.792 166.192C38.84 166.208 38.856 166.24 38.856 166.288C38.856 166.416 38.728 166.896 38.632 167.12C38.6 167.184 38.568 167.248 38.44 167.184C37.592 166.8 36.28 166.512 35.96 166.464C35.864 166.448 35.816 166.432 35.848 166.304ZM36.248 173.984C36.168 173.92 36.152 173.872 36.248 173.792C37.288 172.896 38.536 170.784 39.08 169.728C39.112 169.648 39.16 169.632 39.208 169.712C39.304 169.888 39.56 170.192 39.704 170.304C39.72 170.32 39.784 170.368 39.736 170.48C38.952 172.064 38.216 173.136 37.704 173.92C37.528 174.24 37.544 174.496 37.336 174.496C37.288 174.496 37.24 174.48 37.16 174.448C36.936 174.368 36.44 174.128 36.248 173.984ZM37.128 162.016C37.208 161.888 37.512 161.488 37.592 161.408C37.624 161.392 37.64 161.344 37.768 161.408C38.264 161.632 39.416 162.32 39.96 162.768C40.008 162.8 40.024 162.832 40.024 162.864C40.024 162.976 39.704 163.472 39.56 163.632C39.528 163.664 39.496 163.68 39.448 163.68C39.416 163.68 39.384 163.664 39.336 163.632C38.584 162.976 37.496 162.336 37.192 162.192C37.128 162.16 37.064 162.128 37.128 162.016ZM39.512 165.856C40.984 164.56 42.152 162.128 42.392 160.976C42.408 160.912 42.44 160.864 42.536 160.896C42.648 160.912 43.08 161.088 43.416 161.248C43.544 161.312 43.64 161.376 43.64 161.456C43.64 161.52 43.592 161.584 43.448 161.68C43.256 161.792 43.208 161.792 43.096 162.032L42.744 162.848H44.904C45.864 162.848 47.24 162.848 49.064 162.752H49.096C49.16 162.752 49.192 162.784 49.208 162.864C49.224 163.008 49.224 163.52 49.208 163.696C49.192 163.76 49.144 163.792 49.064 163.792C47.352 163.696 45.816 163.696 44.904 163.696C44.424 163.696 43.016 163.696 42.296 163.712C41.832 164.576 41.272 165.456 40.584 166.208C40.536 166.256 40.472 166.288 40.392 166.256C40.136 166.096 39.928 166.048 39.592 165.984C39.48 165.968 39.432 165.936 39.512 165.856ZM41.864 171.392H43.848C43.944 170.672 44.04 169.84 44.12 169.024C43.56 169.024 42.92 169.024 42.216 169.04C42.2 169.12 42.2 169.2 42.184 169.28C42.072 170.032 41.976 170.608 41.864 171.392ZM42.328 168.224C43.016 168.24 43.64 168.24 44.184 168.24C44.248 167.408 44.296 166.608 44.328 165.952H42.648C42.568 166.304 42.456 167.248 42.328 168.224ZM44.744 171.392C45.272 171.392 46.008 171.392 46.808 171.376C46.888 170.672 46.952 169.84 46.984 169.04C46.248 169.04 45.56 169.04 44.984 169.024C44.904 169.856 44.824 170.672 44.744 171.392ZM45.048 168.24C45.64 168.24 46.312 168.24 47.032 168.224C47.064 167.216 47.096 166.352 47.096 165.952H45.416C45.432 165.968 45.432 165.968 45.432 165.984C45.432 166.032 45.384 166.064 45.304 166.128C45.224 166.176 45.208 166.288 45.192 166.4C45.16 166.976 45.096 167.6 45.048 168.24ZM59.704 174.48C59.352 174.48 59.016 174.448 58.728 174.4C57.128 174.096 56.088 173.136 56.088 171.984C56.088 170.864 57.064 169.536 59.448 168.448C59.448 168.352 59.432 168.256 59.432 168.176C59.352 167.296 58.872 166.928 58.264 166.928C57.528 166.928 56.584 167.472 55.928 168.272C55.464 168.832 55.048 169.504 54.712 170.032C54.664 170.112 54.6 170.144 54.504 170.144C54.312 170.144 53.816 169.984 53.608 169.92C53.496 169.888 53.464 169.792 53.528 169.712C54.744 168.256 56.04 166.688 57.08 164.784C56.616 164.816 56.168 164.832 55.752 164.832C55.288 164.832 54.872 164.816 54.504 164.768C54.44 164.752 54.392 164.688 54.36 164.624C54.328 164.496 54.296 163.936 54.312 163.776C54.312 163.696 54.328 163.68 54.44 163.712C54.872 163.824 55.464 163.888 56.152 163.888C56.568 163.888 57 163.872 57.464 163.824C57.704 163.264 57.896 162.752 58.04 162.16C58.072 162.064 58.072 162.032 58.136 162.032C58.296 162.032 58.952 162.08 59.224 162.176C59.336 162.208 59.384 162.256 59.384 162.304C59.384 162.448 59.08 162.608 58.968 162.832C58.824 163.152 58.696 163.424 58.552 163.712C59.432 163.584 60.312 163.408 61.048 163.2C61.08 163.184 61.096 163.184 61.128 163.184C61.176 163.184 61.208 163.216 61.224 163.28C61.24 163.376 61.272 163.856 61.304 164.064C61.304 164.112 61.304 164.208 61.192 164.224C60.248 164.416 59.176 164.576 58.152 164.688C57.656 165.568 57.352 166.016 56.936 166.576C56.84 166.704 56.888 166.672 57 166.624C57.592 166.336 58.136 166.192 58.616 166.192C59.56 166.192 60.232 166.784 60.376 168.032V168.064C61.512 167.616 63.512 166.88 64.024 166.56C64.072 166.528 64.152 166.528 64.2 166.576C64.328 166.752 64.696 167.248 64.744 167.456C64.808 167.712 64.504 167.632 64.168 167.728C63.144 168.048 61.464 168.656 60.424 169.056H60.408C60.392 169.84 60.328 170.816 60.232 171.552C60.216 171.712 60.184 171.744 60.024 171.76C59.768 171.792 59.608 171.792 59.336 171.792H59.288C59.176 171.792 59.16 171.728 59.176 171.648C59.304 170.976 59.384 170.192 59.432 169.504C57.768 170.336 57.096 171.2 57.096 171.92C57.096 172.688 57.848 173.264 58.952 173.424C59.144 173.456 59.368 173.472 59.592 173.472C60.552 173.472 61.736 173.216 62.44 172.864C62.472 172.848 62.504 172.848 62.52 172.848C62.552 172.848 62.584 172.864 62.584 172.944C62.584 173.12 62.52 173.632 62.536 173.824V173.856C62.536 173.952 62.488 174 62.376 174.048C61.8 174.288 60.696 174.48 59.704 174.48ZM68.536 174.592C68.504 174.592 68.456 174.56 68.392 174.496C68.248 174.336 68.072 174.032 67.912 173.664C67.896 173.632 67.896 173.616 67.896 173.6C67.896 173.536 67.944 173.536 68.024 173.504C68.664 173.392 69.656 173.104 70.648 172.768C70.648 171.952 70.664 170.304 70.664 168.96V168.56C70.12 168.56 69.336 168.576 68.44 168.656C68.392 168.656 68.312 168.64 68.296 168.528V167.84C68.312 167.712 68.376 167.696 68.44 167.696C69.368 167.792 70.088 167.808 70.648 167.808C70.648 167.12 70.632 166.56 70.616 166.272C70.2 166.272 69.64 166.304 69 166.368C68.968 166.368 68.904 166.336 68.904 166.24C68.888 166.112 68.888 165.84 68.904 165.664C68.824 165.728 68.76 165.776 68.696 165.84C68.648 165.904 68.536 165.936 68.472 165.872C68.328 165.728 67.944 165.584 67.72 165.52C67.624 165.488 67.624 165.44 67.704 165.376C69.272 164.352 70.616 162.128 70.84 161.296C70.856 161.216 70.856 161.168 70.904 161.168C71.048 161.168 71.48 161.344 71.816 161.504C71.896 161.536 71.928 161.568 71.928 161.616C71.928 161.68 71.864 161.744 71.752 161.824C71.72 161.84 71.688 161.872 71.656 161.904C72.04 162.576 72.904 163.904 74.104 164.704C74.152 164.736 74.168 164.768 74.168 164.784C74.168 164.832 74.12 164.848 74.056 164.864C73.816 164.944 73.448 165.136 73.304 165.248C73.288 165.264 73.256 165.264 73.24 165.264C73.176 165.264 73.128 165.232 73.064 165.184C72.28 164.464 71.624 163.424 71.208 162.656C70.808 163.36 70.072 164.512 69.128 165.456C69.976 165.536 70.584 165.536 71 165.536C71.48 165.536 72.184 165.536 73.048 165.424C73.096 165.424 73.144 165.472 73.16 165.552C73.176 165.696 73.176 166.096 73.16 166.256C73.144 166.336 73.096 166.368 73.048 166.368C72.568 166.32 72.12 166.304 71.752 166.288V166.32C71.752 166.352 71.72 166.4 71.656 166.448C71.576 166.496 71.544 166.56 71.528 166.672C71.528 166.96 71.528 167.344 71.512 167.808C72.072 167.808 72.664 167.776 73.56 167.696C73.608 167.696 73.688 167.728 73.688 167.824C73.704 168 73.704 168.368 73.688 168.56C73.688 168.624 73.608 168.656 73.56 168.656C72.696 168.576 72.04 168.56 71.512 168.56V172.48C72.584 172.128 73.528 171.776 73.928 171.616C74.04 171.568 74.072 171.568 74.04 171.68C74.008 171.856 73.96 172.128 73.96 172.352C73.96 172.432 73.944 172.496 73.816 172.544C73.176 172.8 69.608 174.064 68.888 174.336C68.728 174.416 68.648 174.592 68.536 174.592ZM68.488 169.856C68.456 169.792 68.424 169.744 68.52 169.696C68.632 169.632 69.096 169.456 69.112 169.456H69.16C69.192 169.456 69.224 169.472 69.272 169.536C69.576 169.952 70.168 170.976 70.44 171.712C70.456 171.744 70.456 171.76 70.456 171.776C70.456 171.84 70.408 171.856 70.36 171.888C70.296 171.936 69.816 172.192 69.768 172.208C69.736 172.224 69.72 172.224 69.704 172.224C69.656 172.224 69.624 172.192 69.608 172.112C69.32 171.232 68.68 170.128 68.488 169.856ZM71.624 171.44C72.184 170.736 72.6 169.712 72.696 169.376C72.712 169.296 72.728 169.28 72.84 169.312C72.952 169.344 73.432 169.488 73.64 169.632C73.704 169.68 73.736 169.728 73.736 169.76C73.736 169.84 73.624 169.904 73.512 169.968C73.448 170 73.352 170.112 73.288 170.224C73.096 170.56 72.696 171.216 72.408 171.632C72.376 171.664 72.36 171.68 72.328 171.68C72.28 171.68 72.232 171.648 72.184 171.632C72.04 171.568 71.784 171.568 71.672 171.536C71.592 171.52 71.592 171.488 71.624 171.44ZM73.848 167.584C73.832 167.408 73.832 167.024 73.848 166.864C73.864 166.752 73.928 166.736 74.008 166.736C74.744 166.784 75.416 166.816 76.008 166.832L76.024 164.528C75.576 164.544 75.08 164.576 74.52 164.608H74.488C74.44 164.608 74.392 164.576 74.376 164.496C74.36 164.336 74.36 163.92 74.376 163.776C74.392 163.648 74.44 163.632 74.52 163.648C75.08 163.696 75.576 163.712 76.024 163.744V162.976C76.024 162.352 76.008 161.728 75.896 161.216V161.184C75.896 161.12 75.928 161.104 75.976 161.104C76.216 161.104 76.776 161.216 77.144 161.328C77.256 161.36 77.288 161.424 77.288 161.472C77.288 161.568 77.192 161.696 77.112 161.824C77 161.984 76.968 162.096 76.952 162.464C76.936 162.8 76.92 163.344 76.92 163.76H78.616V162.992C78.616 162.352 78.6 161.728 78.488 161.216V161.168C78.488 161.12 78.504 161.104 78.552 161.104C78.792 161.104 79.336 161.2 79.736 161.328C79.832 161.36 79.88 161.408 79.88 161.472C79.88 161.568 79.784 161.696 79.688 161.824C79.592 161.968 79.56 162.096 79.544 162.432C79.512 162.784 79.512 163.312 79.512 163.744C80.072 163.728 80.68 163.696 81.32 163.648H81.352C81.4 163.648 81.448 163.696 81.448 163.76C81.464 163.904 81.464 164.352 81.448 164.528C81.448 164.592 81.368 164.624 81.32 164.624C80.696 164.576 80.072 164.544 79.512 164.528L79.528 166.832C80.296 166.816 81.16 166.8 81.976 166.736C82.04 166.736 82.104 166.784 82.12 166.864C82.12 167.008 82.136 167.424 82.12 167.6C82.104 167.664 82.024 167.696 81.976 167.696C80.424 167.6 78.664 167.584 77.768 167.584C76.872 167.584 75.576 167.584 74.008 167.696C73.944 167.696 73.864 167.664 73.848 167.584ZM75.048 174.784C75.16 173.744 75.24 172.256 75.256 171.376V170.816C75.256 170.176 75.24 169.552 75.176 168.912C75.176 168.848 75.224 168.8 75.304 168.816C76.232 168.896 76.792 168.912 77.864 168.912C78.984 168.912 79.272 168.896 80.28 168.816C80.392 168.816 80.408 168.88 80.408 168.944C80.36 169.936 80.328 170.544 80.328 171.376C80.328 172.16 80.408 173.616 80.472 174.672C80.472 174.752 80.408 174.816 80.344 174.832C80.12 174.832 79.736 174.848 79.544 174.832C79.464 174.816 79.416 174.784 79.416 174.688C79.416 174.48 79.432 174.256 79.432 174.048C79.128 174.032 78.6 174.016 77.832 174.016C77.128 174.016 76.488 174.032 76.104 174.048C76.104 174.288 76.12 174.528 76.12 174.784C76.12 174.88 76.088 174.896 75.976 174.896C75.784 174.912 75.352 174.912 75.192 174.896C75.096 174.896 75.048 174.848 75.048 174.784ZM76.104 173.232C76.488 173.248 77.144 173.264 77.832 173.264C78.584 173.264 79.144 173.248 79.448 173.232C79.464 172.688 79.464 172.176 79.464 171.792C79.176 171.776 78.632 171.76 77.832 171.76C77.144 171.76 76.488 171.776 76.104 171.792V173.232ZM76.12 171.008C76.504 171.024 77.16 171.04 77.832 171.04C78.6 171.04 79.16 171.024 79.464 171.008C79.464 170.32 79.448 169.664 79.448 169.664C79.368 169.664 78.728 169.648 77.832 169.648C76.76 169.648 76.168 169.68 76.168 169.68C76.168 169.744 76.136 170.336 76.12 171.008ZM76.92 164.512L76.936 166.848H78.584C78.6 166.272 78.6 165.2 78.616 164.512H76.92ZM84.504 175.44C84.44 175.44 84.392 175.424 84.36 175.344C84.232 175.024 83.944 174.816 83.784 174.672C83.736 174.608 83.704 174.576 83.704 174.544C83.704 174.512 83.768 174.512 83.864 174.512C86.52 174.512 88.312 173.184 88.984 172.176C89.16 171.936 89.272 171.68 89.352 171.44C88.952 171.44 88.584 171.44 88.312 171.456C88.328 171.6 88.328 171.76 88.328 171.904V171.936C88.328 172 88.28 172.016 88.184 172.032C87.976 172.048 87.592 172.048 87.4 172.032C87.304 172.016 87.24 171.984 87.256 171.92C87.352 171.04 87.384 170 87.384 169.12C87.384 167.84 87.384 167.12 87.304 165.92V165.904C87.304 165.84 87.352 165.808 87.432 165.808C88.712 165.872 89.896 165.872 90.952 165.872C92.088 165.872 93.064 165.872 94.36 165.792C94.488 165.792 94.52 165.856 94.52 165.904C94.456 166.912 94.44 167.76 94.44 168.64C94.44 169.456 94.488 170.736 94.568 171.792C94.568 171.872 94.504 171.92 94.424 171.92C94.168 171.936 93.832 171.952 93.64 171.936C93.544 171.92 93.48 171.904 93.48 171.808C93.496 171.696 93.496 171.568 93.512 171.456C93.272 171.456 92.936 171.44 92.552 171.44L92.44 171.552C92.296 171.648 92.312 171.696 92.296 171.856C92.264 172.192 92.248 172.64 92.248 173.024C92.248 173.232 92.264 173.424 92.264 173.536C92.264 173.872 92.536 174.064 93.048 174.128C93.384 174.16 93.784 174.176 94.216 174.176C94.904 174.176 95.64 174.128 96.104 174.032C96.776 173.904 96.952 173.36 96.984 172.368C96.984 172.272 97.048 172.288 97.096 172.352C97.288 172.576 97.624 172.928 97.96 173.072C98.04 173.104 98.072 173.152 98.04 173.248C97.88 174.176 97.416 174.832 96.136 174.96C95.56 175.024 94.856 175.056 94.184 175.056C93.72 175.056 93.272 175.04 92.872 174.992C91.672 174.864 91.304 174.496 91.304 173.856C91.304 173.392 91.336 172.864 91.336 172.064C91.336 171.824 91.336 171.6 91.32 171.424H90.904C90.552 171.424 90.184 171.424 89.816 171.44C90.024 171.536 90.248 171.664 90.424 171.776C90.504 171.824 90.536 171.888 90.536 171.936C90.536 172 90.456 172.064 90.312 172.096C90.152 172.128 89.912 172.48 89.752 172.704C88.952 173.84 87.144 175.136 84.6 175.424C84.568 175.424 84.536 175.44 84.504 175.44ZM84.968 166.688C85.032 166 85.096 165.536 85.096 164.864C85.096 164.576 85.08 164.304 85.048 163.984C85.048 163.872 85.064 163.856 85.192 163.856C87.336 163.952 88.568 163.968 89.928 163.968H92.488C93.256 163.024 94.024 161.712 94.264 161.104C94.328 160.976 94.328 160.96 94.472 161.008C94.664 161.072 95.128 161.28 95.384 161.456C95.448 161.504 95.48 161.536 95.48 161.568C95.48 161.648 95.368 161.696 95.24 161.776C95.096 161.872 95.032 161.936 94.92 162.08C94.6 162.528 94.04 163.344 93.544 163.968C94.52 163.952 95.528 163.92 96.856 163.856C96.968 163.856 96.984 163.888 96.984 163.984C96.952 164.336 96.936 164.656 96.936 164.896C96.936 165.472 96.936 165.744 97.032 166.624C97.032 166.688 96.984 166.736 96.92 166.736C96.808 166.752 96.6 166.752 96.424 166.752C96.232 166.752 96.056 166.752 95.976 166.736C95.88 166.72 95.848 166.704 95.864 166.624C95.912 166.016 95.912 165.104 95.912 164.784C95.08 164.752 94.008 164.752 92.952 164.752H90.984C89.304 164.752 87.56 164.752 86.12 164.784C86.12 165.216 86.12 165.776 86.168 166.688C86.168 166.768 86.136 166.8 86.04 166.816C85.816 166.832 85.24 166.832 85.096 166.816C85 166.8 84.952 166.768 84.968 166.688ZM86.424 161.584C86.424 161.552 86.456 161.536 86.52 161.488C86.68 161.408 87.032 161.232 87.16 161.184C87.24 161.152 87.256 161.152 87.32 161.216C87.624 161.44 88.6 162.432 88.92 163.024C88.952 163.088 88.968 163.136 88.888 163.2C88.76 163.312 88.36 163.536 88.168 163.632C88.104 163.664 88.04 163.648 88.008 163.584C87.688 162.896 86.792 161.952 86.456 161.648C86.44 161.632 86.424 161.6 86.424 161.584ZM88.264 169.104C88.888 169.104 89.976 169.12 90.904 169.12C91.928 169.12 93.032 169.104 93.56 169.088V168.208C93.016 168.192 91.928 168.176 90.92 168.176C89.976 168.176 88.888 168.192 88.264 168.208V169.104ZM88.264 167.52C88.904 167.52 89.976 167.536 90.904 167.536C91.912 167.536 93.016 167.52 93.544 167.504C93.544 166.976 93.528 166.56 93.528 166.56C93.528 166.56 91.992 166.544 90.952 166.544C89.912 166.544 88.28 166.56 88.28 166.56C88.28 166.56 88.28 166.992 88.264 167.52ZM88.28 169.792C88.28 170.096 88.28 170.416 88.296 170.768C88.92 170.768 89.976 170.784 90.904 170.784C91.912 170.784 92.984 170.768 93.528 170.768C93.544 170.416 93.544 170.08 93.56 169.792C93.016 169.776 91.928 169.76 90.92 169.76C89.976 169.76 88.888 169.776 88.28 169.792ZM89.8 161.184C89.736 161.104 89.736 161.056 89.848 161.024C90.008 160.96 90.376 160.832 90.52 160.8H90.568C90.6 160.8 90.632 160.816 90.68 160.864C90.904 161.136 91.672 162.352 91.88 162.944C91.896 162.976 91.896 162.992 91.896 163.024C91.896 163.056 91.88 163.072 91.816 163.12C91.688 163.2 91.256 163.376 91.032 163.44C90.968 163.472 90.904 163.44 90.888 163.376C90.68 162.576 90.024 161.488 89.8 161.184ZM107.416 174.24C106.664 174.24 105.8 174.16 105 173.888C103.48 173.376 102.712 172.336 102.712 171.344C102.712 170.432 103.384 169.552 104.776 169.2C105.544 169.008 106.408 168.944 107.208 168.944C108.296 168.944 109.256 169.056 109.704 169.136C109.224 168.496 108.552 167.376 107.944 166.16C106.824 166.4 105.64 166.528 104.536 166.528C103.832 166.528 103.16 166.48 102.568 166.352C102.504 166.352 102.472 166.272 102.44 166.192C102.408 166.048 102.392 165.44 102.408 165.28C102.408 165.184 102.44 165.168 102.552 165.2C103.208 165.376 103.96 165.456 104.744 165.456C105.656 165.456 106.6 165.36 107.496 165.168C107.128 164.32 106.824 163.456 106.664 162.688C106.648 162.56 106.632 162.528 106.728 162.512C106.936 162.48 107.256 162.448 107.528 162.448C107.88 162.448 107.96 162.512 107.96 162.624C107.96 162.736 107.88 162.896 107.896 163.104C107.96 163.632 108.168 164.272 108.44 164.944C109.16 164.736 109.848 164.48 110.424 164.176C110.456 164.16 110.472 164.16 110.488 164.16C110.552 164.16 110.584 164.192 110.616 164.256C110.696 164.384 110.936 164.784 111.016 165.008V165.04C111.016 165.088 111 165.152 110.92 165.184C110.328 165.472 109.624 165.712 108.888 165.92C109.656 167.504 110.728 169.12 111.592 170.192C111.64 170.24 111.624 170.304 111.56 170.352C111.4 170.464 110.984 170.608 110.76 170.672H110.712C110.648 170.672 110.616 170.656 110.568 170.624C110.392 170.496 110.328 170.352 109.56 170.16C108.872 169.984 107.976 169.856 107.08 169.856C106.408 169.856 105.736 169.936 105.16 170.08C104.28 170.304 103.848 170.832 103.848 171.392C103.848 171.984 104.344 172.608 105.336 172.912C105.944 173.088 106.616 173.152 107.24 173.152C108.136 173.152 108.968 173.024 109.512 172.896H109.576C109.64 172.896 109.64 172.928 109.608 173.04C109.544 173.28 109.416 173.616 109.384 173.84C109.352 174 109.272 174.064 109.064 174.112C108.68 174.176 108.088 174.24 107.416 174.24ZM123.864 173.824C123.448 173.824 123.032 173.808 122.632 173.76C121.096 173.6 120.216 172.832 120.04 171.328C120.024 171.12 120.008 170.864 120.008 170.592C120.008 170.064 120.04 169.44 120.04 168.88C120.04 168.64 120.024 168.368 120.024 168.08C118.648 168.288 117.416 168.512 116.52 168.688H116.456C116.392 168.688 116.36 168.672 116.328 168.608C116.248 168.464 116.024 167.904 115.992 167.712V167.664C115.992 167.6 116.024 167.584 116.152 167.584C116.6 167.568 117.416 167.488 117.88 167.424C118.584 167.328 119.304 167.248 120.024 167.152C120.008 166.528 119.992 165.936 119.96 165.488C119.944 165.152 119.912 164.656 119.832 164.272V164.208C119.832 164.16 119.848 164.128 119.944 164.128C120.168 164.128 120.84 164.192 121.208 164.272C121.336 164.304 121.368 164.368 121.368 164.432C121.368 164.544 121.256 164.672 121.208 164.736C121.08 164.928 121.064 165.248 121.048 165.632V167.008C122.392 166.816 123.752 166.64 125.112 166.464C125.144 165.728 125.176 164.944 125.176 164.192C125.176 163.888 125.16 163.6 125.144 163.376V163.296C125.144 163.248 125.16 163.232 125.208 163.232C125.416 163.232 126.056 163.344 126.392 163.456C126.536 163.504 126.584 163.552 126.584 163.6C126.584 163.744 126.28 163.904 126.264 164.112C126.184 164.72 126.136 165.504 126.072 166.352C127.304 166.208 128.536 166.08 129.736 166H129.768C129.848 166 129.848 166.048 129.864 166.128C129.896 166.336 129.928 166.816 129.912 166.992C129.912 167.056 129.88 167.104 129.8 167.104C128.712 167.088 127.4 167.168 126.008 167.296C125.944 167.984 125.848 168.816 125.752 169.28C125.512 170.32 124.872 170.72 124.024 170.72C123.784 170.72 123.544 170.688 123.288 170.64C123.208 170.624 123.112 170.576 123.096 170.448C123.08 170.224 123 169.968 122.936 169.776C122.904 169.664 122.888 169.632 123 169.648C123.272 169.696 123.528 169.728 123.752 169.728C124.296 169.728 124.712 169.552 124.824 168.992C124.904 168.608 124.984 167.968 125.032 167.392C123.688 167.536 122.312 167.728 121.016 167.92C121.016 168.224 121.016 168.528 121 168.848C120.984 169.248 120.984 169.632 120.984 170C120.984 170.432 120.984 170.832 121.016 171.152C121.096 172.192 121.672 172.624 122.744 172.768C122.984 172.8 123.256 172.816 123.528 172.816C124.392 172.816 125.384 172.688 126.44 172.48C126.472 172.48 126.488 172.464 126.52 172.464C126.584 172.464 126.616 172.512 126.584 172.64C126.52 172.992 126.456 173.184 126.408 173.424C126.36 173.616 126.264 173.616 126.152 173.648C125.384 173.76 124.616 173.824 123.864 173.824ZM138.616 174.032C137.864 174.032 137.128 173.888 136.584 173.584C135.848 173.184 135.528 172.592 135.528 172.048C135.528 171.28 136.2 170.56 137.32 170.56C138.616 170.56 139.704 171.536 139.544 173.072C140.136 172.96 140.696 172.752 141.128 172.432C142.008 171.792 142.504 170.896 142.504 170.048C142.504 169.312 142.136 168.608 141.288 168.16C140.84 167.92 140.232 167.792 139.608 167.792C138.52 167.792 137.336 168.128 136.552 168.768C135.8 169.376 135.192 169.968 134.696 170.448C134.648 170.496 134.6 170.496 134.536 170.448C134.392 170.368 133.928 169.984 133.816 169.856C133.768 169.792 133.8 169.728 133.832 169.696C135.576 168.352 139.48 164.608 139.896 164.064C139.992 163.952 139.96 163.952 139.832 163.984C138.648 164.336 136.84 164.576 135.768 164.672H135.688C135.608 164.672 135.576 164.656 135.528 164.56C135.448 164.416 135.288 163.888 135.272 163.744V163.68C135.272 163.6 135.304 163.552 135.432 163.584C135.576 163.6 135.752 163.6 135.944 163.6C137.352 163.6 139.928 163.232 140.568 162.944C140.616 162.912 140.648 162.912 140.68 162.912C140.744 162.912 140.792 162.928 140.856 162.976C141 163.056 141.416 163.328 141.608 163.52C141.656 163.568 141.672 163.616 141.672 163.648C141.672 163.792 141.432 163.888 141.352 163.968C141.032 164.272 138.76 166.496 138.056 167.168C137.944 167.264 137.944 167.344 138.104 167.28C138.6 167.088 139.288 166.976 139.976 166.976C140.6 166.976 141.224 167.072 141.72 167.312C142.936 167.872 143.576 168.912 143.576 170.048C143.576 171.12 142.984 172.272 141.784 173.136C140.952 173.712 139.752 174.032 138.616 174.032ZM136.488 172.064C136.488 172.336 136.68 172.656 137.064 172.848C137.464 173.056 138.008 173.168 138.584 173.168C138.6 173.04 138.616 172.912 138.616 172.8C138.616 171.872 137.992 171.376 137.368 171.376C136.792 171.376 136.488 171.696 136.488 172.064ZM151.048 174.832C150.184 173.84 148.904 172.88 148.2 172.464C148.12 172.4 148.104 172.384 148.184 172.272C148.264 172.144 148.6 171.808 148.712 171.728C148.76 171.68 148.792 171.648 148.872 171.696C149.528 172.064 150.904 172.976 151.864 173.888C151.928 173.952 151.912 174.016 151.88 174.08C151.768 174.272 151.368 174.704 151.224 174.832C151.176 174.88 151.112 174.896 151.048 174.832Z" fill="#E5E5E5"/>
<path d="M21.592 230.32C21.448 230.32 21.376 230.272 21.352 230.128C21.328 229.912 21.328 229.36 21.352 229.144C21.376 228.952 21.424 228.952 21.592 228.952C25.672 229.096 28.024 229.096 30.256 229.096V227.44C28.552 227.44 27.088 227.464 24.28 227.56C24.136 227.56 24.088 227.488 24.088 227.368C24.064 227.152 24.064 226.648 24.088 226.432C24.088 226.288 24.112 226.24 24.28 226.264C26.968 226.384 28.672 226.408 30.256 226.408V224.824C28.216 224.824 26.2 224.824 23.032 224.944C22.864 224.944 22.816 224.896 22.792 224.776C22.768 224.56 22.768 223.96 22.792 223.768C22.816 223.624 22.816 223.552 23.008 223.576C26.104 223.696 28.36 223.72 30.232 223.72C30.208 222.736 30.136 222.088 29.992 221.44V221.344C29.992 221.272 30.016 221.248 30.088 221.248C30.4 221.248 31.36 221.344 32.032 221.56C32.2 221.608 32.248 221.68 32.248 221.776C32.248 221.92 32.032 222.136 31.912 222.4C31.768 222.712 31.744 222.928 31.72 223.72C33.784 223.72 35.848 223.696 38.848 223.576C38.992 223.576 39.016 223.648 39.04 223.768C39.064 223.984 39.064 224.56 39.04 224.776C39.016 224.896 38.968 224.944 38.872 224.944C35.92 224.848 33.736 224.824 31.696 224.824V226.408C33.304 226.408 34.552 226.384 37.24 226.264C37.36 226.264 37.384 226.312 37.408 226.456C37.432 226.672 37.432 227.176 37.408 227.392C37.384 227.488 37.336 227.56 37.24 227.56C34.504 227.464 33.256 227.44 31.696 227.44V229.096H33.28C35.248 229.096 37.408 229.072 40.6 228.952C40.744 228.952 40.768 229.024 40.768 229.144C40.792 229.264 40.816 229.456 40.816 229.648C40.816 229.864 40.792 230.056 40.768 230.176C40.768 230.272 40.72 230.32 40.6 230.32C37.408 230.2 35.08 230.2 33.016 230.2H28.648C26.728 230.2 24.736 230.224 21.592 230.32ZM25.36 242.392C25.456 240.736 25.528 238.432 25.528 235.576C25.528 234.712 25.504 233.152 25.384 231.688V231.568C25.384 231.472 25.432 231.448 25.624 231.472C26.824 231.52 29.704 231.568 31.072 231.568C32.392 231.568 35.32 231.544 36.52 231.472H36.568C36.688 231.472 36.736 231.544 36.736 231.688C36.568 234.184 36.592 235.768 36.592 236.512C36.592 237.04 36.616 238.216 36.712 240.088C36.76 241.456 36.136 242.512 33.4 242.536C33.304 242.536 33.208 242.488 33.16 242.344C33.088 242.008 32.608 241.504 32.272 241.12C32.152 241 32.176 240.952 32.368 240.976C32.896 241.048 33.328 241.072 33.688 241.072C34.792 241.072 35.176 240.736 35.176 239.896C35.176 239.344 35.2 238.84 35.2 238.408L30.976 238.384L26.896 238.408C26.896 239.968 26.944 241.408 26.968 242.416C26.968 242.512 26.872 242.584 26.728 242.584C26.464 242.608 25.912 242.608 25.552 242.584C25.408 242.584 25.36 242.536 25.36 242.392ZM26.872 237.208C28.024 237.232 30.184 237.232 30.976 237.232L35.2 237.208V235.576L30.976 235.552L26.872 235.576V237.208ZM26.872 234.4L30.952 234.424C31.792 234.424 34.192 234.4 35.176 234.376V232.696L31.024 232.672C29.896 232.696 27.04 232.696 26.896 232.696C26.896 232.768 26.896 233.608 26.872 234.4ZM55.816 240.568C55.624 240.568 55.432 240.52 55.288 240.304C55.072 239.944 54.76 239.704 54.496 239.464C54.4 239.368 54.352 239.32 54.352 239.272C54.352 239.2 54.448 239.176 54.592 239.176C59.896 239.272 63.184 236.296 63.184 233.104C63.184 231.928 62.752 230.728 61.816 229.648C60.88 228.544 59.416 227.824 57.832 227.56C57.808 227.56 57.808 227.56 57.808 227.584H57.712C57.568 227.584 57.472 227.632 57.4 227.824C56.848 229.336 54.184 235.384 51.88 238.696C51.568 239.152 51.208 239.32 50.824 239.32C50.56 239.32 50.296 239.248 50.032 239.104C48.352 238.24 47.416 236.392 47.416 234.304C47.416 232.072 48.52 229.576 50.968 227.824C52.504 226.744 54.52 226.192 56.536 226.192C58.984 226.192 61.432 227.008 63.016 228.688C64.216 229.984 64.792 231.544 64.792 233.128C64.792 236.656 61.816 240.208 55.936 240.568H55.816ZM48.928 234.184C48.928 235.504 49.432 236.656 50.296 237.304C50.416 237.376 50.512 237.424 50.608 237.424C50.728 237.424 50.848 237.352 50.944 237.232C52.792 234.664 55.192 229.24 55.768 227.488C54.376 227.608 53.008 228.088 51.808 228.952C49.792 230.44 48.928 232.456 48.928 234.184ZM75.04 242.104C74.896 242.08 74.848 242.032 74.848 241.888C75.088 237.808 75.088 234.04 75.088 230.8V229.912C73.96 229.936 72.712 229.984 71.176 230.032C71.032 230.032 70.936 230.008 70.936 229.864C70.912 229.6 70.912 228.904 70.936 228.64C70.936 228.472 70.984 228.448 71.176 228.448C72.736 228.52 73.984 228.544 75.088 228.568V227.44C75.088 226 75.064 224.56 74.92 223.504V223.432C74.92 223.336 74.968 223.312 75.088 223.312C75.448 223.36 76.312 223.432 76.84 223.6C76.984 223.648 77.032 223.72 77.032 223.816C77.032 223.984 76.912 224.176 76.816 224.392C76.72 224.56 76.6 224.776 76.576 225.496C76.552 226.216 76.552 227.44 76.528 228.616H80.416V228.496C80.416 227.656 80.44 226.84 80.44 226.024C80.44 224.8 80.392 223.624 80.224 222.472V222.424C80.224 222.304 80.296 222.304 80.416 222.328C80.704 222.352 81.568 222.448 82.096 222.616C82.24 222.664 82.288 222.736 82.288 222.808C82.288 222.952 82.192 223.144 82.096 223.336C81.952 223.648 81.88 223.864 81.856 224.608C81.832 225.496 81.808 227.296 81.784 228.496V228.616H85.6V228.496C85.6 227.608 85.624 226.768 85.624 225.952C85.624 224.824 85.576 223.72 85.432 222.616V222.568C85.432 222.496 85.456 222.448 85.528 222.448C85.84 222.448 86.656 222.568 87.232 222.76C87.4 222.808 87.472 222.88 87.472 223C87.472 223.12 87.352 223.288 87.256 223.528C87.16 223.744 87.064 224.032 87.04 224.728C87.016 225.664 86.968 227.296 86.968 228.496V228.592C88.36 228.568 89.872 228.52 91.72 228.448C91.888 228.448 91.912 228.496 91.912 228.64C91.936 228.928 91.936 229.6 91.912 229.888C91.912 229.984 91.84 230.032 91.72 230.032C89.92 229.96 88.384 229.936 86.968 229.912C86.992 232.36 87.064 234.472 87.136 236.824C87.136 236.944 87.088 236.992 86.968 236.992C86.8 237.016 86.56 237.016 86.32 237.016C86.104 237.016 85.864 237.016 85.72 236.992C85.576 236.992 85.504 236.944 85.528 236.824C85.528 236.488 85.552 236.2 85.552 235.888C85 235.888 84.328 235.864 83.824 235.864L81.88 235.888C81.88 236.248 81.904 236.608 81.904 236.968C81.904 237.088 81.856 237.136 81.736 237.136C81.568 237.16 81.328 237.16 81.088 237.16C80.848 237.16 80.608 237.16 80.464 237.136C80.32 237.136 80.272 237.088 80.272 236.968C80.392 233.824 80.416 232.144 80.416 229.864C78.976 229.864 77.776 229.864 76.528 229.888V233.032C76.528 235.168 76.552 237.616 76.576 239.704C78.04 239.752 78.856 239.776 80.488 239.776C83.824 239.776 85.768 239.776 90.136 239.584C90.304 239.584 90.328 239.656 90.328 239.8C90.352 240.088 90.352 240.808 90.328 241.072C90.328 241.192 90.256 241.24 90.136 241.24C85.84 241.072 83.728 241.072 80.488 241.072C78.592 241.072 77.968 241.096 76.624 241.12C76.624 241.408 76.648 241.672 76.648 241.912C76.648 242.032 76.6 242.08 76.48 242.104C76.144 242.128 75.328 242.128 75.04 242.104ZM81.784 229.864L81.856 234.712C82.432 234.736 83.248 234.736 83.824 234.736C84.328 234.736 85.024 234.736 85.576 234.712C85.6 233.776 85.6 232.984 85.6 232.216V229.888C84.328 229.864 83.104 229.864 81.784 229.864ZM98.056 242.584C97.936 242.632 97.864 242.608 97.792 242.512C97.456 241.96 96.856 241.624 96.544 241.384C96.424 241.264 96.472 241.216 96.592 241.192C101.392 240.64 103.072 238 103.12 235.384C103.12 234.928 103.12 234.352 103.048 233.8C101.272 234.928 99.16 236.032 97.264 236.632C97.12 236.68 96.976 236.752 96.904 236.632C96.616 236.224 95.92 235.816 95.632 235.624C95.464 235.528 95.44 235.432 95.656 235.384C99.664 234.472 103.288 232.432 105.136 230.656L105.544 230.248C103.984 230.248 102.016 230.272 101.032 230.272C101.032 230.536 101.032 230.776 101.056 231.04C101.056 231.184 101.008 231.208 100.84 231.208C100.504 231.232 99.952 231.232 99.664 231.208C99.52 231.208 99.448 231.136 99.448 231.04C99.616 229.384 99.64 228.064 99.64 226.648C99.64 225.16 99.616 224.2 99.52 222.496V222.472C99.52 222.376 99.592 222.304 99.736 222.328C101.608 222.4 104.608 222.424 106.48 222.424C108.544 222.424 111.16 222.4 113.056 222.304H113.104C113.272 222.304 113.32 222.424 113.32 222.496C113.224 224.128 113.2 225.328 113.2 226.624C113.2 227.848 113.272 229.096 113.392 230.8V230.824C113.392 230.92 113.296 231.016 113.176 231.016C112.816 231.04 112.312 231.04 112.024 231.016C111.88 230.992 111.784 230.944 111.784 230.8C111.808 230.632 111.808 230.464 111.808 230.296C110.968 230.272 109.12 230.248 107.56 230.248C107.656 230.32 107.68 230.392 107.68 230.44C107.68 230.512 107.584 230.56 107.416 230.584C109.984 232.384 112.912 233.968 117.496 234.784C117.664 234.832 117.712 234.904 117.544 235.048C117.232 235.312 116.776 235.672 116.464 236.128C116.368 236.248 116.272 236.272 116.152 236.224C112.456 235.216 109.096 233.248 106.408 231.256L106.336 231.328C105.712 231.952 104.704 232.696 103.552 233.464C103.912 233.512 104.392 233.584 104.8 233.68C104.92 233.728 104.968 233.776 104.968 233.848C104.968 233.968 104.872 234.136 104.776 234.304C104.608 234.616 104.56 234.736 104.536 235.48C104.488 238.696 102.616 241.552 98.056 242.584ZM100.936 226.912C100.96 227.416 100.984 228.208 101.008 229.12C102.016 229.144 104.08 229.168 105.664 229.168C105.688 228.568 105.688 227.632 105.688 226.864C104.056 226.888 101.92 226.888 100.936 226.912ZM100.936 225.736C101.944 225.76 104.08 225.784 105.688 225.784C105.688 224.944 105.664 224.056 105.664 223.552C103.72 223.552 100.984 223.576 100.984 223.576L100.936 225.736ZM107.032 226.864C107.032 227.632 107.056 228.544 107.056 229.168C108.736 229.168 110.968 229.12 111.856 229.12C111.88 228.256 111.904 227.416 111.904 226.912C111.016 226.888 108.736 226.888 107.032 226.864ZM107.032 225.784C108.712 225.784 111.016 225.76 111.904 225.736L111.856 223.576C111.856 223.576 109.288 223.552 107.368 223.552C107.368 223.6 107.32 223.696 107.2 223.768C107.08 223.888 107.056 224.008 107.056 224.176C107.032 224.608 107.032 225.208 107.032 225.784ZM108.304 233.608V233.512C108.304 233.44 108.328 233.44 108.472 233.44C108.832 233.488 109.552 233.56 110.104 233.728C110.272 233.776 110.344 233.824 110.344 233.896C110.344 233.992 110.248 234.112 110.128 234.256C109.96 234.472 109.936 235.24 109.936 236.176V237.328C109.936 238.864 110.008 240.328 110.104 242.128C110.104 242.248 110.032 242.272 109.936 242.296C109.576 242.32 108.904 242.32 108.616 242.296C108.448 242.272 108.4 242.248 108.424 242.128C108.496 240.808 108.496 239.776 108.496 238.792V237.328C108.496 236.128 108.52 234.568 108.304 233.608ZM141.016 238.408C140.944 238.408 140.896 238.408 140.8 238.36C137.152 236.872 131.128 231.928 129.736 231.04C129.352 230.8 129.016 230.632 128.656 230.632C128.344 230.632 128.032 230.776 127.696 231.064C126.88 231.808 125.032 233.728 124.6 234.256C124.312 234.616 124.264 235.024 123.952 235.024C123.88 235.024 123.76 234.976 123.592 234.88C123.208 234.64 122.68 234.232 122.44 233.968C122.32 233.848 122.344 233.776 122.464 233.704C124.264 232.456 125.464 231.016 126.856 229.768C127.408 229.264 128.008 229.048 128.584 229.048C129.256 229.048 129.928 229.336 130.552 229.744C132.184 230.848 137.944 235.408 141.904 236.824C142.048 236.872 142.12 236.92 142.12 236.992C142.12 237.064 142.072 237.136 142 237.256C141.808 237.544 141.448 238.024 141.208 238.312C141.136 238.384 141.088 238.408 141.016 238.408Z" fill="#E5E5E5"/>
<path d="M205.254 21.2461L213.686 27.6862L205.254 34.1265" stroke="#E5E5E5" stroke-width="3" stroke-linecap="round"/>
<path d="M37.912 14.68L39.576 13.656C40.152 14.872 40.632 15.704 41.368 16.792C42.488 15.672 43.224 14.744 44.088 13.496L45.688 14.744C45.752 14.776 45.976 14.968 45.976 15.128C45.976 15.384 45.688 15.416 45.112 15.48C44.184 16.568 43.224 17.528 42.456 18.296C43 19 43.448 19.512 43.96 20.056C45.432 18.68 46.168 17.912 47.32 16.504L48.92 17.816C49.016 17.88 49.144 18.008 49.144 18.168C49.144 18.424 48.888 18.424 48.248 18.456C47 19.704 46.904 19.8 45.24 21.336C47 22.936 48.408 23.864 49.24 24.408L47.32 25.912C42.936 22.488 40.248 19.384 37.912 14.68ZM32.824 22.424H43.096V24.6H32.6V22.744C30.776 24.632 29.72 25.688 28.76 26.424L27.256 24.6C29.112 23.32 30.456 22.136 31.928 20.408C31.544 19.864 30.904 18.904 29.016 17.336L30.264 15.768C31.384 16.6 32.312 17.624 33.24 18.68C34.2 17.432 34.744 16.536 35.32 15.256H28.408V13.272H37.336L38.008 14.104C37.272 16.376 35.704 19.224 32.824 22.424ZM31.16 33.592V26.744H44.504V33.592H31.16ZM42.264 31.672V28.664H33.4V31.672H42.264ZM22.168 15.672L23.16 13.656C25.144 14.424 26.552 15.288 27.672 16.088L26.584 18.008C25.272 17.176 23.576 16.344 22.168 15.672ZM20.504 24.664L21.496 22.584C22.552 23 24.6 23.832 25.912 24.92L24.824 26.936C23.48 25.944 22.232 25.272 20.504 24.664ZM26.744 28.824L28.408 30.424C27.16 33.176 25.72 36.28 23.832 40.024C23.896 40.216 23.928 40.376 23.928 40.632C23.928 40.728 23.928 41.08 23.64 41.08C23.48 41.08 23.224 40.888 23.192 40.856L21.08 39.416C23.096 36.44 24.664 33.496 26.744 28.824ZM41.656 38.168L39.736 37.432C40.408 36.504 41.048 35.448 41.656 33.848L43.544 34.776C43.704 34.84 43.928 34.968 43.928 35.128C43.928 35.416 43.64 35.48 43.16 35.576C42.296 37.208 42.2 37.368 41.656 38.168ZM34.84 38.264H48.92V40.344H27.672V38.264H34.36C33.688 37.08 33.016 36.248 32.024 35.096L33.688 33.912C34.872 35.192 35.576 36.152 36.28 37.272L34.84 38.264ZM70.2 23.96C71.736 23.96 73.08 25.208 73.08 26.84C73.08 28.44 71.768 29.72 70.2 29.72C68.6 29.72 67.352 28.408 67.352 26.84C67.352 25.24 68.632 23.96 70.2 23.96ZM108.664 18.072H100.92V39H98.008V18.072H90.296V15.64H108.664V18.072ZM133.812 15.64L125.204 29.336V39H122.228V29.336L113.62 15.64H116.98L123.732 26.712L130.484 15.64H133.812ZM160.135 27.32C160.135 34.808 156.007 39.64 150.023 39.64C144.007 39.64 139.879 34.776 139.879 27.32C139.879 19.896 143.975 15 150.023 15C156.039 15 160.135 19.896 160.135 27.32ZM157.127 27.32C157.127 21.528 154.503 17.4 150.023 17.4C145.543 17.4 142.919 21.496 142.919 27.32C142.919 33.144 145.543 37.24 150.023 37.24C154.535 37.24 157.127 33.08 157.127 27.32ZM186.976 30.552C186.976 35.448 183.744 39.64 177.6 39.64C168.8 39.64 168 32.536 168 30.552V15.64H170.912V30.968C170.912 33.912 172.64 37.24 177.408 37.24C183.584 37.24 184.064 32.408 184.064 30.968V15.64H186.976V30.552Z" fill="white"/>
<path d="M19 42.2H189.632V43.8H19V42.2Z" fill="white"/>
</svg>
