<svg width="87" height="12" viewBox="0 0 87 12" fill="none" xmlns="http://www.w3.org/2000/svg">
<path d="M10.1999 5.505C10.1999 6.335 10.0949 7.09 9.88488 7.77C9.68488 8.44 9.37488 9.02 8.95488 9.51C8.54488 10 8.01488 10.375 7.36488 10.635C6.72488 10.895 5.96988 11.025 5.09988 11.025C4.22988 11.025 3.46988 10.895 2.81988 10.635C2.17988 10.365 1.64988 9.99 1.22988 9.51C0.819883 9.02 0.509883 8.435 0.299883 7.755C0.0998828 7.075 -0.000117157 6.32 -0.000117157 5.49C-0.000117157 4.38 0.179883 3.415 0.539883 2.595C0.909883 1.775 1.46988 1.14 2.21988 0.69C2.97988 0.23 3.94488 -3.57628e-07 5.11488 -3.57628e-07C6.27488 -3.57628e-07 7.22988 0.23 7.97988 0.69C8.72988 1.14 9.28488 1.78 9.64488 2.61C10.0149 3.43 10.1999 4.395 10.1999 5.505ZM2.38488 5.505C2.38488 6.255 2.47988 6.9 2.66988 7.44C2.85988 7.98 3.15488 8.395 3.55488 8.685C3.95488 8.975 4.46988 9.12 5.09988 9.12C5.74988 9.12 6.26988 8.975 6.65988 8.685C7.05988 8.395 7.34988 7.98 7.52988 7.44C7.71988 6.9 7.81488 6.255 7.81488 5.505C7.81488 4.375 7.60488 3.49 7.18488 2.85C6.76488 2.21 6.07488 1.89 5.11488 1.89C4.47488 1.89 3.95488 2.035 3.55488 2.325C3.15488 2.615 2.85988 3.03 2.66988 3.57C2.47988 4.11 2.38488 4.755 2.38488 5.505ZM21.4219 0.164999L17.7769 10.875H15.3019L11.6719 0.164999H13.9669L15.9769 6.54C16.0169 6.65 16.0719 6.855 16.1419 7.155C16.2219 7.445 16.3019 7.755 16.3819 8.085C16.4619 8.405 16.5169 8.675 16.5469 8.895C16.5769 8.675 16.6269 8.405 16.6969 8.085C16.7769 7.755 16.8569 7.445 16.9369 7.155C17.0169 6.855 17.0719 6.65 17.1019 6.54L19.1269 0.164999H21.4219ZM29.6927 10.875H23.5277V0.164999H29.6927V2.025H25.7927V4.38H29.4227V6.24H25.7927V9H29.6927V10.875ZM35.7913 0.164999C36.7613 0.164999 37.5613 0.284999 38.1913 0.524999C38.8213 0.754999 39.2913 1.11 39.6013 1.59C39.9113 2.06 40.0663 2.655 40.0663 3.375C40.0663 3.865 39.9713 4.295 39.7813 4.665C39.6013 5.025 39.3563 5.335 39.0463 5.595C38.7463 5.845 38.4213 6.05 38.0713 6.21L41.2213 10.875H38.7013L36.1513 6.765H34.9363V10.875H32.6713V0.164999H35.7913ZM35.6263 2.025H34.9363V4.92H35.6713C36.1713 4.92 36.5763 4.865 36.8863 4.755C37.1963 4.645 37.4213 4.48 37.5613 4.26C37.7013 4.03 37.7713 3.755 37.7713 3.435C37.7713 3.095 37.6913 2.825 37.5313 2.625C37.3813 2.415 37.1463 2.265 36.8263 2.175C36.5163 2.075 36.1163 2.025 35.6263 2.025ZM56.3701 0.164999L52.7251 10.875H50.2501L46.6201 0.164999H48.9151L50.9251 6.54C50.9651 6.65 51.0201 6.855 51.0901 7.155C51.1701 7.445 51.2501 7.755 51.3301 8.085C51.4101 8.405 51.4651 8.675 51.4951 8.895C51.5251 8.675 51.5751 8.405 51.6451 8.085C51.7251 7.755 51.8051 7.445 51.8851 7.155C51.9651 6.855 52.0201 6.65 52.0501 6.54L54.0751 0.164999H56.3701ZM62.481 10.875H57.606V9.585L58.911 8.985V2.055L57.606 1.455V0.164999H62.481V1.455L61.176 2.055V8.985L62.481 9.585V10.875ZM78.2111 0.164999L75.4811 10.875H72.9011L71.4461 5.25C71.4161 5.14 71.3761 4.975 71.3261 4.755C71.2861 4.535 71.2361 4.295 71.1761 4.035C71.1261 3.775 71.0811 3.53 71.0411 3.3C71.0011 3.06 70.9711 2.875 70.9511 2.745C70.9411 2.875 70.9111 3.06 70.8611 3.3C70.8211 3.53 70.7761 3.775 70.7261 4.035C70.6761 4.285 70.6261 4.525 70.5761 4.755C70.5261 4.975 70.4861 5.145 70.4561 5.265L69.0161 10.875H66.4361L63.7061 0.164999H65.9411L67.3061 6.015C67.3461 6.185 67.3911 6.395 67.4411 6.645C67.4911 6.885 67.5411 7.14 67.5911 7.41C67.6411 7.67 67.6861 7.925 67.7261 8.175C67.7761 8.425 67.8111 8.64 67.8311 8.82C67.8511 8.63 67.8811 8.415 67.9211 8.175C67.9611 7.925 68.0061 7.675 68.0561 7.425C68.1061 7.165 68.1511 6.925 68.1911 6.705C68.2411 6.475 68.2861 6.295 68.3261 6.165L69.8861 0.164999H72.0311L73.5911 6.165C73.6211 6.295 73.6611 6.475 73.7111 6.705C73.7611 6.925 73.8111 7.165 73.8611 7.425C73.9111 7.685 73.9561 7.94 73.9961 8.19C74.0361 8.43 74.0661 8.64 74.0861 8.82C74.1161 8.57 74.1611 8.275 74.2211 7.935C74.2811 7.585 74.3461 7.235 74.4161 6.885C74.4961 6.535 74.5611 6.245 74.6111 6.015L75.9761 0.164999H78.2111ZM86.473 10.875H80.308V0.164999H86.473V2.025H82.573V4.38H86.203V6.24H82.573V9H86.473V10.875Z" fill="#282828"/>
</svg>
