<svg width="143" height="8" viewBox="0 0 143 8" fill="none" xmlns="http://www.w3.org/2000/svg">
<path d="M-8.87513e-05 7.38623V6.74703L2.40048 4.11918C2.6822 3.81142 2.91421 3.5439 3.0965 3.31663C3.27879 3.08699 3.41374 2.87155 3.50133 2.67032C3.59129 2.46672 3.63627 2.25365 3.63627 2.03112C3.63627 1.77544 3.57472 1.55408 3.45162 1.36705C3.33088 1.18003 3.16516 1.03561 2.95446 0.933815C2.74376 0.832016 2.50701 0.781117 2.24423 0.781117C1.96487 0.781117 1.72103 0.839119 1.5127 0.955122C1.30673 1.06876 1.14693 1.22856 1.03329 1.43453C0.922023 1.64049 0.866389 1.88197 0.866389 2.15896H0.0283203C0.0283203 1.73282 0.126568 1.35877 0.323065 1.0368C0.519561 0.714829 0.78708 0.463882 1.12562 0.283957C1.46653 0.104033 1.84887 0.0140711 2.27264 0.0140711C2.69877 0.0140711 3.07638 0.104033 3.40545 0.283957C3.73452 0.463882 3.99257 0.706543 4.1796 1.01194C4.36663 1.31734 4.46014 1.65706 4.46014 2.03112C4.46014 2.29864 4.41161 2.56024 4.31454 2.81592C4.21985 3.06923 4.05413 3.35214 3.81738 3.66464C3.58301 3.97477 3.25749 4.35356 2.84082 4.801L1.2073 6.54816V6.60498H4.58798V7.38623H-8.87513e-05ZM8.92676 7.48566C8.39172 7.48566 7.93599 7.34007 7.55957 7.04887C7.18315 6.75531 6.89551 6.33036 6.69664 5.77401C6.49778 5.2153 6.39835 4.54059 6.39835 3.74987C6.39835 2.96388 6.49778 2.29272 6.69664 1.73637C6.89788 1.17766 7.1867 0.751524 7.56312 0.457963C7.94191 0.162035 8.39645 0.0140711 8.92676 0.0140711C9.45706 0.0140711 9.91042 0.162035 10.2868 0.457963C10.6656 0.751524 10.9545 1.17766 11.1533 1.73637C11.3546 2.29272 11.4552 2.96388 11.4552 3.74987C11.4552 4.54059 11.3557 5.2153 11.1569 5.77401C10.958 6.33036 10.6704 6.75531 10.2939 7.04887C9.91752 7.34007 9.4618 7.48566 8.92676 7.48566ZM8.92676 6.70441C9.45706 6.70441 9.86899 6.44873 10.1626 5.93737C10.4561 5.426 10.6029 4.69684 10.6029 3.74987C10.6029 3.12013 10.5354 2.58391 10.4005 2.1412C10.2679 1.69849 10.0761 1.36114 9.8252 1.12913C9.57662 0.89712 9.27714 0.781117 8.92676 0.781117C8.40119 0.781117 7.99044 1.04035 7.69451 1.55882C7.39859 2.07491 7.25062 2.80526 7.25062 3.74987C7.25062 4.3796 7.31691 4.91464 7.44949 5.35498C7.58206 5.79532 7.77264 6.13031 8.02122 6.35995C8.27217 6.58959 8.57401 6.70441 8.92676 6.70441ZM13.3046 7.38623V6.74703L15.7052 4.11918C15.9869 3.81142 16.2189 3.5439 16.4012 3.31663C16.5835 3.08699 16.7184 2.87155 16.806 2.67032C16.896 2.46672 16.941 2.25365 16.941 2.03112C16.941 1.77544 16.8794 1.55408 16.7563 1.36705C16.6356 1.18003 16.4698 1.03561 16.2591 0.933815C16.0484 0.832016 15.8117 0.781117 15.5489 0.781117C15.2696 0.781117 15.0257 0.839119 14.8174 0.955122C14.6114 1.06876 14.4516 1.22856 14.338 1.43453C14.2267 1.64049 14.1711 1.88197 14.1711 2.15896H13.333C13.333 1.73282 13.4313 1.35877 13.6278 1.0368C13.8242 0.714829 14.0918 0.463882 14.4303 0.283957C14.7712 0.104033 15.1536 0.0140711 15.5773 0.0140711C16.0035 0.0140711 16.3811 0.104033 16.7101 0.283957C17.0392 0.463882 17.2973 0.706543 17.4843 1.01194C17.6713 1.31734 17.7648 1.65706 17.7648 2.03112C17.7648 2.29864 17.7163 2.56024 17.6192 2.81592C17.5245 3.06923 17.3588 3.35214 17.1221 3.66464C16.8877 3.97477 16.5622 4.35356 16.1455 4.801L14.512 6.54816V6.60498H17.8927V7.38623H13.3046ZM22.2741 7.48566C21.9758 7.48093 21.6775 7.42411 21.3792 7.31521C21.0809 7.20631 20.8086 7.02283 20.5624 6.76478C20.3162 6.50436 20.1185 6.1528 19.9694 5.71009C19.8202 5.26502 19.7456 4.70631 19.7456 4.03396C19.7456 3.39002 19.806 2.81947 19.9268 2.32231C20.0475 1.82278 20.2227 1.40257 20.4523 1.06166C20.682 0.71838 20.959 0.457963 21.2833 0.280406C21.61 0.102849 21.9781 0.0140711 22.3877 0.0140711C22.7949 0.0140711 23.1571 0.0957474 23.4743 0.2591C23.7939 0.420084 24.0544 0.64499 24.2556 0.933815C24.4568 1.22264 24.587 1.55526 24.6462 1.93168H23.7797C23.6992 1.60498 23.543 1.33391 23.311 1.11847C23.079 0.903039 22.7712 0.795321 22.3877 0.795321C21.8242 0.795321 21.3804 1.04035 21.056 1.53041C20.734 2.02046 20.5719 2.7082 20.5695 3.59362H20.6263C20.7589 3.39239 20.9163 3.22075 21.0986 3.0787C21.2833 2.93429 21.4869 2.82302 21.7094 2.7449C21.932 2.66677 22.1675 2.62771 22.4161 2.62771C22.8328 2.62771 23.2139 2.73187 23.5596 2.94021C23.9052 3.14617 24.1822 3.43145 24.3905 3.79603C24.5989 4.15825 24.703 4.57373 24.703 5.04248C24.703 5.49229 24.6024 5.90422 24.4012 6.27828C24.2 6.64996 23.9171 6.94589 23.5525 7.16606C23.1903 7.38386 22.7641 7.4904 22.2741 7.48566ZM22.2741 6.70441C22.5724 6.70441 22.8399 6.62984 23.0766 6.48069C23.3157 6.33154 23.5039 6.1315 23.6412 5.88055C23.7809 5.6296 23.8508 5.35025 23.8508 5.04248C23.8508 4.74182 23.7833 4.46838 23.6483 4.22217C23.5158 3.97359 23.3323 3.77591 23.0979 3.62913C22.8659 3.48235 22.6008 3.40896 22.3025 3.40896C22.0776 3.40896 21.868 3.45394 21.6739 3.5439C21.4798 3.6315 21.3093 3.75223 21.1626 3.90612C21.0181 4.06 20.9045 4.23637 20.8216 4.43524C20.7388 4.63173 20.6974 4.83888 20.6974 5.05669C20.6974 5.34551 20.7648 5.6154 20.8998 5.86634C21.0371 6.11729 21.2241 6.31971 21.4608 6.47359C21.7 6.62747 21.971 6.70441 22.2741 6.70441ZM31.6592 3.74987C31.6592 3.36161 31.7539 3.00768 31.9433 2.68808C32.1327 2.36847 32.3872 2.11398 32.7068 1.92458C33.0264 1.73519 33.3803 1.64049 33.7686 1.64049C34.1047 1.64049 34.4149 1.7127 34.699 1.85711C34.9854 2.00152 35.2222 2.1992 35.4092 2.45015C35.5962 2.69873 35.7122 2.98045 35.7572 3.29532H34.8978C34.8505 3.05148 34.7191 2.85261 34.5036 2.69873C34.2882 2.54248 34.0432 2.46436 33.7686 2.46436C33.5318 2.46436 33.3164 2.52236 33.1222 2.63836C32.9281 2.75436 32.7731 2.90943 32.657 3.10356C32.541 3.29769 32.483 3.51312 32.483 3.74987C32.483 3.98661 32.541 4.20204 32.657 4.39617C32.7731 4.5903 32.9281 4.74537 33.1222 4.86137C33.3164 4.97738 33.5318 5.03538 33.7686 5.03538C34.0432 5.03538 34.2752 4.95844 34.4646 4.80455C34.6563 4.6483 34.7771 4.44826 34.8268 4.20441H35.6862C35.6412 4.51928 35.5311 4.80219 35.3559 5.05313C35.1807 5.30171 34.9558 5.49821 34.6812 5.64262C34.4089 5.78704 34.1047 5.85924 33.7686 5.85924C33.3803 5.85924 33.0264 5.76454 32.7068 5.57515C32.3872 5.38576 32.1327 5.13126 31.9433 4.81166C31.7539 4.49205 31.6592 4.13812 31.6592 3.74987ZM33.733 7.49987C33.2169 7.49987 32.7316 7.4028 32.2771 7.20867C31.8249 7.01454 31.426 6.74584 31.0803 6.40257C30.7371 6.05692 30.4672 5.65801 30.2707 5.20583C30.0766 4.75365 29.9807 4.26833 29.983 3.74987C29.9854 3.2314 30.0837 2.74608 30.2778 2.2939C30.4743 1.84172 30.7442 1.444 31.0874 1.10072C31.4307 0.755075 31.8285 0.485189 32.2806 0.29106C32.7328 0.0969311 33.2169 -0.000133276 33.733 -0.000133276C34.2515 -0.000133276 34.7368 0.0969311 35.189 0.29106C35.6436 0.485189 36.0413 0.755075 36.3822 1.10072C36.7255 1.444 36.9942 1.84172 37.1883 2.2939C37.3824 2.74608 37.4807 3.2314 37.483 3.74987C37.4854 4.26833 37.3895 4.75365 37.1954 5.20583C37.0013 5.65801 36.7326 6.05692 36.3893 6.40257C36.046 6.74584 35.6471 7.01454 35.1926 7.20867C34.738 7.4028 34.2515 7.49987 33.733 7.49987ZM33.733 6.676C34.1379 6.676 34.5178 6.60025 34.873 6.44873C35.2281 6.29722 35.5394 6.0877 35.8069 5.82018C36.0744 5.55266 36.2839 5.24253 36.4355 4.88978C36.587 4.53467 36.6615 4.15588 36.6592 3.75342C36.6568 3.34859 36.5799 2.96862 36.4284 2.6135C36.2768 2.25839 36.0673 1.94707 35.7998 1.67955C35.5323 1.41204 35.2222 1.20252 34.8694 1.051C34.5167 0.899488 34.1379 0.82373 33.733 0.82373C33.3306 0.82373 32.953 0.899488 32.6002 1.051C32.2475 1.20252 31.9374 1.41322 31.6698 1.68311C31.4023 1.95062 31.1916 2.26194 31.0377 2.61705C30.8862 2.9698 30.8093 3.34859 30.8069 3.75342C30.8045 4.15351 30.8791 4.53112 31.0306 4.88623C31.1821 5.23898 31.3917 5.54911 31.6592 5.81663C31.9291 6.08415 32.2404 6.29485 32.5931 6.44873C32.9482 6.60025 33.3282 6.676 33.733 6.676ZM48.7698 0.113503V7.38623H47.9175L43.9545 1.676H43.8834V7.38623H43.0028V0.113503H43.855L47.8323 5.83794H47.9033V0.113503H48.7698ZM51.032 7.38623V0.113503H51.9127V3.35214H55.7906V0.113503H56.6713V7.38623H55.7906V4.13339H51.9127V7.38623H51.032ZM58.6361 5.89475V5.17032L61.8321 0.113503H62.3577V1.23566H62.0026L59.5878 5.05669V5.1135H63.8918V5.89475H58.6361ZM62.0594 7.38623V5.67458V5.33722V0.113503H62.8975V7.38623H62.0594ZM68.18 7.48566C67.7112 7.48566 67.2934 7.40517 66.9264 7.24419C66.5618 7.0832 66.2718 6.85948 66.0564 6.57302C65.8433 6.28419 65.7273 5.9492 65.7084 5.56805H66.6032C66.6222 5.80242 66.7027 6.00484 66.8447 6.17529C66.9868 6.34338 67.1726 6.47359 67.4023 6.56592C67.6319 6.65825 67.8864 6.70441 68.1657 6.70441C68.4782 6.70441 68.7552 6.64996 68.9967 6.54106C69.2382 6.43216 69.4276 6.28064 69.5649 6.08651C69.7022 5.89239 69.7709 5.66748 69.7709 5.4118C69.7709 5.14428 69.7046 4.90872 69.572 4.70512C69.4394 4.49916 69.2453 4.33817 68.9896 4.22217C68.7339 4.10616 68.4214 4.04816 68.0521 4.04816H67.4697V3.26691H68.0521C68.3409 3.26691 68.5943 3.21483 68.8121 3.11066C69.0322 3.0065 69.2039 2.85972 69.327 2.67032C69.4524 2.48093 69.5152 2.25839 69.5152 2.00271C69.5152 1.7565 69.4607 1.54224 69.3518 1.35995C69.2429 1.17766 69.089 1.03561 68.8902 0.933815C68.6937 0.832016 68.4617 0.781117 68.1942 0.781117C67.9432 0.781117 67.7065 0.827282 67.4839 0.919611C67.2638 1.00957 67.0838 1.14097 66.9442 1.31379C66.8045 1.48424 66.7287 1.69021 66.7169 1.93168H65.8646C65.8788 1.55053 65.9936 1.21672 66.2091 0.930264C66.4245 0.641438 66.7062 0.416533 67.0542 0.255549C67.4046 0.0945636 67.7893 0.0140711 68.2084 0.0140711C68.6582 0.0140711 69.0441 0.105217 69.366 0.287509C69.688 0.467433 69.9354 0.705359 70.1082 1.00129C70.281 1.29722 70.3675 1.61682 70.3675 1.96009C70.3675 2.36966 70.2597 2.71885 70.0443 3.00768C69.8312 3.29651 69.5412 3.49655 69.1743 3.60782V3.66464C69.6336 3.7404 69.9922 3.93571 70.2503 4.25058C70.5083 4.56308 70.6373 4.95015 70.6373 5.4118C70.6373 5.80716 70.5296 6.16227 70.3142 6.47714C70.1011 6.78964 69.8099 7.03585 69.4406 7.21578C69.0713 7.3957 68.6511 7.48566 68.18 7.48566ZM72.5898 7.38623V6.74703L74.9903 4.11918C75.272 3.81142 75.5041 3.5439 75.6863 3.31663C75.8686 3.08699 76.0036 2.87155 76.0912 2.67032C76.1811 2.46672 76.2261 2.25365 76.2261 2.03112C76.2261 1.77544 76.1646 1.55408 76.0415 1.36705C75.9207 1.18003 75.755 1.03561 75.5443 0.933815C75.3336 0.832016 75.0969 0.781117 74.8341 0.781117C74.5547 0.781117 74.3109 0.839119 74.1025 0.955122C73.8966 1.06876 73.7368 1.22856 73.6231 1.43453C73.5119 1.64049 73.4562 1.88197 73.4562 2.15896H72.6182C72.6182 1.73282 72.7164 1.35877 72.9129 1.0368C73.1094 0.714829 73.3769 0.463882 73.7155 0.283957C74.0564 0.104033 74.4387 0.0140711 74.8625 0.0140711C75.2886 0.0140711 75.6662 0.104033 75.9953 0.283957C76.3244 0.463882 76.5824 0.706543 76.7694 1.01194C76.9565 1.31734 77.05 1.65706 77.05 2.03112C77.05 2.29864 77.0015 2.56024 76.9044 2.81592C76.8097 3.06923 76.644 3.35214 76.4072 3.66464C76.1729 3.97477 75.8473 4.35356 75.4307 4.801L73.7971 6.54816V6.60498H77.1778V7.38623H72.5898ZM86.5621 1.93168C86.5194 1.57184 86.3466 1.29248 86.0436 1.09362C85.7406 0.894753 85.3689 0.795321 84.9285 0.795321C84.6066 0.795321 84.3248 0.847404 84.0834 0.951571C83.8443 1.05574 83.6572 1.19897 83.5223 1.38126C83.3897 1.56355 83.3234 1.7707 83.3234 2.00271C83.3234 2.19684 83.3696 2.36374 83.4619 2.50342C83.5566 2.64073 83.6773 2.75555 83.8241 2.84788C83.9709 2.93784 84.1248 3.01241 84.2858 3.0716C84.4468 3.12842 84.5947 3.17458 84.7297 3.21009L85.4683 3.40896C85.6577 3.45867 85.8684 3.52733 86.1004 3.61492C86.3348 3.70252 86.5585 3.82207 86.7716 3.97359C86.987 4.12274 87.1646 4.3145 87.3042 4.54887C87.4439 4.78325 87.5138 5.07089 87.5138 5.4118C87.5138 5.80479 87.4108 6.1599 87.2048 6.47714C87.0012 6.79437 86.7029 7.04651 86.3099 7.23353C85.9193 7.42056 85.4446 7.51407 84.8859 7.51407C84.3651 7.51407 83.9141 7.43003 83.5329 7.26194C83.1541 7.09385 82.8559 6.85948 82.6381 6.55882C82.4226 6.25815 82.3007 5.90896 82.2723 5.51123H83.1814C83.205 5.78585 83.2974 6.01312 83.4584 6.19305C83.6217 6.37061 83.8277 6.50318 84.0763 6.59078C84.3272 6.676 84.5971 6.71862 84.8859 6.71862C85.2221 6.71862 85.5239 6.66417 85.7915 6.55526C86.059 6.444 86.2709 6.29011 86.4271 6.09362C86.5834 5.89475 86.6615 5.66275 86.6615 5.39759C86.6615 5.15612 86.594 4.95962 86.4591 4.80811C86.3241 4.65659 86.1466 4.53348 85.9264 4.43879C85.7062 4.34409 85.4683 4.26123 85.2126 4.19021L84.3177 3.93453C83.7496 3.77117 83.2997 3.53798 82.9683 3.23495C82.6369 2.93192 82.4711 2.53538 82.4711 2.04532C82.4711 1.63812 82.5812 1.28301 82.8014 0.97998C83.0239 0.674583 83.3222 0.43784 83.6963 0.269753C84.0727 0.0992984 84.4929 0.0140711 84.9569 0.0140711C85.4257 0.0140711 85.8424 0.0981146 86.2069 0.266202C86.5715 0.431921 86.8604 0.659194 87.0734 0.94802C87.2889 1.23685 87.4025 1.56473 87.4143 1.93168H86.5621ZM89.4617 7.38623V0.113503H91.9191C92.4897 0.113503 92.9561 0.216486 93.3183 0.422452C93.6829 0.62605 93.9527 0.901855 94.1279 1.24987C94.3031 1.59788 94.3907 1.98614 94.3907 2.41464C94.3907 2.84314 94.3031 3.23258 94.1279 3.58296C93.9551 3.93334 93.6876 4.2127 93.3254 4.42103C92.9632 4.627 92.4991 4.72998 91.9333 4.72998H90.172V3.94873H91.9049C92.2955 3.94873 92.6092 3.88126 92.846 3.74632C93.0827 3.61137 93.2544 3.42908 93.3609 3.19944C93.4698 2.96743 93.5242 2.70583 93.5242 2.41464C93.5242 2.12345 93.4698 1.86303 93.3609 1.63339C93.2544 1.40375 93.0815 1.22383 92.8424 1.09362C92.6033 0.961041 92.2861 0.894753 91.8907 0.894753H90.3424V7.38623H89.4617ZM96.3094 7.38623V0.113503H100.699V0.894753H97.1901V3.35214H100.471V4.13339H97.1901V6.60498H100.755V7.38623H96.3094ZM108.638 2.38623H107.758C107.705 2.13292 107.614 1.91038 107.484 1.71862C107.356 1.52686 107.2 1.36587 107.015 1.23566C106.833 1.10309 106.631 1.00365 106.408 0.937367C106.186 0.871079 105.954 0.837935 105.712 0.837935C105.272 0.837935 104.873 0.949204 104.515 1.17174C104.16 1.39428 103.877 1.72217 103.667 2.15541C103.458 2.58865 103.354 3.12013 103.354 3.74987C103.354 4.3796 103.458 4.91109 103.667 5.34433C103.877 5.77757 104.16 6.10545 104.515 6.32799C104.873 6.55053 105.272 6.6618 105.712 6.6618C105.954 6.6618 106.186 6.62865 106.408 6.56237C106.631 6.49608 106.833 6.39783 107.015 6.26762C107.2 6.13505 107.356 5.97288 107.484 5.78112C107.614 5.58699 107.705 5.36445 107.758 5.1135H108.638C108.572 5.48519 108.451 5.81781 108.276 6.11137C108.101 6.40493 107.883 6.6547 107.623 6.86066C107.362 7.06426 107.07 7.21933 106.745 7.32586C106.424 7.4324 106.079 7.48566 105.712 7.48566C105.092 7.48566 104.54 7.33415 104.057 7.03112C103.574 6.72809 103.194 6.29722 102.917 5.7385C102.64 5.17979 102.502 4.51691 102.502 3.74987C102.502 2.98282 102.64 2.31994 102.917 1.76123C103.194 1.20252 103.574 0.771647 104.057 0.468617C104.54 0.165586 105.092 0.0140711 105.712 0.0140711C106.079 0.0140711 106.424 0.0673382 106.745 0.173872C107.07 0.280407 107.362 0.436657 107.623 0.642622C107.883 0.846221 108.101 1.0948 108.276 1.38836C108.451 1.67955 108.572 2.01218 108.638 2.38623ZM110.164 0.894753V0.113503H115.618V0.894753H113.331V7.38623H112.451V0.894753H110.164ZM117.477 7.38623V0.113503H119.935C120.503 0.113503 120.969 0.210567 121.334 0.404696C121.698 0.596457 121.968 0.860425 122.144 1.1966C122.319 1.53277 122.406 1.91511 122.406 2.34362C122.406 2.77212 122.319 3.15209 122.144 3.48353C121.968 3.81497 121.7 4.07539 121.337 4.26478C120.975 4.45181 120.512 4.54532 119.949 4.54532H117.96V3.74987H119.921C120.309 3.74987 120.621 3.69305 120.858 3.57941C121.097 3.46578 121.27 3.30479 121.377 3.09646C121.485 2.88576 121.54 2.63481 121.54 2.34362C121.54 2.05242 121.485 1.79793 121.377 1.58012C121.268 1.36232 121.094 1.19423 120.854 1.07586C120.615 0.955122 120.299 0.894753 119.906 0.894753H118.358V7.38623H117.477ZM120.901 4.11918L122.69 7.38623H121.668L119.906 4.11918H120.901ZM124.672 7.38623H123.749L126.419 0.113503H127.328L129.999 7.38623H129.076L126.902 1.26407H126.845L124.672 7.38623ZM125.013 4.54532H128.735V5.32657H125.013V4.54532ZM131.39 7.38623V6.74703L135.311 0.894753H131.348V0.113503H136.362V0.752707L132.441 6.60498H136.404V7.38623H131.39ZM138.382 7.38623V0.113503H142.771V0.894753H139.262V3.35214H142.544V4.13339H139.262V6.60498H142.828V7.38623H138.382Z" fill="#8B8B8B"/>
</svg>
