<svg width="64" height="12" viewBox="0 0 64 12" fill="none" xmlns="http://www.w3.org/2000/svg">
<path d="M8.7749 10.875H6.5099V6.255H2.2649V10.875H-9.76026e-05V0.164999H2.2649V4.365H6.5099V0.164999H8.7749V10.875ZM21.9396 5.505C21.9396 6.335 21.8346 7.09 21.6246 7.77C21.4246 8.44 21.1146 9.02 20.6946 9.51C20.2846 10 19.7546 10.375 19.1046 10.635C18.4646 10.895 17.7096 11.025 16.8396 11.025C15.9696 11.025 15.2096 10.895 14.5596 10.635C13.9196 10.365 13.3896 9.99 12.9696 9.51C12.5596 9.02 12.2496 8.435 12.0396 7.755C11.8396 7.075 11.7396 6.32 11.7396 5.49C11.7396 4.38 11.9196 3.415 12.2796 2.595C12.6496 1.775 13.2096 1.14 13.9596 0.69C14.7196 0.23 15.6846 -3.57628e-07 16.8546 -3.57628e-07C18.0146 -3.57628e-07 18.9696 0.23 19.7196 0.69C20.4696 1.14 21.0246 1.78 21.3846 2.61C21.7546 3.43 21.9396 4.395 21.9396 5.505ZM14.1246 5.505C14.1246 6.255 14.2196 6.9 14.4096 7.44C14.5996 7.98 14.8946 8.395 15.2946 8.685C15.6946 8.975 16.2096 9.12 16.8396 9.12C17.4896 9.12 18.0096 8.975 18.3996 8.685C18.7996 8.395 19.0896 7.98 19.2696 7.44C19.4596 6.9 19.5546 6.255 19.5546 5.505C19.5546 4.375 19.3446 3.49 18.9246 2.85C18.5046 2.21 17.8146 1.89 16.8546 1.89C16.2146 1.89 15.6946 2.035 15.2946 2.325C14.8946 2.615 14.5996 3.03 14.4096 3.57C14.2196 4.11 14.1246 4.755 14.1246 5.505ZM37.9166 0.164999L35.1866 10.875H32.6066L31.1516 5.25C31.1216 5.14 31.0816 4.975 31.0316 4.755C30.9916 4.535 30.9416 4.295 30.8816 4.035C30.8316 3.775 30.7866 3.53 30.7466 3.3C30.7066 3.06 30.6766 2.875 30.6566 2.745C30.6466 2.875 30.6166 3.06 30.5666 3.3C30.5266 3.53 30.4816 3.775 30.4316 4.035C30.3816 4.285 30.3316 4.525 30.2816 4.755C30.2316 4.975 30.1916 5.145 30.1616 5.265L28.7216 10.875H26.1416L23.4116 0.164999H25.6466L27.0116 6.015C27.0516 6.185 27.0966 6.395 27.1466 6.645C27.1966 6.885 27.2466 7.14 27.2966 7.41C27.3466 7.67 27.3916 7.925 27.4316 8.175C27.4816 8.425 27.5166 8.64 27.5366 8.82C27.5566 8.63 27.5866 8.415 27.6266 8.175C27.6666 7.925 27.7116 7.675 27.7616 7.425C27.8116 7.165 27.8566 6.925 27.8966 6.705C27.9466 6.475 27.9916 6.295 28.0316 6.165L29.5916 0.164999H31.7366L33.2966 6.165C33.3266 6.295 33.3666 6.475 33.4166 6.705C33.4666 6.925 33.5166 7.165 33.5666 7.425C33.6166 7.685 33.6616 7.94 33.7016 8.19C33.7416 8.43 33.7716 8.64 33.7916 8.82C33.8216 8.57 33.8666 8.275 33.9266 7.935C33.9866 7.585 34.0516 7.235 34.1216 6.885C34.2016 6.535 34.2666 6.245 34.3166 6.015L35.6816 0.164999H37.9166ZM48.7851 10.875H46.5201V2.055H43.6101V0.164999H51.6951V2.055H48.7851V10.875ZM63.5236 5.505C63.5236 6.335 63.4186 7.09 63.2086 7.77C63.0086 8.44 62.6986 9.02 62.2786 9.51C61.8686 10 61.3386 10.375 60.6886 10.635C60.0486 10.895 59.2936 11.025 58.4236 11.025C57.5536 11.025 56.7936 10.895 56.1436 10.635C55.5036 10.365 54.9736 9.99 54.5536 9.51C54.1436 9.02 53.8336 8.435 53.6236 7.755C53.4236 7.075 53.3236 6.32 53.3236 5.49C53.3236 4.38 53.5036 3.415 53.8636 2.595C54.2336 1.775 54.7936 1.14 55.5436 0.69C56.3036 0.23 57.2686 -3.57628e-07 58.4386 -3.57628e-07C59.5986 -3.57628e-07 60.5536 0.23 61.3036 0.69C62.0536 1.14 62.6086 1.78 62.9686 2.61C63.3386 3.43 63.5236 4.395 63.5236 5.505ZM55.7086 5.505C55.7086 6.255 55.8036 6.9 55.9936 7.44C56.1836 7.98 56.4786 8.395 56.8786 8.685C57.2786 8.975 57.7936 9.12 58.4236 9.12C59.0736 9.12 59.5936 8.975 59.9836 8.685C60.3836 8.395 60.6736 7.98 60.8536 7.44C61.0436 6.9 61.1386 6.255 61.1386 5.505C61.1386 4.375 60.9286 3.49 60.5086 2.85C60.0886 2.21 59.3986 1.89 58.4386 1.89C57.7986 1.89 57.2786 2.035 56.8786 2.325C56.4786 2.615 56.1836 3.03 55.9936 3.57C55.8036 4.11 55.7086 4.755 55.7086 5.505Z" fill="#282828"/>
</svg>
