<svg width="114" height="12" viewBox="0 0 114 12" fill="none" xmlns="http://www.w3.org/2000/svg">
<path d="M11.604 1.66784L9.42 10.2358H7.356L6.192 5.73584C6.168 5.64784 6.136 5.51584 6.096 5.33984C6.064 5.16384 6.024 4.97184 5.976 4.76384C5.936 4.55584 5.9 4.35984 5.868 4.17584C5.836 3.98384 5.812 3.83584 5.796 3.73184C5.788 3.83584 5.764 3.98384 5.724 4.17584C5.692 4.35984 5.656 4.55584 5.616 4.76384C5.576 4.96384 5.536 5.15584 5.496 5.33984C5.456 5.51584 5.424 5.65184 5.4 5.74784L4.248 10.2358H2.184L0 1.66784H1.788L2.88 6.34784C2.912 6.48384 2.948 6.65184 2.988 6.85184C3.028 7.04384 3.068 7.24784 3.108 7.46384C3.148 7.67184 3.184 7.87584 3.216 8.07584C3.256 8.27584 3.284 8.44784 3.3 8.59184C3.316 8.43984 3.34 8.26784 3.372 8.07584C3.404 7.87584 3.44 7.67584 3.48 7.47584C3.52 7.26784 3.556 7.07584 3.588 6.89984C3.628 6.71584 3.664 6.57184 3.696 6.46784L4.944 1.66784H6.66L7.908 6.46784C7.932 6.57184 7.964 6.71584 8.004 6.89984C8.044 7.07584 8.084 7.26784 8.124 7.47584C8.164 7.68384 8.2 7.88784 8.232 8.08784C8.264 8.27984 8.288 8.44784 8.304 8.59184C8.328 8.39184 8.364 8.15584 8.412 7.88384C8.46 7.60384 8.512 7.32384 8.568 7.04384C8.632 6.76384 8.684 6.53184 8.724 6.34784L9.816 1.66784H11.604ZM20.9404 5.93984C20.9404 6.60384 20.8564 7.20784 20.6884 7.75184C20.5284 8.28784 20.2804 8.75184 19.9444 9.14384C19.6164 9.53584 19.1924 9.83584 18.6724 10.0438C18.1604 10.2518 17.5564 10.3558 16.8604 10.3558C16.1644 10.3558 15.5564 10.2518 15.0364 10.0438C14.5244 9.82784 14.1004 9.52784 13.7644 9.14384C13.4364 8.75184 13.1884 8.28384 13.0204 7.73984C12.8604 7.19584 12.7804 6.59184 12.7804 5.92784C12.7804 5.03984 12.9244 4.26784 13.2124 3.61184C13.5084 2.95584 13.9564 2.44784 14.5564 2.08784C15.1644 1.71984 15.9364 1.53584 16.8724 1.53584C17.8004 1.53584 18.5644 1.71984 19.1644 2.08784C19.7644 2.44784 20.2084 2.95984 20.4964 3.62384C20.7924 4.27984 20.9404 5.05184 20.9404 5.93984ZM14.6884 5.93984C14.6884 6.53984 14.7644 7.05584 14.9164 7.48784C15.0684 7.91984 15.3044 8.25184 15.6244 8.48384C15.9444 8.71584 16.3564 8.83184 16.8604 8.83184C17.3804 8.83184 17.7964 8.71584 18.1084 8.48384C18.4284 8.25184 18.6604 7.91984 18.8044 7.48784C18.9564 7.05584 19.0324 6.53984 19.0324 5.93984C19.0324 5.03584 18.8644 4.32784 18.5284 3.81584C18.1924 3.30384 17.6404 3.04784 16.8724 3.04784C16.3604 3.04784 15.9444 3.16384 15.6244 3.39584C15.3044 3.62784 15.0684 3.95984 14.9164 4.39184C14.7644 4.82384 14.6884 5.33984 14.6884 5.93984ZM25.8112 1.66784C26.5872 1.66784 27.2272 1.76384 27.7312 1.95584C28.2352 2.13984 28.6112 2.42384 28.8592 2.80784C29.1072 3.18384 29.2312 3.65984 29.2312 4.23584C29.2312 4.62784 29.1552 4.97184 29.0032 5.26784C28.8592 5.55584 28.6632 5.80384 28.4152 6.01184C28.1752 6.21184 27.9152 6.37584 27.6352 6.50384L30.1552 10.2358H28.1392L26.0992 6.94784H25.1272V10.2358H23.3152V1.66784H25.8112ZM25.6792 3.15584H25.1272V5.47184H25.7152C26.1152 5.47184 26.4392 5.42784 26.6872 5.33984C26.9352 5.25184 27.1152 5.11984 27.2272 4.94384C27.3392 4.75984 27.3952 4.53984 27.3952 4.28384C27.3952 4.01184 27.3312 3.79584 27.2032 3.63584C27.0832 3.46784 26.8952 3.34784 26.6392 3.27584C26.3912 3.19584 26.0712 3.15584 25.6792 3.15584ZM38.725 10.2358H36.661L34.417 6.62384L33.649 7.17584V10.2358H31.837V1.66784H33.649V5.59184C33.769 5.42384 33.889 5.25584 34.009 5.08784C34.129 4.91984 34.249 4.75184 34.369 4.58384L36.685 1.66784H38.701L35.713 5.45984L38.725 10.2358ZM39.6858 7.75184V6.28784H42.8298V7.75184H39.6858ZM49.925 3.58784C49.925 3.97984 49.841 4.31984 49.673 4.60784C49.513 4.89584 49.293 5.13184 49.013 5.31584C48.741 5.49984 48.429 5.63584 48.077 5.72384V5.75984C48.765 5.83984 49.285 6.04784 49.637 6.38384C49.997 6.71984 50.177 7.17184 50.177 7.73984C50.177 8.23584 50.053 8.68384 49.805 9.08384C49.565 9.47584 49.189 9.78784 48.677 10.0198C48.173 10.2438 47.521 10.3558 46.721 10.3558C46.249 10.3558 45.809 10.3158 45.401 10.2358C44.993 10.1558 44.609 10.0398 44.249 9.88784V8.35184C44.617 8.53584 45.001 8.67584 45.401 8.77184C45.809 8.86784 46.185 8.91584 46.529 8.91584C47.177 8.91584 47.629 8.80384 47.885 8.57984C48.149 8.35584 48.281 8.03984 48.281 7.63184C48.281 7.39184 48.221 7.19184 48.101 7.03184C47.981 6.86384 47.769 6.73984 47.465 6.65984C47.169 6.57184 46.753 6.52784 46.217 6.52784H45.569V5.13584H46.229C46.757 5.13584 47.157 5.08784 47.429 4.99184C47.709 4.88784 47.897 4.75184 47.993 4.58384C48.097 4.40784 48.149 4.20784 48.149 3.98384C48.149 3.67984 48.053 3.44384 47.861 3.27584C47.677 3.09984 47.365 3.01184 46.925 3.01184C46.653 3.01184 46.405 3.04784 46.181 3.11984C45.957 3.18384 45.753 3.26384 45.569 3.35984C45.393 3.45584 45.237 3.54784 45.101 3.63584L44.261 2.38784C44.485 2.22784 44.733 2.08384 45.005 1.95584C45.285 1.82784 45.593 1.72784 45.929 1.65584C46.265 1.58384 46.641 1.54784 47.057 1.54784C47.937 1.54784 48.633 1.72784 49.145 2.08784C49.665 2.43984 49.925 2.93984 49.925 3.58784ZM51.9082 3.65984C52.1322 3.61984 52.3802 3.56384 52.6522 3.49184C52.9242 3.41984 53.1682 3.35584 53.3842 3.29984C53.6162 3.22784 53.9282 3.12784 54.3202 2.99984C54.7202 2.87184 55.1602 2.74384 55.6402 2.61584C56.1202 2.48784 56.6082 2.37984 57.1042 2.29184C57.6082 2.19584 58.0762 2.14784 58.5082 2.14784C59.2362 2.14784 59.8922 2.28384 60.4762 2.55584C61.0602 2.82784 61.5242 3.21984 61.8682 3.73184C62.2122 4.24384 62.3842 4.87184 62.3842 5.61584C62.3842 6.15984 62.2842 6.66384 62.0842 7.12784C61.8842 7.59184 61.5882 8.00784 61.1962 8.37584C60.8122 8.74384 60.3442 9.06384 59.7922 9.33584C59.2402 9.60784 58.6082 9.82784 57.8962 9.99584C57.1922 10.1558 56.4162 10.2558 55.5682 10.2958L54.8722 8.69984C55.6882 8.68384 56.4442 8.61184 57.1402 8.48384C57.8442 8.34784 58.4602 8.15584 58.9882 7.90784C59.5162 7.65184 59.9282 7.33184 60.2242 6.94784C60.5202 6.56384 60.6682 6.11184 60.6682 5.59184C60.6682 5.21584 60.5842 4.87984 60.4162 4.58384C60.2482 4.27984 59.9962 4.03984 59.6602 3.86384C59.3322 3.68784 58.9282 3.59984 58.4482 3.59984C58.0962 3.59984 57.7082 3.64384 57.2842 3.73184C56.8602 3.81184 56.4242 3.91984 55.9762 4.05584C55.5362 4.19184 55.1042 4.33984 54.6802 4.49984C54.2562 4.65184 53.8642 4.80384 53.5042 4.95584C53.1442 5.10784 52.8402 5.23584 52.5922 5.33984L51.9082 3.65984ZM70.9522 2.01584C70.8722 2.62384 70.7682 3.27184 70.6402 3.95984C70.5122 4.64784 70.3402 5.34384 70.1242 6.04784C69.8922 6.85584 69.6202 7.55184 69.3082 8.13584C68.9962 8.71984 68.6522 9.17184 68.2762 9.49184C67.9082 9.80384 67.5042 9.95984 67.0642 9.95984C66.6242 9.95984 66.2162 9.81184 65.8402 9.51584C65.4722 9.21184 65.1762 8.79584 64.9522 8.26784C64.7362 7.73984 64.6282 7.13984 64.6282 6.46784C64.6282 5.77184 64.7682 5.11584 65.0482 4.49984C65.3282 3.88384 65.7162 3.33984 66.2122 2.86784C66.7162 2.38784 67.3002 2.01184 67.9642 1.73984C68.6362 1.46784 69.3602 1.33184 70.1362 1.33184C70.8802 1.33184 71.5482 1.45184 72.1402 1.69184C72.7402 1.93184 73.2522 2.26384 73.6762 2.68784C74.1002 3.11184 74.4242 3.60784 74.6482 4.17584C74.8722 4.74384 74.9842 5.35584 74.9842 6.01184C74.9842 6.85184 74.8122 7.60384 74.4682 8.26784C74.1242 8.93184 73.6122 9.47984 72.9322 9.91184C72.2602 10.3438 71.4202 10.6398 70.4122 10.7998L69.5122 9.37184C69.7442 9.34784 69.9482 9.31984 70.1242 9.28784C70.3002 9.25584 70.4682 9.21984 70.6282 9.17984C71.0122 9.08384 71.3682 8.94784 71.6962 8.77184C72.0322 8.58784 72.3242 8.36384 72.5722 8.09984C72.8202 7.82784 73.0122 7.51184 73.1482 7.15184C73.2922 6.79184 73.3642 6.39584 73.3642 5.96384C73.3642 5.49184 73.2922 5.05984 73.1482 4.66784C73.0042 4.27584 72.7922 3.93584 72.5122 3.64784C72.2322 3.35184 71.8922 3.12784 71.4922 2.97584C71.0922 2.81584 70.6322 2.73584 70.1122 2.73584C69.4722 2.73584 68.9082 2.85184 68.4202 3.08384C67.9322 3.30784 67.5202 3.59984 67.1842 3.95984C66.8482 4.31984 66.5922 4.70784 66.4162 5.12384C66.2482 5.53984 66.1642 5.93584 66.1642 6.31184C66.1642 6.71184 66.2122 7.04784 66.3082 7.31984C66.4042 7.58384 66.5202 7.78384 66.6562 7.91984C66.8002 8.04784 66.9522 8.11184 67.1122 8.11184C67.2802 8.11184 67.4442 8.02784 67.6042 7.85984C67.7722 7.68384 67.9362 7.41984 68.0962 7.06784C68.2562 6.71584 68.4162 6.27184 68.5762 5.73584C68.7602 5.15984 68.9162 4.54384 69.0442 3.88784C69.1722 3.23184 69.2642 2.59184 69.3202 1.96784L70.9522 2.01584ZM76.9042 2.93984H88.0522V4.31984H76.9042V2.93984ZM79.3762 9.15584H87.6322V10.5478H79.3762V9.15584ZM82.3522 6.21584H85.4242V7.55984H82.3522V6.21584ZM78.6322 0.407839H80.1082V11.3158H78.6322V0.407839ZM81.7402 0.14384H83.2042V8.05184H81.7402V0.14384ZM84.8002 0.263839H86.2642V8.03984H84.8002V0.263839ZM92.2282 3.55184V4.41584H97.9042V3.55184H92.2282ZM92.2282 1.60784V2.47184H97.9042V1.60784H92.2282ZM90.8002 0.443839H99.4042V5.57984H90.8002V0.443839ZM96.7162 4.81184C96.9802 5.17184 97.3162 5.50784 97.7242 5.81984C98.1402 6.13184 98.6042 6.40784 99.1162 6.64784C99.6362 6.87984 100.176 7.06384 100.736 7.19984C100.632 7.29584 100.52 7.41584 100.4 7.55984C100.28 7.70384 100.164 7.85584 100.052 8.01584C99.9402 8.16784 99.8482 8.30784 99.7762 8.43584C99.1922 8.23584 98.6322 7.98384 98.0962 7.67984C97.5682 7.36784 97.0802 7.00784 96.6322 6.59984C96.1922 6.18384 95.8162 5.73584 95.5042 5.25584L96.7162 4.81184ZM93.4402 4.81184L94.7002 5.30384C94.3802 5.75984 93.9922 6.19184 93.5362 6.59984C93.0882 7.00784 92.5962 7.37184 92.0602 7.69184C91.5322 8.01184 90.9802 8.27184 90.4042 8.47184C90.3402 8.35184 90.2522 8.21984 90.1402 8.07584C90.0282 7.93184 89.9122 7.78784 89.7922 7.64384C89.6722 7.49984 89.5602 7.38384 89.4562 7.29584C89.9922 7.13584 90.5122 6.93184 91.0162 6.68384C91.5282 6.42784 91.9922 6.13984 92.4082 5.81984C92.8322 5.49984 93.1762 5.16384 93.4402 4.81184ZM92.5882 7.00784H94.0642V7.83584C94.0642 8.12384 94.0322 8.43184 93.9682 8.75984C93.9042 9.07984 93.7802 9.39984 93.5962 9.71984C93.4122 10.0398 93.1362 10.3438 92.7682 10.6318C92.4082 10.9198 91.9242 11.1718 91.3162 11.3878C91.2602 11.2678 91.1722 11.1358 91.0522 10.9918C90.9402 10.8478 90.8202 10.7038 90.6922 10.5598C90.5642 10.4238 90.4442 10.3078 90.3322 10.2118C90.8362 10.0518 91.2362 9.87184 91.5322 9.67184C91.8362 9.47184 92.0602 9.26384 92.2042 9.04784C92.3562 8.83184 92.4562 8.61584 92.5042 8.39984C92.5602 8.17584 92.5882 7.96784 92.5882 7.77584V7.00784ZM94.3282 1.04384H95.7802V4.99184H94.3282V1.04384ZM96.2362 7.03184H97.7362V11.2678H96.2362V7.03184ZM103.652 6.51584H107.42V7.41584H103.652V6.51584ZM103.664 7.97984H107.42V8.87984H103.664V7.97984ZM102.176 2.93984H107.672V4.06784H102.176V2.93984ZM103.58 9.50384H107.588V10.5478H103.58V9.50384ZM105.068 5.47184H106.28V9.85184H105.068V5.47184ZM104.288 4.99184H107.588V5.92784H104.288V11.0518H103.028V6.01184L104.012 4.99184H104.288ZM105.524 4.09184L106.82 4.29584C106.692 4.52784 106.564 4.75184 106.436 4.96784C106.316 5.17584 106.204 5.35584 106.1 5.50784L105.116 5.26784C105.196 5.09184 105.276 4.89584 105.356 4.67984C105.436 4.45584 105.492 4.25984 105.524 4.09184ZM103.304 -0.000160694L104.564 0.31184C104.412 0.83184 104.2 1.34384 103.928 1.84784C103.664 2.34384 103.384 2.75984 103.088 3.09584C103.016 3.02384 102.916 2.93984 102.788 2.84384C102.66 2.73984 102.528 2.64384 102.392 2.55584C102.256 2.45984 102.136 2.38384 102.032 2.32784C102.312 2.03984 102.56 1.68784 102.776 1.27184C103 0.855839 103.176 0.431839 103.304 -0.000160694ZM104.516 1.64384L105.752 1.95584C105.544 2.62784 105.284 3.27984 104.972 3.91184C104.668 4.54384 104.324 5.13184 103.94 5.67584C103.564 6.21184 103.156 6.67984 102.716 7.07984C102.668 6.98384 102.592 6.86784 102.488 6.73184C102.392 6.58784 102.288 6.44384 102.176 6.29984C102.072 6.15584 101.98 6.03984 101.9 5.95184C102.484 5.46384 103.004 4.83984 103.46 4.07984C103.916 3.31984 104.268 2.50784 104.516 1.64384ZM103.7 1.00784H107.564V2.13584H103.148L103.7 1.00784ZM109.22 3.65984V4.46384H111.44V3.65984H109.22ZM109.22 5.59184V6.39584H111.44V5.59184H109.22ZM109.22 1.75184V2.53184H111.44V1.75184H109.22ZM107.972 0.491839H112.76V7.65584H107.972V0.491839ZM110.36 6.75584H111.62V9.56384C111.62 9.72384 111.628 9.82384 111.644 9.86384C111.66 9.90384 111.704 9.92384 111.776 9.92384C111.8 9.92384 111.832 9.92384 111.872 9.92384C111.92 9.92384 111.964 9.92384 112.004 9.92384C112.052 9.92384 112.088 9.92384 112.112 9.92384C112.168 9.92384 112.208 9.89184 112.232 9.82784C112.264 9.76384 112.288 9.63584 112.304 9.44384C112.328 9.24384 112.344 8.93584 112.352 8.51984C112.464 8.62384 112.632 8.71984 112.856 8.80784C113.088 8.89584 113.288 8.96384 113.456 9.01184C113.424 9.56384 113.36 9.99184 113.264 10.2958C113.176 10.5998 113.052 10.8078 112.892 10.9198C112.732 11.0398 112.52 11.0998 112.256 11.0998C112.192 11.0998 112.116 11.0998 112.028 11.0998C111.948 11.0998 111.864 11.0998 111.776 11.0998C111.688 11.0998 111.612 11.0998 111.548 11.0998C111.228 11.0998 110.98 11.0518 110.804 10.9558C110.636 10.8598 110.52 10.6998 110.456 10.4758C110.392 10.2598 110.36 9.96384 110.36 9.58784V6.75584ZM108.692 7.13984H109.892C109.852 7.75584 109.76 8.32784 109.616 8.85584C109.472 9.37584 109.236 9.83984 108.908 10.2478C108.588 10.6638 108.12 11.0158 107.504 11.3038C107.44 11.1518 107.328 10.9718 107.168 10.7638C107.016 10.5558 106.872 10.3958 106.736 10.2838C107.256 10.0678 107.648 9.80784 107.912 9.50384C108.176 9.19184 108.36 8.83584 108.464 8.43584C108.576 8.03584 108.652 7.60384 108.692 7.13984Z" fill="#8B8B8B"/>
</svg>
