<svg width="53" height="15" viewBox="0 0 53 15" fill="none" xmlns="http://www.w3.org/2000/svg">
<path d="M5.17504 1.39514H6.84004V9.03014H5.17504V1.39514ZM6.27004 6.63014H13.59V7.99514H6.27004V6.63014ZM6.27004 3.21014H11.4V4.27514H6.27004V3.21014ZM5.17504 8.55014H12V9.94514H5.17504V8.55014ZM11.58 8.55014H13.2C13.2 8.55014 13.195 8.62514 13.185 8.77514C13.185 8.92514 13.18 9.05014 13.17 9.15014C13.14 10.0801 13.095 10.8451 13.035 11.4451C12.985 12.0451 12.92 12.5101 12.84 12.8401C12.77 13.1701 12.67 13.4101 12.54 13.5601C12.41 13.7301 12.26 13.8501 12.09 13.9201C11.93 13.9901 11.75 14.0351 11.55 14.0551C11.38 14.0951 11.15 14.1151 10.86 14.1151C10.58 14.1251 10.275 14.1201 9.94504 14.1001C9.93504 13.8901 9.89004 13.6451 9.81004 13.3651C9.74004 13.0951 9.65004 12.8701 9.54004 12.6901C9.79004 12.7101 10.02 12.7251 10.23 12.7351C10.44 12.7351 10.6 12.7351 10.71 12.7351C10.81 12.7351 10.89 12.7301 10.95 12.7201C11.02 12.7001 11.085 12.6551 11.145 12.5851C11.215 12.4951 11.275 12.3201 11.325 12.0601C11.375 11.7901 11.42 11.3951 11.46 10.8751C11.51 10.3451 11.55 9.65014 11.58 8.79014V8.55014ZM4.39504 10.2451L5.79004 10.6651C5.66004 11.2851 5.47504 11.8801 5.23504 12.4501C4.99504 13.0101 4.64004 13.4751 4.17004 13.8451L2.88004 13.0051C3.29004 12.6851 3.62004 12.2801 3.87004 11.7901C4.12004 11.3001 4.29504 10.7851 4.39504 10.2451ZM5.97004 10.8301L7.27504 10.5751C7.39504 10.9751 7.48504 11.4151 7.54504 11.8951C7.60504 12.3751 7.63004 12.7901 7.62004 13.1401L6.24004 13.4101C6.26004 13.0701 6.24504 12.6601 6.19504 12.1801C6.14504 11.6901 6.07004 11.2401 5.97004 10.8301ZM7.71004 10.7101L8.86504 10.3801C9.02504 10.7101 9.16504 11.0701 9.28504 11.4601C9.41504 11.8401 9.50004 12.1701 9.54004 12.4501L8.31004 12.8251C8.28004 12.5351 8.20504 12.1951 8.08504 11.8051C7.97504 11.4051 7.85004 11.0401 7.71004 10.7101ZM9.36004 10.5301L10.455 10.1251C10.625 10.3651 10.79 10.6351 10.95 10.9351C11.12 11.2251 11.235 11.4851 11.295 11.7151L10.14 12.1801C10.08 11.9501 9.97504 11.6851 9.82504 11.3851C9.68504 11.0751 9.53004 10.7901 9.36004 10.5301ZM6.28504 1.39514H12.315V6.12014H6.28504V4.87514H10.635V2.64014H6.28504V1.39514ZM7.74004 0.000136554L9.87004 0.225136C9.69004 0.625136 9.50004 1.00014 9.30004 1.35014C9.10004 1.70014 8.92004 2.00014 8.76004 2.25014L7.20004 1.93514C7.31004 1.64514 7.41504 1.32514 7.51504 0.975137C7.61504 0.615136 7.69004 0.290136 7.74004 0.000136554ZM0.945039 1.39514H4.39504V10.0201H0.945039V8.35514H2.79004V3.06014H0.945039V1.39514ZM3.91081e-05 1.39514H1.60504V11.2501H3.91081e-05V1.39514ZM18.54 5.61014C18.94 5.61014 19.28 5.75514 19.56 6.04514C19.85 6.32514 19.995 6.66514 19.995 7.06514C19.995 7.46514 19.85 7.81014 19.56 8.10014C19.28 8.38014 18.94 8.52014 18.54 8.52014C18.13 8.52014 17.78 8.38014 17.49 8.10014C17.21 7.81014 17.07 7.46514 17.07 7.06514C17.07 6.65514 17.21 6.31014 17.49 6.03014C17.78 5.75014 18.13 5.61014 18.54 5.61014ZM28.92 12.7651L26.34 4.36514H26.28C26.29 4.56514 26.305 4.86514 26.325 5.26514C26.345 5.66514 26.365 6.09514 26.385 6.55514C26.405 7.00514 26.415 7.41514 26.415 7.78514V12.7651H24.39V2.05514H27.48L30.015 10.2451H30.06L32.745 2.05514H35.835V12.7651H33.72V7.69514C33.72 7.35514 33.725 6.96514 33.735 6.52514C33.755 6.08514 33.77 5.67014 33.78 5.28014C33.8 4.88014 33.815 4.58014 33.825 4.38014H33.765L31.005 12.7651H28.92ZM45.4554 12.7651H39.2904V2.05514H45.4554V3.91514H41.5554V6.27014H45.1854V8.13014H41.5554V10.8901H45.4554V12.7651ZM52.439 12.7651H47.564V11.4751L48.869 10.8751V3.94514L47.564 3.34514V2.05514H52.439V3.34514L51.134 3.94514V10.8751L52.439 11.4751V12.7651Z" fill="#282828"/>
</svg>
