<svg width="31" height="12" viewBox="0 0 31 12" fill="none" xmlns="http://www.w3.org/2000/svg">
<path d="M5.17495 10.875H2.90995V2.055H-4.88069e-05V0.164999H8.08495V2.055H5.17495V10.875ZM19.9135 5.505C19.9135 6.335 19.8085 7.09 19.5985 7.77C19.3985 8.44 19.0885 9.02 18.6685 9.51C18.2585 10 17.7285 10.375 17.0785 10.635C16.4385 10.895 15.6835 11.025 14.8135 11.025C13.9435 11.025 13.1835 10.895 12.5335 10.635C11.8935 10.365 11.3635 9.99 10.9435 9.51C10.5335 9.02 10.2235 8.435 10.0135 7.755C9.81351 7.075 9.71351 6.32 9.71351 5.49C9.71351 4.38 9.89351 3.415 10.2535 2.595C10.6235 1.775 11.1835 1.14 11.9335 0.69C12.6935 0.23 13.6585 -3.57628e-07 14.8285 -3.57628e-07C15.9885 -3.57628e-07 16.9435 0.23 17.6935 0.69C18.4435 1.14 18.9985 1.78 19.3585 2.61C19.7285 3.43 19.9135 4.395 19.9135 5.505ZM12.0985 5.505C12.0985 6.255 12.1935 6.9 12.3835 7.44C12.5735 7.98 12.8685 8.395 13.2685 8.685C13.6685 8.975 14.1835 9.12 14.8135 9.12C15.4635 9.12 15.9835 8.975 16.3735 8.685C16.7735 8.395 17.0635 7.98 17.2435 7.44C17.4335 6.9 17.5285 6.255 17.5285 5.505C17.5285 4.375 17.3185 3.49 16.8985 2.85C16.4785 2.21 15.7885 1.89 14.8285 1.89C14.1885 1.89 13.6685 2.035 13.2685 2.325C12.8685 2.615 12.5735 3.03 12.3835 3.57C12.1935 4.11 12.0985 4.755 12.0985 5.505ZM26.302 0.164999C27.682 0.164999 28.687 0.464999 29.317 1.065C29.957 1.655 30.277 2.47 30.277 3.51C30.277 3.98 30.207 4.43 30.067 4.86C29.927 5.28 29.692 5.66 29.362 6C29.042 6.33 28.617 6.59 28.087 6.78C27.557 6.97 26.902 7.065 26.122 7.065H25.147V10.875H22.882V0.164999H26.302ZM26.182 2.025H25.147V5.205H25.897C26.327 5.205 26.697 5.15 27.007 5.04C27.317 4.93 27.557 4.755 27.727 4.515C27.897 4.275 27.982 3.965 27.982 3.585C27.982 3.055 27.837 2.665 27.547 2.415C27.257 2.155 26.802 2.025 26.182 2.025Z" fill="#282828"/>
</svg>
