<svg width="67" height="15" viewBox="0 0 67 15" fill="none" xmlns="http://www.w3.org/2000/svg">
<path d="M5.35488 1.72514H8.36988V2.37014H5.35488V1.72514ZM5.36988 4.96514H9.23988V5.71514H5.36988V4.96514ZM5.36988 3.84014H9.16488V4.57514H5.36988V3.84014ZM5.26488 7.48514H8.68488V8.26514H5.26488V7.48514ZM-0.00011719 4.35014C0.509883 4.33014 1.09488 4.30514 1.75488 4.27514C2.42488 4.24514 3.12488 4.21014 3.85488 4.17014V5.23514C3.18488 5.30514 2.53488 5.37514 1.90488 5.44514C1.28488 5.50514 0.699883 5.56014 0.149883 5.61014L-0.00011719 4.35014ZM3.68988 3.33014L5.00988 3.52514C4.68988 4.53514 4.17488 5.37514 3.46488 6.04514C2.76488 6.71514 1.92988 7.25014 0.959883 7.65014C0.919883 7.55014 0.849883 7.43514 0.749883 7.30514C0.659883 7.16514 0.559883 7.03014 0.449883 6.90014C0.339883 6.76014 0.239883 6.65514 0.149883 6.58514C1.02988 6.27514 1.77988 5.85514 2.39988 5.32514C3.02988 4.79514 3.45988 4.13014 3.68988 3.33014ZM12.3899 0.420137H12.6149L12.8099 0.360136L13.8749 0.825136C13.7249 1.21514 13.5599 1.59514 13.3799 1.96514C13.2099 2.33514 13.0449 2.69514 12.8849 3.04514C13.2449 3.36514 13.4999 3.67514 13.6499 3.97514C13.8099 4.27514 13.8899 4.55014 13.8899 4.80014C13.8999 5.08014 13.8499 5.32014 13.7399 5.52014C13.6399 5.71014 13.4949 5.87014 13.3049 6.00014C13.2149 6.06014 13.0999 6.11514 12.9599 6.16514C12.8299 6.20514 12.6999 6.23514 12.5699 6.25514C12.4299 6.26514 12.2649 6.27514 12.0749 6.28514C11.8949 6.28514 11.7149 6.28014 11.5349 6.27014C11.5249 6.08014 11.4849 5.87514 11.4149 5.65514C11.3449 5.42514 11.2549 5.22514 11.1449 5.05514C11.3049 5.07514 11.4499 5.08514 11.5799 5.08514C11.7199 5.08514 11.8399 5.08014 11.9399 5.07014C12.0899 5.07014 12.2099 5.05014 12.2999 5.01014C12.4399 4.93014 12.5049 4.79014 12.4949 4.59014C12.4949 4.43014 12.4149 4.24514 12.2549 4.03514C12.1049 3.82514 11.8499 3.57014 11.4899 3.27014C11.6799 2.79014 11.8499 2.32014 11.9999 1.86014C12.1599 1.39014 12.2899 0.975136 12.3899 0.615136V0.420137ZM0.119883 2.23514L0.929883 1.30514C1.27988 1.52514 1.63988 1.78014 2.00988 2.07014C2.38988 2.36014 2.67988 2.62014 2.87988 2.85014L2.03988 3.90014C1.83988 3.66014 1.55488 3.38514 1.18488 3.07514C0.814883 2.75514 0.459883 2.47514 0.119883 2.23514ZM2.23488 0.0601358L3.40488 0.555137C3.12488 0.895136 2.83988 1.24514 2.54988 1.60514C2.26988 1.96514 2.00488 2.27014 1.75488 2.52014L0.899883 2.08514C1.04988 1.90514 1.20988 1.69514 1.37988 1.45514C1.54988 1.21514 1.70988 0.975136 1.85988 0.735136C2.00988 0.485136 2.13488 0.260136 2.23488 0.0601358ZM3.34488 1.42514L4.48488 1.95014C4.19488 2.30014 3.87988 2.66514 3.53988 3.04514C3.19988 3.41514 2.85988 3.77514 2.51988 4.12514C2.17988 4.46514 1.85488 4.76514 1.54488 5.02514L0.659883 4.54514C0.959883 4.26514 1.27488 3.94514 1.60488 3.58514C1.94488 3.22514 2.26488 2.85514 2.56488 2.47514C2.87488 2.09514 3.13488 1.74514 3.34488 1.42514ZM9.67488 0.420137H12.8249V1.59014H11.1149V6.75014H9.67488V0.420137ZM4.72488 0.615136H6.11988V6.28514H4.72488V0.615136ZM5.27988 0.615136H9.11988V3.46514H5.27988V2.71514H7.72488V1.36514H5.27988V0.615136ZM3.97488 9.79514H10.4099V10.5151H3.97488V9.79514ZM2.99988 8.61014H4.57488V13.0501H2.99988V8.61014ZM4.09488 8.61014H11.2649V11.7301H4.09488V10.9501H9.65988V9.39014H4.09488V8.61014ZM11.7599 10.9801L12.8999 11.7451C12.4099 12.0151 11.8849 12.2701 11.3249 12.5101C10.7649 12.7401 10.2499 12.9351 9.77988 13.0951L8.83488 12.3901C9.15488 12.2701 9.48988 12.1301 9.83988 11.9701C10.1999 11.8101 10.5499 11.6451 10.8899 11.4751C11.2299 11.3051 11.5199 11.1401 11.7599 10.9801ZM6.25488 0.000136554L7.76988 0.135136C7.64988 0.345136 7.52988 0.530136 7.40988 0.690136C7.29988 0.850136 7.20488 1.00014 7.12488 1.14014L6.02988 0.930136C6.07988 0.760136 6.12488 0.595136 6.16488 0.435136C6.20488 0.265136 6.23488 0.120136 6.25488 0.000136554ZM1.54488 12.6151C2.05488 12.5951 2.63488 12.5701 3.28488 12.5401C3.93488 12.5001 4.62488 12.4601 5.35488 12.4201C6.09488 12.3701 6.82988 12.3201 7.55988 12.2701L7.57488 13.4401C6.55488 13.5301 5.53988 13.6151 4.52988 13.6951C3.51988 13.7851 2.61488 13.8651 1.81488 13.9351L1.54488 12.6151ZM7.57488 11.1901C7.91488 11.5801 8.38488 11.8951 8.98488 12.1351C9.59488 12.3651 10.3099 12.5351 11.1299 12.6451C11.9599 12.7551 12.8749 12.8151 13.8749 12.8251C13.7249 12.9851 13.5699 13.1901 13.4099 13.4401C13.2499 13.7001 13.1299 13.9351 13.0499 14.1451C11.9599 14.0651 10.9799 13.9251 10.1099 13.7251C9.24988 13.5351 8.49988 13.2551 7.85988 12.8851C7.22988 12.5151 6.70488 12.0351 6.28488 11.4451L7.57488 11.1901ZM7.00488 6.91514C6.55488 7.25514 5.99488 7.58014 5.32488 7.89014C4.66488 8.20014 3.94988 8.48514 3.17988 8.74514C2.40988 9.00514 1.63988 9.22014 0.869883 9.39014C0.799883 9.21014 0.689883 9.00014 0.539883 8.76014C0.399883 8.51014 0.264883 8.30514 0.134883 8.14514C0.934883 8.00514 1.71988 7.82014 2.48988 7.59014C3.25988 7.36014 3.96988 7.09514 4.61988 6.79514C5.26988 6.49514 5.80988 6.17514 6.23988 5.83514H7.64988C8.22988 6.22514 8.86988 6.57014 9.56988 6.87014C10.2799 7.16014 11.0149 7.40014 11.7749 7.59014C12.5449 7.78014 13.3049 7.92514 14.0549 8.02514C13.9049 8.19514 13.7549 8.40514 13.6049 8.65514C13.4549 8.90514 13.3299 9.12514 13.2299 9.31514C12.7199 9.22514 12.1799 9.10514 11.6099 8.95514C11.0499 8.79514 10.4899 8.61014 9.92988 8.40014C9.36988 8.18014 8.83488 7.95014 8.32488 7.71014C7.82488 7.46014 7.38488 7.19514 7.00488 6.91514ZM18.9899 5.80514C19.3399 5.80514 19.6349 5.93014 19.8749 6.18014C20.1249 6.42014 20.2499 6.71514 20.2499 7.06514C20.2499 7.40514 20.1249 7.70014 19.8749 7.95014C19.6349 8.20014 19.3399 8.32514 18.9899 8.32514C18.6499 8.32514 18.3549 8.20514 18.1049 7.96514C17.8649 7.71514 17.7449 7.41514 17.7449 7.06514C17.7449 6.71514 17.8649 6.42014 18.1049 6.18014C18.3549 5.93014 18.6499 5.80514 18.9899 5.80514ZM33.4649 12.7651H30.8849L28.0799 8.25014L27.1199 8.94014V12.7651H24.8549V2.05514H27.1199V6.96014C27.2699 6.75014 27.4199 6.54014 27.5699 6.33014C27.7199 6.12014 27.8699 5.91014 28.0199 5.70014L30.9149 2.05514H33.4349L29.6999 6.79514L33.4649 12.7651ZM38.8958 6.46514L41.1308 2.05514H43.5758L40.0208 8.59514V12.7651H37.7708V8.67014L34.2158 2.05514H36.6758L38.8958 6.46514ZM55.1032 7.39514C55.1032 8.22514 54.9982 8.98014 54.7882 9.66014C54.5882 10.3301 54.2782 10.9101 53.8582 11.4001C53.4482 11.8901 52.9182 12.2651 52.2682 12.5251C51.6282 12.7851 50.8732 12.9151 50.0032 12.9151C49.1332 12.9151 48.3732 12.7851 47.7232 12.5251C47.0832 12.2551 46.5532 11.8801 46.1332 11.4001C45.7232 10.9101 45.4132 10.3251 45.2032 9.64514C45.0032 8.96514 44.9032 8.21014 44.9032 7.38014C44.9032 6.27014 45.0832 5.30514 45.4432 4.48514C45.8132 3.66514 46.3732 3.03014 47.1232 2.58014C47.8832 2.12014 48.8482 1.89014 50.0182 1.89014C51.1782 1.89014 52.1332 2.12014 52.8832 2.58014C53.6332 3.03014 54.1882 3.67014 54.5482 4.50014C54.9182 5.32014 55.1032 6.28514 55.1032 7.39514ZM47.2882 7.39514C47.2882 8.14514 47.3832 8.79014 47.5732 9.33014C47.7632 9.87014 48.0582 10.2851 48.4582 10.5751C48.8582 10.8651 49.3732 11.0101 50.0032 11.0101C50.6532 11.0101 51.1732 10.8651 51.5632 10.5751C51.9632 10.2851 52.2532 9.87014 52.4332 9.33014C52.6232 8.79014 52.7182 8.14514 52.7182 7.39514C52.7182 6.26514 52.5082 5.38014 52.0882 4.74014C51.6682 4.10014 50.9782 3.78014 50.0182 3.78014C49.3782 3.78014 48.8582 3.92514 48.4582 4.21514C48.0582 4.50514 47.7632 4.92014 47.5732 5.46014C47.3832 6.00014 47.2882 6.64514 47.2882 7.39514ZM66.7867 8.98514C66.7867 9.72514 66.6217 10.3951 66.2917 10.9951C65.9717 11.5851 65.4817 12.0551 64.8217 12.4051C64.1717 12.7451 63.3467 12.9151 62.3467 12.9151C60.9267 12.9151 59.8467 12.5551 59.1067 11.8351C58.3667 11.1051 57.9967 10.1451 57.9967 8.95514V2.05514H60.2617V8.61014C60.2617 9.49014 60.4417 10.1101 60.8017 10.4701C61.1617 10.8301 61.6967 11.0101 62.4067 11.0101C62.9067 11.0101 63.3117 10.9251 63.6217 10.7551C63.9317 10.5851 64.1567 10.3201 64.2967 9.96014C64.4467 9.60014 64.5217 9.14514 64.5217 8.59514V2.05514H66.7867V8.98514Z" fill="#282828"/>
</svg>
