<svg width="66" height="14" viewBox="0 0 66 14" fill="none" xmlns="http://www.w3.org/2000/svg">
<path d="M4.68008 0.555H7.53008V2.07H4.68008V0.555ZM7.02008 3.84H10.9051V5.31H7.02008V3.84ZM4.12508 12.27H13.9501V13.785H4.12508V12.27ZM6.94508 7.695V8.805H10.9051V7.695H6.94508ZM5.31008 6.255H12.6301V10.23H5.31008V6.255ZM7.12508 0.555H7.44008L7.74008 0.495L8.86508 0.929999C8.62508 1.91 8.28508 2.795 7.84508 3.585C7.40508 4.365 6.88508 5.05 6.28508 5.64C5.69508 6.22 5.04508 6.71 4.33508 7.11C4.21508 6.91 4.05008 6.685 3.84008 6.435C3.64008 6.185 3.45008 5.98 3.27008 5.82C3.87008 5.52 4.42508 5.12 4.93508 4.62C5.45508 4.12 5.90508 3.545 6.28508 2.895C6.66508 2.245 6.94508 1.56 7.12508 0.84V0.555ZM3.81008 3.405L4.81508 2.28C5.08508 2.46 5.39008 2.67 5.73008 2.91C6.07008 3.14 6.33508 3.345 6.52508 3.525L5.47508 4.785C5.30508 4.595 5.05508 4.37 4.72508 4.11C4.39508 3.84 4.09008 3.605 3.81008 3.405ZM5.97008 10.515L7.62008 10.095C7.78008 10.385 7.92008 10.71 8.04008 11.07C8.17008 11.42 8.26008 11.735 8.31008 12.015L6.57008 12.495C6.55008 12.225 6.48008 11.905 6.36008 11.535C6.25008 11.155 6.12008 10.815 5.97008 10.515ZM11.8951 0.329999L13.0201 1.5C12.6401 1.74 12.2601 1.98 11.8801 2.22C11.5101 2.46 11.1651 2.66 10.8451 2.82L10.0201 1.86C10.2101 1.74 10.4201 1.59 10.6501 1.41C10.8801 1.23 11.1051 1.045 11.3251 0.854999C11.5551 0.655 11.7451 0.479999 11.8951 0.329999ZM13.0501 2.13L14.2051 3.345C13.7751 3.575 13.3651 3.8 12.9751 4.02C12.5951 4.24 12.2401 4.42 11.9101 4.56L11.1301 3.66C11.3201 3.54 11.5351 3.39 11.7751 3.21C12.0151 3.03 12.2451 2.845 12.4651 2.655C12.6951 2.465 12.8901 2.29 13.0501 2.13ZM10.1851 9.945L11.9701 10.455C11.7801 10.835 11.6001 11.21 11.4301 11.58C11.2701 11.94 11.1201 12.245 10.9801 12.495L9.48008 12.015C9.57008 11.815 9.65508 11.595 9.73508 11.355C9.82508 11.115 9.91008 10.87 9.99008 10.62C10.0701 10.37 10.1351 10.145 10.1851 9.945ZM0.705078 1.395L1.71008 0.0899994C2.00008 0.21 2.30508 0.355 2.62508 0.524999C2.95508 0.694999 3.26508 0.869999 3.55508 1.05C3.84508 1.22 4.08008 1.395 4.26008 1.575L3.19508 3.015C3.02508 2.835 2.80008 2.65 2.52008 2.46C2.24008 2.27 1.94008 2.08 1.62008 1.89C1.31008 1.7 1.00508 1.535 0.705078 1.395ZM7.8138e-05 5.46L0.990078 4.14C1.28008 4.25 1.58508 4.385 1.90508 4.545C2.23508 4.695 2.54008 4.86 2.82008 5.04C3.11008 5.21 3.35008 5.375 3.54008 5.535L2.47508 6.99C2.30508 6.83 2.08008 6.655 1.80008 6.465C1.52008 6.275 1.22008 6.095 0.900078 5.925C0.590078 5.745 0.290078 5.59 7.8138e-05 5.46ZM0.405078 12.9C0.625078 12.51 0.870078 12.05 1.14008 11.52C1.42008 10.98 1.70008 10.41 1.98008 9.81C2.26008 9.21 2.52008 8.615 2.76008 8.025L4.18508 9.06C3.97508 9.59 3.74508 10.14 3.49508 10.71C3.25508 11.27 3.00508 11.82 2.74508 12.36C2.49508 12.9 2.25008 13.42 2.01008 13.92L0.405078 12.9ZM10.3201 -3.57628e-07C10.6301 1.01 10.9751 1.85 11.3551 2.52C11.7451 3.19 12.1851 3.75 12.6751 4.2C13.1751 4.64 13.7351 5.03 14.3551 5.37C14.1451 5.55 13.9301 5.78 13.7101 6.06C13.4901 6.33 13.3201 6.6 13.2001 6.87C12.5001 6.42 11.8801 5.92 11.3401 5.37C10.8001 4.81 10.3201 4.13 9.90008 3.33C9.48008 2.52 9.10008 1.53 8.76008 0.359999L10.3201 -3.57628e-07ZM19.0651 5.79C19.4151 5.79 19.7101 5.915 19.9501 6.165C20.2001 6.405 20.3251 6.7 20.3251 7.05C20.3251 7.39 20.2001 7.685 19.9501 7.935C19.7101 8.185 19.4151 8.31 19.0651 8.31C18.7251 8.31 18.4301 8.19 18.1801 7.95C17.9401 7.7 17.8201 7.4 17.8201 7.05C17.8201 6.7 17.9401 6.405 18.1801 6.165C18.4301 5.915 18.7251 5.79 19.0651 5.79ZM29.0551 12.75H26.7901V3.93H23.8801V2.04H31.9651V3.93H29.0551V12.75ZM37.6966 6.45L39.9316 2.04H42.3766L38.8216 8.58V12.75H36.5716V8.655L33.0166 2.04H35.4766L37.6966 6.45ZM53.904 7.38C53.904 8.21 53.799 8.965 53.589 9.645C53.389 10.315 53.079 10.895 52.659 11.385C52.249 11.875 51.719 12.25 51.069 12.51C50.429 12.77 49.674 12.9 48.804 12.9C47.934 12.9 47.174 12.77 46.524 12.51C45.884 12.24 45.354 11.865 44.934 11.385C44.524 10.895 44.214 10.31 44.004 9.63C43.804 8.95 43.704 8.195 43.704 7.365C43.704 6.255 43.884 5.29 44.244 4.47C44.614 3.65 45.174 3.015 45.924 2.565C46.684 2.105 47.649 1.875 48.819 1.875C49.979 1.875 50.934 2.105 51.684 2.565C52.434 3.015 52.989 3.655 53.349 4.485C53.719 5.305 53.904 6.27 53.904 7.38ZM46.089 7.38C46.089 8.13 46.184 8.775 46.374 9.315C46.564 9.855 46.859 10.27 47.259 10.56C47.659 10.85 48.174 10.995 48.804 10.995C49.454 10.995 49.974 10.85 50.364 10.56C50.764 10.27 51.054 9.855 51.234 9.315C51.424 8.775 51.519 8.13 51.519 7.38C51.519 6.25 51.309 5.365 50.889 4.725C50.469 4.085 49.779 3.765 48.819 3.765C48.179 3.765 47.659 3.91 47.259 4.2C46.859 4.49 46.564 4.905 46.374 5.445C46.184 5.985 46.089 6.63 46.089 7.38ZM65.5875 8.97C65.5875 9.71 65.4225 10.38 65.0925 10.98C64.7725 11.57 64.2825 12.04 63.6225 12.39C62.9725 12.73 62.1475 12.9 61.1475 12.9C59.7275 12.9 58.6475 12.54 57.9075 11.82C57.1675 11.09 56.7975 10.13 56.7975 8.94V2.04H59.0625V8.595C59.0625 9.475 59.2425 10.095 59.6025 10.455C59.9625 10.815 60.4975 10.995 61.2075 10.995C61.7075 10.995 62.1125 10.91 62.4225 10.74C62.7325 10.57 62.9575 10.305 63.0975 9.945C63.2475 9.585 63.3225 9.13 63.3225 8.58V2.04H65.5875V8.97Z" fill="#282828"/>
</svg>
