<svg width="390" height="158" viewBox="0 0 390 158" fill="none" xmlns="http://www.w3.org/2000/svg">
<path d="M18.7188 64.5625C18.7188 56.875 20.5104 50.7396 24.0938 46.1562C27.3021 42.0104 31.1875 39.9375 35.75 39.9375C40.3125 39.9375 44.1979 42.0104 47.4062 46.1562C50.9896 50.7396 52.7812 56.9792 52.7812 64.875C52.7812 72.75 50.9896 78.9792 47.4062 83.5625C44.1979 87.7083 40.3229 89.7812 35.7812 89.7812C31.2396 89.7812 27.3438 87.7083 24.0938 83.5625C20.5104 78.9792 18.7188 72.6458 18.7188 64.5625ZM25.875 64.5938C25.875 69.9479 26.8021 74.3958 28.6562 77.9375C30.5104 81.4167 32.875 83.1562 35.75 83.1562C38.6042 83.1562 40.9688 81.4167 42.8438 77.9375C44.7188 74.4792 45.6562 70.1146 45.6562 64.8438C45.6562 59.5729 44.7188 55.1979 42.8438 51.7188C40.9688 48.2604 38.6042 46.5312 35.75 46.5312C32.9167 46.5312 30.5625 48.2604 28.6875 51.7188C26.8125 55.1562 25.875 59.4479 25.875 64.5938ZM74.3063 47.5625H65.9625L69.9625 40.75H81.5875V89H74.3063V47.5625Z" fill="#282828"/>
<path d="M16.8 120.42V118.86H21.64V120.42H16.8ZM36.3053 125H34.5053V118.34H27.1853V125H25.3853V110.72H27.1853V116.76H34.5053V110.72H36.3053V125ZM53.6695 117.84C53.6695 118.947 53.5295 119.953 53.2495 120.86C52.9695 121.753 52.5495 122.527 51.9895 123.18C51.4429 123.833 50.7562 124.333 49.9295 124.68C49.1162 125.027 48.1695 125.2 47.0895 125.2C45.9695 125.2 44.9962 125.027 44.1695 124.68C43.3429 124.32 42.6562 123.82 42.1095 123.18C41.5629 122.527 41.1562 121.747 40.8895 120.84C40.6229 119.933 40.4895 118.927 40.4895 117.82C40.4895 116.353 40.7295 115.073 41.2095 113.98C41.6895 112.887 42.4162 112.033 43.3895 111.42C44.3762 110.807 45.6162 110.5 47.1095 110.5C48.5362 110.5 49.7362 110.807 50.7095 111.42C51.6829 112.02 52.4162 112.873 52.9095 113.98C53.4162 115.073 53.6695 116.36 53.6695 117.84ZM42.3895 117.84C42.3895 119.04 42.5562 120.073 42.8895 120.94C43.2229 121.807 43.7362 122.473 44.4295 122.94C45.1362 123.407 46.0229 123.64 47.0895 123.64C48.1695 123.64 49.0495 123.407 49.7295 122.94C50.4229 122.473 50.9362 121.807 51.2695 120.94C51.6029 120.073 51.7695 119.04 51.7695 117.84C51.7695 116.04 51.3962 114.633 50.6495 113.62C49.9029 112.593 48.7229 112.08 47.1095 112.08C46.0295 112.08 45.1362 112.313 44.4295 112.78C43.7362 113.233 43.2229 113.893 42.8895 114.76C42.5562 115.613 42.3895 116.64 42.3895 117.84ZM74.0392 110.72L70.2392 125H68.4192L65.6392 115.64C65.5592 115.36 65.4792 115.073 65.3992 114.78C65.3192 114.487 65.2459 114.207 65.1792 113.94C65.1126 113.673 65.0526 113.447 64.9992 113.26C64.9592 113.06 64.9326 112.913 64.9192 112.82C64.9059 112.913 64.8792 113.06 64.8392 113.26C64.8126 113.447 64.7659 113.673 64.6992 113.94C64.6326 114.207 64.5592 114.493 64.4792 114.8C64.4126 115.093 64.3326 115.393 64.2392 115.7L61.5392 125H59.7192L55.9392 110.72H57.8192L60.0392 119.44C60.1192 119.747 60.1926 120.053 60.2592 120.36C60.3259 120.653 60.3859 120.947 60.4392 121.24C60.5059 121.52 60.5592 121.793 60.5992 122.06C60.6392 122.327 60.6792 122.587 60.7192 122.84C60.7592 122.573 60.7992 122.3 60.8392 122.02C60.8926 121.74 60.9526 121.453 61.0192 121.16C61.0859 120.853 61.1592 120.547 61.2392 120.24C61.3192 119.933 61.3992 119.633 61.4792 119.34L63.9992 110.72H65.8592L68.4792 119.4C68.5726 119.707 68.6592 120.02 68.7392 120.34C68.8192 120.647 68.8926 120.947 68.9592 121.24C69.0259 121.533 69.0792 121.82 69.1192 122.1C69.1726 122.367 69.2192 122.613 69.2592 122.84C69.2992 122.507 69.3526 122.16 69.4192 121.8C69.4859 121.427 69.5659 121.04 69.6592 120.64C69.7526 120.24 69.8526 119.833 69.9592 119.42L72.1592 110.72H74.0392ZM87.9483 125H86.1483V112.3H81.6883V110.72H92.3883V112.3H87.9483V125ZM107.611 117.84C107.611 118.947 107.471 119.953 107.191 120.86C106.911 121.753 106.491 122.527 105.931 123.18C105.384 123.833 104.698 124.333 103.871 124.68C103.058 125.027 102.111 125.2 101.031 125.2C99.9109 125.2 98.9376 125.027 98.1109 124.68C97.2843 124.32 96.5976 123.82 96.0509 123.18C95.5043 122.527 95.0976 121.747 94.8309 120.84C94.5643 119.933 94.4309 118.927 94.4309 117.82C94.4309 116.353 94.6709 115.073 95.1509 113.98C95.6309 112.887 96.3576 112.033 97.3309 111.42C98.3176 110.807 99.5576 110.5 101.051 110.5C102.478 110.5 103.678 110.807 104.651 111.42C105.624 112.02 106.358 112.873 106.851 113.98C107.358 115.073 107.611 116.36 107.611 117.84ZM96.3309 117.84C96.3309 119.04 96.4976 120.073 96.8309 120.94C97.1643 121.807 97.6776 122.473 98.3709 122.94C99.0776 123.407 99.9643 123.64 101.031 123.64C102.111 123.64 102.991 123.407 103.671 122.94C104.364 122.473 104.878 121.807 105.211 120.94C105.544 120.073 105.711 119.04 105.711 117.84C105.711 116.04 105.338 114.633 104.591 113.62C103.844 112.593 102.664 112.08 101.051 112.08C99.9709 112.08 99.0776 112.313 98.3709 112.78C97.6776 113.233 97.1643 113.893 96.8309 114.76C96.4976 115.613 96.3309 116.64 96.3309 117.84Z" fill="#282828"/>
</svg>
