<svg width="390" height="153" viewBox="0 0 390 153" fill="none" xmlns="http://www.w3.org/2000/svg">
<path d="M57.264 15.248C57.264 16.256 57.016 17.136 56.52 17.888C56.024 18.64 55.304 19.224 54.36 19.64C53.432 20.04 52.296 20.24 50.952 20.24C50.36 20.24 49.776 20.2 49.2 20.12C48.64 20.04 48.096 19.928 47.568 19.784C47.056 19.624 46.568 19.432 46.104 19.208V15.824C46.92 16.176 47.76 16.504 48.624 16.808C49.504 17.096 50.376 17.24 51.24 17.24C51.832 17.24 52.304 17.16 52.656 17C53.024 16.84 53.288 16.624 53.448 16.352C53.624 16.08 53.712 15.768 53.712 15.416C53.712 14.984 53.56 14.616 53.256 14.312C52.968 14.008 52.576 13.728 52.08 13.472C51.584 13.2 51.016 12.912 50.376 12.608C49.976 12.416 49.544 12.192 49.08 11.936C48.616 11.664 48.168 11.336 47.736 10.952C47.32 10.552 46.976 10.072 46.704 9.512C46.432 8.952 46.296 8.28 46.296 7.496C46.296 6.472 46.528 5.6 46.992 4.88C47.472 4.144 48.144 3.584 49.008 3.2C49.888 2.816 50.92 2.624 52.104 2.624C53 2.624 53.848 2.728 54.648 2.936C55.464 3.144 56.312 3.44 57.192 3.824L56.016 6.656C55.232 6.336 54.528 6.088 53.904 5.912C53.28 5.736 52.64 5.648 51.984 5.648C51.536 5.648 51.152 5.72 50.832 5.864C50.512 6.008 50.264 6.208 50.088 6.464C49.928 6.72 49.848 7.024 49.848 7.376C49.848 7.776 49.968 8.12 50.208 8.408C50.448 8.68 50.808 8.944 51.288 9.2C51.768 9.456 52.368 9.76 53.088 10.112C53.968 10.528 54.712 10.96 55.32 11.408C55.944 11.856 56.424 12.384 56.76 12.992C57.096 13.6 57.264 14.352 57.264 15.248ZM68.2508 2.864C70.4588 2.864 72.0668 3.344 73.0748 4.304C74.0988 5.248 74.6107 6.552 74.6107 8.216C74.6107 8.968 74.4987 9.688 74.2747 10.376C74.0507 11.048 73.6747 11.656 73.1467 12.2C72.6347 12.728 71.9547 13.144 71.1067 13.448C70.2587 13.752 69.2107 13.904 67.9628 13.904H66.4027V20H62.7787V2.864H68.2508ZM68.0587 5.84H66.4027V10.928H67.6027C68.2908 10.928 68.8828 10.84 69.3787 10.664C69.8748 10.488 70.2588 10.208 70.5308 9.824C70.8027 9.44 70.9387 8.944 70.9387 8.336C70.9387 7.488 70.7067 6.864 70.2428 6.464C69.7787 6.048 69.0507 5.84 68.0587 5.84ZM90.1131 20H80.2491V2.864H90.1131V5.84H83.8731V9.608H89.6811V12.584H83.8731V17H90.1131V20ZM103.351 5.648C102.663 5.648 102.047 5.784 101.503 6.056C100.975 6.328 100.527 6.72 100.159 7.232C99.7908 7.728 99.5108 8.336 99.3188 9.056C99.1428 9.776 99.0548 10.584 99.0548 11.48C99.0548 12.696 99.1988 13.736 99.4868 14.6C99.7908 15.448 100.263 16.096 100.903 16.544C101.543 16.992 102.359 17.216 103.351 17.216C104.055 17.216 104.751 17.136 105.439 16.976C106.143 16.816 106.903 16.592 107.719 16.304V19.352C106.967 19.656 106.223 19.88 105.487 20.024C104.751 20.168 103.927 20.24 103.015 20.24C101.255 20.24 99.7988 19.88 98.6468 19.16C97.5108 18.424 96.6708 17.4 96.1268 16.088C95.5828 14.76 95.3108 13.216 95.3108 11.456C95.3108 10.16 95.4868 8.976 95.8388 7.904C96.1908 6.816 96.7028 5.88 97.3748 5.096C98.0628 4.312 98.9028 3.704 99.8948 3.272C100.903 2.84 102.055 2.624 103.351 2.624C104.199 2.624 105.047 2.736 105.895 2.96C106.759 3.168 107.583 3.456 108.367 3.824L107.191 6.776C106.551 6.472 105.903 6.208 105.247 5.984C104.607 5.76 103.975 5.648 103.351 5.648ZM120.36 20H116.736V5.888H112.08V2.864H125.016V5.888H120.36V20ZM135.05 2.864C136.602 2.864 137.882 3.056 138.89 3.44C139.898 3.808 140.65 4.376 141.146 5.144C141.642 5.896 141.89 6.848 141.89 8C141.89 8.784 141.738 9.472 141.434 10.064C141.146 10.64 140.754 11.136 140.258 11.552C139.778 11.952 139.258 12.28 138.698 12.536L143.738 20H139.706L135.626 13.424H133.682V20H130.058V2.864H135.05ZM134.786 5.84H133.682V10.472H134.858C135.658 10.472 136.306 10.384 136.802 10.208C137.298 10.032 137.658 9.768 137.882 9.416C138.106 9.048 138.218 8.608 138.218 8.096C138.218 7.552 138.09 7.12 137.834 6.8C137.594 6.464 137.218 6.224 136.706 6.08C136.21 5.92 135.57 5.84 134.786 5.84ZM158.79 20L157.542 15.92H151.302L150.054 20H146.142L152.19 2.792H156.63L162.702 20H158.79ZM155.43 8.888C155.35 8.616 155.246 8.272 155.118 7.856C154.99 7.44 154.862 7.016 154.734 6.584C154.606 6.152 154.502 5.776 154.422 5.456C154.342 5.776 154.23 6.176 154.086 6.656C153.958 7.12 153.83 7.568 153.702 8C153.59 8.416 153.502 8.712 153.438 8.888L152.214 12.872H156.678L155.43 8.888ZM178.433 20H165.689V17.648L173.897 5.864H165.905V2.864H178.217V5.216L170.009 17H178.433V20ZM193.435 20H183.571V2.864H193.435V5.84H187.195V9.608H193.003V12.584H187.195V17H193.435V20ZM210.753 20.288C209.913 20.288 209.073 20.096 208.377 19.688C207.249 19.016 206.673 18.128 206.673 17.336C206.673 16.544 207.225 15.824 208.329 15.416C209.073 15.128 209.865 15.008 210.705 15.008C211.473 15.008 212.265 15.104 213.081 15.296C213.081 14.888 213.057 14.456 213.033 14C212.985 12.296 212.961 10.376 212.937 8.576C210.417 8.864 208.113 9.296 207.105 9.344H207.033C206.889 9.344 206.769 9.272 206.721 9.152C206.625 8.912 206.433 8.384 206.385 8.072V8.024C206.385 7.928 206.457 7.88 206.649 7.88C207.345 7.88 208.209 7.808 209.121 7.688C210.057 7.568 211.401 7.376 212.937 7.184C212.913 6.2 212.913 5.264 212.889 4.448C212.889 4.016 212.865 3.584 212.817 3.248V3.176C212.817 3.08 212.841 3.008 212.985 3.008C213.489 2.984 214.041 3.032 214.497 3.128C214.737 3.176 214.809 3.272 214.809 3.392C214.809 3.608 214.545 3.872 214.521 4.112C214.449 5.048 214.401 6.032 214.377 7.016C215.385 6.896 216.441 6.8 217.473 6.704C217.689 6.704 217.761 6.728 217.785 6.872C217.833 7.064 217.881 7.856 217.833 8.12C217.833 8.216 217.761 8.288 217.617 8.288C216.585 8.264 215.457 8.312 214.353 8.432V9.728C214.353 11.192 214.377 12.632 214.473 13.976C214.497 14.6 214.545 15.2 214.569 15.68C216.201 16.232 217.785 17.048 219.057 17.96C219.201 18.056 219.201 18.152 219.129 18.272C218.937 18.608 218.649 19.064 218.385 19.352C218.313 19.448 218.217 19.496 218.097 19.376C217.233 18.632 216.009 17.816 214.665 17.216C214.497 18.128 213.969 19.28 212.937 19.808C212.313 20.12 211.545 20.288 210.753 20.288ZM201.033 13.544C201.033 10.784 201.561 7.928 202.041 5.288C202.161 4.592 202.281 3.92 202.281 3.32C202.281 3.152 202.329 3.104 202.425 3.104C202.617 3.104 203.649 3.488 204.081 3.656C204.273 3.752 204.345 3.848 204.345 3.944C204.345 4.16 203.937 4.376 203.817 4.736C202.905 8 202.401 11.096 202.401 13.448C202.401 14.384 202.473 15.176 202.641 15.824C202.689 16.04 202.737 16.136 202.785 16.136C202.833 16.136 202.905 15.968 202.977 15.728C203.145 14.96 203.601 13.64 203.769 13.256C203.817 13.136 203.889 13.088 203.937 13.208C204.009 13.328 204.153 13.664 204.513 13.904C204.609 13.976 204.585 14.072 204.537 14.168C204.105 15.416 203.577 17.12 203.577 18.248C203.577 18.824 203.697 19.304 203.937 19.856C203.961 19.88 203.961 19.928 203.961 19.952C203.961 20.048 203.913 20.12 203.793 20.168C203.601 20.264 203.121 20.384 202.857 20.408C202.713 20.432 202.665 20.432 202.617 20.312C201.441 18.296 201.033 15.968 201.033 13.544ZM208.185 17.384C208.185 17.768 208.473 18.176 209.025 18.464C209.457 18.752 210.081 18.896 210.681 18.896C211.257 18.896 211.809 18.776 212.217 18.512C212.985 18.032 213.153 17.288 213.201 16.664C212.361 16.424 211.521 16.28 210.705 16.28C210.081 16.28 209.481 16.352 208.929 16.544C208.425 16.736 208.185 17.048 208.185 17.384ZM229.713 21.248C228.417 19.76 226.497 18.32 225.441 17.696C225.321 17.6 225.297 17.576 225.417 17.408C225.537 17.216 226.041 16.712 226.209 16.592C226.281 16.52 226.329 16.472 226.449 16.544C227.433 17.096 229.497 18.464 230.937 19.832C231.033 19.928 231.009 20.024 230.961 20.12C230.793 20.408 230.193 21.056 229.977 21.248C229.905 21.32 229.809 21.344 229.713 21.248Z" fill="#282828"/>
<path d="M54.144 63.44C54.024 63.44 53.928 63.368 53.88 63.224C53.76 62.864 53.304 62.336 52.968 61.928C52.92 61.88 52.92 61.856 52.92 61.808C52.92 61.76 52.992 61.736 53.136 61.76C53.784 61.88 54.336 61.928 54.792 61.928C55.92 61.928 56.424 61.544 56.424 60.632C56.448 58.928 56.472 57.392 56.472 56.096C53.112 56.096 51.408 56.096 47.208 56.264C47.064 56.264 46.968 56.24 46.968 56.096C46.944 55.856 46.944 55.064 46.968 54.824C46.968 54.632 47.016 54.608 47.208 54.632C51.408 54.8 53.4 54.8 56.448 54.8V51.2C54.528 51.2 52.464 51.2 49.032 51.344C48.888 51.344 48.84 51.296 48.84 51.176C48.816 50.936 48.816 50.168 48.84 49.928C48.84 49.784 48.84 49.76 49.032 49.76C52.416 49.904 54.672 49.928 56.448 49.928C56.424 48.536 56.4 47.12 56.304 46.232C54.528 46.448 52.608 46.64 50.568 46.76H50.52C50.376 46.76 50.256 46.688 50.208 46.592C50.064 46.208 49.896 45.872 49.584 45.488C49.536 45.416 49.512 45.392 49.512 45.368C49.512 45.296 49.608 45.296 49.848 45.296C55.536 45.296 60.504 44.216 62.424 43.472C62.52 43.448 62.592 43.448 62.688 43.52C62.784 43.616 63.336 44.264 63.624 44.744C63.648 44.816 63.672 44.864 63.672 44.912C63.672 45.08 63.48 45.128 63.144 45.08C62.976 45.056 62.856 45.056 62.76 45.056C62.544 45.056 62.376 45.08 61.944 45.2C60.72 45.488 59.448 45.752 58.104 45.968L58.2 45.992C58.344 46.016 58.392 46.064 58.392 46.136C58.392 46.232 58.32 46.352 58.2 46.544C57.984 46.856 57.984 47.168 57.96 47.648C57.936 48.224 57.936 49.088 57.936 49.928C59.808 49.928 61.896 49.904 65.064 49.76C65.208 49.76 65.232 49.808 65.232 49.928C65.256 50.192 65.256 50.96 65.232 51.2C65.232 51.296 65.184 51.344 65.088 51.344C61.968 51.224 59.784 51.2 57.936 51.2V54.8C60.72 54.8 62.904 54.776 66.792 54.632H66.84C66.96 54.632 66.984 54.704 67.008 54.824C67.032 55.088 67.032 55.856 67.008 56.12C66.984 56.24 66.936 56.264 66.792 56.264C63 56.144 60.672 56.096 57.96 56.096C57.96 57.68 57.984 59.408 58.032 60.776C58.08 62.384 57.24 63.536 54.144 63.44ZM84.456 62.72C83.928 62.72 83.424 62.672 82.992 62.6C80.592 62.144 79.032 60.704 79.032 58.976C79.032 57.296 80.496 55.304 84.072 53.672C84.072 53.528 84.048 53.384 84.048 53.264C83.928 51.944 83.208 51.392 82.296 51.392C81.192 51.392 79.776 52.208 78.792 53.408C78.096 54.248 77.472 55.256 76.968 56.048C76.896 56.168 76.8 56.216 76.656 56.216C76.368 56.216 75.624 55.976 75.312 55.88C75.144 55.832 75.096 55.688 75.192 55.568C77.016 53.384 78.96 51.032 80.52 48.176C79.824 48.224 79.152 48.248 78.528 48.248C77.832 48.248 77.208 48.224 76.656 48.152C76.56 48.128 76.488 48.032 76.44 47.936C76.392 47.744 76.344 46.904 76.368 46.664C76.368 46.544 76.392 46.52 76.56 46.568C77.208 46.736 78.096 46.832 79.128 46.832C79.752 46.832 80.4 46.808 81.096 46.736C81.456 45.896 81.744 45.128 81.96 44.24C82.008 44.096 82.008 44.048 82.104 44.048C82.344 44.048 83.328 44.12 83.736 44.264C83.904 44.312 83.976 44.384 83.976 44.456C83.976 44.672 83.52 44.912 83.352 45.248C83.136 45.728 82.944 46.136 82.728 46.568C84.048 46.376 85.368 46.112 86.472 45.8C86.52 45.776 86.544 45.776 86.592 45.776C86.664 45.776 86.712 45.824 86.736 45.92C86.76 46.064 86.808 46.784 86.856 47.096C86.856 47.168 86.856 47.312 86.688 47.336C85.272 47.624 83.664 47.864 82.128 48.032C81.384 49.352 80.928 50.024 80.304 50.864C80.16 51.056 80.232 51.008 80.4 50.936C81.288 50.504 82.104 50.288 82.824 50.288C84.24 50.288 85.248 51.176 85.464 53.048V53.096C87.168 52.424 90.168 51.32 90.936 50.84C91.008 50.792 91.128 50.792 91.2 50.864C91.392 51.128 91.944 51.872 92.016 52.184C92.112 52.568 91.656 52.448 91.152 52.592C89.616 53.072 87.096 53.984 85.536 54.584H85.512C85.488 55.76 85.392 57.224 85.248 58.328C85.224 58.568 85.176 58.616 84.936 58.64C84.552 58.688 84.312 58.688 83.904 58.688H83.832C83.664 58.688 83.64 58.592 83.664 58.472C83.856 57.464 83.976 56.288 84.048 55.256C81.552 56.504 80.544 57.8 80.544 58.88C80.544 60.032 81.672 60.896 83.328 61.136C83.616 61.184 83.952 61.208 84.288 61.208C85.728 61.208 87.504 60.824 88.56 60.296C88.608 60.272 88.656 60.272 88.68 60.272C88.728 60.272 88.776 60.296 88.776 60.416C88.776 60.68 88.68 61.448 88.704 61.736V61.784C88.704 61.928 88.632 62 88.464 62.072C87.6 62.432 85.944 62.72 84.456 62.72ZM107.033 61.592C106.553 61.592 106.049 61.52 105.497 61.4C105.305 61.352 105.209 61.232 105.161 61.04C105.113 60.704 104.921 60.32 104.825 59.984C104.801 59.936 104.801 59.912 104.801 59.888C104.801 59.816 104.873 59.792 104.993 59.816C105.617 59.912 106.145 59.984 106.601 59.984C108.017 59.984 108.737 59.48 109.289 58.616C110.009 57.512 110.321 55.4 110.321 53.792C110.321 53.312 110.297 52.904 110.249 52.544C110.153 51.68 109.793 51.368 108.953 51.368C108.185 51.392 107.369 51.464 106.553 51.584C105.401 55.256 103.745 58.88 101.681 61.4C101.585 61.496 101.513 61.52 101.369 61.496C101.057 61.448 100.241 61.088 100.025 60.944C99.9294 60.872 99.8574 60.776 99.9774 60.656C102.017 58.664 103.841 55.328 104.969 51.824C103.481 52.088 102.161 52.352 101.393 52.424C101.273 52.424 101.153 52.424 101.081 52.256C100.961 52.04 100.721 51.344 100.697 51.176C100.697 51.104 100.673 51.056 100.673 51.032C100.673 50.912 100.745 50.888 100.865 50.888C101.633 50.936 103.433 50.624 105.377 50.36C105.833 48.68 106.097 46.976 106.145 45.416C106.145 45.2 106.145 45.176 106.337 45.224C106.697 45.272 107.417 45.392 107.897 45.56C108.137 45.656 108.209 45.728 108.209 45.824C108.209 46.016 107.825 46.256 107.753 46.64C107.537 47.792 107.273 48.968 106.961 50.168C107.849 50.072 108.713 50 109.481 50C110.681 50 111.641 50.528 111.809 52.16C111.857 52.568 111.881 53.024 111.881 53.552C111.881 55.472 111.569 57.992 110.753 59.36C109.865 60.824 108.689 61.592 107.033 61.592ZM113.249 49.904L113.993 49.232C114.065 49.184 114.089 49.16 114.161 49.16C114.209 49.16 114.257 49.184 114.353 49.232C115.673 49.928 118.433 52.04 119.729 54.056C119.777 54.128 119.777 54.152 119.777 54.2C119.777 54.248 119.753 54.32 119.681 54.392C119.393 54.68 118.937 55.064 118.649 55.232C118.529 55.304 118.409 55.352 118.337 55.184C117.209 53.048 114.521 50.84 113.273 50.168C113.105 50.072 113.177 49.976 113.249 49.904ZM136.025 62.36C134.873 62.36 133.577 62.24 132.401 61.832C130.121 61.064 128.945 59.504 128.945 58.04C128.945 56.648 129.977 55.328 132.065 54.8C133.217 54.512 134.513 54.416 135.713 54.416C137.321 54.416 138.761 54.584 139.457 54.704C138.713 53.744 137.705 52.064 136.817 50.24C135.113 50.6 133.337 50.792 131.681 50.792C130.649 50.792 129.641 50.72 128.753 50.528C128.657 50.528 128.585 50.408 128.561 50.288C128.489 50.072 128.489 49.16 128.489 48.92C128.513 48.776 128.537 48.752 128.705 48.8C129.713 49.064 130.841 49.184 132.017 49.184C133.361 49.184 134.777 49.04 136.145 48.752C135.593 47.48 135.137 46.184 134.897 45.032C134.849 44.84 134.825 44.792 134.993 44.768C135.281 44.72 135.785 44.672 136.193 44.672C136.697 44.672 136.817 44.768 136.817 44.936C136.817 45.104 136.673 45.344 136.721 45.656C136.841 46.448 137.129 47.408 137.537 48.416C138.641 48.104 139.649 47.72 140.537 47.264C140.561 47.24 140.609 47.24 140.633 47.24C140.705 47.24 140.753 47.288 140.801 47.384C140.921 47.576 141.305 48.176 141.401 48.512V48.584C141.401 48.656 141.377 48.728 141.281 48.776C140.369 49.208 139.337 49.568 138.209 49.88C139.361 52.256 140.969 54.68 142.289 56.288C142.361 56.36 142.337 56.456 142.241 56.528C142.001 56.696 141.377 56.912 141.041 57.008H140.969C140.873 57.008 140.825 56.984 140.729 56.936C140.489 56.744 140.369 56.528 139.217 56.24C138.209 55.976 136.865 55.784 135.521 55.784C134.513 55.784 133.505 55.904 132.617 56.12C131.297 56.456 130.649 57.248 130.649 58.088C130.649 58.976 131.393 59.912 132.905 60.368C133.817 60.632 134.825 60.728 135.761 60.728C137.105 60.728 138.353 60.536 139.169 60.344H139.241C139.337 60.344 139.337 60.392 139.289 60.56C139.193 60.92 139.025 61.424 138.953 61.76C138.905 62 138.785 62.096 138.497 62.168C137.921 62.264 137.033 62.36 136.025 62.36ZM140.393 44.936C140.297 44.84 140.369 44.768 140.417 44.696C140.537 44.6 140.921 44.312 141.065 44.24C141.185 44.192 141.233 44.168 141.329 44.264C141.977 44.792 143.249 46.064 143.777 46.928C143.801 46.952 143.825 47 143.825 47.024C143.825 47.096 143.777 47.144 143.705 47.24C143.585 47.384 143.201 47.672 143.057 47.744C142.913 47.816 142.841 47.792 142.769 47.672C142.217 46.784 140.993 45.464 140.393 44.936ZM142.649 43.808C142.529 43.712 142.601 43.64 142.673 43.568C142.769 43.448 143.153 43.184 143.297 43.112C143.417 43.064 143.465 43.04 143.561 43.112C144.209 43.664 145.481 44.912 146.033 45.752C146.057 45.8 146.081 45.824 146.081 45.872C146.081 45.944 146.033 45.992 145.961 46.088C145.841 46.232 145.481 46.52 145.313 46.592C145.169 46.664 145.097 46.64 145.025 46.52C144.449 45.656 143.225 44.312 142.649 43.808ZM159.88 62.528C157.312 62.528 155.224 61.16 155.032 57.944C155.008 57.416 154.984 56.888 154.984 56.384C154.984 54.656 155.128 53 155.176 50.84C155.2 49.568 155.272 48.128 155.272 46.88C155.272 46.088 155.248 45.368 155.176 44.816V44.696C155.176 44.624 155.2 44.6 155.272 44.6C155.752 44.6 156.64 44.816 157 44.936C157.312 45.032 157.408 45.128 157.408 45.248C157.408 45.488 157.072 45.776 157.024 46.232C156.952 47.192 156.88 48.896 156.808 50.768C156.712 52.856 156.592 54.608 156.592 56.264C156.592 56.792 156.616 57.32 156.64 57.848C156.784 60.056 158.104 60.92 159.856 60.92C162.184 60.92 165.232 59.36 167.008 57.392C167.104 57.296 167.152 57.248 167.2 57.248C167.248 57.248 167.248 57.344 167.272 57.464C167.296 57.824 167.344 58.28 167.44 58.64C167.464 58.736 167.488 58.808 167.488 58.88C167.488 59.048 167.392 59.168 167.224 59.312C165.136 61.328 162.304 62.528 159.88 62.528ZM188.538 61.76C183.594 60.944 180.642 57.512 180.642 53.816C180.642 51.872 181.434 49.88 183.162 48.128C183.234 48.056 183.258 48.008 183.258 47.984C183.258 47.96 183.21 47.96 183.066 47.984C179.994 48.464 177.642 48.848 175.122 49.16H175.05C174.954 49.16 174.858 49.136 174.81 49.04C174.714 48.824 174.474 47.864 174.45 47.696V47.648C174.45 47.504 174.546 47.456 174.666 47.456C175.266 47.456 176.298 47.408 177.258 47.288C180.714 46.856 188.274 45.776 191.01 45.608C191.13 45.608 191.13 45.656 191.154 45.752C191.202 46.016 191.226 46.904 191.226 47.12C191.226 47.216 191.178 47.264 191.082 47.264C189.258 47.24 185.994 47.36 184.698 48.56C182.994 50.12 182.178 51.92 182.178 53.672C182.178 56.816 184.89 59.696 189.738 60.152C189.954 60.152 189.93 60.248 189.81 60.392C189.57 60.728 189.066 61.232 188.874 61.616C188.802 61.736 188.706 61.784 188.538 61.76ZM208.914 55.736C208.794 55.712 208.746 55.616 208.77 55.52C208.89 54.056 208.914 53.168 208.914 51.824C207.69 51.824 206.25 51.8 204.834 51.8C203.778 51.8 202.746 51.824 201.81 51.848C201.786 52.568 201.81 53.408 201.882 54.272C201.882 54.368 201.834 54.44 201.69 54.464C201.354 54.488 200.562 54.488 200.322 54.464C200.178 54.44 200.13 54.368 200.154 54.272C200.25 53.6 200.322 52.664 200.346 52.064C200.346 51.68 200.322 51.248 200.274 50.888V50.816C200.274 50.744 200.322 50.72 200.49 50.744C203.97 50.864 206.85 50.888 208.89 50.888C208.89 50.312 208.89 49.928 208.818 49.616C207.114 49.616 205.458 49.64 202.554 49.76C202.434 49.76 202.386 49.736 202.362 49.616C202.338 49.4 202.338 48.872 202.362 48.656C202.386 48.512 202.41 48.512 202.554 48.512C205.962 48.68 207.57 48.68 209.562 48.704C211.53 48.704 213.354 48.68 216.714 48.512C216.834 48.512 216.858 48.56 216.858 48.68C216.882 48.896 216.882 49.4 216.858 49.616C216.858 49.712 216.786 49.76 216.714 49.76C214.05 49.664 212.178 49.64 210.546 49.616C210.546 49.664 210.498 49.712 210.378 49.76C210.258 49.832 210.258 49.928 210.234 50.072C210.21 50.312 210.186 50.576 210.186 50.888C212.466 50.888 215.274 50.864 218.802 50.744C218.97 50.744 218.994 50.768 218.97 50.888C218.922 51.368 218.898 51.752 218.898 52.112C218.922 52.736 218.946 53.528 219.042 54.224V54.272C219.042 54.344 218.97 54.392 218.898 54.416C218.514 54.44 217.77 54.44 217.53 54.416C217.386 54.392 217.338 54.32 217.362 54.224C217.434 53.576 217.434 52.28 217.434 51.848C216.498 51.824 215.394 51.8 214.29 51.8C212.802 51.8 211.314 51.824 210.162 51.824C210.162 53.192 210.186 54.08 210.306 55.544C210.33 55.64 210.306 55.712 210.186 55.736C209.874 55.76 209.13 55.76 208.914 55.736ZM200.418 59.432C200.394 59.192 200.394 58.736 200.418 58.52C200.442 58.352 200.442 58.352 200.634 58.352C205.074 58.52 207.186 58.52 209.586 58.52C211.962 58.52 214.482 58.52 218.826 58.352C218.97 58.352 218.994 58.4 218.994 58.52C219.018 58.664 219.018 58.88 219.018 59.072C219.018 59.216 219.018 59.36 218.994 59.456C218.994 59.552 218.922 59.6 218.826 59.6C214.65 59.456 211.842 59.48 209.586 59.456H208.65C208.602 59.504 208.53 59.552 208.434 59.6C208.242 59.696 208.17 59.864 208.074 60.056C207.834 60.536 207.618 61.016 207.306 61.664C209.538 61.544 211.914 61.352 213.546 61.208C212.898 60.872 212.322 60.584 211.962 60.416C211.842 60.368 211.842 60.296 211.914 60.2C212.058 60.056 212.442 59.672 212.538 59.6C212.682 59.504 212.706 59.528 212.802 59.576C213.786 59.984 216.138 61.088 217.914 62.36C218.01 62.408 217.962 62.504 217.914 62.6C217.794 62.816 217.386 63.248 217.218 63.416C217.17 63.464 217.122 63.488 217.074 63.488C217.026 63.488 216.978 63.464 216.906 63.392C216.354 62.936 215.682 62.48 215.034 62.072H214.986C213.282 62.264 204.546 63.008 202.866 63.152C202.602 63.176 202.458 63.344 202.29 63.344C202.218 63.344 202.146 63.296 202.05 63.176C201.858 62.96 201.498 62.264 201.378 61.976C201.378 61.928 201.354 61.904 201.354 61.88C201.354 61.808 201.402 61.784 201.474 61.784C201.81 61.784 202.218 61.808 202.746 61.808C203.61 61.808 204.69 61.784 205.866 61.736C206.37 60.704 206.634 60.032 206.754 59.456C205.146 59.48 203.274 59.504 200.634 59.6C200.49 59.6 200.442 59.576 200.418 59.432ZM202.914 55.328C202.89 55.112 202.89 54.968 202.914 54.704C202.914 54.536 202.986 54.536 203.082 54.536C203.778 54.608 204.618 54.632 205.218 54.632C205.842 54.632 206.898 54.584 207.594 54.536C207.69 54.512 207.738 54.56 207.738 54.656C207.762 54.896 207.762 55.088 207.738 55.376C207.738 55.448 207.666 55.496 207.594 55.496C206.874 55.424 205.818 55.4 205.218 55.4C204.642 55.4 203.778 55.424 203.058 55.472C202.986 55.496 202.914 55.448 202.914 55.328ZM202.914 53.528C202.89 53.288 202.89 53.12 202.914 52.904C202.914 52.76 202.986 52.736 203.082 52.736C203.778 52.808 204.618 52.832 205.218 52.832C205.842 52.832 206.898 52.808 207.594 52.736C207.666 52.736 207.738 52.736 207.738 52.904C207.762 53.168 207.762 53.336 207.738 53.552C207.738 53.648 207.69 53.696 207.594 53.696C206.874 53.624 205.818 53.6 205.218 53.6C204.642 53.6 203.778 53.624 203.058 53.696C202.986 53.696 202.914 53.648 202.914 53.528ZM202.962 57.248V56.456C202.986 56.288 203.01 56.264 203.154 56.288C206.802 56.432 207.666 56.408 209.586 56.432C211.458 56.432 212.37 56.432 215.946 56.288C216.09 56.264 216.114 56.336 216.114 56.432C216.138 56.672 216.138 57.032 216.114 57.272C216.114 57.368 216.066 57.416 215.97 57.416C212.538 57.272 211.362 57.272 209.586 57.272C207.69 57.272 206.682 57.272 203.13 57.416C203.01 57.416 202.986 57.368 202.962 57.248ZM203.322 47.792C203.466 46.688 203.514 45.656 203.514 45.152C203.514 44.552 203.466 43.952 203.394 43.064C203.394 43.016 203.37 42.968 203.37 42.944C203.37 42.872 203.418 42.848 203.634 42.848C204.882 42.92 208.05 42.944 209.49 42.944C210.882 42.944 213.69 42.92 215.442 42.848C215.658 42.848 215.682 42.896 215.658 43.064C215.562 44.048 215.586 44.768 215.586 45.272C215.586 45.752 215.61 46.52 215.682 47.696C215.682 47.744 215.706 47.792 215.706 47.84C215.706 47.936 215.658 47.96 215.442 47.984C215.13 48.008 214.674 48.008 214.41 47.984H214.338C214.194 47.984 214.122 47.96 214.146 47.768V47.672L209.442 47.648L204.93 47.672V47.792C204.93 47.984 204.906 48.008 204.666 48.032C204.354 48.056 203.874 48.056 203.61 48.032C203.37 48.008 203.298 48.008 203.322 47.792ZM204.906 46.76L209.442 46.784L214.17 46.76C214.194 46.328 214.194 45.992 214.194 45.728H204.906V46.76ZM204.906 44.888L209.442 44.912L214.194 44.888C214.194 44.552 214.194 44.144 214.17 43.856H204.93C204.906 44.12 204.906 44.528 204.906 44.888ZM211.386 55.328C211.362 55.112 211.362 54.968 211.386 54.704C211.41 54.56 211.458 54.536 211.554 54.536C212.25 54.608 213.162 54.632 213.786 54.632C214.386 54.632 215.418 54.584 216.114 54.536H216.162C216.21 54.536 216.282 54.56 216.282 54.704C216.282 54.92 216.306 55.088 216.282 55.304C216.282 55.424 216.21 55.496 216.114 55.496C215.418 55.424 214.362 55.4 213.786 55.4C213.186 55.4 212.25 55.424 211.53 55.472C211.434 55.496 211.386 55.448 211.386 55.328ZM211.386 53.552C211.362 53.264 211.362 53.096 211.386 52.88C211.41 52.76 211.482 52.736 211.554 52.736C212.25 52.808 213.162 52.832 213.786 52.832C214.386 52.832 215.418 52.808 216.114 52.736C216.186 52.736 216.282 52.76 216.282 52.88C216.282 53.12 216.306 53.312 216.282 53.528C216.282 53.648 216.21 53.696 216.114 53.696C215.418 53.624 214.362 53.6 213.786 53.6C213.186 53.6 212.25 53.624 211.53 53.696C211.434 53.696 211.386 53.648 211.386 53.552ZM233.082 63.032C233.01 63.032 232.914 63.008 232.842 62.936C232.506 62.576 232.098 62.312 231.858 62.12C231.618 61.952 231.714 61.928 231.882 61.88C236.73 60.416 239.058 57.272 239.058 52.088C239.058 51.704 239.034 51.32 239.01 50.912C238.962 49.952 238.89 48.92 238.818 47.912C238.746 46.616 238.674 45.68 238.65 45.104V45.008C238.65 44.936 238.698 44.864 238.818 44.864C239.13 44.864 240.018 44.96 240.546 45.08C240.738 45.128 240.81 45.2 240.81 45.296C240.81 45.488 240.57 45.776 240.522 46.016C240.498 46.184 240.474 46.472 240.474 46.808C240.474 47.144 240.498 47.528 240.498 47.912C240.546 48.92 240.57 49.856 240.618 50.816C240.642 51.296 240.666 51.752 240.666 52.184C240.666 57.176 238.746 61.016 233.25 63.008C233.202 63.032 233.13 63.032 233.082 63.032ZM231.186 51.824C231.186 50.384 231.354 48.872 231.498 47.48C231.594 46.664 231.738 45.848 231.738 45.104C231.738 44.936 231.81 44.888 231.906 44.888C232.266 44.888 233.034 45.176 233.442 45.368C233.658 45.464 233.754 45.56 233.754 45.632C233.754 45.824 233.37 45.992 233.298 46.256C232.938 47.864 232.626 49.928 232.626 51.512C232.626 51.968 232.65 52.376 232.698 52.736C232.722 52.904 232.77 52.976 232.818 52.976C232.866 52.976 232.938 52.88 233.01 52.736C233.25 52.184 233.682 51.296 233.85 50.96C233.898 50.888 233.97 50.912 233.97 50.96C234.042 51.176 234.138 51.728 234.258 51.968C234.33 52.088 234.33 52.184 234.282 52.304C234.066 52.808 233.634 53.744 233.466 54.44C233.394 54.752 233.346 54.992 233.346 55.208C233.346 55.52 233.418 55.76 233.466 55.976C233.466 56.048 233.394 56.192 233.298 56.216C232.938 56.312 232.578 56.384 232.314 56.432C232.194 56.432 232.122 56.384 232.074 56.288C231.402 55.016 231.186 53.456 231.186 51.824ZM263.49 62.72C262.962 62.72 262.458 62.672 262.026 62.6C259.626 62.144 258.066 60.704 258.066 58.976C258.066 57.296 259.53 55.304 263.106 53.672C263.106 53.528 263.082 53.384 263.082 53.264C262.962 51.944 262.242 51.392 261.33 51.392C260.226 51.392 258.81 52.208 257.826 53.408C257.13 54.248 256.506 55.256 256.002 56.048C255.93 56.168 255.834 56.216 255.69 56.216C255.402 56.216 254.658 55.976 254.346 55.88C254.178 55.832 254.13 55.688 254.226 55.568C256.05 53.384 257.994 51.032 259.554 48.176C258.858 48.224 258.186 48.248 257.562 48.248C256.866 48.248 256.242 48.224 255.69 48.152C255.594 48.128 255.522 48.032 255.474 47.936C255.426 47.744 255.378 46.904 255.402 46.664C255.402 46.544 255.426 46.52 255.594 46.568C256.242 46.736 257.13 46.832 258.162 46.832C258.786 46.832 259.434 46.808 260.13 46.736C260.49 45.896 260.778 45.128 260.994 44.24C261.042 44.096 261.042 44.048 261.138 44.048C261.378 44.048 262.362 44.12 262.77 44.264C262.938 44.312 263.01 44.384 263.01 44.456C263.01 44.672 262.554 44.912 262.386 45.248C262.17 45.728 261.978 46.136 261.762 46.568C263.082 46.376 264.402 46.112 265.506 45.8C265.554 45.776 265.578 45.776 265.626 45.776C265.698 45.776 265.746 45.824 265.77 45.92C265.794 46.064 265.842 46.784 265.89 47.096C265.89 47.168 265.89 47.312 265.722 47.336C264.306 47.624 262.698 47.864 261.162 48.032C260.418 49.352 259.962 50.024 259.338 50.864C259.194 51.056 259.266 51.008 259.434 50.936C260.322 50.504 261.138 50.288 261.858 50.288C263.274 50.288 264.282 51.176 264.498 53.048V53.096C266.202 52.424 269.202 51.32 269.97 50.84C270.042 50.792 270.162 50.792 270.234 50.864C270.426 51.128 270.978 51.872 271.05 52.184C271.146 52.568 270.69 52.448 270.186 52.592C268.65 53.072 266.13 53.984 264.57 54.584H264.546C264.522 55.76 264.426 57.224 264.282 58.328C264.258 58.568 264.21 58.616 263.97 58.64C263.586 58.688 263.346 58.688 262.938 58.688H262.866C262.698 58.688 262.674 58.592 262.698 58.472C262.89 57.464 263.01 56.288 263.082 55.256C260.586 56.504 259.578 57.8 259.578 58.88C259.578 60.032 260.706 60.896 262.362 61.136C262.65 61.184 262.986 61.208 263.322 61.208C264.762 61.208 266.538 60.824 267.594 60.296C267.642 60.272 267.69 60.272 267.714 60.272C267.762 60.272 267.81 60.296 267.81 60.416C267.81 60.68 267.714 61.448 267.738 61.736V61.784C267.738 61.928 267.666 62 267.498 62.072C266.634 62.432 264.978 62.72 263.49 62.72ZM297.906 62.528C297.858 62.528 297.81 62.48 297.786 62.36C297.546 61.688 297.258 60.992 296.922 60.344C293.898 60.944 288.954 61.856 287.682 62.072C287.418 62.096 287.25 62.36 287.082 62.36C287.034 62.36 286.962 62.312 286.866 62.192C286.674 61.904 286.266 61.256 286.074 60.656C286.05 60.608 286.05 60.584 286.05 60.56C286.05 60.488 286.098 60.488 286.146 60.488C286.722 60.488 287.61 60.416 288.666 60.296C289.866 56 291.762 46.664 291.882 43.928V43.832C291.882 43.688 291.906 43.664 292.074 43.664C292.458 43.664 293.394 43.88 293.778 44.048C294.018 44.144 294.114 44.264 294.114 44.36C294.114 44.528 293.97 44.696 293.802 44.888C293.634 45.104 293.514 45.296 293.466 45.584C292.89 48.584 291.306 56.264 290.25 60.08C292.242 59.816 294.498 59.456 296.298 59.12C295.41 57.56 294.474 56.216 294.018 55.592C293.946 55.472 293.97 55.4 294.09 55.328C294.306 55.184 294.906 54.872 295.026 54.848C295.074 54.824 295.098 54.824 295.146 54.824C295.218 54.824 295.242 54.872 295.29 54.944C295.962 55.76 298.218 58.976 299.346 61.64C299.346 61.664 299.37 61.688 299.37 61.712C299.37 61.808 299.298 61.88 299.202 61.952C299.01 62.072 298.266 62.432 298.026 62.504C297.978 62.504 297.93 62.528 297.906 62.528ZM278.37 54.752C278.37 54.68 278.466 54.68 278.586 54.656C279.522 54.488 281.274 53.96 283.122 53.312V48.944C282.066 48.968 280.578 49.016 279.402 49.064C279.306 49.064 279.21 49.016 279.186 48.896C279.162 48.632 279.162 47.912 279.186 47.672C279.21 47.552 279.282 47.48 279.402 47.504C280.602 47.576 282.042 47.624 283.098 47.648C283.074 45.776 283.026 43.784 282.882 42.8V42.752C282.882 42.68 282.93 42.632 283.026 42.632C283.338 42.632 284.226 42.728 284.826 42.896C284.97 42.944 285.018 43.016 285.018 43.088C285.018 43.256 284.85 43.496 284.754 43.856C284.61 44.24 284.562 45.968 284.562 47.648C285.498 47.624 286.626 47.576 287.754 47.504H287.802C287.874 47.504 287.946 47.576 287.946 47.672C287.97 47.912 287.97 48.632 287.946 48.896C287.946 49.016 287.826 49.064 287.73 49.064C286.626 49.016 285.474 48.992 284.562 48.968V52.904C286.05 52.352 287.346 51.848 287.898 51.608C288.066 51.536 288.066 51.56 288.066 51.728C288.042 51.92 288.018 52.16 288.018 52.376C288.018 52.52 288.042 52.664 288.066 52.784V52.856C288.066 52.928 288.018 53 287.874 53.048C286.938 53.48 285.762 53.936 284.562 54.392C284.562 56.384 284.61 58.688 284.61 60.56C284.61 61.736 284.13 62.888 281.346 62.96C281.202 62.96 281.082 62.912 281.034 62.792C280.914 62.336 280.434 61.784 280.122 61.424C280.026 61.28 280.05 61.208 280.194 61.232C280.698 61.304 281.13 61.328 281.49 61.328C282.594 61.328 283.05 60.992 283.05 60.128C283.098 58.496 283.098 56.6 283.122 54.848C281.922 55.304 280.866 55.664 280.098 55.928C279.858 56.024 279.69 56.288 279.498 56.288C279.426 56.288 279.354 56.24 279.258 56.144C278.994 55.856 278.562 55.136 278.418 54.872C278.394 54.824 278.37 54.8 278.37 54.752ZM311.802 60.776C311.25 60.776 310.698 60.56 310.122 60.152C307.914 58.64 306.858 55.376 306.858 51.176C306.858 50.336 306.882 49.448 306.978 48.536C306.978 48.416 307.05 48.368 307.146 48.368C307.41 48.368 308.202 48.488 308.658 48.584C308.898 48.656 308.994 48.728 308.994 48.824C308.994 49.016 308.634 49.328 308.586 49.88C308.514 50.648 308.466 51.368 308.466 52.04C308.466 55.328 309.402 57.632 311.034 58.736C311.274 58.904 311.514 58.976 311.73 58.976C312.018 58.976 312.234 58.832 312.426 58.616C312.834 58.136 313.41 56.984 313.722 55.952C313.794 55.736 313.842 55.808 313.938 55.952C314.106 56.24 314.37 56.744 314.682 57.032C314.778 57.104 314.802 57.2 314.802 57.272C314.802 57.368 314.778 57.44 314.754 57.536C314.514 58.352 313.962 59.384 313.602 59.792C313.05 60.464 312.45 60.776 311.802 60.776ZM319.218 50.048C319.218 50 319.266 49.952 319.338 49.904C319.602 49.76 319.938 49.568 320.226 49.424C320.298 49.376 320.346 49.352 320.394 49.352C320.442 49.352 320.49 49.4 320.586 49.496C321.642 50.456 323.898 53.36 324.762 55.784C324.786 55.832 324.786 55.88 324.786 55.904C324.786 56 324.738 56.024 324.618 56.12C324.282 56.336 323.706 56.624 323.37 56.744C323.322 56.768 323.274 56.768 323.226 56.768C323.154 56.768 323.106 56.744 323.082 56.624C322.434 54.2 320.49 51.368 319.29 50.168C319.242 50.12 319.218 50.096 319.218 50.048Z" fill="#282828"/>
<path d="M50.016 96.76C49.776 96.736 49.704 96.712 49.728 96.472C49.824 95.584 49.872 91.12 49.872 90.232V89.152C49.872 87.928 49.848 86.656 49.776 85.816V85.696C49.776 85.552 49.824 85.528 50.064 85.552C51.096 85.624 52.992 85.648 54.6 85.648C55.08 84.496 55.32 83.44 55.392 82.744C55.392 82.552 55.392 82.528 55.632 82.552C55.92 82.6 56.784 82.84 57.216 83.032C57.36 83.104 57.408 83.176 57.408 83.248C57.408 83.392 57.24 83.536 57.048 83.728C56.88 83.872 56.832 83.992 56.736 84.232C56.52 84.688 56.328 85.168 56.112 85.672H57.024C58.224 85.672 62.016 85.672 64.128 85.552H64.2C64.368 85.552 64.392 85.624 64.392 85.816C64.296 87.184 64.272 89.344 64.272 90.424C64.272 91.408 64.344 95.536 64.416 96.448V96.544C64.416 96.664 64.368 96.688 64.128 96.736C63.936 96.784 63.384 96.784 63.144 96.76C62.976 96.736 62.808 96.76 62.832 96.52C62.904 95.872 62.904 93.736 62.904 92.152V90.424C62.904 89.32 62.88 86.824 62.88 86.824H51.288C51.288 86.824 51.24 89.008 51.24 90.184C51.24 90.832 51.24 93.184 51.264 94.888C51.288 94.888 51.312 94.864 51.336 94.864C53.208 94.144 54.984 92.728 56.064 91.528C55.152 91.528 53.856 91.552 52.272 91.648C52.2 91.648 52.08 91.624 52.056 91.504C52.032 91.288 52.032 90.832 52.056 90.616C52.08 90.472 52.176 90.448 52.272 90.472C53.112 90.52 53.856 90.544 54.504 90.568C54 89.68 53.28 88.888 53.016 88.648C52.944 88.576 52.896 88.528 52.992 88.432C53.112 88.312 53.616 87.976 53.736 87.928C53.784 87.904 53.832 87.88 53.952 87.976C54.384 88.36 55.176 89.248 55.584 89.92C55.656 90.064 55.608 90.112 55.536 90.208C55.488 90.232 55.248 90.448 55.056 90.592H56.424C56.424 89.44 56.4 88.096 56.28 87.496C56.256 87.376 56.28 87.328 56.4 87.328C56.736 87.376 57.288 87.448 57.768 87.592C57.912 87.616 57.96 87.688 57.96 87.76C57.96 87.856 57.912 87.952 57.816 88.048C57.672 88.216 57.624 88.312 57.6 88.552C57.576 88.864 57.528 89.8 57.504 90.592H58.2C59.088 89.44 59.52 88.36 59.688 87.904C59.712 87.808 59.736 87.784 59.904 87.832C60.048 87.88 60.72 88.168 61.008 88.36C61.104 88.432 61.152 88.504 61.152 88.552C61.152 88.696 60.768 88.768 60.648 88.936C60.36 89.32 59.928 89.896 59.4 90.568C60.144 90.568 60.984 90.52 61.872 90.448C61.968 90.448 62.088 90.496 62.088 90.616C62.112 90.784 62.112 91.312 62.088 91.528C62.088 91.624 61.968 91.648 61.896 91.648C60.336 91.552 58.872 91.528 57.864 91.528C58.464 92.152 60.504 93.688 62.256 94.336C62.496 94.432 62.472 94.504 62.304 94.6C62.112 94.72 61.704 94.936 61.44 95.2C61.392 95.272 61.344 95.296 61.272 95.296C61.224 95.296 61.176 95.272 61.08 95.224C59.928 94.576 58.32 93.28 57.504 92.368C57.528 93.4 57.6 94.048 57.672 95.2C57.672 95.272 57.624 95.368 57.504 95.392C57.192 95.416 56.688 95.416 56.4 95.392C56.28 95.368 56.232 95.272 56.232 95.2C56.352 93.928 56.4 93.328 56.424 92.392C55.512 93.496 54.192 94.816 52.608 95.68C52.56 95.704 52.488 95.728 52.44 95.728C52.392 95.728 52.32 95.704 52.272 95.632C52.128 95.44 51.6 95.176 51.336 95.032C51.312 95.032 51.288 95.008 51.264 94.984C51.264 95.656 51.288 96.208 51.312 96.496C51.312 96.712 51.264 96.712 51.024 96.76C50.76 96.784 50.256 96.784 50.016 96.76ZM46.008 103.48C46.008 103.432 46.128 103.408 46.224 103.384C51.576 103.072 54.408 100.96 55.488 98.872C53.304 98.872 51.144 98.896 47.376 99.016H47.304C47.208 99.016 47.136 98.968 47.136 98.872C47.112 98.656 47.112 97.936 47.136 97.72C47.16 97.552 47.184 97.528 47.376 97.552C51.432 97.696 53.808 97.72 55.896 97.72C55.944 97.48 55.992 97.264 55.992 97.024V96.496C55.992 96.328 55.992 96.184 55.968 96.04C55.968 95.896 55.92 95.872 56.088 95.872C56.352 95.896 57.192 95.944 57.696 96.064C57.912 96.112 57.984 96.184 57.984 96.256C57.984 96.352 57.888 96.472 57.744 96.592C57.648 96.712 57.504 96.952 57.456 97.264L57.384 97.72C59.88 97.72 62.4 97.696 66.84 97.552C66.984 97.528 66.984 97.6 67.008 97.696C67.032 97.96 67.032 98.656 67.008 98.896C66.984 98.992 66.936 99.016 66.84 99.016C63.168 98.92 60.6 98.896 58.392 98.872C59.592 100.624 62.472 102.952 67.8 103.024C67.92 103.024 67.992 103.048 67.992 103.096C67.992 103.144 67.92 103.216 67.8 103.312C67.392 103.576 66.936 104.032 66.624 104.392C66.504 104.536 66.408 104.56 66.24 104.56C60.696 104.056 57.816 100.36 57 98.896C55.872 101.536 52.944 104.008 47.688 104.776C47.568 104.776 47.424 104.824 47.352 104.704C47.064 104.296 46.464 103.864 46.152 103.648C46.056 103.576 46.008 103.528 46.008 103.48ZM83.016 102.568C82.824 102.568 82.632 102.52 82.488 102.304C82.272 101.944 81.96 101.704 81.696 101.464C81.6 101.368 81.552 101.32 81.552 101.272C81.552 101.2 81.648 101.176 81.792 101.176C87.096 101.272 90.384 98.296 90.384 95.104C90.384 93.928 89.952 92.728 89.016 91.648C88.08 90.544 86.616 89.824 85.032 89.56C85.008 89.56 85.008 89.56 85.008 89.584H84.912C84.768 89.584 84.672 89.632 84.6 89.824C84.048 91.336 81.384 97.384 79.08 100.696C78.768 101.152 78.408 101.32 78.024 101.32C77.76 101.32 77.496 101.248 77.232 101.104C75.552 100.24 74.616 98.392 74.616 96.304C74.616 94.072 75.72 91.576 78.168 89.824C79.704 88.744 81.72 88.192 83.736 88.192C86.184 88.192 88.632 89.008 90.216 90.688C91.416 91.984 91.992 93.544 91.992 95.128C91.992 98.656 89.016 102.208 83.136 102.568H83.016ZM76.128 96.184C76.128 97.504 76.632 98.656 77.496 99.304C77.616 99.376 77.712 99.424 77.808 99.424C77.928 99.424 78.048 99.352 78.144 99.232C79.992 96.664 82.392 91.24 82.968 89.488C81.576 89.608 80.208 90.088 79.008 90.952C76.992 92.44 76.128 94.456 76.128 96.184ZM105.408 104.56C105.264 104.608 105.144 104.656 105.048 104.536C104.784 104.08 104.232 103.744 103.872 103.48C103.752 103.408 103.728 103.36 103.728 103.312C103.728 103.288 103.8 103.264 103.92 103.24C108.336 102.376 111.144 99.376 112.104 96.016C110.688 96.016 109.152 96.064 107.088 96.16C107.016 96.16 106.92 96.136 106.92 95.992C106.896 95.728 106.896 95.08 106.92 94.84C106.92 94.672 106.992 94.648 107.088 94.648L108.576 94.72C108.624 93.448 108.624 92.272 108.624 91.624C108.624 90.52 108.6 89.176 108.528 88V87.928C108.528 87.784 108.552 87.736 108.816 87.76C109.896 87.808 111.384 87.832 112.488 87.832C112.464 87.112 112.464 86.464 112.464 85.984C112.464 85.312 112.416 84.544 112.32 83.896C112.32 83.848 112.296 83.8 112.296 83.776C112.296 83.68 112.344 83.656 112.488 83.656C112.8 83.68 113.592 83.776 114.072 83.944C114.264 84.016 114.312 84.088 114.312 84.184C114.312 84.352 114.168 84.52 114.072 84.688C113.928 85 113.904 85.36 113.904 85.984C113.904 86.416 113.88 87.064 113.88 87.832C114.96 87.832 116.424 87.808 117.792 87.76H117.864C118.032 87.76 118.056 87.832 118.056 88C117.96 89.44 117.96 90.928 117.96 91.672C117.96 92.296 117.96 93.4 118.032 94.744C118.632 94.72 119.28 94.672 119.976 94.648C120.072 94.648 120.12 94.672 120.144 94.816C120.168 95.056 120.168 95.704 120.144 96.016C120.144 96.112 120.024 96.16 119.976 96.16C117.696 96.04 115.824 96.016 114.264 96.016C114.984 97.912 117.048 101.632 121.08 103.072C121.2 103.12 121.248 103.168 121.248 103.192C121.248 103.24 121.176 103.288 121.056 103.36C120.648 103.552 120.072 103.888 119.76 104.224C119.688 104.272 119.64 104.296 119.568 104.296C119.52 104.296 119.448 104.272 119.352 104.224C116.064 102.472 114.024 98.824 113.28 96.928C112.176 100.264 109.488 103.12 105.408 104.56ZM100.368 99.544C100.512 97.12 100.536 93.28 100.536 91.696C100.536 89.728 100.536 87.136 100.464 85.72V85.6C100.464 85.48 100.488 85.456 100.68 85.48C101.424 85.552 102.456 85.576 103.416 85.576C104.352 85.576 104.736 85.552 106.008 85.48H106.056C106.176 85.48 106.224 85.552 106.224 85.72C106.128 86.776 106.128 88.48 106.128 89.968V91.576C106.128 93.016 106.152 96.856 106.248 98.488C106.248 98.704 106.248 98.776 106.032 98.824C105.816 98.872 105.264 98.872 105 98.848C104.856 98.824 104.736 98.776 104.736 98.632C104.736 98.32 104.76 97.864 104.76 97.336C104.448 97.336 103.896 97.312 103.416 97.312C102.888 97.312 102.264 97.336 101.904 97.336C101.928 98.176 101.928 98.944 101.952 99.568C101.952 99.76 101.904 99.784 101.688 99.832C101.544 99.856 101.28 99.856 101.064 99.856C100.872 99.856 100.728 99.856 100.632 99.832C100.416 99.808 100.344 99.76 100.368 99.544ZM101.88 91.912C101.88 92.872 101.904 94.456 101.904 96.04C102.264 96.064 102.912 96.064 103.392 96.064C103.872 96.064 104.448 96.064 104.784 96.04C104.784 94.528 104.808 92.848 104.808 91.912C104.472 91.912 103.896 91.888 103.368 91.888C102.84 91.888 102.216 91.912 101.88 91.912ZM101.904 90.616C102.24 90.64 102.864 90.64 103.368 90.64C103.848 90.64 104.448 90.64 104.784 90.616C104.784 89.152 104.76 87.232 104.76 86.8C104.64 86.8 103.92 86.776 103.368 86.776C102.792 86.776 101.904 86.8 101.904 86.8V90.616ZM109.968 91.6C109.968 92.104 109.968 93.424 110.016 94.792C110.856 94.816 111.6 94.816 112.368 94.816C112.44 94.384 112.464 93.928 112.464 93.472C112.488 92.104 112.488 90.472 112.488 89.008C111.432 89.032 110.016 89.032 110.016 89.032C110.016 89.032 109.968 90.808 109.968 91.6ZM113.76 94.816C114.6 94.816 115.512 94.816 116.568 94.792C116.592 94.096 116.592 93.4 116.592 92.824V91.576L116.568 89.032C116.568 89.032 114.936 89.008 113.88 89.008C113.856 90.496 113.856 92.152 113.856 93.472C113.856 93.928 113.808 94.384 113.76 94.816ZM136.776 104.368C136.608 104.368 136.488 104.296 136.44 104.08C136.368 103.72 136.08 103.312 135.888 103.048C135.792 102.856 135.816 102.856 136.008 102.904C136.44 103 136.824 103.048 137.136 103.048C138.24 103.048 138.84 102.544 139.152 101.608C139.368 100.96 139.464 100.312 139.464 99.64C139.464 99.256 139.44 98.872 139.368 98.488C137.856 100.432 135.48 102.472 132.096 103.552C131.976 103.6 131.88 103.6 131.832 103.48C131.664 103.216 131.208 102.808 130.92 102.616C130.752 102.52 130.752 102.448 130.944 102.4C134.376 101.704 137.28 99.448 139.008 97.072C138.864 96.712 138.696 96.328 138.528 95.992C136.8 97.816 134.448 99.52 131.952 100.36C131.928 100.384 131.88 100.384 131.856 100.384C131.784 100.384 131.736 100.36 131.688 100.288C131.544 100.024 131.04 99.64 130.8 99.496C130.68 99.424 130.656 99.328 130.824 99.28C133.632 98.632 136.344 96.832 137.952 95.032C137.736 94.744 137.496 94.456 137.256 94.192C135.912 95.296 134.088 96.472 132.096 97.144H132.024C131.952 97.144 131.88 97.12 131.832 97.048C131.664 96.736 131.208 96.52 130.968 96.352C130.824 96.232 130.8 96.184 130.968 96.136C133.8 95.368 136.464 93.688 137.4 92.44C136.416 92.464 135.408 92.488 134.784 92.488C134.808 92.68 134.808 92.872 134.808 93.04V93.112C134.808 93.184 134.76 93.208 134.64 93.208C134.376 93.232 133.776 93.232 133.56 93.208C133.416 93.208 133.344 93.136 133.368 93.04C133.464 92.08 133.488 91 133.512 90.232V89.752C133.056 90.208 132.6 90.64 132.072 91.048C131.976 91.12 131.904 91.144 131.808 91.096C131.424 90.808 130.944 90.736 130.656 90.664C130.488 90.616 130.464 90.568 130.608 90.472C133.512 88.432 135.456 85.432 136.128 83.488C136.152 83.392 136.176 83.344 136.296 83.392C136.632 83.488 137.184 83.68 137.616 83.992C137.736 84.064 137.784 84.136 137.784 84.208C137.784 84.328 137.664 84.424 137.472 84.496C137.256 84.568 137.136 84.664 136.896 85.048L136.776 85.24C138.048 85.24 139.536 85.216 139.992 85.216C140.112 85.216 140.304 85.024 140.424 85.024C140.592 85.024 141.312 85.504 141.432 85.6C141.528 85.696 141.576 85.768 141.576 85.816C141.576 85.912 141.48 86.008 141.312 86.104C141.144 86.176 141.024 86.32 140.88 86.488C140.592 86.92 140.184 87.568 139.752 88.168C141.384 88.144 143.304 88.096 144.576 88.024C144.72 88.024 144.768 88.096 144.744 88.192C144.696 88.72 144.672 89.68 144.672 90.256C144.672 90.976 144.72 91.912 144.792 92.776V92.824C144.792 92.92 144.72 92.992 144.624 92.992C144.336 93.016 143.76 93.016 143.52 92.992C143.4 92.992 143.328 92.944 143.328 92.824V92.488C142.896 92.488 142.152 92.464 141.36 92.464C141.528 93.592 141.816 94.792 142.248 95.944C143.52 95.152 144.72 94.096 145.08 93.712C145.152 93.64 145.2 93.64 145.296 93.712C145.392 93.784 145.896 94.264 146.16 94.696C146.184 94.768 146.208 94.816 146.208 94.864C146.208 95.032 145.992 95.08 145.728 95.104C145.536 95.128 145.416 95.224 145.248 95.344C144.672 95.752 143.64 96.376 142.68 96.928C143.64 98.968 145.08 100.816 147.072 102.016C147.192 102.088 147.24 102.136 147.24 102.184C147.24 102.232 147.144 102.304 147 102.352C146.664 102.496 146.016 102.712 145.728 102.976C145.632 103.072 145.512 103.072 145.44 103C142.44 100.408 140.688 96.424 140.112 92.44H139.056C139.128 92.512 139.152 92.656 139.008 92.728C138.792 92.848 138.696 92.824 138.504 93.04L138.096 93.448C139.728 95.08 140.736 97.48 140.736 99.88C140.736 100.6 140.664 101.296 140.472 101.992C140.04 103.528 138.648 104.512 136.776 104.368ZM124.728 94.192C128.208 91.072 130.536 85.696 130.8 83.968C130.8 83.872 130.824 83.776 130.896 83.776C131.088 83.776 132.048 84.232 132.504 84.52C132.648 84.616 132.744 84.712 132.744 84.808C132.744 84.928 132.624 85.024 132.408 85.144C132.144 85.264 132.024 85.336 131.928 85.6C131.568 86.44 130.92 87.808 130.104 89.296L130.44 89.416C130.56 89.464 130.632 89.56 130.632 89.656C130.632 89.752 130.56 89.872 130.44 89.992C130.224 90.256 130.224 90.352 130.224 91C130.152 93.736 129.984 98.632 129.984 101.968C129.984 102.76 129.984 103.456 130.008 104.032C130.008 104.176 129.96 104.224 129.816 104.224C129.672 104.248 129.408 104.248 129.144 104.248C128.88 104.248 128.616 104.248 128.472 104.224C128.328 104.224 128.28 104.152 128.28 104.032C128.568 101.008 128.712 95.224 128.832 91.456C128.088 92.608 127.296 93.736 126.456 94.624C126.36 94.72 126.24 94.768 126.12 94.696C125.808 94.528 125.208 94.432 124.824 94.384C124.656 94.36 124.584 94.336 124.728 94.192ZM134.76 90.232C134.76 90.544 134.76 90.952 134.784 91.408C135.552 91.408 136.992 91.432 138.192 91.432C138.216 90.712 138.24 89.872 138.216 89.2C136.752 89.2 135.144 89.224 134.76 89.224V90.232ZM134.88 88.12C136.032 88.144 137.304 88.168 138.384 88.168C138.792 87.568 139.2 86.872 139.488 86.32C138.888 86.344 137.136 86.368 136.104 86.368C135.744 86.92 135.336 87.496 134.88 88.12ZM139.488 91.432C140.808 91.432 142.584 91.408 143.376 91.408C143.4 91 143.4 90.616 143.4 90.304C143.4 89.848 143.376 89.296 143.376 89.224C143.016 89.2 141.192 89.2 139.728 89.2C139.728 89.272 139.656 89.32 139.584 89.392C139.512 89.464 139.488 89.56 139.488 89.68C139.464 90.16 139.488 90.88 139.488 91.432ZM163.656 103.72C163.128 103.72 162.624 103.672 162.192 103.6C159.792 103.144 158.232 101.704 158.232 99.976C158.232 98.296 159.696 96.304 163.272 94.672C163.272 94.528 163.248 94.384 163.248 94.264C163.128 92.944 162.408 92.392 161.496 92.392C160.392 92.392 158.976 93.208 157.992 94.408C157.296 95.248 156.672 96.256 156.168 97.048C156.096 97.168 156 97.216 155.856 97.216C155.568 97.216 154.824 96.976 154.512 96.88C154.344 96.832 154.296 96.688 154.392 96.568C156.216 94.384 158.16 92.032 159.72 89.176C159.024 89.224 158.352 89.248 157.728 89.248C157.032 89.248 156.408 89.224 155.856 89.152C155.76 89.128 155.688 89.032 155.64 88.936C155.592 88.744 155.544 87.904 155.568 87.664C155.568 87.544 155.592 87.52 155.76 87.568C156.408 87.736 157.296 87.832 158.328 87.832C158.952 87.832 159.6 87.808 160.296 87.736C160.656 86.896 160.944 86.128 161.16 85.24C161.208 85.096 161.208 85.048 161.304 85.048C161.544 85.048 162.528 85.12 162.936 85.264C163.104 85.312 163.176 85.384 163.176 85.456C163.176 85.672 162.72 85.912 162.552 86.248C162.336 86.728 162.144 87.136 161.928 87.568C163.248 87.376 164.568 87.112 165.672 86.8C165.72 86.776 165.744 86.776 165.792 86.776C165.864 86.776 165.912 86.824 165.936 86.92C165.96 87.064 166.008 87.784 166.056 88.096C166.056 88.168 166.056 88.312 165.888 88.336C164.472 88.624 162.864 88.864 161.328 89.032C160.584 90.352 160.128 91.024 159.504 91.864C159.36 92.056 159.432 92.008 159.6 91.936C160.488 91.504 161.304 91.288 162.024 91.288C163.44 91.288 164.448 92.176 164.664 94.048V94.096C166.368 93.424 169.368 92.32 170.136 91.84C170.208 91.792 170.328 91.792 170.4 91.864C170.592 92.128 171.144 92.872 171.216 93.184C171.312 93.568 170.856 93.448 170.352 93.592C168.816 94.072 166.296 94.984 164.736 95.584H164.712C164.688 96.76 164.592 98.224 164.448 99.328C164.424 99.568 164.376 99.616 164.136 99.64C163.752 99.688 163.512 99.688 163.104 99.688H163.032C162.864 99.688 162.84 99.592 162.864 99.472C163.056 98.464 163.176 97.288 163.248 96.256C160.752 97.504 159.744 98.8 159.744 99.88C159.744 101.032 160.872 101.896 162.528 102.136C162.816 102.184 163.152 102.208 163.488 102.208C164.928 102.208 166.704 101.824 167.76 101.296C167.808 101.272 167.856 101.272 167.88 101.272C167.928 101.272 167.976 101.296 167.976 101.416C167.976 101.68 167.88 102.448 167.904 102.736V102.784C167.904 102.928 167.832 103 167.664 103.072C166.8 103.432 165.144 103.72 163.656 103.72ZM196.776 104.104C196.488 104.104 196.2 104.08 195.912 104.056C194.76 103.888 194.112 103.216 194.208 101.896C194.256 100.816 194.28 98.776 194.28 97.576C194.28 97.168 194.256 96.76 194.232 96.424H193.992C193.224 96.424 192.096 96.448 191.472 96.472V96.856C191.472 97.024 191.472 97.072 191.28 97.072C191.16 97.096 190.92 97.096 190.68 97.096C190.512 97.096 190.344 97.096 190.248 97.072C190.08 97.048 190.008 97.072 190.032 96.832C190.176 94.408 190.176 91.84 190.176 90.328C190.176 88.504 190.152 86.56 190.08 84.688V84.544C190.08 84.424 190.128 84.4 190.344 84.424C191.688 84.472 192.936 84.52 194.016 84.52C195.12 84.52 196.032 84.496 197.64 84.4C197.832 84.4 197.88 84.472 197.88 84.664C197.784 86.488 197.76 88.96 197.76 90.496C197.76 91.864 197.784 94.168 197.904 96.616V96.712C197.904 96.856 197.88 96.904 197.64 96.952C197.52 96.976 197.304 96.976 197.088 96.976C196.92 96.976 196.776 96.976 196.68 96.952C196.488 96.928 196.416 96.904 196.44 96.736V96.472C196.224 96.448 195.96 96.448 195.672 96.448C195.744 96.448 195.792 96.472 195.816 96.472C195.96 96.52 196.032 96.568 196.032 96.64C196.032 96.712 195.912 96.808 195.816 96.856C195.648 96.976 195.648 97.144 195.624 97.48C195.576 98.56 195.552 100.792 195.552 101.632C195.552 102.568 195.984 102.664 196.872 102.664C197.256 102.664 197.688 102.616 198.024 102.544C198.648 102.4 198.912 101.728 198.936 99.928C198.936 99.76 199.008 99.76 199.08 99.856C199.32 100.24 199.8 100.672 200.256 100.912C200.376 100.984 200.4 101.032 200.352 101.248C200.064 102.976 199.536 103.816 198.312 103.984C197.808 104.056 197.28 104.104 196.776 104.104ZM179.472 85.696C179.448 85.504 179.448 84.808 179.472 84.592C179.472 84.424 179.568 84.4 179.664 84.4C180.72 84.496 182.976 84.52 183.648 84.52C184.512 84.496 186.84 84.472 187.68 84.4H187.776C187.944 84.4 187.92 84.448 187.92 84.616C187.824 85.864 187.824 87.064 187.824 88.888V91.408C187.824 94.696 187.824 96.856 187.92 99.472C188.016 101.56 186.624 102.328 184.728 102.352H184.68C184.56 102.352 184.488 102.28 184.44 102.136C184.32 101.8 183.864 101.296 183.528 100.888C183.504 100.864 183.48 100.816 183.48 100.792C183.48 100.744 183.576 100.72 183.72 100.744C184.104 100.792 184.464 100.816 184.776 100.816C185.832 100.816 186.48 100.48 186.48 99.376V91.336C186.48 88.504 186.504 86.008 186.504 85.744H183.672C183.024 85.744 180.768 85.768 179.664 85.84H179.592C179.52 85.84 179.472 85.816 179.472 85.696ZM179.664 88.768V87.808C179.688 87.616 179.784 87.616 179.856 87.616C181.056 87.712 181.704 87.712 182.424 87.712C183.168 87.712 183.84 87.712 185.016 87.592C185.064 87.592 185.16 87.64 185.184 87.76C185.208 88.048 185.208 88.528 185.184 88.792C185.16 88.888 185.064 88.936 185.016 88.936C183.864 88.84 183.216 88.816 182.424 88.816C181.68 88.816 181.008 88.84 179.832 88.936C179.784 88.936 179.688 88.912 179.664 88.768ZM179.976 98.68C180.072 97.096 180.096 94.432 180.096 93.736C180.096 92.896 180.096 91.84 180.024 90.856V90.784C180.024 90.664 180.048 90.64 180.264 90.664C180.96 90.712 181.752 90.736 182.424 90.736C183.072 90.736 183.648 90.736 184.512 90.64H184.584C184.728 90.64 184.776 90.712 184.752 90.88C184.704 91.84 184.68 92.992 184.68 93.664C184.68 94.264 184.68 96.184 184.776 97.672V97.744C184.776 97.888 184.752 97.912 184.512 97.936C184.32 97.96 183.912 97.96 183.696 97.936C183.552 97.936 183.408 97.936 183.408 97.792C183.408 97.48 183.408 97.144 183.432 96.784C183.096 96.76 182.688 96.76 182.4 96.76C182.088 96.76 181.68 96.76 181.344 96.784C181.344 97.48 181.368 98.176 181.368 98.728C181.368 98.896 181.32 98.92 181.104 98.944H180.216C180 98.92 179.952 98.872 179.976 98.68ZM181.32 93.712C181.32 93.952 181.32 94.744 181.344 95.656C181.68 95.68 182.088 95.68 182.376 95.68C182.664 95.68 183.12 95.656 183.456 95.656C183.456 94.744 183.48 93.928 183.48 93.688C183.48 93.016 183.456 91.84 183.456 91.84H181.344C181.344 91.84 181.32 92.968 181.32 93.712ZM184.656 103.288C184.656 103.24 184.728 103.24 184.848 103.216C189.624 102.976 191.256 100.12 191.688 98.296C191.856 97.744 191.928 97.192 191.928 96.64C191.928 96.496 191.904 96.448 192.072 96.472C192.384 96.544 193.008 96.712 193.488 96.976C193.632 97.024 193.704 97.12 193.704 97.192C193.704 97.288 193.632 97.384 193.464 97.456C193.176 97.6 193.224 97.912 192.912 98.872C192.216 101.128 190.488 103.792 186.288 104.56C186.192 104.584 186.072 104.608 186 104.488C185.736 104.032 185.16 103.72 184.824 103.456C184.704 103.36 184.656 103.312 184.656 103.288ZM191.424 91.6L193.968 91.624C194.712 91.624 195.912 91.6 196.488 91.576V89.296C195.912 89.272 194.784 89.248 193.992 89.248C193.176 89.248 192.024 89.272 191.424 89.296V91.6ZM191.448 95.32L193.968 95.344C194.688 95.344 195.864 95.32 196.464 95.296C196.464 94.504 196.488 93.616 196.488 92.824C195.912 92.8 194.784 92.776 193.992 92.776C193.176 92.776 192.024 92.8 191.448 92.824V95.32ZM191.448 88.12C192.048 88.144 193.224 88.168 193.968 88.168C194.712 88.168 195.888 88.12 196.488 88.12C196.464 86.896 196.464 85.696 196.464 85.696C196.464 85.696 194.856 85.672 193.992 85.672C193.128 85.672 191.472 85.696 191.472 85.696C191.472 85.696 191.448 86.896 191.448 88.12ZM215.616 103.48C214.584 103.48 213.408 103.36 212.256 103C210.048 102.352 208.824 100.864 208.824 99.496C208.824 98.344 209.664 97.24 211.56 96.76C212.856 96.424 214.272 96.328 215.52 96.328C216.864 96.328 218.04 96.424 218.736 96.496C218.28 95.752 217.704 94.672 217.128 93.472C215.304 93.856 213.384 94.072 211.608 94.072C210.624 94.072 209.664 94 208.824 93.856C208.728 93.832 208.656 93.736 208.608 93.616C208.536 93.4 208.512 92.68 208.536 92.44C208.536 92.296 208.584 92.272 208.776 92.32C209.712 92.56 210.768 92.656 211.872 92.656C213.384 92.656 214.968 92.464 216.504 92.152C216.168 91.408 215.832 90.64 215.52 89.872C214.416 90.088 213.288 90.208 212.16 90.208C211.224 90.208 210.288 90.112 209.4 89.92C209.28 89.896 209.208 89.8 209.184 89.704C209.136 89.488 209.136 88.768 209.16 88.528C209.16 88.408 209.208 88.384 209.376 88.432C210.36 88.72 211.368 88.84 212.4 88.84C213.288 88.84 214.176 88.744 215.016 88.576C214.608 87.472 214.272 86.416 214.08 85.456C214.032 85.288 213.984 85.24 214.152 85.192C214.536 85.096 215.016 85.072 215.496 85.072C215.832 85.072 215.928 85.144 215.928 85.288C215.928 85.456 215.784 85.72 215.808 86.032C215.904 86.704 216.096 87.472 216.336 88.264C217.248 88 218.112 87.664 218.904 87.28C218.928 87.256 218.952 87.256 219 87.256C219.072 87.256 219.12 87.304 219.168 87.4C219.288 87.568 219.648 88 219.744 88.312V88.384C219.744 88.432 219.72 88.528 219.624 88.552C218.784 88.936 217.824 89.296 216.792 89.56C217.08 90.328 217.392 91.096 217.752 91.864C219.072 91.504 220.272 91.072 221.256 90.568C221.304 90.544 221.352 90.544 221.376 90.544C221.448 90.544 221.496 90.592 221.568 90.664C221.712 90.856 222.096 91.312 222.192 91.624C222.216 91.648 222.216 91.672 222.216 91.696C222.216 91.744 222.168 91.84 222.072 91.888C221.016 92.368 219.744 92.8 218.4 93.16C219.384 95.08 220.488 96.832 221.376 97.96C221.448 98.032 221.448 98.104 221.352 98.176C221.064 98.344 220.56 98.56 220.224 98.632C220.2 98.632 220.176 98.656 220.152 98.656C220.056 98.656 219.984 98.584 219.912 98.536C219.624 98.32 219.408 98.128 218.328 97.912C217.56 97.768 216.48 97.648 215.328 97.648C214.296 97.648 213.216 97.744 212.28 97.984C211.032 98.296 210.456 98.92 210.456 99.592C210.456 100.384 211.272 101.248 212.664 101.608C213.552 101.848 214.488 101.944 215.424 101.944C216.648 101.944 217.872 101.776 218.952 101.512C219 101.488 219.048 101.488 219.072 101.488C219.168 101.488 219.168 101.536 219.12 101.68C219 102.016 218.88 102.448 218.784 102.832C218.736 103.048 218.664 103.12 218.352 103.216C217.776 103.336 216.792 103.48 215.616 103.48ZM232.344 104.704C232.224 104.728 232.104 104.752 232.032 104.632C231.72 104.152 231.192 103.792 230.88 103.504C230.76 103.408 230.736 103.36 230.736 103.336C230.736 103.288 230.808 103.288 230.928 103.264C235.608 102.976 238.056 99.808 238.68 97.984C238.92 97.384 239.04 96.784 239.112 96.208C239.136 96.16 239.136 96.136 239.136 96.112C238.416 96.112 237.744 96.136 237.288 96.136C237.288 96.424 237.312 96.736 237.312 97C237.312 97.168 237.264 97.216 237.096 97.216C236.928 97.24 236.712 97.24 236.472 97.24C236.256 97.24 236.04 97.24 235.896 97.216C235.728 97.216 235.656 97.144 235.656 97.024C235.824 95.104 235.872 92.224 235.872 90.472C235.872 88.576 235.848 86.416 235.728 84.448C235.728 84.328 235.8 84.256 235.944 84.256C237.84 84.352 240.096 84.376 241.68 84.376C243.408 84.376 245.304 84.352 247.224 84.232H247.272C247.44 84.232 247.488 84.328 247.488 84.448C247.392 86.32 247.368 88.792 247.368 90.448C247.368 91.984 247.44 94.816 247.56 96.808C247.56 96.928 247.464 97.024 247.32 97.048C246.936 97.072 246.432 97.072 246.144 97.048C245.976 97.024 245.904 96.976 245.904 96.808C245.928 96.592 245.928 96.376 245.928 96.136C245.496 96.136 244.776 96.112 243.984 96.112C244.056 96.136 244.08 96.184 244.08 96.208C244.08 96.28 244.032 96.352 243.936 96.448C243.744 96.616 243.744 96.664 243.744 96.928C243.648 98.008 243.624 100.504 243.624 101.368C243.624 102.112 243.936 102.496 244.944 102.616C245.376 102.664 245.976 102.688 246.576 102.688C247.512 102.688 248.52 102.616 249.12 102.496C250.104 102.28 250.416 101.512 250.512 99.76C250.512 99.616 250.584 99.64 250.656 99.712C250.944 100.096 251.52 100.672 252.024 100.912C252.144 100.984 252.168 101.056 252.144 101.248C251.856 102.832 251.208 103.768 249.216 103.984C248.4 104.08 247.416 104.128 246.48 104.128C245.832 104.128 245.184 104.104 244.608 104.032C242.52 103.792 242.064 103.048 242.136 101.656C242.184 100.72 242.232 98.848 242.256 97.624C242.256 97.12 242.256 96.544 242.208 96.088H241.632C240.984 96.088 240.24 96.088 239.544 96.112C239.904 96.208 240.48 96.4 240.888 96.64C240.984 96.688 241.032 96.76 241.032 96.808C241.032 96.904 240.888 97.024 240.744 97.12C240.456 97.312 240.24 97.888 240 98.536C239.16 100.84 236.76 103.648 232.344 104.704ZM237.216 92.56C237.24 93.28 237.24 94.096 237.264 94.912C238.272 94.936 240.24 94.96 241.656 94.96C243.144 94.96 245.112 94.912 245.976 94.912C246 94.096 246 93.28 246.024 92.56C245.16 92.536 243.168 92.512 241.656 92.512C240.216 92.512 238.224 92.536 237.216 92.56ZM237.216 91.336C238.224 91.36 240.216 91.384 241.656 91.384C243.168 91.384 245.16 91.336 246.024 91.336V89.176C245.16 89.176 243.168 89.128 241.656 89.128C240.216 89.128 238.2 89.152 237.216 89.176V91.336ZM237.216 87.952C238.224 87.976 240.216 88 241.656 88C243.144 88 245.136 87.952 246 87.952C245.976 86.704 245.976 85.6 245.976 85.6C245.976 85.6 243.24 85.552 241.68 85.552C240.12 85.552 237.24 85.6 237.24 85.6C237.24 85.6 237.24 86.704 237.216 87.952ZM267.624 103.048C266.496 103.048 265.392 102.832 264.576 102.376C263.472 101.776 262.992 100.888 262.992 100.072C262.992 98.92 264 97.84 265.68 97.84C267.624 97.84 269.256 99.304 269.016 101.608C269.904 101.44 270.744 101.128 271.392 100.648C272.712 99.688 273.456 98.344 273.456 97.072C273.456 95.968 272.904 94.912 271.632 94.24C270.96 93.88 270.048 93.688 269.112 93.688C267.48 93.688 265.704 94.192 264.528 95.152C263.4 96.064 262.488 96.952 261.744 97.672C261.672 97.744 261.6 97.744 261.504 97.672C261.288 97.552 260.592 96.976 260.424 96.784C260.352 96.688 260.4 96.592 260.448 96.544C263.064 94.528 268.92 88.912 269.544 88.096C269.688 87.928 269.64 87.928 269.448 87.976C267.672 88.504 264.96 88.864 263.352 89.008H263.232C263.112 89.008 263.064 88.984 262.992 88.84C262.872 88.624 262.632 87.832 262.608 87.616V87.52C262.608 87.4 262.656 87.328 262.848 87.376C263.064 87.4 263.328 87.4 263.616 87.4C265.728 87.4 269.592 86.848 270.552 86.416C270.624 86.368 270.672 86.368 270.72 86.368C270.816 86.368 270.888 86.392 270.984 86.464C271.2 86.584 271.824 86.992 272.112 87.28C272.184 87.352 272.208 87.424 272.208 87.472C272.208 87.688 271.848 87.832 271.728 87.952C271.248 88.408 267.84 91.744 266.784 92.752C266.616 92.896 266.616 93.016 266.856 92.92C267.6 92.632 268.632 92.464 269.664 92.464C270.6 92.464 271.536 92.608 272.28 92.968C274.104 93.808 275.064 95.368 275.064 97.072C275.064 98.68 274.176 100.408 272.376 101.704C271.128 102.568 269.328 103.048 267.624 103.048ZM264.432 100.096C264.432 100.504 264.72 100.984 265.296 101.272C265.896 101.584 266.712 101.752 267.576 101.752C267.6 101.56 267.624 101.368 267.624 101.2C267.624 99.808 266.688 99.064 265.752 99.064C264.888 99.064 264.432 99.544 264.432 100.096Z" fill="#282828"/>
<path d="M59.568 145.392C59.328 145.392 59.088 145.368 58.896 145.368C58.752 145.344 58.728 145.296 58.728 145.152L58.872 140.52C58.104 140.544 57.192 140.592 55.896 140.712C55.8 140.712 55.704 140.664 55.68 140.52C55.656 140.256 55.656 139.632 55.68 139.368C55.704 139.176 55.776 139.176 55.896 139.176C57.264 139.296 58.104 139.32 58.896 139.344C58.944 136.968 58.968 134.688 58.968 133.008C57.624 136.176 55.608 139.344 53.064 141.744C52.992 141.816 52.92 141.864 52.824 141.864C52.776 141.864 52.728 141.84 52.656 141.792C52.296 141.504 51.888 141.384 51.48 141.264C51.48 142.8 51.48 144.168 51.528 145.128C51.528 145.248 51.48 145.32 51.36 145.32C51.216 145.344 50.928 145.344 50.64 145.344C50.352 145.344 50.088 145.344 49.92 145.32C49.776 145.32 49.704 145.248 49.728 145.104C49.968 142.08 50.16 136.2 50.256 132.384C49.392 133.56 48.384 134.76 47.256 135.792C47.16 135.888 47.04 135.888 46.944 135.816C46.656 135.576 46.008 135.336 45.648 135.24C45.48 135.168 45.432 135.144 45.6 135.024C49.392 132.312 51.912 127.032 52.176 125.616C52.176 125.52 52.2 125.448 52.344 125.496C52.632 125.568 53.64 126 54.072 126.288C54.192 126.36 54.264 126.432 54.264 126.504C54.264 126.624 54.12 126.744 53.856 126.84C53.568 126.936 53.472 127.032 53.328 127.296C52.968 127.968 52.416 129.048 51.648 130.296C51.744 130.32 51.84 130.368 51.912 130.392C52.08 130.464 52.128 130.536 52.128 130.608C52.128 130.704 52.056 130.824 51.936 130.944C51.72 131.208 51.72 131.352 51.696 131.856C51.648 134.016 51.528 137.688 51.504 140.808C54.744 138.456 57.192 134.208 58.368 131.616C56.808 131.616 55.44 131.664 53.496 131.784C53.352 131.784 53.256 131.76 53.232 131.592C53.208 131.304 53.208 130.656 53.232 130.368C53.256 130.176 53.304 130.152 53.496 130.176C55.608 130.296 57.168 130.368 58.968 130.392C58.968 128.544 58.92 126.576 58.728 125.112C58.68 124.944 58.704 124.944 58.848 124.944C59.208 124.992 60.12 125.16 60.672 125.328C60.84 125.376 60.888 125.472 60.888 125.568C60.888 125.808 60.552 126.168 60.456 126.528C60.288 127.248 60.216 128.832 60.168 130.392C62.088 130.368 64.128 130.296 66.552 130.176C66.696 130.176 66.744 130.248 66.768 130.392C66.768 130.656 66.792 131.304 66.768 131.616C66.744 131.736 66.648 131.784 66.552 131.784C64.248 131.664 62.424 131.64 60.672 131.616C61.968 134.256 64.704 138.384 68.16 140.352C68.28 140.424 68.328 140.472 68.328 140.496C68.328 140.568 68.232 140.616 68.088 140.664C67.584 140.832 67.056 141 66.672 141.312C66.6 141.36 66.552 141.384 66.48 141.384C66.408 141.384 66.336 141.336 66.264 141.264C63.912 139.272 61.416 135.84 60.168 132.816C60.168 134.496 60.216 136.944 60.264 139.344C61.056 139.32 61.848 139.296 63.216 139.176C63.312 139.176 63.36 139.248 63.36 139.368C63.384 139.608 63.384 140.304 63.36 140.544C63.36 140.664 63.288 140.712 63.216 140.712C61.92 140.592 61.128 140.544 60.312 140.52C60.336 142.296 60.384 143.952 60.408 145.152C60.408 145.272 60.36 145.344 60.24 145.344C60.048 145.368 59.808 145.392 59.568 145.392ZM82.08 145.464C82.008 145.464 81.936 145.416 81.864 145.32C81.648 145.056 81.072 144.72 80.712 144.504C80.616 144.456 80.592 144.432 80.592 144.384C80.592 144.36 80.664 144.312 80.76 144.288C83.88 143.568 86.112 141.288 86.808 138.288C86.112 138.312 85.2 138.312 84.744 138.312V139.176C84.744 139.296 84.696 139.32 84.504 139.344C84.408 139.368 84.264 139.368 84.12 139.368C83.904 139.368 83.688 139.368 83.568 139.344C83.352 139.344 83.28 139.296 83.304 139.08C83.424 137.904 83.472 136.464 83.472 135.912C83.472 135.336 83.496 134.64 83.4 133.752V133.632C83.4 133.536 83.448 133.512 83.64 133.536C84.48 133.584 85.992 133.632 87.12 133.632C87.096 132.888 87.072 132.192 87.024 131.688C86.52 131.712 85.872 131.736 84.936 131.808C84.888 131.808 84.792 131.76 84.768 131.64C84.744 131.472 84.744 131.16 84.768 130.92C84.168 131.616 83.52 132.288 82.8 132.888C82.728 132.96 82.584 133.032 82.488 132.936C82.272 132.744 81.624 132.504 81.36 132.408C81.312 132.408 81.288 132.384 81.264 132.384V132.432C81.288 132.648 81.288 133.224 81.264 133.488C81.264 133.608 81.168 133.608 81.096 133.608C80.04 133.512 79.344 133.512 78.672 133.488C78.672 134.352 78.696 135.168 78.696 135.864C79.752 135.84 80.976 135.816 81.912 135.744C82.056 135.744 82.08 135.768 82.08 135.888C81.912 137.112 81.768 140.952 80.976 142.752C80.328 144.216 79.488 144.888 77.616 144.84C77.448 144.84 77.352 144.84 77.328 144.696C77.232 144.288 76.824 143.808 76.56 143.424C76.44 143.28 76.512 143.256 76.632 143.256C77.136 143.352 77.544 143.376 77.88 143.376C78.984 143.376 79.416 142.968 79.752 142.248C80.4 140.928 80.64 137.904 80.664 136.896C80.304 136.872 78.984 136.896 78.168 136.896C77.352 136.896 76.416 136.896 75.504 136.92C75.504 137.088 75.504 137.256 75.528 137.424C75.528 137.616 75.504 137.64 75.288 137.664C75.192 137.688 75 137.688 74.808 137.688C74.616 137.688 74.448 137.688 74.352 137.664C74.136 137.64 74.088 137.616 74.112 137.4C74.232 135.6 74.232 133.872 74.232 132.384V129.48C74.232 128.064 74.208 126.888 74.16 125.904C74.16 125.736 74.16 125.688 74.376 125.712C75.624 125.832 76.704 125.832 77.976 125.832C79.008 125.832 79.92 125.808 81.672 125.64C81.744 125.64 81.84 125.688 81.84 125.808C81.864 126.048 81.864 126.696 81.84 126.984C81.84 127.104 81.744 127.128 81.672 127.104C80.52 127.008 79.656 126.96 78.96 126.96C78.96 127.032 78.888 127.104 78.816 127.2C78.672 127.32 78.672 127.44 78.672 127.68C78.672 128.136 78.648 128.616 78.648 129.12C79.344 129.12 79.992 129.096 81.096 129C81.192 129 81.264 129.024 81.264 129.168C81.288 129.384 81.288 129.96 81.264 130.224C81.264 130.344 81.168 130.344 81.096 130.344C80.04 130.272 79.32 130.248 78.648 130.224C78.648 130.92 78.648 131.664 78.672 132.384C79.344 132.384 80.016 132.36 81.096 132.288C81.12 132.264 81.168 132.264 81.192 132.288C81.216 132.264 81.24 132.216 81.312 132.192C83.736 130.752 85.824 127.464 86.616 125.856C86.808 125.448 86.976 124.968 87 124.632C87.024 124.536 87.048 124.44 87.144 124.44C87.36 124.44 88.104 124.68 88.56 124.92C88.68 124.992 88.752 125.04 88.752 125.112C88.752 125.208 88.584 125.328 88.392 125.424C88.368 125.424 88.32 125.472 88.272 125.52C89.472 127.824 92.304 130.392 94.8 131.472C94.872 131.496 94.896 131.52 94.896 131.544C94.896 131.616 94.776 131.688 94.704 131.712C94.368 131.832 93.744 132.168 93.456 132.432C93.36 132.504 93.24 132.504 93.144 132.456C92.376 131.952 91.608 131.352 90.912 130.704C90.936 130.992 90.936 131.424 90.912 131.664C90.912 131.784 90.792 131.808 90.72 131.808C89.952 131.736 89.304 131.712 88.752 131.712C88.776 131.736 88.776 131.76 88.776 131.784C88.776 131.832 88.704 131.904 88.608 131.952C88.464 132.024 88.44 132.336 88.44 132.84C88.416 133.008 88.416 133.296 88.416 133.632C89.496 133.632 90.888 133.584 92.016 133.536H92.088C92.208 133.536 92.256 133.608 92.256 133.752C92.16 134.808 92.184 135.384 92.184 135.936C92.184 136.464 92.184 137.904 92.256 138.84V138.912C92.256 139.056 92.232 139.08 91.992 139.128C91.752 139.152 91.368 139.152 91.128 139.128C90.984 139.104 90.84 139.128 90.84 138.912C90.864 138.72 90.864 138.528 90.864 138.312C90.36 138.312 89.352 138.312 88.56 138.288C89.184 139.872 91.128 142.92 94.752 144.168C94.872 144.216 94.92 144.264 94.92 144.288C94.92 144.336 94.872 144.384 94.752 144.456C94.368 144.648 93.768 144.888 93.456 145.224C93.408 145.272 93.36 145.296 93.312 145.296C93.24 145.296 93.192 145.272 93.12 145.224C90.432 143.832 88.68 141.24 87.816 139.464C86.928 142.2 84.936 144.432 82.248 145.416C82.176 145.44 82.128 145.464 82.08 145.464ZM72.192 142.728C72.888 141.744 73.608 139.608 73.608 138.576C73.608 138.456 73.656 138.456 73.656 138.456C73.656 138.48 74.4 138.552 74.712 138.648C74.88 138.72 74.952 138.792 74.952 138.864C74.952 138.936 74.88 139.032 74.76 139.128C74.664 139.224 74.64 139.272 74.592 139.536C74.472 140.448 73.872 142.464 73.44 143.136C73.392 143.208 73.32 143.232 73.248 143.184C72.96 142.992 72.504 142.944 72.24 142.92C72.12 142.896 72.096 142.848 72.192 142.728ZM75.36 138.744C75.336 138.672 75.36 138.6 75.432 138.576C75.552 138.528 76.008 138.432 76.176 138.432C76.224 138.432 76.272 138.432 76.296 138.576C76.488 139.368 76.68 140.52 76.728 141.576C76.728 141.696 76.728 141.792 76.608 141.816C76.464 141.864 76.032 141.984 75.768 141.984C75.696 141.984 75.648 141.912 75.648 141.816C75.672 140.856 75.48 139.512 75.36 138.744ZM75.48 135.864H77.52C77.52 135.216 77.544 134.4 77.544 133.488C76.896 133.488 76.32 133.512 75.48 133.512V135.864ZM75.48 132.36C76.272 132.36 76.92 132.384 77.544 132.384V130.224H75.48V132.36ZM75.48 129.096C76.296 129.12 76.92 129.12 77.544 129.12C77.544 128.304 77.544 127.56 77.52 126.936C76.848 126.936 76.248 126.96 75.504 126.96C75.504 127.224 75.48 128.04 75.48 129.096ZM76.92 138.48C76.896 138.408 76.872 138.336 76.944 138.288C77.088 138.192 77.448 138.048 77.592 138.024C77.664 138 77.688 138.024 77.736 138.096C78.048 138.696 78.408 139.512 78.672 140.472C78.696 140.592 78.72 140.688 78.624 140.736C78.48 140.856 78.096 141 77.904 141.048C77.856 141.072 77.784 141.096 77.76 141C77.592 140.184 77.184 139.08 76.92 138.48ZM78.408 137.928C78.36 137.88 78.36 137.808 78.408 137.736C78.504 137.64 78.816 137.448 78.912 137.4C78.96 137.376 78.984 137.352 79.056 137.4C79.32 137.664 80.016 138.6 80.28 139.248C80.328 139.344 80.328 139.416 80.256 139.512C80.112 139.656 79.872 139.8 79.704 139.92C79.632 139.944 79.584 139.944 79.536 139.848C79.248 139.104 78.744 138.384 78.408 137.928ZM84.72 137.184C85.224 137.184 86.28 137.208 87 137.208C87.024 137.064 87.024 136.896 87.048 136.752C87.072 136.368 87.096 135.576 87.12 134.688C86.184 134.688 84.744 134.712 84.744 134.712C84.744 134.712 84.72 135.36 84.72 135.888V137.184ZM85.104 130.512C86.472 130.608 87.24 130.608 87.768 130.608C88.32 130.608 89.304 130.584 90.672 130.488C89.376 129.24 88.272 127.848 87.6 126.72C87.096 127.68 86.232 129.12 85.104 130.512ZM88.296 137.208C89.112 137.208 90.36 137.184 90.888 137.184C90.912 136.584 90.912 136.08 90.912 135.864C90.912 135.36 90.888 134.712 90.888 134.712C90.888 134.712 89.424 134.688 88.392 134.688C88.368 135.624 88.344 136.584 88.32 136.848C88.32 136.968 88.296 137.088 88.296 137.208ZM100.92 138.648C100.824 138.696 100.728 138.672 100.656 138.6C100.224 138.168 99.696 138.048 99.312 137.904C99.168 137.856 99.216 137.76 99.312 137.712C102.192 136.656 103.008 134.376 103.224 132.168C102.408 132.192 101.472 132.24 100.344 132.288C100.248 132.288 100.152 132.264 100.152 132.12C100.128 131.88 100.128 131.28 100.152 131.04C100.152 130.872 100.224 130.848 100.32 130.848C101.544 130.944 102.48 130.968 103.296 130.992C103.32 130.536 103.32 130.08 103.32 129.672C103.296 129.48 103.296 128.088 103.296 127.416L101.064 127.488H101.016C100.968 127.488 100.896 127.44 100.896 127.344C100.872 127.104 100.872 126.528 100.896 126.312C100.896 126.144 100.968 126.12 101.064 126.12C102.696 126.216 104.328 126.264 105.792 126.264C107.088 126.264 108.84 126.216 110.568 126.096C110.664 126.096 110.736 126.12 110.76 126.264C110.784 126.504 110.76 127.08 110.76 127.368C110.736 127.488 110.64 127.512 110.568 127.512C109.92 127.464 109.32 127.44 108.72 127.416C108.72 127.464 108.648 127.536 108.552 127.656C108.432 127.728 108.408 127.896 108.384 128.28V130.992C109.296 130.968 110.328 130.92 111.408 130.848C111.504 130.848 111.576 130.896 111.6 131.016C111.624 131.256 111.624 131.856 111.6 132.144C111.576 132.264 111.504 132.288 111.432 132.288C110.328 132.216 109.32 132.192 108.384 132.168C108.408 133.896 108.456 135.672 108.552 137.664C108.552 137.784 108.48 137.856 108.36 137.856C108.192 137.88 107.928 137.88 107.664 137.88C107.4 137.88 107.16 137.88 107.04 137.856C106.896 137.832 106.872 137.784 106.872 137.664C106.968 135.744 107.016 133.896 107.04 132.144H104.592C104.376 134.664 103.608 137.208 100.92 138.648ZM100.08 144.816C100.056 144.552 100.056 143.904 100.08 143.616C100.104 143.424 100.104 143.424 100.296 143.424C104.592 143.616 106.8 143.616 109.104 143.616V140.928C107.16 140.928 106.152 140.952 102.792 141.096C102.648 141.096 102.6 141.048 102.6 140.928C102.576 140.664 102.576 140.016 102.6 139.776C102.624 139.632 102.6 139.584 102.792 139.584C106.224 139.752 107.088 139.752 109.104 139.752C109.08 138.888 109.032 137.976 108.912 137.376C108.888 137.256 108.888 137.232 108.96 137.232C109.248 137.232 110.208 137.352 110.808 137.52C111 137.568 111.048 137.664 111.048 137.736C111.048 137.88 110.952 138 110.832 138.12C110.688 138.288 110.64 138.48 110.616 138.864C110.592 139.104 110.592 139.416 110.568 139.752C112.344 139.752 113.568 139.728 116.736 139.584C116.88 139.584 116.88 139.656 116.904 139.752C116.928 140.04 116.928 140.664 116.904 140.928C116.88 141.024 116.832 141.096 116.736 141.096C113.616 140.976 112.272 140.928 110.568 140.928V143.616C112.8 143.616 115.368 143.592 119.352 143.424C119.496 143.424 119.52 143.472 119.544 143.616C119.568 143.928 119.568 144.576 119.544 144.864C119.52 144.984 119.448 145.032 119.352 145.032C114.984 144.864 112.008 144.864 109.656 144.864H108.168C106.128 144.864 103.92 144.888 100.32 145.032C100.152 145.032 100.104 144.984 100.08 144.816ZM104.664 131.016H105.744C106.152 131.016 106.584 131.016 107.04 130.992V127.392C106.608 127.368 106.176 127.368 105.792 127.368H104.952V127.416C104.952 127.488 104.88 127.56 104.808 127.632C104.712 127.704 104.664 127.872 104.664 128.088V131.016ZM112.536 126.528V126.456C112.536 126.384 113.592 126.48 114.264 126.672C114.408 126.72 114.48 126.768 114.48 126.84C114.48 126.96 114.36 127.104 114.264 127.248C114.096 127.512 114.096 127.824 114.072 128.184C114.048 129.144 114.048 129.984 114.048 130.512C114.048 131.856 114.096 133.128 114.192 134.568C114.192 134.64 114.144 134.712 114.048 134.712C113.688 134.736 113.136 134.736 112.776 134.712C112.632 134.688 112.608 134.64 112.608 134.544C112.728 132.84 112.752 131.832 112.752 130.512V129.6C112.752 128.712 112.728 127.752 112.536 126.528ZM113.808 136.848C113.808 136.8 113.88 136.776 114.024 136.8C114.384 136.848 114.792 136.872 115.2 136.872C116.088 136.872 116.928 136.68 116.952 135.864C116.976 135.024 116.976 134.256 116.976 133.56C116.976 132.192 116.952 131.16 116.952 130.44C116.952 129.024 116.952 126.744 116.688 125.328C116.688 125.208 116.712 125.208 116.832 125.208C117.168 125.232 118.08 125.376 118.608 125.52C118.752 125.568 118.8 125.616 118.8 125.712C118.8 125.832 118.68 126 118.584 126.144C118.392 126.432 118.392 126.768 118.368 127.2C118.344 127.848 118.344 128.544 118.344 129.12V130.44C118.344 131.736 118.368 133.968 118.44 136.248C118.464 137.4 117.36 138.36 115.128 138.36C114.936 138.36 114.792 138.336 114.744 138.168C114.648 137.856 114.216 137.352 113.856 136.944C113.808 136.896 113.808 136.872 113.808 136.848ZM138.192 135.504C138.144 135.504 138.072 135.48 138 135.384C137.784 135.12 137.304 134.952 137.064 134.808C136.944 134.736 136.944 134.64 137.064 134.568C139.296 133.2 141.24 131.016 142.224 129.504C142.248 129.456 142.272 129.432 142.272 129.384C142.272 129.336 142.224 129.288 142.104 129.288C141.144 129.288 138.144 129.336 136.32 129.36C134.4 129.384 130.608 129.48 128.856 129.624C128.688 129.624 128.568 129.576 128.568 129.432C128.52 129 128.496 128.304 128.52 127.944C128.544 127.776 128.664 127.752 128.76 127.752C131.088 127.944 133.464 127.944 136.32 127.944C138.312 127.944 142.464 127.896 143.208 127.656C143.448 127.56 143.52 127.464 143.712 127.608C143.904 127.704 144.528 128.208 144.792 128.496C144.912 128.616 144.984 128.712 144.984 128.808C144.984 129.048 144.48 129.144 144.216 129.504C143.088 131.112 141.024 133.752 138.432 135.408C138.336 135.48 138.264 135.504 138.192 135.504ZM127.368 143.472C127.368 143.4 127.416 143.352 127.512 143.304C132.408 140.784 134.472 135.936 134.736 132.96C134.76 132.384 134.784 132 134.76 131.472C134.76 131.28 134.784 131.256 135 131.256C135.288 131.28 136.464 131.448 136.944 131.616C137.16 131.688 137.28 131.808 137.28 131.928C137.28 132.072 137.16 132.216 136.92 132.408C136.68 132.576 136.512 132.912 136.44 133.32C135.96 136.392 134.088 141.216 129.528 144.288C129.432 144.336 129.36 144.36 129.288 144.36C129.192 144.36 129.096 144.336 129.024 144.264C128.52 143.88 127.824 143.736 127.512 143.592C127.416 143.568 127.368 143.52 127.368 143.472ZM151.749 136.152C151.605 136.152 151.509 136.128 151.509 135.984C151.485 135.552 151.485 134.808 151.509 134.496C151.533 134.304 151.557 134.28 151.749 134.304C154.653 134.472 156.645 134.496 158.133 134.496H161.205C162.741 134.496 164.925 134.472 167.757 134.304H167.805C167.925 134.304 167.949 134.376 167.949 134.496C167.973 134.688 167.973 134.976 167.973 135.264C167.973 135.528 167.973 135.816 167.949 135.984C167.949 136.104 167.901 136.152 167.757 136.152C163.869 135.936 161.181 135.936 159.693 135.936H158.829C157.293 135.936 155.109 135.96 151.749 136.152ZM183.548 144.552L182.804 144.528C182.66 144.504 182.612 144.456 182.612 144.288C182.756 140.904 182.78 137.88 182.78 135.912V133.056C182.78 131.256 182.756 128.64 182.564 126.888V126.792C182.564 126.72 182.588 126.672 182.684 126.672C183.068 126.672 184.196 126.816 184.7 126.912C184.892 126.96 184.964 127.032 184.964 127.128C184.964 127.368 184.484 127.752 184.436 128.208C184.316 129.744 184.316 132.36 184.316 134.088C184.436 133.752 184.604 133.296 184.748 133.056C184.796 132.984 184.892 132.912 185.012 132.936C186.068 133.2 189.212 134.136 191.588 135.264C191.708 135.336 191.684 135.456 191.66 135.528C191.588 135.768 191.276 136.56 191.132 136.824C191.084 136.92 190.988 136.944 190.916 136.92C188.732 135.672 185.54 134.544 184.436 134.28L184.316 134.232V134.64C184.316 136.44 184.34 140.4 184.484 144.24V144.312C184.484 144.456 184.436 144.504 184.268 144.528L183.548 144.552ZM201.908 144.96C201.86 144.96 201.788 144.936 201.716 144.888C201.452 144.768 201.02 144.72 200.3 144.648C200.084 144.6 200.108 144.552 200.252 144.408C203.516 141.384 204.212 135.432 204.212 130.896C204.212 128.664 204.044 126.768 203.924 125.736C203.9 125.664 203.9 125.616 203.9 125.592C203.9 125.472 203.972 125.472 204.164 125.472C206.132 125.592 207.908 125.616 209.396 125.616H211.436C212.276 125.616 213.092 125.64 214.076 125.64C215.228 125.64 216.596 125.616 218.516 125.52C218.684 125.52 218.756 125.568 218.732 125.712C218.684 126.408 218.636 127.272 218.636 128.136C218.636 129.168 218.684 130.176 218.78 130.848V130.944C218.78 131.088 218.684 131.112 218.564 131.112C218.252 131.136 217.652 131.16 217.34 131.136C217.22 131.112 217.124 131.088 217.124 130.968C217.124 130.8 217.148 130.584 217.148 130.344C216.044 130.344 213.644 130.32 211.604 130.32C209.468 130.32 206.804 130.344 205.652 130.368V130.848C205.7 135.624 205.244 141 202.124 144.816C202.052 144.912 201.98 144.96 201.908 144.96ZM204.836 144.072C204.836 144 204.908 144.024 205.028 144C205.964 143.952 207.332 143.712 208.724 143.448C208.748 142.464 208.772 141.432 208.772 140.448C208.772 139.848 208.772 139.272 208.748 138.72C207.884 138.744 206.9 138.792 205.82 138.84C205.676 138.84 205.628 138.792 205.604 138.672C205.58 138.384 205.58 137.808 205.604 137.544C205.628 137.4 205.652 137.376 205.82 137.376C207.284 137.448 208.508 137.496 209.564 137.52V135.024C208.748 135.048 207.812 135.072 206.732 135.144C206.612 135.144 206.516 135.096 206.492 134.976C206.468 134.736 206.468 134.112 206.492 133.872C206.516 133.728 206.588 133.704 206.732 133.704C207.812 133.776 208.748 133.824 209.564 133.824C209.54 132.696 209.516 132.216 209.42 131.328C209.42 131.16 209.42 131.136 209.612 131.16C210.02 131.208 210.668 131.304 211.22 131.472C211.34 131.496 211.388 131.544 211.388 131.64C211.388 131.712 211.34 131.808 211.22 131.928C211.052 132.12 210.956 132.216 210.932 132.576C210.908 132.84 210.884 133.296 210.86 133.848H213.836C213.836 132.696 213.788 132.216 213.692 131.328V131.232C213.692 131.184 213.716 131.16 213.764 131.16C214.196 131.16 214.796 131.328 215.372 131.472C215.54 131.52 215.612 131.592 215.612 131.688C215.612 131.736 215.564 131.832 215.492 131.904C215.3 132.072 215.228 132.216 215.204 132.552C215.18 132.816 215.156 133.296 215.132 133.848C216.02 133.848 217.076 133.8 218.564 133.704C218.66 133.704 218.756 133.752 218.756 133.872C218.78 134.112 218.78 134.76 218.756 135C218.756 135.096 218.66 135.144 218.588 135.144C217.052 135.072 216.02 135.024 215.132 135.024C215.132 135.984 215.156 136.968 215.156 137.544C216.38 137.52 217.844 137.496 219.788 137.4H219.836C219.908 137.4 219.98 137.448 219.98 137.544C219.98 137.784 220.004 138.456 219.98 138.72C219.956 138.792 219.884 138.84 219.788 138.84C216.86 138.696 215.012 138.696 213.332 138.696C213.548 139.32 213.908 140.208 214.604 141.096C216.044 140.4 217.22 139.392 217.652 139.008C217.7 138.96 217.748 138.936 217.772 138.936C217.82 138.936 217.868 138.984 217.94 139.056C218.06 139.176 218.66 139.752 218.828 140.088C218.852 140.16 218.876 140.208 218.876 140.256C218.876 140.4 218.684 140.448 218.42 140.448C218.108 140.448 218.012 140.52 217.652 140.736C217.196 140.976 216.284 141.48 215.372 141.912C216.572 143.016 218.42 143.928 221.276 143.928C221.516 143.928 221.612 143.952 221.612 144.024C221.612 144.072 221.564 144.12 221.492 144.192C221.108 144.552 220.748 144.84 220.532 145.296C220.436 145.464 220.34 145.416 220.172 145.392C214.412 144.672 212.564 140.352 212.084 138.696H210.452C210.476 138.72 210.476 138.744 210.476 138.744C210.476 138.816 210.428 138.888 210.308 138.96C210.116 139.104 210.116 139.152 210.116 139.344C210.092 140.016 210.068 140.808 210.068 141.576C210.068 142.128 210.092 142.68 210.092 143.16C211.652 142.8 213.068 142.464 213.692 142.296C213.86 142.248 213.908 142.272 213.86 142.44C213.812 142.68 213.74 143.04 213.716 143.376C213.716 143.496 213.692 143.592 213.5 143.64C212.492 143.904 207.74 145.104 206.42 145.368C206.156 145.44 206.012 145.704 205.844 145.704C205.772 145.704 205.7 145.656 205.628 145.536C205.436 145.272 205.076 144.744 204.86 144.168C204.836 144.12 204.836 144.096 204.836 144.072ZM205.604 126.864C205.604 127.176 205.628 127.992 205.628 129.072C206.78 129.096 209.468 129.12 211.556 129.12C213.596 129.12 216.068 129.096 217.172 129.072C217.196 128.544 217.196 128.064 217.196 127.656C217.196 127.272 217.196 126.984 217.172 126.888C216.092 126.864 213.644 126.84 211.436 126.84C209.18 126.864 206.3 126.864 205.604 126.864ZM210.86 135C210.86 135.96 210.884 136.944 210.884 137.544H213.836V135H210.86ZM235.364 145.344C235.124 145.344 235.052 145.32 235.004 145.128C234.836 144.576 234.332 144.096 234.02 143.712C233.924 143.592 233.924 143.496 234.116 143.544C234.692 143.64 235.196 143.688 235.604 143.688C236.684 143.688 237.188 143.328 237.212 142.464V138.456C237.212 136.488 237.212 134.304 237.188 133.296C234.98 133.296 232.364 133.296 228.62 133.44C228.476 133.44 228.404 133.416 228.38 133.272C228.356 133.008 228.356 132.24 228.38 132C228.404 131.808 228.428 131.808 228.62 131.808C232.1 131.952 234.668 131.976 236.612 131.976H239.42C241.46 131.976 243.956 131.952 247.364 131.808H247.412C247.508 131.808 247.532 131.88 247.532 132C247.556 132.264 247.556 133.032 247.532 133.296C247.532 133.392 247.46 133.44 247.364 133.44C243.932 133.32 241.172 133.296 239.084 133.296C239.084 133.368 238.964 133.464 238.868 133.536C238.748 133.656 238.748 133.92 238.724 134.232V141.48C238.724 141.96 238.796 142.632 238.796 142.92C238.796 144.24 237.932 145.344 235.364 145.344ZM227.3 142.248C229.964 140.4 232.028 136.728 232.292 135.6C232.316 135.504 232.34 135.432 232.412 135.432C232.556 135.432 233.516 135.936 233.996 136.2C234.14 136.296 234.212 136.392 234.212 136.464C234.212 136.584 234.116 136.68 233.924 136.776C233.564 136.968 233.516 136.968 233.276 137.448C232.436 139.08 230.9 141.312 229.052 142.992C228.956 143.064 228.836 143.088 228.716 143.016C228.332 142.776 227.852 142.608 227.372 142.464C227.18 142.416 227.132 142.368 227.3 142.248ZM230.948 127.872C230.924 127.632 230.924 126.864 230.948 126.624C230.948 126.456 230.996 126.432 231.14 126.432C233.876 126.6 236.396 126.6 238.028 126.6C239.78 126.6 242.132 126.6 244.796 126.432C244.916 126.432 244.94 126.48 244.964 126.624V127.896C244.94 128.016 244.892 128.04 244.796 128.04C242.18 127.896 239.684 127.896 238.028 127.896C236.204 127.896 233.828 127.896 231.14 128.04C231.02 128.04 230.948 128.016 230.948 127.872ZM241.34 136.2C241.292 136.104 241.292 136.032 241.364 135.96C241.508 135.84 242.228 135.528 242.444 135.432C242.564 135.384 242.636 135.384 242.708 135.504C243.14 136.224 245.804 140.208 248.252 141.528C248.396 141.624 248.444 141.672 248.252 141.792C247.844 141.984 247.148 142.296 246.932 142.584C246.884 142.632 246.812 142.68 246.764 142.68C246.716 142.68 246.644 142.632 246.572 142.584C244.556 141 242.06 137.424 241.34 136.2ZM269.588 143.856C264.644 143.04 261.692 139.608 261.692 135.888C261.692 133.968 262.484 131.952 264.212 130.2C264.284 130.128 264.308 130.104 264.308 130.08C264.308 130.056 264.26 130.032 264.116 130.056C261.044 130.56 258.692 130.944 256.172 131.256H256.1C256.004 131.256 255.908 131.232 255.86 131.136C255.764 130.92 255.524 129.96 255.5 129.768V129.72C255.5 129.6 255.596 129.552 255.716 129.552C256.316 129.552 257.348 129.504 258.308 129.384C261.62 128.952 268.7 127.944 271.676 127.728V127.68C271.148 126.768 270.02 125.352 269.468 124.824C269.372 124.728 269.444 124.632 269.492 124.584C269.612 124.488 270.02 124.224 270.164 124.176C270.284 124.128 270.332 124.104 270.428 124.2C271.028 124.776 272.228 126.12 272.732 126.984C272.756 127.032 272.756 127.056 272.756 127.08C272.756 127.152 272.708 127.224 272.636 127.296C272.516 127.416 272.276 127.584 272.084 127.704C272.18 127.704 272.18 127.752 272.204 127.848C272.252 128.088 272.276 128.976 272.276 129.216C272.276 129.312 272.228 129.36 272.132 129.36C270.308 129.336 267.044 129.456 265.748 130.632C264.044 132.192 263.228 134.016 263.228 135.744C263.228 138.912 265.94 141.792 270.788 142.224C271.004 142.248 270.98 142.344 270.86 142.488C270.62 142.824 270.116 143.328 269.924 143.688C269.852 143.832 269.756 143.88 269.588 143.856ZM272.108 124.152C272.012 124.056 272.06 123.96 272.132 123.912C272.252 123.816 272.66 123.552 272.804 123.504C272.924 123.456 272.972 123.432 273.044 123.528C273.668 124.104 274.892 125.424 275.396 126.288C275.42 126.336 275.42 126.36 275.42 126.384C275.42 126.456 275.372 126.528 275.3 126.6C275.156 126.744 274.772 127.008 274.604 127.08C274.556 127.104 274.532 127.104 274.484 127.104C274.436 127.104 274.388 127.056 274.34 126.984C273.812 126.072 272.66 124.68 272.108 124.152ZM285.415 144.864C285.319 144.864 285.247 144.816 285.175 144.744C284.863 144.312 284.527 144.144 284.287 143.952C284.143 143.856 284.119 143.784 284.311 143.736C287.503 142.824 290.119 140.736 290.455 138.552C290.191 139.008 289.471 139.536 288.535 139.536C286.567 139.536 285.343 138.264 285.343 136.464C285.343 134.712 286.615 133.152 288.463 133.152C289.303 133.152 289.783 133.512 289.999 133.56C289.999 133.32 289.999 132.072 289.975 130.68C286.423 130.8 282.967 131.136 280.615 131.448H280.519C280.423 131.448 280.375 131.424 280.351 131.328C280.303 131.112 280.111 130.176 280.087 129.936V129.84C280.087 129.768 280.111 129.744 280.207 129.744C280.543 129.744 280.927 129.768 281.359 129.768C281.983 129.768 282.607 129.744 283.063 129.72C285.319 129.576 287.647 129.432 289.951 129.336C289.927 128.76 289.927 128.232 289.903 127.752C289.879 127.032 289.831 126.408 289.783 126.024C289.783 125.976 289.759 125.928 289.759 125.88C289.759 125.832 289.783 125.808 289.879 125.808C290.191 125.808 291.127 125.856 291.631 125.952C291.847 126 291.943 126.072 291.943 126.168C291.943 126.36 291.535 126.648 291.511 126.984C291.463 127.584 291.439 128.4 291.439 129.264C293.791 129.192 296.143 129.144 298.423 129.144C298.567 129.144 298.567 129.192 298.591 129.36C298.615 129.648 298.639 130.416 298.615 130.656C298.591 130.776 298.543 130.824 298.447 130.8C296.959 130.656 295.303 130.608 293.575 130.608C292.855 130.608 292.135 130.608 291.415 130.632C291.439 131.856 291.463 133.008 291.487 133.656C291.487 134.016 291.511 134.28 291.535 134.52C291.943 135.336 292.207 136.344 292.207 137.424C292.207 140.016 290.647 143.016 285.583 144.816C285.511 144.84 285.463 144.864 285.415 144.864ZM286.783 136.488C286.807 137.496 287.575 138.24 288.535 138.24C289.735 138.216 290.359 137.256 290.359 136.296C290.359 135.36 289.783 134.448 288.583 134.448C287.599 134.448 286.783 135.288 286.783 136.488ZM303.506 145.56C301.754 145.56 300.338 144.144 300.338 142.416C300.338 140.688 301.754 139.272 303.506 139.272C305.258 139.272 306.65 140.688 306.65 142.416C306.65 144.144 305.258 145.56 303.506 145.56ZM301.418 142.416C301.418 143.568 302.33 144.504 303.506 144.504C304.658 144.504 305.594 143.568 305.594 142.416C305.594 141.24 304.658 140.328 303.506 140.328C302.33 140.328 301.418 141.24 301.418 142.416Z" fill="#282828"/>
</svg>
