<svg width="394" height="246" viewBox="0 0 394 246" fill="none" xmlns="http://www.w3.org/2000/svg">
<g clip-path="url(#clip0_2007_131)">
<path d="M301.72 97.4581H88.2802C82.8361 97.4581 78.4229 101.871 78.4229 107.316V114.161C78.4229 119.605 82.8361 124.019 88.2802 124.019H301.72C307.164 124.019 311.577 119.605 311.577 114.161V107.316C311.577 101.871 307.164 97.4581 301.72 97.4581Z" fill="#EB8145"/>
<path d="M301.72 169.764H88.2802C82.8361 169.764 78.4229 174.177 78.4229 179.622V186.467C78.4229 191.911 82.8361 196.325 88.2802 196.325H301.72C307.164 196.325 311.577 191.911 311.577 186.467V179.622C311.577 174.177 307.164 169.764 301.72 169.764Z" fill="#EB8145"/>
<path d="M272.712 160.799C260.993 160.799 254.733 155.87 249.707 151.918C245.155 148.334 241.565 145.511 233.847 145.511C226.13 145.511 222.54 148.341 217.995 151.918C212.968 155.877 206.708 160.799 194.989 160.799C183.271 160.799 177.018 155.87 171.984 151.918C167.439 148.334 163.842 145.511 156.132 145.511C148.421 145.511 144.824 148.341 140.279 151.918C135.253 155.877 128.992 160.799 117.274 160.799C105.555 160.799 99.3018 155.87 94.2686 151.918C89.7233 148.341 86.1261 145.511 78.4159 145.511C75.2231 145.511 72.6367 142.925 72.6367 139.732C72.6367 136.539 75.2231 133.953 78.4159 133.953C90.1346 133.953 96.3878 138.881 101.421 142.834C105.966 146.417 109.564 149.241 117.274 149.241C124.984 149.241 128.581 146.41 133.126 142.834C138.153 138.874 144.413 133.953 156.132 133.953C167.85 133.953 174.104 138.881 179.137 142.834C183.682 146.41 187.279 149.241 194.989 149.241C202.7 149.241 206.297 146.41 210.842 142.834C215.868 138.874 222.129 133.953 233.847 133.953C245.566 133.953 251.826 138.881 256.853 142.834C261.405 146.417 264.995 149.241 272.712 149.241C280.429 149.241 284.02 146.41 288.572 142.834C293.598 138.874 299.858 133.953 311.577 133.953C314.77 133.953 317.356 136.539 317.356 139.732C317.356 142.925 314.77 145.511 311.577 145.511C303.867 145.511 300.27 148.341 295.717 151.918C290.684 155.877 284.431 160.799 272.712 160.799Z" fill="#EB8145"/>
<path d="M312.888 81.222C305.331 12.5829 195.003 14.5 195.003 14.5C195.003 14.5 84.6621 12.5829 77.1192 81.222C76.68 85.2444 79.9495 88.7719 84.0765 88.7719H305.93C310.057 88.7719 313.327 85.2444 312.888 81.222ZM161.095 69.2245C157.637 69.2245 154.842 66.422 154.842 62.9712C154.842 59.5205 157.644 56.718 161.095 56.718C164.546 56.718 167.348 59.5205 167.348 62.9712C167.348 66.422 164.546 69.2245 161.095 69.2245ZM176.997 42.6639C173.539 42.6639 170.743 39.8615 170.743 36.4107C170.743 32.9599 173.546 30.1575 176.997 30.1575C180.447 30.1575 183.25 32.9599 183.25 36.4107C183.25 39.8615 180.447 42.6639 176.997 42.6639ZM193.574 69.2245C190.117 69.2245 187.321 66.422 187.321 62.9712C187.321 59.5205 190.124 56.718 193.574 56.718C197.025 56.718 199.828 59.5205 199.828 62.9712C199.828 66.422 197.025 69.2245 193.574 69.2245ZM210.152 42.6639C206.694 42.6639 203.899 39.8615 203.899 36.4107C203.899 32.9599 206.701 30.1575 210.152 30.1575C213.603 30.1575 216.405 32.9599 216.405 36.4107C216.405 39.8615 213.603 42.6639 210.152 42.6639ZM226.06 69.2245C222.603 69.2245 219.807 66.422 219.807 62.9712C219.807 59.5205 222.61 56.718 226.06 56.718C229.511 56.718 232.314 59.5205 232.314 62.9712C232.314 66.422 229.511 69.2245 226.06 69.2245Z" fill="#EB8145"/>
<path d="M309.026 204.941H295.801L265.595 232.164C264.612 233.049 263.12 233.091 262.095 232.255L228.549 204.941H80.9814C79.0921 204.941 77.5724 206.531 77.663 208.427C79.5034 247.982 112.812 245.619 115.05 245.416L115.322 245.402H274.664C274.762 245.402 274.845 245.402 274.936 245.416C277.181 245.619 310.503 247.989 312.344 208.427C312.435 206.538 310.915 204.941 309.026 204.941Z" fill="#EB8145"/>
</g>
<defs>
<clipPath id="clip0_2007_131">
<rect width="244.713" height="231" fill="white" transform="translate(72.6436 14.5)"/>
</clipPath>
</defs>
</svg>
