<svg width="390" height="322" viewBox="0 0 390 322" fill="none" xmlns="http://www.w3.org/2000/svg">
<path d="M301.768 295.803C294.816 199.051 262.104 98.4147 251.879 68.8351C252.65 65.1259 253.05 61.2569 253.05 57.3299C253.057 25.6816 227.342 0 195.627 0C175.388 0 157.614 10.4454 147.374 26.2115L95.5874 58.0195C94.5401 58.6656 94.9983 60.277 96.2273 60.277H144.465C127.375 100.476 74.6064 239.351 134.415 295.81L95.5801 319.75C94.5329 320.389 94.9983 322 96.2201 322H328L301.776 295.803H301.768ZM128.299 311.693L139.847 304.572L151.272 297.523L141.513 288.312C129.404 276.887 121.688 260.402 118.568 239.322C115.834 220.834 116.576 198.738 120.794 173.63C128.342 128.655 144.822 85.8207 153.978 64.2839L154.698 62.5853C155.054 61.7433 155.389 60.9738 155.701 60.2625H169.854C169.854 60.2625 169.839 60.2117 169.839 60.1754C169.737 59.2463 169.686 58.2881 169.686 57.3227C169.686 43.0156 181.3 31.4233 195.634 31.4233C209.968 31.4233 221.568 43.0156 221.568 57.3227C221.568 67.4051 215.801 76.1157 207.408 80.3693C203.896 82.1695 199.925 83.1858 195.722 83.2003L153.323 217.241C144.393 240.397 144.393 269.613 144.393 269.613C180.202 269.613 196.863 251.837 196.863 251.837C201.867 283.579 217.837 301.806 230.855 311.678H128.299V311.693Z" fill="#025382"/>
</svg>
