<svg width="394" height="306" viewBox="0 0 394 306" fill="none" xmlns="http://www.w3.org/2000/svg">
<path d="M300.201 43.037C307.6 43.037 313.597 37.0395 313.597 29.6412C313.597 22.243 307.6 16.2455 300.201 16.2455C292.803 16.2455 286.806 22.243 286.806 29.6412C286.806 37.0395 292.803 43.037 300.201 43.037Z" fill="#3D4043"/>
<path d="M274.553 29.6413C274.553 43.78 286.055 55.2825 300.194 55.2825C314.333 55.2825 325.835 43.78 325.835 29.6413C325.835 15.5025 314.333 4 300.194 4C286.055 4 274.553 15.5025 274.553 29.6413ZM321.977 29.6413C321.977 41.651 312.204 51.4245 300.194 51.4245C288.184 51.4245 278.411 41.651 278.411 29.6413C278.411 17.6315 288.184 7.85798 300.194 7.85798C312.204 7.85798 321.977 17.6315 321.977 29.6413Z" fill="#3D4043"/>
<path d="M181.447 190.183C185.03 190.183 187.934 187.279 187.934 183.696C187.934 180.113 185.03 177.209 181.447 177.209C177.864 177.209 174.96 180.113 174.96 183.696C174.96 187.279 177.864 190.183 181.447 190.183Z" fill="#3D4043"/>
<path d="M98.6724 100.556C99.3654 99.8704 100.058 99.1917 100.759 98.5273C100.058 99.1703 99.3511 99.8562 98.6724 100.556ZM100.766 98.5273C102.18 97.177 103.623 95.8767 105.109 94.6122C103.623 95.8624 102.18 97.1699 100.766 98.5273ZM105.109 94.605C105.802 94.0049 106.503 93.419 107.217 92.8403C106.503 93.3976 105.802 93.9977 105.109 94.605ZM132.172 77.1798C133.53 76.5511 134.909 75.951 136.295 75.358C134.909 75.9296 133.53 76.5297 132.172 77.1798ZM136.295 75.358C138.367 74.5007 140.467 73.6934 142.582 72.9432C140.453 73.6862 138.367 74.4864 136.295 75.358ZM144.797 72.193C146.961 71.4786 149.148 70.8356 151.362 70.2498C149.148 70.8285 146.961 71.4715 144.797 72.193ZM158.092 68.678C159.607 68.3708 161.129 68.0993 162.643 67.8492C161.114 68.0922 159.593 68.3708 158.092 68.678ZM200.616 212.116C201.53 211.509 202.409 210.852 203.245 210.151C202.395 210.844 201.523 211.502 200.616 212.116ZM200.616 155.268C201.523 155.897 202.395 156.547 203.245 157.24C202.409 156.54 201.53 155.883 200.616 155.268Z" fill="#3D4043"/>
<path d="M298.758 180.738C298.758 180.645 298.758 180.545 298.751 180.452C298.729 179.645 298.701 178.823 298.658 178.016C298.658 177.823 298.651 177.63 298.637 177.445C298.587 176.523 298.529 175.594 298.451 174.673C298.387 173.679 298.286 172.686 298.194 171.708C298.101 170.786 298.001 169.879 297.879 168.964C297.801 168.271 297.708 167.578 297.601 166.892C297.515 166.264 297.429 165.649 297.322 165.028C297.301 164.885 297.286 164.742 297.258 164.606C297.072 163.47 296.872 162.334 296.643 161.205C296.443 160.091 296.207 158.983 295.95 157.876C295.843 157.397 295.736 156.926 295.622 156.454C295.507 155.954 295.379 155.454 295.243 154.954C295.086 154.297 294.929 153.654 294.743 153.011C294.6 152.475 294.457 151.939 294.3 151.41C294.1 150.682 293.878 149.946 293.643 149.217C293.457 148.603 293.264 147.988 293.064 147.381C293.014 147.209 292.957 147.045 292.9 146.881C292.714 146.345 292.542 145.809 292.364 145.281C292.121 144.588 291.885 143.895 291.621 143.201C291.478 142.809 291.335 142.423 291.171 142.03C290.735 140.865 290.278 139.701 289.792 138.558C289.52 137.915 289.242 137.279 288.963 136.629C288.934 136.536 288.899 136.443 288.849 136.357C288.606 135.821 288.37 135.271 288.12 134.728C287.727 133.849 287.313 132.978 286.87 132.106C286.641 131.628 286.398 131.142 286.155 130.67C285.662 129.706 285.177 128.763 284.662 127.82C284.412 127.348 284.141 126.877 283.883 126.412C283.519 125.769 283.155 125.112 282.769 124.469C281.919 123.026 281.047 121.597 280.14 120.182C279.84 119.718 279.525 119.246 279.218 118.789C278.832 118.203 278.432 117.617 278.032 117.039C278.004 116.974 277.954 116.91 277.896 116.846C277.489 116.267 277.089 115.688 276.675 115.124C275.367 113.316 274.01 111.545 272.61 109.816C259.028 93.105 240.946 80.2022 220.212 72.9435L181.718 92.1405L166.229 118.953L167.665 119.682C169.38 120.589 170.052 122.711 169.151 124.455L158.071 145.673C157.156 147.395 155.034 148.074 153.298 147.167L144.961 142.794C143.239 141.887 142.56 139.758 143.467 138.029L152.334 121.054L143.946 116.681C143.717 116.546 143.617 116.239 143.732 116.01L144.896 113.788C145.032 113.538 145.339 113.459 145.568 113.574L153.941 117.967L154.548 116.803C155.456 115.088 157.585 114.402 159.314 115.317L159.892 115.624L175.517 88.5397L211.418 70.2357C207.231 69.1212 202.966 68.2496 198.601 67.5995C197.986 67.5066 197.358 67.4137 196.736 67.3423C196.322 67.2851 195.914 67.2351 195.507 67.1851C195.057 67.1279 194.6 67.0708 194.143 67.0279C192.785 66.8707 191.428 66.7493 190.063 66.6635C189.392 66.6064 188.713 66.5707 188.041 66.5349C187.077 66.4706 186.105 66.4278 185.133 66.4063C184.691 66.3778 184.248 66.3706 183.805 66.3706C183.054 66.3492 182.29 66.342 181.54 66.342H181.426C180.454 66.342 179.489 66.3492 178.518 66.3778C178.382 66.3778 178.239 66.3849 178.103 66.3849C177.353 66.4063 176.61 66.4349 175.86 66.4706C175.617 66.4778 175.381 66.4921 175.138 66.5064C174.231 66.5421 173.331 66.5992 172.424 66.6778C171.488 66.7421 170.559 66.835 169.623 66.9207C169.566 66.9279 169.509 66.9422 169.459 66.9422C168.601 67.0279 167.751 67.1279 166.908 67.228C166.322 67.3065 165.744 67.3851 165.165 67.4566C165.072 67.4637 164.972 67.4851 164.886 67.4923C164.143 67.5995 163.4 67.7138 162.664 67.8281C161.143 68.0781 159.621 68.3496 158.113 68.6568C157.335 68.814 156.556 68.9712 155.784 69.1569C155.184 69.2855 154.591 69.4284 153.991 69.5713C153.705 69.6356 153.412 69.707 153.127 69.7856C152.548 69.9285 151.962 70.0714 151.383 70.2286C149.169 70.8144 146.982 71.4574 144.818 72.1719C144.103 72.4148 143.403 72.6434 142.703 72.8935C142.674 72.9006 142.639 72.9149 142.61 72.922C140.495 73.6722 138.395 74.4795 136.323 75.3368C134.937 75.9227 133.558 76.53 132.201 77.1587C131.336 77.5659 130.486 77.966 129.629 78.3875C129.014 78.6947 128.4 79.0019 127.778 79.3306C127.385 79.5306 126.978 79.7378 126.585 79.945C125.456 80.5451 124.335 81.1595 123.227 81.8097C122.691 82.0954 122.148 82.4169 121.62 82.7313C120.591 83.3386 119.576 83.9744 118.569 84.6174C117.869 85.0604 117.162 85.5105 116.469 85.9748C116.326 86.0677 116.183 86.1677 116.033 86.2749C115.333 86.7393 114.64 87.218 113.947 87.7109C113.282 88.1825 112.618 88.6611 111.961 89.147C111.318 89.6185 110.682 90.0972 110.046 90.5901C109.853 90.733 109.66 90.8759 109.467 91.0331C108.853 91.5046 108.245 91.9976 107.638 92.4977C107.502 92.5906 107.367 92.6977 107.245 92.812C106.531 93.3907 105.831 93.9766 105.138 94.5767C103.652 95.8484 102.208 97.1487 100.794 98.4918C100.094 99.1563 99.4007 99.8421 98.7077 100.521C98.0076 101.221 97.3146 101.928 96.6358 102.65C95.9928 103.307 95.3641 103.979 94.7712 104.65C94.3925 105.072 94.0138 105.486 93.6352 105.915C93.1851 106.408 92.7493 106.908 92.3278 107.415C92.0849 107.687 91.8562 107.965 91.6348 108.237C91.3919 108.508 91.1632 108.787 90.9489 109.066C90.5845 109.509 90.2202 109.951 89.8629 110.394C89.1485 111.28 88.4555 112.166 87.7768 113.074C87.3124 113.688 86.8552 114.317 86.4122 114.938C86.3908 114.945 86.3836 114.967 86.3836 114.974C86.1336 115.331 85.8835 115.667 85.6335 116.024C84.4689 117.66 83.3544 119.325 82.2827 121.018C81.9684 121.525 81.6469 122.025 81.3397 122.54C80.9539 123.176 80.5681 123.812 80.1966 124.455C79.8179 125.09 79.4536 125.733 79.0892 126.391C78.9963 126.562 78.8892 126.741 78.7891 126.919C78.5034 127.441 78.2104 127.962 77.9318 128.491C77.7103 128.898 77.496 129.313 77.2888 129.72C76.9244 130.434 76.5601 131.156 76.2029 131.878C75.8456 132.599 75.5027 133.328 75.1526 134.064C75.1526 134.064 75.1503 134.071 75.1455 134.085C74.8097 134.814 74.4739 135.536 74.1524 136.271C73.8238 137.014 73.4951 137.757 73.1879 138.508C72.5164 140.122 71.8662 141.758 71.2732 143.409C71.1089 143.859 70.9446 144.316 70.7803 144.766C70.7731 144.816 70.7517 144.859 70.7303 144.909C69.7157 147.788 68.8156 150.725 68.0368 153.697C67.8654 154.361 67.6867 155.025 67.5296 155.69C67.3652 156.361 67.2152 157.026 67.058 157.705C66.9009 158.376 66.758 159.055 66.6151 159.734C66.4722 160.405 66.3364 161.091 66.2007 161.777C66.015 162.727 65.8506 163.692 65.6935 164.656C65.6006 165.271 65.5006 165.885 65.4077 166.514C65.3219 167.128 65.2219 167.757 65.1505 168.378C65.1148 168.707 65.0647 169.021 65.0362 169.35C64.9433 170.007 64.8718 170.672 64.8075 171.336C64.7861 171.493 64.779 171.643 64.7575 171.801C64.6789 172.544 64.6146 173.294 64.5575 174.044C64.5289 174.344 64.5075 174.644 64.4932 174.93C64.4289 175.687 64.3789 176.459 64.3503 177.23C64.2932 178.173 64.2574 179.116 64.2217 180.059C64.2003 180.474 64.1931 180.881 64.1931 181.281C64.1717 182.081 64.1646 182.867 64.1646 183.667C64.1646 231.249 92.4992 272.222 133.229 290.633C134.951 291.426 136.702 292.162 138.488 292.87C139.374 293.22 140.267 293.555 141.174 293.877C142.067 294.213 142.974 294.534 143.889 294.841C155.706 298.835 168.366 301 181.526 301C194.686 301 207.331 298.835 219.141 294.841C220.055 294.534 220.963 294.213 221.856 293.877C222.763 293.548 223.656 293.212 224.542 292.87C226.321 292.169 228.078 291.426 229.8 290.633C270.523 272.237 298.865 231.256 298.865 183.667C298.865 182.674 298.858 181.696 298.829 180.702L298.758 180.738ZM251.162 183.703H255.02C255.02 224.269 222.013 257.269 181.454 257.269V253.411C219.891 253.411 251.162 222.14 251.162 183.703ZM170.459 216.167C169.73 215.924 169.016 215.646 168.301 215.36C167.244 214.917 166.215 214.424 165.201 213.888C164.872 213.702 164.536 213.524 164.208 213.331C163.55 212.945 162.907 212.545 162.279 212.116H162.271C161.357 211.509 160.478 210.852 159.642 210.152H159.635C159.214 209.802 158.799 209.452 158.406 209.073C157.999 208.694 157.606 208.323 157.213 207.937C154.498 205.222 152.234 202.057 150.547 198.556C150.19 197.806 149.854 197.042 149.547 196.263C148.018 192.376 147.168 188.14 147.168 183.696C147.168 179.252 148.018 175.023 149.547 171.129C149.854 170.35 150.19 169.579 150.547 168.836C152.234 165.328 154.498 162.163 157.213 159.448C157.606 159.062 158.006 158.691 158.406 158.312C158.799 157.933 159.214 157.583 159.635 157.233H159.642C160.478 156.533 161.357 155.876 162.271 155.261C162.271 155.261 162.274 155.261 162.279 155.261C162.907 154.84 163.55 154.432 164.208 154.047C164.865 153.668 165.529 153.304 166.208 152.968C167.573 152.296 168.987 151.703 170.452 151.203C173.91 150.039 177.603 149.403 181.447 149.403C185.291 149.403 188.977 150.039 192.421 151.203C193.885 151.696 195.3 152.282 196.665 152.968C197.35 153.304 198.015 153.668 198.665 154.047C199.322 154.432 199.965 154.84 200.594 155.261H200.601C201.516 155.876 202.394 156.533 203.23 157.233H203.237C203.659 157.583 204.073 157.933 204.466 158.312C204.873 158.676 205.274 159.055 205.659 159.448C208.374 162.156 210.639 165.328 212.325 168.836C212.689 169.579 213.018 170.35 213.325 171.129C214.868 175.016 215.704 179.252 215.704 183.696C215.704 188.14 214.868 192.369 213.325 196.263C213.018 197.042 212.689 197.806 212.325 198.556C210.639 202.064 208.374 205.229 205.659 207.937C205.274 208.33 204.866 208.709 204.466 209.073C204.073 209.452 203.659 209.802 203.237 210.152H203.23C202.394 210.852 201.516 211.509 200.601 212.116C200.601 212.116 200.599 212.116 200.594 212.116C199.965 212.538 199.322 212.945 198.665 213.331C198.336 213.524 198.008 213.71 197.672 213.888C196.672 214.424 195.629 214.917 194.571 215.36C193.857 215.66 193.15 215.931 192.414 216.167C188.97 217.339 185.276 217.968 181.44 217.968C177.603 217.968 173.903 217.332 170.445 216.167H170.459ZM181.454 275.966V272.108C230.2 272.108 269.859 232.428 269.859 183.703H273.717C273.717 234.578 232.329 275.966 181.454 275.966Z" fill="#3D4043"/>
<path d="M181.454 190.183C185.037 190.183 187.941 187.279 187.941 183.696C187.941 180.113 185.037 177.209 181.454 177.209C177.871 177.209 174.967 180.113 174.967 183.696C174.967 187.279 177.871 190.183 181.454 190.183Z" fill="#3D4043"/>
<path d="M159.649 210.152C160.485 210.852 161.364 211.509 162.279 212.116C161.371 211.502 160.5 210.845 159.649 210.152ZM159.649 157.247C160.5 156.554 161.371 155.897 162.279 155.275C161.364 155.89 160.485 156.547 159.649 157.247ZM272.595 109.808C273.988 111.53 275.346 113.302 276.66 115.117C275.367 113.309 274.01 111.537 272.595 109.808ZM280.125 120.175C281.033 121.59 281.904 123.018 282.755 124.462C281.919 123.011 281.04 121.582 280.125 120.175ZM289.785 138.536C290.263 139.679 290.728 140.844 291.163 142.008C290.742 140.844 290.278 139.679 289.785 138.536Z" fill="#3D4043"/>
<path d="M211.411 70.2286L291.778 29.2269L295.007 35.614L220.191 72.9292C217.312 71.9219 214.39 71.0074 211.411 70.2286Z" fill="#3D4043"/>
</svg>
