<svg width="143" height="13" viewBox="0 0 143 13" fill="none" xmlns="http://www.w3.org/2000/svg">
<path d="M4.368 5.55799L6.454 1.44199H8.736L5.418 7.54599V11.438H3.318V7.61599L0 1.44199H2.296L4.368 5.55799ZM19.4949 6.42599C19.4949 7.20065 19.3969 7.90532 19.2009 8.53999C19.0142 9.16532 18.7249 9.70665 18.3329 10.164C17.9502 10.6213 17.4556 10.9713 16.8489 11.214C16.2516 11.4567 15.5469 11.578 14.7349 11.578C13.9229 11.578 13.2136 11.4567 12.6069 11.214C12.0096 10.962 11.5149 10.612 11.1229 10.164C10.7402 9.70665 10.4509 9.16065 10.2549 8.52599C10.0682 7.89132 9.97489 7.18665 9.97489 6.41199C9.97489 5.37599 10.1429 4.47532 10.4789 3.70999C10.8242 2.94465 11.3469 2.35199 12.0469 1.93199C12.7562 1.50265 13.6569 1.28799 14.7489 1.28799C15.8316 1.28799 16.7229 1.50265 17.4229 1.93199C18.1229 2.35199 18.6409 2.94932 18.9769 3.72399C19.3222 4.48932 19.4949 5.38999 19.4949 6.42599ZM12.2009 6.42599C12.2009 7.12599 12.2896 7.72799 12.4669 8.23199C12.6442 8.73599 12.9196 9.12332 13.2929 9.39399C13.6662 9.66465 14.1469 9.79999 14.7349 9.79999C15.3416 9.79999 15.8269 9.66465 16.1909 9.39399C16.5642 9.12332 16.8349 8.73599 17.0029 8.23199C17.1802 7.72799 17.2689 7.12599 17.2689 6.42599C17.2689 5.37132 17.0729 4.54532 16.6809 3.94799C16.2889 3.35065 15.6449 3.05199 14.7489 3.05199C14.1516 3.05199 13.6662 3.18732 13.2929 3.45799C12.9196 3.72865 12.6442 4.11599 12.4669 4.61999C12.2896 5.12399 12.2009 5.72599 12.2009 6.42599ZM30.3995 7.90999C30.3995 8.60065 30.2455 9.22599 29.9375 9.78599C29.6388 10.3367 29.1815 10.7753 28.5655 11.102C27.9588 11.4193 27.1888 11.578 26.2555 11.578C24.9301 11.578 23.9221 11.242 23.2315 10.57C22.5408 9.88865 22.1955 8.99265 22.1955 7.88199V1.44199H24.3095V7.55999C24.3095 8.38132 24.4775 8.95999 24.8135 9.29599C25.1495 9.63199 25.6488 9.79999 26.3115 9.79999C26.7781 9.79999 27.1561 9.72065 27.4455 9.56199C27.7348 9.40332 27.9448 9.15599 28.0755 8.81999C28.2155 8.48399 28.2855 8.05932 28.2855 7.54599V1.44199H30.3995V7.90999ZM37.3975 11.438H35.2835V3.20599H32.5675V1.44199H40.1135V3.20599H37.3975V11.438ZM50.4889 7.90999C50.4889 8.60065 50.3349 9.22599 50.0269 9.78599C49.7283 10.3367 49.2709 10.7753 48.6549 11.102C48.0483 11.4193 47.2783 11.578 46.3449 11.578C45.0196 11.578 44.0116 11.242 43.3209 10.57C42.6303 9.88865 42.2849 8.99265 42.2849 7.88199V1.44199H44.3989V7.55999C44.3989 8.38132 44.5669 8.95999 44.9029 9.29599C45.2389 9.63199 45.7383 9.79999 46.4009 9.79999C46.8676 9.79999 47.2456 9.72065 47.5349 9.56199C47.8243 9.40332 48.0343 9.15599 48.1649 8.81999C48.3049 8.48399 48.3749 8.05932 48.3749 7.54599V1.44199H50.4889V7.90999ZM56.745 1.44199C57.6316 1.44199 58.3736 1.52599 58.971 1.69399C59.5776 1.85265 60.0303 2.11865 60.329 2.49199C60.637 2.85599 60.791 3.35065 60.791 3.97599C60.791 4.34932 60.7303 4.68999 60.609 4.99799C60.4876 5.30599 60.3103 5.55799 60.077 5.75399C59.853 5.94999 59.5776 6.07599 59.251 6.13199V6.20199C59.587 6.26732 59.8903 6.38399 60.161 6.55199C60.4316 6.71999 60.6463 6.96265 60.805 7.27999C60.9636 7.59732 61.043 8.01732 61.043 8.53999C61.043 9.14665 60.8936 9.66932 60.595 10.108C60.3056 10.5373 59.8856 10.8687 59.335 11.102C58.7843 11.326 58.131 11.438 57.375 11.438H53.637V1.44199H56.745ZM56.983 5.40399C57.599 5.40399 58.0236 5.30599 58.257 5.10999C58.4996 4.91399 58.621 4.62932 58.621 4.25599C58.621 3.87332 58.481 3.59799 58.201 3.42999C57.921 3.26199 57.4776 3.17799 56.871 3.17799H55.751V5.40399H56.983ZM55.751 7.08399V9.68799H57.137C57.7716 9.68799 58.215 9.56665 58.467 9.32399C58.719 9.07199 58.845 8.74065 58.845 8.32999C58.845 8.07799 58.789 7.85865 58.677 7.67199C58.5743 7.48532 58.3923 7.34065 58.131 7.23799C57.8696 7.13532 57.515 7.08399 57.067 7.08399H55.751ZM69.4972 11.438H63.7432V1.44199H69.4972V3.17799H65.8572V5.37599H69.2452V7.11199H65.8572V9.68799H69.4972V11.438ZM73.1592 1.38599C73.5139 1.38599 73.9665 1.38599 74.5172 1.38599C75.0679 1.37665 75.6465 1.35799 76.2532 1.32999C76.8599 1.29265 77.4199 1.23665 77.9332 1.16199C78.2879 1.11532 78.6332 1.05932 78.9692 0.993988C79.3145 0.928655 79.6412 0.863321 79.9492 0.797988C80.2665 0.723321 80.5512 0.643988 80.8032 0.559988C81.0645 0.475988 81.2839 0.396655 81.4612 0.321988L82.6092 1.86199C82.3665 1.91799 82.1565 1.96932 81.9792 2.01599C81.8019 2.06265 81.6525 2.09999 81.5312 2.12799C81.2419 2.20265 80.9292 2.27732 80.5932 2.35199C80.2572 2.41732 79.9119 2.47799 79.5572 2.53399C79.2025 2.58999 78.8432 2.64599 78.4792 2.70199C77.9472 2.77665 77.3825 2.83265 76.7852 2.86999C76.1879 2.90732 75.6092 2.93999 75.0492 2.96799C74.4892 2.98665 74.0039 3.00065 73.5932 3.00999L73.1592 1.38599ZM73.7612 11.032C74.5825 10.6587 75.2545 10.206 75.7772 9.67399C76.3092 9.13265 76.7012 8.51199 76.9532 7.81199C77.2145 7.10265 77.3452 6.30932 77.3452 5.43199C77.3452 5.43199 77.3452 5.32932 77.3452 5.12399C77.3452 4.90932 77.3452 4.59199 77.3452 4.17199C77.3452 3.74265 77.3452 3.20132 77.3452 2.54799L79.1792 2.33799C79.1792 2.58065 79.1792 2.84199 79.1792 3.12199C79.1792 3.39265 79.1792 3.66332 79.1792 3.93399C79.1792 4.20465 79.1792 4.45199 79.1792 4.67599C79.1792 4.89065 79.1792 5.06799 79.1792 5.20799C79.1792 5.33865 79.1792 5.40399 79.1792 5.40399C79.1792 6.33732 79.0625 7.22399 78.8292 8.06399C78.6052 8.90399 78.2272 9.67865 77.6952 10.388C77.1632 11.088 76.4445 11.7087 75.5392 12.25L73.7612 11.032ZM72.1092 4.73199C72.3052 4.75065 72.5152 4.76932 72.7392 4.78799C72.9632 4.80665 73.1825 4.81599 73.3972 4.81599C73.5279 4.81599 73.7752 4.81599 74.1392 4.81599C74.5032 4.81599 74.9419 4.81599 75.4552 4.81599C75.9779 4.81599 76.5379 4.81599 77.1352 4.81599C77.7325 4.81599 78.3299 4.81599 78.9272 4.81599C79.5245 4.81599 80.0845 4.81599 80.6072 4.81599C81.1299 4.81599 81.5779 4.81599 81.9512 4.81599C82.3245 4.81599 82.5765 4.81599 82.7072 4.81599C82.8099 4.81599 82.9405 4.81132 83.0992 4.80199C83.2579 4.79265 83.4165 4.78332 83.5752 4.77399C83.7432 4.75532 83.8785 4.74132 83.9812 4.73199V6.53799C83.7945 6.51932 83.5892 6.50532 83.3652 6.49599C83.1505 6.48665 82.9452 6.48199 82.7492 6.48199C82.6185 6.48199 82.3665 6.48199 81.9932 6.48199C81.6292 6.48199 81.1812 6.48199 80.6492 6.48199C80.1265 6.48199 79.5619 6.48199 78.9552 6.48199C78.3579 6.48199 77.7559 6.48199 77.1492 6.48199C76.5519 6.48199 75.9919 6.48199 75.4692 6.48199C74.9465 6.48199 74.5032 6.48199 74.1392 6.48199C73.7752 6.48199 73.5372 6.48199 73.4252 6.48199C73.2105 6.48199 72.9819 6.48665 72.7392 6.49599C72.4965 6.50532 72.2865 6.51932 72.1092 6.53799V4.73199ZM91.1805 2.54799C91.2085 2.70665 91.2411 2.87932 91.2785 3.06599C91.3251 3.24332 91.3671 3.42532 91.4045 3.61199C91.4885 3.88265 91.5865 4.23265 91.6985 4.66199C91.8198 5.09132 91.9505 5.56265 92.0905 6.07599C92.2305 6.58932 92.3705 7.11199 92.5105 7.64399C92.6598 8.16665 92.8045 8.67065 92.9445 9.15599C93.0845 9.63199 93.2058 10.0567 93.3085 10.43C93.4111 10.794 93.4905 11.074 93.5465 11.27C93.5838 11.3447 93.6211 11.4567 93.6585 11.606C93.6958 11.7553 93.7378 11.9047 93.7845 12.054C93.8405 12.2033 93.8871 12.3247 93.9245 12.418L92.0205 12.894C91.9925 12.698 91.9598 12.4927 91.9225 12.278C91.8851 12.0633 91.8338 11.858 91.7685 11.662C91.7125 11.4567 91.6331 11.1627 91.5305 10.78C91.4278 10.388 91.3111 9.94465 91.1805 9.44999C91.0498 8.95532 90.9098 8.44199 90.7605 7.90999C90.6205 7.37799 90.4851 6.85999 90.3545 6.35599C90.2238 5.84265 90.0978 5.38065 89.9765 4.96999C89.8645 4.54999 89.7711 4.22332 89.6965 3.98999C89.6498 3.80332 89.5891 3.62599 89.5145 3.45799C89.4491 3.28999 89.3791 3.13599 89.3045 2.99599L91.1805 2.54799ZM97.9005 4.70399C97.7605 5.01199 97.5691 5.36199 97.3265 5.75399C97.0931 6.14599 96.8365 6.54732 96.5565 6.95799C96.2765 7.36865 95.9965 7.76065 95.7165 8.13399C95.4365 8.49799 95.1705 8.81532 94.9185 9.08599L93.3785 8.31599C93.6211 8.10132 93.8778 7.83999 94.1485 7.53199C94.4191 7.22399 94.6711 6.91599 94.9045 6.60799C95.1471 6.29065 95.3245 6.01999 95.4365 5.79599C95.3338 5.81465 95.1378 5.85199 94.8485 5.90799C94.5685 5.96399 94.2278 6.03399 93.8265 6.11799C93.4251 6.20199 92.9865 6.29532 92.5105 6.39799C92.0438 6.49132 91.5725 6.58932 91.0965 6.69199C90.6205 6.79465 90.1678 6.89265 89.7385 6.98599C89.3091 7.06999 88.9311 7.14932 88.6045 7.22399C88.2778 7.28932 88.0305 7.34065 87.8625 7.37799L87.4285 5.69799C87.6525 5.67932 87.8671 5.65599 88.0725 5.62799C88.2778 5.59999 88.4925 5.56732 88.7165 5.52999C88.8285 5.51132 89.0245 5.47865 89.3045 5.43199C89.5938 5.38532 89.9345 5.32465 90.3265 5.24999C90.7278 5.17532 91.1571 5.09599 91.6145 5.01199C92.0718 4.91865 92.5338 4.82999 93.0005 4.74599C93.4671 4.65265 93.9058 4.56865 94.3165 4.49399C94.7271 4.40999 95.0865 4.33999 95.3945 4.28399C95.7025 4.21865 95.9265 4.16732 96.0665 4.12999C96.1878 4.11132 96.3138 4.08332 96.4445 4.04599C96.5751 3.99932 96.6871 3.95265 96.7805 3.90599L97.9005 4.70399ZM103.654 0.797988C103.897 0.965988 104.182 1.17132 104.508 1.41399C104.835 1.65665 105.171 1.92265 105.516 2.21199C105.871 2.49199 106.202 2.76732 106.51 3.03799C106.818 3.30865 107.07 3.55132 107.266 3.76599L105.838 5.22199C105.661 5.02599 105.428 4.79265 105.138 4.52199C104.849 4.25132 104.536 3.97132 104.2 3.68199C103.864 3.39265 103.533 3.11732 103.206 2.85599C102.88 2.59465 102.59 2.37532 102.338 2.19799L103.654 0.797988ZM101.904 10.122C102.632 10.0193 103.318 9.87465 103.962 9.68799C104.606 9.50132 105.204 9.28665 105.754 9.04399C106.305 8.80132 106.809 8.54932 107.266 8.28799C108.06 7.81199 108.788 7.27065 109.45 6.66399C110.113 6.05732 110.692 5.42732 111.186 4.77399C111.681 4.11132 112.073 3.46732 112.362 2.84199L113.454 4.81599C113.1 5.44132 112.661 6.06665 112.138 6.69199C111.625 7.31732 111.042 7.91465 110.388 8.48399C109.735 9.04399 109.03 9.54799 108.274 9.99599C107.798 10.2853 107.285 10.5607 106.734 10.822C106.184 11.074 105.6 11.298 104.984 11.494C104.378 11.6993 103.743 11.858 103.08 11.97L101.904 10.122ZM122.785 -1.21593e-05C122.766 0.167988 122.748 0.373321 122.729 0.615987C122.71 0.849321 122.701 1.07332 122.701 1.28799C122.701 1.42799 122.701 1.59599 122.701 1.79199C122.701 1.97865 122.701 2.16532 122.701 2.35199C122.701 2.53865 122.701 2.70665 122.701 2.85599H120.867C120.867 2.70665 120.867 2.54332 120.867 2.36599C120.867 2.18865 120.867 2.00665 120.867 1.81999C120.867 1.63332 120.867 1.45599 120.867 1.28799C120.867 1.06399 120.858 0.835321 120.839 0.601988C120.83 0.368654 120.811 0.167988 120.783 -1.21593e-05H122.785ZM126.705 3.00999C126.528 3.18732 126.336 3.38332 126.131 3.59799C125.935 3.81265 125.762 4.00399 125.613 4.17199C125.361 4.46132 125.062 4.77865 124.717 5.12399C124.381 5.45999 124.012 5.80065 123.611 6.14599C123.219 6.49132 122.808 6.81799 122.379 7.12599C121.875 7.48065 121.31 7.82132 120.685 8.14799C120.06 8.46532 119.397 8.76399 118.697 9.04399C117.997 9.31465 117.283 9.55732 116.555 9.77199L115.477 8.11999C116.83 7.82132 117.969 7.45265 118.893 7.01399C119.817 6.57532 120.582 6.16465 121.189 5.78199C121.544 5.53932 121.875 5.29665 122.183 5.05399C122.491 4.81132 122.762 4.57332 122.995 4.33999C123.228 4.09732 123.41 3.88265 123.541 3.69599C123.42 3.69599 123.224 3.69599 122.953 3.69599C122.682 3.69599 122.374 3.69599 122.029 3.69599C121.684 3.69599 121.324 3.69599 120.951 3.69599C120.578 3.69599 120.223 3.69599 119.887 3.69599C119.551 3.69599 119.257 3.69599 119.005 3.69599C118.753 3.69599 118.576 3.69599 118.473 3.69599C118.314 3.69599 118.118 3.70065 117.885 3.70999C117.652 3.70999 117.423 3.71465 117.199 3.72399C116.984 3.72399 116.802 3.73332 116.653 3.75199V1.91799C116.924 1.95532 117.227 1.98332 117.563 2.00199C117.908 2.01132 118.202 2.01599 118.445 2.01599C118.548 2.01599 118.744 2.01599 119.033 2.01599C119.332 2.01599 119.677 2.01599 120.069 2.01599C120.47 2.01599 120.89 2.01599 121.329 2.01599C121.768 2.01599 122.192 2.01599 122.603 2.01599C123.023 2.01599 123.387 2.01599 123.695 2.01599C124.012 2.01599 124.241 2.01599 124.381 2.01599C124.596 2.01599 124.801 2.00665 124.997 1.98799C125.202 1.95999 125.384 1.92265 125.543 1.87599L126.705 3.00999ZM122.673 6.06199C122.673 6.31399 122.673 6.63132 122.673 7.01399C122.673 7.38732 122.668 7.78399 122.659 8.20399C122.659 8.62399 122.659 9.03465 122.659 9.43599C122.659 9.82799 122.659 10.164 122.659 10.444C122.659 10.6307 122.664 10.836 122.673 11.06C122.682 11.284 122.696 11.4987 122.715 11.704C122.734 11.9093 122.748 12.0867 122.757 12.236H120.741C120.76 12.1053 120.778 11.9327 120.797 11.718C120.816 11.5127 120.83 11.298 120.839 11.074C120.848 10.8407 120.853 10.6307 120.853 10.444C120.853 10.1827 120.853 9.88399 120.853 9.54799C120.853 9.21199 120.853 8.87599 120.853 8.53999C120.853 8.19465 120.853 7.87265 120.853 7.57399C120.853 7.27532 120.853 7.01865 120.853 6.80399L122.673 6.06199ZM126.901 9.91199C126.5 9.58532 126.122 9.30065 125.767 9.05799C125.412 8.80599 125.058 8.57265 124.703 8.35799C124.348 8.13399 123.966 7.90999 123.555 7.68599L124.717 6.34199C125.146 6.57532 125.529 6.78999 125.865 6.98599C126.201 7.17265 126.542 7.37332 126.887 7.58799C127.232 7.80265 127.629 8.06399 128.077 8.37199L126.901 9.91199ZM136.449 11.13C136.477 10.99 136.5 10.8313 136.519 10.654C136.547 10.4673 136.561 10.2807 136.561 10.094C136.561 9.99132 136.561 9.78599 136.561 9.47799C136.561 9.16999 136.561 8.79665 136.561 8.35799C136.561 7.91932 136.561 7.44799 136.561 6.94399C136.561 6.43065 136.561 5.91265 136.561 5.38999C136.561 4.86732 136.561 4.37732 136.561 3.91999C136.561 3.45332 136.561 3.04732 136.561 2.70199C136.561 2.34732 136.561 2.09065 136.561 1.93199C136.561 1.61465 136.542 1.33932 136.505 1.10599C136.477 0.872655 136.458 0.746655 136.449 0.727988H138.535C138.526 0.746655 138.507 0.877321 138.479 1.11999C138.451 1.35332 138.437 1.62865 138.437 1.94599C138.437 2.10465 138.437 2.34265 138.437 2.65999C138.437 2.96799 138.437 3.32732 138.437 3.73799C138.437 4.13932 138.437 4.56865 138.437 5.02599C138.437 5.48332 138.437 5.93599 138.437 6.38399C138.437 6.82265 138.437 7.24265 138.437 7.64399C138.437 8.03599 138.437 8.37199 138.437 8.65199C138.437 8.93199 138.437 9.13732 138.437 9.26799C138.82 9.09999 139.216 8.87132 139.627 8.58199C140.038 8.29265 140.439 7.95665 140.831 7.57399C141.232 7.18199 141.587 6.76199 141.895 6.31399L142.973 7.85399C142.59 8.35799 142.124 8.85265 141.573 9.33799C141.032 9.82332 140.472 10.2667 139.893 10.668C139.314 11.0693 138.759 11.4053 138.227 11.676C138.078 11.76 137.956 11.8347 137.863 11.9C137.77 11.9747 137.69 12.04 137.625 12.096L136.449 11.13ZM129.967 10.92C130.583 10.4907 131.087 9.97265 131.479 9.36599C131.871 8.75932 132.16 8.16199 132.347 7.57399C132.45 7.26599 132.524 6.88799 132.571 6.43999C132.627 5.98265 132.669 5.49732 132.697 4.98399C132.725 4.46132 132.739 3.94799 132.739 3.44399C132.748 2.93065 132.753 2.45932 132.753 2.02999C132.753 1.74999 132.739 1.51199 132.711 1.31599C132.692 1.11065 132.664 0.919321 132.627 0.741987H134.685C134.676 0.760654 134.662 0.839988 134.643 0.979988C134.634 1.11065 134.62 1.26932 134.601 1.45599C134.592 1.63332 134.587 1.81999 134.587 2.01599C134.587 2.42665 134.582 2.90732 134.573 3.45799C134.564 3.99932 134.545 4.55465 134.517 5.12399C134.489 5.69332 134.447 6.23465 134.391 6.74799C134.335 7.25199 134.26 7.68132 134.167 8.03599C133.952 8.82932 133.63 9.56665 133.201 10.248C132.781 10.92 132.272 11.522 131.675 12.054L129.967 10.92Z" fill="#282828"/>
</svg>
